<svg width="158" height="201" viewBox="0 0 158 201" fill="none" xmlns="http://www.w3.org/2000/svg">
<g opacity="0.5">
<path d="M149.498 73.3822C164.417 47.8137 158.003 15.1227 141.495 4.45084C124.986 -6.22097 94.3854 2.54272 79.4671 28.1112C65.6583 51.7781 70.8704 82.0099 84.0508 94.3486C83.8022 94.3949 83.5644 94.4909 83.35 94.6313L79.5957 97.2084C79.3095 97.4048 79.0758 97.675 78.9167 97.9933C78.7576 98.3116 78.6785 98.6674 78.6868 99.0269C78.6951 99.3864 78.7906 99.7378 78.9642 100.048C79.1377 100.357 79.3837 100.615 79.6786 100.797L87.9209 105.872C88.2158 106.054 88.5499 106.153 88.8916 106.16C89.2332 106.168 89.5709 106.083 89.8728 105.915C90.1746 105.746 90.4305 105.499 90.6161 105.197C90.8017 104.895 90.9109 104.548 90.9334 104.189L91.2273 99.4815C91.2342 99.3173 91.2226 99.1528 91.1928 98.9915C107.616 105.882 135.66 97.1005 149.498 73.3822Z" fill="#EADE7F"/>
<path d="M143.726 33.5208C145.576 42.201 144.19 51.2977 139.854 58.9334C135.517 66.5691 128.561 72.1609 120.421 74.5545C118.564 75.1235 119.687 78.0609 121.532 77.4956C130.267 74.8156 137.718 68.7584 142.388 60.5387C147.059 52.319 148.605 42.5445 146.715 33.1755C146.315 31.1991 143.323 31.5298 143.726 33.5208Z" fill="white"/>
<path d="M83.9656 99.1884C79.8153 105.733 74.2507 111.149 67.7279 114.992C61.2051 118.836 53.9098 120.997 46.44 121.3C44.329 121.374 41.893 121.666 40.3755 119.796C39.78 119.103 39.4253 118.219 39.3692 117.287C39.3132 116.355 39.5593 115.43 40.0672 114.664C41.4552 112.73 44.1302 112.568 46.1253 113.443C48.3884 114.436 49.1785 117.006 48.8974 119.411C48.21 125.288 42.6399 128.239 38.1701 130.639C27.9854 136.106 17.8324 142.76 11.3813 152.982C5.4127 162.44 3.27051 175.182 8.34167 185.566C9.22888 187.383 11.84 185.812 10.9572 184.004C5.92781 173.705 9.07621 161.017 15.553 152.268C19.5242 147.122 24.3029 142.73 29.6822 139.281C32.4103 137.455 35.2347 135.793 38.1041 134.227C40.9722 132.821 43.716 131.15 46.3034 129.233C50.411 125.91 53.4614 120.053 51.2208 114.611C49.1304 109.534 41.8302 108.013 38.1809 112.141C37.4106 113.065 36.8701 114.176 36.6079 115.373C36.3457 116.571 36.37 117.819 36.6786 119.005C36.9872 120.19 37.5705 121.277 38.3762 122.166C39.1819 123.056 40.1848 123.722 41.2949 124.104C43.7103 124.944 46.7589 124.524 49.2476 124.278C56.7419 123.548 63.9851 121.057 70.4438 116.99C76.9024 112.923 82.4119 107.382 86.5664 100.776C87.6197 99.0661 85.0161 97.4824 83.9656 99.1883L83.9656 99.1884Z" fill="#EADE7F"/>
</g>
</svg>
