<svg width="384" height="260" viewBox="0 0 384 260" fill="none" xmlns="http://www.w3.org/2000/svg">
<g clip-path="url(#clip0)">
<path d="M25.8423 195.924C24.0189 195.924 22.1917 196 20.4073 196.151L20.1476 196.173C8.31186 197.221 -0.345457 203.298 0.0105941 210.31L0.0794269 211.578C0.124819 212.38 0.173182 213.241 0.21299 214.197C0.234551 214.669 0.877113 215.031 1.67665 215.031H292.808C313.334 214.906 333.786 214.749 353.592 214.564C357.306 214.572 361.018 214.379 364.712 213.987C370.216 213.335 374.037 212.042 376.393 210.035H376.393C379.323 207.545 379.415 204.411 379.238 200.869C378.877 193.718 378.519 186.206 378.162 178.716C377.847 172.115 377.533 165.532 377.219 159.229C377.024 155.489 376.593 152.188 373.266 149.664C369.66 146.935 363.083 145.552 353.719 145.552C353.606 145.552 353.493 145.552 353.379 145.553C324.031 145.657 294.952 155.76 281.02 170.693C279.416 172.413 277.921 174.254 276.475 176.034C274.339 178.665 272.131 181.384 269.495 183.816C268.068 185.151 266.525 186.355 264.884 187.415C264.771 187.493 264.641 187.577 264.504 187.657C264.191 187.861 263.863 188.058 263.544 188.234C261.675 189.314 259.706 190.211 257.664 190.911L257.457 190.98C257.302 191.035 257.134 191.091 256.966 191.142C255.787 191.521 254.561 191.848 253.334 192.113C248.023 193.285 241.984 193.566 235.386 192.948C229.326 192.364 223.345 191.144 217.541 189.307C211.43 187.373 205.711 184.963 200.18 182.632C197.751 181.607 195.238 180.549 192.728 179.545C192.257 179.357 191.793 179.172 191.322 178.987C188.257 177.791 185.478 176.804 182.827 175.968C176.258 173.889 169.459 172.628 162.582 172.214C155.283 171.814 148.851 172.568 143.469 174.451C141.985 174.969 140.541 175.592 139.146 176.316C132.771 179.631 128.841 184.522 125.041 189.253C120.314 195.137 115.425 201.222 105.773 204.376C94.6346 208.019 78.3766 206.506 66.8742 203.874C63.2578 203.046 59.6459 202.094 56.1527 201.173C54.7419 200.801 53.3301 200.431 51.9173 200.064C49.141 199.347 46.8689 198.797 44.7668 198.333L44.1019 198.185C43.7321 198.104 43.3619 198.024 42.985 197.947C40.4881 197.422 38.1632 197.009 35.8736 196.684L35.3318 196.605C34.2458 196.462 33.2305 196.343 32.2341 196.243L31.8364 196.203C29.885 196.017 27.8655 195.924 25.8423 195.924Z" fill="#F2F2F2"/>
<path d="M326.888 203.75C335.08 196.359 347.265 192.643 357.486 196.787C347.002 202.615 338.914 211.968 334.654 223.191C333.027 227.526 331.668 232.516 327.666 234.836C325.176 236.28 322.078 236.351 319.286 235.654C316.494 234.957 313.934 233.559 311.41 232.176L310.692 232.16C313.916 221.602 318.697 211.141 326.888 203.75Z" fill="#E6E6E6"/>
<path d="M357.429 197.012C348.377 198.183 339.924 202.18 333.27 208.435C331.813 209.757 330.574 211.299 329.598 213.007C328.7 214.701 328.272 216.605 328.358 218.52C328.402 220.308 328.654 222.132 328.264 223.9C328.05 224.801 327.649 225.648 327.086 226.383C326.523 227.119 325.811 227.727 324.997 228.168C322.996 229.319 320.702 229.682 318.447 229.959C315.942 230.266 313.336 230.545 311.168 231.952C310.905 232.122 310.656 231.704 310.919 231.534C314.69 229.087 319.463 229.978 323.519 228.344C325.412 227.582 327.086 226.245 327.679 224.222C328.198 222.454 327.939 220.573 327.879 218.763C327.768 216.895 328.115 215.029 328.89 213.326C329.777 211.575 330.955 209.987 332.373 208.631C335.519 205.527 339.132 202.937 343.08 200.956C347.574 198.671 352.426 197.173 357.425 196.525C357.734 196.485 357.737 196.972 357.429 197.012H357.429Z" fill="white"/>
<path d="M335.294 206.295C334.397 205.035 333.977 203.496 334.109 201.955C334.24 200.413 334.915 198.968 336.012 197.879C336.235 197.659 336.587 197.995 336.363 198.215C335.34 199.228 334.711 200.574 334.592 202.01C334.472 203.446 334.869 204.877 335.711 206.045C335.894 206.3 335.476 206.548 335.294 206.295V206.295Z" fill="white"/>
<path d="M328.216 217.617C331.326 218.169 334.531 217.526 337.189 215.818C337.453 215.648 337.701 216.066 337.439 216.236C334.668 218.008 331.333 218.67 328.097 218.089C327.788 218.033 327.909 217.561 328.216 217.617Z" fill="white"/>
<path d="M347.614 199.315C347.859 199.875 348.24 200.366 348.721 200.742C349.203 201.118 349.77 201.369 350.372 201.472C350.681 201.523 350.56 201.995 350.253 201.943C349.589 201.827 348.962 201.549 348.43 201.135C347.897 200.72 347.473 200.181 347.197 199.565C347.166 199.509 347.157 199.443 347.173 199.381C347.188 199.319 347.227 199.266 347.281 199.231C347.336 199.198 347.402 199.189 347.465 199.205C347.527 199.22 347.581 199.26 347.614 199.315Z" fill="white"/>
<path d="M368.741 232.429C368.547 232.403 368.354 232.376 368.157 232.352C365.549 232.005 362.918 231.872 360.289 231.952C360.085 231.955 359.879 231.961 359.676 231.97C353.344 232.23 347.115 233.666 341.306 236.203C338.995 237.215 336.764 238.401 334.634 239.752C331.691 241.618 328.649 243.875 325.359 244.635C325.017 244.719 324.67 244.78 324.32 244.821L310.728 233.038C310.711 232.996 310.69 232.957 310.673 232.914L310.109 232.469C310.214 232.391 310.324 232.313 310.429 232.236C310.49 232.191 310.554 232.148 310.615 232.103C310.656 232.074 310.698 232.045 310.733 232.016C310.747 232.006 310.761 231.997 310.772 231.99C310.808 231.961 310.844 231.938 310.877 231.913C311.494 231.475 312.115 231.041 312.741 230.611C312.743 230.608 312.743 230.608 312.749 230.607C317.483 227.283 322.593 224.532 327.974 222.414C328.135 222.352 328.299 222.288 328.467 222.233C330.89 221.33 333.383 220.628 335.921 220.133C337.311 219.866 338.714 219.67 340.124 219.545C343.768 219.229 347.439 219.49 351.003 220.316C358.106 221.966 364.603 225.871 368.452 231.961C368.55 232.117 368.646 232.27 368.741 232.429Z" fill="#E6E6E6"/>
<path d="M368.561 232.576C360.629 228.054 351.476 226.15 342.402 227.134C340.444 227.311 338.527 227.795 336.721 228.57C334.985 229.382 333.499 230.644 332.415 232.225C331.375 233.679 330.48 235.287 329.105 236.463C328.393 237.055 327.563 237.489 326.671 237.736C325.779 237.984 324.845 238.041 323.93 237.902C321.641 237.615 319.591 236.522 317.623 235.384C315.439 234.119 313.19 232.771 310.613 232.587C310.301 232.565 310.353 232.081 310.665 232.104C315.148 232.424 318.424 236.012 322.644 237.152C324.614 237.685 326.755 237.626 328.445 236.369C329.922 235.269 330.847 233.612 331.887 232.13C332.921 230.572 334.321 229.291 335.964 228.399C337.725 227.535 339.62 226.977 341.569 226.749C345.946 226.167 350.389 226.277 354.732 227.076C359.695 227.96 364.47 229.688 368.85 232.185C369.121 232.339 368.83 232.729 368.561 232.576V232.576Z" fill="white"/>
<path d="M345.305 226.645C345.346 225.098 345.936 223.617 346.968 222.465C348 221.313 349.408 220.567 350.939 220.358C351.249 220.317 351.327 220.797 351.017 220.838C349.591 221.03 348.28 221.726 347.321 222.8C346.362 223.874 345.818 225.257 345.788 226.697C345.781 227.01 345.298 226.956 345.305 226.645V226.645Z" fill="white"/>
<path d="M332.846 231.418C334.997 233.734 337.942 235.152 341.092 235.391C341.404 235.414 341.352 235.898 341.04 235.875C337.762 235.62 334.701 234.138 332.467 231.723C332.254 231.493 332.634 231.189 332.846 231.418H332.846Z" fill="white"/>
<path d="M359.339 228.498C359.198 229.093 359.207 229.714 359.365 230.304C359.523 230.895 359.826 231.437 360.245 231.882C360.46 232.11 360.08 232.413 359.866 232.187C359.405 231.694 359.072 231.094 358.896 230.442C358.72 229.79 358.706 229.104 358.856 228.446C358.865 228.382 358.897 228.325 358.947 228.285C358.997 228.245 359.06 228.225 359.124 228.23C359.187 228.237 359.246 228.269 359.286 228.32C359.327 228.37 359.346 228.434 359.339 228.498Z" fill="white"/>
<path d="M112.442 211.101C119.15 200.914 131.15 193.546 143.232 195.131C133.639 204.285 127.588 216.541 126.15 229.73C125.614 234.819 125.547 240.535 121.912 244.132C119.65 246.37 116.356 247.308 113.176 247.34C109.996 247.372 106.87 246.591 103.786 245.814L103.013 245.997C103.528 233.807 105.735 221.287 112.442 211.101Z" fill="#E6E6E6"/>
<path d="M143.234 195.387C133.878 199.161 125.947 205.791 120.569 214.334C119.378 216.153 118.482 218.148 117.912 220.246C117.422 222.308 117.494 224.464 118.118 226.489C118.662 228.389 119.438 230.269 119.512 232.268C119.534 233.292 119.34 234.309 118.942 235.252C118.544 236.196 117.952 237.045 117.204 237.743C115.384 239.531 113.031 240.558 110.696 241.483C108.102 242.509 105.392 243.534 103.465 245.642C103.231 245.898 102.849 245.52 103.082 245.265C106.436 241.597 111.789 241.22 115.673 238.343C117.485 237.001 118.904 235.104 118.976 232.776C119.039 230.74 118.24 228.8 117.673 226.881C117.035 224.915 116.888 222.822 117.244 220.785C117.706 218.665 118.524 216.638 119.664 214.793C122.166 210.597 125.311 206.821 128.984 203.603C133.155 199.907 137.927 196.953 143.094 194.868C143.414 194.739 143.552 195.259 143.234 195.387L143.234 195.387Z" fill="white"/>
<path d="M122.139 211.482C120.829 210.384 119.953 208.855 119.665 207.17C119.377 205.484 119.698 203.751 120.568 202.28C120.746 201.983 121.215 202.245 121.037 202.542C120.224 203.911 119.926 205.525 120.197 207.094C120.468 208.663 121.291 210.083 122.516 211.099C122.782 211.319 122.403 211.701 122.139 211.482Z" fill="white"/>
<path d="M117.715 225.562C121.195 225.286 124.444 223.706 126.813 221.138C127.047 220.884 127.429 221.262 127.195 221.516C124.725 224.183 121.341 225.82 117.719 226.1C117.374 226.126 117.372 225.588 117.715 225.562H117.715Z" fill="white"/>
<path d="M133.376 200.585C133.794 201.115 134.337 201.534 134.957 201.802C135.576 202.071 136.253 202.181 136.925 202.123C137.27 202.092 137.271 202.63 136.929 202.66C136.186 202.721 135.439 202.598 134.754 202.303C134.069 202.008 133.466 201.55 132.999 200.968C132.95 200.917 132.923 200.849 132.922 200.778C132.922 200.708 132.948 200.64 132.996 200.588C133.046 200.537 133.114 200.509 133.185 200.508C133.257 200.508 133.325 200.535 133.376 200.585H133.376Z" fill="white"/>
<path d="M165.174 230.117C164.959 230.142 164.744 230.168 164.527 230.197C161.642 230.553 158.791 231.142 156.001 231.961C155.784 232.02 155.565 232.084 155.351 232.15C148.65 234.193 142.387 237.463 136.879 241.795C134.689 243.521 132.633 245.411 130.729 247.449C128.1 250.264 125.474 253.525 122.167 255.255C121.824 255.439 121.47 255.602 121.107 255.743L103.296 246.927C103.266 246.886 103.233 246.85 103.203 246.809L102.475 246.49C102.566 246.378 102.663 246.264 102.754 246.152C102.806 246.087 102.862 246.023 102.915 245.958C102.951 245.915 102.988 245.873 103.018 245.832C103.03 245.818 103.042 245.803 103.052 245.793C103.082 245.752 103.115 245.718 103.143 245.681C103.681 245.041 104.225 244.404 104.774 243.77C104.776 243.766 104.776 243.766 104.782 243.764C108.979 238.941 113.616 234.426 118.789 230.76C118.945 230.649 119.102 230.535 119.266 230.429C121.607 228.789 124.078 227.344 126.654 226.107C128.067 225.434 129.513 224.834 130.987 224.307C134.797 222.955 138.795 222.211 142.836 222.103C150.891 221.888 158.926 224.255 164.734 229.697C164.883 229.836 165.027 229.974 165.174 230.117Z" fill="#E6E6E6"/>
<path d="M165.022 230.323C155.282 227.697 144.963 228.209 135.531 231.789C133.487 232.523 131.571 233.576 129.854 234.908C128.224 236.259 126.985 238.023 126.265 240.016C125.557 241.861 125.046 243.83 123.903 245.471C123.305 246.302 122.538 246.997 121.653 247.51C120.768 248.024 119.785 248.344 118.767 248.451C116.239 248.782 113.743 248.184 111.322 247.514C108.635 246.77 105.855 245.955 103.047 246.476C102.707 246.539 102.629 246.007 102.969 245.944C107.853 245.037 112.353 247.963 117.184 248.007C119.438 248.028 121.712 247.369 123.17 245.553C124.444 243.966 124.973 241.935 125.674 240.061C126.347 238.107 127.488 236.347 128.997 234.935C130.641 233.52 132.513 232.396 134.533 231.61C139.054 229.767 143.836 228.648 148.703 228.293C154.257 227.856 159.843 228.374 165.222 229.824C165.555 229.914 165.353 230.412 165.022 230.323Z" fill="white"/>
<path d="M138.501 230.458C138.116 228.792 138.335 227.043 139.119 225.524C139.903 224.005 141.2 222.814 142.78 222.164C143.1 222.034 143.318 222.526 142.997 222.656C141.525 223.259 140.316 224.368 139.589 225.784C138.862 227.2 138.664 228.83 139.032 230.379C139.112 230.716 138.58 230.792 138.501 230.458H138.501Z" fill="white"/>
<path d="M126.501 239.033C129.446 240.911 132.99 241.608 136.425 240.985C136.766 240.923 136.844 241.455 136.504 241.517C132.928 242.158 129.242 241.425 126.181 239.465C125.89 239.278 126.211 238.847 126.501 239.033V239.033Z" fill="white"/>
<path d="M154.025 228.531C154.04 229.206 154.222 229.868 154.556 230.455C154.889 231.043 155.363 231.539 155.934 231.898C156.228 232.081 155.906 232.512 155.614 232.33C154.984 231.93 154.462 231.382 154.092 230.733C153.722 230.085 153.517 229.356 153.494 228.609C153.486 228.539 153.505 228.468 153.547 228.412C153.589 228.355 153.651 228.317 153.72 228.304C153.791 228.294 153.862 228.312 153.919 228.355C153.977 228.397 154.015 228.46 154.025 228.531V228.531Z" fill="white"/>
<path d="M160.182 134.73C160.627 134.287 160.97 133.751 161.186 133.161C161.402 132.571 161.486 131.94 161.432 131.314C161.378 130.688 161.188 130.081 160.874 129.536C160.561 128.992 160.132 128.522 159.618 128.161L166.628 94.1927L159.065 96.5816L153.425 129.444C152.877 130.349 152.679 131.423 152.869 132.464C153.06 133.505 153.625 134.44 154.458 135.092C155.291 135.744 156.334 136.067 157.389 136C158.444 135.934 159.437 135.482 160.182 134.73Z" fill="#FFB6B6"/>
<path d="M176.386 43.9304L171.701 40.3896C171.701 40.3896 167.568 40.0966 166.836 47.5589C166.104 55.0212 161.521 83.6614 161.521 83.6614L154.352 116.906L164.276 119.087L171.955 83.2101L179.641 58.4587L176.386 43.9304Z" fill="#E6E6E6"/>
<path d="M172.817 105.445L150.343 87.9495C149.993 87.6764 149.765 87.2754 149.71 86.8345C149.655 86.3936 149.777 85.9488 150.049 85.5977L165.34 65.9086C165.613 65.5582 166.013 65.3304 166.454 65.2752C166.894 65.22 167.338 65.342 167.689 65.6143L190.163 83.1098C190.513 83.383 190.74 83.784 190.795 84.2249C190.85 84.6658 190.729 85.1105 190.457 85.4616L175.166 105.151C174.893 105.501 174.492 105.729 174.052 105.784C173.611 105.839 173.167 105.717 172.817 105.445Z" fill="#3F3D56"/>
<path d="M172.693 103.635L152.126 87.6232C151.815 87.3807 151.613 87.0247 151.564 86.6332C151.515 86.2417 151.623 85.8468 151.865 85.5351L165.727 67.686C165.969 67.3748 166.324 67.1726 166.715 67.1236C167.106 67.0746 167.501 67.1829 167.812 67.4247L188.38 83.4361C188.69 83.6786 188.892 84.0346 188.941 84.4261C188.99 84.8176 188.882 85.2125 188.641 85.5242L174.779 103.373C174.536 103.684 174.181 103.887 173.79 103.936C173.399 103.985 173.004 103.876 172.693 103.635Z" fill="white"/>
<path d="M154.823 87.1691C154.745 87.1085 154.694 87.0195 154.682 86.9216C154.67 86.8238 154.697 86.7251 154.757 86.6471L161.75 77.6428C161.811 77.5649 161.9 77.5143 161.997 77.502C162.046 77.496 162.095 77.4995 162.142 77.5124C162.189 77.5254 162.233 77.5475 162.272 77.5775C162.31 77.6075 162.342 77.6447 162.367 77.6872C162.391 77.7297 162.406 77.7765 162.412 77.8249C162.418 77.8734 162.415 77.9226 162.402 77.9697C162.389 78.0168 162.367 78.0609 162.337 78.0995L155.344 87.1038C155.283 87.1816 155.195 87.2322 155.097 87.2444C154.999 87.2567 154.9 87.2296 154.823 87.1691Z" fill="#E4E4E4"/>
<path d="M155.981 88.0715C155.904 88.0109 155.853 87.9219 155.841 87.824C155.829 87.7261 155.856 87.6274 155.916 87.5495L162.909 78.5451C162.97 78.4673 163.058 78.4166 163.156 78.4044C163.254 78.3921 163.353 78.4193 163.43 78.4798C163.508 78.5404 163.559 78.6294 163.571 78.7273C163.583 78.8252 163.556 78.9239 163.496 79.0018L156.503 88.0062C156.442 88.084 156.353 88.1345 156.256 88.1468C156.158 88.159 156.059 88.132 155.981 88.0715Z" fill="#E4E4E4"/>
<path d="M161.102 83.8726C161.025 83.8119 160.974 83.7229 160.962 83.625C160.95 83.5272 160.977 83.4285 161.037 83.3505L164.068 79.4474C164.098 79.4087 164.135 79.3763 164.178 79.3521C164.22 79.3279 164.267 79.3123 164.316 79.3061C164.364 79.3 164.413 79.3035 164.46 79.3165C164.507 79.3294 164.552 79.3515 164.59 79.3815C164.629 79.4116 164.661 79.4489 164.685 79.4914C164.709 79.5339 164.725 79.5808 164.731 79.6293C164.737 79.6779 164.733 79.7271 164.72 79.7743C164.707 79.8214 164.685 79.8655 164.655 79.9041L161.624 83.8072C161.563 83.885 161.474 83.9356 161.377 83.9478C161.279 83.9601 161.18 83.933 161.102 83.8726Z" fill="#E4E4E4"/>
<path d="M162.665 91.532C162.587 91.4714 162.536 91.3824 162.524 91.2845C162.512 91.1867 162.539 91.088 162.599 91.01L173.639 76.795C173.669 76.7564 173.706 76.7242 173.749 76.7C173.791 76.6759 173.838 76.6603 173.886 76.6542C173.935 76.6482 173.984 76.6517 174.031 76.6647C174.078 76.6776 174.122 76.6997 174.16 76.7297C174.199 76.7597 174.231 76.797 174.255 76.8394C174.279 76.8819 174.295 76.9287 174.301 76.9772C174.307 77.0256 174.304 77.0748 174.291 77.1219C174.278 77.169 174.256 77.2131 174.226 77.2517L163.186 91.4667C163.125 91.5445 163.036 91.5951 162.939 91.6073C162.841 91.6196 162.742 91.5925 162.665 91.532Z" fill="#E4E4E4"/>
<path d="M163.824 92.4344C163.746 92.3738 163.696 92.2848 163.684 92.1869C163.671 92.0891 163.698 91.9903 163.759 91.9124L174.798 77.6974C174.828 77.6588 174.866 77.6265 174.908 77.6024C174.95 77.5782 174.997 77.5627 175.046 77.5566C175.094 77.5505 175.143 77.5541 175.19 77.567C175.237 77.58 175.281 77.6021 175.32 77.632C175.358 77.662 175.391 77.6993 175.415 77.7418C175.439 77.7842 175.454 77.831 175.46 77.8795C175.466 77.928 175.463 77.9772 175.45 78.0243C175.437 78.0714 175.415 78.1155 175.385 78.1541L164.345 92.3691C164.285 92.4469 164.196 92.4975 164.098 92.5097C164 92.522 163.902 92.4949 163.824 92.4344Z" fill="#E4E4E4"/>
<path d="M166.454 94.4825C166.377 94.4219 166.326 94.3329 166.314 94.235C166.302 94.1371 166.329 94.0384 166.389 93.9605L177.429 79.7454C177.459 79.7069 177.496 79.6746 177.539 79.6505C177.581 79.6263 177.628 79.6108 177.676 79.6047C177.725 79.5986 177.774 79.6022 177.821 79.6151C177.868 79.6281 177.912 79.6501 177.95 79.6801C177.989 79.7101 178.021 79.7474 178.045 79.7899C178.069 79.8323 178.085 79.8791 178.091 79.9276C178.097 79.9761 178.093 80.0253 178.081 80.0724C178.068 80.1195 178.046 80.1636 178.016 80.2021L166.976 94.4172C166.915 94.495 166.826 94.5455 166.729 94.5578C166.631 94.57 166.532 94.5429 166.454 94.4825Z" fill="#E4E4E4"/>
<path d="M167.614 95.3848C167.536 95.3241 167.486 95.2351 167.473 95.1373C167.461 95.0394 167.488 94.9407 167.549 94.8627L178.588 80.6477C178.618 80.6091 178.656 80.5768 178.698 80.5527C178.74 80.5285 178.787 80.513 178.836 80.5069C178.884 80.5008 178.933 80.5044 178.98 80.5173C179.027 80.5303 179.071 80.5524 179.11 80.5824C179.148 80.6123 179.18 80.6496 179.205 80.6921C179.229 80.7346 179.244 80.7814 179.25 80.8298C179.256 80.8783 179.253 80.9275 179.24 80.9746C179.227 81.0217 179.205 81.0658 179.175 81.1044L168.135 95.3194C168.075 95.3972 167.986 95.4478 167.888 95.46C167.79 95.4723 167.692 95.4452 167.614 95.3848Z" fill="#E4E4E4"/>
<path d="M170.244 97.4328C170.167 97.3722 170.116 97.2832 170.104 97.1853C170.092 97.0874 170.119 96.9887 170.179 96.9108L181.219 82.6958C181.249 82.6572 181.286 82.6249 181.328 82.6008C181.371 82.5766 181.417 82.5611 181.466 82.555C181.514 82.5489 181.563 82.5525 181.61 82.5654C181.658 82.5784 181.702 82.6005 181.74 82.6305C181.779 82.6604 181.811 82.6977 181.835 82.7402C181.859 82.7826 181.875 82.8294 181.881 82.8779C181.887 82.9264 181.883 82.9756 181.87 83.0227C181.857 83.0698 181.835 83.1139 181.805 83.1525L170.766 97.3675C170.705 97.4453 170.616 97.4958 170.518 97.5081C170.421 97.5203 170.322 97.4933 170.244 97.4328Z" fill="#E4E4E4"/>
<path d="M171.404 98.3352C171.326 98.2746 171.275 98.1855 171.263 98.0877C171.251 97.9898 171.278 97.8911 171.338 97.8131L182.378 83.5982C182.439 83.5206 182.528 83.4703 182.625 83.4583C182.723 83.4462 182.821 83.4733 182.899 83.5338C182.976 83.5942 183.027 83.683 183.039 83.7807C183.052 83.8784 183.025 83.977 182.965 84.0549L171.925 98.2699C171.865 98.3477 171.776 98.3982 171.678 98.4105C171.58 98.4227 171.482 98.3956 171.404 98.3352Z" fill="#E4E4E4"/>
<path d="M152.953 114.844C153.037 114.844 153.105 114.775 153.105 114.691C153.105 114.606 153.037 114.538 152.953 114.538C152.868 114.538 152.8 114.606 152.8 114.691C152.8 114.775 152.868 114.844 152.953 114.844Z" fill="white"/>
<path d="M175.182 9.60221C174.645 12.4885 173.765 15.3001 172.561 17.977C165.664 32.5839 185.304 27.8228 192.323 27.8228C199.997 27.8228 207.339 31.8629 206.218 13.9114C205.739 6.24333 199.997 0 192.323 0C185.768 0 176.552 2.91695 175.182 9.60221Z" fill="#2F2E41"/>
<path d="M199.476 223.833H192.938L189.827 198.584H199.476V223.833Z" fill="#FFB6B6"/>
<path d="M202.927 235.175H198.238L197.401 230.743L195.258 235.175H182.822C182.226 235.175 181.645 234.984 181.165 234.63C180.685 234.277 180.33 233.779 180.153 233.209C179.976 232.639 179.985 232.027 180.179 231.463C180.373 230.899 180.743 230.412 181.233 230.073L191.164 223.206V218.725L201.61 219.35L202.927 235.175Z" fill="#2F2E41"/>
<path d="M238.319 215.572L233.072 219.478L215.528 201.076L223.271 195.311L238.319 215.572Z" fill="#FFB6B6"/>
<path d="M247.848 222.612L244.086 225.413L240.773 222.356L241.694 227.193L231.715 234.623C231.237 234.979 230.657 235.173 230.061 235.176C229.465 235.179 228.884 234.991 228.402 234.64C227.92 234.289 227.563 233.792 227.382 233.223C227.202 232.655 227.208 232.043 227.4 231.478L231.276 220.035L228.606 216.439L237.36 210.699L247.848 222.612Z" fill="#2F2E41"/>
<path d="M178.062 107.63L209.099 102.79L202.927 84.2004H178.062V107.63Z" fill="#FFB6B6"/>
<path d="M207.089 93.5634C207.089 93.5634 219.494 104.294 213.77 134.883L206.782 164.856L225.82 197.947L216.14 203.234L192.679 170.588L181.944 145.375L176.265 101.188L207.089 93.5634Z" fill="#2F2E41"/>
<path d="M187.861 152.56L187.114 164.129L189.299 198.388L200.142 202.126L202.196 167.025L187.861 152.56Z" fill="#2F2E41"/>
<path d="M184.527 31.6732L196.524 32.1418L201.305 40.0881L212.214 42.2203L205.702 75.205L206.899 93.9795L196.037 93.9132C188.209 93.8654 180.639 96.7128 174.778 101.909L175.103 77.5385L170.431 59.346L171.481 40.27L180.257 39.1717L184.527 31.6732Z" fill="#E6E6E6"/>
<path d="M191.173 27.8193C197.409 27.8193 202.464 22.758 202.464 16.5147C202.464 10.2713 197.409 5.21008 191.173 5.21008C184.937 5.21008 179.882 10.2713 179.882 16.5147C179.882 22.758 184.937 27.8193 191.173 27.8193Z" fill="#FFB6B6"/>
<path d="M183.506 4.99124C185.484 3.78361 187.751 3.13034 190.068 3.09976C192.385 3.06918 194.667 3.6624 196.677 4.81739C198.687 5.97239 200.349 7.64674 201.492 9.66536C202.634 11.684 203.213 13.9728 203.169 16.2923C197.416 17.7386 191.372 18.8453 185.236 16.6383L183.787 13.0878L182.933 16.6409C181.064 17.4055 179.191 18.0525 177.318 16.6335C177.241 14.3205 177.773 12.0278 178.858 9.98479C179.944 7.94174 181.547 6.21985 183.506 4.99124Z" fill="#2F2E41"/>
<path d="M210.126 116.771L211.648 130.6C211.754 130.945 211.967 131.247 212.257 131.462C212.547 131.676 212.899 131.792 213.259 131.792H220.275C220.636 131.792 220.987 131.676 221.277 131.462C221.567 131.247 221.781 130.945 221.887 130.6L223.148 120.001C223.511 120.179 223.913 120.269 224.318 120.262C224.723 120.255 225.121 120.152 225.479 119.961C225.836 119.771 226.144 119.498 226.375 119.165C226.607 118.832 226.757 118.449 226.812 118.047C226.867 117.645 226.826 117.236 226.692 116.852C226.558 116.469 226.336 116.124 226.042 115.844C225.749 115.564 225.394 115.357 225.005 115.241C224.617 115.126 224.206 115.104 223.808 115.178C223.651 114.992 223.455 114.843 223.234 114.74C223.013 114.638 222.772 114.585 222.529 114.586H211.737C211.473 114.586 211.213 114.648 210.978 114.767C210.742 114.886 210.538 115.059 210.381 115.271C210.224 115.484 210.119 115.73 210.075 115.991C210.031 116.251 210.048 116.518 210.126 116.771ZM223.368 119.284L224.14 116.771C224.23 116.481 224.238 116.172 224.166 115.877C224.199 115.875 224.23 115.867 224.263 115.867C224.748 115.867 225.213 116.06 225.556 116.403C225.899 116.747 226.091 117.212 226.091 117.698C226.091 118.183 225.899 118.649 225.556 118.992C225.213 119.335 224.748 119.528 224.263 119.528C223.949 119.526 223.64 119.442 223.368 119.284Z" fill="#B76E79"/>
<path d="M220.705 131.802C220.262 131.356 219.923 130.819 219.71 130.227C219.497 129.636 219.416 129.005 219.473 128.379C219.53 127.753 219.723 127.147 220.039 126.604C220.355 126.061 220.787 125.594 221.302 125.236L214.465 91.2317L222.016 93.659L227.489 126.549C228.033 127.457 228.225 128.533 228.029 129.573C227.833 130.613 227.263 131.545 226.427 132.192C225.591 132.84 224.547 133.158 223.492 133.086C222.438 133.014 221.446 132.557 220.705 131.802Z" fill="#FFB6B6"/>
<path d="M207.529 45.7611L212.214 42.2203C212.214 42.2203 216.347 41.9273 217.079 49.3896C217.811 56.8519 222.394 85.4921 222.394 85.4921L229.563 118.737L219.639 120.918L211.96 85.0408L204.274 60.2894L207.529 45.7611Z" fill="#E6E6E6"/>
<path d="M167.093 76.7149C168.558 76.7149 169.745 75.5261 169.745 74.0596C169.745 72.5931 168.558 71.4043 167.093 71.4043C165.629 71.4043 164.441 72.5931 164.441 74.0596C164.441 75.5261 165.629 76.7149 167.093 76.7149Z" fill="#B76E79"/>
<path d="M82.5224 254.636L88.0494 254.636L90.6789 233.292L82.5215 233.292L82.5224 254.636Z" fill="#FFB6B6"/>
<path d="M81.1125 252.829L82.6682 252.829L88.7419 250.356L91.9972 252.829H91.9976C93.8373 252.829 95.6015 253.561 96.9024 254.863C98.2032 256.165 98.934 257.932 98.9342 259.774V259.999L81.1129 260L81.1125 252.829Z" fill="#2F2E41"/>
<path d="M103.941 251.149L109.332 252.368L116.593 232.128L108.636 230.329L103.941 251.149Z" fill="#FFB6B6"/>
<path d="M102.963 249.076L104.481 249.419L110.949 248.346L113.58 251.476L113.581 251.476C115.375 251.882 116.935 252.985 117.918 254.542C118.9 256.099 119.224 257.983 118.819 259.78L118.769 260L101.386 256.071L102.963 249.076Z" fill="#2F2E41"/>
<path d="M72.4045 144.846L77.4025 200.909C77.4025 200.909 75.5298 234.567 81.5725 246.411H90.3362L94.6752 197.835L95.2201 165.231L114.008 192.738L102.042 245.617L112.828 246.582L132.247 189.197L110.912 135.325L72.4045 144.846Z" fill="#2F2E41"/>
<path d="M77.6388 55.5662C84.7574 55.5662 90.5282 49.7885 90.5282 42.6614C90.5282 35.5343 84.7574 29.7566 77.6388 29.7566C70.5203 29.7566 64.7495 35.5343 64.7495 42.6614C64.7495 49.7885 70.5203 55.5662 77.6388 55.5662Z" fill="#FFB8B8"/>
<path d="M100.297 67.8641L89.7232 63.3216L84.5756 57.8551L71.7161 59.9315L68.3042 65.7887L57.2593 76.0711L70.1996 134.651L69.8079 147.446C69.8079 147.446 78.0901 151.179 114.008 142.584C114.439 142.481 113.538 142.03 113.538 142.03L100.297 67.8641Z" fill="#3F3D56"/>
<path d="M64.2357 49.9841C64.1458 49.8614 64.0569 49.7377 63.9689 49.6129C63.9334 49.6878 63.9052 49.7653 63.8647 49.8384L64.2357 49.9841Z" fill="#2F2E41"/>
<path d="M90.46 33.2223C89.5984 31.3432 88.0623 29.8573 86.1568 29.0601C84.2681 28.2974 82.1572 28.2992 80.2699 29.0652C78.5659 27.9874 76.6726 27.1328 74.6786 27.027C72.6847 26.9212 70.5766 27.6618 69.3478 29.2921C69.0734 29.7224 68.7618 30.1278 68.4165 30.5035C67.4288 31.4193 65.9277 31.2872 64.6149 31.0999C65.2037 31.6052 65.7927 32.1105 66.3818 32.6157C65.6691 32.8022 64.9562 32.9886 64.2433 33.175C65.0751 33.6802 65.9069 34.1853 66.7387 34.6904C64.3239 36.1415 63.2263 39.3088 63.5162 42.1854C63.7905 44.9089 65.1038 47.3993 66.6737 49.6129C67.3 48.2897 67.165 46.7065 67.1547 45.2162C67.1439 43.6416 67.4222 41.8535 68.6824 40.9735C69.5325 40.3799 70.6257 40.3534 71.6508 40.359C76.8218 40.3874 81.987 40.7103 87.1214 41.326C87.8181 41.3562 88.4973 41.5534 89.1021 41.9012C90.2375 42.6767 90.4587 44.2772 90.5727 45.6812C91.1726 43.3629 91.4662 40.9758 91.446 38.5809C91.4965 36.7453 91.1605 34.9195 90.46 33.2223Z" fill="#2F2E41"/>
<path d="M94.473 184.147C105.677 184.147 114.76 175.053 114.76 163.835C114.76 152.618 105.677 143.524 94.473 143.524C83.2688 143.524 74.186 152.618 74.186 163.835C74.186 175.053 83.2688 184.147 94.473 184.147Z" fill="white"/>
<path d="M94.4734 143.073C93.4306 143.073 92.3892 143.152 91.3581 143.308C90.8307 143.384 90.3169 143.484 89.8073 143.606C86.0647 144.469 82.6354 146.357 79.9021 149.059C77.1687 151.76 75.2387 155.168 74.3274 158.904C73.4162 162.64 73.5595 166.555 74.7414 170.214C75.9234 173.873 78.0974 177.131 81.0209 179.624C81.3681 179.918 81.7196 180.202 82.0848 180.473C84.7167 182.438 87.777 183.748 91.0138 184.298C94.2506 184.847 97.5714 184.618 100.703 183.632C103.834 182.645 106.687 180.927 109.026 178.621C111.365 176.315 113.124 173.485 114.157 170.366C115.191 167.246 115.469 163.925 114.97 160.676C114.471 157.427 113.209 154.344 111.287 151.679C109.365 149.014 106.839 146.844 103.916 145.348C100.992 143.852 97.7563 143.072 94.4734 143.073V143.073ZM94.4734 183.696C90.2556 183.7 86.1474 182.351 82.752 179.845C82.3824 179.575 82.0263 179.295 81.6791 178.997C78.8308 176.591 76.7173 173.431 75.5811 169.877C74.445 166.324 74.3321 162.522 75.2555 158.907C76.1789 155.293 78.1011 152.012 80.8018 149.441C83.5024 146.871 86.8721 145.114 90.5243 144.373C91.029 144.269 91.534 144.188 92.048 144.125C92.8526 144.025 93.6626 143.975 94.4734 143.976C99.7342 143.976 104.78 146.068 108.5 149.793C112.22 153.517 114.309 158.568 114.309 163.836C114.309 169.103 112.22 174.154 108.5 177.879C104.78 181.603 99.7342 183.696 94.4734 183.696Z" fill="#3F3D56"/>
<path d="M84.5226 159.773H104.424C105.153 159.773 105.744 159.181 105.744 158.452V158.387C105.744 157.657 105.153 157.065 104.424 157.065H84.5226C83.7936 157.065 83.2026 157.657 83.2026 158.387V158.452C83.2026 159.181 83.7936 159.773 84.5226 159.773Z" fill="#B76E79"/>
<path d="M84.5226 165.189H104.424C105.153 165.189 105.744 164.598 105.744 163.868V163.803C105.744 163.073 105.153 162.481 104.424 162.481H84.5226C83.7936 162.481 83.2026 163.073 83.2026 163.803V163.868C83.2026 164.598 83.7936 165.189 84.5226 165.189Z" fill="#B76E79"/>
<path d="M84.5226 170.606H104.424C105.153 170.606 105.744 170.014 105.744 169.284V169.219C105.744 168.489 105.153 167.898 104.424 167.898H84.5226C83.7936 167.898 83.2026 168.489 83.2026 169.219V169.284C83.2026 170.014 83.7936 170.606 84.5226 170.606Z" fill="#B76E79"/>
<path d="M321.44 253.947L315.644 253.947L312.887 231.566L321.441 231.567L321.44 253.947Z" fill="#9E616A"/>
<path d="M294.021 253.947L288.226 253.947L285.469 231.566L294.023 231.567L294.021 253.947Z" fill="#9E616A"/>
<path d="M294.226 260L276.405 259.999V259.774C276.405 257.932 277.136 256.165 278.436 254.863C279.737 253.561 281.501 252.829 283.341 252.829H283.342L286.597 250.356L292.67 252.829L294.226 252.829L294.226 260Z" fill="#2F2E41"/>
<path d="M322.387 260L304.565 259.999V259.774C304.565 257.932 305.296 256.165 306.597 254.863C307.898 253.561 309.662 252.829 311.502 252.829H311.502L314.758 250.356L320.831 252.829L322.387 252.829L322.387 260Z" fill="#2F2E41"/>
<path d="M288.337 121.492L279.529 175.187L281.926 183.189L278.781 188.856L283.4 238.624L281.525 242.757L286.764 245.991H297.423L297.989 200.936L300.622 194.321V190.675L305.983 163.201L306.97 201.676L308.529 208.302L307.219 213.019L308.93 216.324L313.476 246.973H325.429L324.505 239.843C325.546 239.315 326.383 238.456 326.883 237.4C327.383 236.344 327.519 235.152 327.268 234.011L326.583 230.886L328.143 221.645L330.983 170.091L330.182 128.493L316.2 117.788L288.337 121.492Z" fill="#2F2E41"/>
<path d="M308.529 52.5414C314.662 52.5414 319.634 47.5633 319.634 41.4226C319.634 35.2819 314.662 30.3038 308.529 30.3038C302.396 30.3038 297.424 35.2819 297.424 41.4226C297.424 47.5633 302.396 52.5414 308.529 52.5414Z" fill="#9E616A"/>
<path d="M284.265 142.8C284.748 142.3 285.116 141.7 285.342 141.042C285.569 140.385 285.649 139.685 285.576 138.993C285.504 138.301 285.281 137.634 284.922 137.037C284.564 136.441 284.08 135.931 283.503 135.542L287.822 119.192L279.502 121.994L276.676 137.091C276.089 138.104 275.892 139.297 276.125 140.445C276.357 141.593 277.002 142.616 277.938 143.32C278.873 144.024 280.034 144.359 281.2 144.264C282.366 144.168 283.456 143.647 284.264 142.8H284.265Z" fill="#9E616A"/>
<path d="M288.81 64.2978L287.024 63.9268L285.501 64.7711C285.501 64.7711 281.246 70.4505 281.246 75.6566C281.246 80.8627 276.046 131.03 276.046 131.03L285.501 135.29L293.064 96.0077L288.81 64.2978Z" fill="#E6E6E6"/>
<path d="M318.254 33.2703C318.254 33.2703 321.159 27.7109 314.769 27.2055C314.769 27.2055 309.321 22.2578 303.768 26.301C303.768 26.301 300.74 26.301 299.083 29.7325C299.083 29.7325 296.701 28.828 296.178 31.2487C296.178 31.2487 294.435 36.3027 296.178 40.8513C297.921 45.3999 298.5 45.9053 298.5 45.9053C298.5 45.9053 295.636 36.3689 302.607 35.8635C309.579 35.3581 317.381 30.996 317.962 36.5554C318.543 42.1148 319.417 43.4846 319.417 43.4846C319.417 43.4846 324.935 35.5446 318.254 33.2703Z" fill="#2F2E41"/>
<path d="M358.822 188.856C357.983 188.857 357.174 188.548 356.55 187.988L322.941 158.035C322.264 157.43 321.854 156.581 321.801 155.674C321.749 154.766 322.058 153.875 322.66 153.196L344.19 128.98C344.795 128.302 345.643 127.892 346.549 127.839C347.455 127.786 348.345 128.095 349.024 128.699L382.633 158.652C383.311 159.257 383.721 160.106 383.774 161.014C383.827 161.921 383.517 162.812 382.914 163.491L361.383 187.707C361.085 188.044 360.723 188.319 360.318 188.515C359.914 188.711 359.474 188.825 359.025 188.85C358.957 188.854 358.889 188.856 358.822 188.856Z" fill="white"/>
<path d="M358.821 189.076C357.929 189.077 357.068 188.748 356.404 188.153L322.795 158.2C322.074 157.556 321.638 156.652 321.582 155.686C321.526 154.721 321.855 153.772 322.496 153.049L344.026 128.834C344.669 128.112 345.572 127.675 346.536 127.619C347.501 127.563 348.448 127.892 349.17 128.534L382.779 158.488C383.501 159.131 383.938 160.035 383.994 161.001C384.05 161.966 383.72 162.915 383.078 163.638L361.548 187.853C361.23 188.212 360.845 188.504 360.414 188.713C359.984 188.922 359.516 189.043 359.038 189.07C358.965 189.074 358.893 189.076 358.821 189.076ZM346.749 128.493C346.359 128.493 345.973 128.575 345.617 128.734C345.261 128.894 344.943 129.128 344.684 129.419L323.154 153.635C322.667 154.184 322.418 154.903 322.46 155.635C322.503 156.368 322.833 157.053 323.38 157.542L356.989 187.495C357.26 187.736 357.576 187.922 357.919 188.041C358.261 188.161 358.624 188.211 358.987 188.19C359.349 188.169 359.704 188.077 360.03 187.918C360.357 187.76 360.649 187.539 360.89 187.267L382.421 163.052C382.908 162.504 383.158 161.784 383.115 161.052C383.073 160.319 382.741 159.634 382.194 159.146L348.585 129.192C348.08 128.741 347.426 128.492 346.749 128.493H346.749Z" fill="#3F3D56"/>
<path d="M371.009 165.922C370.646 165.923 370.295 165.789 370.024 165.547L343.643 142.035C343.497 141.906 343.378 141.749 343.292 141.574C343.207 141.398 343.157 141.207 343.146 141.013C343.134 140.818 343.161 140.623 343.225 140.438C343.289 140.254 343.388 140.084 343.518 139.938C343.647 139.792 343.805 139.674 343.98 139.589C344.156 139.504 344.346 139.454 344.541 139.443C344.735 139.432 344.93 139.46 345.114 139.525C345.298 139.589 345.468 139.689 345.613 139.82L371.995 163.332C372.219 163.532 372.377 163.795 372.449 164.087C372.52 164.38 372.501 164.686 372.394 164.967C372.287 165.248 372.097 165.49 371.85 165.661C371.602 165.831 371.309 165.922 371.009 165.922Z" fill="#B76E79"/>
<path d="M365.977 171.582C365.614 171.582 365.263 171.449 364.993 171.207L338.611 147.695C338.466 147.565 338.347 147.408 338.263 147.233C338.178 147.058 338.128 146.868 338.117 146.673C338.106 146.479 338.133 146.284 338.197 146.1C338.261 145.916 338.36 145.747 338.49 145.601C338.619 145.456 338.776 145.337 338.951 145.252C339.126 145.167 339.316 145.118 339.51 145.107C339.704 145.095 339.899 145.123 340.083 145.187C340.266 145.251 340.436 145.35 340.581 145.48L366.963 168.992C367.187 169.192 367.346 169.455 367.417 169.747C367.488 170.039 367.469 170.346 367.362 170.627C367.255 170.908 367.065 171.15 366.818 171.321C366.57 171.491 366.277 171.582 365.977 171.582H365.977Z" fill="#B76E79"/>
<path d="M360.945 177.242C360.581 177.243 360.231 177.109 359.96 176.867L333.578 153.355C333.433 153.226 333.314 153.069 333.229 152.893C333.144 152.718 333.095 152.528 333.083 152.333C333.072 152.138 333.099 151.943 333.163 151.759C333.227 151.575 333.326 151.405 333.456 151.26C333.585 151.114 333.742 150.996 333.917 150.911C334.093 150.826 334.283 150.777 334.477 150.765C334.672 150.754 334.866 150.781 335.05 150.846C335.234 150.91 335.403 151.01 335.549 151.139L361.93 174.652C362.155 174.852 362.313 175.115 362.384 175.407C362.456 175.699 362.437 176.006 362.33 176.287C362.223 176.568 362.033 176.81 361.786 176.981C361.538 177.151 361.245 177.242 360.945 177.242H360.945Z" fill="#B76E79"/>
<path d="M330.775 143.765C330.437 143.158 330.235 142.483 330.185 141.789C330.135 141.095 330.238 140.399 330.486 139.749C330.734 139.099 331.121 138.511 331.62 138.027C332.12 137.543 332.719 137.175 333.376 136.948L333.404 120.035L340.724 124.886L339.575 140.203C339.883 141.333 339.766 142.537 339.246 143.586C338.726 144.636 337.84 145.458 336.755 145.897C335.671 146.336 334.463 146.362 333.361 145.969C332.258 145.576 331.339 144.792 330.775 143.765H330.775Z" fill="#9E616A"/>
<path d="M331.452 68.9323L334.722 65.7765L337.124 67.5125C337.124 67.5125 339.488 70.3522 341.379 78.8712C343.269 87.3903 341.379 134.245 341.379 134.245L330.979 132.825L332.397 108.215L328.143 87.3903L331.452 68.9323Z" fill="#E6E6E6"/>
<path d="M336.281 66.5461L325.263 61.2769L317.783 54.3305L304.143 54.2283L299.742 59.9553L288.126 63.906L290.062 104.01L288.742 107.093C288.742 107.093 289.662 107.925 290.082 108.39C290.502 108.856 289.501 112.75 289.501 112.75L288.937 116.987L290.502 118.107L288.468 120.513L287.962 124.306C287.962 124.306 323.478 115.468 330.189 130.109C330.544 130.883 329.67 123.323 329.67 123.323L328.797 117.788L329.663 112.82L330.984 111.499L328.77 109.282L330.189 98.7647L336.281 66.5461Z" fill="#3F3D56"/>
<path d="M86.4232 155.452C86.6966 154.757 86.8145 154.011 86.7685 153.265C86.7225 152.519 86.5138 151.793 86.1571 151.137C85.8004 150.481 85.3043 149.911 84.7038 149.467C84.1033 149.024 83.413 148.718 82.6815 148.57L80.234 130.577L73.1377 136.787L76.5498 152.922C76.3839 154.169 76.6805 155.433 77.3835 156.476C78.0865 157.518 79.1469 158.266 80.3639 158.578C81.581 158.89 82.87 158.744 83.9867 158.168C85.1035 157.592 85.9704 156.626 86.4232 155.452V155.452Z" fill="#FFB8B8"/>
<path d="M58.6203 75.7417L56.6969 76.1106L55.5342 77.5761C55.5342 77.5761 53.6533 84.9624 55.796 90.1243C57.9386 95.2862 73.4301 147.173 73.4301 147.173L84.5571 147.496L75.8892 105.427L58.6203 75.7417Z" fill="#3F3D56"/>
<path d="M102.487 152.813C101.974 152.27 101.587 151.621 101.352 150.912C101.117 150.203 101.04 149.451 101.127 148.709C101.213 147.967 101.461 147.253 101.853 146.618C102.245 145.982 102.772 145.44 103.396 145.03L98.9658 127.421L107.863 130.534L110.706 146.779C111.324 147.874 111.52 149.158 111.256 150.388C110.992 151.618 110.286 152.707 109.273 153.451C108.26 154.195 107.01 154.541 105.759 154.423C104.508 154.305 103.344 153.733 102.487 152.813Z" fill="#FFB8B8"/>
<path d="M98.5991 68.4715L100.521 68.0957L102.146 69.0215C102.146 69.0215 106.642 75.1731 106.576 80.7626C106.51 86.3521 111.459 140.28 111.459 140.28L101.255 144.734L93.6306 102.463L98.5991 68.4715Z" fill="#3F3D56"/>
</g>
<defs>
<clipPath id="clip0">
<rect width="384" height="260" fill="white"/>
</clipPath>
</defs>
</svg>
