<svg width="60" height="60" viewBox="0 0 60 60" fill="none" xmlns="http://www.w3.org/2000/svg">
<path d="M37.8638 7.20001C37.6213 7.20001 37.4597 7.36258 37.4597 7.60643V8.09382C36.7322 8.25639 36.2472 8.90698 36.2472 9.63853V10.4514H35.843C35.6005 10.4514 35.4388 10.6139 35.4388 10.8578V12.4835C35.4388 12.7273 35.6005 12.8899 35.843 12.8899H36.2472V14.5156H35.843C35.6005 14.5156 35.4388 14.6781 35.4388 14.922V16.5477C35.4388 16.7915 35.6005 16.9541 35.843 16.9541H36.2472V20.2055H35.0347C34.7922 20.2055 34.6305 20.368 34.6305 20.6119V23.0504C34.6305 23.2942 34.7922 23.4568 35.0347 23.4568H35.4388V28.3338H35.0347H34.9541C34.55 27.6023 33.9832 26.8704 33.1749 26.3827L30.1041 24.5125V23.7823C30.1041 23.5384 29.9425 23.3758 29.7 23.3758C29.4575 23.3758 29.2958 23.5384 29.2958 23.7823V24.5125L26.2235 26.5446C25.496 27.0324 24.8497 27.6833 24.5263 28.4148H24.4458H24.0416V23.5378H24.4458C24.6883 23.5378 24.85 23.3752 24.85 23.1314V20.6928C24.85 20.449 24.6883 20.2864 24.4458 20.2864H23.2333V17.0351H23.6375C23.88 17.0351 24.0416 16.8725 24.0416 16.6286V15.003C24.0416 14.7591 23.88 14.5965 23.6375 14.5965H23.2333V12.9709H23.6375C23.88 12.9709 24.0416 12.8083 24.0416 12.5644V10.9388C24.0416 10.6949 23.88 10.5323 23.6375 10.5323H23.2333V9.7195C23.2333 8.98794 22.7483 8.33735 22.0208 8.17479V7.6874C22.0208 7.44355 21.8591 7.28098 21.6166 7.28098C21.3741 7.28098 21.2125 7.44355 21.2125 7.6874V8.17479C20.485 8.33735 20 8.98794 20 9.7195V10.5323H19.5958C19.3533 10.5323 19.1916 10.6949 19.1916 10.9388V12.5644C19.1916 12.8083 19.3533 12.9709 19.5958 12.9709H20V14.5965H19.5958C19.3533 14.5965 19.1916 14.7591 19.1916 15.003V16.6286C19.1916 16.8725 19.3533 17.0351 19.5958 17.0351H20V20.2864H18.7875C18.545 20.2864 18.3833 20.449 18.3833 20.6928V23.1314C18.3833 23.3752 18.545 23.5378 18.7875 23.5378H19.1916V28.4148H18.7875C18.545 28.4148 18.3833 28.5774 18.3833 28.8212V31.2598C18.3833 31.5036 18.545 31.6662 18.7875 31.6662H19.1916V34.1047H17.3318C17.1702 32.7229 16.1995 31.423 14.6637 30.6914L10.8652 28.8212V28.2529C10.8652 28.009 10.7035 27.8465 10.461 27.8465C10.2185 27.8465 10.0568 28.0903 10.0568 28.2529V28.8212L6.25831 30.6914C4.72248 31.423 3.75184 32.7229 3.59018 34.1047H1.81248C1.56998 34.1047 1.40831 34.2673 1.40831 34.5111V35.7304H1.00414C0.761642 35.7304 0.599976 35.8929 0.599976 36.1368V38.5753C0.599976 38.8192 0.761642 38.9817 1.00414 38.9817H1.40831V51.9872H1.00414C0.761642 51.9872 0.599976 52.1497 0.599976 52.3936C0.599976 52.6374 0.761642 52.8 1.00414 52.8H1.81248H19.5958H23.4749H23.6375H35.5999H35.7625H39.8041H57.5875H58.3958C58.6383 52.8 58.8 52.6374 58.8 52.3936C58.8 52.1497 58.6383 51.9872 58.3958 51.9872H57.9916V38.9817H58.3958C58.6383 38.9817 58.8 38.8192 58.8 38.5753V36.1368C58.8 35.8929 58.6383 35.7304 58.3958 35.7304H57.9916V34.5111C57.9916 34.2673 57.83 34.1047 57.5875 34.1047H55.3235C55.1618 32.7229 54.1912 31.423 52.6554 30.6914L48.8568 28.8212V28.2529C48.8568 28.009 48.6952 27.8465 48.4527 27.8465C48.2102 27.8465 48.0485 28.0903 48.0485 28.2529V28.8212L44.3305 30.6088C42.7947 31.3404 41.824 32.6419 41.6624 34.0237H40.2888V31.5852H40.693C40.9355 31.5852 41.0972 31.4226 41.0972 31.1788V28.7403C41.0972 28.4964 40.9355 28.3338 40.693 28.3338H40.2888V23.4568H40.693C40.9355 23.4568 41.0972 23.2942 41.0972 23.0504V20.6119C41.0972 20.368 40.9355 20.2055 40.693 20.2055H39.4805V16.9541H39.8847C40.1272 16.9541 40.2888 16.7915 40.2888 16.5477V14.922C40.2888 14.6781 40.1272 14.5156 39.8847 14.5156H39.4805V12.8899H39.8847C40.1272 12.8899 40.2888 12.7273 40.2888 12.4835V10.8578C40.2888 10.6139 40.1272 10.4514 39.8847 10.4514H39.4805V9.63853C39.4805 8.90698 38.9955 8.25639 38.268 8.09382V7.60643C38.268 7.36258 38.1063 7.20001 37.8638 7.20001ZM21.6166 8.90666C22.0208 8.90666 22.425 9.31308 22.425 9.7195V10.5323H20.8083V9.7195C20.8083 9.31308 21.1316 8.90666 21.6166 8.90666ZM37.7833 8.90666C38.1875 8.90666 38.5916 9.31308 38.5916 9.7195V10.5323H36.975V9.7195C36.975 9.31308 37.2983 8.90666 37.7833 8.90666ZM20 11.3452H20.4041H22.8291H23.2333V12.158H22.8291H20.4041H20V11.3452ZM36.1666 11.3452H36.5708H38.9958H39.4V12.158H38.9958H36.5708H36.1666V11.3452ZM20.8083 12.9709H22.425V14.5965H20.8083V12.9709ZM36.975 12.9709H38.5916V14.5965H36.975V12.9709ZM20 15.4094H20.4041H22.8291H23.2333V16.2222H22.8291H20.4041H20V15.4094ZM36.1666 15.4094H36.5708H38.9958H39.4V16.2222H38.9958H36.5708H36.1666V15.4094ZM20.8083 17.0351H22.425V20.2864H20.8083V17.0351ZM36.975 17.0351H38.5916V20.2864H36.975V17.0351ZM19.1916 21.0993H20.4041H22.8291H24.0416V22.7249H23.6375H19.5958H19.1916V21.0993ZM35.3583 21.0993H36.5708H38.9958H40.2083V22.7249H39.8041H35.7625H35.3583V21.0993ZM20 23.5378H23.2333V28.4148H20V23.5378ZM36.1666 23.5378H39.4V28.4148H36.1666V23.5378ZM29.7 25.3254L32.6902 27.1956C33.8218 27.9271 34.55 29.0651 34.55 30.4469V30.8533H24.85V30.4469C24.85 29.1464 25.4957 27.9271 26.7082 27.1956L29.7 25.3254ZM19.1916 29.2277H19.5958H23.6375H24.0416V30.4469V30.8533H23.6375H19.5958H19.1916V29.2277ZM35.3583 29.2277H35.7625H39.8041H40.2083V30.8533H39.8041H35.7625H35.3583V30.4469V29.2277ZM10.461 29.5531L14.2595 31.4217C15.5529 32.072 16.3618 33.048 16.5235 34.1047H4.39851C4.56018 33.048 5.36914 31.9907 6.66248 31.4217L10.461 29.5531ZM48.4527 29.5531L52.2512 31.4217C53.5446 32.072 54.273 33.048 54.4347 34.1047H42.3902C42.5518 32.9667 43.3608 31.9907 44.6541 31.4217L48.4527 29.5531ZM20 31.6662H23.2333V32.8854V35.324V46.1354V51.9872H20V38.5753V36.1368V34.5111V31.6662ZM24.0416 31.6662H24.2027H24.4458H25.6583V32.479H24.0416V31.6662ZM26.4666 31.6662H28.0833V32.479H26.4666V31.6662ZM28.8916 31.6662H30.5083V32.479H28.8916V31.6662ZM31.3166 31.6662H32.9333V32.479H31.3166V31.6662ZM33.7416 31.6662H34.9541H35.3583V32.479H33.7416V31.6662ZM36.1666 31.6662H39.4V34.5111V36.1368V38.5753V51.9872H36.1666V46.1354V35.324V32.8854V31.6662ZM24.0416 33.2919H35.3583V34.9175H24.0416V33.2919ZM2.21664 34.9175H3.02498V35.7304H2.21664V34.9175ZM3.83331 34.9175H5.44998V35.7304H3.83331V34.9175ZM6.25831 34.9175H7.87498V35.7304H6.25831V34.9175ZM8.68331 34.9175H10.3V35.7304H8.68331V34.9175ZM11.1083 34.9175H12.725V35.7304H11.1083V34.9175ZM13.5333 34.9175H15.15V35.7304H13.5333V34.9175ZM15.9583 34.9175H17.575V35.7304H15.9583V34.9175ZM18.3833 34.9175H19.1916V35.7304H18.3833V34.9175ZM40.2083 34.9175H41.0166V35.7304H40.2083V34.9175ZM41.825 34.9175H43.4416V35.7304H41.825V34.9175ZM44.25 34.9175H45.8666V35.7304H44.25V34.9175ZM46.675 34.9175H48.2916V35.7304H46.675V34.9175ZM49.1 34.9175H50.7166V35.7304H49.1V34.9175ZM51.525 34.9175H53.1416V35.7304H51.525V34.9175ZM53.95 34.9175H55.5666V35.7304H53.95V34.9175ZM56.375 34.9175H57.1833V35.7304H56.375V34.9175ZM24.0416 35.7304H35.3583V42.4776C34.7116 41.0145 33.6605 39.7949 32.2055 38.9008L29.861 37.437C29.6993 37.3557 29.5377 37.3557 29.4568 37.437L27.1124 38.9817C25.7382 39.8759 24.6883 41.0954 24.0416 42.5585V35.7304ZM1.40831 36.5432H1.81248H19.1916V38.1689H1.81248H1.40831V36.5432ZM40.2083 36.5432H57.5875H57.9916V38.1689H57.5875H40.2083V36.5432ZM29.7 38.2499L31.8013 39.6326C34.0647 41.0145 35.3583 43.453 35.3583 46.1354V51.9872H24.0416V46.1354C24.0416 43.5343 25.3337 41.0958 27.597 39.6326L29.7 38.2499ZM2.29716 38.9817H19.1916V51.9872H15.15V46.6227C15.15 44.5906 14.1793 42.8024 12.4818 41.7457L10.9457 40.7693C10.784 40.6881 10.6224 40.6881 10.5415 40.7693L9.00538 41.7457C7.30788 42.8024 6.33883 44.6719 6.33883 46.6227V51.9872H2.29716V38.9817ZM40.2888 38.9817H57.2638V51.9872H53.1416V46.6227C53.1416 44.5906 52.171 42.8024 50.4735 41.7457L48.9374 40.7693C48.7757 40.6881 48.614 40.6881 48.5332 40.7693L46.997 41.7457C45.2995 42.8024 44.3305 44.6719 44.3305 46.6227V51.9872H40.2888V38.9817ZM6.41934 40.0391C5.77268 40.0391 5.20684 40.608 5.20684 41.2583C5.20684 41.9086 5.77268 42.4776 6.41934 42.4776C7.06601 42.4776 7.63184 41.9086 7.63184 41.2583C7.63184 40.608 7.06601 40.0391 6.41934 40.0391ZM14.5027 40.0391C13.856 40.0391 13.2902 40.608 13.2902 41.2583C13.2902 41.9086 13.856 42.4776 14.5027 42.4776C15.1493 42.4776 15.7152 41.9086 15.7152 41.2583C15.7152 40.608 15.1493 40.0391 14.5027 40.0391ZM44.411 40.0391C43.7643 40.0391 43.1985 40.608 43.1985 41.2583C43.1985 41.9086 43.7643 42.4776 44.411 42.4776C45.0577 42.4776 45.6235 41.9086 45.6235 41.2583C45.6235 40.608 45.0577 40.0391 44.411 40.0391ZM52.4943 40.0391C51.8477 40.0391 51.2818 40.608 51.2818 41.2583C51.2818 41.9086 51.8477 42.4776 52.4943 42.4776C53.141 42.4776 53.7068 41.9086 53.7068 41.2583C53.7068 40.608 53.141 40.0391 52.4943 40.0391ZM6.41934 40.8519C6.66184 40.8519 6.82351 41.0145 6.82351 41.2583C6.82351 41.5022 6.66184 41.6647 6.41934 41.6647C6.17684 41.6647 6.01518 41.5022 6.01518 41.2583C6.01518 41.0145 6.17684 40.8519 6.41934 40.8519ZM14.5027 40.8519C14.7452 40.8519 14.9068 41.0145 14.9068 41.2583C14.9068 41.5022 14.7452 41.6647 14.5027 41.6647C14.2602 41.6647 14.0985 41.5022 14.0985 41.2583C14.0985 41.0145 14.2602 40.8519 14.5027 40.8519ZM44.411 40.8519C44.6535 40.8519 44.8152 41.0145 44.8152 41.2583C44.8152 41.5022 44.6535 41.6647 44.411 41.6647C44.1685 41.6647 44.0068 41.5022 44.0068 41.2583C44.0068 41.0145 44.1685 40.8519 44.411 40.8519ZM52.4943 40.8519C52.7368 40.8519 52.8985 41.0145 52.8985 41.2583C52.8985 41.5022 52.7368 41.6647 52.4943 41.6647C52.2518 41.6647 52.0902 41.5022 52.0902 41.2583C52.0902 41.0145 52.2518 40.8519 52.4943 40.8519ZM10.7041 41.5822L11.9972 42.395C13.4522 43.2891 14.3416 44.9158 14.3416 46.6227V51.9872H7.06664V46.7037C7.06664 44.9967 7.95486 43.453 9.32903 42.4776L10.7041 41.5822ZM48.6958 41.5822L49.9888 42.395C51.4438 43.2891 52.3333 44.9158 52.3333 46.6227V51.9872H45.0583V46.7037C45.0583 44.9967 45.9465 43.453 47.3207 42.4776L48.6958 41.5822ZM4.24695 46.3179C4.17622 46.3179 4.11528 46.3376 4.07486 46.3783L3.75121 46.6227C3.34705 46.8666 3.10549 47.3543 3.10549 47.842V49.1422C3.10549 49.3861 3.26716 49.5487 3.50966 49.5487H5.12633C5.36883 49.5487 5.53049 49.3861 5.53049 49.1422V47.842C5.44966 47.273 5.20684 46.7856 4.80268 46.5418L4.47903 46.3783C4.3982 46.3376 4.31768 46.3179 4.24695 46.3179ZM42.2386 46.3179C42.1679 46.3179 42.1069 46.3376 42.0665 46.3783L41.7429 46.6227C41.3387 46.8666 41.0972 47.3543 41.0972 47.842V49.1422C41.0972 49.3861 41.2588 49.5487 41.5013 49.5487H43.118C43.3605 49.5487 43.5222 49.3861 43.5222 49.1422V47.842C43.4413 47.273 43.1985 46.7856 42.7943 46.5418L42.4707 46.3783C42.3899 46.3376 42.3093 46.3179 42.2386 46.3179ZM55.172 46.3179C55.1012 46.3179 55.0403 46.3376 54.9999 46.3783L54.6762 46.6227C54.2721 46.8666 54.0305 47.3543 54.0305 47.842V49.1422C54.0305 49.3861 54.1922 49.5487 54.4347 49.5487H56.0513C56.2938 49.5487 56.4555 49.3861 56.4555 49.1422V47.842C56.3747 47.273 56.1318 46.7856 55.7277 46.5418L55.404 46.3783C55.3232 46.3376 55.2427 46.3179 55.172 46.3179ZM17.1803 46.3989C17.1096 46.3989 17.0486 46.4186 17.0082 46.4592L16.6845 46.7037C16.2804 46.9476 16.0388 47.4353 16.0388 47.923V49.2232C15.958 49.3858 16.12 49.5487 16.3625 49.5487H17.9791C18.2216 49.5487 18.3833 49.3861 18.3833 49.1422V47.842C18.3833 47.3543 18.1402 46.8666 17.736 46.6227L17.4124 46.4592C17.3315 46.4186 17.251 46.3989 17.1803 46.3989ZM4.23748 47.1911L4.31799 47.2721C4.47966 47.4346 4.64164 47.5982 4.64164 47.842V48.7358H3.83331V47.842C3.83331 47.5982 3.91288 47.4346 4.15538 47.2721L4.23748 47.1911ZM17.1708 47.1911L17.2513 47.2721C17.413 47.4346 17.575 47.5982 17.575 47.842V48.7358H16.7666V47.842C16.7666 47.5982 16.8462 47.4346 17.0887 47.2721L17.1708 47.1911ZM42.2291 47.1911L42.3097 47.2721C42.4713 47.4346 42.6333 47.5982 42.6333 47.842V48.7358H41.825V47.842C41.825 47.5982 41.9045 47.4346 42.147 47.2721L42.2291 47.1911ZM55.1625 47.1911L55.243 47.2721C55.4047 47.4346 55.5666 47.5982 55.5666 47.842V48.7358H54.7583V47.842C54.7583 47.5982 54.8379 47.4346 55.0804 47.2721L55.1625 47.1911Z" fill="#505565"/>
</svg>
