<svg width="32" height="32" viewBox="0 0 32 32" fill="none" xmlns="http://www.w3.org/2000/svg">
<circle cx="16" cy="16" r="16" fill="#F2C94C"/>
<mask id="mask0_400_42622" style="mask-type:alpha" maskUnits="userSpaceOnUse" x="0" y="0" width="32" height="32">
<circle cx="16" cy="16" r="16" fill="#C4C4C4"/>
</mask>
<g mask="url(#mask0_400_42622)">
<path d="M18.8147 31.5683H18.5835L18.5786 31.4534C18.5609 31.1245 18.505 30.68 18.3384 30.4294C18.0969 30.0726 17.9004 29.8243 17.3902 29.6309C17.3875 29.6298 17.3847 29.6304 17.3819 29.6296C17.3753 29.6276 17.3687 29.6269 17.3618 29.6264C17.3554 29.6259 17.3492 29.6255 17.3429 29.6264C17.3362 29.6272 17.3299 29.6293 17.3233 29.6315C17.3173 29.6336 17.3116 29.6357 17.3061 29.639C17.3034 29.6405 17.3003 29.6408 17.2977 29.6426L17.2364 29.6859C17.1785 29.6752 17.1023 29.6648 17.0004 29.6518C16.9462 29.645 16.8909 29.638 16.8457 29.6312C16.8409 29.5344 16.8383 29.4363 16.8389 29.376C17.0044 29.3602 17.3765 29.3051 17.6861 29.1182C17.8684 29.0082 18.0156 28.8776 18.2603 28.5128C18.271 28.5137 18.2836 28.5152 18.2942 28.5165C18.3815 28.5271 18.5278 28.5445 18.6692 28.4501C18.9722 28.2501 19.0426 27.9494 18.978 27.7402C18.9306 27.5865 18.8167 27.4795 18.6642 27.4316C18.84 27.2702 18.8892 26.9365 18.8892 26.7661C18.8892 25.6925 18.5831 25.0109 18.3773 24.8147L18.3427 24.781C17.5653 24.0164 16.6078 23.8121 15.4966 24.173C15.1103 24.2988 14.552 24.7515 14.4104 25.0541C14.3722 25.1362 14.0363 25.8733 14.0057 26.4505C13.9854 26.8327 14.0011 27.3585 14.3696 27.5112L14.3713 27.5126C14.1745 27.5605 14.0642 27.6904 14.0246 27.8186C13.9706 27.9932 14.0205 28.2508 14.3217 28.4499C14.4636 28.5445 14.61 28.5271 14.6974 28.5165C14.708 28.5152 14.7207 28.5137 14.7314 28.5128C14.9714 28.8668 15.1661 29.0022 15.3607 29.1198C15.6637 29.3028 15.9966 29.3586 16.1512 29.3752C16.1528 29.4385 16.1504 29.5358 16.1457 29.6313C16.1008 29.638 16.0459 29.645 15.9921 29.6518C15.8938 29.6643 15.8194 29.6745 15.7622 29.6848L15.7014 29.6424C15.6987 29.6404 15.6955 29.6402 15.6926 29.6386C15.6875 29.6356 15.6823 29.6338 15.6768 29.6318C15.6698 29.6293 15.663 29.6271 15.6558 29.6262C15.6499 29.6255 15.6441 29.626 15.638 29.6263C15.6308 29.6268 15.624 29.6276 15.6172 29.6296C15.6145 29.6304 15.6118 29.6299 15.6092 29.6309C15.099 29.8243 14.9025 30.0726 14.6605 30.4302C14.4944 30.68 14.4384 31.1245 14.4208 31.4545C14.4191 31.4919 14.4191 31.5303 14.4183 31.5683H14.1862C14.1297 31.5683 14.0839 31.6163 14.0839 31.6756V32.2676C14.0839 32.3269 14.1297 32.375 14.1862 32.375L14.6258 32.3749L15.361 32.375C15.3787 32.375 15.3946 32.369 15.4091 32.3607C15.6654 32.3621 16.3023 32.3652 16.5318 32.3604L16.8895 32.3637C16.9961 32.3637 17.0703 32.3633 17.1803 32.3626L17.5903 32.3607C17.6048 32.369 17.6207 32.375 17.6384 32.375H18.3734H18.8147C18.8712 32.375 18.917 32.3269 18.917 32.2676V31.6756C18.917 31.6163 18.8712 31.5683 18.8147 31.5683ZM15.2587 32.1464C15.2534 32.1464 15.2485 32.1467 15.2432 32.1468C15.1888 32.1475 15.1355 32.1487 15.0842 32.1505L15.081 32.1506C15.0801 32.1506 15.0791 32.1506 15.0782 32.1507L14.6703 32.1587L14.2886 32.1603V31.783H15.2587V32.1464ZM18.7124 32.1603H18.3753L17.7407 32.1477V31.783H18.7124V32.1603Z" fill="#FFDFBA"/>
<path d="M16.5036 30.2014L16.9814 29.8644L17.7008 30.0255L17.3352 31.0081C17.3232 31.0402 17.2973 31.0643 17.2655 31.0729C17.257 31.0753 17.2484 31.0764 17.2399 31.0764C17.2163 31.0764 17.1932 31.0679 17.1747 31.0518L16.5039 30.4698L15.8331 31.0518C15.8146 31.0679 15.7915 31.0764 15.7679 31.0764C15.7593 31.0764 15.7507 31.0753 15.7423 31.0729C15.7105 31.0643 15.6845 31.0402 15.6726 31.0081L15.3052 30.0208L16.0195 29.8633L16.5036 30.2014Z" fill="#505565"/>
<path d="M18.8892 26.7661C18.8892 26.9365 18.84 27.2702 18.6642 27.4316C18.5623 27.449 18.482 27.5634 18.4546 27.6184C18.4188 27.6802 18.4155 27.7317 18.4153 27.7354C18.4142 27.7694 18.3978 27.8028 18.371 27.8222L18.2877 27.8822C18.254 27.9065 18.2096 27.9074 18.1751 27.8845C18.1406 27.8616 18.1223 27.8193 18.1287 27.7769C18.1295 27.7715 18.2107 27.232 18.2107 27.0531C18.2107 26.5537 17.9563 26.3195 17.6957 26.1223C17.5117 25.9831 17.3575 25.9114 17.245 25.8746C17.1157 26.1373 16.6658 26.7847 15.7674 26.9771C15.7344 26.9841 15.6867 26.9964 15.633 27.0103L15.6261 27.0121C15.2533 27.1087 15.1523 27.1237 15.096 27.0356C15.0654 26.9878 15.0762 26.9232 15.1204 26.8892C15.1213 26.8884 15.1667 26.8533 15.2314 26.7946C15.015 26.8343 14.8342 26.8502 14.7265 26.8566C14.7337 27.0119 14.7446 27.2903 14.7374 27.4098C14.7252 27.6235 14.8097 27.8397 14.8123 27.8463L14.8123 27.8465C14.8285 27.8868 14.8197 27.9335 14.79 27.9643C14.7704 27.9846 14.7444 27.9954 14.718 27.9954C14.7043 27.9954 14.6906 27.9925 14.6775 27.9866L14.5203 27.9155C14.4838 27.899 14.4597 27.8618 14.4585 27.8202C14.4575 27.7852 14.4541 27.7498 14.4489 27.716C14.4489 27.6482 14.4334 27.5126 14.3713 27.5126C14.3707 27.5123 14.3702 27.5115 14.3696 27.5112C14.0011 27.3585 13.9854 26.8327 14.0057 26.4505C14.0363 25.8733 14.3722 25.1362 14.4104 25.0541C14.552 24.7515 15.1103 24.2988 15.4966 24.173C16.6078 23.8121 17.5653 24.0164 18.3427 24.781L18.3773 24.8147C18.5831 25.0109 18.8892 25.6925 18.8892 26.7661Z" fill="#505565"/>
<path d="M7.91865 16C7.91636 16.0007 7.91392 16.0015 7.91151 16.0023C7.91066 16.0025 7.90994 16.0029 7.90909 16.0032C7.85831 16.0168 7.80835 16.0232 7.75812 16.0333C7.3894 16.108 7.01998 16.1007 6.66224 16.005C6.65667 16.0034 6.65109 16.0016 6.64551 16V16.3794H7.91865V16Z" fill="#FFDFBA"/>
<path d="M8.03912 15.1366C8.83016 14.7951 9.33879 13.9814 9.33879 13.062C9.33879 11.8313 8.41631 10.8301 7.28263 10.8301C6.14856 10.8301 5.22607 11.8313 5.22607 13.062C5.22607 13.9817 5.73493 14.7956 6.52273 15.1353C6.60761 15.1739 6.68969 15.2036 6.77457 15.2293C6.86363 15.253 6.95605 15.2688 7.04985 15.2796C7.29628 15.3077 7.55353 15.2921 7.79667 15.2275C7.87517 15.2034 7.95646 15.1739 8.03855 15.1367C8.03873 15.1366 8.03895 15.1366 8.03912 15.1366Z" fill="#FFEBD2"/>
<path d="M25.2053 27.2812H27.9294V23.7598H21.4932L21.4819 23.9155V27.2812H24.2872H25.2053Z" fill="#505565"/>
<path d="M28.3373 23.5572L28.4656 25.3323H30.0002L29.151 18.3754C29.0123 17.2519 28.0536 16.4043 26.9211 16.4043H25.7603C25.7586 16.4312 25.7515 16.4564 25.7478 16.4827C25.7434 16.5139 25.74 16.545 25.733 16.5751C25.7246 16.6113 25.7124 16.6455 25.7004 16.6801C25.6903 16.7088 25.6816 16.7377 25.6692 16.7652C25.6541 16.7988 25.6353 16.8298 25.6169 16.8614C25.6021 16.8869 25.5887 16.913 25.5717 16.937C25.5505 16.9673 25.5258 16.9944 25.5015 17.0222C25.4826 17.0439 25.4652 17.0667 25.4446 17.0867C25.4175 17.113 25.3873 17.1353 25.3576 17.1585C25.3355 17.1758 25.315 17.1948 25.2915 17.2103C25.2586 17.232 25.2227 17.249 25.1873 17.2669C25.1637 17.279 25.1415 17.2933 25.1169 17.3036C25.0758 17.3206 25.0322 17.3317 24.9888 17.3434C24.967 17.3493 24.9466 17.3582 24.9243 17.3627C24.8575 17.3761 24.7886 17.3836 24.7179 17.3836C24.6472 17.3836 24.5782 17.3761 24.5114 17.3627C24.4891 17.3582 24.4687 17.3493 24.4469 17.3434C24.4035 17.3317 24.3598 17.3206 24.3187 17.3036C24.2941 17.2934 24.272 17.279 24.2484 17.267C24.2129 17.249 24.177 17.2321 24.1439 17.2103C24.1205 17.1948 24.1001 17.1759 24.078 17.1586C24.0482 17.1354 24.0179 17.113 23.9909 17.0867C23.9702 17.0667 23.9529 17.0439 23.934 17.0223C23.9097 16.9944 23.8849 16.9673 23.8637 16.937C23.8468 16.913 23.8334 16.8869 23.8185 16.8614C23.8 16.8298 23.7813 16.7988 23.7662 16.7652C23.7538 16.7378 23.7451 16.7089 23.7351 16.6803C23.723 16.6456 23.7108 16.6113 23.7024 16.5751C23.6953 16.5449 23.692 16.5139 23.6876 16.4827C23.6839 16.4564 23.6767 16.4312 23.6751 16.4043H22.5183C21.3854 16.4043 20.4271 17.2517 20.2888 18.3756L19.436 25.3323H19.866H20.9702L21.0738 23.8989V23.5572C21.0738 23.5185 21.0875 23.4844 21.1062 23.4535L21.3886 19.5641C21.397 19.4515 21.5057 19.3674 21.607 19.3754C21.7193 19.3835 21.8038 19.4812 21.7958 19.5935L21.5228 23.3532H27.9137L27.64 19.5935C27.632 19.4812 27.7165 19.3835 27.8288 19.3754C27.9316 19.368 28.0388 19.4515 28.0472 19.5641L28.3369 23.5425C28.3371 23.5452 28.3358 23.5476 28.3359 23.5503C28.336 23.5527 28.3373 23.5548 28.3373 23.5572Z" fill="#FFDFBA"/>
<path d="M9.91569 16.0348C9.9511 16.0406 9.98579 16.047 10.0209 16.0542C10.157 16.082 10.2912 16.1171 10.4206 16.1656C10.4243 16.167 10.4285 16.1674 10.4322 16.1688V12.9353C10.4322 12.0953 10.1043 11.3048 9.50854 10.7088C8.91281 10.1131 8.12222 9.78516 7.28183 9.78516C5.54485 9.78516 4.13184 11.1984 4.13184 12.9353V16.1686C4.13627 16.1669 4.14113 16.1665 4.14556 16.1648C4.27387 16.1168 4.40686 16.082 4.54182 16.0544C4.57759 16.0471 4.61295 16.0405 4.64904 16.0346C4.79075 16.0116 4.93385 15.9957 5.07863 15.9957H6.23741V15.4447C5.3743 15.0131 4.81802 14.0959 4.81802 13.0617C4.81802 11.606 5.9238 10.4217 7.28262 10.4217C8.64144 10.4217 9.74683 11.606 9.74683 13.0617C9.74683 14.095 9.19152 15.0113 8.32664 15.4448V15.9957H9.48543C9.63037 15.9957 9.77375 16.0117 9.91569 16.0348Z" fill="#505565"/>
<path d="M21.4814 31.9558C21.4814 32.6507 22.0469 33.2162 22.7418 33.2162H22.8227C23.5177 33.2162 24.0827 32.6507 24.0827 31.9558V26.6895H21.4814V31.9558Z" fill="#505565"/>
<path d="M11.0074 31.8884L10.6641 26.0371H3.90001L3.55664 31.8884H5.20555H6.94532H8.12323H9.863H11.0074Z" fill="#505565"/>
<path d="M26.6696 33.2162C27.3645 33.2162 27.93 32.6507 27.93 31.9558V26.6895H25.4092V31.9558C25.4092 32.6507 25.9746 33.2162 26.6696 33.2162Z" fill="#505565"/>
<path d="M25.0566 11C23.9225 11 23 12.0012 23 13.2319C23 14.1516 23.5089 14.9655 24.2967 15.3052C24.3819 15.3438 24.4632 15.3733 24.5485 15.3992C24.7094 15.4421 24.8804 15.464 25.0534 15.4642C25.2263 15.4641 25.4009 15.4423 25.569 15.3974C25.6479 15.3733 25.7292 15.3438 25.8105 15.3068C25.8114 15.3064 25.8125 15.3067 25.8135 15.3062C26.6043 14.9644 27.1131 14.1512 27.1131 13.2319C27.1131 12.0012 26.1906 11 25.0566 11Z" fill="#FFEBD2"/>
<path d="M25.3542 16.0003C25.3513 16.0012 25.3487 16.0025 25.3458 16.0034C25.2402 16.0317 25.1362 16.0522 25.0316 16.0657C24.7162 16.1078 24.402 16.0865 24.0982 16.0052C24.0922 16.0036 24.0866 16.0018 24.0811 16V16.3796H25.3542V16.0003Z" fill="#FFDFBA"/>
<path d="M2.85315 18.7597L2 25.717H3.53395L3.95256 19.9488C3.96092 19.8362 4.05815 19.7522 4.17092 19.7601C4.2833 19.7683 4.36777 19.8659 4.3598 19.9783L3.92745 25.9358C3.92743 25.9361 3.92725 25.9363 3.92723 25.9367L3.92307 26.0149H10.6411L10.6369 25.9367C10.6369 25.9363 10.6367 25.9361 10.6367 25.9358L10.2039 19.9783C10.196 19.8659 10.2804 19.7683 10.3928 19.7601C10.5052 19.7528 10.6028 19.8362 10.6112 19.9488L11.0302 25.717H12.1294H12.5645L11.715 18.7601C11.6241 18.0353 11.185 17.3959 10.5398 17.0505C10.2203 16.8795 9.85565 16.7891 9.48546 16.7891H8.32469C8.32302 16.816 8.31582 16.8412 8.31214 16.8675C8.3078 16.8986 8.30439 16.9297 8.29734 16.9599C8.28892 16.996 8.27677 17.0303 8.26469 17.0649C8.2547 17.0936 8.24596 17.1225 8.23359 17.1499C8.21847 17.1836 8.19966 17.2147 8.18121 17.2463C8.16639 17.2717 8.15299 17.2977 8.13613 17.3218C8.11484 17.3521 8.09006 17.3792 8.06575 17.407C8.04685 17.4287 8.02951 17.4514 8.00892 17.4715C7.98185 17.4978 7.95151 17.5201 7.92172 17.5434C7.89966 17.5606 7.87921 17.5796 7.8558 17.595C7.82283 17.6168 7.78689 17.6337 7.75145 17.6517C7.72781 17.6638 7.7057 17.6781 7.68107 17.6883C7.64 17.7054 7.59627 17.7165 7.55278 17.7282C7.53106 17.7341 7.51062 17.743 7.48838 17.7474C7.42156 17.7609 7.35259 17.7683 7.28186 17.7683C7.21118 17.7683 7.14227 17.7609 7.07548 17.7474C7.05316 17.743 7.03274 17.7341 7.01097 17.7282C6.96756 17.7164 6.9239 17.7054 6.88291 17.6883C6.85825 17.6781 6.83609 17.6638 6.81243 17.6517C6.77706 17.6337 6.74115 17.6168 6.70823 17.595C6.68479 17.5795 6.66427 17.5606 6.64218 17.5433C6.61247 17.5201 6.58221 17.4978 6.55518 17.4715C6.53456 17.4514 6.5172 17.4286 6.49828 17.407C6.47399 17.3792 6.44926 17.352 6.42799 17.3218C6.41111 17.2978 6.39768 17.2716 6.38284 17.2462C6.36441 17.2146 6.34563 17.1835 6.33054 17.15C6.31816 17.1225 6.30942 17.0936 6.29943 17.0649C6.28735 17.0303 6.2752 16.996 6.26678 16.9599C6.25974 16.9297 6.25632 16.8986 6.25199 16.8675C6.2483 16.8412 6.24111 16.816 6.23944 16.7891H5.07866C4.70808 16.7891 4.34347 16.8795 4.02428 17.0505C3.37795 17.3965 2.94041 18.0357 2.85315 18.7597Z" fill="#FFDFBA"/>
</g>
</svg>
