<svg width="80" height="80" viewBox="0 0 80 80" fill="none" xmlns="http://www.w3.org/2000/svg">
<path d="M77.0883 4.25365H73.2232V2.94539C73.2232 1.3212 71.9171 0 70.3115 0H68.3258C66.7202 0 65.4141 1.3212 65.4141 2.94539V4.25365H58.5643V2.94539C58.5643 1.3212 57.2582 0 55.6526 0H53.666C52.0604 0 50.7543 1.3212 50.7543 2.94539V4.25365H43.9045V2.94539C43.9045 1.3212 42.5984 0 40.9928 0H39.0067C37.4011 0 36.095 1.3212 36.095 2.94539V4.25365H29.2447V2.94539C29.2447 1.3212 27.9386 0 26.333 0H24.3474C22.7418 0 21.4357 1.3212 21.4357 2.94539V4.25365H14.5849V2.94539C14.5849 1.3212 13.2788 0 11.6732 0H9.68758C8.08199 0 6.7759 1.3212 6.7759 2.94539V4.25365H2.91168C1.30608 4.25365 0 5.57485 0 7.19903V77.0546C0 78.6788 1.30608 80 2.91168 80H77.0883C78.6939 80 80 78.6788 80 77.0546V7.19903C80 5.57485 78.6939 4.25365 77.0883 4.25365ZM67.3553 2.94539C67.3553 2.40415 67.7903 1.96359 68.3258 1.96359H70.3115C70.847 1.96359 71.282 2.40415 71.282 2.94539V10.7413C71.282 11.2825 70.847 11.7231 70.3115 11.7231H68.3258C67.7903 11.7231 67.3553 11.2825 67.3553 10.7413V2.94539ZM52.6955 2.94539C52.6955 2.40415 53.1305 1.96359 53.666 1.96359H55.6526C56.1881 1.96359 56.6232 2.40415 56.6232 2.94539V10.7413C56.6232 11.2825 56.1881 11.7231 55.6526 11.7231H53.666C53.1305 11.7231 52.6955 11.2825 52.6955 10.7413V2.94539V2.94539ZM38.0361 2.94539C38.0361 2.40415 38.4717 1.96359 39.0067 1.96359H40.9928C41.5283 1.96359 41.9634 2.40415 41.9634 2.94539V10.7413C41.9634 11.2825 41.5283 11.7231 40.9928 11.7231H39.0067C38.4717 11.7231 38.0361 11.2825 38.0361 10.7413V2.94539ZM23.3768 2.94539C23.3768 2.40415 23.8123 1.96359 24.3474 1.96359H26.333C26.8681 1.96359 27.3036 2.40415 27.3036 2.94539V10.7413C27.3036 11.2825 26.8681 11.7231 26.333 11.7231H24.3474C23.8123 11.7231 23.3768 11.2825 23.3768 10.7413V2.94539ZM8.71702 2.94539C8.71702 2.40415 9.15254 1.96359 9.68758 1.96359H11.6732C12.2083 1.96359 12.6438 2.40415 12.6438 2.94539V10.7413C12.6438 11.2825 12.2083 11.7231 11.6732 11.7231H9.68758C9.15254 11.7231 8.71702 11.2825 8.71702 10.7413V2.94539ZM78.0589 77.0546C78.0589 77.5963 77.6238 78.0364 77.0883 78.0364H2.91168C2.37664 78.0364 1.94112 77.5963 1.94112 77.0546V7.19903C1.94112 6.6578 2.37664 6.21724 2.91168 6.21724H6.7759V10.7413C6.7759 12.3654 8.08199 13.6866 9.68758 13.6866H11.6732C13.2788 13.6866 14.5849 12.3654 14.5849 10.7413V6.21724H21.4357V10.7413C21.4357 12.3654 22.7418 13.6866 24.3474 13.6866H26.333C27.9386 13.6866 29.2447 12.3654 29.2447 10.7413V6.21724H36.095V10.7413C36.095 12.3654 37.4011 13.6866 39.0067 13.6866H40.9928C42.5984 13.6866 43.9045 12.3654 43.9045 10.7413V6.21724H50.7543V10.7413C50.7543 12.3654 52.0604 13.6866 53.666 13.6866H55.6526C57.2582 13.6866 58.5643 12.3654 58.5643 10.7413V6.21724H65.4141V10.7413C65.4141 12.3654 66.7202 13.6866 68.3258 13.6866H70.3115C71.9171 13.6866 73.2232 12.3654 73.2232 10.7413V6.21724H77.0883C77.6238 6.21724 78.0589 6.6578 78.0589 7.19903V77.0546V77.0546ZM52.0367 37.7483H50.3534V32.7772C52.1186 32.3344 53.4357 30.7302 53.4357 28.8095C53.4357 26.8239 50.6728 23.472 50.1193 22.82C49.7497 22.3847 49.0161 22.3847 48.6464 22.82C48.0929 23.472 45.33 26.8239 45.33 28.8095C45.33 30.7302 46.6471 32.3344 48.4123 32.7772V37.7483H40.9701V30.3492C42.9814 29.8984 44.4922 28.0863 44.4922 25.9179C44.4922 23.6992 41.3634 19.9024 40.736 19.1642C40.3663 18.7289 39.6323 18.7289 39.2636 19.1642C38.6361 19.9024 35.5069 23.6992 35.5069 25.9179C35.5069 28.0862 37.018 29.8984 39.029 30.3492V37.7483H31.5872V32.7772C33.3524 32.3344 34.6695 30.7302 34.6695 28.8095C34.6695 26.8239 31.9066 23.472 31.3526 22.82C30.9839 22.3847 30.2494 22.3847 29.8807 22.82C29.3267 23.472 26.5638 26.8239 26.5638 28.8095C26.5638 30.7302 27.8809 32.3344 29.6461 32.7772V37.7483H27.9623C21.985 37.7483 17.1217 42.6678 17.1217 48.7149V68.1034C17.1217 69.7276 18.4278 71.0488 20.0334 71.0488H59.9661C61.5717 71.0488 62.8778 69.7276 62.8778 68.1034V48.7149C62.8778 42.6678 58.0146 37.7483 52.0367 37.7483ZM47.2711 28.8095C47.2711 28.1221 48.2682 26.4759 49.3829 25.0156C50.4975 26.4759 51.4946 28.1221 51.4946 28.8095C51.4946 29.9879 50.5477 30.9457 49.3829 30.9457C48.218 30.9457 47.2711 29.9879 47.2711 28.8095ZM37.448 25.9179C37.448 25.0022 38.7697 22.9475 40 21.355C41.2298 22.9466 42.551 25.0013 42.551 25.9179C42.551 27.3407 41.4061 28.4989 39.9995 28.4989C38.5925 28.4989 37.448 27.3407 37.448 25.9179ZM28.5049 28.8095C28.5049 28.1221 29.5016 26.4759 30.6167 25.0156C31.7318 26.4759 32.7284 28.1221 32.7284 28.8095C32.7284 29.9879 31.7811 30.9457 30.6167 30.9457C29.4523 30.9457 28.5049 29.9879 28.5049 28.8095ZM60.9367 68.1034C60.9367 68.6451 60.5016 69.0852 59.9661 69.0852H20.0334C19.4984 69.0852 19.0629 68.6451 19.0629 68.1034V66.53H60.9367V68.1034ZM60.9367 64.5664H19.0629V61.2462H60.9367V64.5664ZM60.9367 59.2826H19.0629V51.171C19.9951 51.3189 20.583 51.6781 21.2357 52.0812C22.2001 52.6766 23.2934 53.3515 25.3909 53.3515C27.4889 53.3515 28.5822 52.6766 29.5471 52.0812C30.4015 51.5538 31.1394 51.0984 32.6914 51.0984C34.243 51.0984 34.9804 51.5538 35.8344 52.0812C36.7983 52.6766 37.8911 53.3515 39.9882 53.3515C42.0866 53.3515 43.1804 52.6766 44.1453 52.0812C45.0002 51.5538 45.7385 51.0984 47.291 51.0984C48.8454 51.0984 49.5838 51.5538 50.4397 52.0812C51.4055 52.6766 52.4993 53.3515 54.5996 53.3515C56.699 53.3515 57.7928 52.6766 58.7586 52.0812C59.4131 51.6779 60.002 51.3184 60.9367 51.1709V59.2826V59.2826ZM60.9367 49.1944C59.7379 49.3327 58.9195 49.7128 58.2284 50.1167C58.0636 50.213 57.9029 50.3099 57.7482 50.4052C56.8924 50.9325 56.154 51.388 54.5996 51.388C53.0443 51.388 52.3059 50.9325 51.45 50.4052C51.2954 50.3099 51.1348 50.213 50.97 50.1167C50.1054 49.6115 49.0543 49.1348 47.291 49.1348C45.5286 49.1348 44.4782 49.6115 43.6145 50.1167C43.4499 50.213 43.2894 50.3099 43.1349 50.4052C42.28 50.9325 41.5416 51.388 39.9882 51.388C38.4371 51.388 37.6997 50.9325 36.8457 50.4052C36.6913 50.3099 36.531 50.213 36.3664 50.1167C35.5032 49.6115 34.4527 49.1348 32.6914 49.1348C30.9298 49.1348 29.8792 49.6115 29.0155 50.1167C28.8508 50.213 28.6902 50.3099 28.5358 50.4052C27.6813 50.9325 26.9434 51.388 25.3909 51.388C23.8389 51.388 23.101 50.9325 22.247 50.4052C22.0926 50.3099 21.9322 50.213 21.7675 50.1167C21.0775 49.7129 20.2599 49.333 19.0629 49.1945V48.7149C19.0629 43.7503 23.055 39.7119 27.9623 39.7119H52.0367C56.9445 39.7119 60.9367 43.7503 60.9367 48.7149V49.1944Z" fill="#B76E79"/>
</svg>
