<svg width="136" height="40" viewBox="0 0 136 40" fill="none" xmlns="http://www.w3.org/2000/svg">
<path d="M135.025 35.2686C135.025 37.3846 133.298 39.0986 131.162 39.0986H4.76392C2.62923 39.0986 0.896484 37.3846 0.896484 35.2686V4.72563C0.896484 2.61063 2.62923 0.890625 4.76392 0.890625H131.161C133.298 0.890625 135.024 2.61063 135.024 4.72563L135.025 35.2686Z" fill="white"/>
<path d="M131.162 39.989H4.76403C2.13772 39.989 0 37.872 0 35.268V4.726C0 2.12 2.13772 0 4.76403 0H131.161C133.785 0 135.925 2.12 135.925 4.726V35.268C135.927 37.872 133.787 39.989 131.162 39.989Z" fill="#A6A6A6"/>
<path d="M135.025 35.2686C135.025 37.3846 133.298 39.0986 131.162 39.0986H4.76392C2.62923 39.0986 0.896484 37.3846 0.896484 35.2686V4.72563C0.896484 2.61063 2.62923 0.890625 4.76392 0.890625H131.161C133.298 0.890625 135.024 2.61063 135.024 4.72563L135.025 35.2686Z" fill="black"/>
<path d="M30.3512 19.7842C30.322 16.5612 33.0098 14.9932 33.1327 14.9202C31.6105 12.7172 29.2511 12.4162 28.422 12.3922C26.4405 12.1852 24.5183 13.5692 23.5089 13.5692C22.4793 13.5692 20.9249 12.4122 19.2496 12.4462C17.0937 12.4792 15.0769 13.7182 13.9708 15.6422C11.688 19.5652 13.3905 25.3302 15.5776 28.5012C16.6716 30.0552 17.95 31.7882 19.6233 31.7272C21.2604 31.6612 21.8719 30.6922 23.8474 30.6922C25.8048 30.6922 26.379 31.7272 28.0856 31.6882C29.8425 31.6612 30.9486 30.1282 32.0044 28.5612C33.2687 26.7822 33.7764 25.0282 33.7966 24.9382C33.7563 24.9242 30.3855 23.6462 30.3512 19.7842Z" fill="white"/>
<path d="M27.1275 10.3058C28.008 9.2128 28.6104 7.7258 28.4432 6.2168C27.1688 6.2728 25.5751 7.0918 24.6573 8.1608C23.8454 9.1028 23.12 10.6468 23.3074 12.0988C24.7389 12.2048 26.2087 11.3818 27.1275 10.3058Z" fill="white"/>
<path d="M131.163 0H63.4597L89.9777 39.989H131.163C133.786 39.989 135.927 37.872 135.927 35.265V4.726C135.928 2.12 133.787 0 131.163 0Z" fill="url(#paint0_linear_1121_11743)"/>
<path d="M54.0626 31.5033H51.7748L50.5216 27.5943H46.1655L44.9718 31.5033H42.7444L47.0611 18.1953H49.7267L54.0626 31.5033ZM50.1438 25.9543L49.0105 22.4793C48.8906 22.1243 48.6649 21.2883 48.3345 19.9723H48.2942C48.1612 20.5383 47.9486 21.3743 47.6575 22.4793L46.5433 25.9543H50.1438Z" fill="white"/>
<path d="M65.1422 26.587C65.1422 28.219 64.6959 29.509 63.8023 30.456C63.0024 31.299 62.0081 31.72 60.8224 31.72C59.542 31.72 58.6212 31.267 58.0621 30.359V35.394H55.9143V25.061C55.9143 24.036 55.8871 22.985 55.8347 21.907H57.7236L57.8435 23.428H57.8838C58.6001 22.282 59.687 21.709 61.1458 21.709C62.2862 21.709 63.2382 22.156 63.9998 23.051C64.7603 23.948 65.1422 25.126 65.1422 26.587ZM62.9541 26.665C62.9541 25.731 62.7425 24.961 62.3174 24.354C61.853 23.723 61.2294 23.407 60.4476 23.407C59.9177 23.407 59.4362 23.583 59.006 23.93C58.5749 24.28 58.2928 24.737 58.1608 25.303C58.0943 25.567 58.0611 25.782 58.0611 25.952V27.553C58.0611 28.25 58.2767 28.839 58.7078 29.321C59.139 29.801 59.6991 30.042 60.3882 30.042C61.1971 30.042 61.8268 29.731 62.2771 29.114C62.7284 28.495 62.9541 27.679 62.9541 26.665Z" fill="white"/>
<path d="M76.2608 26.587C76.2608 28.219 75.8146 29.509 74.921 30.456C74.1201 31.299 73.1268 31.72 71.9401 31.72C70.6597 31.72 69.7389 31.267 69.1798 30.359V35.394H67.032V25.061C67.032 24.036 67.0048 22.985 66.9524 21.907H68.8413L68.9612 23.428H69.0015C69.7167 22.282 70.8037 21.709 72.2634 21.709C73.4028 21.709 74.3548 22.156 75.1184 23.051C75.878 23.948 76.2608 25.126 76.2608 26.587ZM74.0717 26.665C74.0717 25.731 73.8592 24.961 73.434 24.354C72.9696 23.723 72.3481 23.407 71.5663 23.407C71.0364 23.407 70.5549 23.583 70.1227 23.93C69.6915 24.28 69.4105 24.737 69.2785 25.303C69.213 25.567 69.1778 25.782 69.1778 25.952V27.553C69.1778 28.25 69.3943 28.839 69.8235 29.321C70.2547 29.8 70.8148 30.042 71.5059 30.042C72.3158 30.042 72.9455 29.731 73.3948 29.114C73.8461 28.495 74.0717 27.679 74.0717 26.665Z" fill="white"/>
<path d="M88.6923 27.77C88.6923 28.903 88.2934 29.824 87.5006 30.535C86.6282 31.311 85.4102 31.7 83.8487 31.7C82.4061 31.7 81.2496 31.424 80.3772 30.871L80.8738 29.094C81.8158 29.648 82.8504 29.924 83.9767 29.924C84.7866 29.924 85.4162 29.742 85.8656 29.381C86.3159 29.019 86.5435 28.535 86.5435 27.931C86.5435 27.39 86.3551 26.937 85.9854 26.568C85.6137 26.2 84.9992 25.857 84.1358 25.542C81.7886 24.673 80.6139 23.402 80.6139 21.73C80.6139 20.638 81.029 19.744 81.8571 19.045C82.6852 18.347 83.7832 17.998 85.1493 17.998C86.3693 17.998 87.3857 18.209 88.1927 18.63L87.6537 20.368C86.8941 19.96 86.0368 19.756 85.0778 19.756C84.3202 19.756 83.7258 19.941 83.3007 20.309C82.9431 20.638 82.7617 21.039 82.7617 21.515C82.7617 22.04 82.9682 22.476 83.3793 22.818C83.7359 23.133 84.3867 23.476 85.3276 23.844C86.4821 24.306 87.3303 24.844 87.8733 25.462C88.4203 26.08 88.6923 26.851 88.6923 27.77Z" fill="white"/>
<path d="M95.8116 23.5067H93.4442V28.1657C93.4442 29.3507 93.8613 29.9417 94.6974 29.9417C95.0812 29.9417 95.3996 29.9097 95.6514 29.8427L95.7109 31.4617C95.2878 31.6187 94.7307 31.6977 94.0406 31.6977C93.1923 31.6977 92.5295 31.4407 92.051 30.9267C91.5744 30.4127 91.3347 29.5517 91.3347 28.3397V23.5027H89.9243V21.9027H91.3347V20.1457L93.4442 19.5137V21.9027H95.8116V23.5067Z" fill="white"/>
<path d="M106.472 26.6269C106.472 28.1019 106.047 29.3129 105.199 30.2599C104.311 31.2349 103.13 31.7209 101.659 31.7209C100.238 31.7209 99.1089 31.2539 98.2667 30.3209C97.4245 29.3859 97.0034 28.2079 97.0034 26.7869C97.0034 25.2999 97.4386 24.0819 98.306 23.1349C99.1754 22.1869 100.346 21.7129 101.818 21.7129C103.236 21.7129 104.376 22.1809 105.238 23.1149C106.062 24.0209 106.472 25.1909 106.472 26.6269ZM104.246 26.6759C104.246 25.7969 104.054 25.0429 103.67 24.4119C103.22 23.6499 102.575 23.2689 101.74 23.2689C100.88 23.2689 100.22 23.6499 99.7708 24.4119C99.3859 25.0429 99.1945 25.8099 99.1945 26.7159C99.1945 27.5959 99.3859 28.3519 99.7708 28.9809C100.235 29.7429 100.883 30.1239 101.722 30.1239C102.543 30.1239 103.187 29.7349 103.652 28.9619C104.047 28.3159 104.246 27.5569 104.246 26.6759Z" fill="white"/>
<path d="M113.456 23.782C113.244 23.743 113.016 23.723 112.779 23.723C112.024 23.723 111.439 24.005 111.028 24.573C110.672 25.073 110.492 25.705 110.492 26.468V31.503H108.345V24.929C108.345 23.824 108.324 22.816 108.282 21.908H110.153L110.232 23.744H110.291C110.519 23.113 110.875 22.604 111.365 22.223C111.843 21.88 112.36 21.709 112.917 21.709C113.116 21.709 113.295 21.723 113.454 21.748L113.456 23.782Z" fill="white"/>
<path d="M123.062 26.2504C123.062 26.6324 123.037 26.9544 122.983 27.2174H116.54C116.564 28.1654 116.876 28.8914 117.475 29.3914C118.018 29.8374 118.72 30.0614 119.582 30.0614C120.536 30.0614 121.407 29.9114 122.189 29.6084L122.526 31.0874C121.611 31.4834 120.531 31.6804 119.285 31.6804C117.786 31.6804 116.609 31.2424 115.753 30.3684C114.899 29.4934 114.471 28.3174 114.471 26.8444C114.471 25.3984 114.869 24.1934 115.665 23.2324C116.5 22.2064 117.627 21.6934 119.045 21.6934C120.439 21.6934 121.493 22.2064 122.21 23.2324C122.777 24.0454 123.062 25.0534 123.062 26.2504ZM121.014 25.6974C121.029 25.0644 120.888 24.5194 120.597 24.0584C120.225 23.4644 119.653 23.1684 118.886 23.1684C118.184 23.1684 117.612 23.4574 117.177 24.0374C116.819 24.4984 116.606 25.0524 116.541 25.6954L121.014 25.6974Z" fill="white"/>
<path d="M49.1081 13.4336H47.9828L47.3673 11.5126H45.2266L44.6392 13.4336H43.5442L45.6658 6.89258H46.9754L49.1081 13.4336ZM47.1819 10.7066L46.6248 8.99858C46.5664 8.82358 46.4586 8.41658 46.2924 7.76658H46.2722C46.2037 8.04758 46.106 8.45558 45.9589 8.99858L45.4119 10.7066H47.1819Z" fill="white"/>
<path d="M54.413 8.7168L52.6138 13.4328H51.5872L49.8464 8.7168H50.9808L51.7927 11.2108C51.9298 11.6278 52.0466 12.0258 52.1343 12.4038H52.1635C52.242 12.0648 52.3589 11.6668 52.505 11.2108L53.3069 8.7168H54.413Z" fill="white"/>
<path d="M58.2432 13.4321L58.1647 12.8891H58.1354C57.8131 13.3261 57.3436 13.5391 56.7472 13.5391C55.897 13.5391 55.2905 12.9471 55.2905 12.1511C55.2905 10.9871 56.307 10.3851 58.0669 10.3851V10.2981C58.0669 9.67714 57.7345 9.36614 57.0797 9.36614C56.6102 9.36614 56.1992 9.48314 55.8386 9.71614L55.624 9.02714C56.0642 8.75514 56.6112 8.61914 57.257 8.61914C58.4981 8.61914 59.1247 9.26914 59.1247 10.5701V12.3071C59.1247 12.7831 59.1449 13.1521 59.1932 13.4331L58.2432 13.4321ZM58.0962 11.0831C56.9225 11.0831 56.3362 11.3651 56.3362 12.0341C56.3362 12.5291 56.6394 12.7711 57.0595 12.7711C57.5975 12.7711 58.0962 12.3641 58.0962 11.8111V11.0831Z" fill="white"/>
<path d="M61.4759 7.9395C61.1244 7.9395 60.8503 7.6675 60.8503 7.3085C60.8503 6.9495 61.1334 6.6875 61.4961 6.6875C61.8577 6.6875 62.1509 6.9495 62.1408 7.3085C62.1408 7.6875 61.8678 7.9395 61.4759 7.9395ZM62.024 13.4325H60.9682V8.7165H62.024V13.4325Z" fill="white"/>
<path d="M64.9557 13.4327H63.8999V6.55273H64.9557V13.4327Z" fill="white"/>
<path d="M69.4427 13.4331L69.3641 12.8901H69.3349C69.0125 13.3271 68.5431 13.5401 67.9467 13.5401C67.0964 13.5401 66.49 12.9481 66.49 12.1521C66.49 10.9881 67.5065 10.3861 69.2664 10.3861V10.2991C69.2664 9.67814 68.934 9.36714 68.2791 9.36714C67.8097 9.36714 67.3987 9.48414 67.038 9.71714L66.8224 9.02714C67.2627 8.75514 67.8097 8.61914 68.4554 8.61914C69.6966 8.61914 70.3232 9.26914 70.3232 10.5701V12.3071C70.3232 12.7831 70.3443 13.1521 70.3907 13.4331H69.4427ZM69.2956 11.0841C68.122 11.0841 67.5357 11.3661 67.5357 12.0351C67.5357 12.5301 67.8389 12.7721 68.259 12.7721C68.797 12.7721 69.2956 12.3651 69.2956 11.8121V11.0841Z" fill="white"/>
<path d="M74.6004 13.5397C73.9265 13.5397 73.4288 13.2577 73.1065 12.7047H73.0853L73.0249 13.4327H72.1252C72.1545 13.0547 72.1645 12.6267 72.1645 12.1617V6.55273H73.2213V9.40673H73.2415C73.5548 8.88273 74.0615 8.62073 74.7566 8.62073C75.901 8.62073 76.7029 9.59173 76.7029 11.0077C76.7029 12.4717 75.8124 13.5397 74.6004 13.5397ZM74.3859 9.44373C73.7784 9.44373 73.2223 9.96773 73.2223 10.6957V11.5207C73.2223 12.1707 73.722 12.7047 74.3677 12.7047C75.1585 12.7047 75.629 12.0647 75.629 11.0457C75.628 10.0947 75.1384 9.44373 74.3859 9.44373Z" fill="white"/>
<path d="M79.3192 13.4327H78.2644V6.55273H79.3192V13.4327Z" fill="white"/>
<path d="M85.0664 11.3264H81.8972C81.9183 12.2194 82.5127 12.7234 83.3931 12.7234C83.8626 12.7234 84.2928 12.6454 84.6736 12.5004L84.8378 13.2284C84.3885 13.4224 83.8606 13.5194 83.2451 13.5194C81.7581 13.5194 80.8787 12.5874 80.8787 11.1424C80.8787 9.69638 81.7793 8.60938 83.1262 8.60938C84.3381 8.60938 85.1017 9.50238 85.1017 10.8514C85.1057 11.0354 85.0967 11.2004 85.0664 11.3264ZM84.0983 10.5794C84.0983 9.85138 83.7266 9.33738 83.0516 9.33738C82.4452 9.33738 81.9677 9.86138 81.8972 10.5794H84.0983Z" fill="white"/>
<path d="M91.4656 13.5391C90.0773 13.5391 89.1777 12.5101 89.1777 11.1131C89.1777 9.65714 90.0965 8.61914 91.5451 8.61914C92.9122 8.61914 93.833 9.59914 93.833 11.0361C93.833 12.5101 92.884 13.5391 91.4656 13.5391ZM91.5058 9.38514C90.7432 9.38514 90.2547 10.0931 90.2547 11.0831C90.2547 12.0541 90.7533 12.7621 91.4958 12.7621C92.2382 12.7621 92.7359 12.0051 92.7359 11.0631C92.7369 10.1031 92.2483 9.38514 91.5058 9.38514Z" fill="white"/>
<path d="M99.5086 13.4331H98.4538V10.7251C98.4538 9.89114 98.1315 9.47314 97.4958 9.47314C96.8702 9.47314 96.439 10.0071 96.439 10.6281V13.4331H95.3843V10.0651C95.3843 9.64814 95.3732 9.20114 95.345 8.71614H96.2738L96.3232 9.44414H96.3524C96.6345 8.94014 97.2127 8.61914 97.8574 8.61914C98.8538 8.61914 99.5086 9.37614 99.5086 10.6081V13.4331Z" fill="white"/>
<path d="M106.416 9.50202H105.255V11.792C105.255 12.375 105.459 12.666 105.869 12.666C106.056 12.666 106.213 12.646 106.339 12.617L106.368 13.413C106.163 13.491 105.887 13.53 105.548 13.53C104.716 13.53 104.219 13.074 104.219 11.88V9.50202H103.526V8.71602H104.219V7.85202L105.255 7.54102V8.71502H106.416V9.50202Z" fill="white"/>
<path d="M112.008 13.4327H110.951V10.7447C110.951 9.90073 110.629 9.47373 109.993 9.47373C109.446 9.47373 108.938 9.84273 108.938 10.5897V13.4327H107.881V6.55273H108.938V9.38573H108.958C109.291 8.87173 109.77 8.61873 110.386 8.61873C111.392 8.61873 112.008 9.39473 112.008 10.6277V13.4327Z" fill="white"/>
<path d="M117.402 11.3264H114.234C114.254 12.2194 114.848 12.7234 115.729 12.7234C116.199 12.7234 116.628 12.6454 117.009 12.5004L117.174 13.2284C116.725 13.4224 116.196 13.5194 115.581 13.5194C114.094 13.5194 113.214 12.5874 113.214 11.1424C113.214 9.69638 114.115 8.60938 115.462 8.60938C116.674 8.60938 117.437 9.50238 117.437 10.8514C117.441 11.0354 117.431 11.2004 117.402 11.3264ZM116.434 10.5794C116.434 9.85138 116.063 9.33738 115.388 9.33738C114.781 9.33738 114.303 9.86138 114.234 10.5794H116.434Z" fill="white"/>
<defs>
<linearGradient id="paint0_linear_1121_11743" x1="99.694" y1="40.0972" x2="99.694" y2="4.0513" gradientUnits="userSpaceOnUse">
<stop stop-color="#1A1A1A" stop-opacity="0.1"/>
<stop offset="0.1235" stop-color="#212121" stop-opacity="0.1506"/>
<stop offset="0.3085" stop-color="#353535" stop-opacity="0.2265"/>
<stop offset="0.5321" stop-color="#575757" stop-opacity="0.3181"/>
<stop offset="0.7834" stop-color="#858585" stop-opacity="0.4212"/>
<stop offset="1" stop-color="#B3B3B3" stop-opacity="0.51"/>
</linearGradient>
</defs>
</svg>
