<svg width="573" height="358" viewBox="0 0 573 358" fill="none" xmlns="http://www.w3.org/2000/svg">
<g clip-path="url(#clip0)">
<path d="M175.628 190.877C169.389 174.056 154.649 159.521 136.835 157.793C147.545 174.088 152.161 193.658 149.867 213.038C148.956 220.509 147.166 228.724 151.182 235.083C153.681 239.039 158.085 241.475 162.625 242.574C167.165 243.673 171.895 243.588 176.565 243.497L177.61 244.014C180.894 226.372 181.867 207.698 175.628 190.877Z" fill="#F0F0F0"/>
<path d="M136.749 158.159C148.892 166.666 158.054 178.794 162.933 192.82C163.96 195.832 164.74 198.976 164.785 202.174C164.805 205.291 163.992 208.357 162.431 211.052C161.026 213.595 159.295 216.033 158.531 218.874C157.725 221.869 158.382 224.898 160.027 227.485C162.041 230.651 165.069 232.902 168.107 235C171.479 237.33 175.019 239.697 177.082 243.357C177.332 243.8 178.004 243.385 177.754 242.942C174.164 236.575 166.629 234.262 162.02 228.853C159.869 226.329 158.464 223.14 159.129 219.779C159.71 216.84 161.493 214.325 162.938 211.763C164.456 209.072 165.447 206.28 165.563 203.167C165.681 199.983 165.021 196.801 164.076 193.777C161.88 186.935 158.626 180.481 154.431 174.653C149.681 167.974 143.826 162.16 137.121 157.461C136.705 157.17 136.336 157.87 136.749 158.159V158.159Z" fill="white"/>
<path d="M161.627 188.211C163.863 187.071 165.621 185.171 166.589 182.851C167.556 180.53 167.67 177.94 166.909 175.544C166.754 175.059 165.996 175.279 166.151 175.764C166.864 177.995 166.758 180.407 165.853 182.566C164.947 184.725 163.302 186.488 161.214 187.538C160.76 187.766 161.176 188.439 161.627 188.211Z" fill="white"/>
<path d="M163.313 209.857C158.424 208.309 154.296 204.969 151.754 200.505C151.502 200.062 150.83 200.477 151.082 200.919C153.736 205.56 158.039 209.026 163.13 210.627C163.615 210.779 163.796 210.008 163.313 209.857V209.857Z" fill="white"/>
<path d="M149.141 168.872C148.367 169.494 147.452 169.914 146.477 170.094C145.502 170.273 144.498 170.207 143.555 169.901C143.072 169.743 142.892 170.513 143.372 170.671C144.415 171.004 145.525 171.075 146.602 170.879C147.68 170.683 148.693 170.226 149.554 169.546C149.64 169.489 149.702 169.401 149.726 169.3C149.75 169.199 149.735 169.092 149.683 169.002C149.628 168.913 149.54 168.85 149.439 168.825C149.337 168.801 149.23 168.818 149.141 168.872V168.872Z" fill="white"/>
<path d="M93.8983 200.669C94.1972 200.777 94.4961 200.884 94.7969 200.998C98.8083 202.463 102.694 204.253 106.417 206.349C106.707 206.507 106.999 206.671 107.284 206.836C116.199 211.983 124.083 218.744 130.536 226.777C133.1 229.976 135.419 233.365 137.471 236.917C140.304 241.822 142.988 247.366 147.149 250.94C147.579 251.318 148.032 251.669 148.505 251.991L176.899 245.253C176.956 245.205 177.015 245.164 177.072 245.116L178.218 244.899C178.125 244.708 178.024 244.513 177.931 244.322C177.878 244.211 177.818 244.102 177.764 243.991C177.727 243.918 177.689 243.845 177.659 243.776C177.646 243.752 177.634 243.727 177.623 243.709C177.593 243.641 177.558 243.581 177.53 243.519C176.97 242.424 176.402 241.33 175.826 240.239C175.824 240.233 175.824 240.233 175.816 240.228C171.401 231.925 166.256 223.919 160.062 216.951C159.876 216.742 159.688 216.525 159.489 216.319C156.68 213.193 153.62 210.304 150.342 207.678C148.542 206.246 146.671 204.906 144.736 203.664C139.73 200.464 134.253 198.074 128.507 196.58C117.05 193.605 104.773 194.337 94.6661 200.213C94.4076 200.363 94.1552 200.512 93.8983 200.669Z" fill="#F0F0F0"/>
<path d="M94.0475 201.016C108.851 200.477 123.448 204.629 135.765 212.882C138.393 214.667 140.903 216.706 142.859 219.232C144.747 221.709 145.938 224.648 146.31 227.742C146.715 230.621 146.797 233.613 147.892 236.343C149.047 239.22 151.39 241.242 154.258 242.314C157.766 243.626 161.535 243.596 165.22 243.437C169.312 243.261 173.559 243.014 177.404 244.69C177.87 244.893 178.157 244.156 177.692 243.954C171.002 241.037 163.597 243.739 156.67 242.203C153.437 241.487 150.4 239.789 148.913 236.704C147.613 234.006 147.527 230.922 147.142 228.003C146.738 224.939 145.853 222.111 144.077 219.556C142.259 216.942 139.822 214.8 137.251 212.956C131.391 208.818 124.917 205.631 118.069 203.509C110.266 201.045 102.101 199.937 93.9253 200.234C93.4193 200.253 93.5448 201.034 94.0475 201.016L94.0475 201.016Z" fill="white"/>
<path d="M131.955 209.991C133.055 207.73 133.318 205.152 132.698 202.715C132.077 200.278 130.613 198.141 128.566 196.687C128.151 196.394 127.678 197.027 128.094 197.321C130.002 198.671 131.366 200.661 131.939 202.932C132.512 205.202 132.257 207.604 131.22 209.702C130.995 210.158 131.731 210.444 131.955 209.991V209.991Z" fill="white"/>
<path d="M146.297 226.256C141.464 227.971 136.163 227.797 131.452 225.767C130.985 225.566 130.698 226.302 131.164 226.503C136.07 228.606 141.587 228.777 146.613 226.98C147.092 226.809 146.773 226.085 146.297 226.256Z" fill="white"/>
<path d="M110.374 202.088C110.13 203.051 109.651 203.939 108.981 204.671C108.31 205.403 107.468 205.957 106.532 206.282C106.051 206.447 106.37 207.171 106.847 207.007C107.881 206.643 108.809 206.03 109.552 205.223C110.295 204.416 110.829 203.439 111.109 202.377C111.143 202.279 111.139 202.171 111.098 202.076C111.056 201.981 110.98 201.905 110.885 201.864C110.788 201.826 110.679 201.829 110.584 201.871C110.488 201.913 110.413 201.991 110.374 202.088V202.088Z" fill="white"/>
<path d="M340.147 345.061C356.402 337.552 369.742 321.716 370.116 303.773C354.72 315.712 335.61 321.806 316.165 320.976C308.667 320.629 300.364 319.459 294.344 323.956C290.599 326.753 288.509 331.341 287.759 335.963C287.009 340.586 287.451 345.309 287.894 349.972L287.458 351.056C305.249 353.008 323.892 352.57 340.147 345.061Z" fill="#F0F0F0"/>
<path d="M369.745 303.714C362.203 316.499 350.835 326.576 337.256 332.514C334.339 333.768 331.271 334.786 328.095 335.072C324.997 335.328 321.887 334.746 319.089 333.389C316.454 332.176 313.899 330.629 311.016 330.079C307.978 329.5 305.015 330.385 302.566 332.226C299.571 334.479 297.561 337.677 295.704 340.872C293.642 344.42 291.556 348.138 288.072 350.478C287.65 350.762 288.114 351.402 288.535 351.119C294.596 347.048 296.327 339.339 301.357 334.322C303.704 331.981 306.77 330.335 310.162 330.746C313.128 331.105 315.764 332.698 318.421 333.95C321.211 335.264 324.062 336.044 327.166 335.925C330.341 335.802 333.455 334.903 336.391 333.729C343.029 331.017 349.2 327.275 354.679 322.641C360.961 317.386 366.301 311.093 370.467 304.033C370.725 303.596 370.001 303.28 369.745 303.714H369.745Z" fill="white"/>
<path d="M341.74 330.86C343.043 333.009 345.065 334.624 347.446 335.417C349.826 336.209 352.41 336.127 354.736 335.185C355.206 334.993 354.93 334.252 354.459 334.444C352.295 335.325 349.888 335.401 347.673 334.659C345.458 333.917 343.58 332.405 342.379 330.396C342.118 329.96 341.48 330.426 341.74 330.86Z" fill="white"/>
<path d="M320.344 334.18C321.514 329.175 324.523 324.795 328.771 321.915C329.192 321.63 328.729 320.99 328.308 321.275C323.894 324.28 320.771 328.844 319.565 334.056C319.45 334.552 320.23 334.675 320.344 334.18Z" fill="white"/>
<path d="M360.027 316.914C359.351 316.188 358.864 315.305 358.612 314.343C358.36 313.382 358.35 312.373 358.583 311.407C358.704 310.911 357.924 310.79 357.804 311.282C357.551 312.35 357.564 313.465 357.84 314.528C358.117 315.59 358.648 316.569 359.389 317.378C359.452 317.461 359.544 317.515 359.647 317.532C359.749 317.548 359.854 317.525 359.939 317.467C360.024 317.405 360.08 317.312 360.097 317.209C360.113 317.105 360.088 317 360.027 316.914Z" fill="white"/>
<path d="M324.238 264.077C324.154 264.384 324.069 264.691 323.979 265.001C322.825 269.123 321.339 273.143 319.535 277.024C319.401 277.326 319.26 277.63 319.116 277.928C314.672 287.23 308.544 295.624 301.044 302.683C298.057 305.489 294.861 308.064 291.485 310.384C286.821 313.587 281.511 316.689 278.271 321.12C277.928 321.579 277.613 322.058 277.329 322.555L286.173 350.439C286.225 350.492 286.27 350.548 286.322 350.601L286.625 351.731C286.807 351.623 286.994 351.508 287.177 351.4C287.283 351.338 287.387 351.27 287.493 351.208C287.563 351.165 287.633 351.122 287.699 351.087C287.722 351.072 287.745 351.058 287.763 351.046C287.828 351.011 287.886 350.971 287.945 350.938C288.992 350.296 290.036 349.645 291.077 348.986C291.084 348.984 291.084 348.984 291.088 348.976C299.011 343.934 306.583 338.185 313.044 331.465C313.238 331.263 313.439 331.059 313.63 330.844C316.525 327.799 319.168 324.522 321.531 321.046C322.819 319.138 324.01 317.166 325.099 315.137C327.903 309.89 329.867 304.233 330.918 298.374C333.011 286.694 331.356 274.473 324.75 264.811C324.581 264.564 324.414 264.322 324.238 264.077Z" fill="#F0F0F0"/>
<path d="M323.905 264.253C325.559 279.015 322.532 293.924 315.255 306.863C313.679 309.625 311.841 312.29 309.477 314.436C307.157 316.511 304.324 317.924 301.275 318.53C298.443 319.152 295.475 319.459 292.843 320.761C290.069 322.133 288.235 324.628 287.385 327.577C286.346 331.184 286.661 334.951 287.097 338.623C287.58 342.701 288.147 346.929 286.771 350.901C286.604 351.382 287.358 351.613 287.525 351.133C289.92 344.223 286.674 337.023 287.678 329.98C288.146 326.694 289.605 323.529 292.561 321.809C295.145 320.305 298.206 319.986 301.079 319.381C304.095 318.746 306.84 317.647 309.247 315.678C311.709 313.663 313.655 311.065 315.294 308.355C318.966 302.182 321.647 295.469 323.239 288.46C325.1 280.472 325.585 272.224 324.673 264.071C324.616 263.567 323.849 263.751 323.905 264.253V264.253Z" fill="white"/>
<path d="M317.843 302.835C320.174 303.764 322.758 303.833 325.134 303.028C327.51 302.224 329.524 300.598 330.816 298.442C331.076 298.005 330.41 297.579 330.15 298.017C328.951 300.027 327.075 301.541 324.861 302.286C322.646 303.031 320.239 302.957 318.074 302.079C317.604 301.888 317.375 302.645 317.843 302.835Z" fill="white"/>
<path d="M302.752 318.404C300.682 313.701 300.455 308.387 302.117 303.524C302.282 303.042 301.528 302.81 301.363 303.291C299.643 308.356 299.89 313.885 302.056 318.775C302.262 319.241 302.958 318.868 302.752 318.404Z" fill="white"/>
<path d="M324.071 280.659C323.095 280.488 322.176 280.076 321.397 279.461C320.619 278.845 320.005 278.046 319.611 277.134C319.41 276.665 318.714 277.039 318.914 277.504C319.354 278.51 320.033 279.392 320.892 280.074C321.751 280.756 322.763 281.216 323.84 281.415C323.94 281.443 324.046 281.431 324.138 281.382C324.229 281.333 324.299 281.252 324.333 281.153C324.363 281.053 324.352 280.945 324.303 280.852C324.254 280.76 324.171 280.69 324.071 280.659Z" fill="white"/>
<path d="M302.719 245.905C317.083 231.726 323.15 216.933 319.802 204.253C315.506 187.98 296.421 176.729 267.44 173.384L267.333 174.317C295.91 177.615 314.704 188.614 318.896 204.493C322.154 216.834 316.176 231.303 302.062 245.236L302.719 245.905Z" fill="#F0F0F0"/>
<path d="M164.135 296.238C182.061 296.238 201.542 293.566 220.892 288.429C244.82 282.077 266.76 272.489 284.339 260.701L283.819 259.92C266.324 271.651 244.481 281.195 220.652 287.521C199.118 293.238 177.422 295.887 157.918 295.188L157.884 296.127C159.944 296.201 162.027 296.238 164.135 296.238Z" fill="#F0F0F0"/>
<path d="M123.009 290.33L123.309 289.44C107.276 284.004 97.2478 275.248 94.3089 264.116C90.5731 249.965 98.6891 233.544 117.162 217.877C135.729 202.131 162.503 189.066 192.553 181.089L192.314 180.18C162.132 188.193 135.228 201.326 116.557 217.16C97.7926 233.074 89.5695 249.836 93.4032 264.357C96.4262 275.807 106.664 284.789 123.009 290.33Z" fill="#F0F0F0"/>
<path d="M270.229 296.631C305.454 280.964 332.597 260.639 346.659 239.399L345.878 238.88C331.914 259.973 304.913 280.177 269.849 295.772L270.229 296.631Z" fill="#F0F0F0"/>
<path d="M146.381 323.771C150.014 323.771 153.71 323.69 157.467 323.527L157.427 322.588C129.386 323.806 104.646 320.441 85.8755 312.855L85.5251 313.727C101.899 320.343 122.769 323.771 146.381 323.771Z" fill="#F0F0F0"/>
<path d="M166.819 174.227C172.641 172.326 178.629 170.556 184.618 168.966C219.08 159.817 252.956 156.569 282.586 159.574L282.68 158.64C252.94 155.625 218.947 158.881 184.378 168.058C178.373 169.652 172.367 171.427 166.529 173.333L166.819 174.227Z" fill="#F0F0F0"/>
<path d="M324.734 247.315C339.098 233.135 345.164 218.343 341.817 205.662C337.521 189.389 318.435 178.138 289.454 174.793L289.347 175.727C317.925 179.025 336.719 190.023 340.911 205.902C344.169 218.243 338.19 232.713 324.077 246.645L324.734 247.315Z" fill="#F0F0F0"/>
<path d="M186.149 297.647C204.076 297.647 223.557 294.975 242.906 289.838C266.835 283.486 288.775 273.898 306.354 262.11L305.833 261.329C288.339 273.06 266.496 282.604 242.667 288.93C221.132 294.647 199.437 297.296 179.933 296.597L179.899 297.536C181.959 297.61 184.042 297.647 186.149 297.647Z" fill="#F0F0F0"/>
<path d="M145.023 291.739L145.323 290.85C129.29 285.414 119.262 276.657 116.324 265.525C112.588 251.374 120.704 234.953 139.177 219.287C157.744 203.54 184.518 190.475 214.568 182.498L214.328 181.589C184.147 189.602 157.242 202.735 138.572 218.569C119.807 234.483 111.584 251.245 115.418 265.766C118.441 277.216 128.678 286.198 145.023 291.739Z" fill="#F0F0F0"/>
<path d="M292.244 298.04C327.468 282.373 354.612 262.049 368.673 240.809L367.893 240.289C353.929 261.382 326.928 281.586 291.864 297.181L292.244 298.04Z" fill="#F0F0F0"/>
<path d="M168.396 325.18C172.029 325.18 175.724 325.099 179.482 324.936L179.441 323.997C151.401 325.215 126.661 321.85 107.89 314.264L107.54 315.136C123.914 321.752 144.784 325.18 168.396 325.18Z" fill="#F0F0F0"/>
<path d="M188.834 175.636C194.656 173.735 200.644 171.965 206.633 170.375C241.094 161.226 274.97 157.978 304.6 160.983L304.694 160.049C274.954 157.034 240.962 160.29 206.393 169.467C200.387 171.061 194.382 172.836 188.544 174.743L188.834 175.636Z" fill="#F0F0F0"/>
<path d="M281.898 245.388C283.823 245.39 285.668 246.158 287.029 247.523C288.39 248.888 289.156 250.738 289.158 252.669C291.918 273.049 292.84 293.637 291.912 314.184C291.857 315.496 291.796 316.696 291.725 317.853C291.622 319.765 291.492 321.784 291.337 323.853C291.248 325.074 291.154 326.299 291.051 327.519C290.879 329.507 290.69 331.528 290.489 333.523C290.363 334.743 290.232 335.968 290.092 337.188C289.823 339.585 289.518 342.041 289.16 344.698C289.164 346.634 288.401 348.491 287.039 349.862C285.677 351.234 283.828 352.006 281.898 352.01H160.115C158.19 352.008 156.344 351.241 154.983 349.876C153.622 348.511 152.857 346.66 152.855 344.73L152.849 344.68C152.307 342.201 151.801 339.676 151.347 337.173C151.104 335.853 150.895 334.654 150.706 333.509C150.364 331.422 150.06 329.403 149.803 327.507C149.627 326.235 149.468 325.002 149.331 323.843C149.104 321.945 148.899 319.984 148.704 317.846C148.597 316.684 148.499 315.484 148.404 314.178V314.177C146.915 293.584 148.412 272.882 152.849 252.719L152.855 252.669C152.857 250.738 153.622 248.888 154.983 247.523C156.344 246.158 158.19 245.39 160.115 245.388L281.898 245.388Z" fill="#3F3D56"/>
<path d="M216.278 276.556C242.666 276.556 270.627 274.152 307.222 269.341H307.226C309.123 269.339 310.952 268.634 312.363 267.362C313.774 266.091 314.667 264.341 314.872 262.45C314.905 262.166 314.921 261.879 314.92 261.593V239.517C314.921 239.47 314.919 239.423 314.913 239.376C314.872 237.347 314.041 235.416 312.598 233.994C311.155 232.572 309.214 231.773 307.191 231.767C243.524 223.086 204.849 223.087 134.793 231.769H134.789C132.767 231.782 130.831 232.588 129.394 234.014C127.956 235.44 127.132 237.374 127.097 239.401C127.093 239.44 127.092 239.478 127.093 239.517V261.593C127.092 261.88 127.108 262.167 127.141 262.452C127.349 264.348 128.247 266.101 129.665 267.373C131.083 268.645 132.919 269.347 134.821 269.343C165.089 274.151 189.897 276.556 216.278 276.556Z" fill="#B76E79"/>
<path d="M212.046 291.889H228.056C230.094 291.887 232.047 291.074 233.488 289.629C234.929 288.184 235.739 286.225 235.742 284.181V225.853C235.739 223.81 234.929 221.851 233.488 220.406C232.047 218.961 230.094 218.148 228.056 218.146H212.046C210.008 218.148 208.054 218.961 206.613 220.406C205.172 221.851 204.362 223.81 204.359 225.853V284.181C204.362 286.225 205.172 288.184 206.613 289.629C208.054 291.074 210.008 291.887 212.046 291.889Z" fill="#3F3D56"/>
<path d="M175.696 206.985C175.812 205.891 176.016 204.809 176.307 203.748C176.62 202.686 177.017 201.65 177.493 200.65C179.201 196.975 182.082 193.975 185.68 192.126C190.146 189.921 195.255 189.741 200.056 190.803C204.093 191.71 207.883 193.489 211.162 196.017C212.862 197.302 214.416 198.771 215.794 200.398C217.217 202.109 219.863 206.812 220.054 207.248C221.55 203.841 223.697 200.761 226.374 198.182C229.485 195.221 233.199 192.97 237.26 191.585C239.419 190.856 241.66 190.399 243.932 190.225C246.336 190.025 248.756 190.236 251.089 190.851C255.279 192.028 258.904 194.685 261.294 198.332C263.571 201.721 264.69 205.76 264.481 209.842C264.366 211.903 263.923 213.932 263.168 215.852C262.764 216.892 262.285 217.9 261.734 218.87C261.164 219.828 260.527 220.743 259.827 221.61C257.081 224.989 253.382 227.459 249.214 228.697C244.764 230.076 240.044 230.121 235.469 229.473C230.77 228.808 226.247 227.283 221.821 225.613C221.231 225.39 220.643 225.16 220.054 224.933C216.12 226.451 212.152 227.915 208.034 228.844C203.401 229.966 198.592 230.159 193.884 229.413C189.496 228.691 185.416 226.692 182.151 223.665C179.129 220.814 177.015 217.132 176.072 213.08C175.607 211.084 175.48 209.023 175.696 206.985ZM236.691 224.936C239.23 225.262 241.8 225.277 244.343 224.98C246.166 224.716 247.952 224.239 249.665 223.56C253.702 221.874 256.921 218.67 258.631 214.633C259.142 213.361 259.506 212.033 259.716 210.678C259.851 209.472 259.851 208.254 259.717 207.048C259.518 205.779 259.177 204.537 258.7 203.344C258.184 202.185 257.543 201.085 256.789 200.065C256.058 199.152 255.232 198.32 254.325 197.583C253.465 196.945 252.54 196.401 251.565 195.961C250.401 195.505 249.19 195.18 247.955 194.992C246.281 194.807 244.592 194.82 242.921 195.032C240.934 195.34 238.989 195.877 237.124 196.634C235.142 197.497 233.268 198.593 231.542 199.898C229.945 201.166 228.498 202.613 227.228 204.211C225.971 205.888 224.917 207.708 224.087 209.634C223.281 211.644 222.715 213.742 222.401 215.885L222.397 215.916C222.52 216.993 222.581 218.076 222.581 219.16C222.58 219.577 222.562 219.994 222.541 220.411C222.739 220.602 222.904 220.824 223.029 221.069C226.292 222.353 229.636 223.417 233.04 224.253C234.247 224.532 235.464 224.76 236.691 224.936ZM180.382 210.678C180.592 212.033 180.956 213.361 181.468 214.633C183.17 218.675 186.391 221.883 190.434 223.56C192.147 224.239 193.933 224.716 195.755 224.98C198.303 225.277 200.878 225.262 203.422 224.934C207.941 224.286 212.3 222.856 216.564 221.259C216.74 221.194 216.914 221.124 217.089 221.058C217.208 220.817 217.366 220.596 217.556 220.407C217.481 218.894 217.528 217.378 217.696 215.873C217.381 213.734 216.816 211.64 216.011 209.634C215.182 207.708 214.128 205.888 212.87 204.211C211.6 202.614 210.153 201.167 208.556 199.898C206.831 198.593 204.957 197.497 202.974 196.634C201.11 195.877 199.165 195.34 197.177 195.032C195.507 194.82 193.817 194.807 192.144 194.992C190.908 195.18 189.698 195.505 188.534 195.961C187.558 196.401 186.633 196.945 185.773 197.583C184.866 198.32 184.04 199.152 183.309 200.065C182.555 201.085 181.915 202.185 181.399 203.344C180.922 204.537 180.58 205.779 180.381 207.048C180.247 208.254 180.248 209.472 180.382 210.678Z" fill="#3F3D56"/>
<path d="M268.783 294.472C267.231 294.472 265.972 293.211 265.972 291.654C265.972 290.098 267.231 288.836 268.783 288.836C270.335 288.836 271.593 290.098 271.593 291.654C271.593 293.211 270.335 294.472 268.783 294.472Z" fill="#B76E79"/>
<path d="M248.642 287.427C247.09 287.427 245.831 286.165 245.831 284.608C245.831 283.052 247.09 281.79 248.642 281.79C250.194 281.79 251.452 283.052 251.452 284.608C251.452 286.165 250.194 287.427 248.642 287.427Z" fill="#B76E79"/>
<path d="M257.541 309.503C255.989 309.503 254.731 308.241 254.731 306.684C254.731 305.128 255.989 303.866 257.541 303.866C259.093 303.866 260.352 305.128 260.352 306.684C260.352 308.241 259.093 309.503 257.541 309.503Z" fill="#B76E79"/>
<path d="M174.167 294.472C172.615 294.472 171.356 293.211 171.356 291.654C171.356 290.098 172.615 288.836 174.167 288.836C175.719 288.836 176.977 290.098 176.977 291.654C176.977 293.211 175.719 294.472 174.167 294.472Z" fill="#B76E79"/>
<path d="M194.308 287.427C192.756 287.427 191.497 286.165 191.497 284.608C191.497 283.052 192.756 281.79 194.308 281.79C195.86 281.79 197.118 283.052 197.118 284.608C197.118 286.165 195.86 287.427 194.308 287.427Z" fill="#B76E79"/>
<path d="M185.408 309.503C183.856 309.503 182.598 308.241 182.598 306.684C182.598 305.128 183.856 303.866 185.408 303.866C186.96 303.866 188.219 305.128 188.219 306.684C188.219 308.241 186.96 309.503 185.408 309.503Z" fill="#B76E79"/>
<path d="M171.825 343.791C170.273 343.791 169.014 342.529 169.014 340.973C169.014 339.416 170.273 338.154 171.825 338.154C173.377 338.154 174.635 339.416 174.635 340.973C174.635 342.529 173.377 343.791 171.825 343.791Z" fill="#B76E79"/>
<path d="M164.799 323.594C163.247 323.594 161.988 322.332 161.988 320.776C161.988 319.219 163.247 317.957 164.799 317.957C166.351 317.957 167.609 319.219 167.609 320.776C167.609 322.332 166.351 323.594 164.799 323.594Z" fill="#B76E79"/>
<path d="M186.813 332.518C185.261 332.518 184.003 331.256 184.003 329.7C184.003 328.143 185.261 326.881 186.813 326.881C188.366 326.881 189.624 328.143 189.624 329.7C189.624 331.256 188.366 332.518 186.813 332.518Z" fill="#B76E79"/>
<path d="M252.389 343.791C250.837 343.791 249.579 342.529 249.579 340.973C249.579 339.416 250.837 338.154 252.389 338.154C253.941 338.154 255.199 339.416 255.199 340.973C255.199 342.529 253.941 343.791 252.389 343.791Z" fill="#B76E79"/>
<path d="M245.363 323.594C243.811 323.594 242.553 322.332 242.553 320.776C242.553 319.219 243.811 317.957 245.363 317.957C246.915 317.957 248.173 319.219 248.173 320.776C248.173 322.332 246.915 323.594 245.363 323.594Z" fill="#B76E79"/>
<path d="M267.378 332.518C265.825 332.518 264.567 331.256 264.567 329.7C264.567 328.143 265.825 326.881 267.378 326.881C268.93 326.881 270.188 328.143 270.188 329.7C270.188 331.256 268.93 332.518 267.378 332.518Z" fill="#B76E79"/>
<path d="M186.629 144.75C185.565 145.196 184.404 145.359 183.259 145.224C182.114 145.089 181.022 144.66 180.09 143.98C177.713 142.202 176.822 139.099 176.076 136.222L173.871 127.711L177.595 129.978C180.273 131.608 183.012 133.292 184.945 135.766C186.877 138.241 187.855 141.708 186.582 144.58" fill="#F2F2F2"/>
<path d="M286.213 217.454C285.495 216.55 285.02 215.475 284.836 214.334C284.652 213.192 284.764 212.022 285.161 210.937C286.215 208.158 288.947 206.449 291.502 204.941L299.061 200.484L297.907 204.695C297.077 207.724 296.212 210.827 294.369 213.369C292.525 215.911 289.467 217.804 286.364 217.362" fill="#F2F2F2"/>
<path d="M108.691 348.501C107.972 347.597 107.498 346.522 107.314 345.38C107.129 344.239 107.241 343.069 107.639 341.984C108.693 339.204 111.425 337.495 113.98 335.988L121.539 331.53L120.385 335.742C119.555 338.771 118.69 341.874 116.846 344.416C115.002 346.958 111.944 348.851 108.841 348.409" fill="#F2F2F2"/>
<path d="M251.452 182.213C249.383 182.213 247.705 180.531 247.705 178.456C247.705 176.381 249.383 174.698 251.452 174.698C253.522 174.698 255.199 176.381 255.199 178.456C255.199 180.531 253.522 182.213 251.452 182.213Z" fill="#FD6584"/>
<path d="M351.221 293.063C349.151 293.063 347.473 291.381 347.473 289.306C347.473 287.23 349.151 285.548 351.221 285.548C353.29 285.548 354.968 287.23 354.968 289.306C354.968 291.381 353.29 293.063 351.221 293.063Z" fill="#FD6584"/>
<path d="M93.6024 262.533C91.5329 262.533 89.8553 260.85 89.8553 258.775C89.8553 256.7 91.5329 255.017 93.6024 255.017C95.672 255.017 97.3496 256.7 97.3496 258.775C97.3496 260.85 95.672 262.533 93.6024 262.533Z" fill="#FD6584"/>
<path d="M354.968 198.653C352.898 198.653 351.221 196.971 351.221 194.895C351.221 192.82 352.898 191.138 354.968 191.138C357.037 191.138 358.715 192.82 358.715 194.895C358.715 196.971 357.037 198.653 354.968 198.653Z" fill="#E6E6E6"/>
<path d="M123.111 305.745C121.042 305.745 119.364 304.063 119.364 301.987C119.364 299.912 121.042 298.23 123.111 298.23C125.181 298.23 126.859 299.912 126.859 301.987C126.859 304.063 125.181 305.745 123.111 305.745Z" fill="#E6E6E6"/>
<path d="M115.617 191.608C113.548 191.608 111.87 189.925 111.87 187.85C111.87 185.775 113.548 184.092 115.617 184.092C117.687 184.092 119.364 185.775 119.364 187.85C119.364 189.925 117.687 191.608 115.617 191.608Z" fill="#E6E6E6"/>
<path d="M279.918 251.371C280.242 251.884 281.027 251.81 281.468 251.489C282.08 251.043 281.882 250.184 281.461 249.676C280.121 248.063 277.905 249.766 277.606 251.368C277.495 252.149 277.615 252.946 277.951 253.659C278.287 254.372 278.824 254.971 279.497 255.381C281.025 256.289 283.011 255.834 284.326 254.746C287.067 252.478 286.321 247.937 283.275 246.296C281.332 245.249 278.875 245.709 276.96 246.586C274.805 247.573 272.951 249.087 270.958 250.348C266.585 253.094 261.638 254.788 256.504 255.298C255.605 255.39 255.611 253.98 256.504 253.889C259.349 253.594 262.142 252.919 264.809 251.883C267.448 250.811 269.953 249.432 272.272 247.776C274.619 246.163 277.071 244.596 279.975 244.329C281.147 244.192 282.335 244.368 283.416 244.84C284.498 245.312 285.436 246.063 286.135 247.017C286.757 247.87 287.173 248.856 287.351 249.898C287.529 250.939 287.464 252.008 287.161 253.02C286.796 254.078 286.158 255.02 285.312 255.751C284.465 256.482 283.441 256.974 282.343 257.179C281.286 257.379 280.194 257.244 279.217 256.791C278.241 256.339 277.43 255.592 276.897 254.655C275.828 252.802 275.862 250.311 277.477 248.774C277.94 248.302 278.519 247.962 279.156 247.789C279.793 247.615 280.464 247.614 281.101 247.786C281.689 247.985 282.205 248.351 282.588 248.839C282.971 249.328 283.204 249.918 283.258 250.537C283.413 252.944 280.007 254.147 278.705 252.082C278.22 251.313 279.435 250.605 279.918 251.371L279.918 251.371Z" fill="#3F3D56"/>
<path d="M159.753 251.371C159.429 251.884 158.643 251.81 158.202 251.489C157.59 251.043 157.788 250.184 158.21 249.676C159.55 248.063 161.766 249.766 162.065 251.368C162.176 252.149 162.056 252.946 161.72 253.659C161.384 254.372 160.846 254.971 160.174 255.381C158.645 256.289 156.659 255.834 155.345 254.746C152.603 252.478 153.35 247.937 156.395 246.296C158.339 245.249 160.796 245.709 162.711 246.586C164.866 247.573 166.719 249.087 168.712 250.348C173.086 253.094 178.033 254.788 183.167 255.298C184.066 255.39 184.059 253.98 183.167 253.889C180.322 253.594 177.529 252.919 174.861 251.883C172.222 250.811 169.718 249.432 167.398 247.776C165.052 246.163 162.6 244.596 159.695 244.329C158.523 244.192 157.336 244.368 156.254 244.84C155.172 245.312 154.234 246.063 153.535 247.017C152.914 247.87 152.498 248.856 152.32 249.898C152.142 250.939 152.207 252.008 152.51 253.02C152.875 254.078 153.513 255.02 154.359 255.751C155.205 256.482 156.23 256.974 157.327 257.179C158.384 257.379 159.477 257.244 160.453 256.791C161.43 256.339 162.241 255.592 162.774 254.655C163.843 252.802 163.808 250.311 162.194 248.774C161.731 248.302 161.152 247.962 160.515 247.789C159.878 247.615 159.207 247.614 158.569 247.786C157.982 247.985 157.465 248.351 157.082 248.839C156.7 249.328 156.467 249.918 156.413 250.537C156.257 252.944 159.664 254.147 160.966 252.082C161.451 251.313 160.235 250.605 159.753 251.371L159.753 251.371Z" fill="#3F3D56"/>
<path d="M328.818 144.79L330.674 147.126L337.239 143.232L335.383 140.897L328.818 144.79Z" fill="#E4E4E4"/>
<path d="M321.969 154.824L320.33 157.277L327.226 160.716L328.865 158.264L321.969 154.824Z" fill="#E4E4E4"/>
<path d="M314.831 144.158L311.555 144.275L311.881 151.148L315.157 151.032L314.831 144.158Z" fill="#E4E4E4"/>
<path d="M90.1129 298.552L88.4736 301.005L95.3696 304.445L97.0088 301.991L90.1129 298.552Z" fill="#E4E4E4"/>
<path d="M82.9742 287.887L79.6984 288.003L80.0245 294.877L83.3008 294.761L82.9742 287.887Z" fill="#E4E4E4"/>
<path d="M96.9619 288.519L98.8181 290.854L105.382 286.96L103.526 284.625L96.9619 288.519Z" fill="#E4E4E4"/>
<path d="M445.749 237.34C418.091 237.34 395.671 214.857 395.671 187.122C395.671 159.388 418.091 136.904 445.749 136.904C473.406 136.904 495.827 159.388 495.827 187.122C495.827 214.857 473.406 237.34 445.749 237.34Z" fill="#E6E6E6"/>
<path d="M459.279 260.453L446.961 268.108V216.365L460.768 207.785C461.91 207.076 462.744 205.963 463.105 204.666C461.786 204.413 460.421 204.666 459.279 205.376L446.96 213.03V192.966C446.96 189.085 446.486 185.218 445.547 181.452C444.608 185.218 444.133 189.085 444.133 192.966V225.715L425.96 214.422C424.509 213.52 422.83 213.056 421.123 213.084C421.858 214.629 423.02 215.93 424.471 216.832L444.134 229.05V351.417H446.961V271.443L460.768 262.863C461.91 262.154 462.744 261.04 463.105 259.743C461.786 259.491 460.421 259.744 459.279 260.453Z" fill="#CCCCCC"/>
<path d="M519.922 241.604C492.264 241.604 469.843 219.12 469.843 191.386C469.843 163.651 492.264 141.168 519.922 141.168C547.579 141.168 570 163.651 570 191.386C570 219.12 547.579 241.604 519.922 241.604Z" fill="#E6E6E6"/>
<path d="M506.391 264.717L518.71 272.372V220.629L504.902 212.049C503.761 211.34 502.927 210.226 502.565 208.929C503.884 208.677 505.25 208.93 506.392 209.639L518.71 217.294V197.23C518.71 193.348 519.185 189.481 520.124 185.716C521.062 189.481 521.537 193.348 521.537 197.23V229.978L539.71 218.686C541.162 217.784 542.841 217.319 544.547 217.347C543.813 218.893 542.651 220.194 541.2 221.095L521.537 233.313V351.687H518.71V275.707L504.902 267.127C503.761 266.417 502.927 265.304 502.565 264.007C503.884 263.754 505.25 264.008 506.391 264.717Z" fill="#CCCCCC"/>
<path d="M483.544 173.025C435.925 173.025 397.322 134.314 397.322 86.5625C397.322 38.8106 435.925 0.100067 483.544 0.100067C531.163 0.100067 569.766 38.8106 569.766 86.5625C569.766 134.314 531.163 173.025 483.544 173.025Z" fill="#E6E6E6"/>
<path d="M460.248 212.821L481.458 226V136.913L457.685 122.14C455.719 120.919 454.283 119.002 453.661 116.768L453.66 116.768H453.661C455.932 116.333 458.283 116.77 460.248 117.991L481.458 131.171V96.625C481.458 89.942 482.275 83.2842 483.892 76.8008C485.508 83.2842 486.325 89.942 486.325 96.625V153.01L517.615 133.566C520.114 132.014 523.004 131.214 525.943 131.262C524.678 133.923 522.677 136.163 520.179 137.715L486.325 158.752V351.877H481.458V231.742L457.685 216.97C455.719 215.749 454.283 213.831 453.661 211.598L453.66 211.598H453.661C455.932 211.163 458.283 211.6 460.248 212.821Z" fill="#CCCCCC"/>
<path d="M9 351.1H556V352.1H9V351.1Z" fill="#3F3D56"/>
<path d="M25.458 351.126C25.5307 351.008 27.2428 348.149 27.8364 342.212C28.3808 336.766 28.0307 327.586 23.2697 314.78C14.2501 290.52 25.3483 270.946 25.4617 270.751L24.9142 270.434C24.8855 270.483 22.0217 275.474 20.3299 283.42C18.0946 293.956 18.9085 304.911 22.6764 315.001C31.6806 339.219 24.9865 350.684 24.9179 350.797L25.458 351.126Z" fill="#3F3D56"/>
<path d="M28.9848 269.327C26.713 269.327 24.8714 267.485 24.8714 265.213C24.8714 262.942 26.713 261.1 28.9848 261.1C31.2565 261.1 33.0981 262.942 33.0981 265.213C33.0981 267.485 31.2565 269.327 28.9848 269.327Z" fill="#EADE7F"/>
<path d="M16.0119 284.515C13.7401 284.515 11.8985 282.673 11.8985 280.401C11.8985 278.13 13.7401 276.288 16.0119 276.288C18.2836 276.288 20.1252 278.13 20.1252 280.401C20.1252 282.673 18.2836 284.515 16.0119 284.515Z" fill="#EADE7F"/>
<path d="M24.8715 294.64C22.5997 294.64 20.7581 292.798 20.7581 290.526C20.7581 288.255 22.5997 286.413 24.8715 286.413C27.1432 286.413 28.9849 288.255 28.9849 290.526C28.9849 292.798 27.1432 294.64 24.8715 294.64Z" fill="#EADE7F"/>
<path d="M14.1134 303.183C11.8417 303.183 10.0001 301.341 10.0001 299.07C10.0001 296.798 11.8417 294.956 14.1134 294.956C16.3852 294.956 18.2268 296.798 18.2268 299.07C18.2268 301.341 16.3852 303.183 14.1134 303.183Z" fill="#EADE7F"/>
<path d="M28.0356 316.472C25.7638 316.472 23.9222 314.631 23.9222 312.359C23.9222 310.087 25.7638 308.246 28.0356 308.246C30.3073 308.246 32.1489 310.087 32.1489 312.359C32.1489 314.631 30.3073 316.472 28.0356 316.472Z" fill="#EADE7F"/>
<path d="M22.973 351.278C22.973 351.278 27.0863 341.153 14.7462 333.559L22.973 351.278Z" fill="#3F3D56"/>
<path d="M28.0318 351.094C28.0318 351.094 29.9039 340.327 44.3931 340.419L28.0318 351.094Z" fill="#3F3D56"/>
<path d="M388.683 272.887C388.064 272.292 387.583 271.569 387.273 270.767C386.963 269.965 386.831 269.106 386.889 268.248C386.946 267.39 387.19 266.555 387.604 265.802C388.018 265.049 388.591 264.397 389.283 263.89L398.745 187.411L410.969 191.056L397.772 265.483C398.543 266.706 398.841 268.17 398.608 269.599C398.375 271.027 397.627 272.32 396.507 273.233C395.387 274.146 393.972 274.614 392.53 274.551C391.088 274.487 389.719 273.895 388.683 272.887Z" fill="#FFB8B8"/>
<path d="M377.352 345.987H370.203L366.8 318.333H377.352V345.987Z" fill="#FFB8B8"/>
<path d="M356.414 352.644H378.884V343.938H364.302C362.21 343.938 360.204 344.772 358.724 346.255C357.245 347.738 356.414 349.75 356.414 351.848V352.644Z" fill="#505565"/>
<path d="M426.793 334.82L420.092 337.319L407.289 312.59L417.179 308.901L426.793 334.82Z" fill="#FFB8B8"/>
<path d="M409.483 348.379L430.543 340.524L427.517 332.364L413.849 337.462C411.888 338.194 410.298 339.676 409.427 341.583C408.556 343.491 408.477 345.667 409.206 347.633L409.483 348.379L409.483 348.379Z" fill="#505565"/>
<path d="M390.178 167.558C382.712 167.558 376.659 161.489 376.659 154.002C376.659 146.515 382.712 140.446 390.178 140.446C397.644 140.446 403.696 146.515 403.696 154.002C403.696 161.489 397.644 167.558 390.178 167.558Z" fill="#FFB8B8"/>
<path d="M411.322 188.793C411.746 176.307 398.659 167.645 387.649 173.491C386.246 174.236 371.761 186.576 371.215 194.24C370.669 201.904 369.577 214.494 369.577 214.494L354.293 328.901L387.045 327.258L383.09 293.884L404.379 327.823L430.17 319.595L398.509 228.179C398.509 228.179 410.681 207.716 411.322 188.793Z" fill="#BB6BD9"/>
<path d="M411.065 193.14L408.961 220.558C408.939 220.844 408.81 221.111 408.6 221.307C408.39 221.502 408.114 221.61 407.828 221.61H398.574C398.387 221.61 398.203 221.564 398.038 221.475C397.873 221.387 397.733 221.259 397.629 221.103C397.525 220.947 397.461 220.768 397.443 220.581C397.425 220.395 397.453 220.206 397.524 220.033L408.882 192.616C408.985 192.365 409.175 192.16 409.416 192.037C409.657 191.914 409.933 191.881 410.196 191.944C410.459 192.008 410.691 192.163 410.85 192.382C411.009 192.601 411.085 192.87 411.065 193.14Z" fill="#9B51E0"/>
<path d="M129.804 76.7018C126.89 84.7483 128.761 99.953 136.808 102.867C144.855 105.781 156.029 95.3015 158.943 87.255C160.342 83.3909 160.149 79.1292 158.407 75.4073C156.664 71.6854 153.514 68.8083 149.65 67.4089C145.786 66.0094 141.524 66.2023 137.802 67.9451C134.08 69.6878 131.203 72.8377 129.804 76.7018Z" fill="#FF6584"/>
<path d="M136.081 103.19C137.683 104.483 137.218 107.139 135.925 108.742C134.632 110.345 132.748 111.381 131.419 112.954C130.781 113.759 130.219 114.622 129.742 115.532C128.534 117.672 127.309 119.851 126.775 122.25C126.268 124.525 126.406 126.894 126.679 129.209C127.208 133.692 128.229 138.103 129.724 142.363" stroke="#2F2E41" stroke-width="0.5"/>
<path opacity="0.4" d="M139.207 77.3276C140.904 77.942 142.877 76.7897 143.614 74.7539C144.351 72.718 143.574 70.5695 141.877 69.9551C140.181 69.3406 138.208 70.4929 137.47 72.5288C136.733 74.5647 137.511 76.7132 139.207 77.3276Z" fill="white"/>
<path d="M130.032 76.6696C127.118 84.7161 128.99 99.9208 137.036 102.835C145.083 105.749 156.257 95.2693 159.171 87.2227C160.57 83.3587 160.378 79.0969 158.635 75.3751C156.892 71.6532 153.742 68.7761 149.878 67.3767C146.014 65.9772 141.752 66.1701 138.03 67.9129C134.309 69.6556 131.431 72.8055 130.032 76.6696Z" fill="#FF6584"/>
<path d="M136.309 103.158C137.912 104.451 137.446 107.107 136.153 108.71C134.86 110.313 132.976 111.349 131.647 112.922C131.009 113.727 130.448 114.59 129.971 115.5C128.762 117.64 127.538 119.819 127.003 122.218C126.496 124.493 126.635 126.862 126.908 129.177C127.437 133.66 128.458 138.071 129.952 142.33" stroke="#2F2E41" stroke-width="0.5"/>
<path opacity="0.4" d="M139.435 77.2954C141.132 77.9098 143.105 76.7575 143.842 74.7216C144.58 72.6858 143.802 70.5373 142.106 69.9229C140.409 69.3084 138.436 70.4607 137.699 72.4966C136.961 74.5324 137.739 76.6809 139.435 77.2954Z" fill="white"/>
<path d="M204 109.563C203.446 118.103 209.484 132.182 218.024 132.737C226.564 133.291 234.372 120.11 234.926 111.57C235.192 107.469 233.818 103.43 231.107 100.342C228.395 97.2542 224.568 95.3698 220.467 95.1036C216.366 94.8375 212.327 96.2113 209.239 98.923C206.151 101.635 204.266 105.462 204 109.563Z" fill="#FF6584"/>
<path d="M217.416 133.249C219.316 134.044 219.609 136.724 218.814 138.625C218.02 140.525 216.5 142.045 215.662 143.926C215.274 144.877 214.976 145.863 214.772 146.87C214.208 149.262 213.64 151.696 213.796 154.149C213.943 156.475 214.737 158.711 215.645 160.858C217.403 165.016 219.614 168.967 222.237 172.641C224.825 177.96 228 192.4 220 207.6" stroke="#2F2E41" stroke-width="0.5"/>
<path opacity="0.4" d="M213.205 107.541C215.006 107.658 216.579 106.001 216.719 103.84C216.859 101.68 215.513 99.8333 213.713 99.7164C211.912 99.5996 210.339 101.256 210.199 103.417C210.058 105.578 211.404 107.424 213.205 107.541Z" fill="white"/>
<path d="M363.541 268.136C362.996 267.473 362.602 266.698 362.388 265.865C362.173 265.033 362.144 264.164 362.301 263.319C362.458 262.473 362.797 261.673 363.296 260.974C363.795 260.275 364.441 259.693 365.188 259.272L383.509 184.429L395.224 189.483L373.432 261.85C374.055 263.155 374.18 264.644 373.782 266.035C373.383 267.427 372.49 268.623 371.271 269.398C370.052 270.173 368.592 270.473 367.167 270.24C365.743 270.007 364.452 269.259 363.541 268.136Z" fill="#FFB8B8"/>
<path d="M393.596 177.818C393.596 177.818 397.417 185.482 393.596 199.167C389.775 212.852 387.045 224.347 387.045 224.347C387.045 224.347 378.311 218.873 374.49 220.515C370.669 222.157 380.535 184.035 380.535 184.035C380.535 184.035 386.499 171.249 393.596 177.818Z" fill="#9B51E0"/>
<path d="M325.756 84.0114C324.136 85.5831 324.91 88.4349 326.481 90.0555C328.053 91.6761 330.212 92.6186 331.82 94.2031C332.596 95.0182 333.295 95.9042 333.907 96.8495C335.439 99.0642 336.993 101.321 337.816 103.885C338.597 106.318 338.682 108.917 338.615 111.471C338.485 116.417 337.811 121.333 336.606 126.131" stroke="#2F2E41" stroke-width="0.5"/>
<path d="M329.963 54.4752C333.947 62.9665 333.422 79.7484 324.931 83.7323C316.439 87.7162 303.197 77.3936 299.214 68.9023C297.3 64.8246 297.085 60.1539 298.616 55.9177C300.147 51.6816 303.297 48.2269 307.375 46.3138C311.453 44.4006 316.123 44.1857 320.359 45.7163C324.596 47.2468 328.05 50.3975 329.963 54.4752Z" fill="#B76E79"/>
<path opacity="0.4" d="M319.763 56.0975C321.553 55.2575 322.187 52.8349 321.179 50.6865C320.171 48.5381 317.903 47.4774 316.113 48.3174C314.322 49.1574 313.688 51.58 314.696 53.7284C315.704 55.8768 317.972 56.9375 319.763 56.0975Z" fill="white"/>
<path d="M387.006 156.117C386.823 153.304 383.284 153.208 380.473 153.181C377.663 153.155 374.302 153.255 372.712 150.931C371.661 149.395 371.861 147.263 372.73 145.616C373.598 143.969 375.026 142.703 376.432 141.484C380.059 138.338 383.798 135.218 388.154 133.204C392.509 131.191 397.613 130.377 402.13 131.993C407.679 133.979 415.18 144.199 415.828 150.071C416.475 155.944 414.135 161.93 410.19 166.318C406.245 170.706 397.216 168.935 391.534 170.496C394.989 165.594 392.712 156.685 387.178 154.396L387.006 156.117Z" fill="#505565"/>
<path d="M78.7178 188.205L80.791 202.002L104.487 218.03C104.487 218.03 116.945 224 116.161 227.709C115.462 231.015 105.848 230.624 102.823 225.511L74.493 212.632L65.0183 193.875L78.7178 188.205Z" fill="#FFB8B8"/>
<path d="M78.5935 327.305L77.5451 341.983L67.4107 341.284L69.158 327.305H78.5935Z" fill="#FFB8B8"/>
<path d="M75.7978 337.44C75.7978 337.44 77.1957 332.198 78.5935 332.548L80.6903 336.392C80.6903 336.392 90.1258 345.128 92.9215 345.478C92.9215 345.478 102.008 348.274 92.9215 352.467H82.4376C82.4376 352.467 75.4484 352.118 74.0505 352.467C72.6527 352.817 64.6151 352.817 64.2656 350.72C63.9161 348.623 65.314 344.429 65.314 344.429C65.314 344.429 66.6028 334.119 68.0551 336.129C68.8142 337.207 69.6499 338.229 70.5559 339.187L75.7978 337.44Z" fill="#2F2E41"/>
<path d="M52.384 327.481L51.3356 342.158L41.2012 341.459L42.9486 327.481H52.384Z" fill="#FFB8B8"/>
<path d="M49.5884 337.615C49.5884 337.615 50.9862 332.373 52.3841 332.723L54.4808 336.567C54.4808 336.567 63.9163 345.303 66.712 345.653C66.712 345.653 75.798 348.448 66.712 352.642H56.2282C56.2282 352.642 49.2389 351.943 47.8411 352.293C46.4432 352.642 38.4056 352.642 38.0561 350.545C37.7067 348.448 39.1045 344.604 39.1045 344.604C39.1045 344.604 40.3933 334.294 41.8456 336.304C42.6047 337.382 43.4405 338.404 44.3464 339.362L49.5884 337.615Z" fill="#2F2E41"/>
<path d="M92.2227 237.319L93.97 239.766V244.658L82.7872 286.244L80.6904 295.33C80.6904 295.33 80.6904 330.276 78.5936 330.276C76.4969 330.276 67.0614 331.325 67.0614 329.228C67.0614 327.131 67.7603 279.604 67.7603 279.604L58.3248 297.427C58.3248 297.427 54.1313 328.878 52.7335 329.228C51.3356 329.577 41.5507 329.228 40.8517 327.131L42.9485 307.212C42.9485 307.212 42.5991 284.846 48.5399 279.954C48.5399 279.954 49.5883 274.013 50.6367 271.567C51.6851 269.12 53.4324 267.723 52.384 265.975C51.3356 264.228 53.7818 245.008 53.7818 245.008C53.7818 245.008 53.0829 239.067 54.4808 237.319C55.8786 235.572 92.2227 237.319 92.2227 237.319Z" fill="#2F2E41"/>
<path d="M69.8571 157.992C63.874 157.992 59.0238 153.141 59.0238 147.158C59.0238 141.175 63.874 136.325 69.8571 136.325C75.8402 136.325 80.6904 141.175 80.6904 147.158C80.6904 153.141 75.8402 157.992 69.8571 157.992Z" fill="#FFB8B8"/>
<path d="M63.0425 153.623L63.7414 160.612L60.9458 163.058L78.7683 171.445C74.378 163.945 73.0778 157.115 75.2737 152.225L63.0425 153.623Z" fill="#FFB8B8"/>
<path d="M75.2737 164.107C75.2737 164.107 78.0694 169.698 74.5748 168.301L63.7414 160.612C63.7414 160.612 51.8597 165.155 47.6662 170.397L51.1608 207.44L53.9565 233.65C53.9565 233.65 52.2092 236.795 52.5587 237.145C52.9081 237.494 53.2576 236.795 52.9081 237.844C52.5587 238.892 51.5103 237.844 52.5587 238.892C53.607 239.94 54.6554 238.892 53.607 239.94C52.5587 240.989 53.607 241.338 53.607 241.338C53.607 241.338 55.0049 232.951 67.2361 239.241C79.4672 245.532 84.7092 247.279 93.7952 239.591L83.3113 199.752L82.4648 184.727C82.1821 179.708 81.2889 174.742 79.8051 169.939C79.0037 167.345 77.6076 164.796 75.2737 163.408V164.107Z" fill="#D0CDE1"/>
<path d="M56.5776 194.685L51.3356 207.615L63.5668 233.475C63.5668 233.475 66.3625 236.62 64.6152 240.464C63.7125 242.518 62.6613 244.504 61.47 246.405C61.47 246.405 58.3249 245.007 58.3249 239.066L40.5023 213.555L41.9002 192.588L56.5776 194.685Z" fill="#FFB8B8"/>
<path d="M57.2764 171.62C57.2764 171.62 62.1689 176.513 60.0721 184.201C57.9753 191.889 56.228 197.83 56.228 197.83C56.228 197.83 47.8409 191.54 40.8517 195.384C40.8517 195.384 41.9001 172.669 47.8409 170.572C53.7818 168.475 57.2764 171.62 57.2764 171.62Z" fill="#D0CDE1"/>
<path d="M60.9514 137.865C60.9514 137.865 64.2614 130.693 70.6054 132.348C76.9494 134.003 80.5351 136.485 80.8109 138.968C81.0868 141.45 80.673 145.174 80.673 145.174C80.673 145.174 79.9835 140.071 75.5703 141.174C71.157 142.278 64.2614 141.45 64.2614 141.45L63.1581 151.38C63.1581 151.38 61.2766 149.375 59.8975 150.478C58.5183 151.581 56.5382 140.071 60.9514 137.865Z" fill="#2F2E41"/>
<path d="M115.756 215.8L109.306 214.307C108.995 214.235 108.668 214.27 108.38 214.409C108.092 214.547 107.86 214.779 107.721 215.066L101.114 228.767C101.042 228.917 101.003 229.08 101.001 229.246C100.999 229.412 101.033 229.576 101.101 229.728C101.169 229.879 101.269 230.014 101.395 230.122C101.52 230.231 101.668 230.31 101.827 230.356L108.382 232.218C108.733 232.318 109.109 232.286 109.438 232.13C109.768 231.973 110.029 231.702 110.173 231.367L114.389 221.575L114.518 221.646L115.32 219.79L115.187 219.722L116.363 216.989C116.414 216.872 116.438 216.745 116.434 216.618C116.429 216.49 116.397 216.365 116.339 216.252C116.281 216.138 116.199 216.039 116.098 215.961C115.997 215.883 115.88 215.828 115.756 215.8Z" fill="#3F3D56"/>
<path d="M110.083 214.814L109.33 214.64C109.114 214.59 108.887 214.615 108.687 214.712C108.487 214.809 108.327 214.971 108.232 215.171L101.783 228.785C101.746 228.863 101.726 228.948 101.725 229.035C101.724 229.122 101.741 229.208 101.777 229.287C101.812 229.366 101.864 229.437 101.929 229.494C101.994 229.552 102.07 229.595 102.153 229.62L108.662 231.583C108.846 231.639 109.043 231.625 109.217 231.544C109.391 231.463 109.529 231.321 109.605 231.144L115.706 216.943C115.746 216.851 115.765 216.752 115.762 216.652C115.758 216.552 115.733 216.453 115.688 216.364C115.643 216.275 115.579 216.197 115.5 216.135C115.421 216.073 115.33 216.03 115.233 216.007L114.518 215.842C114.449 215.826 114.377 215.833 114.312 215.862C114.247 215.892 114.194 215.941 114.161 216.004C114.131 216.059 114.085 216.103 114.027 216.129C113.97 216.155 113.906 216.161 113.845 216.147L110.455 215.362C110.335 215.334 110.23 215.262 110.162 215.161C110.093 215.059 110.065 214.936 110.083 214.814V214.814Z" fill="#EADE7F"/>
</g>
<defs>
<clipPath id="clip0">
<rect width="573" height="357" fill="white" transform="matrix(-1 0 0 1 573 0.100067)"/>
</clipPath>
</defs>
</svg>
