<svg width="1398" height="573" viewBox="0 0 1398 573" fill="none" xmlns="http://www.w3.org/2000/svg">
<path opacity="0.2" d="M0 348C82.8427 348 150 280.843 150 198C150 115.157 82.8427 48 0 48" stroke="#F9B9B8" stroke-width="60"/>
<g opacity="0.5">
<path d="M1313.13 423.346C1311.25 399.506 1327.89 378.749 1344.09 377.473C1360.3 376.197 1379.98 394.093 1381.86 417.933C1383.6 440.001 1368.74 459.471 1354.42 463.2C1354.59 463.327 1354.74 463.486 1354.85 463.668L1356.72 466.929C1356.86 467.178 1356.94 467.459 1356.94 467.746C1356.94 468.032 1356.87 468.315 1356.74 468.567C1356.6 468.819 1356.4 469.032 1356.16 469.186C1355.92 469.339 1355.64 469.429 1355.35 469.445L1347.36 469.902C1347.07 469.919 1346.78 469.862 1346.53 469.737C1346.27 469.612 1346.05 469.423 1345.88 469.188C1345.72 468.953 1345.62 468.68 1345.59 468.395C1345.56 468.11 1345.6 467.822 1345.71 467.559L1347.2 464.105C1347.26 463.986 1347.32 463.873 1347.41 463.77C1332.64 462.395 1314.87 445.462 1313.13 423.346Z" fill="#EADE7F"/>
<path d="M1331.89 397.255C1327.36 402.71 1325.1 409.696 1325.57 416.771C1326.04 423.845 1329.21 430.468 1334.43 435.273C1335.61 436.385 1333.7 438.042 1332.53 436.937C1326.98 431.702 1323.6 424.56 1323.1 416.943C1322.59 409.327 1324.97 401.799 1329.78 395.87C1330.8 394.62 1332.91 395.996 1331.89 397.255Z" fill="white"/>
<path d="M1352.73 466.667C1353.46 472.896 1355.66 478.864 1359.14 484.08C1362.62 489.297 1367.28 493.615 1372.75 496.68C1374.3 497.538 1376.02 498.675 1377.83 497.926C1378.53 497.662 1379.11 497.17 1379.49 496.529C1379.87 495.889 1380.02 495.139 1379.92 494.402C1379.58 492.499 1377.64 491.363 1375.84 491.223C1373.79 491.065 1372.26 492.587 1371.6 494.402C1369.99 498.835 1373.08 503.055 1375.55 506.464C1381.17 514.231 1386.35 522.828 1387.46 532.545C1388.49 541.535 1385.47 551.397 1377.92 556.833C1376.6 557.784 1375.22 555.672 1376.53 554.726C1384.02 549.335 1386.27 539.127 1384.6 530.446C1383.5 525.278 1381.52 520.337 1378.76 515.837C1377.38 513.5 1375.87 511.243 1374.3 509.036C1372.66 506.944 1371.22 504.711 1369.98 502.363C1368.12 498.437 1367.96 493.116 1371.61 490.108C1375.01 487.302 1381.01 489.008 1382.24 493.33C1382.48 494.28 1382.49 495.275 1382.25 496.225C1382.01 497.175 1381.54 498.051 1380.88 498.775C1380.22 499.499 1379.39 500.048 1378.46 500.372C1377.54 500.696 1376.55 500.786 1375.58 500.633C1373.47 500.308 1371.35 498.847 1369.58 497.723C1364.24 494.345 1359.73 489.814 1356.38 484.462C1353.03 479.111 1350.92 473.076 1350.21 466.802C1350.05 465.186 1352.57 465.056 1352.73 466.667L1352.73 466.667Z" fill="#EADE7F"/>
</g>
</svg>
