<svg width="60" height="60" viewBox="0 0 60 60" fill="none" xmlns="http://www.w3.org/2000/svg">
<path d="M30.1788 4.20001C29.1963 4.20001 28.3924 5.00862 28.3924 5.99693V6.89538H27.9458C27.6778 6.89538 27.4991 7.07507 27.4991 7.34461V9.14153V9.23102L24.3729 10.7577C23.1224 11.4765 22.3188 12.7339 22.0509 13.9918C21.8722 15.1598 22.1405 16.2393 22.8551 17.2276V18.5753H21.6042C21.4256 18.5753 21.2466 18.6641 21.2466 18.8438C21.1573 19.0235 21.1573 19.2032 21.2466 19.293L22.8551 21.7199V25.133L21.3356 27.4686H15.7093V27.0194C15.7093 26.7499 15.5307 26.5702 15.2627 26.5702H14.8161V24.5943L14.9051 24.5048C15.441 23.8759 15.619 22.9778 15.5296 22.1692C15.4403 21.3605 14.9948 20.5512 14.3695 20.102L10.439 16.9574V16.6872C10.7069 16.5075 10.9746 16.2393 10.9746 15.88C10.9746 15.3409 10.5283 14.8902 9.99237 14.8902C9.45644 14.8902 9.01018 15.3409 9.01018 15.88C9.01018 16.2393 9.18847 16.5973 9.54576 16.6872V16.9574L5.61524 20.1915C4.98999 20.7306 4.54268 21.45 4.45335 22.2586C4.36403 23.0673 4.54372 23.8759 5.07966 24.5048V27.6494H4.63305C4.36508 27.6494 4.18644 27.8291 4.18644 28.0986V55.5016H2.8466C2.57864 55.5016 2.39999 55.6812 2.39999 55.9508C2.39999 56.2203 2.57864 56.4 2.8466 56.4H4.63305H11.7788H12.2254H13.1186H15.8873H17.9424H21.6042H23.6576H27.3212H32.6805H36.3424H38.4865H42.1483H44.2924H46.0788H47.8653H47.9543H55.4577H57.1534C57.4213 56.4 57.6 56.2203 57.6 55.9508C57.6 55.6812 57.4213 55.4121 57.1534 55.4121H55.9043V28.0091C55.9043 27.7396 55.7256 27.5599 55.4577 27.5599H55.011V24.6838L55.1 24.5943C55.636 23.9654 55.8139 23.0673 55.7246 22.2586C55.6353 21.45 55.1897 20.6407 54.5644 20.1915L50.6339 17.0469V16.7784C50.9019 16.5987 51.1695 16.3288 51.1695 15.9694C51.1695 15.4304 50.7232 14.9815 50.1873 14.9815C49.6514 14.9815 49.2051 15.4304 49.2051 15.9694C49.2051 16.3288 49.3834 16.6886 49.7407 16.7784V17.0469L45.8102 20.1915C45.1849 20.7306 44.7376 21.45 44.6483 22.2586C44.559 23.0673 44.7387 23.8759 45.2746 24.5048V26.7509H44.828C44.56 26.7509 44.3814 26.9306 44.3814 27.2002V27.6494H38.8424L37.2356 25.2225V21.9884L39.022 19.293C39.1114 19.1133 39.1114 18.9337 39.022 18.8438C38.9327 18.6641 38.7537 18.5753 38.6644 18.5753H37.2356V17.4961L37.3246 17.4066C38.1285 16.3285 38.3968 14.9811 38.1288 13.7233C37.8609 12.4655 37.057 11.3866 35.8958 10.7577L32.8585 9.14153V7.34461C32.8585 7.07507 32.6798 6.89538 32.4119 6.89538H31.9653V5.99693C31.9653 5.00862 31.1614 4.20001 30.1788 4.20001ZM30.0009 5.09847C30.4475 5.09847 30.8941 5.45785 30.8941 5.99693V6.89538H29.1076V5.99693C29.1076 5.5477 29.5543 5.09847 30.0009 5.09847ZM28.2144 7.79384H31.7873V8.6923H28.2144V7.79384ZM28.4813 9.59075H31.6076L35.2695 11.5667C36.1627 12.1057 36.8773 12.914 37.0559 13.9023C37.2346 14.8906 37.0566 15.88 36.4314 16.7784H31.6966V15.7887C31.6966 14.9801 31.34 14.3515 30.6254 13.9023L30.0898 13.5426C29.9112 13.4527 29.7325 13.4527 29.6432 13.5426L29.1076 13.9023C28.4824 14.3515 28.1237 14.9801 28.1237 15.7887V16.7784H23.4797C23.033 15.9698 22.7654 15.071 22.9441 14.1725C23.1227 13.0944 23.8369 12.1057 24.8195 11.5667L28.4813 9.59075ZM30.0009 14.441L30.2678 14.6218C30.6251 14.8913 30.8941 15.2496 30.8941 15.7887V16.7784H29.1076V15.7887C29.1076 15.3395 29.3749 14.8913 29.7322 14.6218L30.0009 14.441ZM23.7483 17.6769H36.2534V18.5753H23.7483V17.6769ZM9.9034 17.7664L13.7432 20.8215C14.1898 21.1808 14.5474 21.7192 14.5474 22.3481C14.6368 22.9771 14.4581 23.5168 14.1008 23.9661H5.61524C5.34727 23.5168 5.2576 22.9771 5.2576 22.3481C5.34692 21.7192 5.61524 21.1808 6.06185 20.8215L9.9034 17.7664ZM50.0983 17.7664L53.9381 20.8215C54.3847 21.1808 54.7424 21.7192 54.7424 22.3481C54.8317 22.9771 54.6531 23.5168 54.2958 23.9661H45.8102C45.5422 23.5168 45.4525 22.9771 45.4525 22.3481C45.5419 21.7192 45.8102 21.1808 46.2568 20.8215L50.0983 17.7664ZM22.4085 19.4738H23.3017H24.0152L25.1771 21.2707H23.5686L22.4085 19.4738ZM25.1771 19.4738H35.0915L33.9296 21.2707H26.3373L25.1771 19.4738ZM36.1627 19.4738H36.7H37.7712L36.5203 21.2707H35.0026L36.1627 19.4738ZM23.7483 22.1692H25.6237L25.5348 24.8645H23.7483V22.1692ZM34.6449 22.1692H36.2534V24.8645H34.5559L34.6449 22.1692ZM26.517 22.2586H33.7517L33.6627 24.954H31.7873H31.6966L30.1788 24.0556C30.0002 23.9657 29.9108 23.9657 29.7322 24.0556L28.3034 24.954H26.428L26.517 22.2586ZM5.8839 24.8645H13.9229V26.6614H12.5831C12.3151 26.6614 12.1364 26.8411 12.1364 27.1107V27.5599H9.45679H5.8839V24.8645ZM46.0788 24.8645H54.1178V27.5599H50.5449H47.8653V27.1107C47.8653 26.8411 47.6866 26.6614 47.4187 26.6614H46.0788V24.8645ZM30.0009 24.954L32.6805 26.4807V30.2553H27.3212V26.4807L30.0009 24.954ZM23.5686 25.763H25.1771L24.0152 27.5599H22.4085L23.5686 25.763ZM26.2483 25.763H26.7839L26.6949 25.8525C26.5163 25.9423 26.428 26.1224 26.428 26.2122V27.5599H26.2483H25.0882L26.2483 25.763ZM33.2161 25.763H33.8407L35.0026 27.5599H33.7517H33.5737V26.2122C33.5737 26.0325 33.4837 25.9423 33.3051 25.8525L33.2161 25.763ZM35.0026 25.763H36.5203L37.7712 27.5599H36.1627L35.0026 25.763ZM13.0297 27.5599H14.8161V30.2553H13.0297V27.5599ZM45.1856 27.5599H46.9721V30.2553H45.1856V27.5599ZM4.99068 28.4584H5.43729H9.45679H12.1364V30.2553H11.7788C11.6895 30.2553 11.5105 30.3448 11.4212 30.3448L8.74151 33.0401C8.65219 33.13 8.56322 33.3995 8.65254 33.4894C8.74186 33.5792 8.92051 33.7578 9.09915 33.7578H10.35V36.004C10.35 36.2735 10.5287 36.4532 10.7966 36.4532H12.1364V55.3208H11.6898V55.4121H4.99068V28.4584ZM15.7983 28.4584H21.6042H26.2483H26.428V30.2553H15.7983V28.4584ZM33.5737 28.4584H33.8407H38.5754H44.2924V30.2553H33.5737V28.4584ZM47.8653 28.5478H50.5449H54.5644H55.011V55.5016H47.9543V55.4121V36.5445H49.2051C49.4731 36.5445 49.6517 36.3648 49.6517 36.0952V33.8491H51.0805C51.2592 33.8491 51.4378 33.7585 51.5271 33.5789C51.6165 33.3992 51.5275 33.2195 51.4382 33.1296L48.7585 30.4343C48.6692 30.3444 48.5795 30.3448 48.4009 30.3448H47.8653V28.5478ZM11.9568 31.1537H12.5831H15.2627H15.3517H26.8746H33.1271H44.739H47.4187H48.2212L50.0076 32.9506H49.2051H10.7966H10.1703L11.9568 31.1537ZM11.3322 33.8491H48.8475V35.646H48.0432H44.739H44.2924H42.1483H41.7017H38.9331H38.4865H36.3424H35.8068H33.1271H32.6805H27.3212H26.8746H24.1042H23.6576H21.6042H21.1576H18.389H17.9424H15.8873H15.4407H12.2254H11.3322V33.8491ZM13.0297 36.5445H14.9051V39.6891V44.1813V47.7752V55.4121H13.0297V36.5445ZM15.7983 36.5445H17.8517V39.2398H15.7983V36.5445ZM18.7449 36.5445H20.622V55.4121H18.7449V47.7752V44.1813V39.6891V36.5445ZM21.6042 36.5445H23.6576V39.2398H21.6042V36.5445ZM24.5508 36.5445H26.428V55.4121H24.5508V44.1813V36.5445ZM27.3212 36.5445H32.6805V39.2398H27.3212V36.5445ZM33.5737 36.5445H35.4492V55.4121H33.5737V36.5445ZM36.3424 36.5445H38.4865V39.2398H36.3424V36.5445ZM39.3797 36.5445H41.2551V55.4121H39.3797V36.5445ZM42.1483 36.5445H44.2924V39.2398H42.1483V36.5445ZM45.1856 36.5445H47.061V55.4121H46.0788H45.1856V47.7752V44.1813V39.6891V36.5445ZM8.65254 37.4429C7.67 37.4429 6.8661 38.2515 6.8661 39.2398C6.8661 40.2281 7.67 41.0367 8.65254 41.0367C9.63508 41.0367 10.439 40.2281 10.439 39.2398C10.439 38.2515 9.63508 37.4429 8.65254 37.4429ZM51.5271 37.4429C50.5446 37.4429 49.7407 38.2515 49.7407 39.2398C49.7407 40.2281 50.5446 41.0367 51.5271 41.0367C52.5097 41.0367 53.3136 40.2281 53.3136 39.2398C53.3136 38.2515 52.5097 37.4429 51.5271 37.4429ZM8.65254 38.3414C9.18847 38.3414 9.54576 38.7008 9.54576 39.2398C9.54576 39.7789 9.18847 40.1383 8.65254 40.1383C8.11661 40.1383 7.75932 39.7789 7.75932 39.2398C7.75932 38.7008 8.11661 38.3414 8.65254 38.3414ZM51.5271 38.3414C52.0631 38.3414 52.4204 38.7008 52.4204 39.2398C52.4204 39.7789 52.0631 40.1383 51.5271 40.1383C50.9912 40.1383 50.6339 39.7789 50.6339 39.2398C50.6339 38.7008 50.9912 38.3414 51.5271 38.3414ZM15.7983 40.1383H17.8517V43.7321H15.7983V40.1383ZM21.5153 40.1383H23.5686V43.7321H21.5153V40.1383ZM27.3212 40.1383H32.6805V43.7321H27.3212V40.1383ZM36.3424 40.1383H38.4865V43.7321H36.3424V40.1383ZM42.1483 40.1383H44.2924V43.7321H42.1483V40.1383ZM6.33051 42.8337C6.06255 42.8337 5.8839 43.0134 5.8839 43.2829C5.8839 43.5524 6.06255 43.7321 6.33051 43.7321H6.77712V48.6736C6.77712 48.9432 6.95577 49.1229 7.22374 49.1229H9.9034C10.1714 49.1229 10.35 48.9432 10.35 48.6736V43.7321H10.7966C11.0646 43.7321 11.2432 43.5524 11.2432 43.2829C11.2432 43.0134 11.0646 42.8337 10.7966 42.8337H9.9034H7.22374H6.33051ZM49.2051 42.8337C48.9371 42.8337 48.7585 43.0134 48.7585 43.2829C48.7585 43.5524 48.9371 43.7321 49.2051 43.7321H49.6517V48.6736C49.6517 48.9432 49.8304 49.1229 50.0983 49.1229H52.778C53.046 49.1229 53.2246 48.9432 53.2246 48.6736V43.7321H53.6712C53.9392 43.7321 54.1178 43.5524 54.1178 43.2829C54.1178 43.0134 53.9392 42.8337 53.6712 42.8337H52.778H50.0983H49.2051ZM7.67035 43.7321H9.45679V48.2244H7.67035V43.7321ZM50.5449 43.7321H52.3314V48.2244H50.5449V43.7321ZM15.7983 44.6306H17.8517V47.3259H15.7983V44.6306ZM21.5153 44.6306H23.5686V47.3259H21.5153V44.6306ZM27.3212 44.6306H32.6805V47.3259H27.3212V44.6306ZM36.3424 44.6306H38.4865V47.3259H36.3424V44.6306ZM42.1483 44.6306H44.2924V47.3259H42.1483V44.6306ZM15.7983 48.2244H17.8517V55.4121H15.7983V48.2244ZM21.5153 48.2244H23.5686V55.4121H21.5153V48.2244ZM27.3212 48.2244H32.6805V55.4121H27.3212V48.2244ZM36.3424 48.2244H38.4865V55.4121H36.3424V48.2244ZM42.1483 48.2244H44.2924V55.4121H42.1483V48.2244ZM7.22374 50.9198C6.95577 50.9198 6.77712 51.0995 6.77712 51.369V53.1659C6.77712 53.4355 6.95577 53.6151 7.22374 53.6151H9.9034C10.1714 53.6151 10.35 53.4355 10.35 53.1659V51.369C10.35 51.1893 10.1714 50.9198 9.9034 50.9198H7.22374ZM50.0983 50.9198C49.8304 50.9198 49.6517 51.0995 49.6517 51.369V53.1659C49.6517 53.4355 49.8304 53.6151 50.0983 53.6151H52.778C53.046 53.6151 53.2246 53.4355 53.2246 53.1659V51.369C53.2246 51.1893 53.046 50.9198 52.778 50.9198H50.0983ZM7.67035 51.8182H9.45679V52.7167H7.67035V51.8182ZM50.5449 51.8182H52.3314V52.7167H50.5449V51.8182Z" fill="#505565"/>
</svg>
