<svg width="72" height="80" viewBox="0 0 72 80" fill="none" xmlns="http://www.w3.org/2000/svg">
<path d="M55.0906 0.674947C54.94 0.174213 54.4103 -0.109987 53.9103 0.0401099C48.1448 1.7613 43.7275 6.23469 42.0947 12.0073C41.9521 12.5092 42.246 13.0309 42.7497 13.1724C43.2558 13.3151 43.7768 13.0223 43.92 12.5191C45.2867 7.68768 48.8423 3.8762 53.5264 2.15869C54.3943 5.85576 53.8893 9.68569 52.0733 13.0444C51.2016 14.6561 50.0621 16.0882 48.6856 17.3013C48.293 17.647 48.2571 18.2437 48.6041 18.6349C48.7917 18.8453 49.0522 18.9536 49.314 18.9536C49.5374 18.9536 49.7621 18.8748 49.9424 18.7161C51.4856 17.3554 52.7646 15.7499 53.7424 13.9413C55.9548 9.85178 56.4326 5.13972 55.0906 0.674947Z" fill="#B76E79"/>
<path d="M20.8821 20.6529C20.7988 20.8891 20.813 21.1487 20.9222 21.3751C21.0309 21.6003 21.2253 21.7737 21.463 21.8574C24.0496 22.7624 27.0276 22.4356 29.4511 20.6603C29.3013 23.5212 30.546 26.2335 32.8514 27.9855C33.023 28.1159 33.2249 28.1787 33.4255 28.1787C33.7113 28.1787 33.9934 28.0507 34.1798 27.8071C35.9764 25.4598 36.3734 22.4807 35.5118 19.8674C38.2416 20.9087 41.2175 20.5117 43.546 18.9071C43.9769 18.6094 44.0843 18.0213 43.7867 17.5919C41.0409 13.635 36.7525 13.9019 36.6261 13.8703C38.4571 11.609 39.0061 8.68784 38.1873 5.96433C38.115 5.72319 37.9502 5.52265 37.7292 5.40331C37.5076 5.28397 37.2471 5.25936 37.007 5.32949C34.1696 6.17725 32.0917 8.35442 31.2475 10.9727C29.6709 8.55865 27.0603 7.11059 24.1803 7.04331C23.6383 7.07406 23.2229 7.44438 23.2099 7.96603C23.1444 10.8126 24.4581 13.4801 26.815 15.1748C24.1222 15.883 21.8645 17.8616 20.8821 20.6529ZM36.6589 15.7575C38.5354 15.7575 40.312 16.5339 41.5799 17.8712C38.9495 19.1546 35.74 18.6019 33.7014 16.4404C34.6199 15.9913 35.6261 15.7575 36.6589 15.7575ZM36.5922 7.50713C37.01 10.4141 35.4707 13.2738 32.7915 14.5334C32.3823 11.6262 33.9304 8.76327 36.5922 7.50713ZM32.1625 17.8921C34.2088 20.0033 34.644 23.2267 33.2316 25.8017C31.1802 23.6956 30.7371 20.4771 32.1625 17.8921ZM25.1587 9.03271C28.0685 9.53575 30.3197 11.8852 30.6903 14.8065C27.78 14.3002 25.5299 11.9444 25.1587 9.03271ZM30.3007 16.882C28.3094 20.6063 24.4598 20.4192 24.3334 20.4561C23.913 20.4561 23.4951 20.4179 23.0821 20.3392C24.4833 17.7005 27.437 16.3462 30.3007 16.882Z" fill="#B76E79"/>
<path d="M54.7313 21.8723C54.6128 21.363 54.1017 21.0419 53.593 21.1661C50.8745 21.7952 48.5713 23.6809 47.4871 26.4324C46.0518 23.9039 43.5258 22.3191 40.6842 22.0753C40.1681 22.0323 39.7039 22.4161 39.6583 22.9353C39.4135 25.7649 40.5521 28.5113 42.8014 30.3533C40.0099 30.9084 37.6718 32.7758 36.536 35.4512C36.4385 35.6812 36.436 35.9421 36.5311 36.1746C36.6255 36.4059 36.8088 36.5917 37.0403 36.6889C39.6978 37.8112 42.6882 37.5368 45.087 36.0023C45.0265 36.5303 45.0107 37.0668 45.0497 37.6079C45.2127 39.9049 46.2682 42.0025 48.0213 43.5158C48.1942 43.6659 48.4152 43.7471 48.6423 43.7471C48.6646 43.7471 48.6868 43.7459 48.7102 43.7447C48.9609 43.7274 49.1942 43.6106 49.3584 43.4211C51.2984 41.1902 51.8821 38.242 51.1862 35.5804C53.8635 36.7977 56.8623 36.5672 59.2659 35.1239C59.482 34.9947 59.6363 34.7856 59.6968 34.542C59.7573 34.2984 59.719 34.0412 59.5894 33.8259C58.0936 31.354 55.5285 29.8414 52.663 29.6807C54.5881 27.5967 55.3952 24.7211 54.7313 21.8723ZM38.7521 35.2765C40.3235 32.7167 43.3613 31.565 46.1744 32.2758C44.6004 34.8296 41.5702 35.9921 38.7521 35.2765ZM41.5354 24.1213C44.4213 24.8094 46.507 27.301 46.6942 30.2285C43.8153 29.5411 41.7226 27.0451 41.5354 24.1213ZM48.5386 41.3616C46.6202 39.1266 46.3851 35.8882 47.9683 33.4003C49.8769 35.6357 50.109 38.8788 48.5386 41.3616ZM57.3709 33.9662C54.6851 35.0682 51.5152 34.3566 49.5954 32.0469C52.248 30.9575 55.4285 31.63 57.3709 33.9662ZM48.8065 30.0871C48.5762 27.1633 50.2932 24.399 53.0424 23.3118C53.2752 26.239 51.5607 28.9998 48.8065 30.0871Z" fill="#B76E79"/>
<path d="M38.4292 32.1673C38.7046 31.7231 38.5657 31.1412 38.1206 30.8668C35.7607 29.4176 32.7838 29.1279 30.0614 30.3293C30.8266 27.5412 30.1669 24.6374 28.31 22.4565C27.9705 22.0591 27.3735 22.0111 26.9735 22.347C24.841 24.1518 23.665 26.8791 23.9644 29.8155C21.4936 28.2009 18.4814 27.9944 15.9141 29.046C15.4302 29.2441 15.1987 29.7952 15.3974 30.2788C16.5039 32.9633 18.846 34.8426 21.6104 35.425C19.3938 37.189 18.1506 39.9088 18.3728 42.8303C18.4111 43.3261 18.8265 43.7038 19.3172 43.7038C19.3413 43.7038 19.366 43.7026 19.3901 43.7014C22.3438 43.4778 24.8409 41.7936 26.2271 39.4156C27.2477 42.1059 29.4827 44.0791 32.2878 44.7594C32.3631 44.7779 32.4384 44.7865 32.5125 44.7865C32.9397 44.7865 33.3279 44.4974 33.4329 44.0655C34.1216 41.2458 33.3593 38.3659 31.4529 36.2488C34.4489 36.1134 36.9641 34.536 38.4292 32.1673ZM17.6117 30.4756C20.4482 29.7899 23.4691 30.9941 25.0025 33.5538C24.4815 33.6805 23.9488 33.7445 23.4093 33.7445C21.0018 33.7445 18.8216 32.4896 17.6117 30.4756ZM20.2623 41.6628C20.4791 38.7283 22.6014 36.2647 25.4821 35.6097C25.2587 38.5366 23.1321 41.0021 20.2623 41.6628ZM27.4692 24.5062C29.0246 27.0075 28.7612 30.244 26.8167 32.4625C25.2681 29.971 25.5251 26.7262 27.4692 24.5062ZM31.7588 42.6089C29.0297 41.4993 27.3294 38.7296 27.5939 35.7893C30.3222 36.901 32.0214 39.68 31.7588 42.6089ZM28.4186 33.8442C30.342 31.5786 33.5096 30.8628 36.2125 32.0049C34.2896 34.2717 31.1148 34.9897 28.4186 33.8442Z" fill="#B76E79"/>
<path d="M19.5284 20.2239L13.9832 15.1095C13.6005 14.7564 12.998 14.7798 12.6437 15.1612C12.2881 15.5451 12.311 16.143 12.6955 16.4973L18.2407 21.6117C18.6263 21.9659 19.2252 21.942 19.5802 21.56C19.9364 21.1762 19.9129 20.5782 19.5284 20.2239Z" fill="#B76E79"/>
<path d="M45.9744 16.7488C46.2942 16.7488 46.6053 16.5889 46.7843 16.2973L50.651 10.0006C50.9239 9.55526 50.7844 8.97332 50.3374 8.70143C49.888 8.42584 49.3066 8.56978 49.0337 9.01392L45.167 15.3106C44.8941 15.756 45.0337 16.3379 45.4806 16.6098C45.6349 16.7046 45.8065 16.7488 45.9744 16.7488Z" fill="#B76E79"/>
<path d="M57.0758 22.6052L60.6401 19.9674C61.0598 19.6561 61.1475 19.0644 60.8364 18.6448C60.5228 18.2265 59.9314 18.138 59.5092 18.4492L55.9449 21.087C55.5252 21.3983 55.4375 21.99 55.7486 22.4096C55.9351 22.6593 56.2215 22.791 56.5116 22.791C56.7079 22.791 56.9055 22.7307 57.0758 22.6052Z" fill="#B76E79"/>
<path d="M46.7633 54.4135L47.2584 53.4883L47.9374 54.037C51.7058 57.0844 57.4362 54.7255 57.8733 49.87C61.8832 51.7973 66.634 48.8952 66.634 44.3853V40.0903L68.2883 39.3865C70.5192 38.4392 71.9414 36.3477 71.9982 33.9301C72.055 31.5138 70.734 29.3583 68.5513 28.3076L66.0241 27.0884L66.6945 20.6244C66.7007 20.5644 66.6827 20.5098 66.6779 20.4519C68.2068 18.2692 69.2328 15.7528 69.6352 13.0371C69.7118 12.5216 69.3538 12.0406 68.8352 11.9643C62.8932 11.0883 56.9956 13.2709 53.0634 17.8033C52.7214 18.1982 52.7646 18.7949 53.1609 19.1357C53.556 19.4778 54.156 19.4347 54.498 19.0385C57.7882 15.2455 62.6142 13.2943 67.5871 13.7212C66.8019 17.4305 64.7179 20.681 61.6475 22.9509C60.1721 24.0422 58.5339 24.8566 56.7758 25.3721C56.2733 25.5198 55.9857 26.0451 56.1338 26.5459C56.256 26.9568 56.6338 27.2238 57.0437 27.2238C57.1314 27.2238 57.2227 27.2114 57.3116 27.1856C59.2832 26.6061 61.1228 25.692 62.7784 24.4691C63.411 24.001 63.9915 23.4835 64.5474 22.9449L64.0697 27.5535C64.029 27.9496 64.2401 28.3273 64.5994 28.5008L67.7253 30.0079C69.2303 30.7338 70.1414 32.2188 70.1019 33.8858C70.0624 35.5529 69.0834 36.9948 67.5451 37.6493L65.3142 38.5979C64.9648 38.7455 64.7376 39.0876 64.7376 39.4665V44.3853C64.7376 47.6537 61.1698 49.6078 58.419 48.022L57.424 47.4499C57.1301 47.2802 56.7696 47.2802 56.4758 47.4499C56.182 47.6185 56.0017 47.931 56.0017 48.2681V49.3102C56.0017 52.8703 51.8632 54.7783 49.1325 52.5705L47.5609 51.2983C47.3411 51.1199 47.0497 51.051 46.7757 51.1052C46.4979 51.1618 46.2596 51.3377 46.1263 51.5875L45.0892 53.5252C43.5466 56.4179 39.1891 56.576 37.6089 53.4378C37.4619 53.1463 37.1755 52.9506 36.8502 52.9199C36.5298 52.8977 36.207 53.0281 36.0082 53.2865C33.9986 55.4022 32.9267 58.9464 29.3871 58.5485C27.9026 58.38 26.6464 57.4695 26.0285 56.1137L24.4167 52.5742C24.2877 52.2912 24.0284 52.0894 23.7229 52.0341C23.4142 51.9812 23.1025 52.0783 22.8827 52.2961L21.263 53.9103C18.8523 56.3097 14.7095 55.0098 14.1314 51.649L13.869 50.1222C13.8233 49.8576 13.6665 49.6239 13.4375 49.4812C13.2085 49.3385 12.9295 49.2991 12.6696 49.3754C9.856 50.1855 6.98436 47.9563 7.29794 44.9143L7.40411 43.8956C7.43128 43.6323 7.34671 43.369 7.16954 43.1709C6.993 42.9729 6.74114 42.8572 6.47509 42.8535C4.90099 42.8302 3.48245 41.9456 2.77442 40.5455C1.19639 37.4219 4.05615 35.2376 4.55593 34.2685C4.70715 34.0655 4.77013 33.8096 4.73062 33.5598C4.69173 33.3101 4.55284 33.0861 4.34666 32.9385L3.6553 32.4439C2.39046 31.5421 1.73058 30.0264 1.93243 28.4885C2.3927 24.9764 6.01351 24.7865 7.14176 24.1578C7.43374 24.0471 7.65288 23.8023 7.72758 23.5009L8.92991 18.6608C9.59813 19.8411 10.3922 20.9594 11.34 21.9765C12.7437 23.4824 14.3863 24.7176 16.2221 25.6477C16.6953 25.8846 17.2619 25.6945 17.4969 25.2331C17.7345 24.7681 17.5481 24.1984 17.0814 23.9622C15.445 23.1342 13.9808 22.0331 12.7289 20.6896C10.1239 17.8944 8.66956 14.3142 8.57821 10.5175C13.5437 11.0071 17.9456 13.8061 20.4883 18.1404C20.7525 18.5895 21.3321 18.7408 21.7852 18.4788C22.237 18.2155 22.3895 17.6372 22.1253 17.1857C19.0882 12.0086 13.6851 8.78519 7.67202 8.56374C7.13127 8.51945 6.70904 8.95128 6.68929 9.47293C6.60665 11.6932 6.95056 13.8596 7.66392 15.892L6.00656 22.5646C5.18456 23.0649 0.66297 23.5935 0.0521594 28.2424C-0.236116 30.4361 0.684884 32.5989 2.4596 33.9141C2.2758 34.3249 -0.975787 37.3238 1.08057 41.3956C1.95095 43.1168 3.56023 44.3004 5.41952 44.6424L5.41149 44.7199C5.00099 48.6992 8.39039 51.8111 12.1634 51.3955L12.2622 51.9689C13.1013 56.8524 19.1191 58.7175 22.6037 55.2464L23.2556 54.5968L24.3019 56.895C24.6717 57.7062 25.2057 58.3993 25.849 58.9604C25.8743 59.3667 25.899 60.1161 25.8643 61.1036C25.2975 60.168 24.5717 59.3031 23.684 58.8856C22.9272 58.5301 22.1025 58.3431 21.2981 58.3431C19.5506 58.3431 18.0543 59.2116 17.3925 60.6105C16.3937 62.7217 17.5907 65.3841 20.0605 66.5455C20.5771 66.7879 21.208 66.9109 21.9346 66.9109C22.367 66.9109 22.812 66.8592 23.2521 66.7889C22.2679 67.4022 20.9025 67.9799 19.0111 68.3011C18.495 68.3885 18.1475 68.8769 18.2358 69.3912C18.3141 69.8513 18.7154 70.1773 19.1691 70.1773C19.2222 70.1773 19.2759 70.1737 19.3296 70.1638C21.8002 69.7444 23.541 68.9171 24.7581 68.0504C24.2024 70.0069 23.3892 72.1137 22.1784 74.23C21.813 74.8685 21.8154 75.6288 22.1846 76.2624C22.5519 76.8923 23.2087 77.2688 23.9414 77.2688H27.8238C27.5488 77.7889 27.5622 78.4075 27.8723 78.9383C28.2495 79.583 28.9754 80.0001 29.7217 80.0001C29.8483 80.0001 29.9736 79.9742 30.0902 79.9263C32.3526 78.9752 34.4526 78.9703 36.5132 79.914C36.6372 79.9706 36.7724 80.0001 36.9089 80.0001C37.4805 80.0001 38.0286 79.7589 38.412 79.3382C38.8002 78.9113 38.991 78.3355 38.9348 77.7572C38.8941 77.3403 38.9286 76.8073 39.0089 76.2095H43.0867C43.809 76.2095 44.4596 75.8417 44.8287 75.2253C45.2028 74.6015 45.2176 73.8436 44.8695 73.2002C41.2099 66.4427 42.6127 59.2409 43.0643 57.4003C44.6302 56.9521 45.9742 55.8921 46.7633 54.4135ZM33.5468 59.2299C34.6486 58.3942 34.8897 57.7617 36.7082 55.4851C37.7852 56.7557 39.356 57.5304 41.0656 57.6163C40.7875 58.9082 40.4419 61.1198 40.5224 63.8105H33.3593C33.6137 61.9884 33.7099 60.371 33.5468 59.2299ZM27.7852 60.0962C29.0615 60.5518 30.3956 60.597 31.7342 60.1711C31.7729 61.1132 31.6654 62.3741 31.4523 63.8105H27.5634C27.7488 62.3002 27.7918 61.0313 27.7852 60.0962ZM21.9346 65.0211C21.4895 65.0211 21.1315 64.9584 20.8691 64.8354C19.345 64.1193 18.5549 62.5851 19.1074 61.4164C19.4531 60.6856 20.2926 60.2328 21.2981 60.2328C21.8247 60.2328 22.3698 60.3583 22.8753 60.5957C23.8463 61.051 24.7599 62.8718 25.2754 64.31C24.4395 64.6102 23.0833 65.0211 21.9346 65.0211ZM23.9414 75.3791C23.9198 75.3791 23.863 75.3791 23.8247 75.3126C23.7969 75.2659 23.7969 75.2167 23.8253 75.1662C25.7482 71.8062 26.7487 68.4924 27.2659 65.7003H31.1342C30.4896 69.1447 29.4605 73.0006 28.6151 75.3791H23.9414V75.3791ZM37.0471 77.9393C37.0514 77.9848 37.0403 78.0193 36.9897 78.0587C34.6298 77.0732 32.1532 77.0781 29.6149 78.0784C29.5933 78.066 29.5729 78.0525 29.5557 78.0378C30.4017 76.4215 32.1506 70.6965 33.0584 65.7003H40.1364C39.076 68.4778 36.7572 74.9688 37.0471 77.9393ZM43.2003 74.0983C43.2373 74.1672 43.2213 74.2226 43.2003 74.257C43.1626 74.3198 43.1096 74.3198 43.0867 74.3198H39.3671C39.7996 72.4722 40.4781 70.346 41.1223 68.5148C41.5361 70.3306 42.1835 72.2203 43.2003 74.0983Z" fill="#B76E79"/>
<path d="M40.5737 40.5639C37.8206 40.5639 35.5811 42.7957 35.5811 45.5393C35.5811 48.2828 37.8206 50.5146 40.5737 50.5146C43.3262 50.5146 45.5658 48.2828 45.5658 45.5393C45.5658 42.7957 43.3262 40.5639 40.5737 40.5639ZM40.5737 48.6249C38.8663 48.6249 37.4774 47.2408 37.4774 45.5393C37.4774 43.8377 38.8663 42.4537 40.5737 42.4537C42.2805 42.4537 43.6694 43.8377 43.6694 45.5393C43.6694 47.2408 42.2805 48.6249 40.5737 48.6249Z" fill="#B76E79"/>
<path d="M30.3847 47.8974C28.31 47.8974 26.6223 49.5792 26.6223 51.6474C26.6223 53.7143 28.31 55.3961 30.3847 55.3961C32.4594 55.3961 34.1471 53.7143 34.1471 51.6474C34.1471 49.5792 32.4594 47.8974 30.3847 47.8974ZM30.3847 53.5064C29.3557 53.5064 28.5186 52.6722 28.5186 51.6474C28.5186 50.6213 29.3557 49.7871 30.3847 49.7871C31.4137 49.7871 32.2508 50.6213 32.2508 51.6474C32.2508 52.6722 31.4137 53.5064 30.3847 53.5064Z" fill="#B76E79"/>
<path d="M17.8771 45.8446C17.4567 45.5333 16.8629 45.6194 16.5505 46.0414C15.9518 46.846 15.7036 47.8364 15.8524 48.8281C16.0005 49.8209 16.5271 50.6957 17.3345 51.2924C17.9876 51.7746 18.7611 52.0281 19.558 52.0281C19.7475 52.0281 19.9388 52.0133 20.1296 51.9838C21.121 51.8337 21.9963 51.3083 22.5944 50.5025C22.9062 50.083 22.8179 49.4912 22.3969 49.1812C21.9765 48.8699 21.3821 48.9597 21.071 49.378C20.7728 49.7791 20.337 50.0411 19.845 50.1162C19.3549 50.1863 18.8623 50.0694 18.4641 49.7742C17.6351 49.1615 17.4598 47.9914 18.074 47.1659C18.3857 46.7476 18.2975 46.1558 17.8771 45.8446Z" fill="#B76E79"/>
<path d="M57.1018 37.6925C54.7425 37.6925 52.8239 39.6044 52.8239 41.9555C52.8239 44.3067 54.7425 46.2198 57.1018 46.2198C59.461 46.2198 61.3808 44.3067 61.3808 41.9555C61.3808 39.6044 59.461 37.6925 57.1018 37.6925ZM57.1018 44.33C55.7882 44.33 54.7202 43.2646 54.7202 41.9555C54.7202 40.6465 55.7882 39.5823 57.1018 39.5823C58.4154 39.5823 59.4845 40.6465 59.4845 41.9555C59.4845 43.2646 58.4154 44.33 57.1018 44.33Z" fill="#B76E79"/>
<path d="M64.7006 37.2394C66.6179 37.2394 68.1772 35.6856 68.1772 33.7749C68.1772 31.8642 66.6179 30.3104 64.7006 30.3104C62.7833 30.3104 61.224 31.8642 61.224 33.7749C61.224 35.6856 62.7833 37.2394 64.7006 37.2394ZM64.7006 32.2001C65.5722 32.2001 66.2809 32.9063 66.2809 33.7749C66.2809 34.6435 65.5722 35.3497 64.7006 35.3497C63.829 35.3497 63.1203 34.6435 63.1203 33.7749C63.1203 32.9063 63.829 32.2001 64.7006 32.2001Z" fill="#B76E79"/>
<path d="M11.6276 32.6551C9.53934 32.6551 7.84055 34.348 7.84055 36.4284C7.84055 38.5089 9.53934 40.2018 11.6276 40.2018C13.7153 40.2018 15.4141 38.5089 15.4141 36.4284C15.4141 34.348 13.7153 32.6551 11.6276 32.6551ZM11.6276 38.312C10.585 38.312 9.73687 37.4668 9.73687 36.4284C9.73687 35.3901 10.585 34.5448 11.6276 34.5448C12.6696 34.5448 13.5178 35.3901 13.5178 36.4284C13.5178 37.4668 12.6696 38.312 11.6276 38.312Z" fill="#B76E79"/>
</svg>
