<svg width="82" height="82" viewBox="0 0 82 82" fill="none" xmlns="http://www.w3.org/2000/svg">
<path d="M76.7038 74.015C76.3033 74.015 75.9786 73.6974 75.9786 73.3056V43.8785C75.9786 43.4868 76.3033 43.1691 76.7038 43.1691C77.1044 43.1691 77.4291 43.4868 77.4291 43.8785V73.3056C77.4291 73.6974 77.1044 74.015 76.7038 74.015Z" fill="#B76E79" stroke="#B76E79" stroke-width="0.8"/>
<path d="M5.2956 74.015C4.89508 74.015 4.57036 73.6974 4.57036 73.3056V43.8785C4.57036 43.4868 4.89508 43.1691 5.2956 43.1691C5.69611 43.1691 6.02084 43.4868 6.02084 43.8785V73.3056C6.02084 73.6974 5.69611 74.015 5.2956 74.015Z" fill="#B76E79" stroke="#B76E79" stroke-width="0.8"/>
<path d="M75.9106 44.6596C74.0603 44.6596 72.4378 43.6887 71.5468 42.2406C70.656 43.6887 69.0333 44.6596 67.183 44.6596C65.3329 44.6596 63.7102 43.6887 62.8194 42.2406C61.9285 43.6887 60.3058 44.6596 58.4555 44.6596C56.6054 44.6596 54.9827 43.6889 54.0919 42.2406C53.2009 43.6889 51.5784 44.6596 49.7281 44.6596C47.8779 44.6596 46.2553 43.6889 45.3644 42.2406C44.4736 43.6889 42.8509 44.6596 41.0008 44.6596C39.1505 44.6596 37.528 43.6889 36.637 42.2406C35.746 43.6889 34.1235 44.6596 32.2732 44.6596C30.423 44.6596 28.8002 43.6887 27.9093 42.2406C27.0183 43.6887 25.3958 44.6596 23.5455 44.6596C21.6952 44.6596 20.0727 43.6889 19.1817 42.2406C18.2908 43.6889 16.6682 44.6596 14.818 44.6596C12.9677 44.6596 11.345 43.6887 10.454 42.2406C9.56305 43.6887 7.9405 44.6596 6.09023 44.6596C3.2841 44.6596 1.00122 42.4265 1.00122 39.6818C1.00086 37.8499 1.74894 36.013 3.05401 34.6424C4.41076 33.2172 6.19322 32.4324 8.07304 32.4324H73.9272C77.761 32.4324 81 35.7521 81 39.6818C80.9994 42.4265 78.7165 44.6596 75.9106 44.6596ZM72.2719 39.6816C72.2719 41.644 73.9042 43.2405 75.9104 43.2405C77.9166 43.2405 79.5487 41.644 79.5487 39.6816C79.5487 36.5756 76.9216 33.8511 73.9265 33.8511H8.07268C6.5999 33.8511 5.19456 34.4755 4.11504 35.6092C3.05746 36.7201 2.45098 38.2044 2.45134 39.6814C2.45134 41.644 4.08349 43.2405 6.08987 43.2405C8.09625 43.2405 9.7284 41.644 9.7284 39.6816C9.7284 39.2898 10.0531 38.9722 10.4536 38.9722C10.8542 38.9722 11.1789 39.2898 11.1789 39.6816C11.1789 41.644 12.8112 43.2405 14.8176 43.2405C16.8238 43.2405 18.4561 41.644 18.4561 39.6816C18.4561 39.2898 18.7809 38.9722 19.1814 38.9722C19.5819 38.9722 19.9066 39.2898 19.9066 39.6816C19.9066 41.644 21.5388 43.2405 23.5451 43.2405C25.5515 43.2405 27.1837 41.644 27.1837 39.6816C27.1837 39.2898 27.5084 38.9722 27.9089 38.9722C28.3094 38.9722 28.6341 39.2898 28.6341 39.6816C28.6341 41.644 30.2665 43.2405 32.2729 43.2405C34.2791 43.2405 35.9114 41.644 35.9114 39.6816C35.9114 39.2898 36.2361 38.9722 36.6366 38.9722C37.0371 38.9722 37.3619 39.2898 37.3619 39.6816C37.3619 41.644 38.994 43.2405 41.0004 43.2405C43.0068 43.2405 44.6388 41.644 44.6388 39.6816C44.6388 39.2898 44.9635 38.9722 45.364 38.9722C45.7645 38.9722 46.0892 39.2898 46.0892 39.6816C46.0892 41.644 47.7216 43.2405 49.7278 43.2405C51.734 43.2405 53.3663 41.644 53.3663 39.6816C53.3663 39.2898 53.691 38.9722 54.0915 38.9722C54.4921 38.9722 54.8168 39.2898 54.8168 39.6816C54.8168 41.644 56.4489 43.2405 58.4551 43.2405C60.4615 43.2405 62.0938 41.644 62.0938 39.6816C62.0938 39.2898 62.4186 38.9722 62.8191 38.9722C63.2196 38.9722 63.5443 39.2898 63.5443 39.6816C63.5443 41.644 65.1765 43.2405 67.1827 43.2405C69.1889 43.2405 70.8212 41.644 70.8212 39.6816C70.8212 39.2898 71.1459 38.9722 71.5464 38.9722C71.947 38.9722 72.2719 39.2898 72.2719 39.6816Z" fill="#B76E79" stroke="#B76E79" stroke-width="0.8"/>
<path d="M47.5446 57.3843C47.5445 57.3843 47.5447 57.3843 47.5443 57.3843C47.5445 57.3843 47.5445 57.3843 47.5446 57.3843C47.5443 57.3843 47.5443 57.3843 47.5443 57.3843H47.5441C47.5439 57.3843 47.5439 57.3843 47.5437 57.3843C45.3249 57.3843 43.1042 56.7115 40.9379 55.3837C40.9357 55.3823 40.9335 55.3809 40.9312 55.3796C40.8338 55.32 40.7366 55.2588 40.6396 55.1966C38.6198 53.8994 36.5647 53.2416 34.5313 53.2416C31.1346 53.2418 28.8991 55.1035 28.8597 55.1368C28.8557 55.1404 28.8485 55.1464 28.8387 55.1547C28.5628 55.3853 26.0581 57.3846 22.2312 57.3846C19.9928 57.3846 17.7527 56.7002 15.5688 55.3493C15.4881 55.2995 15.4073 55.2486 15.3267 55.1968C13.3071 53.8996 11.2522 53.2418 9.21877 53.2416C9.21859 53.2416 9.21877 53.2416 9.21841 53.2416C9.21841 53.2416 9.21841 53.2416 9.21823 53.2416C7.98043 53.2416 6.76402 53.4835 5.60291 53.9606L5.57879 53.9707C5.20983 54.1238 4.78429 53.9546 4.62818 53.594C4.5892 53.5038 4.57071 53.4101 4.57071 53.3179C4.57071 53.0414 4.73679 52.7786 5.01347 52.664L5.04121 52.6526C5.14854 52.6085 5.25624 52.5663 5.36449 52.5255C5.36884 52.5239 5.37319 52.5221 5.37754 52.5207C5.37845 52.5203 5.37935 52.52 5.38026 52.5196C6.61752 52.0571 7.907 51.8228 9.21805 51.8228C9.21823 51.8226 9.21823 51.8226 9.21877 51.8228C9.21896 51.8228 9.21914 51.8228 9.21914 51.8228H9.21932C9.21932 51.8228 9.21932 51.8228 9.2195 51.8228C11.5249 51.823 13.8322 52.5494 16.0783 53.9823C16.1104 53.9995 16.141 54.0191 16.1698 54.0408C18.1746 55.3181 20.2136 55.9658 22.2316 55.9658C25.5033 55.9656 27.6977 54.2384 27.8899 54.0816C27.8979 54.075 27.9024 54.0711 27.9033 54.0704V54.0702C27.9135 54.0615 27.9401 54.039 27.9827 54.0048C28.4563 53.6254 30.8986 51.8228 34.5315 51.8228C34.5317 51.8228 34.5322 51.8228 34.5324 51.8228C36.8145 51.823 39.0985 52.5349 41.3228 53.9388C41.3605 53.9626 41.3981 53.9865 41.4358 54.0106C41.5669 54.0949 41.6979 54.1763 41.8292 54.255C43.7219 55.3904 45.6423 55.9658 47.5439 55.9658C47.5441 55.9658 47.5441 55.9658 47.5443 55.9658H47.5445C50.9417 55.9656 53.1772 54.1032 53.2158 54.0706C53.216 54.0706 53.216 54.0706 53.216 54.0704C53.2621 54.0308 53.7076 53.6549 54.4847 53.2214C55.6267 52.5843 57.4853 51.8228 59.8442 51.8228C59.8449 51.8228 59.8447 51.8228 59.8447 51.8228C59.8447 51.8228 59.8447 51.8228 59.8449 51.8228C59.8449 51.8228 59.8449 51.8228 59.8451 51.8228H59.8453C62.0663 51.8228 64.2895 52.4969 66.4578 53.8276C66.458 53.8278 66.4582 53.8278 66.4586 53.828C66.4604 53.8292 66.4624 53.8304 66.4644 53.8317C66.5594 53.89 66.6545 53.9498 66.7494 54.0108C66.7499 54.0112 66.7505 54.0115 66.751 54.0119C66.7916 54.0378 66.8321 54.0635 66.8727 54.089C68.3915 55.0386 69.935 55.5196 71.4622 55.5196C73.0164 55.5196 74.5582 55.0315 76.0448 54.0688C76.3788 53.8523 76.8286 53.9416 77.0498 54.2687C77.271 54.5954 77.1794 55.0354 76.8454 55.2517C76.8212 55.2675 76.7967 55.2833 76.7726 55.2987C75.0664 56.387 73.2802 56.9386 71.4622 56.9386C69.6066 56.9386 67.7537 56.3529 65.9551 55.1982C65.9545 55.1977 65.9538 55.1973 65.9532 55.1969C65.9422 55.1899 65.9313 55.1828 65.9202 55.1758C65.9192 55.1751 65.9182 55.1746 65.9173 55.1739C63.9092 53.892 61.8663 53.2418 59.8451 53.2418C59.8449 53.2418 59.8449 53.2418 59.8449 53.2418H59.8445C59.8444 53.2418 59.8444 53.2418 59.8444 53.2418C56.4343 53.242 54.1947 55.1182 54.1726 55.1372C54.1721 55.1375 54.1717 55.1379 54.1714 55.1382V55.1384C54.171 55.1388 54.1708 55.139 54.1704 55.139C54.1704 55.1391 54.1703 55.1393 54.1701 55.1393C54.1695 55.1398 54.169 55.1404 54.1685 55.1409C54.1683 55.1409 54.1681 55.1411 54.1679 55.1413C54.1055 55.1943 53.723 55.5123 53.0688 55.8927C51.9458 56.5457 50.0221 57.3843 47.5446 57.3843Z" fill="#B76E79"/>
<path d="M47.5446 57.3843C47.5445 57.3843 47.5447 57.3843 47.5443 57.3843C47.5445 57.3843 47.5445 57.3843 47.5446 57.3843ZM47.5446 57.3843C47.5443 57.3843 47.5443 57.3843 47.5443 57.3843H47.5441C47.5439 57.3843 47.5439 57.3843 47.5437 57.3843C45.3249 57.3843 43.1042 56.7115 40.9379 55.3837C40.9357 55.3823 40.9335 55.3809 40.9312 55.3796C40.8338 55.32 40.7366 55.2588 40.6396 55.1966C38.6198 53.8994 36.5647 53.2416 34.5313 53.2416C31.1346 53.2418 28.8991 55.1035 28.8597 55.1368C28.8557 55.1404 28.8485 55.1464 28.8387 55.1547C28.5628 55.3853 26.0581 57.3846 22.2312 57.3846C19.9928 57.3846 17.7527 56.7002 15.5688 55.3493C15.4881 55.2995 15.4073 55.2486 15.3267 55.1968C13.3071 53.8996 11.2522 53.2418 9.21877 53.2416C9.21859 53.2416 9.21877 53.2416 9.21841 53.2416C9.21841 53.2416 9.21841 53.2416 9.21823 53.2416C7.98043 53.2416 6.76402 53.4835 5.60291 53.9606L5.57879 53.9707C5.20983 54.1238 4.78429 53.9546 4.62818 53.594C4.5892 53.5038 4.57071 53.4101 4.57071 53.3179C4.57071 53.0414 4.73679 52.7786 5.01347 52.664L5.04121 52.6526C5.14854 52.6085 5.25624 52.5663 5.36449 52.5255C5.36884 52.5239 5.37319 52.5221 5.37754 52.5207C5.37845 52.5203 5.37935 52.52 5.38026 52.5196C6.61752 52.0571 7.907 51.8228 9.21805 51.8228C9.21823 51.8226 9.21823 51.8226 9.21877 51.8228C9.21896 51.8228 9.21914 51.8228 9.21914 51.8228H9.21932C9.21932 51.8228 9.21932 51.8228 9.2195 51.8228C11.5249 51.823 13.8322 52.5494 16.0783 53.9823C16.1104 53.9995 16.141 54.0191 16.1698 54.0408C18.1746 55.3181 20.2136 55.9658 22.2316 55.9658C25.5033 55.9656 27.6977 54.2384 27.8899 54.0816C27.8979 54.075 27.9024 54.0711 27.9033 54.0704V54.0702C27.9135 54.0615 27.9401 54.039 27.9827 54.0048C28.4563 53.6254 30.8986 51.8228 34.5315 51.8228C34.5317 51.8228 34.5322 51.8228 34.5324 51.8228C36.8145 51.823 39.0985 52.5349 41.3228 53.9388C41.3605 53.9626 41.3981 53.9865 41.4358 54.0106C41.5669 54.0949 41.6979 54.1763 41.8292 54.255C43.7219 55.3904 45.6423 55.9658 47.5439 55.9658C47.5441 55.9658 47.5441 55.9658 47.5443 55.9658H47.5445C50.9417 55.9656 53.1772 54.1032 53.2158 54.0706C53.216 54.0706 53.216 54.0706 53.216 54.0704C53.2621 54.0308 53.7076 53.6549 54.4847 53.2214C55.6267 52.5843 57.4853 51.8228 59.8442 51.8228C59.8449 51.8228 59.8447 51.8228 59.8447 51.8228C59.8447 51.8228 59.8447 51.8228 59.8449 51.8228C59.8449 51.8228 59.8449 51.8228 59.8451 51.8228H59.8453C62.0663 51.8228 64.2895 52.4969 66.4578 53.8276C66.458 53.8278 66.4582 53.8278 66.4586 53.828C66.4604 53.8292 66.4624 53.8304 66.4644 53.8317C66.5594 53.89 66.6545 53.9498 66.7494 54.0108C66.7499 54.0112 66.7505 54.0115 66.751 54.0119C66.7916 54.0378 66.8321 54.0635 66.8727 54.089C68.3915 55.0386 69.935 55.5196 71.4622 55.5196C73.0164 55.5196 74.5582 55.0315 76.0448 54.0688C76.3788 53.8523 76.8286 53.9416 77.0498 54.2687C77.271 54.5954 77.1794 55.0354 76.8454 55.2517C76.8212 55.2675 76.7967 55.2833 76.7726 55.2987C75.0664 56.387 73.2802 56.9386 71.4622 56.9386C69.6066 56.9386 67.7537 56.3529 65.9551 55.1982C65.9545 55.1977 65.9538 55.1973 65.9532 55.1969C65.9422 55.1899 65.9313 55.1828 65.9202 55.1758C65.9192 55.1751 65.9182 55.1746 65.9173 55.1739C63.9092 53.892 61.8663 53.2418 59.8451 53.2418C59.8449 53.2418 59.8449 53.2418 59.8449 53.2418H59.8445C59.8444 53.2418 59.8444 53.2418 59.8444 53.2418C56.4343 53.242 54.1947 55.1182 54.1726 55.1372C54.1721 55.1375 54.1717 55.1379 54.1714 55.1382V55.1384C54.171 55.1388 54.1708 55.139 54.1704 55.139C54.1704 55.1391 54.1703 55.1393 54.1701 55.1393C54.1695 55.1398 54.169 55.1404 54.1685 55.1409C54.1683 55.1409 54.1681 55.1411 54.1679 55.1413C54.1055 55.1943 53.723 55.5123 53.0688 55.8927C51.9458 56.5457 50.0221 57.3843 47.5446 57.3843Z" stroke="#B76E79" stroke-width="0.8"/>
<path d="M47.5446 65.2839C47.5445 65.2839 47.5446 65.2839 47.5443 65.2839C47.5445 65.2839 47.5445 65.2839 47.5446 65.2839C47.5443 65.2839 47.5443 65.2839 47.5443 65.2839H47.5441C47.5439 65.2839 47.5439 65.2839 47.5437 65.2839C45.3249 65.2839 43.1042 64.6112 40.9379 63.2833C40.9357 63.2819 40.9335 63.2805 40.9312 63.2793C40.8338 63.2197 40.7366 63.1585 40.6396 63.0962C38.6198 61.7991 36.5647 61.1413 34.5313 61.1413C31.1346 61.1414 28.8991 63.0031 28.8597 63.0365C28.8557 63.04 28.8485 63.046 28.8387 63.0544C28.5627 63.2849 26.0581 65.2842 22.2312 65.2842C19.9928 65.2842 17.7527 64.5998 15.5688 63.2489C15.4881 63.1991 15.4072 63.1482 15.3267 63.0964C15.3267 63.0964 15.3267 63.0964 15.3266 63.0962C15.3175 63.0906 15.3086 63.0849 15.2995 63.0789C15.2972 63.0773 15.2947 63.0757 15.2923 63.0744C13.2837 61.7916 11.2407 61.1413 9.21895 61.1411C9.21877 61.1411 9.21859 61.1411 9.21841 61.1411C8.0582 61.1411 6.91722 61.3536 5.82265 61.773C5.74306 61.8037 5.66364 61.8352 5.58459 61.8679C5.58241 61.8688 5.58042 61.8697 5.57843 61.8705C5.57843 61.8705 5.57824 61.8705 5.57806 61.8705C5.21091 62.0183 4.78628 61.8509 4.63126 61.4921C4.59192 61.4011 4.57324 61.3069 4.57324 61.2142C4.57324 60.9389 4.73751 60.6782 5.01328 60.5638C5.01328 60.5638 5.01564 60.5627 5.01745 60.562C5.01818 60.5617 5.01908 60.5613 5.01999 60.561C5.17392 60.4975 5.32858 60.4374 5.48414 60.3808C6.68949 59.9436 7.94325 59.7223 9.21804 59.7223C9.21823 59.7223 9.21823 59.7223 9.21859 59.7223H9.21877H9.21895C9.21895 59.7223 9.21913 59.7223 9.21931 59.7223C11.5245 59.7224 13.8317 60.4489 16.0779 61.8819C16.11 61.8991 16.1405 61.9188 16.1693 61.9404C18.174 63.2177 20.2131 63.8654 22.231 63.8654C25.5028 63.8652 27.6972 62.138 27.8894 61.9812C27.8973 61.9747 27.9019 61.9708 27.9028 61.97V61.9699C27.9129 61.9612 27.9396 61.9386 27.9822 61.9044C28.4558 61.5251 30.898 59.7224 34.5309 59.7224C34.5311 59.7224 34.5317 59.7224 34.5318 59.7224C36.814 59.7226 39.0979 60.4345 41.3223 61.8384C41.36 61.8622 41.3975 61.8862 41.4352 61.9103C41.5663 61.9945 41.6974 62.0759 41.8287 62.1547C43.7214 63.2901 45.6418 63.8654 47.5434 63.8654C47.5436 63.8654 47.5436 63.8654 47.5437 63.8654H47.5439C50.9411 63.8652 53.1767 62.0028 53.2153 61.9702C53.2155 61.9702 53.2155 61.9702 53.2155 61.97C53.2615 61.9305 53.707 61.5545 54.4841 61.121C55.6262 60.484 57.4848 59.7224 59.8436 59.7224C59.8444 59.7224 59.8442 59.7224 59.8442 59.7224C59.8442 59.7224 59.8442 59.7224 59.8444 59.7224C59.8444 59.7224 59.8444 59.7224 59.8445 59.7224H59.8447C62.0658 59.7224 64.289 60.3966 66.4573 61.7272C66.4575 61.7274 66.4576 61.7274 66.458 61.7276C66.4598 61.7288 66.4618 61.7301 66.4638 61.7313C66.5588 61.7897 66.654 61.8494 66.7488 61.9105C67.9257 62.6663 69.1233 63.1436 70.3083 63.3289C70.3118 63.3295 70.3148 63.33 70.3181 63.3305C72.2492 63.6294 74.1847 63.1682 76.0297 61.9778C76.0346 61.9746 76.0395 61.9716 76.0444 61.9684C76.0444 61.9683 76.0444 61.9683 76.0444 61.9683C76.3788 61.7521 76.8284 61.842 77.0494 62.1683C77.2706 62.495 77.1791 62.9352 76.8451 63.1514C75.1172 64.2707 73.3059 64.838 71.462 64.838C71.0029 64.838 70.5377 64.8017 70.0793 64.73C70.0755 64.7295 70.0715 64.7288 70.0675 64.7281C68.7257 64.5167 67.3838 63.9944 66.0774 63.1755C66.0359 63.1496 65.9944 63.1232 65.9529 63.0966C65.7614 62.9737 65.57 62.8565 65.3779 62.7452C63.544 61.6808 61.6856 61.1416 59.8447 61.1416C59.8445 61.1416 59.8445 61.1416 59.8445 61.1416H59.8442C59.844 61.1416 59.844 61.1416 59.844 61.1416C56.4339 61.1418 54.1944 63.018 54.1723 63.037C54.1717 63.0374 54.1713 63.0377 54.171 63.0381V63.0382C54.1706 63.0386 54.1704 63.0388 54.1701 63.0388C54.1701 63.039 54.1699 63.0391 54.1697 63.0391C54.1692 63.0397 54.1686 63.0402 54.1681 63.0407C54.1679 63.0407 54.1677 63.0409 54.1675 63.0411C54.1052 63.0941 53.7226 63.4121 53.0684 63.7925C51.9458 64.4454 50.0221 65.2839 47.5446 65.2839Z" fill="#B76E79"/>
<path d="M47.5446 65.2839C47.5445 65.2839 47.5446 65.2839 47.5443 65.2839C47.5445 65.2839 47.5445 65.2839 47.5446 65.2839ZM47.5446 65.2839C47.5443 65.2839 47.5443 65.2839 47.5443 65.2839H47.5441C47.5439 65.2839 47.5439 65.2839 47.5437 65.2839C45.3249 65.2839 43.1042 64.6112 40.9379 63.2833C40.9357 63.2819 40.9335 63.2805 40.9312 63.2793C40.8338 63.2197 40.7366 63.1585 40.6396 63.0962C38.6198 61.7991 36.5647 61.1413 34.5313 61.1413C31.1346 61.1414 28.8991 63.0031 28.8597 63.0365C28.8557 63.04 28.8485 63.046 28.8387 63.0544C28.5627 63.2849 26.0581 65.2842 22.2312 65.2842C19.9928 65.2842 17.7527 64.5998 15.5688 63.2489C15.4881 63.1991 15.4072 63.1482 15.3267 63.0964C15.3267 63.0964 15.3267 63.0964 15.3266 63.0962C15.3175 63.0906 15.3086 63.0849 15.2995 63.0789C15.2972 63.0773 15.2947 63.0757 15.2923 63.0744C13.2837 61.7916 11.2407 61.1413 9.21895 61.1411C9.21877 61.1411 9.21859 61.1411 9.21841 61.1411C8.0582 61.1411 6.91722 61.3536 5.82265 61.773C5.74306 61.8037 5.66364 61.8352 5.58459 61.8679C5.58241 61.8688 5.58042 61.8697 5.57843 61.8705C5.57843 61.8705 5.57824 61.8705 5.57806 61.8705C5.21091 62.0183 4.78628 61.8509 4.63126 61.4921C4.59192 61.4011 4.57324 61.3069 4.57324 61.2142C4.57324 60.9389 4.73751 60.6782 5.01328 60.5638C5.01328 60.5638 5.01564 60.5627 5.01745 60.562C5.01818 60.5617 5.01908 60.5613 5.01999 60.561C5.17392 60.4975 5.32858 60.4374 5.48414 60.3808C6.68949 59.9436 7.94325 59.7223 9.21804 59.7223C9.21823 59.7223 9.21823 59.7223 9.21859 59.7223H9.21877H9.21895C9.21895 59.7223 9.21913 59.7223 9.21931 59.7223C11.5245 59.7224 13.8317 60.4489 16.0779 61.8819C16.11 61.8991 16.1405 61.9188 16.1693 61.9404C18.174 63.2177 20.2131 63.8654 22.231 63.8654C25.5028 63.8652 27.6972 62.138 27.8894 61.9812C27.8973 61.9747 27.9019 61.9708 27.9028 61.97V61.9699C27.9129 61.9612 27.9396 61.9386 27.9822 61.9044C28.4558 61.5251 30.898 59.7224 34.5309 59.7224C34.5311 59.7224 34.5317 59.7224 34.5318 59.7224C36.814 59.7226 39.0979 60.4345 41.3223 61.8384C41.36 61.8622 41.3975 61.8862 41.4352 61.9103C41.5663 61.9945 41.6974 62.0759 41.8287 62.1547C43.7214 63.2901 45.6418 63.8654 47.5434 63.8654C47.5436 63.8654 47.5436 63.8654 47.5437 63.8654H47.5439C50.9411 63.8652 53.1767 62.0028 53.2153 61.9702C53.2155 61.9702 53.2155 61.9702 53.2155 61.97C53.2615 61.9305 53.707 61.5545 54.4841 61.121C55.6262 60.484 57.4848 59.7224 59.8436 59.7224C59.8444 59.7224 59.8442 59.7224 59.8442 59.7224C59.8442 59.7224 59.8442 59.7224 59.8444 59.7224C59.8444 59.7224 59.8444 59.7224 59.8445 59.7224H59.8447C62.0658 59.7224 64.289 60.3966 66.4573 61.7272C66.4575 61.7274 66.4576 61.7274 66.458 61.7276C66.4598 61.7288 66.4618 61.7301 66.4638 61.7313C66.5588 61.7897 66.654 61.8494 66.7488 61.9105C67.9257 62.6663 69.1233 63.1436 70.3083 63.3289C70.3118 63.3295 70.3148 63.33 70.3181 63.3305C72.2492 63.6294 74.1847 63.1682 76.0297 61.9778C76.0346 61.9746 76.0395 61.9716 76.0444 61.9684C76.0444 61.9683 76.0444 61.9683 76.0444 61.9683C76.3788 61.7521 76.8284 61.842 77.0494 62.1683C77.2706 62.495 77.1791 62.9352 76.8451 63.1514C75.1172 64.2707 73.3059 64.838 71.462 64.838C71.0029 64.838 70.5377 64.8017 70.0793 64.73C70.0755 64.7295 70.0715 64.7288 70.0675 64.7281C68.7257 64.5167 67.3838 63.9944 66.0774 63.1755C66.0359 63.1496 65.9944 63.1232 65.9529 63.0966C65.7614 62.9737 65.57 62.8565 65.3779 62.7452C63.544 61.6808 61.6856 61.1416 59.8447 61.1416C59.8445 61.1416 59.8445 61.1416 59.8445 61.1416H59.8442C59.844 61.1416 59.844 61.1416 59.844 61.1416C56.4339 61.1418 54.1944 63.018 54.1723 63.037C54.1717 63.0374 54.1713 63.0377 54.171 63.0381V63.0382C54.1706 63.0386 54.1704 63.0388 54.1701 63.0388C54.1701 63.039 54.1699 63.0391 54.1697 63.0391C54.1692 63.0397 54.1686 63.0402 54.1681 63.0407C54.1679 63.0407 54.1677 63.0409 54.1675 63.0411C54.1052 63.0941 53.7226 63.4121 53.0684 63.7925C51.9458 64.4454 50.0221 65.2839 47.5446 65.2839Z" stroke="#B76E79" stroke-width="0.8"/>
<path d="M76.7039 81H5.2956C2.92696 81 1 79.1151 1 76.7982C1 74.4814 2.92696 72.5965 5.2956 72.5965H76.7039C79.0725 72.5965 80.9995 74.4814 80.9995 76.7982C80.9995 79.1151 79.0725 81 76.7039 81ZM5.2956 74.0151C3.72672 74.0151 2.45048 75.2635 2.45048 76.798C2.45048 78.3325 3.7269 79.581 5.2956 79.581H76.7039C78.2727 79.581 79.549 78.3325 79.549 76.798C79.549 75.2635 78.2727 74.0151 76.7039 74.0151H5.2956Z" fill="#B76E79" stroke="#B76E79" stroke-width="0.8"/>
<path d="M62.4222 33.8514H53.4961C53.0956 33.8514 52.7709 33.5338 52.7709 33.142V17.4258C52.7709 17.034 53.0956 16.7164 53.4961 16.7164H62.4222C62.8227 16.7164 63.1475 17.034 63.1475 17.4258V33.142C63.1475 33.5338 62.8227 33.8514 62.4222 33.8514ZM54.2214 32.4326H61.697V18.1352H54.2214V32.4326Z" fill="#B76E79" stroke="#B76E79" stroke-width="0.8"/>
<path d="M60.2299 12.8963H55.6884C55.4531 12.8963 55.2324 12.7848 55.0964 12.5969C54.1054 11.2276 53.5816 9.6408 53.5816 8.00791C53.5816 5.27223 55.0707 2.6951 57.5648 1.11399C57.8048 0.962002 58.1136 0.962002 58.3538 1.11399C60.8481 2.69528 62.3372 5.2724 62.3372 8.00791C62.3372 9.63938 61.8132 11.2262 60.8222 12.5966C60.6859 12.7846 60.465 12.8963 60.2299 12.8963ZM56.0751 11.4775H59.8428C60.5265 10.4197 60.8864 9.22757 60.8864 8.00791C60.8864 5.90166 59.8005 3.90057 57.959 2.57166C56.1176 3.90057 55.0317 5.90148 55.0317 8.00791C55.0321 9.22846 55.3916 10.4208 56.0751 11.4775Z" fill="#B76E79" stroke="#B76E79" stroke-width="0.8"/>
<path d="M53.4963 25.1201C53.2086 25.1201 52.9362 24.9514 52.8227 24.6739C52.6741 24.3101 52.8548 23.8972 53.2269 23.7518L62.153 20.2594C62.5246 20.1143 62.9467 20.2906 63.0956 20.6547C63.2443 21.0184 63.0635 21.4313 62.6914 21.5767L53.7654 25.0692C53.6771 25.1038 53.5861 25.1201 53.4963 25.1201Z" fill="#B76E79" stroke="#B76E79" stroke-width="0.8"/>
<path d="M53.4963 30.3588C53.2086 30.3588 52.9362 30.1901 52.8227 29.9126C52.6741 29.5488 52.8548 29.1359 53.2269 28.9905L62.153 25.498C62.5246 25.353 62.9467 25.5293 63.0956 25.8934C63.2443 26.2571 63.0635 26.67 62.6914 26.8154L53.7654 30.3079C53.6771 30.3425 53.5861 30.3588 53.4963 30.3588Z" fill="#B76E79" stroke="#B76E79" stroke-width="0.8"/>
<path d="M46.3554 33.8514H37.4293C37.0288 33.8514 36.7041 33.5338 36.7041 33.142V17.4258C36.7041 17.034 37.0288 16.7164 37.4293 16.7164H46.3554C46.7559 16.7164 47.0807 17.034 47.0807 17.4258V33.142C47.0807 33.5338 46.7559 33.8514 46.3554 33.8514ZM38.1546 32.4326H45.6302V18.1352H38.1546V32.4326Z" fill="#B76E79" stroke="#B76E79" stroke-width="0.8"/>
<path d="M44.163 12.8963H39.6217C39.3866 12.8963 39.1659 12.7848 39.0299 12.5969C38.0385 11.2276 37.5146 9.6408 37.5146 8.00791C37.5146 5.2724 39.0037 2.6951 41.4978 1.11399C41.7378 0.962002 42.0466 0.962002 42.2868 1.11399C44.7811 2.69528 46.2702 5.2724 46.2702 8.00791C46.2702 9.63921 45.7462 11.226 44.7554 12.5966C44.6192 12.7844 44.3985 12.8963 44.163 12.8963ZM40.0085 11.4775H43.7761C44.46 10.4197 44.8197 9.22739 44.8197 8.00791C44.8197 5.90166 43.7339 3.90057 41.8923 2.57166C40.0509 3.90057 38.965 5.90166 38.965 8.00791C38.965 9.22863 39.3246 10.4208 40.0085 11.4775Z" fill="#B76E79" stroke="#B76E79" stroke-width="0.8"/>
<path d="M37.4296 25.1201C37.1416 25.1201 36.8693 24.9514 36.756 24.6739C36.6073 24.3101 36.7881 23.8972 37.1601 23.7518L46.0862 20.2594C46.4577 20.1143 46.88 20.2906 47.0288 20.6547C47.1775 21.0184 46.9967 21.4313 46.6247 21.5767L37.6986 25.0692C37.6103 25.1038 37.5191 25.1201 37.4296 25.1201Z" fill="#B76E79" stroke="#B76E79" stroke-width="0.8"/>
<path d="M37.4296 30.3588C37.1416 30.3588 36.8693 30.1901 36.756 29.9126C36.6073 29.5488 36.7881 29.1359 37.1601 28.9905L46.0862 25.498C46.4577 25.353 46.88 25.5293 47.0288 25.8934C47.1775 26.2571 46.9967 26.67 46.6247 26.8154L37.6986 30.3079C37.6103 30.3425 37.5191 30.3588 37.4296 30.3588Z" fill="#B76E79" stroke="#B76E79" stroke-width="0.8"/>
<path d="M30.2885 33.8514H21.3626C20.9621 33.8514 20.6374 33.5338 20.6374 33.142V17.4258C20.6374 17.034 20.9621 16.7164 21.3626 16.7164H30.2885C30.689 16.7164 31.0137 17.034 31.0137 17.4258V33.142C31.0137 33.5338 30.689 33.8514 30.2885 33.8514ZM22.0877 32.4326H29.5631V18.1352H22.0877V32.4326Z" fill="#B76E79" stroke="#B76E79" stroke-width="0.8"/>
<path d="M28.0963 12.8964H23.5548C23.3196 12.8964 23.0988 12.7848 22.963 12.597C21.9716 11.2278 21.4478 9.64087 21.4478 8.00797C21.4478 5.27247 22.9369 2.69517 25.4312 1.11406C25.6711 0.962068 25.98 0.961891 26.2201 1.11406C28.7143 2.69535 30.2034 5.27247 30.2034 8.00797C30.2034 9.63927 29.6796 11.2261 28.6886 12.5966C28.5524 12.7845 28.3316 12.8964 28.0963 12.8964ZM23.9415 11.4775H27.7092C28.3931 10.4198 28.7526 9.22746 28.7526 8.00797C28.7526 5.90172 27.6667 3.90082 25.8252 2.57173C23.9836 3.90064 22.8979 5.90172 22.8979 8.00797C22.8983 9.22852 23.2578 10.4209 23.9415 11.4775Z" fill="#B76E79" stroke="#B76E79" stroke-width="0.8"/>
<path d="M21.3628 25.1203C21.0748 25.1203 20.8025 24.9516 20.6892 24.674C20.5405 24.3103 20.7213 23.8974 21.0933 23.752L30.0192 20.2595C30.3913 20.1139 30.8132 20.2911 30.9619 20.6549C31.1105 21.0186 30.9298 21.4315 30.5577 21.5769L21.6318 25.0694C21.5435 25.104 21.4523 25.1203 21.3628 25.1203Z" fill="#B76E79" stroke="#B76E79" stroke-width="0.8"/>
<path d="M21.3628 30.3589C21.0748 30.3589 20.8025 30.1902 20.6892 29.9127C20.5405 29.5489 20.7213 29.136 21.0933 28.9906L30.0192 25.4982C30.3913 25.3527 30.8132 25.5296 30.9619 25.8935C31.1105 26.2572 30.9298 26.6701 30.5577 26.8155L21.6318 30.308C21.5435 30.3426 21.4523 30.3589 21.3628 30.3589Z" fill="#B76E79" stroke="#B76E79" stroke-width="0.8"/>
</svg>
