<svg width="24" height="24" viewBox="0 0 24 24" fill="none" xmlns="http://www.w3.org/2000/svg">
<path d="M20.6602 2.53125H3.3396C2.74319 2.53125 2.1712 2.75305 1.74947 3.14786C1.32775 3.54267 1.09082 4.07814 1.09082 4.63648V20.8514C1.09082 21.4098 1.32775 21.9453 1.74947 22.3401C2.1712 22.7349 2.74319 22.9567 3.3396 22.9567H20.6602C21.2566 22.9567 21.8286 22.7349 22.2503 22.3401C22.6721 21.9453 22.909 21.4098 22.909 20.8514V4.63648C22.909 4.07814 22.6721 3.54267 22.2503 3.14786C21.8286 2.75305 21.2566 2.53125 20.6602 2.53125ZM21.4098 20.8468C21.4098 21.0329 21.3308 21.2114 21.1903 21.343C21.0497 21.4746 20.859 21.5485 20.6602 21.5485H3.3396C3.1408 21.5485 2.95013 21.4746 2.80956 21.343C2.66898 21.2114 2.59001 21.0329 2.59001 20.8468V4.63648C2.59001 4.45037 2.66898 4.27188 2.80956 4.14027C2.95013 4.00867 3.1408 3.93474 3.3396 3.93474H20.6602C20.859 3.93474 21.0497 4.00867 21.1903 4.14027C21.3308 4.27188 21.4098 4.45037 21.4098 4.63648V20.8468Z" fill="#505565"/>
<path d="M18.047 1.74569V4.72108C18.047 4.9072 17.9681 5.08569 17.8275 5.21729C17.6869 5.34889 17.4962 5.42283 17.2974 5.42283C17.0986 5.42283 16.908 5.34889 16.7674 5.21729C16.6268 5.08569 16.5479 4.9072 16.5479 4.72108V1.74569C16.5479 1.55958 16.6268 1.38108 16.7674 1.24948C16.908 1.11788 17.0986 1.04395 17.2974 1.04395C17.4962 1.04395 17.6869 1.11788 17.8275 1.24948C17.9681 1.38108 18.047 1.55958 18.047 1.74569Z" fill="#505565"/>
<path d="M7.45231 1.74569V4.72108C7.45231 4.9072 7.37334 5.08569 7.23276 5.21729C7.09219 5.34889 6.90152 5.42283 6.70272 5.42283C6.50391 5.42283 6.31325 5.34889 6.17268 5.21729C6.0321 5.08569 5.95312 4.9072 5.95312 4.72108V1.74569C5.95312 1.55958 6.0321 1.38108 6.17268 1.24948C6.31325 1.11788 6.50391 1.04395 6.70272 1.04395C6.90152 1.04395 7.09219 1.11788 7.23276 1.24948C7.37334 1.38108 7.45231 1.55958 7.45231 1.74569Z" fill="#505565"/>
<path d="M22.909 7.78964C22.909 7.97575 22.83 8.15424 22.6894 8.28584C22.5489 8.41745 22.3582 8.49138 22.1594 8.49138H1.84041C1.64161 8.49138 1.45095 8.41745 1.31037 8.28584C1.1698 8.15424 1.09082 7.97575 1.09082 7.78964C1.09082 7.60352 1.1698 7.42503 1.31037 7.29343C1.45095 7.16182 1.64161 7.08789 1.84041 7.08789H22.1594C22.3582 7.08789 22.5489 7.16182 22.6894 7.29343C22.83 7.42503 22.909 7.60352 22.909 7.78964Z" fill="#505565"/>
<path d="M7.75212 12.4683C7.75212 12.6071 7.70815 12.7428 7.62579 12.8582C7.54342 12.9736 7.42635 13.0636 7.28938 13.1167C7.15241 13.1698 7.00169 13.1837 6.85629 13.1566C6.71088 13.1295 6.57731 13.0627 6.47248 12.9646C6.36765 12.8664 6.29626 12.7414 6.26733 12.6052C6.23841 12.4691 6.25325 12.328 6.30999 12.1998C6.36672 12.0716 6.4628 11.962 6.58607 11.8849C6.70934 11.8078 6.85427 11.7666 7.00252 11.7666C7.20133 11.7666 7.39199 11.8405 7.53257 11.9721C7.67314 12.1037 7.75212 12.2822 7.75212 12.4683Z" fill="#505565"/>
<path d="M12.7497 12.4683C12.7497 12.6071 12.7057 12.7428 12.6233 12.8582C12.541 12.9736 12.4239 13.0636 12.2869 13.1167C12.15 13.1698 11.9993 13.1837 11.8538 13.1566C11.7084 13.1295 11.5749 13.0627 11.47 12.9646C11.3652 12.8664 11.2938 12.7414 11.2649 12.6052C11.236 12.4691 11.2508 12.328 11.3075 12.1998C11.3643 12.0716 11.4604 11.962 11.5836 11.8849C11.7069 11.8078 11.8518 11.7666 12.0001 11.7666C12.1989 11.7666 12.3895 11.8405 12.5301 11.9721C12.6707 12.1037 12.7497 12.2822 12.7497 12.4683Z" fill="#505565"/>
<path d="M16.2476 12.4683C16.2476 12.3296 16.2915 12.1939 16.3739 12.0785C16.4563 11.9631 16.5733 11.8731 16.7103 11.82C16.8473 11.7669 16.998 11.753 17.1434 11.7801C17.2888 11.8072 17.4224 11.874 17.5272 11.9721C17.632 12.0703 17.7034 12.1953 17.7323 12.3314C17.7613 12.4676 17.7464 12.6087 17.6897 12.7369C17.6329 12.8651 17.5369 12.9747 17.4136 13.0518C17.2903 13.1289 17.1454 13.1701 16.9972 13.1701C16.7983 13.1701 16.6077 13.0962 16.4671 12.9646C16.3265 12.833 16.2476 12.6545 16.2476 12.4683Z" fill="#505565"/>
<path d="M7.75212 17.1471C7.75212 17.2858 7.70815 17.4215 7.62579 17.5369C7.54342 17.6523 7.42635 17.7423 7.28938 17.7954C7.15241 17.8485 7.00169 17.8624 6.85629 17.8353C6.71088 17.8082 6.57731 17.7414 6.47248 17.6433C6.36765 17.5451 6.29626 17.4201 6.26733 17.284C6.23841 17.1478 6.25325 17.0067 6.30999 16.8785C6.36672 16.7503 6.4628 16.6407 6.58607 16.5636C6.70934 16.4865 6.85427 16.4453 7.00252 16.4453C7.20133 16.4453 7.39199 16.5192 7.53257 16.6508C7.67314 16.7825 7.75212 16.9609 7.75212 17.1471Z" fill="#505565"/>
<path d="M12.7497 17.1471C12.7497 17.2858 12.7057 17.4215 12.6233 17.5369C12.541 17.6523 12.4239 17.7423 12.2869 17.7954C12.15 17.8485 11.9993 17.8624 11.8538 17.8353C11.7084 17.8082 11.5749 17.7414 11.47 17.6433C11.3652 17.5451 11.2938 17.4201 11.2649 17.284C11.236 17.1478 11.2508 17.0067 11.3075 16.8785C11.3643 16.7503 11.4604 16.6407 11.5836 16.5636C11.7069 16.4865 11.8518 16.4453 12.0001 16.4453C12.1989 16.4453 12.3895 16.5192 12.5301 16.6508C12.6707 16.7825 12.7497 16.9609 12.7497 17.1471Z" fill="#505565"/>
<path d="M17.7467 17.1471C17.7467 17.2858 17.7028 17.4215 17.6204 17.5369C17.538 17.6523 17.421 17.7423 17.284 17.7954C17.147 17.8485 16.9963 17.8624 16.8509 17.8353C16.7055 17.8082 16.5719 17.7414 16.4671 17.6433C16.3623 17.5451 16.2909 17.4201 16.262 17.284C16.233 17.1478 16.2479 17.0067 16.3046 16.8785C16.3614 16.7503 16.4574 16.6407 16.5807 16.5636C16.704 16.4865 16.8489 16.4453 16.9972 16.4453C17.196 16.4453 17.3866 16.5192 17.5272 16.6508C17.6678 16.7825 17.7467 16.9609 17.7467 17.1471Z" fill="#505565"/>
</svg>
