<svg width="342" height="188" viewBox="0 0 342 188" fill="none" xmlns="http://www.w3.org/2000/svg">
<g clip-path="url(#clip0)">
<path d="M296.878 185.874C296.911 185.776 300.08 175.95 294.471 167.183L293.899 167.551C299.328 176.038 296.264 185.564 296.233 185.659L296.878 185.874Z" fill="#E4E4E4"/>
<path d="M290.461 168.444C290.582 169.018 290.814 169.563 291.145 170.047C291.476 170.531 291.899 170.945 292.39 171.265C292.88 171.586 293.429 171.806 294.005 171.914C294.581 172.022 295.172 172.015 295.745 171.894C296.318 171.773 296.862 171.54 297.345 171.208C297.828 170.877 298.241 170.453 298.561 169.961C298.881 169.47 299.101 168.92 299.209 168.343C299.316 167.766 299.31 167.173 299.189 166.599C298.68 164.184 294.371 158.174 291.961 158.683C289.551 159.192 289.953 166.028 290.461 168.444Z" fill="#EADE7F"/>
<path d="M291.274 179.738C293.424 182.067 297.272 182.004 297.272 182.004C297.272 182.004 297.633 178.165 295.482 175.836C293.331 173.506 289.483 173.57 289.483 173.57C289.483 173.57 289.123 177.409 291.274 179.738Z" fill="#EADE7F"/>
<path d="M323.875 186.556C323.952 186.324 331.431 163.136 318.194 142.445L316.843 143.313C329.656 163.342 322.426 185.823 322.352 186.047L323.875 186.556Z" fill="#E4E4E4"/>
<path d="M308.729 145.421C309.306 148.157 310.944 150.552 313.282 152.078C315.621 153.605 318.468 154.138 321.199 153.561C323.93 152.984 326.32 151.344 327.844 149.001C329.368 146.658 329.902 143.805 329.326 141.068C328.127 135.369 317.958 121.184 312.27 122.386C306.582 123.588 307.53 139.721 308.729 145.421Z" fill="#EADE7F"/>
<path d="M310.647 172.077C315.724 177.574 324.804 177.425 324.804 177.425C324.804 177.425 325.656 168.364 320.579 162.867C315.503 157.371 306.422 157.52 306.422 157.52C306.422 157.52 305.571 166.581 310.647 172.077Z" fill="#EADE7F"/>
<path d="M197.296 184.809L192.333 182.715L188.928 157.785H143.59L139.9 182.613L135.46 184.838C135.247 184.944 135.077 185.12 134.976 185.335C134.876 185.551 134.85 185.794 134.905 186.026C134.96 186.257 135.091 186.464 135.277 186.611C135.463 186.759 135.694 186.84 135.931 186.84H196.887C197.13 186.84 197.366 186.755 197.554 186.601C197.743 186.446 197.872 186.231 197.92 185.992C197.968 185.753 197.932 185.505 197.819 185.289C197.705 185.073 197.52 184.904 197.296 184.809Z" fill="#E6E6E6"/>
<path d="M277.864 161.102H55.1515C53.983 161.1 52.8632 160.633 52.0379 159.804C51.2125 158.975 50.749 157.852 50.749 156.681V125.211H282.267V156.681C282.267 157.852 281.803 158.975 280.978 159.804C280.152 160.633 279.033 161.1 277.864 161.102Z" fill="#CCCCCC"/>
<path d="M282.499 140.084H50.5457V5.43C50.5473 4.01688 51.1082 2.66211 52.1054 1.66291C53.1026 0.663697 54.4546 0.101651 55.8648 0.100067H277.18C278.59 0.10165 279.942 0.663693 280.94 1.6629C281.937 2.66211 282.498 4.01688 282.499 5.43V140.084Z" fill="#3F3D56"/>
<path d="M268.647 9.87286H64.3983C63.3112 9.87422 62.269 10.3078 61.5007 11.0784C60.7323 11.849 60.3005 12.8937 60.3 13.983V126.201C60.3005 127.29 60.7323 128.335 61.5007 129.106C62.269 129.876 63.3112 130.31 64.3983 130.311H268.647C269.734 130.309 270.776 129.876 271.544 129.105C272.312 128.335 272.744 127.29 272.745 126.201V13.983C272.744 12.8938 272.312 11.8495 271.544 11.079C270.776 10.3085 269.734 9.87478 268.647 9.87286Z" fill="white"/>
<path d="M100.603 9.87286V130.311H64.3983C63.3112 130.31 62.269 129.876 61.5007 129.106C60.7323 128.335 60.3005 127.29 60.3 126.201V13.983C60.3005 12.8937 60.7323 11.849 61.5007 11.0784C62.269 10.3078 63.3112 9.87422 64.3983 9.87286H100.603Z" fill="#F0F0F0"/>
<path d="M70.7351 70.7148C70.3276 70.6218 69.9046 70.6195 69.4961 70.7081C69.0876 70.7966 68.7034 70.9738 68.3707 71.2272C68.0379 71.4806 67.7646 71.8041 67.5701 72.1748C67.3755 72.5455 67.2645 72.9544 67.2447 73.3727L57.4995 76.2517L61.5338 79.6644L70.1695 76.4073C70.8731 76.394 71.5473 76.1225 72.0645 75.6444C72.5817 75.1662 72.9059 74.5145 72.9756 73.8128C73.0453 73.1111 72.8558 72.4082 72.4428 71.8372C72.0299 71.2662 71.4223 70.8668 70.7351 70.7148H70.7351Z" fill="#FFB6B6"/>
<path d="M31.3598 92.3817C30.3963 92.3805 29.4647 92.0364 28.7309 91.4108C27.9971 90.7852 27.5089 89.9188 27.3534 88.9661C27.1978 88.0133 27.385 87.0362 27.8816 86.2089C28.3782 85.3816 29.1518 84.7579 30.0646 84.4491L49.8126 77.7692L65.217 72.1459L67.1073 78.7763L53.5085 87.7555L32.2097 92.292C31.9303 92.3516 31.6454 92.3816 31.3598 92.3817Z" fill="#B76E79"/>
<path d="M43.7177 183.725H46.4903L47.8096 173.008H43.717L43.7177 183.725Z" fill="#FFB6B6"/>
<path d="M43.0105 182.818L48.471 182.817H48.4712C49.3941 182.817 50.2792 183.185 50.9318 183.839C51.5844 184.493 51.951 185.38 51.9511 186.304V186.418L43.0107 186.418L43.0105 182.818Z" fill="#2F2E41"/>
<path d="M22.4583 183.725H25.2309L26.5502 173.008H22.458L22.4583 183.725Z" fill="#FFB6B6"/>
<path d="M21.7512 182.818L27.2117 182.817H27.212C28.1348 182.817 29.0199 183.185 29.6725 183.839C30.3251 184.493 30.6917 185.38 30.6918 186.304V186.418L21.7514 186.418L21.7512 182.818Z" fill="#2F2E41"/>
<path d="M22.4308 119.444C21.1619 122.406 20.8842 125.699 21.6392 128.833L20.8477 181.993H26.9372L30.3465 152.758L36.0006 133.495L42.107 148.452V179.626L47.9873 179.274L51.1536 146.186L47.535 122.616L22.4308 119.444Z" fill="#2F2E41"/>
<path d="M44.7079 78.0835L39.5061 76.4971L38.1491 73.7775H31.4675L29.7811 76.7237C29.7811 76.7237 22.9961 79.2166 22.77 91.228C22.5438 103.239 21.6392 122.503 21.6392 122.503L48.3924 126.325L44.7079 78.0835Z" fill="#B76E79"/>
<path d="M52.3887 124.174C52.5642 123.793 52.6544 123.379 52.6529 122.961C52.6514 122.542 52.5583 122.128 52.3801 121.749C52.2019 121.371 51.943 121.035 51.6216 120.768C51.3002 120.5 50.9242 120.306 50.5199 120.2L49.7357 110.049L45.5657 113.294L46.9496 122.436C46.8164 123.128 46.9412 123.845 47.3004 124.452C47.6597 125.058 48.2284 125.511 48.8988 125.725C49.5693 125.94 50.2948 125.9 50.9381 125.614C51.5813 125.328 52.0974 124.815 52.3887 124.174H52.3887Z" fill="#FFB6B6"/>
<path d="M45.2735 118.942L39.3359 103.746V81.9264C39.3359 80.8871 39.7324 79.8871 40.4442 79.1312C41.1559 78.3753 42.1292 77.9206 43.1646 77.8603C44.2 77.8 45.2192 78.1386 46.0136 78.8068C46.808 79.4749 47.3174 80.4222 47.4376 81.4544L49.8524 102.2L52.1388 118.467L45.2735 118.942Z" fill="#B76E79"/>
<path d="M36.0902 70.2493C39.7779 70.2493 42.7674 67.2537 42.7674 63.5584C42.7674 59.8631 39.7779 56.8675 36.0902 56.8675C32.4025 56.8675 29.4131 59.8631 29.4131 63.5584C29.4131 67.2537 32.4025 70.2493 36.0902 70.2493Z" fill="#FFB9B9"/>
<path d="M36.5271 61.5248C36.2147 61.9266 35.7865 62.2894 35.7177 62.7941C35.6667 63.1681 35.8298 63.5377 35.8453 63.9149C35.8466 64.2955 35.7029 64.6622 35.4437 64.9404C35.1845 65.2186 34.8292 65.3872 34.4501 65.412C34.1861 65.0791 33.8047 64.8605 33.3845 64.8014C33.1753 64.7776 32.9641 64.8217 32.7819 64.9272C32.5997 65.0327 32.456 65.194 32.3721 65.3874C32.1738 65.9487 32.6328 66.5189 32.7066 67.1097C32.7164 67.5467 32.6458 67.9818 32.4984 68.3933C32.3292 69.0711 32.284 69.7883 31.9872 70.4206C31.6904 71.0529 31.0304 71.5968 30.3471 71.457C29.7726 71.3395 29.3839 70.7819 29.2232 70.2168C29.0625 69.6518 29.0697 69.0526 28.9534 68.4767C28.5756 66.6054 26.9682 65.219 26.3375 63.4174C25.5295 61.1089 26.5002 58.4684 28.1733 56.6869C28.8497 55.9063 29.7327 55.3334 30.7203 55.0344C31.7629 54.7684 32.8652 54.9596 33.9351 54.8459C35.0792 54.7242 36.1546 54.2583 37.2665 53.9622C38.3785 53.6661 39.6205 53.5546 40.6312 54.1055C41.3361 54.4897 41.8467 55.1521 42.5035 55.6141C43.2565 56.1397 44.1694 56.3846 45.0837 56.3061L43.9918 56.7844C44.4098 57.1687 44.9145 57.4457 45.4627 57.5916C45.0165 57.946 44.4646 58.1402 43.8952 58.143C44.014 58.3574 44.1753 58.5452 44.3693 58.6947C44.5633 58.8441 44.7858 58.9522 45.0231 59.0121C44.194 59.4021 43.3138 59.8017 42.4022 59.7137C41.9556 59.6706 41.5288 59.5116 41.0877 59.4297C40.1474 59.2552 39.1818 59.4361 38.2427 59.6166C37.7495 59.7114 37.1443 59.8024 36.8952 60.2775C36.6878 60.6732 36.8464 61.1141 36.5271 61.5248Z" fill="#2F2E41"/>
<path d="M341.481 187.1H109.035C108.917 187.103 108.802 187.066 108.707 186.997C108.613 186.927 108.544 186.827 108.511 186.714C108.491 186.637 108.489 186.556 108.504 186.478C108.52 186.4 108.554 186.327 108.602 186.263C108.651 186.2 108.713 186.149 108.784 186.114C108.856 186.079 108.934 186.06 109.014 186.06H341.439C341.563 186.056 341.684 186.094 341.784 186.168C341.884 186.241 341.956 186.347 341.988 186.467C342.005 186.543 342.005 186.622 341.987 186.698C341.969 186.774 341.935 186.845 341.886 186.906C341.838 186.966 341.776 187.015 341.706 187.049C341.636 187.083 341.559 187.1 341.481 187.1Z" fill="#CCCCCC"/>
<path d="M78.2375 187.1H0.540396C0.42283 187.103 0.30774 187.066 0.213059 186.997C0.118378 186.927 0.0494228 186.827 0.0169377 186.714C-0.00334309 186.637 -0.00570365 186.556 0.0100355 186.478C0.0257746 186.4 0.0591927 186.327 0.107723 186.263C0.156253 186.2 0.218598 186.149 0.289962 186.114C0.361326 186.079 0.439806 186.06 0.519362 186.06H78.195C78.319 186.056 78.4408 186.094 78.5406 186.168C78.6404 186.241 78.7123 186.347 78.7446 186.467C78.7615 186.543 78.761 186.622 78.7434 186.698C78.7257 186.774 78.6913 186.845 78.6426 186.906C78.594 186.966 78.5323 187.015 78.4622 187.049C78.3921 187.083 78.3153 187.1 78.2375 187.1Z" fill="#CCCCCC"/>
<path opacity="0.5" d="M176.629 51.6758H132.096C123.26 51.6758 116.096 58.8392 116.096 67.6758V75.75C116.096 84.5866 123.26 91.75 132.096 91.75H176.629C185.466 91.75 192.629 84.5866 192.629 75.75V67.6758C192.629 58.8392 185.466 51.6758 176.629 51.6758Z" fill="#F9B9B8"/>
<path d="M229.212 49.9283H198.516V51.6259H229.212V49.9283Z" fill="#505565"/>
<path d="M243.189 53.0624H198.516V54.7601H243.189V53.0624Z" fill="#505565"/>
<path d="M229.212 60.6359H198.516V62.3335H229.212V60.6359Z" fill="#505565"/>
<path d="M229.212 73.1725H198.516V74.8702H229.212V73.1725Z" fill="#505565"/>
<path d="M243.189 63.7709H198.516V65.4686H243.189V63.7709Z" fill="#505565"/>
<path d="M243.189 66.9042H198.516V68.6019H243.189V66.9042Z" fill="#505565"/>
<path d="M243.189 70.0384H198.516V71.7361H243.189V70.0384Z" fill="#505565"/>
<path d="M212.363 80.7469H200.736C199.51 80.7469 198.516 81.7408 198.516 82.9669C198.516 84.193 199.51 85.1869 200.736 85.1869H212.363C213.589 85.1869 214.583 84.193 214.583 82.9669C214.583 81.7408 213.589 80.7469 212.363 80.7469Z" fill="#B76E79"/>
<path d="M173.339 47.5211H128.806C119.97 47.5211 112.806 54.6846 112.806 63.5211V71.5954C112.806 80.4319 119.97 87.5954 128.806 87.5954H173.339C182.176 87.5954 189.339 80.4319 189.339 71.5954V63.5211C189.339 54.6846 182.176 47.5211 173.339 47.5211Z" fill="#F9B9B8"/>
<path d="M152.802 77.3955C157.585 77.3955 161.463 73.512 161.463 68.7214C161.463 63.9309 157.585 60.0473 152.802 60.0473C148.019 60.0473 144.141 63.9309 144.141 68.7214C144.141 73.512 148.019 77.3955 152.802 77.3955Z" fill="#B76E79"/>
<path d="M156.675 65.4159L149.513 72.5738" stroke="white" stroke-width="1.2" stroke-linecap="round"/>
<path d="M156.675 72.5738L149.513 65.4159" stroke="white" stroke-width="1.2" stroke-linecap="round"/>
<path d="M7.86705 174.498C7.6255 174.077 7.50083 173.599 7.50591 173.114C7.50591 171.864 8.279 170.85 9.23652 170.85C10.194 170.85 10.9671 171.864 10.9671 173.114C10.9722 173.599 10.8475 174.077 10.606 174.498C10.8428 174.921 10.9671 175.398 10.9671 175.882C10.9671 176.367 10.8428 176.843 10.606 177.266C10.8428 177.689 10.9671 178.166 10.9671 178.65C10.9671 179.135 10.8428 179.612 10.606 180.034C10.8428 180.457 10.9671 180.934 10.9671 181.419C10.9671 181.903 10.8428 182.38 10.606 182.803C10.8474 183.224 10.9721 183.701 10.9671 184.187C10.9671 185.437 10.194 186.452 9.23652 186.452C8.279 186.452 7.50591 185.437 7.50591 184.187C7.50099 183.701 7.62565 183.224 7.86705 182.803C7.63026 182.38 7.50592 181.903 7.50592 181.419C7.50592 180.934 7.63026 180.457 7.86705 180.034C7.63026 179.612 7.50592 179.135 7.50592 178.65C7.50592 178.166 7.63026 177.689 7.86705 177.266C7.63026 176.843 7.50592 176.367 7.50592 175.882C7.50592 175.398 7.63026 174.921 7.86705 174.498Z" fill="#B3B4B9"/>
<path d="M9.23667 169.844C8.28088 169.844 7.50606 168.83 7.50606 167.579C7.50606 166.328 8.28088 165.314 9.23667 165.314C10.1925 165.314 10.9673 166.328 10.9673 167.579C10.9673 168.83 10.1925 169.844 9.23667 169.844Z" fill="#3F3D56"/>
<path d="M15.7173 148.637C15.9536 148.336 16.1687 148.019 16.3612 147.689L11.8132 146.942L16.7323 146.978C17.2037 145.952 17.4609 144.841 17.4881 143.712C17.5152 142.584 17.3118 141.462 16.8902 140.414L10.2913 143.836L16.3777 139.362C15.8093 138.374 15.043 137.514 14.1269 136.835C13.2107 136.156 12.1643 135.674 11.053 135.418C9.94178 135.161 8.78958 135.137 7.66844 135.346C6.5473 135.555 5.48132 135.992 4.53711 136.632C3.59291 137.271 2.79078 138.098 2.18085 139.061C1.57092 140.024 1.16632 141.102 0.992311 142.229C0.818302 143.355 0.878635 144.505 1.16954 145.607C1.46045 146.709 1.97567 147.74 2.68301 148.634C2.31469 149.102 1.99775 149.609 1.73764 150.145L7.64072 153.217L1.34556 151.106C0.903687 152.412 0.794474 153.808 1.0278 155.166C1.26112 156.525 1.82962 157.804 2.68191 158.888C1.71942 160.111 1.12054 161.579 0.95376 163.125C0.786978 164.672 1.05903 166.234 1.73879 167.633C2.41855 169.032 3.47858 170.212 4.79767 171.037C6.11676 171.862 7.64165 172.3 9.19795 172.3C10.7542 172.3 12.2791 171.862 13.5982 171.037C14.9173 170.212 15.9773 169.032 16.6571 167.633C17.3369 166.234 17.6089 164.672 17.4421 163.125C17.2753 161.579 16.6765 160.111 15.714 158.888C16.863 157.427 17.4876 155.623 17.4876 153.765C17.4876 151.907 16.863 150.102 15.714 148.641L15.7173 148.637Z" fill="#F9B9B8"/>
<path opacity="0.1" d="M0.908333 153.76C0.905523 155.619 1.53047 157.424 2.68202 158.884C1.71953 160.106 1.12066 161.574 0.953875 163.121C0.78709 164.667 1.05914 166.229 1.7389 167.628C2.41866 169.027 3.4787 170.207 4.79778 171.033C6.11687 171.858 7.64176 172.296 9.19806 172.296C10.7544 172.296 12.2792 171.858 13.5983 171.033C14.9174 170.207 15.9775 169.027 16.6572 167.628C17.337 166.229 17.609 164.667 17.4422 163.121C17.2755 161.574 16.6766 160.106 15.7141 158.884C16.8307 157.473 0.908333 152.83 0.908333 153.76Z" fill="black"/>
<path d="M257.634 165.327C275.657 165.327 290.267 150.725 290.267 132.714C290.267 114.702 275.657 100.1 257.634 100.1C239.611 100.1 225 114.702 225 132.714C225 150.725 239.611 165.327 257.634 165.327Z" fill="#B76E79"/>
<path d="M275 149.78C275 152.602 266.959 150.021 258.339 150.021C249.719 150.021 241 152.495 241 149.674C241 148.065 243.779 145.827 247.766 144.202C250.769 142.977 254.458 142.1 258.163 142.1C261.973 142.1 265.706 143.05 268.683 144.353C272.441 145.997 275 148.206 275 149.78Z" fill="#444053"/>
<path opacity="0.05" d="M240.511 109.692C240.511 109.692 230.68 115.972 230.761 125.797C230.841 135.621 240.511 109.692 240.511 109.692Z" fill="black"/>
<path d="M246.031 128.437C246.652 128.402 249.575 128.183 251.432 127.124C251.73 126.949 252.066 126.85 252.412 126.836C253.002 126.819 253.681 127.065 253.247 128.444C252.542 130.699 248.452 133.236 245.913 133.095C243.471 132.96 240.575 131.977 238.663 128.52C238.479 128.187 238.389 127.811 238.401 127.432C238.424 126.734 238.677 125.86 239.988 126.835C241.759 128.151 245.118 128.4 245.792 128.437C245.872 128.442 245.952 128.442 246.031 128.437Z" fill="#444053"/>
<path d="M269.515 128.437C270.136 128.402 273.059 128.183 274.915 127.124C275.213 126.949 275.55 126.85 275.896 126.836C276.486 126.819 277.165 127.065 276.73 128.444C276.026 130.699 271.935 133.236 269.396 133.095C266.955 132.96 264.059 131.977 262.146 128.52C261.963 128.187 261.873 127.811 261.885 127.432C261.907 126.734 262.161 125.86 263.472 126.835C265.242 128.151 268.602 128.4 269.276 128.437C269.355 128.442 269.435 128.442 269.515 128.437Z" fill="#444053"/>
</g>
<defs>
<clipPath id="clip0">
<rect width="342" height="187" fill="white" transform="translate(0 0.100067)"/>
</clipPath>
</defs>
</svg>
