<svg width="22" height="22" viewBox="0 0 22 22" fill="none" xmlns="http://www.w3.org/2000/svg">
<path d="M7 15.75H9H19C19.234 15.75 19.438 15.587 19.488 15.358L21.488 6.358C21.52 6.21 21.485 6.055 21.389 5.937C21.295 5.819 21.151 5.75 21 5.75H19.5V1.25C19.5 0.974 19.276 0.75 19 0.75H13C12.724 0.75 12.5 0.974 12.5 1.25V2.75H7C6.724 2.75 6.5 2.974 6.5 3.25V5.75H4.924L4.493 3.168C4.453 2.927 4.244 2.75 4 2.75H1C0.724 2.75 0.5 2.974 0.5 3.25C0.5 3.526 0.724 3.75 1 3.75H3.576L4.006 6.324C4.006 6.33 4.007 6.335 4.009 6.341L5.496 15.266C4.895 15.723 4.5 16.438 4.5 17.25C4.5 17.828 4.703 18.365 5.056 18.799C5.022 18.944 5 19.094 5 19.25C5 20.353 5.897 21.25 7 21.25C7.929 21.25 8.705 20.61 8.929 19.75H16.071C16.295 20.61 17.071 21.25 18 21.25C19.103 21.25 20 20.353 20 19.25C20 18.147 19.103 17.25 18 17.25C17.071 17.25 16.295 17.89 16.071 18.75H8.929C8.705 17.89 7.929 17.25 7 17.25C6.461 17.25 5.972 17.467 5.612 17.815C5.54 17.639 5.5 17.449 5.5 17.25C5.5 16.423 6.173 15.75 7 15.75ZM13.5 1.75H18.5V5.75H13.5V3.25V1.75ZM7.5 3.75H12.5V5.75H7.5V3.75ZM6.424 14.75L5.09 6.75H7H13H19H20.377L18.599 14.75H9H7H6.424ZM18 18.25C18.552 18.25 19 18.699 19 19.25C19 19.801 18.552 20.25 18 20.25C17.448 20.25 17 19.801 17 19.25C17 18.699 17.448 18.25 18 18.25ZM7 18.25C7.552 18.25 8 18.699 8 19.25C8 19.801 7.552 20.25 7 20.25C6.448 20.25 6 19.801 6 19.25C6 19.121 6.029 18.999 6.074 18.885C6.079 18.874 6.082 18.862 6.086 18.85C6.24 18.498 6.591 18.25 7 18.25Z" fill="#505565"/>
</svg>
