<svg width="234" height="191" viewBox="0 0 234 191" fill="none" xmlns="http://www.w3.org/2000/svg">
<path opacity="0.1" d="M57.3677 191C46.2968 191 37.2387 188.726 30.1936 184.179C23.1484 179.631 17.3613 173.82 12.8323 166.746C7.29677 158.661 3.77419 149.819 2.26451 140.218C0.754837 130.618 0 122.786 0 116.722C0 91.963 6.29032 69.4775 18.871 49.2659C31.4516 29.0543 51.0774 12.6323 77.7484 0L84.5419 13.6429C68.9419 20.2117 55.3548 30.5701 43.7806 44.7183C32.7097 58.8664 27.1742 73.2672 27.1742 87.9207C27.1742 93.9841 27.929 99.2897 29.4387 103.837C37.4903 97.2685 46.8 93.9841 57.3677 93.9841C70.4516 93.9841 81.7742 98.2791 91.3355 106.869C100.897 115.459 105.677 127.333 105.677 142.492C105.677 156.64 100.897 168.262 91.3355 177.357C81.7742 186.452 70.4516 191 57.3677 191ZM185.69 191C174.619 191 165.561 188.726 158.516 184.179C151.471 179.631 145.684 173.82 141.155 166.746C135.619 158.661 132.097 149.819 130.587 140.218C129.077 130.618 128.323 122.786 128.323 116.722C128.323 91.963 134.613 69.4775 147.194 49.2659C159.774 29.0543 179.4 12.6323 206.071 0L212.865 13.6429C197.265 20.2117 183.677 30.5701 172.103 44.7183C161.032 58.8664 155.497 73.2672 155.497 87.9207C155.497 93.9841 156.252 99.2897 157.761 103.837C165.813 97.2685 175.123 93.9841 185.69 93.9841C198.774 93.9841 210.097 98.2791 219.658 106.869C229.219 115.459 234 127.333 234 142.492C234 156.64 229.219 168.262 219.658 177.357C210.097 186.452 198.774 191 185.69 191Z" fill="#B76E79"/>
</svg>
