<svg width="60" height="60" viewBox="0 0 60 60" fill="none" xmlns="http://www.w3.org/2000/svg">
<path d="M30 6.10898C29.8344 6.10898 29.7 6.24338 29.7 6.40898V9.72656H28.507L28.5 8.82421C28.4988 8.65981 28.3644 8.52656 28.2 8.52656H28.1977C28.0321 8.52776 27.8988 8.6633 27.9 8.8289L27.9094 10.0289V11.509H27.6C27.4344 11.509 27.3 11.6434 27.3 11.809C27.3 11.9746 27.4344 12.109 27.6 12.109H27.791L26.6543 15.709H26.1V14.809C26.1 14.6434 25.9656 14.509 25.8 14.509C25.6344 14.509 25.5 14.6434 25.5 14.809V16.009V17.209V19.309C25.5 19.321 25.5058 19.3304 25.507 19.3418L24.3141 23.1187C24.3111 23.1289 24.3141 23.1396 24.3117 23.1504C24.3075 23.1702 24.3 23.188 24.3 23.209V24.409V25.009V40.309H11.1V39.7266H11.4164C11.582 39.7266 11.7164 39.5922 11.7164 39.4266C11.7164 39.261 11.582 39.1266 11.4164 39.1266H11.025L9.42421 34.3266H9.60937C9.77497 34.3266 9.90937 34.1922 9.90937 34.0266C9.90937 33.861 9.77497 33.7266 9.60937 33.7266H9.0082H8.7082V32.2266V31.0266C8.7082 30.861 8.5738 30.7266 8.4082 30.7266C8.2426 30.7266 8.1082 30.861 8.1082 31.0266V31.9266H5.1082V31.0266C5.1082 30.861 4.9738 30.7266 4.8082 30.7266C4.6426 30.7266 4.5082 30.861 4.5082 31.0266V32.2266V33.7266H4.20234H3.61288C3.44728 33.7266 3.31288 33.861 3.31288 34.0266C3.31288 34.1922 3.44728 34.3266 3.61288 34.3266H3.78749L2.18437 39.1266H1.80585C1.64025 39.1266 1.50585 39.261 1.50585 39.4266C1.50585 39.5922 1.64025 39.7266 1.80585 39.7266H2.09999V41.209V41.809V57.109H1.19999C1.03439 57.109 0.899994 57.2434 0.899994 57.409C0.899994 57.5746 1.03439 57.709 1.19999 57.709H2.39999H10.8H24.6H35.4H49.2H57.6H58.8C58.9656 57.709 59.1 57.5746 59.1 57.409C59.1 57.2434 58.9662 57.109 58.8 57.109H57.9V41.809V41.209V39.7266H58.2C58.3656 39.7266 58.5 39.5922 58.5 39.4266C58.5 39.261 58.3656 39.1266 58.2 39.1266H57.8215L56.2207 34.3266H56.4059C56.5715 34.3266 56.7059 34.1922 56.7059 34.0266C56.7059 33.861 56.5715 33.7266 56.4059 33.7266H55.8047H55.5047V32.2266V31.0266C55.5047 30.861 55.3703 30.7266 55.2047 30.7266C55.0391 30.7266 54.9047 30.861 54.9047 31.0266V31.9266H51.9047V31.0266C51.9047 30.861 51.7703 30.7266 51.6047 30.7266C51.4391 30.7266 51.3047 30.861 51.3047 31.0266V32.2266V33.7266H50.9988H50.4082C50.2426 33.7266 50.1082 33.861 50.1082 34.0266C50.1082 34.1922 50.2426 34.3266 50.4082 34.3266H50.5828L48.9855 39.109H48.6012C48.4356 39.109 48.3012 39.2434 48.3012 39.409C48.3012 39.5746 48.4356 39.709 48.6012 39.709H48.9012V40.309H35.7012V25.009V24.409V23.209C35.7012 23.188 35.6936 23.1702 35.6894 23.1504C35.6876 23.1396 35.6907 23.1289 35.6871 23.1187L34.4941 19.3418C34.4953 19.3304 34.5 19.3204 34.5 19.309V17.209V16.009V14.809C34.5 14.6434 34.3656 14.509 34.2 14.509C34.0344 14.509 33.9 14.6434 33.9 14.809V15.709H33.3469L32.2102 12.109H32.4C32.5656 12.109 32.7 11.9746 32.7 11.809C32.7 11.6434 32.5656 11.509 32.4 11.509H32.1094V10.0266V10.0254V10.0242L32.1 8.82421C32.0988 8.65981 31.9644 8.52656 31.8 8.52656H31.7977C31.6321 8.52776 31.4988 8.6633 31.5 8.8289L31.507 9.72656H30.3V6.40898C30.3 6.24338 30.1656 6.10898 30 6.10898ZM28.5094 10.3266H29.1V11.509H28.5094V10.3266ZM29.7 10.3266H30.3V11.509H29.7V10.3266ZM30.9 10.3266H31.5094V11.509H30.9V10.3266ZM28.4144 12.1266H31.5867L34.991 22.909H33.3012V21.409C33.3012 21.2434 33.1668 21.109 33.0012 21.109H31.9605L30.2836 16.507C30.241 16.3894 30.1283 16.3102 30.0035 16.309H30.0012C29.877 16.309 29.7655 16.3854 29.7211 16.5012L27.9445 21.109H27.0012C26.8356 21.109 26.7012 21.2434 26.7012 21.409V22.909H25.0113L28.4144 12.1266ZM26.1 16.309H26.4656L26.1 17.4633V17.209V16.309ZM33.5355 16.309H33.9V17.209V17.4633L33.5355 16.309ZM29.993 17.4621L31.4684 21.5109C31.469 21.5127 31.4707 21.5126 31.4719 21.5144C31.4917 21.566 31.5259 21.6074 31.5691 21.641C31.5787 21.6482 31.5871 21.6549 31.5973 21.6609C31.6429 21.6885 31.6926 21.7078 31.7496 21.7078H32.7V23.2055V23.2078C32.7 23.3734 32.8344 23.5078 33 23.5078H33.6H34.8H35.1V23.5629C35.0058 23.5293 34.9056 23.5078 34.8 23.5078C34.569 23.5078 34.3596 23.5982 34.2 23.7422C34.0404 23.5982 33.831 23.5078 33.6 23.5078C33.1038 23.5078 32.7 23.9116 32.7 24.4078V25.0078C32.7 25.1734 32.8344 25.3078 33 25.3078C33.1656 25.3078 33.3 25.1734 33.3 25.0078V24.4078C33.3 24.2428 33.435 24.1078 33.6 24.1078C33.765 24.1078 33.9 24.2428 33.9 24.4078V25.0078C33.9 25.1734 34.0344 25.3078 34.2 25.3078C34.3656 25.3078 34.5 25.1734 34.5 25.0078V24.4078C34.5 24.2428 34.635 24.1078 34.8 24.1078C34.965 24.1078 35.1 24.2428 35.1 24.4078V25.0078V28.3078H31.8H28.2H24.9V25.0078V24.4078C24.9 24.2428 25.035 24.1078 25.2 24.1078C25.365 24.1078 25.5 24.2428 25.5 24.4078V25.0078C25.5 25.1734 25.6344 25.3078 25.8 25.3078C25.9656 25.3078 26.1 25.1734 26.1 25.0078V24.4078C26.1 24.2428 26.235 24.1078 26.4 24.1078C26.565 24.1078 26.7 24.2428 26.7 24.4078V25.0078C26.7 25.1734 26.8344 25.3078 27 25.3078C27.1656 25.3078 27.3 25.1734 27.3 25.0078V24.4078C27.3 23.9156 26.9024 23.5154 26.4117 23.509H27C27.1656 23.509 27.3 23.3746 27.3 23.209V21.709H28.1508C28.1526 21.709 28.1537 21.7078 28.1555 21.7078C28.1705 21.7072 28.1844 21.7014 28.1988 21.6984C28.3032 21.681 28.3901 21.6151 28.4285 21.5191C28.4291 21.5179 28.4291 21.5168 28.4297 21.5156L29.993 17.4621ZM24.9 23.509H25.1941C25.0908 23.5098 24.9923 23.5299 24.9 23.5629V23.509ZM25.2117 23.509H26.3883C26.162 23.512 25.9568 23.6007 25.8 23.7422C25.6432 23.6007 25.438 23.512 25.2117 23.509ZM30 23.509C28.842 23.509 27.9 24.451 27.9 25.609C27.9 26.767 28.8426 27.709 30 27.709C31.158 27.709 32.1 26.767 32.1 25.609C32.1 24.451 31.158 23.509 30 23.509ZM30 24.109C30.8274 24.109 31.5 24.7816 31.5 25.609C31.5 26.4364 30.8274 27.109 30 27.109C29.1726 27.109 28.5 26.4364 28.5 25.609C28.5 24.7816 29.1726 24.109 30 24.109ZM30 24.709C29.8344 24.709 29.7 24.8434 29.7 25.009V25.609C29.7006 25.7746 29.8344 25.909 30 25.909C30.0054 25.909 30.011 25.9066 30.0164 25.9066C30.0218 25.9066 30.0262 25.909 30.0316 25.909H30.9C31.0656 25.909 31.2 25.7746 31.2 25.609C31.2 25.4434 31.0656 25.309 30.9 25.309H30.3V25.009C30.3 24.8434 30.1656 24.709 30 24.709ZM24.9 28.909H27.9V29.809C27.9 29.9224 27.965 30.0263 28.0664 30.0773L29.1 30.5941V31.609C29.1 31.7746 29.2344 31.909 29.4 31.909H29.7V33.109C29.5344 33.109 29.4 33.2434 29.4 33.409C29.4 33.5746 29.5344 33.709 29.7 33.709H30.3C30.4656 33.709 30.6 33.5746 30.6 33.409C30.6 33.2434 30.4656 33.109 30.3 33.109V31.909H30.6C30.7656 31.909 30.9 31.7746 30.9 31.609V30.5941L31.9348 30.0773C32.0362 30.0263 32.1 29.9224 32.1 29.809V28.909H35.1V36.109H32.7V34.909C32.7 34.2472 32.1618 33.709 31.5 33.709C30.8382 33.709 30.3 34.2472 30.3 34.909V36.109H29.7V34.909C29.7 34.2472 29.1618 33.709 28.5 33.709C27.8382 33.709 27.3 34.2472 27.3 34.909V36.109H24.9V28.909ZM28.5 28.9101H31.5V29.6238L30.4664 30.1406C30.365 30.1916 30.3 30.2956 30.3 30.409V31.309H29.7V30.409C29.7 30.2956 29.6362 30.1916 29.5348 30.1406L28.5 29.6238V28.9101ZM5.10937 32.5266H5.69999V33.709H5.10937V32.5266ZM6.29999 32.5266H6.89999V33.709H6.29999V32.5266ZM7.49999 32.5266H8.10937V33.709H7.49999V32.5266ZM51.9047 32.5266H52.4965V33.709H51.9047V32.5266ZM53.0965 32.5266H53.6965V33.709H53.0965V32.5266ZM54.2953 32.5266H54.9047V33.709H54.2953V32.5266ZM28.5 34.309C28.8312 34.309 29.1 34.5778 29.1 34.909V36.409V37.609V39.109H27.9V34.909C27.9 34.5778 28.1688 34.309 28.5 34.309ZM31.5 34.309C31.8312 34.309 32.1 34.5778 32.1 34.909V39.109H30.9V37.609V36.409V34.909C30.9 34.5778 31.1688 34.309 31.5 34.309ZM4.42031 34.3266H8.79374L10.3934 39.1266H9.73124H8.53476L6.82265 37.398C6.76625 37.341 6.68974 37.309 6.61054 37.309H6.60937C6.52957 37.309 6.45306 37.3405 6.39726 37.3969L4.67578 39.1266H3.73124H2.81718L4.42031 34.3266ZM51.2156 34.3266H55.5891L57.1887 39.1266H56.4012H55.3301L53.618 37.398C53.5616 37.341 53.4851 37.309 53.4059 37.309H53.4047C53.3249 37.309 53.2484 37.3405 53.1926 37.3969L51.4723 39.1266H50.4891C50.4609 39.1182 50.4318 39.109 50.4012 39.109H49.6195L51.2156 34.3266ZM24.9 36.709H27.3V39.109H27C26.8344 39.109 26.7 39.2434 26.7 39.409V40.609C26.7 40.7746 26.8344 40.909 27 40.909H33C33.1656 40.909 33.3 40.7746 33.3 40.609V39.409C33.3 39.2434 33.1656 39.109 33 39.109H32.7V36.709H35.1V40.609V43.609V48.109H32.7V43.609C32.7 42.7816 32.0274 42.109 31.2 42.109C30.7074 42.109 30.2736 42.3512 30 42.7184C29.7264 42.3512 29.2926 42.109 28.8 42.109C27.9726 42.109 27.3 42.7816 27.3 43.609V48.109H24.9V43.609V40.609V36.709ZM29.7 36.709H30.3V37.309H29.7V36.709ZM29.7 37.909H30.3V39.109H29.7V37.909ZM6.6082 38.0355L8.19609 39.6375C8.25249 39.6945 8.32958 39.7266 8.40937 39.7266H9.73124H10.5V40.3641C10.4058 40.3305 10.3056 40.309 10.2 40.309C9.96899 40.309 9.75959 40.3994 9.59999 40.5434C9.44039 40.3994 9.23099 40.309 8.99999 40.309C8.50379 40.309 8.09999 40.7128 8.09999 41.209V41.809C8.09999 41.9746 8.23439 42.109 8.39999 42.109C8.56559 42.109 8.69999 41.9746 8.69999 41.809V41.209C8.69999 41.044 8.83499 40.909 8.99999 40.909C9.16499 40.909 9.29999 41.044 9.29999 41.209V41.809C9.29999 41.9746 9.43439 42.109 9.59999 42.109C9.76559 42.109 9.89999 41.9746 9.89999 41.809V41.209C9.89999 41.044 10.035 40.909 10.2 40.909C10.365 40.909 10.5 41.044 10.5 41.209V41.809V43.609V57.109H9.26953V55.0031C9.26953 53.5145 8.05813 52.3031 6.56953 52.3031C5.08093 52.3031 3.86953 53.5145 3.86953 55.0031V57.109H2.69999V41.809V41.209C2.69999 41.044 2.83499 40.909 2.99999 40.909C3.16499 40.909 3.29999 41.044 3.29999 41.209V41.809C3.29999 41.9746 3.43439 42.109 3.59999 42.109C3.76559 42.109 3.89999 41.9746 3.89999 41.809V41.209C3.89999 41.044 4.03499 40.909 4.19999 40.909C4.36499 40.909 4.49999 41.044 4.49999 41.209V41.809C4.49999 41.9746 4.63439 42.109 4.79999 42.109C4.96559 42.109 5.09999 41.9746 5.09999 41.809V41.209C5.09999 40.7128 4.69619 40.309 4.19999 40.309C3.96899 40.309 3.75959 40.3994 3.59999 40.5434C3.44039 40.3994 3.23099 40.309 2.99999 40.309C2.89439 40.309 2.79419 40.3305 2.69999 40.3641V39.7266H3.73124H4.79999C4.87979 39.7266 4.95748 39.6951 5.01328 39.6387L6.6082 38.0355ZM53.4035 38.0355L54.9914 39.6375C55.0478 39.6945 55.1249 39.7266 55.2047 39.7266H56.4H57.3V40.3641C57.2058 40.3305 57.1056 40.309 57 40.309C56.769 40.309 56.5596 40.3994 56.4 40.5434C56.2404 40.3994 56.031 40.309 55.8 40.309C55.3038 40.309 54.9 40.7128 54.9 41.209V41.809C54.9 41.9746 55.0344 42.109 55.2 42.109C55.3656 42.109 55.5 41.9746 55.5 41.809V41.209C55.5 41.044 55.635 40.909 55.8 40.909C55.965 40.909 56.1 41.044 56.1 41.209V41.809C56.1 41.9746 56.2344 42.109 56.4 42.109C56.5656 42.109 56.7 41.9746 56.7 41.809V41.209C56.7 41.044 56.835 40.909 57 40.909C57.165 40.909 57.3 41.044 57.3 41.209V41.809V57.109H56.0695V55.0031C56.0695 53.5145 54.8581 52.3031 53.3695 52.3031C51.8809 52.3031 50.6695 53.5145 50.6695 55.0031V57.109H49.5012V43.609V41.809V41.209C49.5012 41.044 49.6362 40.909 49.8012 40.909C49.9662 40.909 50.1012 41.044 50.1012 41.209V41.809C50.1012 41.9746 50.2356 42.109 50.4012 42.109C50.5668 42.109 50.7012 41.9746 50.7012 41.809V41.209C50.7012 41.044 50.8362 40.909 51.0012 40.909C51.1662 40.909 51.3012 41.044 51.3012 41.209V41.809C51.3012 41.9746 51.4356 42.109 51.6012 42.109C51.7668 42.109 51.9012 41.9746 51.9012 41.809V41.209C51.9012 40.7128 51.4974 40.309 51.0012 40.309C50.7702 40.309 50.5608 40.3994 50.4012 40.5434C50.2416 40.3994 50.0322 40.309 49.8012 40.309C49.6956 40.309 49.5954 40.3305 49.5012 40.3641V39.7266H51.5965C51.6763 39.7266 51.7528 39.6951 51.8086 39.6387L53.4035 38.0355ZM6.59999 39.109C6.10379 39.109 5.69999 39.5128 5.69999 40.009V41.809C5.69999 41.9746 5.83439 42.109 5.99999 42.109H7.19999C7.36559 42.109 7.49999 41.9746 7.49999 41.809V40.009C7.49999 39.5128 7.09619 39.109 6.59999 39.109ZM53.4 39.109C52.9038 39.109 52.5 39.5128 52.5 40.009V41.809C52.5 41.9746 52.6344 42.109 52.8 42.109H54C54.1656 42.109 54.3 41.9746 54.3 41.809V40.009C54.3 39.5128 53.8962 39.109 53.4 39.109ZM6.59999 39.709C6.76499 39.709 6.89999 39.844 6.89999 40.009V41.509H6.29999V40.009C6.29999 39.844 6.43499 39.709 6.59999 39.709ZM27.3 39.709H27.6H27.9V40.309H27.3V39.709ZM28.5 39.709H29.1V40.309H28.5V39.709ZM29.7 39.709H30.3V40.309H29.7V39.709ZM30.9 39.709H31.5V40.309H30.9V39.709ZM32.1 39.709H32.4H32.7V40.309H32.1V39.709ZM53.4 39.709C53.565 39.709 53.7 39.844 53.7 40.009V41.509H53.1V40.009C53.1 39.844 53.235 39.709 53.4 39.709ZM11.1 40.909H24.3V43.309H11.1V41.809V41.209V40.909ZM35.7 40.909H48.9V41.209V41.809V43.309H35.7V40.909ZM28.8 42.709C29.2962 42.709 29.7 43.1128 29.7 43.609V48.109H27.9V43.609C27.9 43.1128 28.3038 42.709 28.8 42.709ZM31.2 42.709C31.6962 42.709 32.1 43.1128 32.1 43.609V48.109H30.3V43.609C30.3 43.1128 30.7038 42.709 31.2 42.709ZM6.59999 43.9031C5.36819 43.9031 4.33881 44.7362 4.01601 45.866C3.99681 45.9002 3.98505 45.9389 3.98085 45.9797C3.93285 46.1807 3.90117 46.3871 3.90117 46.6031V50.8031C3.90057 50.9681 4.03439 51.1031 4.19999 51.1031H8.99999C9.16559 51.1031 9.29999 50.9687 9.29999 50.8031V46.6031C9.29999 46.3853 9.26771 46.1754 9.21913 45.9726C9.21433 45.9342 9.20432 45.8996 9.18632 45.8672C8.86412 44.7368 7.83239 43.9031 6.59999 43.9031ZM53.4012 43.9031C52.1694 43.9031 51.1388 44.7362 50.816 45.866C50.7968 45.9002 50.7862 45.9389 50.782 45.9797C50.734 46.1807 50.7012 46.3871 50.7012 46.6031V50.8031C50.7012 50.9687 50.8356 51.1031 51.0012 51.1031H55.8012C55.9668 51.1031 56.1012 50.9687 56.1012 50.8031V46.6031C56.1012 46.3853 56.0689 46.1766 56.0203 45.9738C56.0149 45.9348 56.0037 45.8996 55.9863 45.8672C55.6641 44.7368 54.6336 43.9031 53.4012 43.9031ZM11.1 43.909H24.3V48.709H23.7V46.159C23.7 45.58 23.229 45.109 22.65 45.109C22.356 45.109 22.0908 45.2316 21.9 45.4266C21.7092 45.231 21.444 45.109 21.15 45.109C20.571 45.109 20.1 45.58 20.1 46.159V48.709H19.5V46.159C19.5 45.58 19.029 45.109 18.45 45.109C18.156 45.109 17.8908 45.2316 17.7 45.4266C17.5092 45.231 17.244 45.109 16.95 45.109C16.371 45.109 15.9 45.58 15.9 46.159V48.709H15.3V46.159C15.3 45.58 14.829 45.109 14.25 45.109C13.956 45.109 13.6908 45.2316 13.5 45.4266C13.3092 45.231 13.044 45.109 12.75 45.109C12.171 45.109 11.7 45.58 11.7 46.159V48.709H11.1V43.909ZM35.7 43.909H48.9V48.709H48.3V46.159C48.3 45.58 47.829 45.109 47.25 45.109C46.956 45.109 46.6908 45.2316 46.5 45.4266C46.3092 45.231 46.044 45.109 45.75 45.109C45.171 45.109 44.7 45.58 44.7 46.159V48.709H44.1V46.159C44.1 45.58 43.629 45.109 43.05 45.109C42.756 45.109 42.4908 45.2316 42.3 45.4266C42.1092 45.231 41.844 45.109 41.55 45.109C40.971 45.109 40.5 45.58 40.5 46.159V48.709H39.9V46.159C39.9 45.58 39.429 45.109 38.85 45.109C38.556 45.109 38.2908 45.2316 38.1 45.4266C37.9092 45.231 37.644 45.109 37.35 45.109C36.771 45.109 36.3 45.58 36.3 46.159V48.709H35.7V43.909ZM6.59999 44.5031C7.43699 44.5031 8.15654 44.9986 8.49374 45.709H4.70742C5.04462 44.998 5.76299 44.5031 6.59999 44.5031ZM53.4 44.5031C54.237 44.5031 54.9565 44.9986 55.2937 45.709H51.5074C51.8446 44.998 52.563 44.5031 53.4 44.5031ZM12.75 45.709C12.9978 45.709 13.2 45.9112 13.2 46.159V48.709H12.3V46.159C12.3 45.9112 12.5022 45.709 12.75 45.709ZM14.25 45.709C14.4978 45.709 14.7 45.9112 14.7 46.159V48.709H13.8V46.159C13.8 45.9112 14.0022 45.709 14.25 45.709ZM16.95 45.709C17.1978 45.709 17.4 45.9112 17.4 46.159V48.709H16.5V46.159C16.5 45.9112 16.7022 45.709 16.95 45.709ZM18.45 45.709C18.6978 45.709 18.9 45.9112 18.9 46.159V48.709H18V46.159C18 45.9112 18.2022 45.709 18.45 45.709ZM21.15 45.709C21.3978 45.709 21.6 45.9112 21.6 46.159V48.709H20.7V46.159C20.7 45.9112 20.9022 45.709 21.15 45.709ZM22.65 45.709C22.8978 45.709 23.1 45.9112 23.1 46.159V48.709H22.2V46.159C22.2 45.9112 22.4022 45.709 22.65 45.709ZM37.35 45.709C37.5978 45.709 37.8 45.9112 37.8 46.159V48.709H36.9V46.159C36.9 45.9112 37.1022 45.709 37.35 45.709ZM38.85 45.709C39.0978 45.709 39.3 45.9112 39.3 46.159V48.709H38.4V46.159C38.4 45.9112 38.6022 45.709 38.85 45.709ZM41.55 45.709C41.7978 45.709 42 45.9112 42 46.159V48.709H41.1V46.159C41.1 45.9112 41.3022 45.709 41.55 45.709ZM43.05 45.709C43.2978 45.709 43.5 45.9112 43.5 46.159V48.709H42.6V46.159C42.6 45.9112 42.8022 45.709 43.05 45.709ZM45.75 45.709C45.9978 45.709 46.2 45.9112 46.2 46.159V48.709H45.3V46.159C45.3 45.9112 45.5022 45.709 45.75 45.709ZM47.25 45.709C47.4978 45.709 47.7 45.9112 47.7 46.159V48.709H46.8V46.159C46.8 45.9112 47.0022 45.709 47.25 45.709ZM4.53046 46.309H5.09999V46.909H4.49999V46.6031C4.49999 46.5023 4.51666 46.4056 4.53046 46.309ZM5.69999 46.309H6.29999V46.909H5.69999V46.309ZM6.89999 46.309H7.49999V46.909H6.89999V46.309ZM8.09999 46.309H8.6707C8.6851 46.4056 8.69999 46.5023 8.69999 46.6031V46.909H8.09999V46.309ZM51.3305 46.309H51.9V46.909H51.3V46.6031C51.3 46.5023 51.3167 46.4056 51.3305 46.309ZM52.5 46.309H53.1V46.909H52.5V46.309ZM53.7 46.309H54.3V46.909H53.7V46.309ZM54.9 46.309H55.4707C55.4845 46.4056 55.5 46.5029 55.5 46.6031V46.909H54.9V46.309ZM4.49999 47.509H5.09999V50.5031H4.49999V47.509ZM5.69999 47.509H6.29999V50.5031H5.69999V47.509ZM6.89999 47.509H7.49999V50.5031H6.89999V47.509ZM8.09999 47.509H8.69999V50.5031H8.09999V47.509ZM51.3 47.509H51.9V50.5031H51.3V47.509ZM52.5 47.509H53.1V50.5031H52.5V47.509ZM53.7 47.509H54.3V50.5031H53.7V47.509ZM54.9 47.509H55.5V50.5031H54.9V47.509ZM24.9012 48.709H27.6H30H32.4H35.1V57.109H33.2695V53.2031C33.2695 51.3839 31.7887 49.9031 29.9695 49.9031C28.1503 49.9031 26.6695 51.3839 26.6695 53.2031V57.109H24.9012V48.709ZM11.1 49.309H12H13.5H15H16.2H17.7H19.2H20.4H21.9H23.4H24.3V57.109H23.7V54.7055C23.7 53.7131 22.8924 52.9055 21.9 52.9055C20.9076 52.9055 20.1 53.7131 20.1 54.7055V57.109H19.5V54.7055C19.5 53.7131 18.6924 52.9055 17.7 52.9055C16.7076 52.9055 15.9 53.7131 15.9 54.7055V57.109H15.3V54.7055C15.3 53.7131 14.4924 52.9055 13.5 52.9055C12.5076 52.9055 11.7 53.7131 11.7 54.7055V57.109H11.1V49.309ZM35.7 49.309H36.6H38.1H39.6H40.8H42.3H43.8H45H46.5H48H48.9V57.109H48.3V54.7055C48.3 53.7131 47.4924 52.9055 46.5 52.9055C45.5076 52.9055 44.7 53.7131 44.7 54.7055V57.109H44.1V54.7055C44.1 53.7131 43.2924 52.9055 42.3 52.9055C41.3076 52.9055 40.5 53.7131 40.5 54.7055V57.109H39.9V54.7055C39.9 53.7131 39.0924 52.9055 38.1 52.9055C37.1076 52.9055 36.3 53.7131 36.3 54.7055V57.109H35.7V49.309ZM12 49.9031C11.8344 49.9031 11.7 50.0375 11.7 50.2031V51.7031C11.7 51.8687 11.8344 52.0031 12 52.0031H13.5H15C15.1656 52.0031 15.3 51.8687 15.3 51.7031V50.2031C15.3 50.0375 15.1656 49.9031 15 49.9031H13.5H12ZM16.2 49.9031C16.0344 49.9031 15.9 50.0375 15.9 50.2031V51.7031C15.9 51.8687 16.0344 52.0031 16.2 52.0031H17.7H19.2C19.3656 52.0031 19.5 51.8687 19.5 51.7031V50.2031C19.5 50.0375 19.3656 49.9031 19.2 49.9031H17.7H16.2ZM20.4 49.9031C20.2344 49.9031 20.1 50.0375 20.1 50.2031V51.7031C20.1 51.8687 20.2344 52.0031 20.4 52.0031H21.9H23.4C23.5656 52.0031 23.7 51.8687 23.7 51.7031V50.2031C23.7 50.0375 23.5656 49.9031 23.4 49.9031H21.9H20.4ZM36.6 49.9031C36.4344 49.9031 36.3 50.0375 36.3 50.2031V51.7031C36.3 51.8687 36.4344 52.0031 36.6 52.0031H38.1H39.6C39.7656 52.0031 39.9 51.8687 39.9 51.7031V50.2031C39.9 50.0375 39.7656 49.9031 39.6 49.9031H38.1H36.6ZM40.8 49.9031C40.6344 49.9031 40.5 50.0375 40.5 50.2031V51.7031C40.5 51.8687 40.6344 52.0031 40.8 52.0031H42.3H43.8C43.9656 52.0031 44.1 51.8687 44.1 51.7031V50.2031C44.1 50.0375 43.9656 49.9031 43.8 49.9031H42.3H40.8ZM45 49.9031C44.8344 49.9031 44.7 50.0375 44.7 50.2031V51.7031C44.7 51.8687 44.8344 52.0031 45 52.0031H46.5H48C48.1656 52.0031 48.3 51.8687 48.3 51.7031V50.2031C48.3 50.0375 48.1656 49.9031 48 49.9031H46.5H45ZM12.3 50.5031H13.2V51.4031H12.3V50.5031ZM13.8 50.5031H14.7V51.4031H13.8V50.5031ZM16.5 50.5031H17.4V51.4031H16.5V50.5031ZM18 50.5031H18.9V51.4031H18V50.5031ZM20.7 50.5031H21.6V51.4031H20.7V50.5031ZM22.2 50.5031H23.1V51.4031H22.2V50.5031ZM29.9695 50.5031C31.4581 50.5031 32.6695 51.7145 32.6695 53.2031V57.1031H27.2695V53.2031C27.2695 51.7145 28.4809 50.5031 29.9695 50.5031ZM36.9 50.5031H37.8V51.4031H36.9V50.5031ZM38.4 50.5031H39.3V51.4031H38.4V50.5031ZM41.1 50.5031H42V51.4031H41.1V50.5031ZM42.6 50.5031H43.5V51.4031H42.6V50.5031ZM45.3 50.5031H46.2V51.4031H45.3V50.5031ZM46.8 50.5031H47.7V51.4031H46.8V50.5031ZM6.56953 52.9031C7.72753 52.9031 8.66953 53.8451 8.66953 55.0031V57.1031H4.46953V55.0031C4.46953 53.8451 5.41153 52.9031 6.56953 52.9031ZM53.3695 52.9031C54.5275 52.9031 55.4695 53.8451 55.4695 55.0031V57.1031H51.2695V55.0031C51.2695 53.8451 52.2115 52.9031 53.3695 52.9031ZM13.5 53.5055C14.1618 53.5055 14.7 54.0437 14.7 54.7055V57.109H12.3V54.7055C12.3 54.0437 12.8382 53.5055 13.5 53.5055ZM17.7 53.5055C18.3618 53.5055 18.9 54.0437 18.9 54.7055V57.109H16.5V54.7055C16.5 54.0437 17.0382 53.5055 17.7 53.5055ZM21.9 53.5055C22.5618 53.5055 23.1 54.0437 23.1 54.7055V57.109H20.7V54.7055C20.7 54.0437 21.2382 53.5055 21.9 53.5055ZM38.1 53.5055C38.7618 53.5055 39.3 54.0437 39.3 54.7055V57.109H36.9V54.7055C36.9 54.0437 37.4382 53.5055 38.1 53.5055ZM42.3 53.5055C42.9618 53.5055 43.5 54.0437 43.5 54.7055V57.109H41.1V54.7055C41.1 54.0437 41.6382 53.5055 42.3 53.5055ZM46.5 53.5055C47.1618 53.5055 47.7 54.0437 47.7 54.7055V57.109H45.3V54.7055C45.3 54.0437 45.8382 53.5055 46.5 53.5055Z" fill="#505565"/>
</svg>
