<svg width="200" height="101" viewBox="0 0 200 101" fill="none" xmlns="http://www.w3.org/2000/svg">
<g clip-path="url(#clip0_473_37650)">
<g opacity="0.1">
<path opacity="0.1" d="M95.2427 104.316C93.6941 104.316 92.4386 102.692 92.4386 100.689C92.4386 98.6862 93.6941 97.0625 95.2427 97.0625C96.7914 97.0625 98.0469 98.6862 98.0469 100.689C98.0469 102.692 96.7914 104.316 95.2427 104.316Z" fill="#3F3D56"/>
<path opacity="0.1" d="M69.0076 51.9641C69.0027 54.9411 70.016 57.8325 71.8832 60.1693C70.3243 62.1267 69.3546 64.4779 69.0847 66.9541C68.8149 69.4303 69.256 71.9315 70.3574 74.1717C71.4588 76.412 73.1762 78.3008 75.3132 79.6224C77.4502 80.9439 79.9206 81.6447 82.4418 81.6447C84.963 81.6447 87.4333 80.9439 89.5703 79.6224C91.7073 78.3008 93.4247 76.412 94.5262 74.1717C95.6276 71.9315 96.0686 69.4303 95.7988 66.9541C95.529 64.4779 94.5592 62.1267 93.0004 60.1693C94.8016 57.9105 69.0076 50.4745 69.0076 51.9641Z" fill="black"/>
</g>
<g opacity="0.1">
<path opacity="0.1" d="M62.5046 95.6428C61.3465 95.6428 60.4077 94.4299 60.4077 92.9337C60.4077 91.4375 61.3465 90.2246 62.5046 90.2246C63.6627 90.2246 64.6016 91.4375 64.6016 92.9337C64.6016 94.4299 63.6627 95.6428 62.5046 95.6428Z" fill="#3F3D56"/>
<path opacity="0.1" d="M60.8496 81.3403C60.558 80.8366 60.4075 80.2653 60.4134 79.6852C60.4134 78.1882 61.3522 76.9736 62.5079 76.9736C63.6635 76.9736 64.6048 78.1907 64.6048 79.6852C64.6111 80.2657 64.4597 80.8373 64.1662 81.3403C64.4537 81.8462 64.6047 82.4166 64.6047 82.9967C64.6047 83.5768 64.4537 84.1472 64.1662 84.6531C64.4537 85.1589 64.6047 85.7293 64.6047 86.3094C64.6047 86.8896 64.4537 87.4599 64.1662 87.9658C64.4597 88.4688 64.6111 89.0404 64.6048 89.6209C64.6048 91.1179 63.666 92.3325 62.5079 92.3325C61.3498 92.3325 60.4134 91.1155 60.4134 89.6209C60.4075 89.0408 60.558 88.4695 60.8496 87.9658C60.5643 87.4592 60.4146 86.8891 60.4146 86.3094C60.4146 85.7297 60.5643 85.1596 60.8496 84.6531C60.5643 84.1465 60.4146 83.5764 60.4146 82.9967C60.4146 82.417 60.5643 81.8469 60.8496 81.3403Z" fill="#3F3D56"/>
<path opacity="0.1" d="M62.5046 79.0823C61.3465 79.0823 60.4077 77.8693 60.4077 76.3732C60.4077 74.877 61.3465 73.6641 62.5046 73.6641C63.6627 73.6641 64.6016 74.877 64.6016 76.3732C64.6016 77.8693 63.6627 79.0823 62.5046 79.0823Z" fill="#3F3D56"/>
<path opacity="0.1" d="M62.5046 75.7688C61.3465 75.7688 60.4077 74.5559 60.4077 73.0597C60.4077 71.5635 61.3465 70.3506 62.5046 70.3506C63.6627 70.3506 64.6016 71.5635 64.6016 73.0597C64.6016 74.5559 63.6627 75.7688 62.5046 75.7688Z" fill="#3F3D56"/>
<path opacity="0.1" d="M70.3509 50.3916C70.6386 50.0326 70.8997 49.6535 71.132 49.2573L65.6248 48.364L71.5805 48.4078C72.1518 47.1795 72.4635 45.849 72.4966 44.4976C72.5296 43.1463 72.2833 41.8024 71.7727 40.5483L63.7817 44.6448L71.1517 39.2899C70.4625 38.1089 69.5342 37.081 68.4248 36.2702C67.3154 35.4595 66.0488 34.8833 64.7039 34.5777C63.3591 34.2721 61.9649 34.2436 60.6084 34.494C59.2519 34.7443 57.9622 35.2682 56.8198 36.033C55.6774 36.7977 54.7069 37.7868 53.9687 38.9386C53.2306 40.0903 52.7407 41.38 52.5297 42.7272C52.3187 44.0743 52.391 45.4499 52.7422 46.7682C53.0934 48.0865 53.7159 49.3191 54.5709 50.3891C54.125 50.95 53.7409 51.5563 53.4251 52.1976L60.571 55.8658L52.9495 53.3392C52.4142 54.902 52.2819 56.5721 52.5646 58.1981C52.8473 59.8242 53.536 61.355 54.5685 62.6519C53.402 64.1142 52.6759 65.8712 52.4731 67.7221C52.2703 69.573 52.5991 71.4428 53.4218 73.1178C54.2445 74.7927 55.5278 76.205 57.1251 77.1932C58.7223 78.1813 60.5689 78.7054 62.4535 78.7054C64.3382 78.7054 66.1847 78.1813 67.782 77.1932C69.3792 76.205 70.6626 74.7927 71.4853 73.1178C72.3079 71.4428 72.6367 69.573 72.4339 67.7221C72.2311 65.8712 71.505 64.1142 70.3386 62.6519C71.7307 60.904 72.4875 58.7445 72.4875 56.5205C72.4875 54.2965 71.7307 52.1371 70.3386 50.3891L70.3509 50.3916Z" fill="#F9B9B8"/>
<path opacity="0.1" d="M52.4222 56.5229C52.4188 58.7474 53.1759 60.9079 54.5708 62.6543C53.4044 64.1166 52.6783 65.8736 52.4755 67.7245C52.2727 69.5754 52.6015 71.4452 53.4242 73.1202C54.2469 74.7951 55.5302 76.2074 57.1275 77.1956C58.7247 78.1837 60.5713 78.7078 62.4559 78.7078C64.3406 78.7078 66.1871 78.1837 67.7844 77.1956C69.3816 76.2074 70.665 74.7951 71.4877 73.1202C72.3104 71.4452 72.6391 69.5754 72.4363 67.7245C72.2336 65.8736 71.5074 64.1166 70.341 62.6543C71.6913 60.9675 52.4222 55.4106 52.4222 56.5229Z" fill="black"/>
</g>
<g opacity="0.2">
<path opacity="0.1" d="M27.5254 94.5786C25.9768 94.5786 24.7213 92.9549 24.7213 90.9519C24.7213 88.9489 25.9768 87.3252 27.5254 87.3252C29.0741 87.3252 30.3296 88.9489 30.3296 90.9519C30.3296 92.9549 29.0741 94.5786 27.5254 94.5786Z" fill="#3F3D56"/>
<path opacity="0.1" d="M29.7439 75.435C30.1351 74.7603 30.3375 73.995 30.3303 73.2176C30.3303 71.2143 29.0737 69.5908 27.5238 69.5908C25.9738 69.5908 24.7196 71.2143 24.7196 73.2176C24.7125 73.995 24.9149 74.7603 25.3061 75.435C24.9217 76.1119 24.7197 76.875 24.7197 77.6512C24.7197 78.4273 24.9217 79.1904 25.3061 79.8674C24.9217 80.5443 24.7197 81.3074 24.7197 82.0836C24.7197 82.8597 24.9217 83.6229 25.3061 84.2998C24.9142 84.9741 24.7118 85.7396 24.7196 86.5172C24.7196 88.518 25.9763 90.1439 27.5238 90.1439C29.0712 90.1439 30.3303 88.518 30.3303 86.5172C30.3382 85.7396 30.1358 84.9741 29.7439 84.2998C30.1283 83.6229 30.3302 82.8597 30.3302 82.0836C30.3302 81.3074 30.1283 80.5443 29.7439 79.8674C30.1283 79.1904 30.3302 78.4273 30.3302 77.6512C30.3302 76.875 30.1283 76.1119 29.7439 75.435Z" fill="#3F3D56"/>
<path opacity="0.1" d="M27.5254 72.4165C25.9768 72.4165 24.7213 70.7928 24.7213 68.7898C24.7213 66.7868 25.9768 65.1631 27.5254 65.1631C29.0741 65.1631 30.3296 66.7868 30.3296 68.7898C30.3296 70.7928 29.0741 72.4165 27.5254 72.4165Z" fill="#3F3D56"/>
<path opacity="0.1" d="M27.5254 67.9839C25.9768 67.9839 24.7213 66.3602 24.7213 64.3572C24.7213 62.3542 25.9768 60.7305 27.5254 60.7305C29.0741 60.7305 30.3296 62.3542 30.3296 64.3572C30.3296 66.3602 29.0741 67.9839 27.5254 67.9839Z" fill="#3F3D56"/>
<path opacity="0.4" d="M17.0275 34.0218C16.6432 33.5406 16.2941 33.0331 15.9827 32.5029L23.3504 31.3078L15.3815 31.3662C14.6186 29.7223 14.2032 27.9418 14.1609 26.1338C14.1185 24.3258 14.45 22.5283 15.1351 20.8512L25.8268 26.3302L15.9704 19.1692C16.8868 17.578 18.1264 16.1912 19.6115 15.096C21.0966 14.0008 22.795 13.2209 24.5999 12.8054C26.4048 12.3899 28.2772 12.3477 30.0994 12.6814C31.9217 13.0152 33.6543 13.7177 35.1884 14.7448C36.7225 15.7719 38.025 17.1014 39.0138 18.6497C40.0027 20.1981 40.6566 21.9317 40.9345 23.7417C41.2124 25.5517 41.1082 27.3989 40.6286 29.1672C40.1489 30.9355 39.3041 32.5867 38.1472 34.0169C38.7447 34.7667 39.2585 35.5778 39.6799 36.4364L30.1118 41.358L40.3107 37.9771C41.0275 40.0684 41.2048 42.3033 40.8266 44.4794C40.4484 46.6555 39.5266 48.704 38.1448 50.4394C39.7036 52.3968 40.6734 54.748 40.9432 57.2242C41.213 59.7004 40.772 62.2016 39.6705 64.4419C38.5691 66.6821 36.8517 68.571 34.7147 69.8925C32.5777 71.214 30.1074 71.9148 27.5861 71.9148C25.0649 71.9148 22.5946 71.214 20.4576 69.8925C18.3206 68.571 16.6032 66.6821 15.5017 64.4419C14.4003 62.2016 13.9593 59.7004 14.2291 57.2242C14.4989 54.748 15.4687 52.3968 17.0275 50.4394C15.1646 48.1003 14.1517 45.2105 14.1517 42.2343C14.1517 39.258 15.1646 36.3682 17.0275 34.0291V34.0218Z" fill="#F9B9B8"/>
<path opacity="0.1" d="M41.0205 42.2268C41.0253 45.2038 40.0121 48.0952 38.1449 50.432C39.7038 52.3894 40.6735 54.7406 40.9433 57.2168C41.2132 59.693 40.7721 62.1942 39.6707 64.4344C38.5692 66.6747 36.8519 68.5636 34.7149 69.8851C32.5779 71.2066 30.1075 71.9074 27.5863 71.9074C25.0651 71.9074 22.5948 71.2066 20.4578 69.8851C18.3208 68.5636 16.6034 66.6747 15.5019 64.4344C14.4005 62.1942 13.9595 59.693 14.2293 57.2168C14.4991 54.7406 15.4689 52.3894 17.0277 50.432C15.2265 48.1732 41.0205 40.7372 41.0205 42.2268Z" fill="black"/>
</g>
<g opacity="0.2">
<path opacity="0.1" d="M54.596 94.1819C53.4379 94.1819 52.499 92.969 52.499 91.4728C52.499 89.9766 53.4379 88.7637 54.596 88.7637C55.7541 88.7637 56.6929 89.9766 56.6929 91.4728C56.6929 92.969 55.7541 94.1819 54.596 94.1819Z" fill="#3F3D56"/>
<path opacity="0.1" d="M56.2517 79.8794C56.5432 79.3757 56.6937 78.8044 56.6878 78.2242C56.6878 76.7273 55.749 75.5127 54.5933 75.5127C53.4377 75.5127 52.4964 76.7297 52.4964 78.2242C52.49 78.8048 52.6415 79.3764 52.935 79.8794C52.6475 80.3852 52.4965 80.9556 52.4965 81.5357C52.4965 82.1159 52.6475 82.6863 52.935 83.1921C52.6475 83.698 52.4965 84.2684 52.4965 84.8485C52.4965 85.4286 52.6475 85.999 52.935 86.5049C52.6415 87.0079 52.49 87.5795 52.4964 88.16C52.4964 89.6569 53.4352 90.8715 54.5933 90.8715C55.7515 90.8715 56.6878 89.6545 56.6878 88.16C56.6937 87.5798 56.5432 87.0086 56.2517 86.5049C56.5369 85.9983 56.6866 85.4282 56.6866 84.8485C56.6866 84.2688 56.5369 83.6987 56.2517 83.1921C56.5369 82.6855 56.6866 82.1154 56.6866 81.5357C56.6866 80.9561 56.5369 80.386 56.2517 79.8794Z" fill="#3F3D56"/>
<path opacity="0.1" d="M54.596 77.6203C53.4379 77.6203 52.499 76.4074 52.499 74.9112C52.499 73.4151 53.4379 72.2021 54.596 72.2021C55.7541 72.2021 56.6929 73.4151 56.6929 74.9112C56.6929 76.4074 55.7541 77.6203 54.596 77.6203Z" fill="#3F3D56"/>
<path opacity="0.1" d="M54.596 74.3078C53.4379 74.3078 52.499 73.0949 52.499 71.5987C52.499 70.1026 53.4379 68.8896 54.596 68.8896C55.7541 68.8896 56.6929 70.1026 56.6929 71.5987C56.6929 73.0949 55.7541 74.3078 54.596 74.3078Z" fill="#3F3D56"/>
<path opacity="0.5" d="M46.7502 48.9306C46.4624 48.5716 46.2014 48.1926 45.9691 47.7964L51.4763 46.9031L45.5206 46.9469C44.9493 45.7186 44.6375 44.3881 44.6045 43.0367C44.5714 41.6853 44.8178 40.3415 45.3284 39.0873L53.3194 43.1838L45.9493 37.8289C46.6386 36.648 47.5669 35.62 48.6763 34.8093C49.7856 33.9985 51.0523 33.4224 52.3971 33.1168C53.742 32.8111 55.1362 32.7826 56.4927 33.033C57.8492 33.2834 59.1389 33.8073 60.2813 34.572C61.4236 35.3367 62.3942 36.3259 63.1323 37.4776C63.8705 38.6294 64.3603 39.9191 64.5714 41.2662C64.7824 42.6134 64.71 43.989 64.3588 45.3073C64.0076 46.6256 63.3851 47.8582 62.5301 48.9282C62.9761 49.4891 63.3602 50.0953 63.6759 50.7367L56.5301 54.4048L64.1367 51.8807C64.6721 53.4435 64.8044 55.1136 64.5217 56.7396C64.239 58.3657 63.5503 59.8965 62.5178 61.1934C63.6842 62.6556 64.4104 64.4127 64.6132 66.2636C64.8159 68.1144 64.4872 69.9843 63.6645 71.6592C62.8418 73.3342 61.5584 74.7465 59.9612 75.7347C58.364 76.7228 56.5174 77.2469 54.6328 77.2469C52.7481 77.2469 50.9016 76.7228 49.3043 75.7347C47.7071 74.7465 46.4237 73.3342 45.601 71.6592C44.7783 69.9843 44.4496 68.1144 44.6524 66.2636C44.8552 64.4127 45.5813 62.6556 46.7477 61.1934C45.3556 59.4454 44.5988 57.286 44.5988 55.062C44.5988 52.838 45.3556 50.6785 46.7477 48.9306H46.7502Z" fill="#F9B9B8"/>
<path opacity="0.1" d="M64.6796 55.062C64.683 57.2865 63.9259 59.447 62.531 61.1933C63.6974 62.6556 64.4235 64.4127 64.6263 66.2636C64.8291 68.1144 64.5003 69.9843 63.6776 71.6592C62.8549 73.3342 61.5716 74.7465 59.9743 75.7346C58.3771 76.7228 56.5305 77.2469 54.6459 77.2469C52.7612 77.2469 50.9147 76.7228 49.3174 75.7346C47.7202 74.7465 46.4368 73.3342 45.6141 71.6592C44.7915 69.9843 44.4627 68.1144 44.6655 66.2636C44.8683 64.4127 45.5944 62.6556 46.7608 61.1933C45.4105 59.5065 64.6796 53.9496 64.6796 55.062Z" fill="black"/>
</g>
<g opacity="0.3">
<path opacity="0.1" d="M183.299 79.2455C182.908 78.5709 182.706 77.8056 182.713 77.0281C182.713 75.0249 183.969 73.4014 185.517 73.4014C187.064 73.4014 188.321 75.0249 188.321 77.0281C188.329 77.8053 188.127 78.5706 187.737 79.2455C188.12 79.9229 188.321 80.6858 188.321 81.4617C188.321 82.2376 188.12 83.0006 187.737 83.6779C188.12 84.3553 188.321 85.1182 188.321 85.8941C188.321 86.67 188.12 87.433 187.737 88.1103C188.128 88.7849 188.33 89.5504 188.321 90.3277C188.321 92.3285 187.067 93.9545 185.517 93.9545C183.967 93.9545 182.705 92.3334 182.705 90.3326C182.698 89.5551 182.9 88.7896 183.292 88.1152C182.907 87.4383 182.706 86.6751 182.706 85.899C182.706 85.1228 182.907 84.3597 183.292 83.6828C182.907 83.0059 182.706 82.2427 182.706 81.4666C182.706 80.6904 182.907 79.9273 183.292 79.2504L183.299 79.2455Z" fill="#3F3D56"/>
<path opacity="0.1" d="M185.517 76.2271C183.968 76.2271 182.713 74.6034 182.713 72.6004C182.713 70.5974 183.968 68.9736 185.517 68.9736C187.065 68.9736 188.321 70.5974 188.321 72.6004C188.321 74.6034 187.065 76.2271 185.517 76.2271Z" fill="#3F3D56"/>
<path opacity="0.1" d="M185.517 71.7945C183.968 71.7945 182.713 70.1707 182.713 68.1677C182.713 66.1648 183.968 64.541 185.517 64.541C187.065 64.541 188.321 66.1648 188.321 68.1677C188.321 70.1707 187.065 71.7945 185.517 71.7945Z" fill="#3F3D56"/>
<path opacity="0.3" d="M196.011 37.8327C196.394 37.3509 196.743 36.8434 197.056 36.3138L189.686 35.1187L197.662 35.1893C198.425 33.5453 198.84 31.7648 198.883 29.9568C198.925 28.1488 198.593 26.3513 197.908 24.6742L187.214 30.1532L197.07 22.9923C196.152 21.4057 194.911 20.0238 193.427 18.933C191.942 17.8422 190.245 17.0661 188.443 16.6534C186.64 16.2406 184.771 16.2001 182.952 16.5344C181.133 16.8687 179.403 17.5705 177.872 18.596C176.34 19.6214 175.04 20.9483 174.051 22.4935C173.063 24.0387 172.409 25.7689 172.129 27.5757C171.85 29.3824 171.951 31.2267 172.427 32.9929C172.902 34.7592 173.742 36.4094 174.894 37.84C174.296 38.5897 173.782 39.4009 173.361 40.2594L182.932 45.1689L172.73 41.788C172.015 43.8797 171.839 46.1144 172.217 48.2903C172.596 50.4661 173.518 52.5145 174.899 54.2503C173.34 56.2077 172.37 58.5589 172.1 61.0351C171.83 63.5113 172.271 66.0125 173.373 68.2527C174.474 70.493 176.192 72.3818 178.329 73.7034C180.466 75.0249 182.936 75.7257 185.457 75.7257C187.978 75.7257 190.449 75.0249 192.586 73.7034C194.723 72.3818 196.44 70.493 197.542 68.2527C198.643 66.0125 199.084 63.5113 198.814 61.0351C198.544 58.5589 197.575 56.2077 196.016 54.2503C197.879 51.9112 198.892 49.0214 198.892 46.0451C198.892 43.0689 197.879 40.1791 196.016 37.84L196.011 37.8327Z" fill="#F9B9B8"/>
<path opacity="0.1" d="M172.023 46.0374C172.018 49.0144 173.031 51.9057 174.898 54.2426C173.339 56.2 172.37 58.5512 172.1 61.0273C171.83 63.5035 172.271 66.0047 173.373 68.245C174.474 70.4852 176.191 72.3741 178.328 73.6956C180.465 75.0171 182.936 75.7179 185.457 75.7179C187.978 75.7179 190.448 75.0171 192.585 73.6956C194.722 72.3741 196.44 70.4852 197.541 68.245C198.643 66.0047 199.084 63.5035 198.814 61.0273C198.544 58.5512 197.574 56.2 196.016 54.2426C197.817 51.9838 172.023 44.5478 172.023 46.0374Z" fill="black"/>
</g>
<g opacity="0.3">
<path opacity="0.1" d="M158.392 94.1819C157.234 94.1819 156.295 92.969 156.295 91.4728C156.295 89.9766 157.234 88.7637 158.392 88.7637C159.55 88.7637 160.489 89.9766 160.489 91.4728C160.489 92.969 159.55 94.1819 158.392 94.1819Z" fill="#3F3D56"/>
<path opacity="0.1" d="M156.734 79.8794C156.442 79.3757 156.292 78.8044 156.298 78.2242C156.298 76.7273 157.234 75.5127 158.392 75.5127C159.55 75.5127 160.489 76.7297 160.489 78.2242C160.494 78.8046 160.343 79.3759 160.051 79.8794C160.338 80.3852 160.489 80.9556 160.489 81.5357C160.489 82.1159 160.338 82.6863 160.051 83.1921C160.338 83.698 160.489 84.2684 160.489 84.8485C160.489 85.4286 160.338 85.999 160.051 86.5049C160.343 87.0083 160.494 87.5796 160.489 88.16C160.489 89.6569 159.55 90.8715 158.392 90.8715C157.234 90.8715 156.298 89.6545 156.298 88.16C156.292 87.5798 156.442 87.0086 156.734 86.5049C156.449 85.9983 156.299 85.4282 156.299 84.8485C156.299 84.2688 156.449 83.6987 156.734 83.1921C156.449 82.6855 156.299 82.1154 156.299 81.5357C156.299 80.9561 156.449 80.386 156.734 79.8794Z" fill="#3F3D56"/>
<path opacity="0.1" d="M158.392 77.6213C157.234 77.6213 156.295 76.4084 156.295 74.9122C156.295 73.416 157.234 72.2031 158.392 72.2031C159.55 72.2031 160.489 73.416 160.489 74.9122C160.489 76.4084 159.55 77.6213 158.392 77.6213Z" fill="#3F3D56"/>
<path opacity="0.1" d="M158.392 74.3078C157.234 74.3078 156.295 73.0949 156.295 71.5987C156.295 70.1026 157.234 68.8896 158.392 68.8896C159.55 68.8896 160.489 70.1026 160.489 71.5987C160.489 73.0949 159.55 74.3078 158.392 74.3078Z" fill="#3F3D56"/>
<path opacity="0.2" d="M166.238 48.9306C166.525 48.571 166.786 48.192 167.019 47.7964L161.512 46.9031L167.468 46.9469C168.039 45.7186 168.351 44.3881 168.384 43.0367C168.417 41.6853 168.171 40.3415 167.66 39.0873L159.669 43.1838L167.039 37.8289C166.35 36.648 165.421 35.62 164.312 34.8093C163.203 33.9985 161.936 33.4224 160.591 33.1168C159.246 32.8111 157.852 32.7826 156.496 33.033C155.139 33.2834 153.849 33.8073 152.707 34.572C151.565 35.3367 150.594 36.3259 149.856 37.4776C149.118 38.6294 148.628 39.9191 148.417 41.2662C148.206 42.6134 148.278 43.989 148.629 45.3073C148.981 46.6256 149.603 47.8582 150.458 48.9282C150.01 49.4879 149.626 50.0943 149.312 50.7367L156.458 54.4048L148.837 51.8783C148.301 53.4411 148.169 55.1111 148.452 56.7372C148.734 58.3633 149.423 59.894 150.456 61.1909C149.289 62.6532 148.563 64.4103 148.36 66.2611C148.158 68.112 148.486 69.9819 149.309 71.6568C150.132 73.3317 151.415 74.7441 153.012 75.7322C154.609 76.7204 156.456 77.2444 158.341 77.2444C160.225 77.2444 162.072 76.7204 163.669 75.7322C165.266 74.7441 166.55 73.3317 167.372 71.6568C168.195 69.9819 168.524 68.112 168.321 66.2611C168.118 64.4103 167.392 62.6532 166.226 61.1909C167.618 59.443 168.375 57.2836 168.375 55.0596C168.375 52.8356 167.618 50.6761 166.226 48.9282L166.238 48.9306Z" fill="#F9B9B8"/>
<path opacity="0.1" d="M148.309 55.062C148.306 57.2865 149.063 59.447 150.458 61.1933C149.292 62.6556 148.566 64.4127 148.363 66.2636C148.16 68.1144 148.489 69.9843 149.311 71.6592C150.134 73.3342 151.417 74.7465 153.015 75.7346C154.612 76.7228 156.459 77.2469 158.343 77.2469C160.228 77.2469 162.074 76.7228 163.672 75.7346C165.269 74.7465 166.552 73.3342 167.375 71.6592C168.198 69.9843 168.526 68.1144 168.324 66.2636C168.121 64.4127 167.395 62.6556 166.228 61.1933C167.583 59.5065 148.309 53.9496 148.309 55.062Z" fill="black"/>
</g>
<path opacity="0.1" d="M98.726 97.863C44.2011 97.863 -7.62939e-05 96.88 -7.62939e-05 95.6673C-7.62939e-05 94.4547 44.2011 93.4717 98.726 93.4717C153.251 93.4717 197.452 94.4547 197.452 95.6673C197.452 96.88 153.251 97.863 98.726 97.863Z" fill="#F9B9B8"/>
<path opacity="0.3" d="M70.1628 17.6989C71.0425 17.5348 71.9517 17.6331 72.7747 17.9812C73.2687 18.1987 73.8035 18.311 74.3443 18.311C74.8852 18.311 75.4199 18.1987 75.9139 17.9812C76.4984 17.7278 77.1317 17.6029 77.7699 17.6151C78.4081 17.6272 79.0359 17.7763 79.6101 18.0518C79.9372 18.2235 80.3017 18.3137 80.6721 18.3147C82.1703 18.3147 83.4146 16.825 83.6733 14.8608C83.3785 14.6437 83.1277 14.3737 82.9341 14.0648C82.0569 12.6677 80.6992 11.7695 79.1715 11.7695C77.6437 11.7695 76.3033 12.6555 75.4261 14.0381C75.1648 14.4558 74.7985 14.7995 74.3628 15.0358C73.9271 15.2722 73.4368 15.393 72.9398 15.3865H72.9004C71.6954 15.3744 70.663 16.3188 70.1628 17.6989Z" fill="#F9B9B8"/>
<path opacity="0.3" d="M65.6017 11.5285L68.0215 13.0425L66.543 10.404C66.9594 10.0766 67.4745 9.89589 68.0067 9.89043H68.0461C68.2111 9.89265 68.376 9.88043 68.5389 9.85392L69.3718 10.3675L69.0194 9.73465C69.6016 9.53558 70.1047 9.15882 70.456 8.6588L71.9344 9.57887L71.0079 7.91399C71.8654 6.89655 73.0235 6.27344 74.295 6.27344C75.8227 6.27344 77.1804 7.16917 78.0601 8.56631C78.3194 8.98407 78.686 9.32662 79.1227 9.55917C79.5594 9.79173 80.0505 9.90602 80.5464 9.89043H80.6277C82.3131 9.89043 83.6782 11.7768 83.6782 14.1038C83.6782 16.4307 82.3131 18.3195 80.6277 18.3195C80.2575 18.3171 79.8933 18.227 79.5657 18.0567C78.9918 17.7804 78.364 17.6308 77.7257 17.6182C77.0875 17.6056 76.4541 17.7303 75.8695 17.9836C75.3759 18.2026 74.841 18.3158 74.2999 18.3158C73.7588 18.3158 73.2239 18.2026 72.7303 17.9836C72.1504 17.736 71.5234 17.6141 70.8917 17.6263C70.2601 17.6384 69.6384 17.7844 69.0687 18.0542C68.7446 18.2217 68.3847 18.3102 68.019 18.3122C66.3336 18.3122 64.9684 16.4234 64.9684 14.0965C64.9583 13.2016 65.176 12.3185 65.6017 11.5285Z" fill="#F9B9B8"/>
<path opacity="0.1" d="M100.444 21.8727L102.137 22.9339L101.109 21.0865C101.4 20.8568 101.76 20.7299 102.132 20.7262H102.162C102.279 20.7283 102.396 20.7193 102.512 20.6995L103.086 21.0597L102.839 20.6167C103.246 20.4769 103.598 20.2136 103.845 19.8646L104.872 20.5072L104.222 19.3437C104.495 18.9952 104.843 18.7111 105.241 18.512C105.639 18.3129 106.077 18.2037 106.523 18.1924C107.592 18.1924 108.544 18.8204 109.157 19.7989C109.339 20.0914 109.596 20.3313 109.902 20.4941C110.208 20.657 110.552 20.7371 110.899 20.7262H110.956C112.136 20.7262 113.092 22.0455 113.092 23.6763C113.092 25.3071 112.136 26.6264 110.956 26.6264C110.698 26.6244 110.444 26.5609 110.217 26.4414C109.815 26.2491 109.377 26.1451 108.931 26.1367C108.485 26.1283 108.043 26.2157 107.634 26.3927C107.287 26.5492 106.91 26.6322 106.528 26.6361C106.152 26.6354 105.78 26.5575 105.436 26.4073C105.031 26.2338 104.592 26.1484 104.15 26.1568C103.708 26.1652 103.272 26.2672 102.874 26.456C102.646 26.574 102.392 26.6358 102.135 26.6361C100.957 26.6361 100.001 25.3144 100.001 23.686C99.9906 23.0542 100.143 22.4303 100.444 21.8727Z" fill="#F9B9B8"/>
<path opacity="0.1" d="M134.207 57.1803C133.591 57.0655 132.955 57.1341 132.379 57.3775C132.033 57.53 131.658 57.6088 131.28 57.6088C130.901 57.6088 130.527 57.53 130.181 57.3775C129.772 57.2004 129.329 57.1131 128.883 57.1215C128.437 57.1299 127.998 57.2338 127.596 57.4262C127.368 57.546 127.115 57.6095 126.857 57.6111C125.809 57.6111 124.937 56.5669 124.757 55.1917C124.966 55.0409 125.143 54.8516 125.28 54.6343C125.896 53.6607 126.847 53.0303 127.914 53.0303C128.981 53.0303 129.922 53.6485 130.538 54.6173C130.721 54.9094 130.977 55.1499 131.282 55.3154C131.587 55.4808 131.93 55.5657 132.278 55.5617H132.305C133.135 55.5666 133.86 56.2262 134.207 57.1803Z" fill="#F9B9B8"/>
<path opacity="0.1" d="M137.402 52.8712L135.706 53.9325L136.736 52.0874C136.445 51.857 136.084 51.7294 135.711 51.7248H135.684C135.566 51.7264 135.448 51.7183 135.332 51.7004L134.758 52.0582L135.004 51.6177C134.598 51.4775 134.247 51.2143 134.001 50.8656L132.974 51.5081L133.614 50.3422C133.341 49.9941 132.993 49.7104 132.595 49.5117C132.197 49.3129 131.759 49.2042 131.313 49.1934C130.246 49.1934 129.292 49.8213 128.679 50.7998C128.497 51.092 128.241 51.3316 127.935 51.4945C127.63 51.6573 127.286 51.7376 126.939 51.7272H126.88C125.702 51.7272 124.746 53.0489 124.746 54.6773C124.746 56.3057 125.702 57.6273 126.88 57.6273C127.138 57.6262 127.391 57.5636 127.619 57.4448C128.02 57.2514 128.46 57.1467 128.906 57.1379C129.352 57.129 129.795 57.2163 130.204 57.3937C130.55 57.5516 130.927 57.6346 131.308 57.6371C131.685 57.6368 132.057 57.5588 132.402 57.4083C132.807 57.2348 133.246 57.1494 133.687 57.1578C134.129 57.1662 134.564 57.2682 134.962 57.457C135.19 57.575 135.444 57.6368 135.701 57.6371C136.882 57.6371 137.838 56.3178 137.838 54.687C137.849 54.0551 137.699 53.4306 137.402 52.8712Z" fill="#F9B9B8"/>
<path d="M125.159 76.5344C131.667 76.5344 136.942 71.3384 136.942 64.9288C136.942 58.5192 131.667 53.3232 125.159 53.3232C118.651 53.3232 113.375 58.5192 113.375 64.9288C113.375 71.3384 118.651 76.5344 125.159 76.5344Z" fill="#3F3D56"/>
<path d="M120.059 67.9468C120.472 67.5395 121.467 66.925 121.96 66.6956C122.53 66.4264 122.739 66.4311 123.142 66.7179C123.477 66.952 123.694 67.1778 124.079 67.0947C124.464 67.0116 125.227 66.4452 125.966 65.7206C126.704 64.9961 127.276 64.2494 127.358 63.8643C127.44 63.4792 127.215 63.2697 126.975 62.9397C126.685 62.5429 126.676 62.3369 126.952 61.7762C127.19 61.2905 127.806 60.3132 128.224 59.9035C128.641 59.4939 128.731 59.584 128.959 59.6694C129.194 59.7664 129.42 59.8839 129.633 60.0206C130.047 60.2933 130.279 60.5204 130.441 60.8621C130.604 61.2039 130.788 61.8383 129.841 63.4991C129.142 64.7697 128.257 65.9319 127.215 66.9484C126.179 67.9777 124.995 68.8509 123.7 69.5398C122.015 70.4762 121.37 70.2901 121.023 70.1309C120.676 69.9717 120.445 69.7458 120.169 69.335C120.03 69.1249 119.911 68.9027 119.813 68.6713C119.734 68.4466 119.642 68.3553 120.059 67.9468Z" fill="#F9B9B8"/>
<path opacity="0.1" d="M125.165 53.3232C122.834 53.3221 120.555 54.0019 118.616 55.2767C116.677 56.5515 115.166 58.364 114.274 60.4849C113.381 62.6058 113.147 64.9397 113.602 67.1915C114.056 69.4433 115.178 71.5118 116.827 73.1352C118.475 74.7586 120.575 75.8641 122.862 76.3117C125.148 76.7593 127.518 76.529 129.671 75.6499C131.824 74.7708 133.665 73.2824 134.959 71.3729C136.253 69.4635 136.944 67.2189 136.942 64.923C136.941 61.847 135.699 58.8975 133.491 56.7224C131.283 54.5474 128.288 53.3248 125.165 53.3232ZM125.165 74.9816C123.145 74.9816 121.17 74.3917 119.491 73.2864C117.811 72.1812 116.502 70.6102 115.73 68.7723C114.957 66.9343 114.754 64.9119 115.148 62.9607C115.542 61.0095 116.515 59.2173 117.943 57.8106C119.372 56.4038 121.191 55.4459 123.172 55.0577C125.153 54.6696 127.207 54.8688 129.073 55.6301C130.939 56.3914 132.534 57.6807 133.656 59.3348C134.779 60.9889 135.378 62.9336 135.378 64.923C135.378 66.2439 135.113 67.5519 134.6 68.7723C134.087 69.9926 133.335 71.1015 132.386 72.0355C131.438 72.9695 130.312 73.7104 129.073 74.2159C127.834 74.7214 126.506 74.9816 125.165 74.9816Z" fill="black"/>
<path d="M143.165 69.1522C143.142 68.6506 142.991 68.163 142.727 67.7343C142.462 67.3055 142.093 66.9493 141.652 66.6987L140.972 68.0252L140.992 66.4187C140.669 66.3234 140.331 66.283 139.994 66.2995C139.395 66.3271 138.817 66.5296 138.334 66.8815C137.852 67.2334 137.485 67.7188 137.282 68.2763C137.078 68.8338 137.047 69.4384 137.191 70.0136C137.336 70.5889 137.649 71.1089 138.093 71.5079C138.537 71.9069 139.09 72.1671 139.683 72.2554C140.277 72.3437 140.883 72.2562 141.426 72.0041C141.969 71.7519 142.424 71.3464 142.734 70.8387C143.043 70.3311 143.193 69.7442 143.165 69.1522Z" fill="#F9B9B8"/>
<path d="M136.259 83.6154C135.514 83.6508 134.783 83.414 134.203 82.9503C133.624 82.4866 133.238 81.8284 133.119 81.1014C133 80.3745 133.156 79.6296 133.557 79.009C133.959 78.3885 134.578 77.9357 135.296 77.7372L135.281 78.9712L135.968 77.6301C136.772 77.5937 137.557 77.874 138.152 78.4094C138.747 78.9447 139.102 79.6913 139.14 80.4852C139.158 80.8783 139.099 81.2712 138.964 81.6414C138.829 82.0116 138.621 82.352 138.353 82.6429C138.085 82.9339 137.761 83.1697 137.401 83.337C137.04 83.5043 136.65 83.5997 136.252 83.6178L136.259 83.6154Z" fill="#F9B9B8"/>
<path d="M143.622 78.7768C143.152 78.8005 142.683 78.7157 142.251 78.5291C141.82 78.3426 141.439 78.0594 141.137 77.7021C140.836 77.3447 140.623 76.9229 140.515 76.4702C140.407 76.0174 140.408 75.5461 140.516 75.0935C140.625 74.641 140.839 74.2196 141.141 73.8627C141.443 73.5059 141.824 73.2234 142.256 73.0376C142.688 72.8518 143.157 72.7678 143.627 72.7922C144.098 72.8167 144.556 72.949 144.965 73.1785L144.428 74.639L145.532 73.5923C145.826 73.8561 146.064 74.1746 146.234 74.5297C146.403 74.8847 146.499 75.2693 146.517 75.6613C146.532 75.9385 146.507 76.2164 146.441 76.4864C146.287 77.1187 145.928 77.6841 145.419 78.0973C144.911 78.5105 144.28 78.749 143.622 78.7768Z" fill="#F9B9B8"/>
<path opacity="0.1" d="M142.76 69.9505C142.06 70.0283 141.377 70.2425 140.675 70.2864C139.973 70.3302 139.196 70.1622 138.755 69.6219C138.549 69.3087 138.363 68.9836 138.196 68.6482C138.004 68.3534 137.742 68.1095 137.432 67.9375C137.236 68.3173 137.123 68.7343 137.103 69.1604C137.083 69.5866 137.155 70.0121 137.314 70.4086C137.474 70.805 137.717 71.1632 138.028 71.4592C138.339 71.7552 138.711 71.9822 139.118 72.125C139.525 72.2678 139.958 72.3232 140.388 72.2873C140.818 72.2514 141.236 72.1251 141.613 71.917C141.99 71.7088 142.318 71.4235 142.574 71.0802C142.83 70.7368 143.01 70.3434 143.1 69.9261C142.986 69.931 142.873 69.9383 142.76 69.9505Z" fill="black"/>
<path opacity="0.1" d="M143.621 78.7761C143.098 78.7999 142.578 78.6897 142.111 78.4564C141.644 78.223 141.246 77.8744 140.956 77.4443C140.666 77.0142 140.493 76.5173 140.454 76.0017C140.415 75.4862 140.512 74.9696 140.736 74.502C140.977 74.6615 141.184 74.8656 141.347 75.1032C141.527 75.445 141.728 75.7758 141.948 76.0938C142.419 76.6439 143.227 76.824 143.959 76.79C144.69 76.7559 145.398 76.5466 146.127 76.4857C146.228 76.4857 146.332 76.4687 146.433 76.4662C146.282 77.101 145.926 77.6699 145.419 78.0868C144.911 78.5036 144.28 78.7456 143.621 78.7761Z" fill="black"/>
<path opacity="0.1" d="M136.259 83.6157C135.741 83.6407 135.224 83.5338 134.76 83.3052C134.295 83.0766 133.898 82.7339 133.605 82.31C133.313 81.8861 133.136 81.3952 133.091 80.8844C133.047 80.3735 133.135 79.8599 133.349 79.3926C133.598 79.556 133.815 79.7621 133.99 80.0011C134.236 80.3297 134.372 80.7094 134.648 81.0112C135.16 81.5759 136.02 81.7731 136.796 81.7561C137.572 81.739 138.275 81.5564 139.014 81.5005C138.831 82.0903 138.468 82.6099 137.975 82.9885C137.482 83.3671 136.883 83.5861 136.259 83.6157Z" fill="black"/>
<path d="M94.9595 94.566H91.999C91.6227 94.5657 91.2619 94.4258 90.9958 94.1772C90.7297 93.9287 90.58 93.5916 90.5796 93.2401V70.1892C90.58 69.8377 90.7297 69.5007 90.9958 69.2521C91.2619 69.0035 91.6227 68.8637 91.999 68.8633H94.9595C95.3358 68.8637 95.6966 69.0035 95.9626 69.2521C96.2287 69.5007 96.3784 69.8377 96.3788 70.1892V93.2401C96.3784 93.5916 96.2287 93.9287 95.9626 94.1772C95.6966 94.4258 95.3358 94.5657 94.9595 94.566Z" fill="#F9B9B8"/>
<path d="M87.8871 94.566H85.2966C84.9674 94.5657 84.6517 94.4258 84.4189 94.1772C84.186 93.9287 84.0551 93.5916 84.0547 93.2401V70.1892C84.0551 69.8377 84.186 69.5007 84.4189 69.2521C84.6517 69.0035 84.9674 68.8637 85.2966 68.8633H87.8871C88.2164 68.8637 88.532 69.0035 88.7649 69.2521C88.9977 69.5007 89.1287 69.8377 89.129 70.1892V93.2401C89.1287 93.5916 88.9977 93.9287 88.7649 94.1772C88.532 94.4258 88.2164 94.5657 87.8871 94.566Z" fill="#F9B9B8"/>
<path d="M90.5797 40.3047C96.585 40.3047 101.453 35.5099 101.453 29.5952C101.453 23.6805 96.585 18.8857 90.5797 18.8857C84.5743 18.8857 79.7061 23.6805 79.7061 29.5952C79.7061 35.5099 84.5743 40.3047 90.5797 40.3047Z" fill="#F9B9B8"/>
<path d="M97.2301 33.879C97.7828 33.7135 98.4707 33.5075 98.9266 32.8539C99.0615 32.653 99.1614 32.4155 99.2195 32.1582C99.2776 31.9008 99.2925 31.6298 99.263 31.3641C99.2446 31.1745 99.1934 30.9932 99.1133 30.8341C99.0331 30.6751 98.9263 30.5427 98.801 30.4473C98.4762 30.2092 98.0589 30.2424 97.6464 30.5268L97.4451 26.0254L97.103 26.052L97.3396 31.344L97.5926 31.1027C97.8859 30.823 98.3137 30.6079 98.6347 30.8434C98.7142 30.9061 98.7818 30.9922 98.8321 31.095C98.8824 31.1978 98.914 31.3145 98.9246 31.4361C98.9457 31.6341 98.9343 31.8358 98.8912 32.0274C98.8481 32.2191 98.7742 32.3962 98.6747 32.5467C98.3198 33.0553 97.7762 33.2509 97.1543 33.4373L97.2301 33.879Z" fill="#2F2E41"/>
<path d="M101.516 25.4778L99.2383 25.9209L99.3218 26.3375L101.6 25.8943L101.516 25.4778Z" fill="#2F2E41"/>
<path d="M94.3268 26.8762L92.0488 27.3193L92.1324 27.7359L94.4103 27.2928L94.3268 26.8762Z" fill="#2F2E41"/>
<path d="M93.2066 74.5746H80.4711C80.0759 74.5742 79.697 74.4184 79.4175 74.1413C79.1381 73.8642 78.9809 73.4885 78.9805 73.0966V54.1466C78.9838 51.2338 80.1522 48.4413 82.2294 46.3817C84.3066 44.322 87.1229 43.1635 90.0605 43.1602C93.0808 43.1636 95.9764 44.3548 98.1121 46.4725C100.248 48.5901 101.449 51.4613 101.453 54.4562V66.3985C101.45 68.5662 100.58 70.6444 99.0346 72.1772C97.4887 73.71 95.3928 74.5722 93.2066 74.5746Z" fill="#2F2E41"/>
<path d="M88.4584 24.7635C88.8005 23.7307 89.9891 23.3323 90.9778 23.3014C92.3677 23.2579 93.7246 23.7548 95.1188 23.5327C97.648 23.1298 99.2268 20.6758 99.7189 18.3265C100.047 16.7596 100.018 15.1533 99.981 13.5611C99.9833 13.4997 99.9679 13.4389 99.9368 13.3861C99.9056 13.3333 99.8599 13.2907 99.8052 13.2634C99.7506 13.2361 99.6892 13.2252 99.6286 13.2322C99.568 13.2392 99.5106 13.2636 99.4635 13.3027C98.4524 13.9973 97.7254 15.0371 97.4172 16.2298L98.0227 16.3559L98.3412 13.5749C98.3456 13.506 98.3276 13.4375 98.2899 13.3798C98.2523 13.3222 98.197 13.2784 98.1324 13.2551C97.1838 12.9224 96.3929 13.6732 95.8767 14.3834C95.6094 14.7513 95.3529 15.152 94.9557 15.3915C94.5419 15.6186 94.0684 15.7109 93.6003 15.6558C92.6338 15.5854 91.7176 15.2178 90.7708 15.0357C89.9014 14.8728 89.0147 14.8232 88.1327 14.8881C86.3871 15.0114 84.6953 15.5488 83.1955 16.4563C81.6974 17.3652 80.3259 18.664 79.5308 20.2498C79.0768 21.1552 78.8303 22.1974 79.0797 23.201C79.1795 23.6569 79.3841 24.0829 79.6769 24.4448C79.9697 24.8068 80.3428 25.0946 80.766 25.2852C81.1372 25.4417 81.3391 24.8475 80.9704 24.6921C80.2682 24.3961 79.8226 23.7021 79.6666 22.9714C79.4884 22.1362 79.7066 21.2721 80.0867 20.5241C80.8268 19.0675 82.0937 17.8561 83.4746 17.0179C84.8804 16.1653 86.4628 15.6511 88.0984 15.5155C88.8984 15.4513 89.7033 15.4866 90.4948 15.6206C91.3828 15.7695 92.2322 16.0895 93.1221 16.2308C94.0987 16.3858 95.1122 16.2494 95.8111 15.4843C96.3252 14.9215 96.9604 13.5089 97.928 13.8483L97.7193 13.5285L97.4008 16.3095C97.3609 16.6574 97.917 16.7833 98.0063 16.4356C98.2841 15.3471 98.9498 14.3994 99.8765 13.773L99.359 13.5146C99.4205 16.1548 99.4755 19.0727 97.7276 21.2361C96.9778 22.1642 95.9226 22.8431 94.7233 22.9513C93.3724 23.0732 92.0462 22.5808 90.6935 22.6945C89.5238 22.7929 88.2653 23.3622 87.8692 24.5577C87.742 24.9415 88.3313 25.1471 88.4584 24.7635V24.7635Z" fill="#2F2E41"/>
<path d="M94.201 34.3992C94.1994 34.4301 94.1973 34.4611 94.1942 34.4922C94.1696 34.7547 94.095 35.0096 93.9746 35.2421C93.8542 35.4745 93.6904 35.68 93.4928 35.8466L91.2941 37.7096C90.8958 38.0463 90.3846 38.2057 89.8727 38.153C89.3609 38.1003 88.8901 37.8397 88.5637 37.4283L83.0434 30.4539C82.7181 30.0416 82.5641 29.5128 82.615 28.9832C82.666 28.4536 82.9179 27.9666 83.3154 27.6288L85.514 25.7659C85.7111 25.5989 85.9381 25.4736 86.1819 25.3974C86.4258 25.3211 86.6818 25.2953 86.9353 25.3214C87.1888 25.3475 87.4348 25.4251 87.6594 25.5496C87.8839 25.6741 88.0826 25.8432 88.2439 26.0472L93.7643 33.0216C94.0718 33.4078 94.2277 33.8995 94.201 34.3992Z" fill="#2F2E41"/>
<path d="M86.2303 31.0227C86.6306 31.0227 86.9552 30.703 86.9552 30.3087C86.9552 29.9144 86.6306 29.5947 86.2303 29.5947C85.8299 29.5947 85.5054 29.9144 85.5054 30.3087C85.5054 30.703 85.8299 31.0227 86.2303 31.0227Z" fill="white"/>
<path d="M91.8024 31.3513L91.8019 31.3558C92.0958 31.4193 92.3556 31.5924 92.5303 31.841C92.705 32.0896 92.7818 32.3956 92.7457 32.6989L90.3813 52.397C90.3053 53.0289 89.9941 53.6071 89.5117 54.0127C89.0292 54.4183 88.4123 54.6205 87.7877 54.5777C87.1631 54.5348 86.5784 54.2502 86.1539 53.7824C85.7294 53.3145 85.4974 52.6991 85.5056 52.0626C85.5069 51.9728 85.513 51.8832 85.5237 51.7942L87.8882 32.0961C87.9268 31.7745 88.0894 31.4816 88.3404 31.282C88.5913 31.0823 88.9099 30.9922 89.2262 31.0315L91.8024 31.3513Z" fill="#F9B9B8"/>
<path d="M196.942 94.7269H0.509983C0.374592 94.7267 0.244882 94.6935 0.149285 94.6347C0.0536866 94.576 0 94.4963 0 94.4133C0 94.3303 0.0536866 94.2506 0.149285 94.1918C0.244882 94.133 0.374592 94.0999 0.509983 94.0996H196.942C197.078 94.0999 197.207 94.133 197.303 94.1918C197.399 94.2506 197.452 94.3303 197.452 94.4133C197.452 94.4963 197.399 94.576 197.303 94.6347C197.207 94.6935 197.078 94.7267 196.942 94.7269Z" fill="#3F3D56"/>
</g>
<defs>
<clipPath id="clip0_473_37650">
<rect width="200" height="101" fill="white" transform="matrix(-1 0 0 1 200 0)"/>
</clipPath>
</defs>
</svg>
