<svg width="56" height="44" viewBox="0 0 56 44" fill="none" xmlns="http://www.w3.org/2000/svg">
<path d="M21.7179 26.0255C23.2048 26.0255 24.6582 25.5846 25.8945 24.7585C27.1307 23.9325 28.0943 22.7584 28.6633 21.3847C29.2323 20.0111 29.3812 18.4995 29.0911 17.0412C28.801 15.583 28.085 14.2435 27.0337 13.1921C25.9823 12.1407 24.6428 11.4248 23.1845 11.1347C21.7262 10.8446 20.2147 10.9935 18.841 11.5625C17.4674 12.1315 16.2933 13.095 15.4672 14.3313C14.6412 15.5676 14.2003 17.021 14.2003 18.5079C14.2003 20.5017 14.9923 22.4138 16.4021 23.8236C17.812 25.2335 19.7241 26.0255 21.7179 26.0255ZM49.2825 41.0607H37.311C37.7614 40.3021 38.0014 39.4371 38.0061 38.5549C38.0061 36.5611 37.2141 34.6489 35.8042 33.2391C34.3944 31.8293 32.4823 31.0372 30.4885 31.0372H12.9473C10.9535 31.0372 9.04141 31.8293 7.63158 33.2391C6.22175 34.6489 5.42972 36.5611 5.42972 38.5549C5.43445 39.4371 5.67441 40.3021 6.12485 41.0607H1.67091C1.33861 41.0607 1.01992 41.1927 0.784946 41.4277C0.549974 41.6627 0.417969 41.9814 0.417969 42.3137C0.417969 42.646 0.549974 42.9647 0.784946 43.1996C1.01992 43.4346 1.33861 43.5666 1.67091 43.5666H49.2825C49.6148 43.5666 49.9335 43.4346 50.1685 43.1996C50.4035 42.9647 50.5355 42.646 50.5355 42.3137C50.5355 41.9814 50.4035 41.6627 50.1685 41.4277C49.9335 41.1927 49.6148 41.0607 49.2825 41.0607Z" fill="black"/>
<path d="M55.6217 8.89042C55.7891 8.72723 55.9075 8.52046 55.9636 8.29348C56.0196 8.0665 56.011 7.82838 55.9388 7.60603C55.8665 7.38368 55.7335 7.18598 55.5548 7.03528C55.376 6.88458 55.1587 6.7869 54.9273 6.75328L49.8576 6.01671C49.6566 5.98747 49.4657 5.90982 49.3013 5.79043C49.137 5.67103 49.0042 5.51348 48.9142 5.33135L46.6469 0.737452C46.5435 0.527815 46.3834 0.351308 46.1849 0.227889C45.9863 0.10447 45.7572 0.0390625 45.5234 0.0390625C45.2896 0.0390625 45.0605 0.10447 44.862 0.227889C44.6634 0.351308 44.5033 0.527815 44.3999 0.737452L42.1327 5.33135C42.0428 5.51347 41.9099 5.67101 41.7456 5.7904C41.5813 5.90979 41.3904 5.98745 41.1894 6.01671L36.1196 6.75328C35.8883 6.7869 35.6709 6.88458 35.4922 7.03528C35.3135 7.18598 35.1804 7.38368 35.1082 7.60603C35.036 7.82838 35.0274 8.0665 35.0834 8.29348C35.1394 8.52046 35.2578 8.72723 35.4253 8.89042L39.0937 12.4663C39.2392 12.6081 39.348 12.7831 39.4107 12.9763C39.4735 13.1695 39.4884 13.3751 39.454 13.5753L38.588 18.6245C38.5472 18.8553 38.572 19.0928 38.6597 19.3101C38.7474 19.5274 38.8944 19.7157 39.084 19.8534C39.2736 19.9911 39.498 20.0728 39.7318 20.089C39.9655 20.1053 40.1991 20.0555 40.406 19.9454L44.9404 17.5614C45.1202 17.4669 45.3203 17.4175 45.5234 17.4175C45.7265 17.4175 45.9266 17.4669 46.1064 17.5614L50.6409 19.9454C50.8477 20.0555 51.0813 20.1053 51.3151 20.0891C51.5488 20.0728 51.7733 19.9911 51.9629 19.8534C52.1524 19.7157 52.2995 19.5274 52.3872 19.3101C52.4749 19.0928 52.4998 18.8553 52.4589 18.6245L51.5929 13.5753C51.5586 13.3751 51.5734 13.1695 51.6362 12.9763C51.699 12.7831 51.8078 12.6081 51.9533 12.4663L55.6217 8.89042Z" fill="black"/>
</svg>
