<svg width="119" height="112" viewBox="0 0 119 112" fill="none" xmlns="http://www.w3.org/2000/svg">
<path opacity="0.1" d="M96.3598 3.33217C87.9548 -0.31969 78.604 -0.287859 70.0282 3.42286C63.6179 6.19656 58.6108 10.7323 55.1453 16.9037C53.397 20.0184 52.0856 23.471 51.2295 27.2089C47.92 25.2744 44.5043 23.8662 41.0362 23.0087C34.1661 21.3094 27.4321 21.854 21.0219 24.6277C12.446 28.3385 6.02039 35.1331 2.92827 43.7597C-0.126274 52.2849 0.33152 61.9278 4.21924 70.9127C8.22067 80.1604 15.3835 87.1111 26.7609 92.7878C36.9385 97.8655 50.1076 101.792 65.3576 106.339C70.565 107.892 76.4677 109.653 82.639 111.578C84.2701 112.088 86.0383 111.993 87.6192 111.309C89.1994 110.625 90.4804 109.401 91.224 107.865C94.045 102.048 96.8047 96.5375 99.2386 91.676C106.363 77.4497 112.517 65.1629 115.783 54.2672C119.434 42.0886 119.271 32.1094 115.269 22.8609C111.382 13.8769 104.666 6.94161 96.3598 3.33217Z" fill="#FA4242"/>
</svg>
