<svg width="60" height="60" viewBox="0 0 60 60" fill="none" xmlns="http://www.w3.org/2000/svg">
<g clip-path="url(#clip0_473_57177)">
<path d="M54.3563 24.2242C54.3563 23.943 54.2625 23.6805 54.1313 23.4555L52.9688 19.593L52.95 19.5742L48.75 5.69922H11.25L7.06875 19.518L7.05 19.5367L6.24375 22.2367L6.225 22.2555L5.86875 23.4555C5.7375 23.6805 5.64375 23.943 5.64375 24.2242L5.625 24.2805V24.3742C5.625 24.8055 5.775 25.218 6.05625 25.5367C6.09375 25.593 6.13125 25.6492 6.1875 25.7055C6.525 26.043 6.99375 26.2492 7.5 26.2492C7.8375 26.2492 8.15625 26.1555 8.4375 25.9867C9 25.668 9.375 25.0492 9.375 24.3742C9.375 25.0492 9.75 25.668 10.3125 25.9867C10.5938 26.1555 10.9125 26.2492 11.25 26.2492C12.2812 26.2492 13.125 25.3867 13.125 24.3742C13.125 25.3867 13.9688 26.2492 15 26.2492C16.0312 26.2492 16.875 25.3867 16.875 24.3742C16.875 25.3867 17.7188 26.2492 18.75 26.2492C19.7812 26.2492 20.625 25.3867 20.625 24.3742C20.625 25.3867 21.4688 26.2492 22.5 26.2492C23.5312 26.2492 24.375 25.3867 24.375 24.3742C24.375 25.3867 25.2188 26.2492 26.25 26.2492C27.2812 26.2492 28.125 25.3867 28.125 24.3742C28.125 25.3867 28.9688 26.2492 30 26.2492C31.0312 26.2492 31.875 25.3867 31.875 24.3742C31.875 25.3867 32.7188 26.2492 33.75 26.2492C34.7812 26.2492 35.625 25.3867 35.625 24.3742C35.625 25.3867 36.4688 26.2492 37.5 26.2492C38.5312 26.2492 39.375 25.3867 39.375 24.3742C39.375 25.3867 40.2188 26.2492 41.25 26.2492C42.2812 26.2492 43.125 25.3867 43.125 24.3742C43.125 25.3867 43.9688 26.2492 45 26.2492C46.0312 26.2492 46.875 25.3867 46.875 24.3742C46.875 25.3867 47.7188 26.2492 48.75 26.2492C49.0875 26.2492 49.4062 26.1555 49.6875 25.9867C50.25 25.668 50.625 25.0492 50.625 24.3742C50.625 25.0492 51 25.668 51.5625 25.9867C51.8438 26.1555 52.1625 26.2492 52.5 26.2492C53.0062 26.2492 53.475 26.043 53.8125 25.7055C54.15 25.368 54.375 24.8805 54.375 24.3742V24.2805C54.375 24.2617 54.375 24.2617 54.3563 24.2242Z" fill="black"/>
<path d="M8.4375 27.0186V56.231H10.3125V26.9811C9.95625 26.8686 9.6375 26.6998 9.375 26.4561C9.09375 26.6998 8.79375 26.8873 8.4375 27.0186Z" fill="black"/>
<path d="M49.6875 26.9811V45.9185H51.5625V27.0186C51.2062 26.8873 50.9062 26.6998 50.625 26.4561C50.3625 26.6998 50.0437 26.8686 49.6875 26.9811Z" fill="black"/>
<path d="M27.1875 51.543H26.25V56.2492H50.625V56.2305V51.543H49.6875H27.1875Z" fill="black"/>
<path d="M31.875 44.9986V45.9174H32.8125H42.1875H43.125V44.9986C43.125 42.6174 41.6812 40.6111 39.6187 39.7861C38.9812 40.1049 38.2688 40.2924 37.5 40.2924C36.7312 40.2924 36.0188 40.1049 35.3813 39.7861C33.3188 40.6111 31.875 42.6174 31.875 44.9986Z" fill="black"/>
<path d="M37.5 39.375C38.25 39.375 38.9625 39.15 39.5625 38.7563C40.575 38.0813 41.25 36.9375 41.25 35.625C41.25 33.5437 39.5625 31.875 37.5 31.875C35.4375 31.875 33.75 33.5437 33.75 35.625C33.75 36.9375 34.425 38.0813 35.4375 38.7563C36.0375 39.15 36.75 39.375 37.5 39.375Z" fill="black"/>
<path d="M44.0625 46.875H30.9375H26.25C25.2188 46.875 24.375 47.7188 24.375 48.75C24.375 49.425 24.75 50.0438 25.3125 50.3625C25.5938 50.5313 25.9125 50.625 26.25 50.625H49.6875H50.625V50.6062V49.6687V47.7937V46.875H49.6875H44.0625Z" fill="black"/>
</g>
<defs>
<clipPath id="clip0_473_57177">
<rect width="60" height="60" fill="white"/>
</clipPath>
</defs>
</svg>
