<svg width="58" height="56" viewBox="0 0 58 56" fill="none" xmlns="http://www.w3.org/2000/svg">
<path d="M53.75 27.7871H3.75C1.6825 27.7871 0 26.1046 0 24.0371V16.5371C0 14.4696 1.6825 12.7871 3.75 12.7871H53.75C55.8175 12.7871 57.5 14.4696 57.5 16.5371V24.0371C57.5 26.1046 55.8175 27.7871 53.75 27.7871ZM3.75 15.2871C3.06 15.2871 2.5 15.8471 2.5 16.5371V24.0371C2.5 24.7271 3.06 25.2871 3.75 25.2871H53.75C54.44 25.2871 55 24.7271 55 24.0371V16.5371C55 15.8471 54.44 15.2871 53.75 15.2871H3.75Z" fill="black"/>
<path d="M28.75 15.2873C22.7075 15.2873 17.29 11.2473 15.57 5.46234C15.24 4.35484 15.4525 3.17734 16.1575 2.22984C17.085 0.987339 18.7125 0.422339 20.175 0.857339C25.96 2.57734 30 7.99734 30 14.0373C30 14.7273 29.44 15.2873 28.75 15.2873ZM19.1425 3.20484C18.7725 3.20484 18.405 3.39984 18.1625 3.72484C18.0275 3.90484 17.825 4.27734 17.965 4.74984C19.245 9.05234 23.0275 12.1748 27.42 12.7073C26.89 8.31734 23.7675 4.53234 19.4625 3.25484C19.3575 3.22234 19.25 3.20484 19.1425 3.20484Z" fill="black"/>
<path d="M28.75 15.287C28.06 15.287 27.5 14.727 27.5 14.037C27.5 7.99448 31.54 2.57698 37.325 0.856978C38.78 0.424478 40.4175 0.989478 41.3425 2.23198C42.0475 3.17698 42.2625 4.35698 41.93 5.46448C40.21 11.247 34.7925 15.287 28.75 15.287ZM38.3575 3.20448C38.2525 3.20448 38.145 3.22198 38.0375 3.25198C33.735 4.53198 30.6125 8.31448 30.08 12.707C34.47 12.177 38.255 9.05448 39.5325 4.74948C39.675 4.27698 39.47 3.90448 39.335 3.72448C39.095 3.39948 38.7275 3.20448 38.3575 3.20448Z" fill="black"/>
<path d="M28.7501 27.7874C28.0601 27.7874 27.5001 27.2274 27.5001 26.5374V17.0549L22.1351 22.4224C21.6476 22.9099 20.8551 22.9099 20.3676 22.4224C19.8801 21.9349 19.8801 21.1424 20.3676 20.6549L27.8676 13.1549C28.2276 12.7949 28.7601 12.6874 29.2301 12.8849C29.6951 13.0749 30.0001 13.5324 30.0001 14.0374V26.5374C30.0001 27.2274 29.4401 27.7874 28.7501 27.7874Z" fill="black"/>
<path d="M36.2506 22.7872C35.9306 22.7872 35.6106 22.6647 35.3656 22.4222L27.8656 14.9222C27.3781 14.4347 27.3781 13.6422 27.8656 13.1547C28.3531 12.6672 29.1456 12.6672 29.6331 13.1547L37.1331 20.6547C37.6206 21.1422 37.6206 21.9347 37.1331 22.4222C36.8906 22.6647 36.5706 22.7872 36.2506 22.7872Z" fill="black"/>
<path fill-rule="evenodd" clip-rule="evenodd" d="M48.75 55.2871H8.75C5.305 55.2871 2.5 52.4821 2.5 49.0371V26.5371C2.5 25.8471 3.06 25.2871 3.75 25.2871H53.75C54.44 25.2871 55 25.8471 55 26.5371V49.0371C55 52.4821 52.195 55.2871 48.75 55.2871ZM23.0428 46.1901L22.9778 46.207C22.9313 46.219 22.8848 46.2311 22.8386 46.2437C22.7469 46.2687 22.6559 46.2949 22.5649 46.3212L22.5647 46.3212L22.5313 46.3309L22.4588 46.3517C22.4076 46.3664 22.3564 46.381 22.3056 46.3964C22.2135 46.4241 22.1223 46.4533 22.0311 46.4824L21.9869 46.4965L21.9121 46.5202C21.8681 46.534 21.8241 46.5478 21.7805 46.5623C21.6588 46.6027 21.5385 46.645 21.4182 46.6877C21.3961 46.6955 21.3738 46.7031 21.3516 46.7107L21.3513 46.7108C21.3219 46.7209 21.2925 46.731 21.2635 46.7415C21.0936 46.8032 20.925 46.867 20.7579 46.933C20.7323 46.943 20.7071 46.9536 20.6818 46.9641C20.6614 46.9726 20.6409 46.9812 20.6203 46.9894C20.5076 47.035 20.3951 47.0808 20.2838 47.1284C21.9991 49.2198 24.35 50.5738 26.9597 50.9998C25.2714 49.6898 23.9423 48.0451 23.0428 46.1901ZM20.8396 45.8675C20.7427 45.9033 20.6464 45.9401 20.5504 45.9772C20.4675 46.0092 20.3847 46.0412 20.3024 46.0741C20.2068 46.1126 20.112 46.1521 20.0172 46.1919L19.9948 46.2013C19.9213 46.2322 19.8479 46.263 19.775 46.2948C19.7616 46.3006 19.748 46.3063 19.7344 46.312C19.7186 46.3186 19.7027 46.3252 19.687 46.3322C18.5018 44.6 17.8383 42.5955 17.75 40.4876H21.7082C21.7267 42.1664 22.0516 43.7875 22.6482 45.2915C22.6212 45.2988 22.5944 45.3066 22.5676 45.3143L22.5676 45.3143L22.5672 45.3144L22.567 45.3145L22.5669 45.3145L22.5668 45.3146C22.5455 45.3207 22.5243 45.3269 22.503 45.3328C22.4025 45.3606 22.3024 45.389 22.2026 45.4182C22.1148 45.4439 22.0273 45.4702 21.9401 45.4969C21.8409 45.5273 21.7422 45.5584 21.6437 45.5902C21.5574 45.618 21.4713 45.6463 21.3856 45.6751C21.2875 45.7083 21.19 45.7422 21.0927 45.7766C21.0081 45.8064 20.9236 45.8366 20.8396 45.8675ZM27.971 45.4845C27.8418 45.4888 27.7126 45.493 27.5838 45.4993C27.5334 45.5018 27.4832 45.505 27.433 45.5082L27.3539 45.5131L27.3531 45.5131C27.2369 45.52 27.1207 45.5268 27.005 45.5354C26.9465 45.5397 26.8882 45.5448 26.8299 45.5498L26.7618 45.5557L26.7447 45.5572C26.6396 45.5662 26.5346 45.5752 26.43 45.5856C26.3646 45.5922 26.2995 45.5994 26.2343 45.6066L26.1808 45.6125C26.0733 45.6244 25.9659 45.6365 25.859 45.65C25.7867 45.659 25.7146 45.6687 25.6426 45.6785L25.6074 45.6833C25.5022 45.6976 25.3973 45.7125 25.2925 45.7283C25.2083 45.741 25.1243 45.7545 25.0403 45.7681C24.9368 45.7849 24.8336 45.8023 24.7308 45.8206C24.647 45.8354 24.5635 45.8507 24.4802 45.8665C24.3778 45.8859 24.2756 45.9061 24.1737 45.9269C24.1168 45.9386 24.06 45.9505 24.0032 45.9626C24.9656 47.859 26.4187 49.5092 28.2711 50.7562V45.4763C28.2553 45.4766 28.2394 45.4767 28.2235 45.4768C28.2042 45.477 28.1848 45.4771 28.1655 45.4776C28.1262 45.4786 28.0869 45.4801 28.0476 45.4816C28.0221 45.4826 27.9966 45.4837 27.971 45.4845ZM24.4819 34.1405C24.38 34.1212 24.2785 34.101 24.1771 34.0803C25.157 32.1351 26.5671 30.4461 28.2713 29.2592V34.5304C28.2555 34.5301 28.2396 34.53 28.2238 34.5298L28.1916 34.5295L28.1657 34.5291C28.128 34.5282 28.0904 34.5267 28.0528 34.5252C28.0256 34.5241 27.9984 34.523 27.9711 34.5222C27.8419 34.5179 27.7127 34.5137 27.5839 34.5074C27.5338 34.5049 27.4838 34.5017 27.4338 34.4986L27.4337 34.4985L27.354 34.4936L27.3368 34.4926C27.2261 34.4861 27.1154 34.4795 27.0052 34.4713C26.9468 34.4669 26.8886 34.4619 26.8304 34.4568L26.7622 34.451C26.6513 34.4415 26.5403 34.432 26.4298 34.421C26.3545 34.4135 26.2795 34.4051 26.2044 34.3967L26.2042 34.3967L26.2042 34.3967L26.2041 34.3967L26.204 34.3967L26.2039 34.3967L26.2038 34.3966L26.1819 34.3942C26.0739 34.3823 25.966 34.3701 25.8584 34.3566C25.7752 34.3462 25.6923 34.3349 25.6094 34.3236L25.6092 34.3235L25.6088 34.3235C25.5029 34.3089 25.3971 34.2941 25.2917 34.2782C25.2083 34.2655 25.1251 34.2524 25.042 34.2388C24.9375 34.2219 24.8332 34.2041 24.7294 34.1858C24.6467 34.1711 24.5643 34.156 24.4819 34.1405ZM22.7819 34.7494L22.7818 34.7494L22.7706 34.7462C22.6802 34.7225 22.5902 34.698 22.5004 34.6731C22.4014 34.6457 22.3027 34.6177 22.2045 34.589C22.1152 34.5628 22.0262 34.5362 21.9376 34.509C21.84 34.479 21.7429 34.4485 21.6461 34.4173C21.5581 34.3889 21.4704 34.3602 21.383 34.3306C21.2868 34.2982 21.191 34.2648 21.0956 34.2311C21.0092 34.2007 20.923 34.1698 20.8373 34.1382C20.7422 34.1031 20.6478 34.0671 20.5535 34.0307C20.4689 33.998 20.3845 33.9654 20.3006 33.9318C20.2067 33.894 20.1135 33.8551 20.0204 33.8161C19.9379 33.7815 19.8553 33.7468 19.7735 33.7112L19.751 33.7016L19.734 33.6944C19.7183 33.6879 19.7025 33.6814 19.687 33.6745C18.5018 35.4066 17.8383 37.4112 17.75 39.519H21.7302C21.8221 37.8943 22.1877 36.2819 22.8074 34.7563L22.7934 34.7526L22.7819 34.7494L22.7819 34.7494L22.7819 34.7494ZM23.6244 45.0539L23.5894 45.0615C23.0036 43.6332 22.6849 42.0883 22.6658 40.4876H28.2714V44.507C28.2517 44.5074 28.2319 44.5076 28.2122 44.5078C28.1858 44.5081 28.1594 44.5084 28.1331 44.509C28.0923 44.5101 28.0516 44.5117 28.0109 44.5134C27.9831 44.5146 27.9553 44.5157 27.9274 44.5167L27.8871 44.518L27.8867 44.518H27.8866C27.764 44.5221 27.6413 44.5262 27.5192 44.5324C27.4664 44.535 27.4138 44.5384 27.3612 44.5418L27.3611 44.5418L27.361 44.5418L27.3609 44.5418L27.3608 44.5419L27.3607 44.5419L27.3606 44.5419L27.3605 44.5419L27.2735 44.5474L27.2107 44.5512C27.1098 44.5572 27.009 44.5632 26.9084 44.5708C26.8521 44.5751 26.7959 44.5801 26.7397 44.5852L26.7395 44.5852L26.7393 44.5852L26.7391 44.5852L26.7389 44.5853L26.7387 44.5853L26.7385 44.5853L26.7382 44.5853L26.738 44.5853L26.7378 44.5853L26.6477 44.5933L26.6016 44.5973C26.5015 44.6059 26.4013 44.6145 26.3016 44.6246C26.237 44.6311 26.1727 44.6385 26.1084 44.6459L26.0335 44.6544L25.9791 44.6606C25.8857 44.6711 25.7924 44.6815 25.6994 44.6934C25.6322 44.7019 25.5654 44.7113 25.4985 44.7207L25.4272 44.7307L25.4098 44.7331C25.307 44.7473 25.2041 44.7615 25.1018 44.7772C25.0302 44.7882 24.9589 44.8 24.8877 44.8118L24.8285 44.8216C24.722 44.8393 24.6155 44.8569 24.5096 44.876C24.4305 44.8902 24.3518 44.9053 24.2732 44.9204L24.2731 44.9204L24.2731 44.9204L24.2731 44.9204L24.2731 44.9204L24.2731 44.9204L24.2731 44.9204L24.273 44.9204L24.273 44.9204L24.273 44.9204L24.273 44.9204L24.2365 44.9274L24.2362 44.9275C24.1316 44.9477 24.0269 44.968 23.9229 44.9895C23.8321 45.0083 23.7419 45.0282 23.6517 45.0481L23.6244 45.0539ZM27.927 35.4899L27.8963 35.4889L27.896 35.4889C27.7702 35.4847 27.6442 35.4805 27.5189 35.4742C27.4668 35.4716 27.4149 35.4682 27.363 35.4649L27.363 35.4649L27.363 35.4649L27.3629 35.4649L27.3629 35.4649L27.3628 35.4649L27.3628 35.4648L27.3628 35.4648L27.3627 35.4648L27.3627 35.4648L27.272 35.4591L27.2067 35.4552L27.2067 35.4552L27.2066 35.4552L27.2065 35.4552L27.2064 35.4552L27.2063 35.4551L27.2063 35.4551L27.2062 35.4551L27.2061 35.4551L27.206 35.4551C27.1067 35.4492 27.0073 35.4432 26.9084 35.4358C26.8498 35.4314 26.7914 35.4261 26.7331 35.4208L26.733 35.4208L26.733 35.4208L26.733 35.4208L26.733 35.4208L26.7329 35.4208L26.7329 35.4208L26.7329 35.4208L26.7329 35.4208L26.7328 35.4208L26.6459 35.4131L26.58 35.4074C26.4871 35.3994 26.3942 35.3914 26.3016 35.3821C26.2368 35.3755 26.1722 35.368 26.1075 35.3606L26.1075 35.3606L26.1073 35.3606L26.0321 35.352L25.9878 35.347L25.9877 35.347L25.9876 35.347L25.9876 35.347L25.9875 35.3469L25.9874 35.3469L25.9873 35.3469L25.9873 35.3469L25.9872 35.3469L25.9871 35.3469C25.8911 35.3361 25.795 35.3254 25.6994 35.3132C25.6301 35.3044 25.5612 35.2947 25.4922 35.285L25.4257 35.2757L25.3931 35.2712L25.393 35.2712L25.3928 35.2712L25.3927 35.2711L25.3926 35.2711L25.3925 35.2711L25.3924 35.2711L25.3922 35.2711L25.3921 35.2711L25.392 35.271C25.2952 35.2576 25.1985 35.2442 25.1022 35.2294C25.0292 35.2182 24.9564 35.2061 24.8837 35.194L24.8262 35.1845C24.7207 35.167 24.6153 35.1496 24.5104 35.1307C24.4197 35.1143 24.3296 35.0969 24.2394 35.0795L24.2387 35.0794L24.2343 35.0786C24.1307 35.0586 24.0271 35.0386 23.9241 35.0172L23.8984 35.0119C23.8525 35.0025 23.8067 34.993 23.7609 34.9831C23.1603 36.4151 22.7867 37.9563 22.6893 39.5189H28.2711V35.4995C28.2493 35.499 28.2273 35.4988 28.2054 35.4986H28.2054H28.2054H28.2053H28.2053C28.1811 35.4983 28.157 35.498 28.1329 35.4975C28.0893 35.4964 28.0459 35.4946 28.0025 35.4929L27.927 35.4899ZM21.2658 33.266C21.0947 33.204 20.925 33.1398 20.7568 33.0734C20.7368 33.0654 20.717 33.0572 20.6972 33.0489C20.6798 33.0416 20.6624 33.0344 20.6448 33.0273C20.524 32.9787 20.4037 32.9295 20.2844 32.8786C22.01 30.7747 24.3789 29.4174 27.0072 29C25.6487 30.0966 24.4804 31.5015 23.5779 33.1386C23.4473 33.3755 23.3247 33.6161 23.2073 33.8588L23.1687 33.849C23.1357 33.8407 23.1027 33.8324 23.0698 33.8238L23.0252 33.8123L23.025 33.8122C22.9636 33.7963 22.9022 33.7805 22.8413 33.7639C22.7418 33.7367 22.6432 33.7082 22.5445 33.6797L22.5445 33.6797L22.5441 33.6796L22.5238 33.6737L22.462 33.656C22.4106 33.6413 22.3593 33.6266 22.3083 33.6112C22.203 33.5794 22.0985 33.546 21.9941 33.5126L21.9749 33.5064L21.9045 33.4841C21.8639 33.4714 21.8233 33.4586 21.7831 33.4453C21.6528 33.402 21.5237 33.3567 21.3949 33.311L21.3742 33.3037L21.3389 33.2916L21.3388 33.2916C21.3144 33.2832 21.29 33.2748 21.2658 33.266ZM33.922 33.1385C34.0526 33.3754 34.1752 33.616 34.2926 33.8587L34.3281 33.8498C34.3618 33.8413 34.3955 33.8328 34.4292 33.824L34.4866 33.8091L34.4869 33.8091C34.5444 33.7942 34.6019 33.7793 34.659 33.7638C34.7648 33.7349 34.8697 33.7046 34.9746 33.6742L35.0473 33.6533L35.0475 33.6532L35.0475 33.6532C35.0958 33.6394 35.1441 33.6255 35.1921 33.6111C35.3027 33.5777 35.4125 33.5425 35.5222 33.5073L35.5942 33.4846L35.5943 33.4846L35.5944 33.4845L35.5945 33.4845C35.6356 33.4716 35.6766 33.4587 35.7173 33.4451C35.8455 33.4027 35.9723 33.3582 36.0989 33.3132C36.1184 33.3063 36.138 33.2996 36.1577 33.2928C36.1834 33.284 36.2091 33.2752 36.2345 33.266C36.4053 33.204 36.5747 33.14 36.7426 33.0737C36.7646 33.065 36.7864 33.0559 36.8082 33.0469C36.8262 33.0394 36.8442 33.0319 36.8623 33.0246C36.9806 32.9769 37.0987 32.9287 37.2155 32.8788C35.49 30.7749 33.121 29.4174 30.4927 29.0002C31.8512 30.0964 33.0195 31.5014 33.922 33.1385ZM37.4808 33.8153L37.481 33.8152L37.4811 33.8151L37.4813 33.8151C37.5629 33.7809 37.6446 33.7467 37.7254 33.7114C37.7386 33.7057 37.7518 33.7001 37.7651 33.6946C37.7811 33.6879 37.797 33.6813 37.8128 33.6743C38.998 35.4065 39.6615 37.411 39.7498 39.5189H35.7696C35.6774 37.8943 35.312 36.2819 34.6922 34.7562L34.7078 34.7519L34.7291 34.7462C34.8194 34.7224 34.9092 34.6979 34.9991 34.673C35.0982 34.6456 35.197 34.6176 35.2954 34.5888C35.3844 34.5629 35.4732 34.5361 35.5617 34.5091C35.6595 34.4792 35.7569 34.4484 35.8541 34.4171C35.9417 34.3888 36.0291 34.3601 36.1161 34.3307C36.2128 34.2982 36.309 34.2648 36.4049 34.2309C36.4908 34.2005 36.5765 34.1698 36.6617 34.1384C36.7574 34.1032 36.8524 34.0668 36.9473 34.0302C37.0313 33.9978 37.1152 33.9653 37.1984 33.9318C37.293 33.8939 37.3869 33.8547 37.4806 33.8153L37.4808 33.8153ZM29.5286 34.5223L29.5288 34.5223C29.658 34.518 29.7872 34.5137 29.9159 34.5074C29.9661 34.505 30.0161 34.5018 30.0661 34.4986H30.0661H30.0661L30.0663 34.4986L30.0665 34.4986L30.1458 34.4937H30.1458C30.2622 34.4868 30.3786 34.4799 30.4945 34.4714C30.553 34.467 30.6113 34.462 30.6696 34.4569L30.7375 34.4511L30.7541 34.4496L30.7541 34.4496L30.7541 34.4496L30.7542 34.4496L30.7542 34.4496L30.7542 34.4496C30.8596 34.4406 30.9649 34.4316 31.0698 34.4211C31.1359 34.4145 31.2018 34.4072 31.2677 34.3999L31.3179 34.3943C31.4259 34.3824 31.5337 34.3702 31.6412 34.3567C31.7173 34.3473 31.793 34.3369 31.8687 34.3266L31.891 34.3236C31.9968 34.3091 32.1026 34.2942 32.2079 34.2783C32.2915 34.2656 32.3747 34.2524 32.4579 34.2389C32.5622 34.2219 32.6663 34.2043 32.7701 34.1859C32.8529 34.1713 32.9356 34.1561 33.0181 34.1405C33.12 34.1213 33.2214 34.1011 33.3226 34.0804C32.343 32.1352 30.9327 30.4461 29.2285 29.2592V34.5304L29.2508 34.5301L29.2761 34.5298C29.2954 34.5297 29.3148 34.5295 29.3341 34.5291C29.3726 34.5282 29.411 34.5267 29.4494 34.5252C29.4758 34.5241 29.5022 34.5231 29.5286 34.5223ZM34.9318 45.3144L34.9317 45.3143C34.905 45.3066 34.8783 45.2988 34.8513 45.2916C35.4479 43.7875 35.7728 42.1664 35.7913 40.4879H39.7495C39.6613 42.5957 38.9978 44.6002 37.8125 46.3325C37.7969 46.3257 37.7813 46.3191 37.7656 46.3126L37.7654 46.3125L37.757 46.309C37.7458 46.3043 37.7347 46.2996 37.7236 46.2947C37.6536 46.2642 37.5831 46.2346 37.5125 46.205L37.5123 46.2049L37.5121 46.2048L37.4836 46.1928C37.3882 46.1527 37.2927 46.1128 37.1963 46.0741C37.1147 46.0413 37.0321 46.0094 36.9498 45.9776C36.8534 45.9404 36.7569 45.9034 36.6596 45.8676C36.5758 45.8367 36.4915 45.8067 36.4071 45.7767C36.3097 45.7422 36.212 45.7083 36.1138 45.6752C36.0282 45.6463 35.9421 45.618 35.856 45.5902C35.7575 45.5586 35.6586 45.5274 35.5594 45.4969C35.4722 45.4701 35.3847 45.4439 35.2968 45.4182C35.1972 45.389 35.0972 45.3607 34.9967 45.3329C34.975 45.3269 34.9534 45.3206 34.9318 45.3144ZM36.7412 46.9328C36.5742 46.8667 36.4056 46.803 36.2357 46.7413L36.2086 46.7316C36.1894 46.7248 36.1702 46.7182 36.1509 46.7117L36.1508 46.7116L36.1269 46.7034L36.0837 46.6884L36.0797 46.6869L36.0794 46.6869C35.9596 46.6445 35.8398 46.6022 35.7186 46.562C35.6773 46.5484 35.6357 46.5353 35.5941 46.5222L35.5939 46.5221L35.5408 46.5054L35.515 46.4971L35.4823 46.4867C35.3863 46.4559 35.2903 46.4252 35.1933 46.396C35.1454 46.3816 35.0971 46.3678 35.0488 46.3539L35.0488 46.3539L34.9703 46.3313C34.8672 46.3014 34.7642 46.2717 34.6603 46.2433C34.6126 46.2304 34.5645 46.2179 34.5166 46.2055L34.5163 46.2054L34.4566 46.1899C33.5572 48.0449 32.2281 49.6897 30.5397 50.9996C33.1494 50.5737 35.5005 49.2195 37.2157 47.1281C37.1054 47.081 36.9939 47.0356 36.8823 46.9904C36.8599 46.9815 36.8378 46.9723 36.8156 46.9632L36.8156 46.9631L36.7683 46.9436L36.7412 46.9328ZM33.6288 35.0063L33.6292 35.0062L33.6292 35.0062C33.6658 34.9987 33.7023 34.9911 33.7387 34.9833C34.3394 36.4153 34.7129 37.9565 34.8104 39.5191H29.2285V35.4997C29.2373 35.4995 29.2461 35.4994 29.2549 35.4993C29.2659 35.4991 29.2768 35.499 29.2878 35.4989C29.3142 35.4986 29.3405 35.4983 29.3668 35.4976C29.4084 35.4966 29.4499 35.4949 29.4914 35.4932C29.5184 35.4921 29.5455 35.491 29.5725 35.4901L29.6033 35.4891L29.6036 35.489C29.7294 35.4849 29.8554 35.4807 29.9807 35.4744C30.0328 35.4718 30.0848 35.4684 30.1368 35.465L30.1371 35.465L30.2275 35.4593L30.2919 35.4554L30.292 35.4554L30.2921 35.4554C30.3919 35.4494 30.4917 35.4434 30.5912 35.4359C30.6496 35.4315 30.7078 35.4263 30.766 35.421L30.8536 35.4133L30.8994 35.4093C30.9991 35.4008 31.0988 35.3923 31.1979 35.3823C31.2593 35.376 31.3204 35.369 31.3815 35.3619L31.3816 35.3619L31.4675 35.3521L31.5203 35.3462L31.5205 35.3462C31.6139 35.3357 31.7073 35.3253 31.8002 35.3134C31.8699 35.3045 31.9392 35.2948 32.0086 35.285L32.0738 35.2759L32.1066 35.2713L32.1066 35.2713L32.1067 35.2713C32.2037 35.2578 32.3007 35.2444 32.3974 35.2296C32.4719 35.2181 32.5461 35.2057 32.6203 35.1934L32.6733 35.1846C32.7788 35.1672 32.8842 35.1496 32.9893 35.1309C33.0801 35.1145 33.1705 35.097 33.2609 35.0796L33.2653 35.0787C33.369 35.0588 33.4726 35.0387 33.5756 35.0173L33.6288 35.0063ZM29.5729 44.5168L29.6155 44.5182L29.6156 44.5182C29.7374 44.5222 29.8593 44.5263 29.9807 44.5324C30.0348 44.5351 30.0887 44.5386 30.1425 44.5422L30.2271 44.5476L30.2788 44.5507C30.3832 44.5568 30.4874 44.563 30.5914 44.5709C30.6508 44.5754 30.7099 44.5807 30.7691 44.5861L30.8529 44.5935L30.9106 44.5985C31.0066 44.6067 31.1025 44.615 31.198 44.6246C31.2632 44.6313 31.3282 44.6388 31.3932 44.6463L31.4672 44.6547L31.5116 44.6597C31.608 44.6705 31.7043 44.6813 31.8003 44.6935C31.8705 44.7023 31.9405 44.7122 32.0105 44.722L32.0735 44.7309L32.0918 44.7334C32.194 44.7476 32.2962 44.7617 32.3978 44.7773C32.4735 44.7889 32.5489 44.8014 32.6242 44.8139L32.6721 44.8218L32.7061 44.8275L32.7064 44.8275C32.8011 44.8432 32.8958 44.859 32.9899 44.876C33.0682 44.8901 33.1461 44.9051 33.224 44.9201L33.2244 44.9201L33.2639 44.9277C33.3683 44.9478 33.4727 44.968 33.5766 44.9895C33.6623 45.0072 33.7477 45.026 33.833 45.0447L33.8486 45.0482L33.8762 45.0541C33.8876 45.0565 33.8991 45.0589 33.9104 45.0615C34.4963 43.6332 34.815 42.0884 34.8341 40.4876H29.2285V44.507C29.2482 44.5074 29.268 44.5076 29.2878 44.5078C29.3141 44.5081 29.3405 44.5084 29.3668 44.509C29.4087 44.5101 29.4505 44.5119 29.4923 44.5136L29.4926 44.5136C29.5194 44.5147 29.5461 44.5158 29.5729 44.5168ZM33.3271 45.9271C33.3836 45.9388 33.4401 45.9506 33.4965 45.9625C32.5341 47.859 31.081 49.5092 29.2285 50.7562V45.4763C29.2444 45.4766 29.2603 45.4767 29.2761 45.4768C29.2955 45.477 29.3149 45.4771 29.3342 45.4776C29.3736 45.4786 29.4128 45.4801 29.4521 45.4816C29.4776 45.4826 29.503 45.4837 29.5285 45.4845C29.6579 45.4888 29.7871 45.493 29.916 45.4993C29.966 45.5018 30.0159 45.505 30.0658 45.5081C30.0923 45.5098 30.1189 45.5115 30.1454 45.5131L30.1643 45.5142C30.2745 45.5207 30.3848 45.5272 30.4947 45.5354C30.5527 45.5397 30.6106 45.5447 30.6685 45.5498C30.6914 45.5518 30.7143 45.5537 30.7372 45.5557L30.7376 45.5557C30.8485 45.5652 30.9595 45.5747 31.0699 45.5856C31.1527 45.594 31.2355 45.6033 31.3181 45.6125C31.4259 45.6244 31.5337 45.6365 31.6411 45.65C31.7247 45.6605 31.808 45.6719 31.8913 45.6832C31.997 45.6977 32.1025 45.7125 32.2077 45.7284C32.2915 45.741 32.3749 45.7543 32.4583 45.7679C32.5624 45.7848 32.6662 45.8024 32.7697 45.8208C32.8529 45.8356 32.9358 45.8507 33.0186 45.8663C33.1217 45.8859 33.2245 45.9062 33.3271 45.9271Z" fill="black"/>
</svg>
