<svg width="20" height="24" viewBox="0 0 20 24" fill="none" xmlns="http://www.w3.org/2000/svg">
<path d="M15.9001 9.79622C17.6911 9.77959 19.13 8.33708 19.13 6.56857C19.13 5.0009 18.002 3.69229 16.5098 3.39747H16.5094C16.5094 2.01443 16.5094 0.841797 16.5094 0.841797H3.48977C3.48977 0.841797 3.48977 2.01651 3.48977 3.39747C1.99712 3.69229 0.869141 5.0009 0.869141 6.56857C0.869141 8.3375 2.31017 9.78125 4.10075 9.79622C4.68615 11.3972 5.82546 12.9415 8.01596 13.5229L6.17292 18.6417H6.1939L3.38528 20.4784V23.1576H16.6135V20.535L13.8258 18.6417L11.9849 13.527C14.177 12.9461 15.3147 11.398 15.9001 9.79622ZM16.5098 4.46241C17.4234 4.73685 18.086 5.57474 18.086 6.56816C18.086 7.6597 17.2761 8.56995 16.2169 8.73004C16.2165 8.73004 16.2161 8.73004 16.2161 8.73004C16.4636 7.65887 16.5094 6.65631 16.5094 6.00928C16.5094 5.53191 16.5094 4.99882 16.5098 4.46241C16.5094 4.46241 16.5098 4.46241 16.5098 4.46241ZM1.91361 6.56816C1.91361 5.57474 2.57664 4.73685 3.48977 4.46241V6.00928C3.48977 6.6559 3.53718 7.65929 3.78267 8.73004C2.72225 8.57036 1.91361 7.6597 1.91361 6.56816ZM12.5442 18.6413H7.4549L9.22283 13.7308C9.47209 13.7532 9.72891 13.7682 10 13.7682C10.2711 13.7682 10.5279 13.7532 10.7772 13.7308L12.5442 18.6413ZM9.99958 12.734C8.18297 12.734 6.12046 12.1136 5.12886 9.6407C5.00423 9.34089 4.89932 9.00948 4.81581 8.6527C4.63327 7.90795 4.53424 7.03388 4.53424 6.0097V4.41126V3.36088V1.87637H15.4653V6.0097C15.4653 7.03804 15.3625 7.91377 15.1812 8.66143C15.1712 8.70468 15.1577 8.74418 15.1472 8.78659C15.099 8.97164 15.0457 9.14878 14.9882 9.31761C14.966 9.38247 14.9433 9.4461 14.9181 9.50847C13.9467 12.0887 11.8451 12.734 9.99958 12.734Z" fill="#27AE60"/>
</svg>
