<svg width="16" height="19" viewBox="0 0 16 19" fill="none" xmlns="http://www.w3.org/2000/svg">
<path fill-rule="evenodd" clip-rule="evenodd" d="M13.24 16.916C13.2237 17.3273 12.8848 17.6674 12.4912 17.6674H3.50878C3.11512 17.6674 2.7763 17.3266 2.75999 16.916L2.24525 3.95677C2.23557 3.71304 2.03937 3.5237 1.80703 3.53385C1.57469 3.54401 1.39419 3.74982 1.40387 3.99354L1.91862 16.9527C1.95372 17.8366 2.66375 18.5507 3.50878 18.5507H12.4912C13.3358 18.5507 14.0462 17.8378 14.0814 16.9527L14.5961 3.99354C14.6058 3.74982 14.4253 3.54401 14.193 3.53385C13.9606 3.5237 13.7644 3.71304 13.7547 3.95677L13.24 16.916ZM7.7193 15.7534C7.7193 15.9973 7.90781 16.1951 8.14035 16.1951C8.37289 16.1951 8.5614 15.9973 8.5614 15.7534V5.74189C8.5614 5.49796 8.37289 5.30021 8.14035 5.30021C7.90781 5.30021 7.7193 5.49796 7.7193 5.74189V15.7534ZM4.77211 15.7664C4.77895 16.0102 4.97292 16.2021 5.20536 16.1949C5.4378 16.1877 5.62069 15.9842 5.61385 15.7404L5.33315 5.72891C5.32631 5.48508 5.13234 5.29323 4.8999 5.3004C4.66746 5.30757 4.48457 5.51105 4.49141 5.75488L4.77211 15.7664ZM10.3861 15.7404C10.3793 15.9842 10.5622 16.1877 10.7946 16.1949C11.0271 16.2021 11.221 16.0102 11.2279 15.7664L11.5086 5.75488C11.5154 5.51105 11.3325 5.30757 11.1001 5.3004C10.8677 5.29323 10.6737 5.48508 10.6668 5.72891L10.3861 15.7404ZM11.1482 1.61951H15.0175C15.2501 1.61951 15.4386 1.81726 15.4386 2.06119C15.4386 2.30513 15.2501 2.50288 15.0175 2.50288H0.982454C0.749913 2.50288 0.561401 2.30513 0.561401 2.06119C0.561401 1.81726 0.749913 1.61951 0.982454 1.61951H4.85177L5.10247 0.962065C5.31034 0.416916 5.89748 0 6.45614 0H9.54386C10.1041 0 10.6891 0.415486 10.8975 0.962065L11.1482 1.61951ZM10.2412 1.61951L10.1157 1.29014C10.0351 1.07894 9.75974 0.883368 9.54386 0.883368H6.45614C6.24179 0.883368 5.96432 1.0804 5.88434 1.29014L5.75875 1.61951H10.2412Z" fill="#FA4242"/>
</svg>
