<svg width="60" height="60" viewBox="0 0 60 60" fill="none" xmlns="http://www.w3.org/2000/svg">
<path d="M19.4737 7.79999C19.1996 7.79999 19.0168 7.98121 19.0168 8.25305V9.70249C18.1945 9.88372 17.6463 10.609 17.6463 11.4245V12.7837V13.2367V17.7673H17.1895C16.9154 17.7673 16.7326 17.9486 16.7326 18.2204V21.3918H3.48422C3.21012 21.3918 3.02738 21.573 3.02738 21.8449V24.5633C3.02738 24.8351 3.21012 25.0163 3.48422 25.0163H3.94106V28.6408H1.65685C1.47412 28.6408 1.38239 28.7307 1.29102 28.8213C1.19966 28.9119 1.20001 29.0932 1.20001 29.2744L2.1137 31.9928C2.20506 32.174 2.3878 32.2653 2.57054 32.2653H3.94106V51.2939H1.65685C1.38275 51.2939 1.20001 51.4751 1.20001 51.7469C1.20001 52.0188 1.38275 52.2 1.65685 52.2H4.39791H9.42317H13.0779H17.1895H21.7579H38.2042H42.7726H46.8842H50.5389H55.5642H58.3053C58.5794 52.2 58.7621 52.0188 58.7621 51.7469C58.7621 51.4751 58.5794 51.2939 58.3053 51.2939H56.021V32.2653H57.3916C57.5743 32.2653 57.757 32.174 57.8484 31.9928L58.7621 29.2744C58.8535 29.0932 58.7625 29.0025 58.6711 28.8213C58.5797 28.7307 58.488 28.6408 58.3053 28.6408H56.021V25.0163H56.4779C56.752 25.0163 56.9347 24.8351 56.9347 24.5633V21.8449C56.9347 21.573 56.752 21.3918 56.4779 21.3918H43.2295V18.2204C43.2295 17.9486 43.0467 17.7673 42.7726 17.7673H42.3158V13.2367V12.7837V11.4245C42.3158 10.609 41.7676 9.88372 40.9453 9.70249V8.25305C40.9453 7.98121 40.7625 7.79999 40.4884 7.79999C40.2143 7.79999 40.0316 7.98121 40.0316 8.25305V9.70249C39.2093 9.88372 38.661 10.609 38.661 11.4245V12.7837V13.2367V15.049H21.3011V13.2367V12.7837V11.4245C21.3011 10.609 20.7528 9.88372 19.9305 9.70249V8.25305C19.9305 7.98121 19.7478 7.79999 19.4737 7.79999ZM19.4737 10.5184C20.0219 10.5184 20.3874 10.8808 20.3874 11.4245V12.3306H18.56V11.4245C18.56 10.8808 18.9255 10.5184 19.4737 10.5184ZM40.4884 10.5184C41.0366 10.5184 41.4021 10.8808 41.4021 11.4245V12.3306H39.5747V11.4245C39.5747 10.8808 39.9402 10.5184 40.4884 10.5184ZM18.56 13.2367H20.3874V17.7673H18.56V13.2367ZM39.5747 13.2367H41.4021V17.7673H39.5747V13.2367ZM21.3011 15.9551H38.661V17.7673H38.479H38.2042H21.7579H21.3011V15.9551ZM17.6463 18.6735H18.1032H20.8442H21.3011V24.1102H17.6463V21.8449V18.6735ZM22.2147 18.6735H37.7474V24.1102H22.2147V18.6735ZM38.661 18.6735H39.1179H41.8589H42.3158V24.1102H38.661V18.6735ZM3.94106 22.2979H16.7326V24.1102H4.39791H3.94106V22.2979ZM43.2295 22.2979H56.021V24.1102H55.5642H43.2295V22.2979ZM4.85475 25.0163H16.7326V28.6408H4.85475V25.0163ZM17.6463 25.0163H21.3011V28.6408H17.6463V25.0163ZM22.2147 25.0163H24.0421V28.6408H22.2147V25.0163ZM24.9558 25.0163H26.7832V28.6408H24.9558V25.0163ZM27.6968 25.0163H29.5242V28.6408H27.6968V25.0163ZM30.4379 25.0163H32.2653V28.6408H30.4379V25.0163ZM33.1789 25.0163H35.0063V28.6408H33.1789V25.0163ZM35.92 25.0163H37.7474V28.6408H35.92V25.0163ZM38.661 25.0163H42.3158V28.6408H38.661V25.0163ZM43.2295 25.0163H55.1074V28.6408H43.2295V25.0163ZM2.29572 29.5469H16.7326V31.3592H2.93637L2.29572 29.5469ZM17.6463 29.5469H21.3011V31.3592H17.6463V29.5469ZM22.2147 29.5469H37.7474V51.2939H36.8337V41.3265C36.8337 38.3363 35.2808 35.528 32.6311 33.897L30.1631 32.3556C29.9803 32.2649 29.7976 32.2649 29.7062 32.3556L27.24 33.897C24.6817 35.528 23.1284 38.336 23.1284 41.4168V51.2939H22.2147V29.5469ZM38.661 29.5469H42.3158V31.3592H38.661V29.5469ZM43.2295 29.5469H57.6664L57.0257 31.3592H43.2295V29.5469ZM4.76374 32.2653H4.85475H16.7326V51.2939H15.3621V40.9637C15.3621 38.5172 13.9916 36.3436 11.7074 35.2562C11.4333 35.075 11.0682 35.075 10.7027 35.2562C8.50984 36.3436 7.13931 38.5172 7.04795 40.9637V51.2939H4.76374V32.2653ZM17.6463 32.2653H21.3011V51.2939H17.6463V32.2653ZM38.661 32.2653H42.3158V51.2939H38.661V32.2653ZM43.1385 32.2653H55.0163V51.2939H52.8231V40.9637C52.8231 38.5172 51.4526 36.3421 49.1684 35.1642C48.8943 34.983 48.5292 34.983 48.1637 35.1642C45.9709 36.2515 44.509 38.5172 44.509 40.9637V51.2939H43.1385V32.2653ZM29.9811 33.2617L32.1743 34.6209C34.5498 36.0707 35.92 38.6078 35.92 41.4168V51.3841H24.0421V51.2939V41.4168C24.0421 38.6984 25.4123 36.1609 27.7879 34.7111L29.9811 33.2617ZM11.1595 35.8898H11.3415C13.0775 36.7959 14.2657 38.4269 14.4484 40.4204H8.05264C8.23538 38.5175 9.33216 36.7959 11.1595 35.8898ZM48.6206 35.8898H48.8026C50.5386 36.7959 51.7267 38.4269 51.9095 40.4204H45.5137C45.6964 38.5175 46.7932 36.7959 48.6206 35.8898ZM8.05264 41.3265H14.4484V51.2939H13.5347V45.4041C13.5347 43.0482 11.5239 42.3233 11.4326 42.2326H11.1595C11.0682 42.2326 8.96632 43.0482 8.96632 45.4041V51.2939H8.05264V41.3265ZM45.5137 41.3265H51.9095V51.2939H50.9958V45.4041C50.9958 43.0482 48.985 42.3233 48.8936 42.2326H48.6206C48.5292 42.2326 46.4274 43.0482 46.4274 45.4041V51.2939H45.5137V41.3265ZM11.2505 43.1388C11.7074 43.4106 12.6211 44.0449 12.6211 45.4041V51.2939H9.88001V45.4041C9.88001 44.0449 10.8851 43.4106 11.2505 43.1388ZM48.7116 43.1388C49.1684 43.4106 50.0821 44.0449 50.0821 45.4041V51.2939H47.341V45.4041C47.341 44.0449 48.3461 43.4106 48.7116 43.1388Z" fill="#505565"/>
</svg>
