<svg width="24" height="24" viewBox="0 0 24 24" fill="none" xmlns="http://www.w3.org/2000/svg">
<path d="M3.6524 5.2793C2.96741 5.2793 2.3999 5.83931 2.3999 6.5243V17.4668C2.3999 18.1518 2.96741 18.7193 3.6524 18.7193H20.3474C21.0324 18.7193 21.5999 18.1518 21.5999 17.4668V6.5243C21.5999 5.83931 21.0324 5.2793 20.3474 5.2793H3.6524ZM3.6524 6.2393H20.3474L12.3524 11.3318C12.2152 11.4192 11.7846 11.4192 11.6474 11.3318L3.6524 6.2393ZM3.3599 7.1918L11.1374 12.1418C11.6712 12.4817 12.3286 12.4817 12.8624 12.1418L20.6399 7.1918V17.4668C20.6399 17.6366 20.5172 17.7593 20.3474 17.7593H3.6524C3.48265 17.7593 3.3599 17.6366 3.3599 17.4668V7.1918Z" fill="white"/>
</svg>
