<svg width="464" height="260" viewBox="0 0 464 260" fill="none" xmlns="http://www.w3.org/2000/svg">
<g clip-path="url(#clip0)">
<path d="M123.477 84.6726L58.1823 120.03C59.2988 121.951 60.0181 124.077 60.2976 126.282C60.5771 128.487 60.4111 130.725 59.8095 132.864C59.2078 135.004 58.1827 137.001 56.7949 138.737C55.4071 140.473 53.6849 141.912 51.7303 142.971C49.7756 144.029 47.6284 144.685 45.4157 144.898C43.2031 145.112 40.97 144.879 38.8489 144.214C36.7278 143.549 34.7618 142.466 33.0674 141.027C31.373 139.589 29.9846 137.825 28.9846 135.84L6.72095 147.896L64.3908 254.334L181.147 191.111L123.477 84.6726Z" fill="#F2F2F2"/>
<path opacity="0.2" d="M57.23 177.903L45.2417 174.702L42.0392 186.686L54.0275 189.888L57.23 177.903Z" fill="#B76E79"/>
<path d="M73.9431 226.132C64.3604 240.823 66.986 259.508 66.986 259.508C66.986 259.508 85.1484 254.375 94.7312 239.683C104.314 224.992 101.688 206.307 101.688 206.307C101.688 206.307 83.5259 211.44 73.9431 226.132Z" fill="#3F3D56"/>
<path d="M66.9352 259.337C66.9352 259.337 66.7019 259.3 66.2726 259.213C65.9301 259.144 65.4586 259.044 64.8828 258.908C59.7357 257.695 46.0515 253.594 37.1048 242.811C25.9073 229.31 26.3788 210.447 26.3788 210.447C26.3788 210.447 43.5003 213.228 54.7822 225.352C55.2711 225.874 55.7468 226.414 56.2092 226.973C65.9524 238.72 66.8607 254.527 66.9327 258.434C66.9426 259.02 66.9352 259.337 66.9352 259.337Z" fill="#B76E79"/>
<path d="M60.0285 226.132C69.6113 240.823 66.9856 259.508 66.9856 259.508C66.9856 259.508 48.8232 254.375 39.2405 239.683C29.6577 224.992 32.2834 206.307 32.2834 206.307C32.2834 206.307 50.4458 211.44 60.0285 226.132Z" stroke="#3F3D56" stroke-width="2" stroke-miterlimit="10"/>
<path opacity="0.1" d="M66.9327 258.434C66.6796 258.739 66.4562 258.999 66.2726 259.213C65.8656 259.677 65.6348 259.92 65.6348 259.92C65.6348 259.92 65.3544 259.568 64.8828 258.908C62.2944 255.3 53.9682 242.474 54.6109 227.657C54.6457 226.88 54.7028 226.112 54.7822 225.352C55.2711 225.873 55.7468 226.413 56.2092 226.972C65.9524 238.72 66.8607 254.526 66.9327 258.434Z" fill="black"/>
<path d="M81.1407 228.729C80.3832 246.251 67.3721 259.921 67.3721 259.921C67.3721 259.921 55.5891 245.18 56.3465 227.658C57.104 210.135 70.1151 196.466 70.1151 196.466C70.1151 196.466 81.8981 211.207 81.1407 228.729Z" fill="#B76E79"/>
<path d="M8.30378 234.462C9.19954 234.462 9.92569 233.736 9.92569 232.84C9.92569 231.945 9.19954 231.219 8.30378 231.219C7.40803 231.219 6.68188 231.945 6.68188 232.84C6.68188 233.736 7.40803 234.462 8.30378 234.462Z" fill="#FF6584"/>
<path d="M40.3923 259.588H468.221" stroke="#3F3D56" stroke-width="2" stroke-miterlimit="10"/>
<path d="M0 259.454H32.0143" stroke="#3F3D56" stroke-width="2" stroke-miterlimit="10"/>
<path d="M16.2502 259.752V241.291" stroke="#3F3D56" stroke-width="2" stroke-miterlimit="10"/>
<path d="M16.2497 243.902C17.6919 243.902 18.8611 242.733 18.8611 241.291C18.8611 239.849 17.6919 238.68 16.2497 238.68C14.8074 238.68 13.6382 239.849 13.6382 241.291C13.6382 242.733 14.8074 243.902 16.2497 243.902Z" fill="#3F3D56"/>
<path d="M16.2488 252.668C16.2488 252.668 15.8757 244.647 8.22778 245.579L16.2488 252.668Z" fill="#3F3D56"/>
<path d="M68.6819 192.387C71.4627 192.387 73.717 190.133 73.717 187.353C73.717 184.573 71.4627 182.319 68.6819 182.319C65.901 182.319 63.6467 184.573 63.6467 187.353C63.6467 190.133 65.901 192.387 68.6819 192.387Z" fill="#3F3D56"/>
<path d="M52.8895 191.014C54.9119 191.014 56.5514 189.375 56.5514 187.353C56.5514 185.332 54.9119 183.693 52.8895 183.693C50.867 183.693 49.2275 185.332 49.2275 187.353C49.2275 189.375 50.867 191.014 52.8895 191.014Z" stroke="#3F3D56" stroke-width="2" stroke-miterlimit="10"/>
<path d="M84.4734 191.014C86.4959 191.014 88.1354 189.375 88.1354 187.353C88.1354 185.332 86.4959 183.693 84.4734 183.693C82.451 183.693 80.8115 185.332 80.8115 187.353C80.8115 189.375 82.451 191.014 84.4734 191.014Z" stroke="#3F3D56" stroke-width="2" stroke-miterlimit="10"/>
<path d="M67.3733 259.424L70.2338 197.181" stroke="#3F3D56" stroke-width="2" stroke-miterlimit="10"/>
<path d="M122.75 88.9064C124.773 88.9064 126.412 87.2674 126.412 85.2456C126.412 83.2237 124.773 81.5847 122.75 81.5847C120.728 81.5847 119.088 83.2237 119.088 85.2456C119.088 87.2674 120.728 88.9064 122.75 88.9064Z" stroke="#3F3D56" stroke-width="2" stroke-miterlimit="10"/>
<path d="M81.1233 111.732C83.1458 111.732 84.7853 110.093 84.7853 108.071C84.7853 106.049 83.1458 104.41 81.1233 104.41C79.1009 104.41 77.4614 106.049 77.4614 108.071C77.4614 110.093 79.1009 111.732 81.1233 111.732Z" stroke="#3F3D56" stroke-width="2" stroke-miterlimit="10"/>
<path d="M42.8255 141.844C50.27 141.844 56.305 135.811 56.305 128.369C56.305 120.926 50.27 114.893 42.8255 114.893C35.3809 114.893 29.3459 120.926 29.3459 128.369C29.3459 135.811 35.3809 141.844 42.8255 141.844Z" fill="#B76E79"/>
<path d="M367.24 0.150513H101.506V170.288H367.24V0.150513Z" fill="#E6E6E6"/>
<path d="M359.641 21.4899H109.105V160.222H359.641V21.4899Z" fill="white"/>
<path d="M367.126 0H101.393V11.2859H367.126V0Z" fill="#B76E79"/>
<path d="M109.782 7.86218C110.938 7.86218 111.875 6.92558 111.875 5.77023C111.875 4.61488 110.938 3.67828 109.782 3.67828C108.627 3.67828 107.69 4.61488 107.69 5.77023C107.69 6.92558 108.627 7.86218 109.782 7.86218Z" fill="white"/>
<path d="M117.724 7.86218C118.88 7.86218 119.817 6.92558 119.817 5.77023C119.817 4.61488 118.88 3.67828 117.724 3.67828C116.569 3.67828 115.632 4.61488 115.632 5.77023C115.632 6.92558 116.569 7.86218 117.724 7.86218Z" fill="white"/>
<path d="M125.667 7.86218C126.822 7.86218 127.759 6.92558 127.759 5.77023C127.759 4.61488 126.822 3.67828 125.667 3.67828C124.511 3.67828 123.574 4.61488 123.574 5.77023C123.574 6.92558 124.511 7.86218 125.667 7.86218Z" fill="white"/>
<path d="M188.931 32.9008H139.93V86.0471H188.931V32.9008Z" fill="#E6E6E6"/>
<path d="M258.873 32.9008H209.872V86.0471H258.873V32.9008Z" fill="#E6E6E6"/>
<path d="M328.814 32.9008H279.813V86.0471H328.814V32.9008Z" fill="#E6E6E6"/>
<path d="M188.931 95.6667H139.93V148.813H188.931V95.6667Z" fill="#E6E6E6"/>
<path d="M258.873 95.6667H209.872V148.813H258.873V95.6667Z" fill="#E6E6E6"/>
<path d="M328.814 95.6667H279.813V148.813H328.814V95.6667Z" fill="#E6E6E6"/>
<path d="M221.716 109.326L230.669 105.787L231.71 123.48C231.71 123.48 233.584 128.892 232.959 130.973C232.959 130.973 233.376 134.512 232.335 134.72C231.293 134.928 228.378 135.345 228.172 135.136C227.966 134.928 227.964 134.304 227.964 134.304C227.964 134.304 225.881 135.761 225.673 137.426C225.673 137.426 216.928 140.131 216.72 137.634C216.512 135.136 221.092 133.054 221.092 133.054L224.632 127.642L221.716 109.326Z" fill="white"/>
<path d="M240.664 109.326L249.616 105.787L250.657 123.48C250.657 123.48 252.531 128.892 251.906 130.973C251.906 130.973 252.322 134.512 251.281 134.72C250.24 134.928 247.324 135.345 247.118 135.136C246.912 134.928 246.91 134.304 246.91 134.304C246.91 134.304 244.828 135.761 244.62 137.426C244.62 137.426 235.875 140.131 235.667 137.634C235.459 135.136 240.039 133.054 240.039 133.054L243.579 127.642L240.664 109.326Z" fill="white"/>
<path d="M241.538 41.0026C241.538 41.0026 239.632 46.3279 241.84 48.7293L239.999 55.0554C239.999 55.0554 246.542 74.6778 244.672 77.4187C244.672 77.4187 237.694 80.9071 223.734 76.1727L229.405 54.1831L228.595 44.9014L229.716 40.5407L232.208 40.2935C232.208 40.2935 230.713 45.8998 233.455 46.7721C236.197 47.6444 238.871 40.4336 238.871 40.4336L241.538 41.0026Z" fill="#3F3D56"/>
<path d="M153.5 75.378L155.905 76.362L167.387 61.2758L170.996 78.9854L173.402 78.5483C174.945 63.28 176.204 47.7067 174.659 40.341L165.747 39.9583L161.701 52.8598L159.733 61.6054L153.5 75.378Z" fill="white"/>
<path d="M299.512 40.2206C299.512 40.2206 296.229 44.7836 296.389 46.625C296.55 48.4664 298.631 78.4872 298.631 78.4872L303.516 78.7274L302.074 57.1124L303.275 51.2683L306.238 78.4872L312.244 78.6475L306.879 43.3431L305.838 40.221L299.512 40.2206Z" fill="white"/>
<path d="M318.068 113.732C317.197 112.686 315.698 112.121 314.259 111.815C314.3 111.684 309.883 110.772 309.808 110.96L308.142 109.633L303.024 112.29L300.149 110.332L298.813 110.806C298.867 110.571 294.666 111.298 294.666 111.298C293.864 111.327 292.838 111.377 291.691 111.466C287.673 111.775 287.363 122.179 287.363 122.179C289.212 121.423 291.183 121.01 293.18 120.961L294.266 133.405C299.852 132.926 305.711 133.483 311.783 134.847L314.631 125.065L321.262 122.487C321.262 122.487 320.129 116.204 318.068 113.732Z" fill="#3F3D56"/>
<path d="M175.764 107.806C175.046 106.945 173.812 106.479 172.626 106.227C172.661 106.119 169.02 105.367 168.958 105.522L167.585 104.429L163.369 106.618L160.999 105.006L159.899 105.397C159.944 105.202 156.482 105.802 156.482 105.802C155.823 105.825 154.976 105.867 154.031 105.94C150.72 106.194 150.465 114.766 150.465 114.766C151.989 114.143 153.613 113.803 155.258 113.763L156.153 138.862C160.756 138.467 165.583 138.927 170.585 140.05L172.931 117.145L178.395 115.021C178.395 115.021 177.462 109.844 175.764 107.806Z" fill="white"/>
<path d="M410.29 114.487H433.783V101.919C433.783 98.8049 432.546 95.818 430.343 93.6157C428.14 91.4134 425.152 90.1761 422.037 90.1761C418.921 90.1761 415.934 91.4134 413.731 93.6157C411.528 95.818 410.29 98.8049 410.29 101.919V114.487Z" fill="#2F2E41"/>
<path d="M399.803 254.312H394.75L392.346 234.825H399.803L399.803 254.312Z" fill="#FFB6B6"/>
<path d="M401.092 252.662H391.14C389.459 252.663 387.846 253.331 386.656 254.519C385.467 255.708 384.799 257.32 384.799 259.002V259.208H401.092V252.662Z" fill="#2F2E41"/>
<path d="M460.207 247.57L455.807 250.054L444.131 234.268L450.626 230.603L460.207 247.57Z" fill="#FFB6B6"/>
<path d="M460.518 245.5L451.853 250.39C450.388 251.216 449.312 252.591 448.861 254.211C448.41 255.831 448.621 257.563 449.448 259.027L449.55 259.207L463.738 251.199L460.518 245.5Z" fill="#2F2E41"/>
<path d="M427.913 166.682L428.303 168.631C428.303 168.631 429.473 169.8 428.888 170.385C428.303 170.97 428.498 173.699 428.498 173.699C428.825 178.674 435.329 206.636 436.492 212.097C436.492 212.097 445.461 217.944 452.479 229.444C459.498 240.943 459.692 243.867 459.692 243.867L451.895 247.181L432.4 223.597C432.4 223.597 426.94 220.283 424.99 217.36C423.04 214.436 410.95 184.224 410.95 184.224L404.125 215.8C404.125 215.8 404.515 227.3 402.76 234.707C401.681 239.381 401.029 244.143 400.811 248.935L391.647 247.961C391.647 247.961 392.232 220.283 393.207 217.359C393.207 217.359 389.112 183.639 397.301 170.19L403.901 152.601L410.364 150.114L427.913 166.682Z" fill="#2F2E41"/>
<path d="M422.159 93.2483C409.857 93.4584 409.859 111.752 422.159 111.96C434.46 111.75 434.458 93.4564 422.159 93.2483Z" fill="#FFB8B8"/>
<path d="M412.691 102.119H414.782L415.351 100.696L415.066 102.119H426.501L426.131 99.141L428.91 102.119H431.683V100.505C431.684 99.2587 431.439 98.0241 430.963 96.8721C430.486 95.7201 429.788 94.6731 428.906 93.791C428.025 92.9089 426.979 92.2089 425.827 91.7311C424.676 91.2532 423.441 91.0068 422.194 91.0059C420.947 91.005 419.712 91.2497 418.56 91.7259C417.407 92.2022 416.36 92.9007 415.478 93.7815C414.595 94.6624 413.895 95.7083 413.417 96.8597C412.939 98.0111 412.693 99.2453 412.692 100.492V100.505L412.691 102.119Z" fill="#2F2E41"/>
<path d="M409.472 117.423L432.719 117.611L427.807 167.434C427.807 167.434 400.621 166 400.604 157.704L403.151 150.333L409.472 117.423Z" fill="#3F3D56"/>
<path d="M433.718 172.251C433.36 171.814 433.103 171.303 432.965 170.756C432.826 170.208 432.809 169.637 432.915 169.082C433.022 168.527 433.248 168.003 433.579 167.545C433.91 167.087 434.337 166.707 434.831 166.432L433.82 157.661L439.003 155.747L440.255 168.154C440.659 169.014 440.735 169.991 440.467 170.902C440.2 171.813 439.608 172.595 438.803 173.099C437.998 173.604 437.036 173.796 436.099 173.64C435.162 173.483 434.315 172.99 433.718 172.251Z" fill="#FFB6B6"/>
<path d="M429.662 121.904L432.721 117.63C432.721 117.63 434.814 117.165 437.287 120.05C439.76 122.934 441.203 158.988 441.203 158.988L432.135 161.048L426.777 135.501L429.662 121.904Z" fill="#3F3D56"/>
<path d="M378.424 161.002L379.098 193.033L399.84 203.991L437.615 197.248L438.542 163.952L414.596 155.523L378.424 161.002Z" fill="white"/>
<path d="M399.787 204.337L378.771 193.235L378.087 160.718L414.628 155.183L414.706 155.21L438.88 163.72L437.939 197.526L399.787 204.337ZM379.426 192.831L399.895 203.645L437.291 196.969L438.205 164.184L414.564 155.862L378.761 161.286L379.426 192.831Z" fill="#CACACA"/>
<path d="M399.378 169.687L399.296 169.654L378.302 161.309L378.546 160.694L399.46 169.007L438.497 163.624L438.588 164.28L399.378 169.687Z" fill="#CACACA"/>
<path d="M399.75 169.343L399.088 169.351L399.509 203.995L400.172 203.987L399.75 169.343Z" fill="#CACACA"/>
<path d="M396.724 168.028L389.156 164.961L425.59 159.157L433.158 162.224L396.724 168.028Z" fill="#CACACA"/>
<path d="M378.555 170.294L378.293 170.902L387.07 174.68L387.332 174.072L378.555 170.294Z" fill="#CACACA"/>
<path d="M382.53 181.221L382.268 181.829L391.045 185.608L391.307 184.999L382.53 181.221Z" fill="#B76E79"/>
<path d="M263.017 205.503L263.692 237.534L284.434 248.492L322.208 241.749L323.136 208.453L299.189 200.023L263.017 205.503Z" fill="white"/>
<path d="M284.38 248.838L263.365 237.736L262.68 205.219L299.222 199.684L299.3 199.711L323.474 208.221L322.532 242.027L284.38 248.838ZM264.019 237.332L284.488 248.146L321.885 241.47L322.798 208.685L299.158 200.363L263.355 205.786L264.019 237.332Z" fill="#CACACA"/>
<path d="M283.971 214.187L283.89 214.155L262.895 205.81L263.139 205.195L284.054 213.508L323.091 208.125L323.181 208.781L283.971 214.187Z" fill="#CACACA"/>
<path d="M284.344 213.843L283.681 213.851L284.103 248.496L284.765 248.488L284.344 213.843Z" fill="#CACACA"/>
<path d="M279.485 211.775L273.75 209.462L310.183 203.658L315.918 205.971L279.485 211.775Z" fill="#CACACA"/>
<path d="M263.148 214.794L262.886 215.403L271.664 219.181L271.926 218.572L263.148 214.794Z" fill="#CACACA"/>
<path d="M267.123 225.722L266.861 226.33L275.639 230.108L275.901 229.5L267.123 225.722Z" fill="#B76E79"/>
<path d="M299.052 209.894L299.835 247.077L323.914 259.798L367.764 251.97L368.84 213.319L341.042 203.534L299.052 209.894Z" fill="#B76E79"/>
<path d="M323.851 260.2L299.456 247.311L298.661 209.565L341.08 203.139L341.171 203.171L369.233 213.049L368.14 252.293L323.851 260.2ZM300.215 246.843L323.977 259.396L367.388 251.646L368.448 213.588L341.006 203.928L299.444 210.224L300.215 246.843Z" fill="#3F3D56"/>
<path d="M323.377 219.976L323.283 219.939L298.91 210.252L299.194 209.537L323.472 219.187L368.788 212.938L368.893 213.7L323.377 219.976Z" fill="#3F3D56"/>
<path d="M323.809 219.576L323.04 219.586L323.529 259.802L324.298 259.793L323.809 219.576Z" fill="#3F3D56"/>
<path d="M318.558 217.194L311.511 214.491L353.804 207.754L360.852 210.456L318.558 217.194Z" fill="#3F3D56"/>
<path d="M299.204 220.681L298.9 221.387L309.089 225.773L309.393 225.067L299.204 220.681Z" fill="#3F3D56"/>
<path d="M303.819 233.366L303.514 234.072L313.704 238.458L314.008 237.752L303.819 233.366Z" fill="white"/>
<path d="M390.184 166.298C390.696 166.058 391.148 165.709 391.51 165.275C391.872 164.841 392.134 164.334 392.278 163.788C392.423 163.242 392.446 162.671 392.345 162.115C392.245 161.559 392.024 161.032 391.698 160.571L396.406 153.1L392.563 149.133L386.063 159.776C385.324 160.375 384.831 161.224 384.677 162.162C384.523 163.101 384.718 164.063 385.226 164.867C385.734 165.671 386.519 166.26 387.433 166.524C388.347 166.788 389.326 166.708 390.184 166.298V166.298Z" fill="#FFB6B6"/>
<path d="M413.045 119.387L409.672 117.165C409.672 117.165 407.069 117.749 404.301 123.071C401.533 128.394 390.37 152.191 390.37 152.191L394.959 156.847L407.2 138.178L413.045 119.387Z" fill="#3F3D56"/>
<path d="M202.759 245.791L200.357 247.592C200.357 247.592 201.358 250.994 200.758 251.596C200.157 252.197 198.856 259.1 200.057 259.501C201.259 259.901 208.665 259.3 208.665 259.3C208.665 259.3 216.973 259.6 217.173 259.2C217.373 258.8 217.774 256.399 215.371 255.598C212.969 254.798 211.568 254.998 210.767 252.596C209.967 250.194 208.165 246.593 208.165 246.593L207.764 242.19C207.764 242.19 205.362 242.59 204.962 242.59C204.561 242.59 202.56 243.591 202.76 244.392C202.882 244.85 202.881 245.333 202.759 245.791Z" fill="#3F3D56"/>
<path d="M176.355 115.317C176.355 115.317 175.818 113.385 175.011 112.9V115.317C175.011 115.317 171.789 114.833 169.506 117.248L171.654 117.731C171.654 117.731 168.498 118.778 167.827 123.289L169.171 122.645L172.797 130.377L175.08 126.189L179.645 130.86L178.57 128.283L180.316 129.088L179.107 126.994L184.479 129.411L184.076 128.123L186.044 131.42C186.044 131.42 192.804 124.418 185.419 117.008C185.42 117.008 182.062 113.464 176.355 115.317Z" fill="#2F2E41"/>
<path d="M175.735 132.52C175.735 132.52 177.737 140.124 177.136 141.125C176.534 142.125 182.941 147.529 182.941 147.529L189.146 146.328L189.547 137.723C189.547 137.723 183.942 132.92 185.143 129.318L175.735 132.52Z" fill="#FFB9B9"/>
<path opacity="0.1" d="M175.735 132.52C175.735 132.52 177.737 140.124 177.136 141.125C176.534 142.125 182.941 147.529 182.941 147.529L189.146 146.328L189.547 137.723C189.547 137.723 183.942 132.92 185.143 129.318L175.735 132.52Z" fill="black"/>
<path d="M170.53 180.551C170.53 180.551 168.929 190.557 170.13 198.762C171.331 206.967 171.932 212.97 171.331 214.171C170.73 215.372 170.13 215.172 170.53 216.573C170.931 217.974 171.732 217.373 170.931 218.774C170.13 220.175 170.331 222.576 170.331 223.177C170.331 223.777 169.33 236.785 170.331 238.186C171.331 239.587 171.731 239.387 171.731 239.387L172.932 246.591L179.338 245.591L178.337 238.986C178.337 238.986 180.739 237.786 179.737 236.985C178.735 236.185 178.136 236.185 178.736 236.185C179.337 236.185 180.338 235.985 179.537 235.584C178.736 235.184 179.337 224.377 179.337 224.377C179.337 224.377 180.737 204.565 186.343 205.166C191.949 205.766 196.353 217.373 196.353 217.373L197.955 222.577C197.955 222.577 198.555 232.383 198.956 233.183C199.356 233.983 199.156 234.184 198.956 234.583C198.755 234.982 197.354 233.982 198.755 235.583C200.157 237.185 200.156 237.785 200.156 237.785L201.057 248.291L207.564 244.191V237.987C207.564 237.987 208.765 235.986 208.365 234.385C207.965 232.784 207.965 225.179 208.365 223.778C208.765 222.378 208.565 221.977 208.165 221.377C207.764 220.777 206.765 221.177 207.564 219.776C208.364 218.375 208.964 214.773 207.764 212.171C206.564 209.57 199.957 183.954 197.155 182.552C194.352 181.15 170.53 180.551 170.53 180.551Z" fill="#2F2E41"/>
<path d="M179.338 242.189C179.338 242.189 174.734 241.388 174.534 242.589C174.424 243.586 174.424 244.593 174.534 245.591C174.534 245.591 172.933 245.791 173.134 247.192C173.335 248.593 173.534 252.395 173.534 252.395C173.534 252.395 171.032 258.299 172.433 259.7C172.447 259.714 175.198 259.6 176.778 259.6H182.542C182.542 259.6 183.343 256.798 182.542 256.398C181.742 255.998 179.94 252.394 180.14 251.595C180.34 250.795 180.14 244.991 180.14 244.991L179.256 245.04L179.338 242.189Z" fill="#3F3D56"/>
<path d="M179.138 135.022C183.726 135.022 187.445 131.303 187.445 126.717C187.445 122.13 183.726 118.411 179.138 118.411C174.55 118.411 170.83 122.13 170.83 126.717C170.83 131.303 174.55 135.022 179.138 135.022Z" fill="#FFB9B9"/>
<path d="M184.544 140.926L187.547 135.679C187.547 135.679 194.553 135.322 194.953 136.123C195.354 136.924 198.757 176.549 198.757 176.549C198.757 176.549 200.358 178.75 199.357 180.151L198.356 181.551V184.353C198.356 184.353 193.352 188.356 186.546 187.555C179.74 186.753 171.132 183.152 171.132 183.152L172.934 171.945L172.733 138.925L176.766 136.959C176.766 136.959 181.34 140.125 182.141 141.126C182.942 142.126 184.544 140.926 184.544 140.926Z" fill="#B76E79"/>
<path d="M177.536 140.926L176.636 135.623L164.324 144.33L171.129 164.342C171.129 164.342 166.925 171.947 167.726 174.749C168.527 177.55 168.927 181.753 168.927 181.753C168.927 181.753 179.737 184.555 179.537 183.153C179.337 181.751 179.537 175.548 179.537 175.548C179.537 175.548 183.037 149.631 181.287 145.679C179.536 141.727 177.536 140.926 177.536 140.926Z" fill="#E6E6E6"/>
<path d="M188.547 138.324L186.645 134.622C186.645 134.506 200.156 136.374 200.759 137.523L199.156 168.343C199.156 168.343 199.357 172.745 200.358 173.946C201.358 175.147 201.158 177.148 200.758 177.348C200.358 177.548 193.752 179.55 193.752 179.55C193.752 179.55 187.346 168.543 187.946 155.333C188.547 142.124 188.547 138.324 188.547 138.324Z" fill="#E6E6E6"/>
<path d="M198.356 137.724L200.476 137.272C201.306 137.739 201.966 138.458 202.359 139.324C202.96 140.724 209.966 155.735 209.966 156.735C209.966 157.736 210.167 165.14 205.763 165.14C201.358 165.14 197.955 146.329 197.955 146.329L198.356 137.724Z" fill="#E6E6E6"/>
<path d="M168.329 189.556L171.932 194.959L173.934 188.156L172.533 186.155L168.329 189.556Z" fill="#FFB9B9"/>
<path d="M166.126 144.528L164.325 144.328L159.92 167.942L167.527 191.557L174.134 186.554L169.529 170.744L171.131 158.537L166.126 144.528Z" fill="#E6E6E6"/>
<path d="M187.811 124.374C186.711 120.366 183.271 117.44 179.195 117.44C177.774 117.455 176.377 117.814 175.126 118.488C173.874 119.161 172.805 120.129 172.01 121.307L174.066 125.245L176.116 121.867L180.215 125.635L179.25 123.556L180.818 124.206L179.733 122.517L184.555 124.465L184.194 123.426L186.484 126.414C187.017 125.797 187.463 125.111 187.811 124.374Z" fill="#2F2E41"/>
<path opacity="0.1" d="M197.054 147.429L202.448 152.131L199.657 146.028L197.054 147.429Z" fill="black"/>
<path d="M194.752 146.729C194.752 146.729 192.15 138.724 188.947 140.125C185.744 141.526 190.148 149.931 190.148 149.931L192.951 151.732L194.752 146.729Z" fill="#FFB9B9"/>
<path d="M208.565 156.936L194.552 145.929L189.547 153.334C189.547 153.334 202.759 167.342 205.761 164.541C208.764 161.739 208.565 156.936 208.565 156.936Z" fill="#E6E6E6"/>
</g>
<defs>
<clipPath id="clip0">
<rect width="463.687" height="260" fill="white"/>
</clipPath>
</defs>
</svg>
