<svg width="24" height="24" viewBox="0 0 24 24" fill="none" xmlns="http://www.w3.org/2000/svg">
<path d="M23.3121 1.47407C22.9941 0.852874 22.2889 0.510742 21.3262 0.510742H2.67277C1.70982 0.510742 1.00462 0.852874 0.687358 1.47356C0.369578 2.0945 0.511449 2.8546 1.08673 3.61418L7.94512 12.6671C8.12518 12.9048 8.2959 13.4101 8.2959 13.7073V22.0857C8.2959 23.0503 8.9299 23.4895 9.51921 23.4895C9.81023 23.4895 10.1067 23.394 10.4003 23.2061L14.8331 20.3656C15.3375 20.0418 15.7036 19.3783 15.7036 18.7869V13.7073C15.7036 13.4106 15.874 12.9046 16.0544 12.6671L22.913 3.61469C23.488 2.85485 23.6299 2.09476 23.3121 1.47407ZM21.8869 2.8643L15.0283 11.9162C14.684 12.371 14.4244 13.1413 14.4244 13.7073V18.7872C14.4244 18.9493 14.2727 19.2251 14.1344 19.3139L9.70161 22.1544C9.65302 22.1853 9.61431 22.2042 9.58547 22.2157C9.57923 22.1827 9.57429 22.138 9.57429 22.086V13.7073C9.57429 13.141 9.31472 12.3715 8.97017 11.9167L2.11204 2.8643C1.8018 2.45451 1.76256 2.16829 1.82934 2.03782C1.89638 1.90684 2.15284 1.76693 2.67277 1.76693H21.3257C21.8459 1.76693 22.1021 1.90684 22.1691 2.03782C22.2359 2.16829 22.1969 2.45425 21.8869 2.8643Z" fill="#505565"/>
</svg>
