<svg width="386" height="452" viewBox="0 0 386 452" fill="none" xmlns="http://www.w3.org/2000/svg">
<g opacity="0.05">
<path d="M196.575 214.013L386 129.763V372.299L196.575 452V214.013Z" fill="#B3B4B9"/>
<path d="M6.02399 127.61L196.576 214.148L196.557 451.957L6.02399 372.427V127.61Z" fill="#CECECE"/>
<path d="M6.45824 127.783L196.603 214.019L385.811 129.951L198.015 61.7321L6.45824 127.783Z" fill="#DADBDE"/>
<path d="M367.695 236.266L355.05 248.364C345.955 239.328 335.972 232.495 325.102 227.866C314.306 223.161 303.769 220.809 293.491 220.809C280.698 220.809 268.497 223.983 256.888 230.33C245.352 236.677 236.405 245.302 230.046 256.204C223.686 267.032 220.507 278.494 220.507 290.591C220.507 302.987 223.797 314.785 230.378 325.986C236.96 337.113 246.055 345.887 257.664 352.309C269.274 358.656 281.992 361.83 295.82 361.83C312.606 361.83 326.803 357.051 338.413 347.492C350.022 337.934 356.899 325.538 359.043 310.305H307.023V294.4H377.345C377.197 319.863 369.691 340.1 354.828 355.109C340.039 370.044 320.222 377.511 295.376 377.511C265.207 377.511 241.322 367.132 223.723 346.372C210.191 330.392 203.425 311.911 203.425 290.927C203.425 275.321 207.307 260.797 215.072 247.355C222.836 233.914 233.484 223.423 247.016 215.881C260.548 208.264 275.855 204.456 292.936 204.456C306.764 204.456 319.778 206.994 331.979 212.072C344.18 217.075 356.086 225.14 367.695 236.266Z" fill="white"/>
<path d="M226.955 34.0875C226.955 34.0875 194.759 59.5164 194.759 129.968C194.759 129.968 274.423 131.218 275.663 67.4392C275.663 67.4392 274.372 23.133 250.772 23.133C244.526 23.133 236.718 26.2364 226.955 34.0875ZM200.95 122.776C200.95 82.6383 219.295 68.1491 219.295 68.1491C245.877 46.7694 247.048 87.1451 247.048 87.1451C246.374 122.117 204.311 122.776 201.139 122.776C201.015 122.776 200.95 122.776 200.95 122.776" fill="#B3B4B9"/>
<path d="M34.9146 103.985C34.9146 103.985 14.1464 99.1032 8.42271 105.482C8.42271 105.482 51.8358 166.442 223.031 130.76C223.031 130.76 50.6781 149.452 0 39.5638C0 39.5638 5.63663 81.3251 34.9146 103.985Z" fill="#B3B4B9"/>
<path d="M96.5844 55.9346C98.1451 136.442 198.715 134.864 198.715 134.864C198.715 45.9376 158.075 13.8346 158.075 13.8346C145.75 3.92063 135.888 -5.05299e-05 128.002 -5.05299e-05C98.2095 -0.0033069 96.5844 55.9346 96.5844 55.9346V55.9346ZM132.708 80.8051C132.708 80.8051 134.185 29.8348 167.737 56.8203C167.737 56.8203 190.901 75.1162 190.901 125.787C190.901 125.787 190.821 125.789 190.664 125.789C186.664 125.789 133.555 124.958 132.708 80.8051Z" fill="#B3B4B9"/>
<path d="M149.304 133.259C344.569 150.524 385.071 76.9301 385.071 76.9301C377.88 70.5753 355.374 78.744 355.374 78.744C385.071 49.663 385.966 2.41793 385.966 2.41793C343.668 131.453 149.304 133.259 149.304 133.259Z" fill="#B3B4B9"/>
</g>
</svg>
