<svg width="24" height="24" viewBox="0 0 24 24" fill="none" xmlns="http://www.w3.org/2000/svg">
<g clip-path="url(#clip0)">
<path d="M11.776 22.447C11.847 22.482 11.924 22.5 12 22.5C12.076 22.5 12.153 22.482 12.224 22.447C12.562 22.278 20.5 18.215 20.5 10C20.5 5.313 16.687 1.5 12 1.5C7.313 1.5 3.5 5.313 3.5 10C3.5 18.215 11.438 22.278 11.776 22.447ZM12 2.5C16.136 2.5 19.5 5.864 19.5 10C19.5 16.85 13.271 20.715 12 21.432C10.729 20.715 4.5 16.85 4.5 10C4.5 5.864 7.864 2.5 12 2.5Z" fill="white"/>
<path d="M12 14.5C14.481 14.5 16.5 12.481 16.5 10C16.5 7.519 14.481 5.5 12 5.5C9.519 5.5 7.5 7.519 7.5 10C7.5 12.481 9.519 14.5 12 14.5ZM12 6.5C13.93 6.5 15.5 8.07 15.5 10C15.5 11.93 13.93 13.5 12 13.5C10.07 13.5 8.5 11.93 8.5 10C8.5 8.07 10.07 6.5 12 6.5Z" fill="white"/>
</g>
<defs>
<clipPath id="clip0">
<rect width="24" height="24" fill="white"/>
</clipPath>
</defs>
</svg>
