<svg width="24" height="24" viewBox="0 0 24 24" fill="none" xmlns="http://www.w3.org/2000/svg">
<path d="M23.3126 1.47407C22.9946 0.852874 22.2894 0.510742 21.3267 0.510742H2.67326C1.7103 0.510742 1.00511 0.852874 0.687846 1.47356C0.370066 2.0945 0.511937 2.8546 1.08722 3.61418L7.9456 12.6671C8.12567 12.9048 8.29638 13.4101 8.29638 13.7073V22.0857C8.29638 23.0503 8.93039 23.4895 9.5197 23.4895C9.81071 23.4895 10.1072 23.394 10.4008 23.2061L14.8336 20.3656C15.338 20.0418 15.7041 19.3783 15.7041 18.7869V13.7073C15.7041 13.4106 15.8745 12.9046 16.0548 12.6671L22.9135 3.61469C23.4885 2.85485 23.6304 2.09476 23.3126 1.47407ZM21.8874 2.8643L15.0288 11.9162C14.6845 12.371 14.4249 13.1413 14.4249 13.7073V18.7872C14.4249 18.9493 14.2731 19.2251 14.1349 19.3139L9.7021 22.1544C9.65351 22.1853 9.6148 22.2042 9.58595 22.2157C9.57972 22.1827 9.57478 22.138 9.57478 22.086V13.7073C9.57478 13.141 9.3152 12.3715 8.97066 11.9167L2.11253 2.8643C1.80229 2.45451 1.76305 2.16829 1.82983 2.03782C1.89687 1.90684 2.15333 1.76693 2.67326 1.76693H21.3262C21.8463 1.76693 22.1025 1.90684 22.1696 2.03782C22.2364 2.16829 22.1974 2.45425 21.8874 2.8643Z" fill="#505565"/>
</svg>
