<svg width="535" height="247" viewBox="0 0 535 247" fill="none" xmlns="http://www.w3.org/2000/svg">
<g clip-path="url(#clip0)">
<path d="M479.255 101.895H145.42C144.002 101.895 142.643 102.458 141.641 103.461C140.638 104.464 140.075 105.824 140.075 107.243C140.075 108.661 140.638 110.022 141.641 111.025C142.643 112.028 144.002 112.591 145.42 112.591H154.876V240.537C154.876 241.956 155.439 243.316 156.441 244.319C157.444 245.322 158.803 245.885 160.22 245.885C161.638 245.885 162.997 245.322 164 244.319C165.002 243.316 165.565 241.956 165.565 240.537L165.646 112.591H433.583L458.288 240.537C458.288 241.956 458.851 243.316 459.853 244.319C460.855 245.322 462.215 245.885 463.632 245.885C465.05 245.885 466.409 245.322 467.412 244.319C468.414 243.316 468.977 241.956 468.977 240.537L470.532 112.591H479.255C480.673 112.591 482.032 112.028 483.034 111.025C484.037 110.022 484.6 108.661 484.6 107.243C484.6 105.824 484.037 104.464 483.034 103.461C482.032 102.458 480.673 101.895 479.255 101.895Z" fill="#CCCCCC"/>
<path d="M73.3397 165.94C73.0298 166.156 72.7259 166.375 72.4228 166.601C69.4982 175.186 68.0129 184.208 68.0289 193.292C68.0278 194.342 68.0503 195.39 68.0965 196.435C68.4192 204.274 69.8925 212.02 72.4677 219.418C72.6036 219.807 72.7419 220.195 72.8827 220.581C72.9837 220.858 73.0863 221.138 73.1964 221.412C73.3065 221.55 73.415 221.686 73.5234 221.822C73.5309 221.827 73.5376 221.838 73.5452 221.843C73.5889 221.898 73.6326 221.953 73.6721 222.007C73.8596 222.239 74.0495 222.47 74.2369 222.703L74.0886 222.72L73.7168 222.761L73.7185 222.763C73.8435 222.755 73.9711 222.745 74.097 222.732C74.1429 222.73 74.1929 222.729 74.2395 222.723C74.2813 222.72 74.3254 222.716 74.3672 222.713C79.7366 222.317 85.2262 221.791 90.0184 219.334C95.0342 216.76 99.1514 211.506 98.6756 205.824C98.6111 205.08 98.4665 204.346 98.2443 203.634C98.1516 203.336 98.0447 203.045 97.9312 202.754C97.2396 200.975 96.0936 199.416 94.6111 198.235C93.1286 197.055 91.3631 196.296 89.496 196.038C87.6289 195.779 85.7277 196.03 83.9878 196.764C82.248 197.499 80.7322 198.69 79.5964 200.216C80.8016 194.295 86.9676 191.018 92.5604 188.94C98.1574 186.863 104.461 184.67 107.126 179.263C108.614 176.253 108.5 172.832 107.301 169.723C107.265 169.631 107.227 169.535 107.186 169.441C105.689 165.788 102.888 162.842 99.3435 161.193C92.7083 158.232 84.8749 159.747 78.3565 162.964C76.6125 163.826 74.9354 164.82 73.3397 165.94Z" fill="#F2F2F2"/>
<path d="M93.9574 202.907C88.783 203.621 83.9755 205.98 80.2458 209.636C77.0707 212.783 74.8016 216.726 73.6767 221.052C73.6111 221.299 73.5523 221.546 73.4978 221.793C73.3551 221.55 73.2159 221.3 73.0784 221.053C72.9899 220.894 72.8997 220.733 72.8137 220.573C72.9166 220.851 73.0211 221.132 73.1333 221.407C73.2455 221.546 73.356 221.682 73.4664 221.818C73.4741 221.824 73.4809 221.834 73.4887 221.84C73.5332 221.895 73.5777 221.95 73.618 222.004C73.8089 222.237 74.0025 222.469 74.1933 222.702L74.0423 222.72L73.6635 222.761L73.6652 222.763C73.7926 222.755 73.9225 222.745 74.0508 222.732C74.0975 222.73 74.1485 222.729 74.196 222.723C74.2083 222.648 74.2249 222.574 74.2414 222.5C75.337 216.929 78.4124 211.943 82.8994 208.463C87.3863 204.982 92.9816 203.243 98.6516 203.566C98.5571 203.268 98.4482 202.975 98.3325 202.684C96.8704 202.631 95.4065 202.705 93.9574 202.907Z" fill="white"/>
<path d="M75.7125 181.794C73.7377 183.427 72.0108 185.341 70.5866 187.476C69.8457 188.613 69.2117 189.818 68.6929 191.073C68.4465 191.656 68.2251 192.254 68.0288 192.858C68.0277 193.897 68.0502 194.934 68.0963 195.969C68.2504 195.178 68.4465 194.396 68.6836 193.627C68.806 193.205 68.9443 192.79 69.0926 192.38C70.7568 187.783 73.9807 184.067 77.8503 181.176C81.9971 178.083 86.7215 175.688 91.536 173.847C96.4696 171.952 101.616 170.673 106.859 170.038C106.977 170.022 107.085 169.962 107.161 169.869C107.236 169.776 107.272 169.657 107.263 169.537C107.262 169.433 107.221 169.333 107.148 169.258C107.109 169.224 107.063 169.199 107.013 169.185C106.963 169.172 106.91 169.17 106.86 169.181C106.213 169.259 105.567 169.34 104.923 169.439C99.5602 170.243 94.3179 171.715 89.3167 173.819C84.4884 175.845 79.7349 178.402 75.7125 181.794Z" fill="white"/>
<path d="M65.7071 246.401H20.9939C18.3133 246.398 15.7433 245.332 13.8478 243.436C11.9523 241.541 10.8861 238.971 10.8831 236.29V123.111C10.8861 120.43 11.9523 117.86 13.8478 115.965C15.7433 114.069 18.3133 113.003 20.9939 113H65.7071C68.3878 113.003 70.9577 114.069 72.8533 115.965C74.7488 117.86 75.815 120.43 75.818 123.111V236.29C75.815 238.971 74.7488 241.541 72.8533 243.436C70.9577 245.332 68.3878 246.398 65.7071 246.401Z" fill="#3F3D56"/>
<path d="M65.2068 116.139H60.2298C59.7856 116.139 59.3597 116.316 59.0456 116.63C58.7315 116.944 58.5549 117.37 58.5544 117.814C58.5536 118.723 58.1924 119.593 57.5502 120.235C56.908 120.878 56.0373 121.239 55.1292 121.24H30.7874C29.8792 121.239 29.0085 120.878 28.3663 120.235C27.7241 119.593 27.363 118.723 27.3621 117.814C27.3617 117.37 27.185 116.944 26.8709 116.63C26.5568 116.316 26.1309 116.139 25.6867 116.139H21.2982C19.2652 116.142 17.3161 116.95 15.8786 118.388C14.441 119.826 13.6322 121.775 13.6296 123.808V236.182C13.6322 238.215 14.441 240.164 15.8786 241.602C17.3161 243.04 19.2652 243.848 21.2982 243.851H65.2068C67.2399 243.848 69.1889 243.04 70.6265 241.602C72.0641 240.164 72.8728 238.215 72.8754 236.182V123.808C72.8728 121.775 72.0641 119.826 70.6265 118.388C69.1889 116.95 67.2399 116.142 65.2068 116.139Z" fill="white"/>
<path d="M49.0889 118.395H35.3564C35.2263 118.395 35.1016 118.343 35.0096 118.251C34.9176 118.159 34.866 118.034 34.866 117.904C34.866 117.774 34.9176 117.649 35.0096 117.557C35.1016 117.465 35.2263 117.414 35.3564 117.414H49.0889C49.2189 117.414 49.3437 117.465 49.4357 117.557C49.5276 117.649 49.5793 117.774 49.5793 117.904C49.5793 118.034 49.5276 118.159 49.4357 118.251C49.3437 118.343 49.2189 118.395 49.0889 118.395Z" fill="white"/>
<path d="M51.2464 118.297C51.4631 118.297 51.6387 118.121 51.6387 117.904C51.6387 117.688 51.4631 117.512 51.2464 117.512C51.0297 117.512 50.854 117.688 50.854 117.904C50.854 118.121 51.0297 118.297 51.2464 118.297Z" fill="white"/>
<path d="M76.2102 157.631C75.9761 157.63 75.7517 157.537 75.5862 157.372C75.4207 157.206 75.3277 156.982 75.3274 156.748V139.484C75.3274 139.25 75.4204 139.026 75.586 138.86C75.7515 138.694 75.9761 138.601 76.2102 138.601C76.4443 138.601 76.6689 138.694 76.8344 138.86C77 139.026 77.093 139.25 77.093 139.484V156.748C77.0927 156.982 76.9996 157.206 76.8341 157.372C76.6686 157.537 76.4442 157.63 76.2102 157.631Z" fill="#3F3D56"/>
<path d="M10.8828 144.879C10.6487 144.879 10.4244 144.786 10.2589 144.62C10.0934 144.455 10.0003 144.231 10 143.997V140.073C10 139.839 10.093 139.614 10.2586 139.449C10.4241 139.283 10.6487 139.19 10.8828 139.19C11.1169 139.19 11.3415 139.283 11.507 139.449C11.6726 139.614 11.7656 139.839 11.7656 140.073V143.997C11.7653 144.231 11.6723 144.455 11.5068 144.62C11.3413 144.786 11.1169 144.879 10.8828 144.879Z" fill="#3F3D56"/>
<path d="M10.8828 152.138C10.6487 152.138 10.4244 152.045 10.2589 151.879C10.0934 151.714 10.0003 151.489 10 151.255V147.332C10 147.097 10.093 146.873 10.2586 146.707C10.4241 146.542 10.6487 146.449 10.8828 146.449C11.1169 146.449 11.3415 146.542 11.507 146.707C11.6726 146.873 11.7656 147.097 11.7656 147.332V151.255C11.7653 151.489 11.6723 151.714 11.5068 151.879C11.3413 152.045 11.1169 152.138 10.8828 152.138Z" fill="#3F3D56"/>
<path d="M203.285 78.064V100.712H146.581C145.095 100.764 143.613 100.522 142.22 100.001C140.827 99.4797 139.551 98.689 138.464 97.6741C137.376 96.6591 136.499 95.4398 135.883 94.0857C135.266 92.7316 134.922 91.2692 134.871 89.7821C134.819 88.295 135.06 86.8122 135.581 85.4185C136.102 84.0248 136.892 82.7474 137.907 81.6593C138.921 80.5712 140.14 79.6936 141.493 79.0767C142.846 78.4599 144.307 78.1157 145.793 78.064C146.056 78.0548 146.318 78.0548 146.581 78.064L203.285 78.064Z" fill="#F2F2F2"/>
<path d="M204.678 100.538C204.678 100.769 204.586 100.99 204.423 101.154C204.26 101.317 204.039 101.409 203.808 101.409H145.571C142.409 101.407 139.378 100.148 137.143 97.9105C134.909 95.6727 133.653 92.6385 133.653 89.4749C133.653 86.3113 134.909 83.2771 137.143 81.0393C139.378 78.8015 142.409 77.5432 145.571 77.541H203.808C203.922 77.5407 204.036 77.563 204.142 77.6067C204.247 77.6503 204.344 77.7144 204.425 77.7954C204.506 77.8763 204.57 77.9724 204.614 78.0782C204.658 78.1841 204.681 78.2975 204.681 78.4121C204.681 78.5267 204.658 78.6402 204.614 78.746C204.57 78.8518 204.506 78.948 204.425 79.0289C204.344 79.1098 204.247 79.1739 204.142 79.2175C204.036 79.2612 203.922 79.2835 203.808 79.2832H145.571C142.872 79.2873 140.286 80.3629 138.379 82.2737C136.472 84.1846 135.401 86.7746 135.401 89.4749C135.401 92.1753 136.472 94.7652 138.379 96.6761C140.286 98.587 142.872 99.6626 145.571 99.6666H203.808C204.039 99.6667 204.26 99.7585 204.423 99.9219C204.586 100.085 204.678 100.307 204.678 100.538Z" fill="#B76E79"/>
<path d="M203.286 83.2903H142.35C142.304 83.2906 142.26 83.2725 142.227 83.2402C142.194 83.2078 142.176 83.1638 142.175 83.1177C142.175 83.0716 142.193 83.0272 142.225 82.9943C142.257 82.9613 142.301 82.9425 142.347 82.9419H203.286C203.332 82.9424 203.375 82.9609 203.408 82.9935C203.44 83.0261 203.458 83.0702 203.458 83.1161C203.458 83.162 203.44 83.2061 203.408 83.2387C203.375 83.2713 203.332 83.2899 203.286 83.2903Z" fill="#CCCCCC"/>
<path d="M203.286 87.4715H142.35C142.304 87.4717 142.26 87.4537 142.227 87.4213C142.194 87.389 142.176 87.3449 142.175 87.2989C142.175 87.2528 142.193 87.2084 142.225 87.1754C142.257 87.1425 142.301 87.1237 142.347 87.123H203.286C203.332 87.1235 203.375 87.1421 203.408 87.1747C203.44 87.2073 203.458 87.2514 203.458 87.2973C203.458 87.3432 203.44 87.3872 203.408 87.4198C203.375 87.4524 203.332 87.471 203.286 87.4715Z" fill="#CCCCCC"/>
<path d="M203.286 91.6531H142.35C142.304 91.6534 142.26 91.6353 142.227 91.603C142.194 91.5706 142.176 91.5266 142.175 91.4805C142.175 91.4344 142.193 91.39 142.225 91.3571C142.257 91.3241 142.301 91.3053 142.347 91.3047H203.286C203.332 91.3051 203.375 91.3237 203.408 91.3563C203.44 91.389 203.458 91.433 203.458 91.4789C203.458 91.5248 203.44 91.5689 203.408 91.6015C203.375 91.6341 203.332 91.6527 203.286 91.6531Z" fill="#CCCCCC"/>
<path d="M203.286 95.8338H142.35C142.304 95.834 142.26 95.816 142.227 95.7836C142.194 95.7513 142.176 95.7072 142.175 95.6612C142.175 95.6151 142.193 95.5707 142.225 95.5377C142.257 95.5048 142.301 95.486 142.347 95.4854H203.286C203.332 95.4858 203.375 95.5044 203.408 95.537C203.44 95.5696 203.458 95.6137 203.458 95.6596C203.458 95.7055 203.44 95.7495 203.408 95.7821C203.375 95.8148 203.332 95.8333 203.286 95.8338Z" fill="#CCCCCC"/>
<path d="M192.596 54.2027V76.8509H135.891C132.89 76.9554 129.97 75.8626 127.774 73.8127C125.578 71.7629 124.286 68.9241 124.181 65.9208C124.077 62.9174 125.169 59.9956 127.217 57.798C129.266 55.6004 132.103 54.3071 135.104 54.2027C135.366 54.1935 135.629 54.1935 135.891 54.2027H192.596Z" fill="#F2F2F2"/>
<path d="M193.989 76.6764C193.989 76.9074 193.897 77.1289 193.734 77.2922C193.57 77.4556 193.349 77.5474 193.118 77.5475H134.881C131.719 77.5475 128.685 76.2902 126.449 74.0521C124.212 71.8141 122.956 68.7786 122.956 65.6136C122.956 62.4485 124.212 59.4131 126.449 57.175C128.685 54.937 131.719 53.6797 134.881 53.6797H193.118C193.233 53.6797 193.346 53.7022 193.451 53.746C193.557 53.7898 193.653 53.8539 193.734 53.9348C193.815 54.0157 193.879 54.1117 193.923 54.2174C193.966 54.3231 193.989 54.4364 193.989 54.5508C193.989 54.6652 193.966 54.7784 193.923 54.8841C193.879 54.9898 193.815 55.0858 193.734 55.1667C193.653 55.2476 193.557 55.3118 193.451 55.3555C193.346 55.3993 193.233 55.4219 193.118 55.4219H134.881C132.18 55.4219 129.59 56.4956 127.68 58.4069C125.77 60.3183 124.697 62.9106 124.697 65.6136C124.697 68.3166 125.77 70.9089 127.68 72.8202C129.59 74.7315 132.18 75.8053 134.881 75.8053H193.118C193.349 75.8054 193.57 75.8972 193.734 76.0605C193.897 76.2239 193.989 76.4454 193.989 76.6764Z" fill="#3F3D56"/>
<path d="M192.596 59.429H131.661C131.615 59.4292 131.571 59.4112 131.538 59.3789C131.505 59.3465 131.486 59.3025 131.486 59.2564C131.485 59.2103 131.503 59.1659 131.535 59.133C131.568 59.1 131.612 59.0812 131.658 59.0806H192.596C192.642 59.081 192.686 59.0996 192.718 59.1322C192.751 59.1648 192.769 59.2089 192.769 59.2548C192.769 59.3007 192.751 59.3447 192.718 59.3774C192.686 59.41 192.642 59.4285 192.596 59.429Z" fill="#CCCCCC"/>
<path d="M192.596 63.6102H131.661C131.615 63.6104 131.571 63.5924 131.538 63.56C131.505 63.5277 131.486 63.4836 131.486 63.4376C131.485 63.3915 131.503 63.3471 131.535 63.3141C131.568 63.2812 131.612 63.2623 131.658 63.2617H192.596C192.642 63.2622 192.686 63.2807 192.718 63.3134C192.751 63.346 192.769 63.39 192.769 63.4359C192.769 63.4818 192.751 63.5259 192.718 63.5585C192.686 63.5911 192.642 63.6097 192.596 63.6102Z" fill="#CCCCCC"/>
<path d="M192.596 67.7918H131.661C131.615 67.792 131.571 67.774 131.538 67.7417C131.505 67.7093 131.486 67.6653 131.486 67.6192C131.485 67.5731 131.503 67.5287 131.535 67.4958C131.568 67.4628 131.612 67.444 131.658 67.4434H192.596C192.642 67.4438 192.686 67.4624 192.718 67.495C192.751 67.5276 192.769 67.5717 192.769 67.6176C192.769 67.6635 192.751 67.7075 192.718 67.7402C192.686 67.7728 192.642 67.7913 192.596 67.7918Z" fill="#CCCCCC"/>
<path d="M192.596 71.9729H131.661C131.615 71.9732 131.571 71.9552 131.538 71.9228C131.505 71.8905 131.486 71.8464 131.486 71.8003C131.485 71.7542 131.503 71.7099 131.535 71.6769C131.568 71.644 131.612 71.6251 131.658 71.6245H192.596C192.642 71.625 192.686 71.6435 192.718 71.6761C192.751 71.7088 192.769 71.7528 192.769 71.7987C192.769 71.8446 192.751 71.8887 192.718 71.9213C192.686 71.9539 192.642 71.9725 192.596 71.9729Z" fill="#CCCCCC"/>
<path d="M258.561 182.038V162.29C258.561 161.417 258.214 160.58 257.597 159.963C256.981 159.346 256.144 158.999 255.272 158.999H180.447C179.574 158.999 178.738 159.346 178.121 159.963C177.504 160.58 177.158 161.417 177.158 162.29V182.038H258.561Z" fill="#CCCCCC"/>
<path d="M258.561 189.442H177.158V214.949H258.561V189.442Z" fill="#CCCCCC"/>
<path d="M177.158 222.354V242.102C177.158 242.975 177.504 243.812 178.121 244.429C178.738 245.046 179.574 245.393 180.447 245.393H255.272C256.144 245.393 256.981 245.046 257.597 244.429C258.214 243.812 258.561 242.975 258.561 242.102V222.354H177.158Z" fill="#CCCCCC"/>
<path d="M217.448 173.81C218.811 173.81 219.915 172.705 219.915 171.341C219.915 169.978 218.811 168.873 217.448 168.873C216.086 168.873 214.981 169.978 214.981 171.341C214.981 172.705 216.086 173.81 217.448 173.81Z" fill="white"/>
<path d="M217.448 206.722C218.811 206.722 219.915 205.617 219.915 204.254C219.915 202.89 218.811 201.785 217.448 201.785C216.086 201.785 214.981 202.89 214.981 204.254C214.981 205.617 216.086 206.722 217.448 206.722Z" fill="white"/>
<path d="M217.581 238.937C218.943 238.937 220.047 237.832 220.047 236.468C220.047 235.105 218.943 234 217.581 234C216.218 234 215.114 235.105 215.114 236.468C215.114 237.832 216.218 238.937 217.581 238.937Z" fill="white"/>
<path d="M249.332 136.483V159.131H192.627C189.627 159.234 186.709 158.14 184.515 156.09C182.321 154.041 181.029 151.203 180.925 148.201C180.82 145.199 181.911 142.279 183.958 140.081C186.005 137.884 188.839 136.59 191.839 136.483C192.102 136.474 192.365 136.474 192.627 136.483H249.332Z" fill="#F2F2F2"/>
<path d="M250.724 158.957C250.724 159.188 250.632 159.41 250.469 159.573C250.306 159.736 250.084 159.828 249.854 159.828H191.617C188.455 159.829 185.422 158.573 183.185 156.336C180.948 154.1 179.69 151.066 179.688 147.902C179.686 144.737 180.94 141.702 183.174 139.462C185.409 137.223 188.44 135.963 191.603 135.96H249.854C249.968 135.96 250.082 135.982 250.187 136.026C250.293 136.07 250.39 136.134 250.471 136.215C250.552 136.296 250.616 136.392 250.66 136.498C250.704 136.604 250.726 136.717 250.726 136.832C250.726 136.946 250.704 137.06 250.66 137.165C250.616 137.271 250.552 137.367 250.471 137.448C250.39 137.529 250.293 137.593 250.187 137.637C250.082 137.681 249.968 137.703 249.854 137.703H191.617C188.918 137.706 186.331 138.781 184.424 140.692C182.516 142.603 181.445 145.194 181.445 147.894C181.445 150.595 182.516 153.185 184.424 155.096C186.331 157.007 188.918 158.083 191.617 158.086H249.854C250.084 158.086 250.306 158.178 250.469 158.341C250.632 158.505 250.724 158.726 250.724 158.957Z" fill="#3F3D56"/>
<path d="M249.332 141.71H188.397C188.351 141.71 188.306 141.692 188.274 141.66C188.241 141.627 188.222 141.583 188.222 141.537C188.221 141.491 188.239 141.447 188.271 141.414C188.304 141.381 188.347 141.362 188.394 141.361H249.332C249.378 141.362 249.422 141.38 249.454 141.413C249.486 141.446 249.504 141.49 249.504 141.536C249.504 141.581 249.486 141.626 249.454 141.658C249.422 141.691 249.378 141.709 249.332 141.71H249.332Z" fill="#CCCCCC"/>
<path d="M249.332 145.89H188.397C188.351 145.891 188.306 145.873 188.274 145.84C188.241 145.808 188.222 145.764 188.222 145.718C188.221 145.672 188.239 145.627 188.271 145.594C188.304 145.561 188.347 145.543 188.394 145.542H249.332C249.378 145.542 249.422 145.561 249.454 145.594C249.486 145.626 249.504 145.67 249.504 145.716C249.504 145.762 249.486 145.806 249.454 145.839C249.422 145.871 249.378 145.89 249.332 145.89H249.332Z" fill="#CCCCCC"/>
<path d="M249.332 150.072H188.397C188.351 150.072 188.306 150.054 188.274 150.022C188.241 149.99 188.222 149.946 188.222 149.899C188.221 149.853 188.239 149.809 188.271 149.776C188.304 149.743 188.347 149.724 188.394 149.724H249.332C249.378 149.724 249.422 149.743 249.454 149.775C249.486 149.808 249.504 149.852 249.504 149.898C249.504 149.944 249.486 149.988 249.454 150.02C249.422 150.053 249.378 150.072 249.332 150.072H249.332Z" fill="#CCCCCC"/>
<path d="M249.332 154.253H188.397C188.351 154.253 188.306 154.235 188.274 154.203C188.241 154.171 188.222 154.127 188.222 154.081C188.221 154.035 188.239 153.99 188.271 153.957C188.304 153.924 188.347 153.905 188.394 153.905H249.332C249.378 153.905 249.422 153.924 249.454 153.956C249.486 153.989 249.504 154.033 249.504 154.079C249.504 154.125 249.486 154.169 249.454 154.202C249.422 154.234 249.378 154.253 249.332 154.253H249.332Z" fill="#CCCCCC"/>
<path d="M182.735 46.6468H156.9C156.655 46.6466 156.413 46.7029 156.193 46.8114L149.673 50.0779C149.458 50.1691 149.275 50.3216 149.146 50.5162C149.018 50.7107 148.949 50.9389 148.949 51.1722C148.949 51.4055 149.018 51.6337 149.146 51.8283C149.275 52.0228 149.458 52.1753 149.673 52.2665L156.193 55.533C156.413 55.6415 156.655 55.6978 156.9 55.6976H182.735C183.091 55.7182 183.441 55.5977 183.709 55.362C183.977 55.1264 184.141 54.7947 184.166 54.4387V47.9057C184.141 47.5497 183.977 47.218 183.709 46.9824C183.441 46.7467 183.091 46.6262 182.735 46.6468Z" fill="#3F3D56"/>
<path d="M184.166 47.9057V54.4387C184.141 54.7947 183.976 55.1264 183.709 55.3621C183.441 55.5977 183.091 55.7183 182.735 55.6977H177.588V46.6468H182.735C183.091 46.6262 183.441 46.7468 183.709 46.9824C183.976 47.218 184.141 47.5497 184.166 47.9057Z" fill="#B76E79"/>
<path d="M498.502 198.635C500.691 199.405 503.042 199.598 505.327 199.195C507.612 198.792 509.755 197.807 511.55 196.335C516.119 192.497 517.552 186.174 518.718 180.318C519.867 174.546 521.017 168.773 522.166 163L514.947 167.974C509.755 171.551 504.447 175.243 500.852 180.425C497.257 185.606 495.688 192.679 498.576 198.286" fill="#EADE7F"/>
<path d="M499.12 219.602C498.389 214.276 497.638 208.882 498.15 203.499C498.605 198.718 500.063 194.049 503.03 190.22C504.605 188.192 506.522 186.454 508.694 185.085C509.26 184.727 509.781 185.625 509.218 185.981C505.46 188.358 502.553 191.868 500.917 196.004C499.109 200.604 498.819 205.618 499.131 210.504C499.319 213.459 499.718 216.394 500.12 219.326C500.152 219.459 500.132 219.599 500.065 219.717C499.998 219.836 499.888 219.924 499.758 219.965C499.625 220.001 499.484 219.983 499.364 219.915C499.245 219.847 499.157 219.735 499.12 219.602L499.12 219.602Z" fill="#EADE7F"/>
<path d="M506.157 210.179C507.096 211.606 508.387 212.768 509.905 213.552C511.423 214.336 513.117 214.716 514.824 214.654C519.211 214.446 522.868 211.382 526.16 208.473L535.898 199.87L529.453 199.561C524.818 199.339 520.064 199.132 515.65 200.562C511.235 201.992 507.164 205.435 506.357 210.007" fill="#EADE7F"/>
<path d="M497.054 222.665C500.571 216.437 504.651 209.517 511.94 207.305C513.966 206.692 516.092 206.472 518.201 206.658C518.865 206.715 518.699 207.741 518.036 207.683C514.5 207.39 510.972 208.324 508.044 210.328C505.227 212.247 503.034 214.915 501.177 217.744C500.04 219.477 499.021 221.283 498.002 223.087C497.677 223.664 496.725 223.248 497.054 222.665L497.054 222.665Z" fill="#EADE7F"/>
<path d="M491.419 229.218C491.537 227.844 492.03 226.529 492.844 225.416C493.658 224.303 494.761 223.435 496.034 222.906V219.306H502.068V223.02C503.278 223.575 504.32 224.441 505.086 225.53C505.853 226.619 506.317 227.891 506.432 229.218L507.851 245.723H490L491.419 229.218Z" fill="#EADE7F"/>
<path d="M328.921 101.38L326.194 100.231L324.322 86.5474H299.403L297.375 100.175L294.935 101.396C294.818 101.454 294.724 101.551 294.669 101.669C294.614 101.787 294.6 101.921 294.63 102.048C294.66 102.175 294.732 102.288 294.834 102.369C294.936 102.451 295.063 102.495 295.194 102.495H328.697C328.83 102.495 328.96 102.448 329.064 102.364C329.167 102.279 329.238 102.161 329.265 102.029C329.291 101.898 329.271 101.762 329.209 101.644C329.146 101.525 329.045 101.432 328.921 101.38Z" fill="#E6E6E6"/>
<path d="M373.203 88.3681H250.794C250.152 88.3666 249.537 88.1103 249.083 87.6554C248.629 87.2004 248.375 86.584 248.375 85.9413V68.6685H375.623V85.9413C375.623 86.584 375.368 87.2004 374.915 87.6554C374.461 88.1103 373.846 88.3666 373.203 88.3681Z" fill="#CCCCCC"/>
<path d="M375.751 76.8323H248.263V2.92542C248.264 2.14981 248.572 1.40622 249.12 0.85779C249.669 0.30936 250.412 0.000867859 251.187 0H372.828C373.603 0.000867844 374.346 0.309361 374.894 0.85779C375.442 1.40622 375.751 2.1498 375.751 2.92542L375.751 76.8323Z" fill="#3F3D56"/>
<path d="M368.137 71.4683H255.878C255.28 71.4677 254.707 71.2299 254.285 70.807C253.862 70.3842 253.625 69.811 253.624 69.213V7.61969C253.625 7.02173 253.862 6.44845 254.285 6.02562C254.707 5.60279 255.28 5.36494 255.878 5.36426H368.137C368.735 5.36494 369.308 5.60279 369.73 6.02562C370.153 6.44845 370.391 7.02173 370.391 7.61969V69.213C370.391 69.811 370.153 70.3842 369.73 70.807C369.308 71.2299 368.735 71.4677 368.137 71.4683Z" fill="white"/>
<path d="M338.57 93.2016C339.295 92.5317 340.157 92.029 341.097 91.7288C342.037 91.4287 343.032 91.3384 344.01 91.4644C344.989 91.5903 345.928 91.9295 346.761 92.4579C347.595 92.9863 348.302 93.6912 348.834 94.5228L364.018 91.8214L367.909 100.655L346.413 104.168C344.957 104.97 343.259 105.209 341.639 104.841C340.019 104.473 338.59 103.523 337.623 102.171C336.657 100.819 336.219 99.1594 336.393 97.5063C336.568 95.8532 337.342 94.3216 338.57 93.2016Z" fill="#FFB6B6"/>
<path d="M352.628 104.48L368.458 104.283L370.462 104.255L402.669 103.849C402.669 103.849 411.415 95.4999 419.03 86.9036L417.963 79.1778C416.922 71.5956 413.163 64.6503 407.386 59.6343C396.479 66.9274 390.154 81.3634 390.154 81.3634L370.184 86.1429L368.186 86.6209L355.778 89.588L352.628 104.48Z" fill="#B76E79"/>
<path d="M433.664 151.966H404.115C404.115 153.233 371.815 154.262 371.815 154.262C371.102 154.798 370.453 155.414 369.879 156.098C368.155 158.156 367.212 160.757 367.218 163.442V165.279C367.219 168.322 368.428 171.24 370.578 173.392C372.729 175.544 375.645 176.753 378.686 176.755H433.664C436.705 176.752 439.62 175.542 441.771 173.39C443.921 171.239 445.13 168.321 445.133 165.279V163.442C445.128 160.4 443.919 157.483 441.769 155.332C439.619 153.181 436.705 151.971 433.664 151.966Z" fill="#E4E4E4"/>
<path d="M412.176 176.298H400.249V245.188H412.176V176.298Z" fill="#E4E4E4"/>
<path d="M366.303 244.769C366.303 246.059 384.376 245.268 406.671 245.268C428.966 245.268 447.04 246.059 447.04 244.769C447.04 243.48 428.966 233.253 406.671 233.253C384.376 233.253 366.303 243.48 366.303 244.769Z" fill="#E4E4E4"/>
<path d="M358.291 236.898L349.414 236.897L345.191 202.636L358.292 202.636L358.291 236.898Z" fill="#FFB6B6"/>
<path d="M360.555 245.508L331.933 245.507V245.144C331.933 242.188 333.107 239.352 335.196 237.262C337.285 235.171 340.119 233.997 343.073 233.997H343.074L360.555 233.997L360.555 245.508Z" fill="#2F2E41"/>
<path d="M332.055 236.898L323.178 236.897L318.956 202.636L332.056 202.636L332.055 236.898Z" fill="#FFB6B6"/>
<path d="M334.318 245.508L305.696 245.507V245.144C305.696 242.188 306.87 239.352 308.96 237.262C311.049 235.171 313.882 233.997 316.837 233.997H316.837L334.319 233.997L334.318 245.508Z" fill="#2F2E41"/>
<path d="M411.57 39.6513C420.094 39.6513 427.004 32.7367 427.004 24.207C427.004 15.6774 420.094 8.7627 411.57 8.7627C403.046 8.7627 396.136 15.6774 396.136 24.207C396.136 32.7367 403.046 39.6513 411.57 39.6513Z" fill="#FFB6B6"/>
<path d="M436.55 130.026C436.55 130.026 441.728 157.428 422.025 160.917C402.321 164.406 373.878 166.859 373.878 166.859L361.106 226.491L343.946 224.958C343.946 224.958 346.228 153.174 351.84 147.558C357.453 141.942 392.925 125.126 392.925 125.126L436.55 130.026Z" fill="#2F2E41"/>
<path d="M398.067 118.542L389.449 127.192C389.449 127.192 327.226 137.221 324.826 151.603C321.202 173.314 316.921 220.529 316.921 220.529L335.629 219.125L342.965 165.455L372.898 158.642L406.953 140.07L398.067 118.542Z" fill="#2F2E41"/>
<path d="M426.422 14.9882C424.898 12.1117 422.962 6.37888 419.887 5.31566C418.179 4.74903 416.414 4.37277 414.624 4.19372L409.397 6.20541L412.242 3.99144C411.688 3.95842 411.134 3.93143 410.581 3.91046L407.055 5.26776L408.859 3.8635C405.571 3.82973 402.177 4.17182 399.63 6.17468C397.458 7.88212 395.306 14.3502 394.958 17.0919C394.586 19.7148 394.716 22.3845 395.342 24.9586L396.235 25.8084C396.547 25.0916 396.782 24.3434 396.935 23.5765C397.256 22.1437 397.871 20.7933 398.741 19.6115C399.612 18.4297 400.719 17.4423 401.992 16.7123L402.04 16.6848C403.538 15.8412 405.356 15.8801 407.074 15.942L415.232 16.2357C417.195 16.3064 419.308 16.4307 420.839 17.6627C421.811 18.5716 422.576 19.6801 423.08 20.9124C423.841 22.4481 425.327 28.2404 425.327 28.2404C425.327 28.2404 426.167 27.147 426.57 27.9608C427.216 25.8376 427.609 23.6453 427.741 21.4297C427.869 19.2042 427.414 16.9837 426.422 14.9882Z" fill="#2F2E41"/>
<path d="M480.403 30.9894C479.418 31.0543 478.46 31.3344 477.595 31.81C476.731 32.2855 475.981 32.9451 475.398 33.742C474.816 34.539 474.415 35.4541 474.225 36.4228C474.034 37.3915 474.058 38.3902 474.295 39.3487L461.883 48.5099L465.607 57.4151L482.953 44.2313C484.535 43.7266 485.878 42.6585 486.726 41.2293C487.575 39.8001 487.87 38.1092 487.555 36.477C487.241 34.8448 486.339 33.3846 485.021 32.3732C483.703 31.3618 482.06 30.8694 480.403 30.9894Z" fill="#FFB6B6"/>
<path d="M478.405 49.6925L447.292 84.2709C447.292 84.2709 432.413 79.5045 420.905 74.337L415.736 58.4486C414.535 54.7627 414.023 50.8872 414.224 47.0157C430.177 42.768 448.731 58.5731 448.731 58.5731L472.021 40.3179L478.405 49.6925Z" fill="#B76E79"/>
<path d="M405.805 132.58C400.254 130.661 394.514 128.677 388.323 127.932L388.057 127.9L388.13 127.643C394.539 105.125 392.939 90.7199 389.799 69.0822C389.131 64.415 389.989 59.6567 392.245 55.5177C394.502 51.3786 398.035 48.0807 402.318 46.1162L402.356 46.099L420.039 44.9746L420.079 44.9722L432.94 48.757C434.79 49.3055 436.409 50.4459 437.549 52.0033C438.69 53.5607 439.289 55.4494 439.254 57.3798C439.114 64.4958 439.41 72.4406 439.723 80.8516C440.425 99.7213 441.15 119.234 437.032 131.894L437.011 131.96L436.956 132.003C433.17 135.088 428.428 136.755 423.546 136.717C417.773 136.717 411.883 134.681 405.805 132.58Z" fill="#B76E79"/>
<path d="M534.227 247H0.773123C0.568079 247 0.371434 246.895 0.226446 246.707C0.0814575 246.52 0 246.265 0 246C0 245.735 0.0814575 245.48 0.226446 245.293C0.371434 245.105 0.568079 245 0.773123 245H534.227C534.432 245 534.629 245.105 534.774 245.293C534.919 245.48 535 245.735 535 246C535 246.265 534.919 246.52 534.774 246.707C534.629 246.895 534.432 247 534.227 247Z" fill="#CCCCCC"/>
</g>
<defs>
<clipPath id="clip0">
<rect width="535" height="247" fill="white"/>
</clipPath>
</defs>
</svg>
