<svg width="24" height="24" viewBox="0 0 24 24" fill="none" xmlns="http://www.w3.org/2000/svg">
<path d="M22 11.9141H2C1.173 11.9141 0.5 11.2411 0.5 10.4141V7.41406C0.5 6.58706 1.173 5.91406 2 5.91406H22C22.827 5.91406 23.5 6.58706 23.5 7.41406V10.4141C23.5 11.2411 22.827 11.9141 22 11.9141ZM2 6.91406C1.724 6.91406 1.5 7.13806 1.5 7.41406V10.4141C1.5 10.6901 1.724 10.9141 2 10.9141H22C22.276 10.9141 22.5 10.6901 22.5 10.4141V7.41406C22.5 7.13806 22.276 6.91406 22 6.91406H2Z" fill="#505565"/>
<path d="M20 22.9141H4C2.622 22.9141 1.5 21.7921 1.5 20.4141V11.4141C1.5 11.1381 1.724 10.9141 2 10.9141H22C22.276 10.9141 22.5 11.1381 22.5 11.4141V20.4141C22.5 21.7921 21.378 22.9141 20 22.9141ZM2.5 11.9141V20.4141C2.5 21.2411 3.173 21.9141 4 21.9141H20C20.827 21.9141 21.5 21.2411 21.5 20.4141V11.9141H2.5Z" fill="#505565"/>
<path d="M12 6.91415C9.58303 6.91415 7.41603 5.29815 6.72803 2.98415C6.59603 2.54115 6.68103 2.07015 6.96303 1.69115C7.33403 1.19415 7.98503 0.968154 8.57003 1.14215C10.884 1.83015 12.5 3.99815 12.5 6.41415C12.5 6.69015 12.276 6.91415 12 6.91415ZM8.15703 2.08115C8.00903 2.08115 7.86203 2.15915 7.76503 2.28915C7.71103 2.36115 7.63003 2.51015 7.68603 2.69915C8.19803 4.42015 9.71103 5.66915 11.468 5.88215C11.256 4.12615 10.007 2.61215 8.28503 2.10115C8.24303 2.08815 8.20003 2.08115 8.15703 2.08115Z" fill="#505565"/>
<path d="M12 6.91362C11.724 6.91362 11.5 6.68962 11.5 6.41362C11.5 3.99662 13.116 1.82962 15.43 1.14162C16.012 0.968619 16.667 1.19462 17.037 1.69162C17.319 2.06962 17.405 2.54162 17.272 2.98462C16.584 5.29762 14.417 6.91362 12 6.91362ZM15.843 2.08062C15.801 2.08062 15.758 2.08762 15.715 2.09962C13.994 2.61162 12.745 4.12462 12.532 5.88162C14.288 5.66962 15.802 4.42062 16.313 2.69862C16.37 2.50962 16.288 2.36062 16.234 2.28862C16.138 2.15862 15.991 2.08062 15.843 2.08062Z" fill="#505565"/>
<path d="M12 22.9142C11.724 22.9142 11.5 22.6902 11.5 22.4142V7.62117L9.35398 9.76817C9.15898 9.96317 8.84198 9.96317 8.64698 9.76817C8.45198 9.57317 8.45198 9.25617 8.64698 9.06117L11.647 6.06117C11.791 5.91717 12.004 5.87417 12.192 5.95317C12.378 6.02917 12.5 6.21217 12.5 6.41417V22.4142C12.5 22.6902 12.276 22.9142 12 22.9142Z" fill="#505565"/>
<path d="M15 9.91331C14.872 9.91331 14.744 9.86431 14.646 9.76731L11.646 6.76731C11.451 6.57231 11.451 6.25531 11.646 6.06031C11.841 5.86531 12.158 5.86531 12.353 6.06031L15.353 9.06031C15.548 9.25531 15.548 9.57231 15.353 9.76731C15.256 9.86431 15.128 9.91331 15 9.91331Z" fill="#505565"/>
</svg>
