<svg width="60" height="60" viewBox="0 0 60 60" fill="none" xmlns="http://www.w3.org/2000/svg">
<path d="M32.8469 25.2119H27.1543V59.2504H32.8469V25.2119Z" fill="black"/>
<path d="M52.4432 12.3466H36.6263C39.1435 9.96877 40.7691 6.28015 40.7691 2.13554C40.7691 1.37031 40.1487 0.750923 39.3844 0.750923C35.3607 0.750923 31.8484 3.43062 30.0004 7.38415C28.1534 3.43062 24.642 0.75 20.6164 0.75C19.8512 0.75 19.2318 1.36938 19.2318 2.13462C19.2318 6.27923 20.8583 9.96785 23.3746 12.3466H7.55859C4.19398 12.3466 1.55859 15.7629 1.55859 20.1235V26.5971C1.55859 27.3623 2.17798 27.9817 2.94321 27.9817H6.23121V53.2509C6.23121 56.5592 8.9229 59.2509 12.2312 59.2509H24.3854V25.2125H7.62506C7.62229 25.2125 7.61952 25.2115 7.61582 25.2115C7.61213 25.2115 7.61029 25.2125 7.60659 25.2125H4.32782V20.1235C4.32782 17.4088 5.80752 15.1158 7.55859 15.1158H52.4432C54.1943 15.1158 55.674 17.4088 55.674 20.1235V25.2125H52.3943C52.3915 25.2125 52.3878 25.2115 52.3851 25.2115C52.3823 25.2115 52.3786 25.2125 52.3758 25.2125H35.6164V59.2509H47.7697C51.078 59.2509 53.7697 56.5592 53.7697 53.2509V27.9817H57.0586C57.8229 27.9817 58.4432 27.3623 58.4432 26.5971V20.1235C58.4432 15.7629 55.8069 12.3466 52.4432 12.3466Z" fill="black"/>
</svg>
