<svg width="40" height="40" viewBox="0 0 40 40" fill="none" xmlns="http://www.w3.org/2000/svg">
<g filter="url(#filter0_d)">
<circle cx="20" cy="20" r="16" fill="white"/>
</g>
<g clip-path="url(#clip0)">
<path d="M15.9737 20.0002C15.9737 19.2492 16.1806 18.5457 16.5401 17.9433V15.3881H13.9849C12.9708 16.7052 12.4211 18.3104 12.4211 20.0002C12.4211 21.69 12.9708 23.2952 13.9849 24.6122H16.5401V22.0571C16.1806 21.4547 15.9737 20.7512 15.9737 20.0002V20.0002Z" fill="#FBBD00"/>
<path d="M20 24.0264L18.2237 25.8027L20 27.5791C21.6898 27.5791 23.295 27.0293 24.6121 26.0152V23.4628H22.0596C21.452 23.8235 20.7455 24.0264 20 24.0264V24.0264Z" fill="#0F9D58"/>
<path d="M16.5405 22.0571L13.9854 24.6123C14.1861 24.8731 14.4048 25.1228 14.6413 25.3594C16.0728 26.7908 17.9761 27.5792 20.0005 27.5792V24.0266C18.5313 24.0266 17.2437 23.2355 16.5405 22.0571Z" fill="#31AA52"/>
<path d="M27.5789 19.9999C27.5789 19.5388 27.5372 19.0768 27.4548 18.6269L27.3882 18.2628H20V21.8154H23.5956C23.2464 22.51 22.7096 23.0766 22.0596 23.4626L24.612 26.015C24.8728 25.8142 25.1225 25.5956 25.3591 25.359C26.7906 23.9275 27.5789 22.0243 27.5789 19.9999V19.9999Z" fill="#3C79E6"/>
<path d="M22.847 17.153L23.161 17.467L25.6731 14.9549L25.3591 14.6409C23.9277 13.2094 22.0244 12.4211 20 12.4211L18.2237 14.1974L20 15.9737C21.0754 15.9737 22.0865 16.3925 22.847 17.153Z" fill="#CF2D48"/>
<path d="M19.9998 15.9737V12.4211C17.9754 12.4211 16.0722 13.2094 14.6407 14.6409C14.4041 14.8775 14.1855 15.1272 13.9847 15.388L16.5399 17.9431C17.2431 16.7648 18.5307 15.9737 19.9998 15.9737V15.9737Z" fill="#EB4132"/>
</g>
<defs>
<filter id="filter0_d" x="0" y="0" width="40" height="40" filterUnits="userSpaceOnUse" color-interpolation-filters="sRGB">
<feFlood flood-opacity="0" result="BackgroundImageFix"/>
<feColorMatrix in="SourceAlpha" type="matrix" values="0 0 0 0 0 0 0 0 0 0 0 0 0 0 0 0 0 0 127 0" result="hardAlpha"/>
<feOffset/>
<feGaussianBlur stdDeviation="2"/>
<feColorMatrix type="matrix" values="0 0 0 0 0 0 0 0 0 0 0 0 0 0 0 0 0 0 0.1 0"/>
<feBlend mode="normal" in2="BackgroundImageFix" result="effect1_dropShadow"/>
<feBlend mode="normal" in="SourceGraphic" in2="effect1_dropShadow" result="shape"/>
</filter>
<clipPath id="clip0">
<rect width="15.1579" height="15.1579" fill="white" transform="translate(12.4211 12.4211)"/>
</clipPath>
</defs>
</svg>
