<svg width="15" height="24" viewBox="0 0 15 24" fill="none" xmlns="http://www.w3.org/2000/svg">
<g clip-path="url(#clip0_2088_1742)">
<path d="M13 8.76938C13 7.92323 14.3077 7.92323 14.3077 8.76938V10.3848C14.3077 14.154 11.4615 17.2309 7.84615 17.5386V20.8463C8.38462 21.0771 8.84615 21.4617 9.15385 22.0001H11.3077C11.8462 22.0001 12.3077 22.4617 12.3077 23.0001V24.0001H2V23.0001C2 22.4617 2.46154 22.0001 3.07692 22.0001H5.23077C5.46154 21.4617 5.92308 21.0771 6.53846 20.8463V17.5386C2.84615 17.2309 0 14.154 0 10.3848V8.76938C0 7.92323 1.30769 7.92323 1.30769 8.76938V10.3848C1.30769 13.6155 3.92308 16.3078 7.15385 16.3078C10.3846 16.3078 13 13.6155 13 10.3848V8.76938Z" fill="#505565"/>
<path d="M7.15403 0C9.30788 0 11.0771 1.76923 11.0771 3.92308V10.3846C11.0771 12.5385 9.30788 14.3077 7.15403 14.3077C5.00019 14.3077 3.23096 12.5385 3.23096 10.3846V3.92308C3.23096 1.76923 5.00019 0 7.15403 0ZM7.15403 1.30769C5.76942 1.30769 4.53865 2.46154 4.53865 3.92308V10.3846C4.53865 11.8462 5.76942 13 7.15403 13C8.61557 13 9.76942 11.8462 9.76942 10.3846V3.92308C9.76942 2.46154 8.61557 1.30769 7.15403 1.30769Z" fill="#505565"/>
</g>
<defs>
<clipPath id="clip0_2088_1742">
<rect width="14.3077" height="24" fill="white"/>
</clipPath>
</defs>
</svg>
