<svg width="24" height="24" viewBox="0 0 24 24" fill="none" xmlns="http://www.w3.org/2000/svg">
<path d="M3.06483 18.5115C3.10691 18.5863 3.16743 18.6484 3.24031 18.6917C3.31319 18.7349 3.39586 18.7577 3.48004 18.7578H9.25939V19.189C9.26002 19.9347 9.54907 20.6497 10.063 21.1768C10.577 21.7039 11.2738 22 12.0003 22C12.3604 22 12.717 21.9271 13.0497 21.7856C13.3824 21.6441 13.6847 21.4366 13.9392 21.1751C14.1937 20.9136 14.3956 20.6031 14.5332 20.2615C14.6708 19.9198 14.7414 19.5537 14.7411 19.184V18.7529H20.5205C20.6047 18.7528 20.6874 18.73 20.7603 18.6867C20.8332 18.6434 20.8937 18.5812 20.9358 18.5063C20.9779 18.4314 21 18.3465 21 18.26C21 18.1736 20.9778 18.0887 20.9357 18.0138L18.838 14.2469V9.01897C18.8355 7.15822 18.1143 5.37444 16.8325 4.05869C15.5507 2.74294 13.813 2.00261 12.0003 2C10.1851 2.00065 8.44438 2.74114 7.16083 4.05869C5.87729 5.37625 5.15592 7.16305 5.15528 9.02636V14.2543L3.06243 18.0212C3.02111 18.096 2.99959 18.1806 3.00001 18.2667C3.00043 18.3527 3.02277 18.4371 3.06483 18.5115ZM13.7811 19.184C13.7814 19.4243 13.7356 19.6623 13.6462 19.8843C13.5569 20.1064 13.4258 20.3082 13.2604 20.4782C13.095 20.6483 12.8985 20.7831 12.6823 20.8751C12.4661 20.9672 12.2343 21.0145 12.0003 21.0145C11.5279 21.0145 11.075 20.8219 10.741 20.4791C10.407 20.1363 10.2194 19.6713 10.2194 19.1865V18.7554H13.7811V19.184ZM6.0553 14.6287C6.09677 14.5536 6.11829 14.4687 6.11771 14.3824V9.0239C6.11898 7.42281 6.73915 5.88766 7.84207 4.75552C8.94499 3.62338 10.4405 2.98677 12.0003 2.98546C13.5579 2.98872 15.0509 3.62552 16.1521 4.75638C17.2533 5.88725 17.8731 7.42001 17.8756 9.01897V14.3774C17.875 14.4637 17.8966 14.5487 17.938 14.6238L19.6901 17.765H4.30326L6.0553 14.6287Z" fill="#505565"/>
<path d="M11.6546 4.3635C10.5908 4.54443 9.61189 5.07179 8.86247 5.86768C8.11306 6.66357 7.6329 7.68578 7.49291 8.78331C7.4849 8.84846 7.48966 8.9146 7.50691 8.97784C7.52415 9.04108 7.55354 9.10014 7.59334 9.15156C7.63314 9.20297 7.68256 9.2457 7.73867 9.27723C7.79479 9.30876 7.85648 9.32846 7.92013 9.33517H7.98253C8.10009 9.33611 8.2139 9.29274 8.30238 9.21327C8.39086 9.1338 8.44785 9.02376 8.46254 8.90403C8.57734 8.02281 8.96376 7.20241 9.5653 6.56277C10.1668 5.92313 10.9519 5.49779 11.8058 5.34896C11.9331 5.32838 12.0473 5.25673 12.1231 5.14977C12.1989 5.04281 12.2303 4.90931 12.2102 4.77862C12.1902 4.64794 12.1204 4.53079 12.0162 4.45294C11.912 4.37509 11.7819 4.34292 11.6546 4.3635Z" fill="#505565"/>
</svg>
