<svg width="60" height="60" viewBox="0 0 60 60" fill="none" xmlns="http://www.w3.org/2000/svg">
<path d="M20.55 20.3817H19.83V16.9077H18.564V20.3817H17.838V16.1877H20.55V20.3817Z" fill="#505565"/>
<path d="M21.738 23.3341H16.656V21.9901C16.6544 21.7031 16.7096 21.4186 16.8183 21.1529C16.9271 20.8873 17.0873 20.6458 17.2897 20.4423C17.4921 20.2387 17.7327 20.0772 17.9977 19.967C18.2628 19.8568 18.547 19.8001 18.834 19.8001H19.56C20.1376 19.8001 20.6916 20.0296 21.1001 20.438C21.5085 20.8465 21.738 21.4005 21.738 21.9781V23.3341ZM17.4 22.6141H21V22.0141C21 21.6274 20.8464 21.2566 20.573 20.9831C20.2995 20.7097 19.9287 20.5561 19.542 20.5561H18.834C18.4556 20.5623 18.0945 20.7154 17.8269 20.983C17.5593 21.2506 17.4062 21.6117 17.4 21.9901V22.6141Z" fill="#505565"/>
<path d="M20.928 16.9083H20.328V16.5483H20.226V15.7923C20.226 15.3843 19.764 15.0363 19.218 15.0363C18.672 15.0363 18.21 15.3843 18.21 15.7923V16.9083H17.466V15.7923C17.5012 15.367 17.7034 14.973 18.0283 14.6964C18.3533 14.4198 18.7746 14.2831 19.2 14.3163C19.6251 14.2847 20.0455 14.422 20.3701 14.6983C20.6947 14.9746 20.8973 15.3676 20.934 15.7923L20.928 16.9083Z" fill="#505565"/>
<path d="M19.554 12.3719H18.834V14.6819H19.554V12.3719Z" fill="#505565"/>
<path d="M42.156 20.3817H41.436V16.9077H40.164V20.3817H39.444V16.1877H42.156V20.3817Z" fill="#505565"/>
<path d="M43.344 23.3341H38.262V21.9901C38.2596 21.7034 38.314 21.419 38.4221 21.1534C38.5302 20.8878 38.6898 20.6462 38.8917 20.4426C39.0937 20.239 39.3339 20.0774 39.5986 19.9671C39.8633 19.8569 40.1472 19.8001 40.434 19.8001H41.166C41.7436 19.8001 42.2976 20.0296 42.706 20.438C43.1145 20.8465 43.344 21.4005 43.344 21.9781V23.3341ZM39 22.6141H42.6V22.0141C42.6 21.6285 42.4472 21.2585 42.1751 20.9853C41.9029 20.712 41.5336 20.5577 41.148 20.5561H40.434C40.0556 20.5623 39.6944 20.7154 39.4268 20.983C39.1592 21.2506 39.0062 21.6117 39 21.9901V22.6141Z" fill="#505565"/>
<path d="M42.528 16.9079H41.928V16.5479H41.832V15.7919C41.832 15.3839 41.37 15.0359 40.824 15.0359C40.278 15.0359 39.816 15.3839 39.816 15.7919V16.9079H39.072V15.7919C39.1404 15.383 39.3515 15.0117 39.6679 14.7438C39.9843 14.4759 40.3854 14.3289 40.8 14.3289C41.2145 14.3289 41.6157 14.4759 41.9321 14.7438C42.2485 15.0117 42.4596 15.383 42.528 15.7919V16.9079Z" fill="#505565"/>
<path d="M41.16 12.3719H40.44V14.6819H41.16V12.3719Z" fill="#505565"/>
<path d="M45.846 58.8001H38.328V52.1521C38.3325 50.862 38.05 49.5871 37.5011 48.4197C36.9521 47.2522 36.1504 46.2215 35.154 45.4021C33.4456 43.9323 31.8211 42.3678 30.288 40.7161C28.7927 42.4188 27.1526 43.9887 25.386 45.4081C24.3786 46.2173 23.5683 47.2449 23.0164 48.4132C22.4645 49.5815 22.1853 50.86 22.2 52.1521V58.8001H14.118V58.0801H21.498V52.1521C21.4811 50.7518 21.7823 49.3659 22.3789 48.099C22.9754 46.8321 23.8518 45.7171 24.942 44.8381C26.7751 43.3652 28.4683 41.7263 30 39.9421L30.264 39.6301L30.546 39.9301C32.1384 41.6638 33.8292 43.3045 35.61 44.8441C36.689 45.7311 37.5573 46.847 38.1519 48.1109C38.7465 49.3749 39.0526 50.7552 39.048 52.1521V58.0801H45.846V58.8001Z" fill="#505565"/>
<path d="M19.038 42.5999H16.152V40.2359C16.1168 39.8143 16.2486 39.3956 16.5191 39.0702C16.7895 38.7447 17.177 38.5385 17.598 38.4959C18.0179 38.54 18.4038 38.7468 18.673 39.0721C18.9422 39.3974 19.0732 39.8152 19.038 40.2359V42.5999ZM16.872 41.8739H18.318V40.2359C18.318 39.6839 17.988 39.2219 17.598 39.2219C17.208 39.2219 16.872 39.6839 16.872 40.2359V41.8739Z" fill="#505565"/>
<path d="M19.038 49.7042H16.152V47.3402C16.1168 46.9185 16.2486 46.4999 16.5191 46.1744C16.7895 45.849 17.177 45.6428 17.598 45.6002C18.0179 45.6442 18.4038 45.8511 18.673 46.1763C18.9422 46.5016 19.0732 46.9194 19.038 47.3402V49.7042ZM16.872 48.9782H18.318V47.3402C18.318 46.7882 17.988 46.3202 17.598 46.3202C17.208 46.3202 16.872 46.7882 16.872 47.3402V48.9782Z" fill="#505565"/>
<path d="M19.038 56.8019H16.152V54.4439C16.1168 54.0223 16.2486 53.6036 16.5191 53.2782C16.7895 52.9527 17.177 52.7465 17.598 52.7039C18.0179 52.748 18.4038 52.9548 18.673 53.2801C18.9422 53.6054 19.0732 54.0232 19.038 54.4439V56.8019ZM16.872 56.082H18.318V54.4439C18.318 53.8919 17.988 53.424 17.598 53.424C17.208 53.424 16.872 53.8919 16.872 54.4439V56.082Z" fill="#505565"/>
<path d="M43.848 42.6003H40.956V40.2363C40.9173 40.0243 40.9256 39.8065 40.9803 39.5981C41.0351 39.3897 41.135 39.1959 41.2729 39.0304C41.4109 38.8649 41.5835 38.7318 41.7787 38.6404C41.9738 38.5491 42.1866 38.5017 42.402 38.5017C42.6175 38.5017 42.8303 38.5491 43.0254 38.6404C43.2205 38.7318 43.3932 38.8649 43.5312 39.0304C43.6691 39.1959 43.769 39.3897 43.8238 39.5981C43.8785 39.8065 43.8868 40.0243 43.848 40.2363V42.6003ZM41.682 41.8743H43.122V40.2363C43.122 39.6843 42.792 39.2223 42.402 39.2223C42.012 39.2223 41.682 39.6843 41.682 40.2363V41.8743Z" fill="#505565"/>
<path d="M43.848 49.7045H40.956V47.3405C40.9173 47.1286 40.9256 46.9107 40.9803 46.7023C41.0351 46.494 41.135 46.3002 41.2729 46.1347C41.4109 45.9692 41.5835 45.836 41.7787 45.7447C41.9738 45.6533 42.1866 45.606 42.402 45.606C42.6175 45.606 42.8303 45.6533 43.0254 45.7447C43.2205 45.836 43.3932 45.9692 43.5312 46.1347C43.6691 46.3002 43.769 46.494 43.8238 46.7023C43.8785 46.9107 43.8868 47.1286 43.848 47.3405V49.7045ZM41.682 48.9785H43.122V47.3405C43.122 46.7885 42.792 46.3205 42.402 46.3205C42.012 46.3205 41.682 46.7885 41.682 47.3405V48.9785Z" fill="#505565"/>
<path d="M43.848 56.8023H40.956V54.4443C40.9173 54.2324 40.9256 54.0145 40.9803 53.8061C41.0351 53.5977 41.135 53.404 41.2729 53.2385C41.4109 53.073 41.5835 52.9398 41.7787 52.8485C41.9738 52.7571 42.1866 52.7097 42.402 52.7097C42.6175 52.7097 42.8303 52.7571 43.0254 52.8485C43.2205 52.9398 43.3932 53.073 43.5312 53.2385C43.6691 53.404 43.769 53.5977 43.8238 53.8061C43.8785 54.0145 43.8868 54.2324 43.848 54.4443V56.8023ZM41.682 56.0823H43.122V54.4443C43.122 53.8923 42.792 53.4243 42.402 53.4243C42.012 53.4243 41.682 53.8923 41.682 54.4443V56.0823Z" fill="#505565"/>
<path d="M17.4 28.9386H16.68V27.8346C16.68 27.728 16.6376 27.6257 16.5622 27.5503C16.4869 27.4749 16.3846 27.4326 16.278 27.4326C16.1714 27.4326 16.0691 27.4749 15.9937 27.5503C15.9183 27.6257 15.876 27.728 15.876 27.8346V28.9386H15.156V27.8346C15.156 27.537 15.2742 27.2516 15.4846 27.0412C15.695 26.8308 15.9804 26.7126 16.278 26.7126C16.5756 26.7126 16.8609 26.8308 17.0714 27.0412C17.2818 27.2516 17.4 27.537 17.4 27.8346V28.9386Z" fill="#505565"/>
<path d="M20.46 28.9386H19.734V27.8346C19.7409 27.7781 19.7358 27.7207 19.7189 27.6664C19.7021 27.612 19.6738 27.5618 19.6361 27.5192C19.5984 27.4766 19.552 27.4424 19.5001 27.419C19.4482 27.3957 19.3919 27.3836 19.335 27.3836C19.2781 27.3836 19.2218 27.3957 19.1699 27.419C19.118 27.4424 19.0716 27.4766 19.0339 27.5192C18.9962 27.5618 18.968 27.612 18.9511 27.6664C18.9342 27.7207 18.9291 27.7781 18.936 27.8346V28.9386H18.216V27.8346C18.216 27.537 18.3342 27.2516 18.5446 27.0412C18.755 26.8308 19.0404 26.7126 19.338 26.7126C19.6356 26.7126 19.921 26.8308 20.1314 27.0412C20.3418 27.2516 20.46 27.537 20.46 27.8346V28.9386Z" fill="#505565"/>
<path d="M23.502 28.9375H22.8V27.8335C22.8069 27.777 22.8018 27.7197 22.7849 27.6653C22.768 27.611 22.7398 27.5608 22.7021 27.5182C22.6643 27.4755 22.618 27.4414 22.5661 27.418C22.5142 27.3946 22.4579 27.3825 22.401 27.3825C22.344 27.3825 22.2878 27.3946 22.2359 27.418C22.184 27.4414 22.1376 27.4755 22.0999 27.5182C22.0622 27.5608 22.0339 27.611 22.0171 27.6653C22.0002 27.7197 21.995 27.777 22.002 27.8335V28.9375H21.282V27.8335C21.2707 27.6797 21.2913 27.5252 21.3424 27.3797C21.3935 27.2341 21.4741 27.1007 21.5791 26.9877C21.6841 26.8747 21.8113 26.7846 21.9527 26.723C22.0941 26.6614 22.2467 26.6295 22.401 26.6295C22.5552 26.6295 22.7078 26.6614 22.8492 26.723C22.9906 26.7846 23.1178 26.8747 23.2228 26.9877C23.3278 27.1007 23.4084 27.2341 23.4596 27.3797C23.5107 27.5252 23.5313 27.6797 23.52 27.8335L23.502 28.9375Z" fill="#505565"/>
<path d="M26.55 28.9386H25.83V27.8346C25.83 27.7818 25.8196 27.7295 25.7994 27.6807C25.7792 27.632 25.7496 27.5877 25.7122 27.5503C25.6749 27.513 25.6306 27.4834 25.5818 27.4632C25.5331 27.443 25.4808 27.4326 25.428 27.4326C25.3755 27.4326 25.3235 27.443 25.275 27.4633C25.2266 27.4836 25.1827 27.5133 25.1458 27.5507C25.109 27.5881 25.0799 27.6325 25.0604 27.6812C25.0408 27.7299 25.0312 27.7821 25.032 27.8346V28.9386H24.306V27.8346C24.306 27.537 24.4242 27.2516 24.6346 27.0412C24.845 26.8308 25.1304 26.7126 25.428 26.7126C25.7256 26.7126 26.0109 26.8308 26.2214 27.0412C26.4318 27.2516 26.55 27.537 26.55 27.8346V28.9386Z" fill="#505565"/>
<path d="M29.598 28.9386H28.872V27.8346C28.8728 27.7821 28.8631 27.7299 28.8436 27.6812C28.824 27.6325 28.795 27.5881 28.7581 27.5507C28.7213 27.5133 28.6774 27.4836 28.6289 27.4633C28.5805 27.443 28.5285 27.4326 28.476 27.4326C28.4232 27.4326 28.3709 27.443 28.3221 27.4632C28.2734 27.4834 28.229 27.513 28.1917 27.5503C28.1544 27.5877 28.1248 27.632 28.1046 27.6807C28.0844 27.7295 28.074 27.7818 28.074 27.8346V28.9386H27.354V27.8346C27.354 27.537 27.4722 27.2516 27.6826 27.0412C27.893 26.8308 28.1784 26.7126 28.476 26.7126C28.7735 26.7126 29.0589 26.8308 29.2693 27.0412C29.4798 27.2516 29.598 27.537 29.598 27.8346V28.9386Z" fill="#505565"/>
<path d="M32.646 28.9386H31.92V27.8346C31.9269 27.7781 31.9218 27.7207 31.9049 27.6664C31.888 27.612 31.8598 27.5618 31.8221 27.5192C31.7844 27.4766 31.738 27.4424 31.6861 27.419C31.6342 27.3957 31.5779 27.3836 31.521 27.3836C31.4641 27.3836 31.4078 27.3957 31.3559 27.419C31.304 27.4424 31.2576 27.4766 31.2199 27.5192C31.1822 27.5618 31.154 27.612 31.1371 27.6664C31.1202 27.7207 31.1151 27.7781 31.122 27.8346V28.9386H30.402V27.8346C30.402 27.537 30.5202 27.2516 30.7306 27.0412C30.941 26.8308 31.2264 26.7126 31.524 26.7126C31.8216 26.7126 32.107 26.8308 32.3174 27.0412C32.5278 27.2516 32.646 27.537 32.646 27.8346V28.9386Z" fill="#505565"/>
<path d="M35.688 28.9386H34.968V27.8346C34.975 27.7781 34.9698 27.7207 34.9529 27.6664C34.9361 27.612 34.9078 27.5618 34.8701 27.5192C34.8324 27.4766 34.786 27.4424 34.7341 27.419C34.6822 27.3957 34.6259 27.3836 34.569 27.3836C34.5121 27.3836 34.4558 27.3957 34.4039 27.419C34.352 27.4424 34.3056 27.4766 34.2679 27.5192C34.2302 27.5618 34.202 27.612 34.1851 27.6664C34.1682 27.7207 34.1631 27.7781 34.17 27.8346V28.9386H33.444V27.8346C33.444 27.537 33.5622 27.2516 33.7726 27.0412C33.9831 26.8308 34.2684 26.7126 34.566 26.7126C34.8636 26.7126 35.149 26.8308 35.3594 27.0412C35.5698 27.2516 35.688 27.537 35.688 27.8346V28.9386Z" fill="#505565"/>
<path d="M38.736 28.9386H38.016V27.8346C38.016 27.728 37.9737 27.6257 37.8983 27.5503C37.8229 27.4749 37.7206 27.4326 37.614 27.4326C37.5074 27.4326 37.4051 27.4749 37.3297 27.5503C37.2544 27.6257 37.212 27.728 37.212 27.8346V28.9386H36.492V27.8346C36.492 27.537 36.6102 27.2516 36.8206 27.0412C37.031 26.8308 37.3164 26.7126 37.614 26.7126C37.9116 26.7126 38.197 26.8308 38.4074 27.0412C38.6178 27.2516 38.736 27.537 38.736 27.8346V28.9386Z" fill="#505565"/>
<path d="M41.784 28.9386H41.058V27.8346C41.0649 27.7781 41.0598 27.7207 41.0429 27.6664C41.026 27.612 40.9978 27.5618 40.9601 27.5192C40.9223 27.4766 40.876 27.4424 40.8241 27.419C40.7722 27.3957 40.7159 27.3836 40.659 27.3836C40.602 27.3836 40.5458 27.3957 40.4939 27.419C40.442 27.4424 40.3956 27.4766 40.3579 27.5192C40.3202 27.5618 40.2919 27.612 40.2751 27.6664C40.2582 27.7207 40.253 27.7781 40.26 27.8346V28.9386H39.54V27.8346C39.54 27.537 39.6582 27.2516 39.8686 27.0412C40.079 26.8308 40.3644 26.7126 40.662 26.7126C40.9595 26.7126 41.2449 26.8308 41.4554 27.0412C41.6658 27.2516 41.784 27.537 41.784 27.8346V28.9386Z" fill="#505565"/>
<path d="M44.826 28.9375H44.106V27.8335C44.113 27.777 44.1078 27.7197 44.0909 27.6653C44.0741 27.611 44.0458 27.5608 44.0081 27.5182C43.9704 27.4755 43.924 27.4414 43.8721 27.418C43.8202 27.3946 43.7639 27.3825 43.707 27.3825C43.6501 27.3825 43.5938 27.3946 43.5419 27.418C43.49 27.4414 43.4436 27.4755 43.4059 27.5182C43.3682 27.5608 43.34 27.611 43.3231 27.6653C43.3062 27.7197 43.3011 27.777 43.308 27.8335V28.9375H42.6V27.8335C42.5887 27.6797 42.6093 27.5252 42.6604 27.3797C42.7116 27.2341 42.7922 27.1007 42.8972 26.9877C43.0022 26.8747 43.1294 26.7846 43.2708 26.723C43.4122 26.6614 43.5648 26.6295 43.719 26.6295C43.8733 26.6295 44.0259 26.6614 44.1673 26.723C44.3087 26.7846 44.4359 26.8747 44.5409 26.9877C44.6459 27.1007 44.7265 27.2341 44.7776 27.3797C44.8287 27.5252 44.8493 27.6797 44.838 27.8335L44.826 28.9375Z" fill="#505565"/>
<path d="M23.4 41.9996C23.063 41.9996 22.7335 41.8996 22.4533 41.7124C22.1731 41.5252 21.9547 41.259 21.8257 40.9477C21.6968 40.6363 21.663 40.2937 21.7288 39.9631C21.7945 39.6326 21.9568 39.329 22.1951 39.0907C22.4334 38.8524 22.737 38.6901 23.0676 38.6243C23.3981 38.5586 23.7407 38.5923 24.0521 38.7213C24.3635 38.8503 24.6296 39.0687 24.8168 39.3489C25.0041 39.6291 25.104 39.9586 25.104 40.2956C25.104 40.7475 24.9245 41.1809 24.6049 41.5005C24.2854 41.8201 23.8519 41.9996 23.4 41.9996V41.9996ZM23.4 39.3176C23.1531 39.3369 22.9225 39.4486 22.7544 39.6305C22.5862 39.8123 22.4928 40.0509 22.4928 40.2986C22.4928 40.5463 22.5862 40.7848 22.7544 40.9667C22.9225 41.1485 23.1531 41.2603 23.4 41.2796C23.5353 41.2902 23.6713 41.2727 23.7995 41.2282C23.9277 41.1837 24.0453 41.1131 24.1449 41.021C24.2445 40.9289 24.324 40.8171 24.3784 40.6928C24.4327 40.5685 24.4608 40.4343 24.4608 40.2986C24.4608 40.1629 24.4327 40.0287 24.3784 39.9043C24.324 39.78 24.2445 39.6683 24.1449 39.5762C24.0453 39.484 23.9277 39.4135 23.7995 39.369C23.6713 39.3245 23.5353 39.307 23.4 39.3176V39.3176Z" fill="#505565"/>
<path d="M36.6 41.9996C36.263 41.9996 35.9336 41.8996 35.6533 41.7124C35.3731 41.5252 35.1547 41.259 35.0257 40.9477C34.8968 40.6363 34.863 40.2937 34.9288 39.9631C34.9945 39.6326 35.1568 39.329 35.3951 39.0907C35.6334 38.8524 35.937 38.6901 36.2676 38.6243C36.5981 38.5586 36.9408 38.5923 37.2521 38.7213C37.5635 38.8503 37.8296 39.0687 38.0169 39.3489C38.2041 39.6291 38.304 39.9586 38.304 40.2956C38.304 40.5194 38.26 40.7409 38.1743 40.9477C38.0887 41.1544 37.9632 41.3423 37.8049 41.5005C37.6467 41.6587 37.4589 41.7842 37.2521 41.8699C37.0454 41.9555 36.8238 41.9996 36.6 41.9996V41.9996ZM36.6 39.3176C36.3531 39.3369 36.1225 39.4486 35.9544 39.6305C35.7862 39.8123 35.6928 40.0509 35.6928 40.2986C35.6928 40.5463 35.7862 40.7848 35.9544 40.9667C36.1225 41.1485 36.3531 41.2603 36.6 41.2796C36.7353 41.2902 36.8713 41.2727 36.9995 41.2282C37.1277 41.1837 37.2453 41.1131 37.3449 41.021C37.4445 40.9289 37.524 40.8171 37.5784 40.6928C37.6327 40.5685 37.6608 40.4343 37.6608 40.2986C37.6608 40.1629 37.6327 40.0287 37.5784 39.9043C37.524 39.78 37.4445 39.6683 37.3449 39.5762C37.2453 39.484 37.1277 39.4135 36.9995 39.369C36.8713 39.3245 36.7353 39.307 36.6 39.3176Z" fill="#505565"/>
<path d="M43.746 34.002H16.254V34.722H43.746V34.002Z" fill="#505565"/>
<path d="M43.746 36.4499H16.254V37.1699H43.746V36.4499Z" fill="#505565"/>
<path d="M44.442 28.5956H15.558V29.3156H44.442V28.5956Z" fill="#505565"/>
<path d="M45.828 24.9418H14.166V25.6618H45.828V24.9418Z" fill="#505565"/>
<path d="M45.828 22.6138H14.166V23.3338H45.828V22.6138Z" fill="#505565"/>
<path d="M21.882 34.2481H21.162V32.7901C21.154 32.5813 21.0951 32.3777 20.9906 32.1968C20.886 32.0159 20.7389 31.8632 20.562 31.7521C20.25 31.5241 19.896 31.2181 19.662 31.0141C19.3755 31.2835 19.0686 31.5302 18.744 31.7521C18.5741 31.8673 18.4347 32.0218 18.3375 32.2026C18.2403 32.3833 18.1884 32.5849 18.186 32.7901V34.2481H17.49V32.7901C17.492 32.4666 17.5735 32.1486 17.7273 31.864C17.8811 31.5795 18.1025 31.337 18.372 31.1581C18.7502 30.8926 19.1037 30.5933 19.428 30.2641L19.674 30.0061L19.938 30.2521C20.2749 30.5754 20.6295 30.8799 21 31.1641C21.2646 31.3457 21.4817 31.5881 21.6331 31.8711C21.7845 32.154 21.8658 32.4692 21.87 32.7901L21.882 34.2481Z" fill="#505565"/>
<path d="M27.036 34.2481H26.316V32.7901C26.308 32.5813 26.2492 32.3777 26.1446 32.1968C26.04 32.0159 25.8929 31.8632 25.716 31.7521C25.404 31.5241 25.05 31.2181 24.822 31.0141C24.5343 31.282 24.2275 31.5287 23.904 31.7521C23.7434 31.8725 23.6139 32.0295 23.5262 32.21C23.4385 32.3906 23.3953 32.5895 23.4 32.7901V34.2481H22.68V32.7901C22.6809 32.4671 22.7612 32.1492 22.914 31.8646C23.0668 31.58 23.2873 31.3373 23.556 31.1581C23.9315 30.8938 24.2811 30.5944 24.6 30.2641L24.852 30.0061L25.11 30.2521C25.4508 30.5758 25.8094 30.8802 26.184 31.1641C26.4486 31.3457 26.6658 31.5881 26.8172 31.8711C26.9685 32.154 27.0498 32.4692 27.054 32.7901L27.036 34.2481Z" fill="#505565"/>
<path d="M37.35 34.2481H36.63V32.7901C36.6253 32.584 36.571 32.3821 36.4718 32.2015C36.3726 32.0208 36.2313 31.8667 36.06 31.7521C35.748 31.5241 35.394 31.2181 35.16 31.0141C34.8735 31.2835 34.5666 31.5302 34.242 31.7521C34.0722 31.8673 33.9327 32.0218 33.8355 32.2026C33.7384 32.3833 33.6864 32.5849 33.684 32.7901V34.2481H32.958V32.7901C32.96 32.4666 33.0415 32.1486 33.1953 31.864C33.3491 31.5795 33.5705 31.337 33.84 31.1581C34.2182 30.8926 34.5717 30.5933 34.896 30.2641L35.142 30.0061L35.406 30.2521C35.7468 30.5758 36.1054 30.8802 36.48 31.1641C36.7446 31.3457 36.9617 31.5881 37.1131 31.8711C37.2645 32.154 37.3458 32.4692 37.35 32.7901V34.2481Z" fill="#505565"/>
<path d="M42.504 34.2481H41.784V32.7901C41.776 32.5813 41.7172 32.3777 41.6126 32.1968C41.5081 32.0159 41.3609 31.8632 41.184 31.7521C40.872 31.5241 40.518 31.2181 40.29 31.0141C40.0023 31.282 39.6955 31.5287 39.372 31.7521C39.2003 31.8659 39.0592 32.02 38.9608 32.2009C38.8625 32.3819 38.81 32.5842 38.808 32.7901V34.2481H38.088V32.7901C38.0928 32.4638 38.1787 32.1438 38.3379 31.8589C38.4971 31.574 38.7246 31.3332 39 31.1581C39.3783 30.8926 39.7317 30.5933 40.056 30.2641L40.308 30.0061L40.566 30.2521C40.9068 30.5758 41.2654 30.8802 41.64 31.1641C41.9046 31.3457 42.1218 31.5881 42.2732 31.8711C42.4246 32.154 42.5058 32.4692 42.51 32.7901L42.504 34.2481Z" fill="#505565"/>
<path d="M30 33.5105C29.644 33.5105 29.296 33.4049 29 33.2071C28.704 33.0093 28.4733 32.7282 28.337 32.3993C28.2008 32.0704 28.1651 31.7085 28.2346 31.3593C28.304 31.0101 28.4755 30.6894 28.7272 30.4377C28.9789 30.1859 29.2997 30.0145 29.6488 29.945C29.998 29.8756 30.3599 29.9112 30.6888 30.0475C31.0177 30.1837 31.2989 30.4144 31.4966 30.7104C31.6944 31.0064 31.8 31.3545 31.8 31.7105C31.8 32.1878 31.6103 32.6457 31.2728 32.9832C30.9352 33.3208 30.4774 33.5105 30 33.5105V33.5105ZM30 30.6005C29.7838 30.6005 29.5724 30.6647 29.3927 30.7849C29.213 30.9052 29.073 31.0761 28.9906 31.276C28.9081 31.4759 28.8868 31.6957 28.9294 31.9077C28.9721 32.1197 29.0767 32.3143 29.23 32.4667C29.3833 32.6192 29.5784 32.7227 29.7907 32.7642C30.0029 32.8057 30.2226 32.7832 30.4221 32.6996C30.6215 32.616 30.7916 32.4751 30.9109 32.2948C31.0301 32.1144 31.0932 31.9027 31.092 31.6865C31.092 31.5433 31.0637 31.4016 31.0088 31.2695C30.9538 31.1373 30.8733 31.0173 30.7718 30.9164C30.6703 30.8155 30.5499 30.7356 30.4174 30.6814C30.285 30.6272 30.1431 30.5997 30 30.6005Z" fill="#505565"/>
<path d="M27.036 28.5956H26.316V33.0356H27.036V28.5956Z" fill="#505565"/>
<path d="M33.678 28.5956H32.958V33.0356H33.678V28.5956Z" fill="#505565"/>
<path d="M16.224 34.9261H6.10802V35.6461H16.224V34.9261Z" fill="#505565"/>
<path d="M14.832 58.8003H7.59602V36.4803H14.832V58.8003ZM8.31602 58.0803H14.112V37.2003H8.31602V58.0803Z" fill="#505565"/>
<path d="M13.524 16.4518H12.804V9.28778H9.62398V16.4518H8.90398V8.56778H13.524V16.4518Z" fill="#505565"/>
<path d="M16.602 37.1998H5.802V31.7998C5.802 30.3676 6.37093 28.9941 7.38362 27.9814C8.39632 26.9687 9.76983 26.3998 11.202 26.3998C12.6342 26.3998 14.0077 26.9687 15.0204 27.9814C16.0331 28.9941 16.602 30.3676 16.602 31.7998V37.1998ZM6.546 36.4798H15.882V31.7998C15.882 30.5618 15.3902 29.3745 14.5148 28.499C13.6394 27.6236 12.452 27.1318 11.214 27.1318C9.97597 27.1318 8.78865 27.6236 7.91323 28.499C7.03781 29.3745 6.546 30.5618 6.546 31.7998V36.4798Z" fill="#505565"/>
<path d="M15.846 21.8821H6.60001V20.3041C6.60001 19.0756 7.08802 17.8974 7.95669 17.0287C8.82536 16.1601 10.0035 15.6721 11.232 15.6721C12.4605 15.6721 13.6387 16.1601 14.5073 17.0287C15.376 17.8974 15.864 19.0756 15.864 20.3041L15.846 21.8821ZM7.30801 21.1621H15.108V20.3041C15.1502 19.7662 15.0807 19.2254 14.9039 18.7157C14.7271 18.2059 14.4467 17.7383 14.0804 17.3421C13.7141 16.946 13.2699 16.6299 12.7756 16.4137C12.2812 16.1975 11.7475 16.0859 11.208 16.0859C10.6685 16.0859 10.1348 16.1975 9.64045 16.4137C9.14613 16.6299 8.70187 16.946 8.33559 17.3421C7.96932 17.7383 7.68895 18.2059 7.51211 18.7157C7.33527 19.2254 7.26578 19.7662 7.30801 20.3041V21.1621Z" fill="#505565"/>
<path d="M14.256 9.29382H13.38V8.56782H13.536V7.45183C13.536 6.44383 12.492 5.65182 11.214 5.65182C9.936 5.65182 8.892 6.46783 8.892 7.45183V8.56782H9.246V9.29382H8.172V7.45183C8.172 6.04783 9.534 4.90182 11.214 4.90182C12.894 4.90182 14.256 6.04783 14.256 7.45183V9.29382Z" fill="#505565"/>
<path d="M11.214 5.55589C11.1185 5.55589 11.0269 5.51796 10.9594 5.45045C10.8919 5.38294 10.854 5.29137 10.854 5.19589V1.55989C10.854 1.51261 10.8633 1.4658 10.8814 1.42212C10.8995 1.37845 10.926 1.33876 10.9594 1.30533C10.9928 1.2719 11.0325 1.24539 11.0762 1.22729C11.1199 1.2092 11.1667 1.19989 11.214 1.19989C11.2612 1.19989 11.3081 1.2092 11.3517 1.22729C11.3954 1.24539 11.4351 1.2719 11.4685 1.30533C11.502 1.33876 11.5285 1.37845 11.5466 1.42212C11.5647 1.4658 11.574 1.51261 11.574 1.55989V5.19589C11.574 5.29137 11.536 5.38294 11.4685 5.45045C11.401 5.51796 11.3095 5.55589 11.214 5.55589V5.55589Z" fill="#505565"/>
<path d="M53.886 34.9261H43.77V35.6461H53.886V34.9261Z" fill="#505565"/>
<path d="M52.404 58.8003H45.168V36.4803H52.404V58.8003ZM45.888 58.0803H51.684V37.2003H45.888V58.0803Z" fill="#505565"/>
<path d="M14.49 21.4742H13.77V27.8582H14.49V21.4742Z" fill="#505565"/>
<path d="M8.65801 21.4742H7.938V27.8582H8.65801V21.4742Z" fill="#505565"/>
<path d="M52.062 21.4742H51.342V27.8582H52.062V21.4742Z" fill="#505565"/>
<path d="M46.23 21.4742H45.51V27.8582H46.23V21.4742Z" fill="#505565"/>
<path d="M51.096 16.4518H50.376V9.28778H47.196V16.4518H46.476V8.56778H51.096V16.4518Z" fill="#505565"/>
<path d="M54.174 37.1998H43.374V31.7998C43.374 30.3676 43.943 28.9941 44.9556 27.9814C45.9683 26.9687 47.3419 26.3998 48.774 26.3998C50.2062 26.3998 51.5797 26.9687 52.5924 27.9814C53.6051 28.9941 54.174 30.3676 54.174 31.7998V37.1998ZM44.118 36.4798H53.454V31.7998C53.454 30.5618 52.9622 29.3745 52.0868 28.499C51.2114 27.6236 50.0241 27.1318 48.786 27.1318C47.548 27.1318 46.3607 27.6236 45.4852 28.499C44.6098 29.3745 44.118 30.5618 44.118 31.7998V36.4798Z" fill="#505565"/>
<path d="M53.4 21.8821H44.154V20.3041C44.154 19.0756 44.6421 17.8974 45.5107 17.0287C46.3794 16.1601 47.5576 15.6721 48.786 15.6721C50.0145 15.6721 51.1927 16.1601 52.0614 17.0287C52.93 17.8974 53.418 19.0756 53.418 20.3041L53.4 21.8821ZM44.856 21.1621H52.656V20.3041C52.6983 19.7662 52.6288 19.2254 52.4519 18.7157C52.2751 18.2059 51.9947 17.7383 51.6285 17.3421C51.2622 16.946 50.8179 16.6299 50.3236 16.4137C49.8293 16.1975 49.2956 16.0859 48.756 16.0859C48.2165 16.0859 47.6828 16.1975 47.1885 16.4137C46.6942 16.6299 46.2499 16.946 45.8836 17.3421C45.5174 17.7383 45.237 18.2059 45.0601 18.7157C44.8833 19.2254 44.8138 19.7662 44.856 20.3041V21.1621Z" fill="#505565"/>
<path d="M51.828 9.29382H50.952V8.56782H51.108V7.45183C51.108 6.44383 50.064 5.65182 48.786 5.65182C47.508 5.65182 46.464 6.46783 46.464 7.45183V8.56782H46.8V9.29382H45.744V7.45183C45.744 6.04783 47.106 4.90182 48.786 4.90182C50.466 4.90182 51.828 6.04783 51.828 7.45183V9.29382Z" fill="#505565"/>
<path d="M48.696 5.55589C48.6005 5.55589 48.509 5.51796 48.4414 5.45045C48.3739 5.38294 48.336 5.29137 48.336 5.19589V1.55989C48.336 1.46441 48.3739 1.37284 48.4414 1.30533C48.509 1.23782 48.6005 1.19989 48.696 1.19989C48.7915 1.19989 48.883 1.23782 48.9506 1.30533C49.0181 1.37284 49.056 1.46441 49.056 1.55989V5.19589C49.056 5.29137 49.0181 5.38294 48.9506 5.45045C48.883 5.51796 48.7915 5.55589 48.696 5.55589V5.55589Z" fill="#505565"/>
<path d="M39.642 58.08H20.352V58.8H39.642V58.08Z" fill="#505565"/>
</svg>
