<svg width="60" height="60" viewBox="0 0 60 60" fill="none" xmlns="http://www.w3.org/2000/svg">
<path d="M29.8385 5.39999C29.5889 5.39999 29.4225 5.56649 29.4225 5.81624V7.23083L28.1744 7.89747C27.6752 8.14722 27.3431 8.56379 27.1767 9.06329C27.0103 8.81354 26.8429 8.64607 26.5933 8.47957L25.9286 7.9804C25.7622 7.89715 25.5961 7.89715 25.4297 7.9804L24.7635 8.47957C24.0146 8.97906 23.5983 9.89546 23.5983 10.8112C23.4319 10.6447 23.349 10.5611 23.0994 10.4779L21.8514 9.81123V8.39664C21.8514 8.1469 21.685 7.9804 21.4354 7.9804C21.1858 7.9804 21.0194 8.1469 21.0194 8.39664V9.81123L19.7713 10.4779C19.1057 10.8941 18.6897 11.4765 18.5233 12.2258C18.4401 12.0593 18.2737 11.976 18.1073 11.8095L17.441 11.3104C17.2746 11.2271 17.1085 11.2271 16.9421 11.3104L16.2775 11.8095C15.5287 12.3923 15.1123 13.2254 15.1123 14.1412V14.6403L14.7792 14.307L14.1129 13.8078C13.9465 13.7246 13.7805 13.7246 13.614 13.8078L12.9494 14.307C12.2006 14.8898 11.7843 15.7229 11.7843 16.6386V19.1361C11.6178 18.9696 11.5346 18.8861 11.3682 18.8028L10.1202 18.1362V16.7216C10.1202 16.4718 9.9538 16.3053 9.7042 16.3053C9.45459 16.3053 9.28818 16.4718 9.28818 16.7216V18.1362L8.04015 18.8028C7.20813 19.219 6.79212 20.1341 6.79212 21.0499V23.0482L6.45899 22.7149L5.79272 22.2157C5.62631 22.1324 5.46023 22.1324 5.29383 22.2157L4.62919 22.7149C3.88037 23.2976 3.46403 24.1308 3.46403 25.0465V30.8739V36.7014V40.8639V42.5288V53.7675H2.216C1.96639 53.7675 1.79999 53.934 1.79999 54.1837C1.79999 54.4335 1.96639 54.6 2.216 54.6H3.79717H3.88004H7.20813H12.2003H15.5283H18.8564H23.8486H27.1767H32.1688H35.4969H40.489H43.8171H47.1452H52.1373H55.4654H55.5483H57.1294C57.3791 54.6 57.5455 54.4335 57.5455 54.1837C57.5455 53.934 57.7122 53.7675 57.4626 53.7675H56.2145V42.5288V40.8639V36.7014V30.8739V25.0465C56.2145 24.1308 55.7982 23.2976 55.0494 22.7149L54.3831 22.2157C54.2167 22.1324 54.0506 22.1324 53.8842 22.2157L53.218 22.7149C53.1348 22.7981 52.9697 22.8817 52.8865 23.0482V21.0499C52.8865 20.1341 52.3872 19.3023 51.6384 18.8028L50.3904 18.1362V16.7216C50.3904 16.4718 50.224 16.3053 49.9744 16.3053C49.7248 16.3053 49.5584 16.4718 49.5584 16.7216V18.1362L48.3103 18.8028C48.1439 18.8861 47.9775 19.0529 47.8943 19.1361V16.6386C47.8943 15.7229 47.478 14.8898 46.7292 14.307L46.0629 13.8078C45.8965 13.7246 45.7304 13.7246 45.564 13.8078L44.8977 14.307C44.8145 14.3903 44.6494 14.4738 44.5662 14.6403V14.1412C44.5662 13.2254 44.1499 12.3923 43.4011 11.8095L42.7348 11.3104C42.5684 11.2271 42.4023 11.2271 42.2359 11.3104L41.5697 11.8095C41.4033 11.8928 41.3201 12.0593 41.1536 12.2258C40.9872 11.4765 40.5712 10.8109 39.9056 10.4779L38.6576 9.81123V8.39664C38.6576 8.1469 38.4912 7.9804 38.2416 7.9804C37.992 7.9804 37.8256 8.1469 37.8256 8.39664V9.81123L36.5775 10.4779C36.4111 10.5611 36.245 10.7279 36.0786 10.8112C36.0786 9.89546 35.6623 9.06231 34.9135 8.47957L34.2488 7.9804C34.0824 7.89715 33.9164 7.89715 33.75 7.9804L33.0837 8.47957C32.8341 8.64607 32.6683 8.89679 32.5019 9.06329C32.2523 8.56379 31.9185 8.14722 31.5025 7.89747L30.2545 7.23083V5.81624C30.2545 5.56649 30.0881 5.39999 29.8385 5.39999ZM30.0059 8.06332L31.2539 8.72997C31.7531 9.06296 32.0859 9.64473 32.0859 10.2275V10.8941V14.7233V16.7216C31.9195 16.5551 31.8363 16.4715 31.6699 16.3882L30.2545 15.5558C30.0881 15.4725 30.0049 15.4725 29.8385 15.5558L28.4247 16.3882C28.2583 16.4715 28.0919 16.6383 28.0087 16.7216V14.7233V10.8941V10.2275H27.9258C27.9258 9.64473 28.2586 9.06296 28.7578 8.72997L30.0059 8.06332ZM29.9636 8.83403C29.9012 8.83403 29.8388 8.85419 29.7556 8.89581L29.3396 9.14621C29.0068 9.31271 28.7578 9.72831 28.7578 10.1446V11.7266C28.7578 11.9764 28.9242 12.1429 29.1738 12.1429H30.8379C31.0875 12.1429 31.2539 11.9764 31.2539 11.7266V10.1446C31.2539 9.72831 31.0033 9.39596 30.6705 9.14621L30.1716 8.89581C30.0884 8.85419 30.026 8.83403 29.9636 8.83403ZM25.8457 8.89581L26.2618 9.22914C26.761 9.64538 27.0938 10.2281 27.0938 10.8941V14.7233V17.2207L26.7606 16.8874L26.0944 16.3882C25.928 16.305 25.7619 16.305 25.5955 16.3882L24.9292 16.8874C24.846 16.9707 24.6809 17.0542 24.5977 17.2207V16.7216V12.725V10.8941C24.5977 10.2281 24.9305 9.64538 25.4297 9.22914L25.8457 8.89581ZM34.166 8.89581L34.582 9.22914C35.0812 9.64538 35.414 10.2281 35.414 10.8941V12.725V17.2207L35.0809 16.8874L34.4146 16.3882C34.2482 16.305 34.0821 16.305 33.9157 16.3882L33.2494 16.8874C33.1662 16.9707 33.0011 17.0542 32.9179 17.2207V14.7233V10.8941C32.9179 10.2281 33.2507 9.64538 33.75 9.22914L34.166 8.89581ZM30.0059 9.72831L30.2545 9.89578C30.3377 9.97903 30.4219 10.0613 30.4219 10.1446V11.3104H29.5898V10.1446C29.5898 10.0613 29.6724 9.97903 29.7556 9.89578L30.0059 9.72831ZM25.8457 10.4779C25.5961 10.4779 25.4297 10.6444 25.4297 10.8941V15.0566C25.4297 15.3063 25.5961 15.4728 25.8457 15.4728C26.0954 15.4728 26.2618 15.3063 26.2618 15.0566V10.8941C26.2618 10.6444 26.0954 10.4779 25.8457 10.4779ZM34.166 10.4779C33.9164 10.4779 33.75 10.6444 33.75 10.8941V15.0566C33.75 15.3063 33.9164 15.4728 34.166 15.4728C34.4156 15.4728 34.582 15.3063 34.582 15.0566V10.8941C34.582 10.6444 34.4156 10.4779 34.166 10.4779ZM21.6856 10.5608L22.9337 11.2274C23.4329 11.5604 23.7657 12.1422 23.7657 12.725V16.7216V18.3866C23.5993 18.2201 23.5161 18.1365 23.3497 18.0532L21.9343 17.2207C21.7679 17.1375 21.6847 17.1375 21.5183 17.2207L20.1045 18.0532C19.9381 18.1365 19.7717 18.3033 19.6885 18.3866V17.2207V14.2241V12.725H19.6056C19.6056 12.1422 19.9384 11.5604 20.4376 11.2274L21.6856 10.5608ZM38.3261 10.5608L39.5741 11.2274C40.0733 11.5604 40.4061 12.1422 40.4061 12.725V14.2241V17.2207V18.3866C40.2397 18.2201 40.1565 18.1365 39.9901 18.0532L38.5747 17.2207C38.4083 17.1375 38.3251 17.1375 38.1587 17.2207L36.7449 18.0532C36.5785 18.1365 36.4121 18.3033 36.3289 18.3866V17.2207V12.725C36.2457 12.1422 36.5788 11.5604 37.078 11.2274L38.3261 10.5608ZM21.6434 11.3315C21.581 11.3315 21.5186 11.3517 21.4354 11.3933L21.0194 11.6437C20.6866 11.8102 20.4376 12.2258 20.4376 12.642V14.2241C20.4376 14.4738 20.604 14.6403 20.8536 14.6403H22.5177C22.7673 14.6403 22.9337 14.4738 22.9337 14.2241V12.642C22.9337 12.2258 22.6831 11.8934 22.3503 11.6437L21.8514 11.3933C21.7682 11.3517 21.7058 11.3315 21.6434 11.3315ZM38.2838 11.3315C38.2214 11.3315 38.159 11.3517 38.0758 11.3933L37.6598 11.6437C37.327 11.8102 37.078 12.2258 37.078 12.642V14.2241C37.078 14.4738 37.2444 14.6403 37.4941 14.6403H39.1581C39.4077 14.6403 39.5741 14.4738 39.5741 14.2241V12.642C39.5741 12.2258 39.3235 11.8934 38.9907 11.6437L38.4918 11.3933C38.4086 11.3517 38.3462 11.3315 38.2838 11.3315ZM17.5255 12.2258L17.9415 12.5591C18.4408 12.9754 18.7736 13.5581 18.7736 14.2241V17.2207V19.7182L18.4404 19.3849L17.7742 18.8857C17.6078 18.8025 17.4417 18.8025 17.2753 18.8857L16.609 19.3849C16.5258 19.4681 16.3607 19.5517 16.2775 19.7182V16.7216V14.2241C16.2775 13.5581 16.6103 12.9754 17.1095 12.5591L17.5255 12.2258ZM21.6856 12.2258L21.9343 12.3933C22.0175 12.4765 22.1016 12.5588 22.1016 12.642V13.8078H21.2696V12.642C21.2696 12.5588 21.3522 12.4765 21.4354 12.3933L21.6856 12.2258ZM38.3261 12.2258L38.5747 12.3933C38.6579 12.4765 38.7421 12.5588 38.7421 12.642V13.8078H37.9101V12.642C37.9101 12.5588 37.9926 12.4765 38.0758 12.3933L38.3261 12.2258ZM42.4862 12.2258L42.9022 12.5591C43.4014 12.9754 43.7342 13.5581 43.7342 14.2241V16.7216V19.7182L43.4011 19.3849L42.7348 18.8857C42.5684 18.8025 42.4023 18.8025 42.2359 18.8857L41.5697 19.3849C41.4865 19.4681 41.3214 19.5517 41.2382 19.7182V17.2207V14.2241C41.2382 13.5581 41.571 12.9754 42.0702 12.5591L42.4862 12.2258ZM17.5255 13.8078C17.2759 13.8078 17.1095 13.9743 17.1095 14.2241V17.5541C17.1095 17.8038 17.2759 17.9703 17.5255 17.9703C17.7751 17.9703 17.9415 17.8038 17.9415 17.5541V14.2241C17.9415 13.9743 17.7751 13.8078 17.5255 13.8078ZM42.4862 13.8078C42.2366 13.8078 42.0702 13.9743 42.0702 14.2241V17.5541C42.0702 17.8038 42.2366 17.9703 42.4862 17.9703C42.7358 17.9703 42.9022 17.8038 42.9022 17.5541V14.2241C42.9022 13.9743 42.7358 13.8078 42.4862 13.8078ZM14.1974 14.7233L14.6134 15.0566C15.1127 15.4728 15.4455 16.0556 15.4455 16.7216V20.0515V20.5507L15.1123 20.2174L14.4461 19.7182C14.2797 19.635 14.1136 19.635 13.9472 19.7182L13.2809 20.2174C13.1977 20.3006 13.0326 20.3842 12.9494 20.5507V16.7216C12.9494 16.0556 13.2822 15.4728 13.7814 15.0566L14.1974 14.7233ZM45.8143 14.7233L46.2303 15.0566C46.7295 15.4728 47.0623 16.0556 47.0623 16.7216V20.5507L46.7292 20.2174L46.0629 19.7182C45.8965 19.635 45.7304 19.635 45.564 19.7182L44.8977 20.2174C44.8145 20.3006 44.6494 20.3842 44.5662 20.5507V20.0515V16.7216C44.5662 16.0556 44.899 15.4728 45.3983 15.0566L45.8143 14.7233ZM14.1974 16.3053C13.9478 16.3053 13.7814 16.4718 13.7814 16.7216V18.3866C13.7814 18.6363 13.9478 18.8028 14.1974 18.8028C14.447 18.8028 14.6134 18.6363 14.6134 18.3866V16.7216C14.6134 16.4718 14.447 16.3053 14.1974 16.3053ZM45.8143 16.3053C45.5647 16.3053 45.3983 16.4718 45.3983 16.7216V18.3866C45.3983 18.6363 45.5647 18.8028 45.8143 18.8028C46.0639 18.8028 46.2303 18.6363 46.2303 18.3866V16.7216C46.2303 16.4718 46.0639 16.3053 45.8143 16.3053ZM30.0887 16.3882L31.3368 17.0549C31.836 17.3879 32.1688 17.9697 32.1688 18.5524V19.219H32.0859V20.0515V23.0482V25.0465C31.9195 24.88 31.8363 24.7964 31.6699 24.7132L30.2545 23.8807C30.0881 23.7974 30.0049 23.7974 29.8385 23.8807L28.4247 24.7132C28.2583 24.7964 28.0919 24.9633 28.0087 25.0465V23.0482V19.219V18.5524C28.0087 17.9697 28.3415 17.3879 28.8407 17.0549L30.0887 16.3882ZM29.9636 17.159C29.9012 17.159 29.8388 17.1791 29.7556 17.2207L29.3396 17.4711C29.0068 17.6376 28.7578 18.0532 28.7578 18.4695V20.0515C28.7578 20.3013 28.9242 20.4678 29.1738 20.4678H30.8379C31.0875 20.4678 31.2539 20.3013 31.2539 20.0515V18.4695C31.2539 18.0532 31.0033 17.6376 30.6705 17.4711L30.1716 17.2207C30.0884 17.1791 30.026 17.159 29.9636 17.159ZM25.8457 17.2207L26.2618 17.5541C26.761 17.9703 27.0938 18.5531 27.0938 19.219V23.0482V24.7132L26.7606 24.3799L26.0944 23.8807C25.928 23.7974 25.7619 23.7974 25.5955 23.8807L24.9292 24.3799C24.846 24.4631 24.6809 24.5467 24.5977 24.7132V20.2174V19.7182V19.219C24.5977 18.5531 24.9305 17.9703 25.4297 17.5541L25.8457 17.2207ZM34.166 17.2207L34.582 17.5541C35.0812 17.9703 35.414 18.5531 35.414 19.219V20.0515V20.2174V24.7132L35.0809 24.3799L34.4146 23.8807C34.2482 23.7974 34.0821 23.7974 33.9157 23.8807L33.2494 24.3799C33.1662 24.4631 33.0011 24.5467 32.9179 24.7132V23.0482V20.0515V19.219C32.9179 18.5531 33.2507 17.9703 33.75 17.5541L34.166 17.2207ZM21.7685 18.0532L23.0165 18.7199C23.5158 19.0529 23.8486 19.6346 23.8486 20.2174V24.7132H23.7657V25.879C23.5993 25.7125 23.5161 25.6289 23.3497 25.5457L21.9343 24.7132C21.7679 24.6299 21.6847 24.6299 21.5183 24.7132L20.1045 25.5457C19.9381 25.6289 19.7717 25.7957 19.6885 25.879V24.7132V21.7165V20.2174C19.6885 19.6346 20.0213 19.0529 20.5205 18.7199L21.7685 18.0532ZM30.0059 18.0532L30.2545 18.2207C30.3377 18.304 30.4219 18.3862 30.4219 18.4695V19.6353H29.5898V18.4695C29.5898 18.3862 29.6724 18.304 29.7556 18.2207L30.0059 18.0532ZM38.409 18.0532L39.657 18.7199C40.1562 19.0529 40.489 19.6346 40.489 20.2174V21.7165H40.4061V24.7132V25.879C40.2397 25.7125 40.1565 25.6289 39.9901 25.5457L38.5747 24.7132C38.4083 24.6299 38.3251 24.6299 38.1587 24.7132L36.7449 25.5457C36.5785 25.6289 36.4121 25.7957 36.3289 25.879V24.7132V20.2174C36.3289 19.6346 36.6617 19.0529 37.1609 18.7199L38.409 18.0532ZM25.8457 18.8028C25.5961 18.8028 25.4297 18.9693 25.4297 19.219V22.549C25.4297 22.7988 25.5961 22.9653 25.8457 22.9653C26.0954 22.9653 26.2618 22.7988 26.2618 22.549V19.219C26.2618 18.9693 26.0954 18.8028 25.8457 18.8028ZM34.166 18.8028C33.9164 18.8028 33.75 18.9693 33.75 19.219V22.549C33.75 22.7988 33.9164 22.9653 34.166 22.9653C34.4156 22.9653 34.582 22.7988 34.582 22.549V19.219C34.582 18.9693 34.4156 18.8028 34.166 18.8028ZM21.6434 18.8239C21.581 18.8239 21.5186 18.8441 21.4354 18.8857L21.0194 19.1361C20.6866 19.3026 20.4376 19.7182 20.4376 20.1345V21.7165C20.4376 21.9663 20.604 22.1328 20.8536 22.1328H22.5177C22.7673 22.1328 22.9337 21.9663 22.9337 21.7165V20.1345C22.9337 19.7182 22.6831 19.3026 22.3503 19.1361L21.8514 18.8857C21.7682 18.8441 21.7058 18.8239 21.6434 18.8239ZM38.2838 18.8239C38.2214 18.8239 38.159 18.8441 38.0758 18.8857L37.6598 19.1361C37.327 19.3026 37.078 19.7182 37.078 20.1345V21.7165C37.078 21.9663 37.2444 22.1328 37.4941 22.1328H39.1581C39.4077 22.1328 39.5741 21.9663 39.5741 21.7165V20.1345C39.5741 19.7182 39.3235 19.3026 38.9907 19.1361L38.4918 18.8857C38.4086 18.8441 38.3462 18.8239 38.2838 18.8239ZM10.0373 18.8857L11.2854 19.5524C11.7846 19.8854 12.1174 20.4671 12.1174 21.0499V22.549C11.951 22.3825 11.8678 22.2989 11.7014 22.2157L10.286 21.3832C10.1196 21.3 10.0364 21.3 9.86995 21.3832L8.45616 22.2157C8.28976 22.2989 8.12335 22.4658 8.04015 22.549V21.0499C7.95695 20.4671 8.29008 19.8854 8.7893 19.5524L10.0373 18.8857ZM49.9744 18.8857L51.2224 19.5524C51.7216 19.8854 52.0544 20.4671 52.0544 21.0499V22.549C51.888 22.3825 51.8048 22.2989 51.6384 22.2157L50.223 21.3832C50.0566 21.3 49.9734 21.3 49.807 21.3832L48.3932 22.2157C48.2268 22.2989 48.0604 22.4658 47.9772 22.549V21.0499C47.894 20.4671 48.2271 19.8854 48.7263 19.5524L49.9744 18.8857ZM17.5255 19.7182L17.9415 20.0515C18.4408 20.4678 18.7736 21.0505 18.7736 21.7165V24.7132V26.3782L18.4404 26.0448L17.7742 25.5457C17.6078 25.4624 17.4417 25.4624 17.2753 25.5457L16.609 26.0448C16.5258 26.1281 16.3607 26.2117 16.2775 26.3782V22.549V21.7165C16.2775 21.0505 16.6103 20.4678 17.1095 20.0515L17.5255 19.7182ZM21.6856 19.7182L21.9343 19.8857C22.0175 19.9689 22.1016 20.0512 22.1016 20.1345V21.3003H21.2696V20.1345C21.2696 20.0512 21.3522 19.9689 21.4354 19.8857L21.6856 19.7182ZM38.3261 19.7182L38.5747 19.8857C38.6579 19.9689 38.7421 20.0512 38.7421 20.1345V21.3003H37.9101V20.1345C37.9101 20.0512 37.9926 19.9689 38.0758 19.8857L38.3261 19.7182ZM42.4862 19.7182L42.9022 20.0515C43.4014 20.4678 43.7342 21.0505 43.7342 21.7165V22.549V26.3782L43.4011 26.0448L42.7348 25.5457C42.5684 25.4624 42.4023 25.4624 42.2359 25.5457L41.5697 26.0448C41.4865 26.1281 41.3214 26.2117 41.2382 26.3782V24.7132V21.7165C41.2382 21.0505 41.571 20.4678 42.0702 20.0515L42.4862 19.7182ZM14.1974 20.5507L14.6134 20.884C15.1127 21.3003 15.4455 21.883 15.4455 22.549V27.2107L15.1123 26.8773L14.4461 26.3782C14.2797 26.2949 14.1136 26.2949 13.9472 26.3782L13.2809 26.8773C13.1977 26.9606 13.0326 27.0442 12.9494 27.2107V25.5457V24.3799V22.549C12.9494 21.883 13.2822 21.3003 13.7814 20.884L14.1974 20.5507ZM45.8143 20.5507L46.2303 20.884C46.7295 21.3003 47.0623 21.883 47.0623 22.549V24.3799V25.5457V27.2107L46.7292 26.8773L46.0629 26.3782C45.8965 26.2949 45.7304 26.2949 45.564 26.3782L44.8977 26.8773C44.8145 26.9606 44.6494 27.0442 44.5662 27.2107V22.549C44.5662 21.883 44.899 21.3003 45.3983 20.884L45.8143 20.5507ZM17.5255 21.3003C17.2759 21.3003 17.1095 21.4668 17.1095 21.7165V24.214C17.1095 24.4638 17.2759 24.6303 17.5255 24.6303C17.7751 24.6303 17.9415 24.4638 17.9415 24.214V21.7165C17.9415 21.4668 17.7751 21.3003 17.5255 21.3003ZM42.4862 21.3003C42.2366 21.3003 42.0702 21.4668 42.0702 21.7165V24.214C42.0702 24.4638 42.2366 24.6303 42.4862 24.6303C42.7358 24.6303 42.9022 24.4638 42.9022 24.214V21.7165C42.9022 21.4668 42.7358 21.3003 42.4862 21.3003ZM14.1974 22.1328C13.9478 22.1328 13.7814 22.2993 13.7814 22.549V25.0465C13.7814 25.2962 13.9478 25.4627 14.1974 25.4627C14.447 25.4627 14.6134 25.2962 14.6134 25.0465V22.549C14.6134 22.2993 14.447 22.1328 14.1974 22.1328ZM45.8143 22.1328C45.5647 22.1328 45.3983 22.2993 45.3983 22.549V25.0465C45.3983 25.2962 45.5647 25.4627 45.8143 25.4627C46.0639 25.4627 46.2303 25.2962 46.2303 25.0465V22.549C46.2303 22.2993 46.0639 22.1328 45.8143 22.1328ZM10.0373 22.2157L11.2854 22.8823C11.7846 23.2153 12.1174 23.7971 12.1174 24.3799V25.5457V28.3765C11.951 28.21 11.8678 28.1264 11.7014 28.0431L10.286 27.2107C10.1196 27.1274 10.0364 27.1274 9.86995 27.2107L8.45616 28.0431C8.28976 28.1264 8.12335 28.2932 8.04015 28.3765V25.5457V25.0465V24.3799H7.95727C7.95727 23.7971 8.29008 23.2153 8.7893 22.8823L10.0373 22.2157ZM50.0573 22.2157L51.3053 22.8823C51.8045 23.2153 52.1373 23.7971 52.1373 24.3799V25.0465H52.0544V25.5457V28.3765C51.888 28.21 51.8048 28.1264 51.6384 28.0431L50.223 27.2107C50.0566 27.1274 49.9734 27.1274 49.807 27.2107L48.3932 28.0431C48.2268 28.1264 48.0604 28.2932 47.9772 28.3765V25.5457V24.3799C47.9772 23.7971 48.31 23.2153 48.8092 22.8823L50.0573 22.2157ZM9.99508 22.9864C9.93268 22.9864 9.87028 23.0066 9.78707 23.0482L9.37106 23.2986C9.03825 23.4651 8.7893 23.8807 8.7893 24.2969V25.879C8.7893 26.1287 8.9557 26.2952 9.20531 26.2952H10.8694C11.119 26.2952 11.2854 26.1287 11.2854 25.879V24.2969C11.2854 23.8807 11.0348 23.5483 10.702 23.2986L10.2031 23.0482C10.1199 23.0066 10.0575 22.9864 9.99508 22.9864ZM49.9321 22.9864C49.8697 22.9864 49.8073 23.0066 49.7241 23.0482L49.3081 23.2986C48.9753 23.4651 48.7263 23.8807 48.7263 24.2969V25.879C48.7263 26.1287 48.8928 26.2952 49.1424 26.2952H50.8064C51.056 26.2952 51.2224 26.1287 51.2224 25.879V24.2969C51.2224 23.8807 50.9718 23.4651 50.639 23.2986L50.1401 23.0482C50.0569 23.0066 49.9945 22.9864 49.9321 22.9864ZM5.87722 23.0482L6.29323 23.3815C6.79244 23.7978 7.12525 24.3805 7.12525 25.0465V25.5457V28.8756L6.79212 28.5423L6.12585 28.0431C5.95945 27.9599 5.79337 27.9599 5.62696 28.0431L4.9607 28.5423C4.87749 28.6256 4.71239 28.7091 4.62919 28.8756V25.0465C4.62919 24.3805 4.962 23.7978 5.46121 23.3815L5.87722 23.0482ZM54.1345 23.0482L54.5505 23.3815C55.0497 23.7978 55.3825 24.3805 55.3825 25.0465V28.8756L55.0494 28.5423L54.3831 28.0431C54.2167 27.9599 54.0506 27.9599 53.8842 28.0431L53.218 28.5423C53.1348 28.6256 52.9697 28.7091 52.8865 28.8756V25.5457V25.0465C52.8865 24.3805 53.2193 23.7978 53.7185 23.3815L54.1345 23.0482ZM10.0373 23.8807L10.286 24.0482C10.3692 24.1314 10.4533 24.2137 10.4533 24.2969V25.4627H9.62132V24.2969C9.62132 24.2137 9.70387 24.1314 9.78707 24.0482L10.0373 23.8807ZM49.9744 23.8807L50.223 24.0482C50.3062 24.1314 50.3904 24.2137 50.3904 24.2969V25.4627H49.5584V24.2969C49.5584 24.2137 49.6409 24.1314 49.7241 24.0482L49.9744 23.8807ZM5.87722 24.6303C5.62761 24.6303 5.46121 24.7968 5.46121 25.0465V26.7115C5.46121 26.9612 5.62761 27.1277 5.87722 27.1277C6.12683 27.1277 6.29323 26.9612 6.29323 26.7115V25.0465C6.29323 24.7968 6.12683 24.6303 5.87722 24.6303ZM54.1345 24.6303C53.8849 24.6303 53.7185 24.7968 53.7185 25.0465V26.7115C53.7185 26.9612 53.8849 27.1277 54.1345 27.1277C54.3841 27.1277 54.5505 26.9612 54.5505 26.7115V25.0465C54.5505 24.7968 54.3841 24.6303 54.1345 24.6303ZM25.8457 24.7132L26.2618 25.0465C26.761 25.4627 27.0938 26.0455 27.0938 26.7115V26.8773V27.544V31.3731V33.0381L26.7606 32.7048L26.0944 32.2056C25.928 32.1224 25.7619 32.1224 25.5955 32.2056L24.9292 32.7048C24.846 32.788 24.6809 32.8716 24.5977 33.0381V32.2056V27.7098V27.544V26.7115C24.5977 26.0455 24.9305 25.4627 25.4297 25.0465L25.8457 24.7132ZM30.0887 24.7132L31.3368 25.3798C31.836 25.7128 32.1688 26.2946 32.1688 26.8773V31.3731H32.0859V33.3714C31.9195 33.2049 31.8363 33.1214 31.6699 33.0381L30.2545 32.2056C30.0881 32.1224 30.0049 32.1224 29.8385 32.2056L28.4247 33.0381C28.2583 33.1214 28.0919 33.2882 28.0087 33.3714V31.3731V27.544V26.8773C28.0087 26.2946 28.3415 25.7128 28.8407 25.3798L30.0887 24.7132ZM34.166 24.7132L34.582 25.0465C35.0812 25.4627 35.414 26.0455 35.414 26.7115V27.7098V32.2056V33.0381L35.0809 32.7048L34.4146 32.2056C34.2482 32.1224 34.0821 32.1224 33.9157 32.2056L33.2494 32.7048C33.1662 32.788 33.0011 32.8716 32.9179 33.0381V31.3731V26.8773V26.7115C32.9179 26.0455 33.2507 25.4627 33.75 25.0465L34.166 24.7132ZM29.9636 25.4839C29.9012 25.4839 29.8388 25.504 29.7556 25.5457L29.3396 25.7961C29.0068 25.9626 28.7578 26.3782 28.7578 26.7944V28.3765C28.7578 28.6262 28.9242 28.7927 29.1738 28.7927H30.8379C31.0875 28.7927 31.2539 28.6262 31.2539 28.3765V26.7944C31.2539 26.3782 31.0033 25.9626 30.6705 25.7961L30.1716 25.5457C30.0884 25.504 30.026 25.4839 29.9636 25.4839ZM21.7685 25.5457L23.0165 26.2123C23.5158 26.5453 23.8486 27.1271 23.8486 27.7098V32.2056H23.7657V33.3714C23.5993 33.2049 23.5161 33.1214 23.3497 33.0381L21.9343 32.2056C21.7679 32.1224 21.6847 32.1224 21.5183 32.2056L20.1045 33.0381C19.9381 33.1214 19.7717 33.2882 19.6885 33.3714V32.2056V28.3765V27.7098C19.6885 27.1271 20.0213 26.5453 20.5205 26.2123L21.7685 25.5457ZM38.409 25.5457L39.657 26.2123C40.1562 26.5453 40.489 27.1271 40.489 27.7098V28.3765H40.4061V32.2056V33.3714C40.2397 33.2049 40.1565 33.1214 39.9901 33.0381L38.5747 32.2056C38.4083 32.1224 38.3251 32.1224 38.1587 32.2056L36.7449 33.0381C36.5785 33.1214 36.4121 33.2882 36.3289 33.3714V32.2056V27.7098C36.3289 27.1271 36.6617 26.5453 37.1609 26.2123L38.409 25.5457ZM25.8457 26.2952C25.5961 26.2952 25.4297 26.4617 25.4297 26.7115V30.8739C25.4297 31.1237 25.5961 31.2902 25.8457 31.2902C26.0954 31.2902 26.2618 31.1237 26.2618 30.8739V26.7115C26.2618 26.4617 26.0954 26.2952 25.8457 26.2952ZM34.166 26.2952C33.9164 26.2952 33.75 26.4617 33.75 26.7115V30.8739C33.75 31.1237 33.9164 31.2902 34.166 31.2902C34.4156 31.2902 34.582 31.1237 34.582 30.8739V26.7115C34.582 26.4617 34.4156 26.2952 34.166 26.2952ZM21.6434 26.3164C21.581 26.3164 21.5186 26.3365 21.4354 26.3782L21.0194 26.6286C20.6866 26.7951 20.4376 27.2107 20.4376 27.6269V29.209C20.4376 29.4587 20.604 29.6252 20.8536 29.6252H22.5177C22.7673 29.6252 22.9337 29.4587 22.9337 29.209V27.6269C22.9337 27.2107 22.6831 26.7951 22.3503 26.6286L21.8514 26.3782C21.7682 26.3365 21.7058 26.3164 21.6434 26.3164ZM38.2838 26.3164C38.2214 26.3164 38.159 26.3365 38.0758 26.3782L37.6598 26.6286C37.327 26.7951 37.078 27.2107 37.078 27.6269V29.209C37.078 29.4587 37.2444 29.6252 37.4941 29.6252H39.1581C39.4077 29.6252 39.5741 29.4587 39.5741 29.209V27.6269C39.5741 27.2107 39.3235 26.7951 38.9907 26.6286L38.4918 26.3782C38.4086 26.3365 38.3462 26.3164 38.2838 26.3164ZM17.5255 26.3782L17.9415 26.7115C18.4408 27.1277 18.7736 27.7105 18.7736 28.3765V32.2056V33.0381L18.4404 32.7048L17.7742 32.2056C17.6078 32.1224 17.4417 32.1224 17.2753 32.2056L16.609 32.7048C16.5258 32.788 16.3607 32.8716 16.2775 33.0381V29.209V28.3765C16.2775 27.7105 16.6103 27.1277 17.1095 26.7115L17.5255 26.3782ZM30.0059 26.3782L30.2545 26.5456C30.3377 26.6289 30.4219 26.7112 30.4219 26.7944V27.9602H29.5898V26.7944C29.5898 26.7112 29.6724 26.6289 29.7556 26.5456L30.0059 26.3782ZM42.4862 26.3782L42.9022 26.7115C43.4014 27.1277 43.7342 27.7105 43.7342 28.3765V29.209V33.0381L43.4011 32.7048L42.7348 32.2056C42.5684 32.1224 42.4023 32.1224 42.2359 32.2056L41.5697 32.7048C41.4865 32.788 41.3214 32.8716 41.2382 33.0381V32.2056V28.3765C41.2382 27.7105 41.571 27.1277 42.0702 26.7115L42.4862 26.3782ZM14.1974 27.2107L14.6134 27.544C15.1127 27.9602 15.4455 28.543 15.4455 29.209V33.0381L15.1123 32.7048L14.4461 32.2056C14.2797 32.1224 14.1136 32.1224 13.9472 32.2056L13.2809 32.7048C13.1977 32.788 13.0326 32.8716 12.9494 33.0381V30.2073V29.209C12.9494 28.543 13.2822 27.9602 13.7814 27.544L14.1974 27.2107ZM21.6856 27.2107L21.9343 27.3781C22.0175 27.4614 22.1016 27.5437 22.1016 27.6269V28.7927H21.2696V27.6269C21.2696 27.5437 21.3522 27.4614 21.4354 27.3781L21.6856 27.2107ZM38.3261 27.2107L38.5747 27.3781C38.6579 27.4614 38.7421 27.5437 38.7421 27.6269V28.7927H37.9101V27.6269C37.9101 27.5437 37.9926 27.4614 38.0758 27.3781L38.3261 27.2107ZM45.8143 27.2107L46.2303 27.544C46.7295 27.9602 47.0623 28.543 47.0623 29.209V30.2073V33.0381L46.7292 32.7048L46.0629 32.2056C45.8965 32.1224 45.7304 32.1224 45.564 32.2056L44.8977 32.7048C44.8145 32.788 44.6494 32.8716 44.5662 33.0381V29.209C44.5662 28.543 44.899 27.9602 45.3983 27.544L45.8143 27.2107ZM17.5255 27.9602C17.2759 27.9602 17.1095 28.1267 17.1095 28.3765V30.8739C17.1095 31.1237 17.2759 31.2902 17.5255 31.2902C17.7751 31.2902 17.9415 31.1237 17.9415 30.8739V28.3765C17.9415 28.1267 17.7751 27.9602 17.5255 27.9602ZM42.4862 27.9602C42.2366 27.9602 42.0702 28.1267 42.0702 28.3765V30.8739C42.0702 31.1237 42.2366 31.2902 42.4862 31.2902C42.7358 31.2902 42.9022 31.1237 42.9022 30.8739V28.3765C42.9022 28.1267 42.7358 27.9602 42.4862 27.9602ZM10.0373 28.0431L11.2854 28.7098C11.7846 29.0428 12.1174 29.6246 12.1174 30.2073V34.2039C11.951 34.0374 11.8678 33.9538 11.7014 33.8706L10.286 33.0381C10.1196 32.9549 10.0364 32.9549 9.86995 33.0381L8.45616 33.8706C8.28976 33.9538 8.12335 34.1207 8.04015 34.2039V30.8739V30.2073H7.95727C7.95727 29.6246 8.29008 29.0428 8.7893 28.7098L10.0373 28.0431ZM50.0573 28.0431L51.3053 28.7098C51.8045 29.0428 52.1373 29.6246 52.1373 30.2073V30.8739H52.0544V34.2039C51.888 34.0374 51.8048 33.9538 51.6384 33.8706L50.223 33.0381C50.0566 32.9549 49.9734 32.9549 49.807 33.0381L48.3932 33.8706C48.2268 33.9538 48.0604 34.1207 47.9772 34.2039V30.2073C47.9772 29.6246 48.31 29.0428 48.8092 28.7098L50.0573 28.0431ZM14.1974 28.7927C13.9478 28.7927 13.7814 28.9592 13.7814 29.209V30.8739C13.7814 31.1237 13.9478 31.2902 14.1974 31.2902C14.447 31.2902 14.6134 31.1237 14.6134 30.8739V29.209C14.6134 28.9592 14.447 28.7927 14.1974 28.7927ZM45.8143 28.7927C45.5647 28.7927 45.3983 28.9592 45.3983 29.209V30.8739C45.3983 31.1237 45.5647 31.2902 45.8143 31.2902C46.0639 31.2902 46.2303 31.1237 46.2303 30.8739V29.209C46.2303 28.9592 46.0639 28.7927 45.8143 28.7927ZM9.99508 28.8139C9.93268 28.8139 9.87028 28.834 9.78707 28.8756L9.37106 29.126C9.03825 29.2925 8.7893 29.7081 8.7893 30.1244V31.7064C8.7893 31.9562 8.9557 32.1227 9.20531 32.1227H10.8694C11.119 32.1227 11.2854 31.9562 11.2854 31.7064V30.1244C11.2854 29.7081 11.0348 29.3758 10.702 29.126L10.2031 28.8756C10.1199 28.834 10.0575 28.8139 9.99508 28.8139ZM49.9321 28.8139C49.8697 28.8139 49.8073 28.834 49.7241 28.8756L49.3081 29.126C48.9753 29.2925 48.7263 29.7081 48.7263 30.1244V31.7064C48.7263 31.9562 48.8928 32.1227 49.1424 32.1227H50.8064C51.056 32.1227 51.2224 31.9562 51.2224 31.7064V30.1244C51.2224 29.7081 50.9718 29.2925 50.639 29.126L50.1401 28.8756C50.0569 28.834 49.9945 28.8139 49.9321 28.8139ZM5.87722 28.8756L6.29323 29.209C6.79244 29.6252 7.12525 30.208 7.12525 30.8739V34.7031L6.79212 34.3698L6.12585 33.8706C5.95945 33.7873 5.79337 33.7873 5.62696 33.8706L4.9607 34.3698C4.87749 34.453 4.71239 34.5366 4.62919 34.7031V30.8739C4.62919 30.208 4.962 29.6252 5.46121 29.209L5.87722 28.8756ZM54.1345 28.8756L54.5505 29.209C55.0497 29.6252 55.3825 30.208 55.3825 30.8739V34.7031L55.0494 34.3698L54.3831 33.8706C54.2167 33.7873 54.0506 33.7873 53.8842 33.8706L53.218 34.3698C53.1348 34.453 52.9697 34.5366 52.8865 34.7031V30.8739C52.8865 30.208 53.2193 29.6252 53.7185 29.209L54.1345 28.8756ZM10.0373 29.7081L10.286 29.8756C10.3692 29.9589 10.4533 30.0411 10.4533 30.1244V31.2902H9.62132V30.1244C9.62132 30.0411 9.70387 29.9589 9.78707 29.8756L10.0373 29.7081ZM49.9744 29.7081L50.223 29.8756C50.3062 29.9589 50.3904 30.0411 50.3904 30.1244V31.2902H49.5584V30.1244C49.5584 30.0411 49.6409 29.9589 49.7241 29.8756L49.9744 29.7081ZM5.87722 30.4577C5.62761 30.4577 5.46121 30.6242 5.46121 30.8739V32.5389C5.46121 32.7887 5.62761 32.9552 5.87722 32.9552C6.12683 32.9552 6.29323 32.7887 6.29323 32.5389V30.8739C6.29323 30.6242 6.12683 30.4577 5.87722 30.4577ZM54.1345 30.4577C53.8849 30.4577 53.7185 30.6242 53.7185 30.8739V32.5389C53.7185 32.7887 53.8849 32.9552 54.1345 32.9552C54.3841 32.9552 54.5505 32.7887 54.5505 32.5389V30.8739C54.5505 30.6242 54.3841 30.4577 54.1345 30.4577ZM14.1974 33.0381L14.6134 33.3714C15.1127 33.7877 15.4455 34.3704 15.4455 35.0364V40.4476H12.9494V36.0348V35.0364C12.9494 34.3704 13.2822 33.7877 13.7814 33.3714L14.1974 33.0381ZM17.5255 33.0381L17.9415 33.3714C18.4408 33.7877 18.7736 34.3704 18.7736 35.0364V35.2023V39.698V40.4476H16.2775V35.0364C16.2775 34.3704 16.6103 33.7877 17.1095 33.3714L17.5255 33.0381ZM21.6856 33.0381L22.9337 33.7048C23.4329 34.0377 23.7657 34.6195 23.7657 35.2023V35.8689V39.698V40.4476H19.6056V39.698V35.2023C19.6056 34.6195 19.9384 34.0377 20.4376 33.7048L21.6856 33.0381ZM25.8457 33.0381L26.2618 33.3714C26.761 33.7877 27.0938 34.3704 27.0938 35.0364V35.2023V35.8689V39.698V40.4476H24.5977V39.698V35.8689V35.2023V35.0364C24.5977 34.3704 24.9305 33.7877 25.4297 33.3714L25.8457 33.0381ZM30.0059 33.0381L31.2539 33.7048C31.7531 34.0377 32.0859 34.6195 32.0859 35.2023V39.698V40.4476H27.9258V39.698V35.8689V35.2023C27.9258 34.6195 28.2586 34.0377 28.7578 33.7048L30.0059 33.0381ZM34.166 33.0381L34.582 33.3714C35.0812 33.7877 35.414 34.3704 35.414 35.0364V35.2023V39.698V40.4476H32.9179V39.698V35.2023V35.0364C32.9179 34.3704 33.2507 33.7877 33.75 33.3714L34.166 33.0381ZM38.3261 33.0381L39.5741 33.7048C40.0733 34.0377 40.4061 34.6195 40.4061 35.2023V39.698V40.4476H36.246V39.698V35.2023C36.246 34.6195 36.5788 34.0377 37.078 33.7048L38.3261 33.0381ZM42.4862 33.0381L42.9022 33.3714C43.4014 33.7877 43.7342 34.3704 43.7342 35.0364V40.4476H41.2382V39.698V35.2023V35.0364C41.2382 34.3704 41.571 33.7877 42.0702 33.3714L42.4862 33.0381ZM45.8143 33.0381L46.2303 33.3714C46.7295 33.7877 47.0623 34.3704 47.0623 35.0364V36.0348V40.4476H44.5662V35.0364C44.5662 34.3704 44.899 33.7877 45.3983 33.3714L45.8143 33.0381ZM21.6434 33.8088C21.581 33.8088 21.5186 33.829 21.4354 33.8706L21.0194 34.121C20.6866 34.2875 20.4376 34.7031 20.4376 35.1193V36.7014C20.4376 36.9511 20.604 37.1176 20.8536 37.1176H22.5177C22.7673 37.1176 22.9337 36.9511 22.9337 36.7014V35.1193C22.9337 34.7031 22.6831 34.2875 22.3503 34.121L21.8514 33.8706C21.7682 33.829 21.7058 33.8088 21.6434 33.8088ZM29.9636 33.8088C29.9012 33.8088 29.8388 33.829 29.7556 33.8706L29.3396 34.121C29.0068 34.2875 28.7578 34.7031 28.7578 35.1193V36.7014C28.7578 36.9511 28.9242 37.1176 29.1738 37.1176H30.8379C31.0875 37.1176 31.2539 36.9511 31.2539 36.7014V35.1193C31.2539 34.7031 31.0033 34.2875 30.6705 34.121L30.1716 33.8706C30.0884 33.829 30.026 33.8088 29.9636 33.8088ZM38.2838 33.8088C38.2214 33.8088 38.159 33.829 38.0758 33.8706L37.6598 34.121C37.327 34.2875 37.078 34.7031 37.078 35.1193V36.7014C37.078 36.9511 37.2444 37.1176 37.4941 37.1176H39.1581C39.4077 37.1176 39.5741 36.9511 39.5741 36.7014V35.1193C39.5741 34.7031 39.3235 34.2875 38.9907 34.121L38.4918 33.8706C38.4086 33.829 38.3462 33.8088 38.2838 33.8088ZM10.0373 33.8706L11.2854 34.5372C11.7846 34.8702 12.1174 35.452 12.1174 36.0348V40.4476H7.95727V36.7014V36.0348C7.95727 35.452 8.29008 34.8702 8.7893 34.5372L10.0373 33.8706ZM49.9744 33.8706L51.2224 34.5372C51.7216 34.8702 52.0544 35.452 52.0544 36.0348V36.7014V40.4476H47.8943V36.0348C47.8943 35.452 48.2271 34.8702 48.7263 34.5372L49.9744 33.8706ZM14.1974 34.6202C13.9478 34.6202 13.7814 34.7867 13.7814 35.0364V39.1989C13.7814 39.4486 13.9478 39.6151 14.1974 39.6151C14.447 39.6151 14.6134 39.4486 14.6134 39.1989V35.0364C14.6134 34.7867 14.447 34.6202 14.1974 34.6202ZM17.5255 34.6202C17.2759 34.6202 17.1095 34.7867 17.1095 35.0364V39.1989C17.1095 39.4486 17.2759 39.6151 17.5255 39.6151C17.7751 39.6151 17.9415 39.4486 17.9415 39.1989V35.0364C17.9415 34.7867 17.7751 34.6202 17.5255 34.6202ZM25.8457 34.6202C25.5961 34.6202 25.4297 34.7867 25.4297 35.0364V39.1989C25.4297 39.4486 25.5961 39.6151 25.8457 39.6151C26.0954 39.6151 26.2618 39.4486 26.2618 39.1989V35.0364C26.2618 34.7867 26.0954 34.6202 25.8457 34.6202ZM34.166 34.6202C33.9164 34.6202 33.75 34.7867 33.75 35.0364V39.1989C33.75 39.4486 33.9164 39.6151 34.166 39.6151C34.4156 39.6151 34.582 39.4486 34.582 39.1989V35.0364C34.582 34.7867 34.4156 34.6202 34.166 34.6202ZM42.4862 34.6202C42.2366 34.6202 42.0702 34.7867 42.0702 35.0364V39.1989C42.0702 39.4486 42.2366 39.6151 42.4862 39.6151C42.7358 39.6151 42.9022 39.4486 42.9022 39.1989V35.0364C42.9022 34.7867 42.7358 34.6202 42.4862 34.6202ZM45.8143 34.6202C45.5647 34.6202 45.3983 34.7867 45.3983 35.0364V39.1989C45.3983 39.4486 45.5647 39.6151 45.8143 39.6151C46.0639 39.6151 46.2303 39.4486 46.2303 39.1989V35.0364C46.2303 34.7867 46.0639 34.6202 45.8143 34.6202ZM9.99508 34.6413C9.93268 34.6413 9.87028 34.6615 9.78707 34.7031L9.37106 34.9535C9.03825 35.12 8.7893 35.5356 8.7893 35.9518V37.5339C8.7893 37.7836 8.9557 37.9501 9.20531 37.9501H10.8694C11.119 37.9501 11.2854 37.7836 11.2854 37.5339V35.9518C11.2854 35.5356 11.0348 35.12 10.702 34.9535L10.2031 34.7031C10.1199 34.6615 10.0575 34.6413 9.99508 34.6413ZM49.9321 34.6413C49.8697 34.6413 49.8073 34.6615 49.7241 34.7031L49.3081 34.9535C48.9753 35.12 48.7263 35.5356 48.7263 35.9518V37.5339C48.7263 37.7836 48.8928 37.9501 49.1424 37.9501H50.8064C51.056 37.9501 51.2224 37.7836 51.2224 37.5339V35.9518C51.2224 35.5356 50.9718 35.12 50.639 34.9535L50.1401 34.7031C50.0569 34.6615 49.9945 34.6413 49.9321 34.6413ZM5.87722 34.7031L6.29323 35.0364C6.79244 35.4527 7.12525 36.0354 7.12525 36.7014V40.4476H4.62919V36.7014C4.62919 36.0354 4.962 35.4527 5.46121 35.0364L5.87722 34.7031ZM21.6856 34.7031L21.9343 34.8706C22.0175 34.9538 22.1016 35.0361 22.1016 35.1193V36.2852H21.2696V35.1193C21.2696 35.0361 21.3522 34.9538 21.4354 34.8706L21.6856 34.7031ZM30.0059 34.7031L30.2545 34.8706C30.3377 34.9538 30.4219 35.0361 30.4219 35.1193V36.2852H29.5898V35.1193C29.5898 35.0361 29.6724 34.9538 29.7556 34.8706L30.0059 34.7031ZM38.3261 34.7031L38.5747 34.8706C38.6579 34.9538 38.7421 35.0361 38.7421 35.1193V36.2852H37.9101V35.1193C37.9101 35.0361 37.9926 34.9538 38.0758 34.8706L38.3261 34.7031ZM54.1345 34.7031L54.5505 35.0364C55.0497 35.4527 55.3825 36.0354 55.3825 36.7014V40.4476H52.8865V36.7014C52.8865 36.0354 53.2193 35.4527 53.7185 35.0364L54.1345 34.7031ZM10.0373 35.5356L10.286 35.7031C10.3692 35.7863 10.4533 35.8686 10.4533 35.9518V37.1176H9.62132V35.9518C9.62132 35.8686 9.70387 35.7863 9.78707 35.7031L10.0373 35.5356ZM49.9744 35.5356L50.223 35.7031C50.3062 35.7863 50.3904 35.8686 50.3904 35.9518V37.1176H49.5584V35.9518C49.5584 35.8686 49.6409 35.7863 49.7241 35.7031L49.9744 35.5356ZM5.87722 36.2852C5.62761 36.2852 5.46121 36.4517 5.46121 36.7014V39.1989C5.46121 39.4486 5.62761 39.6151 5.87722 39.6151C6.12683 39.6151 6.29323 39.4486 6.29323 39.1989V36.7014C6.29323 36.4517 6.12683 36.2852 5.87722 36.2852ZM54.1345 36.2852C53.8849 36.2852 53.7185 36.4517 53.7185 36.7014V39.1989C53.7185 39.4486 53.8849 39.6151 54.1345 39.6151C54.3841 39.6151 54.5505 39.4486 54.5505 39.1989V36.7014C54.5505 36.4517 54.3841 36.2852 54.1345 36.2852ZM4.62919 41.2801H7.12525V42.5288V53.7675H4.62919V42.5288V41.2801ZM7.95727 41.2801H12.1174V43.8605C11.8678 43.7773 11.7007 43.7776 11.4511 43.7776C11.2015 43.2781 10.6197 42.9451 10.0373 42.9451C9.45491 42.9451 8.87152 43.2781 8.62192 43.7776C8.37231 43.6943 8.20688 43.7773 7.95727 43.8605V42.5288V41.2801ZM12.9494 41.2801H15.4455V53.7675H12.9494V41.2801ZM16.2775 41.2801H18.7736V53.7675H16.2775V41.2801ZM19.6056 41.2801H23.7657V43.8605C23.5161 43.7773 23.349 43.7776 23.0994 43.7776C22.8498 43.2781 22.2681 42.9451 21.6856 42.9451C21.1032 42.9451 20.5198 43.2781 20.2702 43.7776C20.0206 43.6943 19.8552 43.7773 19.6056 43.8605V41.2801ZM24.5977 41.2801H27.0938V53.7675H24.5977V41.2801ZM27.9258 41.2801H32.0859V43.8605C31.8363 43.7773 31.6692 43.7776 31.4196 43.7776C31.17 43.2781 30.5883 42.9451 30.0059 42.9451C29.4234 42.9451 28.84 43.2781 28.5904 43.7776C28.3408 43.6943 28.1754 43.7773 27.9258 43.8605V41.2801ZM32.9179 41.2801H35.414V53.7675H32.9179V41.2801ZM36.246 41.2801H40.4061V43.8605C40.1565 43.7773 39.9895 43.7776 39.7399 43.7776C39.4903 43.2781 38.9085 42.9451 38.3261 42.9451C37.7437 42.9451 37.1603 43.2781 36.9107 43.7776C36.6611 43.6943 36.4956 43.7773 36.246 43.8605V41.2801ZM41.2382 41.2801H43.7342V53.7675H41.2382V41.2801ZM44.5662 41.2801H47.0623V53.7675H44.5662V41.2801ZM47.8943 41.2801H52.0544V42.5288V43.8605C51.8048 43.7773 51.6378 43.7776 51.3882 43.7776C51.1386 43.2781 50.5568 42.9451 49.9744 42.9451C49.392 42.9451 48.8086 43.2781 48.559 43.7776C48.3094 43.6943 48.1439 43.7773 47.8943 43.8605V41.2801ZM52.8865 41.2801H55.3825V42.5288V53.7675H52.8865V42.5288V41.2801ZM10.1202 43.6947C10.5362 43.6947 10.869 43.9434 10.9522 44.3597C10.9522 44.5262 11.0345 44.6098 11.2009 44.693C11.3673 44.7763 11.4505 44.693 11.6169 44.693C11.7001 44.6098 11.7839 44.6101 11.8671 44.6101C12.1167 44.6101 12.2831 44.7766 12.2831 45.0263V53.7675H7.95727V45.0263C7.95727 44.7766 8.12368 44.6101 8.37329 44.6101C8.45649 44.6101 8.53872 44.6098 8.62192 44.693C8.70512 44.7763 8.87152 44.7763 9.03793 44.693C9.20433 44.6098 9.28818 44.5262 9.28818 44.3597C9.37139 43.9434 9.7042 43.6947 10.1202 43.6947ZM21.7685 43.6947C22.1845 43.6947 22.5173 43.9434 22.6005 44.3597C22.6005 44.5262 22.6828 44.6098 22.8492 44.693C22.9324 44.7763 23.0988 44.693 23.2652 44.693C23.3484 44.6098 23.4322 44.6101 23.5154 44.6101C23.765 44.6101 23.9314 44.7766 23.9314 45.0263V53.7675H19.6056V45.0263C19.6056 44.7766 19.772 44.6101 20.0216 44.6101C20.1048 44.6101 20.187 44.6098 20.2702 44.693C20.3534 44.7763 20.5198 44.7763 20.6862 44.693C20.8526 44.6098 20.9365 44.5262 20.9365 44.3597C21.0197 43.9434 21.3525 43.6947 21.7685 43.6947ZM30.0887 43.6947C30.5047 43.6947 30.8376 43.9434 30.9208 44.3597C30.9208 44.5262 31.003 44.6098 31.1694 44.693C31.2526 44.7763 31.419 44.693 31.5854 44.693C31.6686 44.6098 31.7525 44.6101 31.8357 44.6101C32.0853 44.6101 32.2517 44.7766 32.2517 45.0263V53.7675H27.9258V45.0263C27.9258 44.7766 28.0922 44.6101 28.3418 44.6101C28.425 44.6101 28.5072 44.6098 28.5904 44.693C28.6736 44.7763 28.84 44.7763 29.0065 44.693C29.1729 44.6098 29.2567 44.5262 29.2567 44.3597C29.3399 43.9434 29.6727 43.6947 30.0887 43.6947ZM38.409 43.6947C38.825 43.6947 39.1578 43.9434 39.241 44.3597C39.241 44.5262 39.3232 44.6098 39.4896 44.693C39.5728 44.7763 39.7392 44.693 39.9056 44.693C39.9888 44.6098 40.0727 44.6101 40.1559 44.6101C40.4055 44.6101 40.5719 44.7766 40.5719 45.0263V53.7675H36.246V45.0263C36.246 44.7766 36.4124 44.6101 36.662 44.6101C36.7452 44.6101 36.8275 44.6098 36.9107 44.693C36.9939 44.7763 37.1603 44.7763 37.3267 44.693C37.4931 44.6098 37.5769 44.5262 37.5769 44.3597C37.6601 43.9434 37.9929 43.6947 38.409 43.6947ZM50.0573 43.6947C50.4733 43.6947 50.8061 43.9434 50.8893 44.3597C50.8893 44.5262 50.9715 44.6098 51.1379 44.693C51.2211 44.7763 51.3875 44.693 51.5539 44.693C51.6371 44.6098 51.721 44.6101 51.8042 44.6101C52.0538 44.6101 52.2202 44.7766 52.2202 45.0263V53.7675H47.8943V45.0263C47.8943 44.7766 48.0607 44.6101 48.3103 44.6101C48.3935 44.6101 48.4758 44.6098 48.559 44.693C48.6422 44.7763 48.8086 44.7763 48.975 44.693C49.1414 44.6098 49.2252 44.5262 49.2252 44.3597C49.3084 43.9434 49.6412 43.6947 50.0573 43.6947ZM5.87722 43.7776C5.62761 43.7776 5.46121 43.9441 5.46121 44.1938V50.8538C5.46121 51.1035 5.62761 51.27 5.87722 51.27C6.12683 51.27 6.29323 51.1035 6.29323 50.8538V44.1938C6.29323 43.9441 6.12683 43.7776 5.87722 43.7776ZM14.1974 43.7776C13.9478 43.7776 13.7814 43.9441 13.7814 44.1938V50.8538C13.7814 51.1035 13.9478 51.27 14.1974 51.27C14.447 51.27 14.6134 51.1035 14.6134 50.8538V44.1938C14.6134 43.9441 14.447 43.7776 14.1974 43.7776ZM17.5255 43.7776C17.2759 43.7776 17.1095 43.9441 17.1095 44.1938V50.8538C17.1095 51.1035 17.2759 51.27 17.5255 51.27C17.7751 51.27 17.9415 51.1035 17.9415 50.8538V44.1938C17.9415 43.9441 17.7751 43.7776 17.5255 43.7776ZM25.8457 43.7776C25.5961 43.7776 25.4297 43.9441 25.4297 44.1938V50.8538C25.4297 51.1035 25.5961 51.27 25.8457 51.27C26.0954 51.27 26.2618 51.1035 26.2618 50.8538V44.1938C26.2618 43.9441 26.0954 43.7776 25.8457 43.7776ZM34.166 43.7776C33.9164 43.7776 33.75 43.9441 33.75 44.1938V50.8538C33.75 51.1035 33.9164 51.27 34.166 51.27C34.4156 51.27 34.582 51.1035 34.582 50.8538V44.1938C34.582 43.9441 34.4156 43.7776 34.166 43.7776ZM42.4862 43.7776C42.2366 43.7776 42.0702 43.9441 42.0702 44.1938V50.8538C42.0702 51.1035 42.2366 51.27 42.4862 51.27C42.7358 51.27 42.9022 51.1035 42.9022 50.8538V44.1938C42.9022 43.9441 42.7358 43.7776 42.4862 43.7776ZM45.8143 43.7776C45.5647 43.7776 45.3983 43.9441 45.3983 44.1938V50.8538C45.3983 51.1035 45.5647 51.27 45.8143 51.27C46.0639 51.27 46.2303 51.1035 46.2303 50.8538V44.1938C46.2303 43.9441 46.0639 43.7776 45.8143 43.7776ZM54.1345 43.7776C53.8849 43.7776 53.7185 43.9441 53.7185 44.1938V50.8538C53.7185 51.1035 53.8849 51.27 54.1345 51.27C54.3841 51.27 54.5505 51.1035 54.5505 50.8538V44.1938C54.5505 43.9441 54.3841 43.7776 54.1345 43.7776ZM9.20531 46.2751C8.9557 46.2751 8.7893 46.4416 8.7893 46.6913V50.0213C8.7893 50.271 8.9557 50.4375 9.20531 50.4375H10.8694C11.119 50.4375 11.2854 50.271 11.2854 50.0213V46.6913C11.2854 46.4416 11.119 46.2751 10.8694 46.2751H9.20531ZM20.8536 46.2751C20.604 46.2751 20.4376 46.4416 20.4376 46.6913V50.0213C20.4376 50.271 20.604 50.4375 20.8536 50.4375H22.5177C22.7673 50.4375 22.9337 50.271 22.9337 50.0213V46.6913C22.9337 46.4416 22.7673 46.2751 22.5177 46.2751H20.8536ZM29.1738 46.2751C28.9242 46.2751 28.7578 46.4416 28.7578 46.6913V50.0213C28.7578 50.271 28.9242 50.4375 29.1738 50.4375H30.8379C31.0875 50.4375 31.2539 50.271 31.2539 50.0213V46.6913C31.2539 46.4416 31.0875 46.2751 30.8379 46.2751H29.1738ZM37.4941 46.2751C37.2444 46.2751 37.078 46.4416 37.078 46.6913V50.0213C37.078 50.271 37.2444 50.4375 37.4941 50.4375H39.1581C39.4077 50.4375 39.5741 50.271 39.5741 50.0213V46.6913C39.5741 46.4416 39.4077 46.2751 39.1581 46.2751H37.4941ZM49.1424 46.2751C48.8928 46.2751 48.7263 46.4416 48.7263 46.6913V50.0213C48.7263 50.271 48.8928 50.4375 49.1424 50.4375H50.8064C51.056 50.4375 51.2224 50.271 51.2224 50.0213V46.6913C51.2224 46.4416 51.056 46.2751 50.8064 46.2751H49.1424ZM9.62132 47.1076H10.4533V49.605H9.62132V47.1076ZM21.2696 47.1076H22.1016V49.605H21.2696V47.1076ZM29.5898 47.1076H30.4219V49.605H29.5898V47.1076ZM37.9101 47.1076H38.7421V49.605H37.9101V47.1076ZM49.5584 47.1076H50.3904V49.605H49.5584V47.1076Z" fill="#505565"/>
</svg>
