<svg width="515" height="308" viewBox="0 0 515 308" fill="none" xmlns="http://www.w3.org/2000/svg">
<path d="M487 297H33V299H487V297Z" fill="#E6E6E6"/>
<path d="M114.041 252.28C112.871 244.8 110.589 237.533 107.269 230.717L106.785 229.724L103.191 233.678L105.854 227.789L105.68 227.447C103.329 222.832 100.725 218.35 97.8774 214.019L97.3493 213.217L96.6449 213.992L97.138 212.901L96.8911 212.533C93.3646 207.287 90.6553 203.968 90.6284 203.935L89.8623 203L89.3695 204.115C89.2791 204.319 80.3244 224.787 79.1382 245.012L79.1194 245.327L85.1462 252.553L79 248.726L79.0107 250.115C79.0293 252.492 79.1924 254.866 79.499 257.223C79.7697 259.251 80.0883 261.231 80.4548 263.163C81.0358 263.181 81.6009 263.356 82.0891 263.669C81.6645 261.51 81.2983 259.291 80.9906 257.013C80.7532 255.194 80.6037 253.346 80.5441 251.503L92.4323 258.907L80.6595 244.791C81.7314 227.692 88.3843 210.464 90.2522 205.916C91.2546 207.206 93.1456 209.709 95.4077 213.054L91.2954 222.147L97.1583 215.699C99.7001 219.624 102.042 223.673 104.174 227.831L97.841 241.833L106.403 232.416C109.394 238.795 111.464 245.56 112.552 252.511C114.051 263.739 113.758 274.525 111.728 282.883C109.784 290.889 106.357 295.81 102.327 296.385C101.497 296.498 100.653 296.448 99.843 296.238C99.1933 296.696 98.4115 296.933 97.6148 296.913H97.395C98.6453 297.601 100.047 297.974 101.477 298C101.83 298 102.183 297.975 102.532 297.925C107.271 297.25 111.056 292.042 113.188 283.262C115.264 274.715 115.567 263.719 114.041 252.28Z" fill="#E6E6E6"/>
<path d="M100.899 298C94.6998 298 85.7612 294.583 76.8954 288.362C75.5905 287.439 74.3444 286.436 73.1645 285.357L72.1715 284.448L75.926 283.365L70.9267 283.181L70.7158 282.959C61.3451 273.126 55.5138 259.236 55.4557 259.097L55 258L56.1848 258.054C56.3028 258.059 59.1198 258.192 63.3535 258.794L63.6174 258.831V258.829L64.5457 258.971C68.0029 259.497 71.4277 260.218 74.804 261.131L75.1645 261.229L76.2909 264.009L76.12 261.515L77.1535 261.814C82.0516 263.231 86.7039 265.392 90.948 268.222C104.431 277.683 111.891 289.506 107.947 295.149C106.599 297.078 104.118 297.999 100.899 298ZM75.2012 285.143C76.0248 285.842 76.8818 286.507 77.7609 287.128C90.1096 295.793 103.369 299.069 106.714 294.284C110.059 289.499 102.45 278.134 90.0993 269.469C86.289 266.929 82.1378 264.944 77.7701 263.575L78.4379 273.317L74.0513 262.49C71.1623 261.722 68.2068 261.09 65.248 260.608L65.7327 267.678L62.7136 260.227C60.3744 259.905 58.4887 259.731 57.3417 259.642C58.9055 263.082 64.0726 273.708 71.5944 281.696L85.3907 282.202L75.2012 285.143Z" fill="#E6E6E6"/>
<path d="M141.374 233.442L141.373 233.439C140.967 232.146 139.589 231.426 138.296 231.832L132.506 233.65C131.213 234.056 130.493 235.434 130.899 236.727L130.9 236.73C131.306 238.023 132.684 238.743 133.977 238.337L139.767 236.519C141.061 236.113 141.78 234.735 141.374 233.442Z" fill="#6C63FF"/>
<path d="M136.621 293.129C134.904 292.931 132.477 291.244 130.956 290.071C131.712 289.629 132.213 289.323 132.213 289.323C132.213 289.323 128.599 285.69 129.035 283.313C129.472 280.936 128.168 270.106 128.168 270.106C128.168 270.106 126.144 268.569 127.228 264.655C128.312 260.741 128.312 259.762 128.312 259.762C128.312 259.762 127.662 254.8 128.096 253.613C128.529 252.426 128.532 249.824 128.532 249.824L129.397 240.848L129.864 237.49C130.65 240.064 131.968 241.765 134.033 240.32C138.804 236.964 135.262 225.992 135.262 225.992C135.262 225.992 134.648 223.632 134.217 221.659L134.453 221.03C134.453 221.03 134.309 218.587 135.537 217.747C136.766 216.908 135.537 198.808 135.537 198.808L135.129 187.833V187.508C135.066 185.75 134.548 184.038 133.626 182.539C132.703 181.041 131.408 179.808 129.866 178.96L129.572 178.807C129.555 178.707 129.538 178.607 129.522 178.501C129.288 177.078 129.027 175.365 128.855 173.67C128.835 173.486 128.818 173.306 128.802 173.114C133.758 171.871 137.428 167.504 137.428 162.303C137.428 161.309 137.291 160.321 137.022 159.365C137.002 159.292 136.98 159.22 136.958 159.151C137.619 158.489 138.162 158.297 138.212 158.728C138.284 159.356 138.826 158.553 138.862 157.925C138.898 157.296 139.043 157.749 139.418 157.749C139.793 157.749 139.852 157.085 139.273 156.738C138.695 156.39 139.382 156.004 139.551 155.934C139.721 155.865 139.732 155.2 139.551 155.2C139.529 155.198 139.507 155.191 139.488 155.181H139.468C139.437 155.167 139.406 155.151 139.376 155.134L139.262 155.061L139.232 155.042L139.107 154.953C138.776 154.717 138.395 154.397 138.395 154.397L138.576 154.258C138.756 154.119 138.359 153.769 138.02 153.735H137.95C137.611 153.683 137.069 153.488 137.414 153.327C137.492 153.291 137.525 153.249 137.531 153.204C137.53 153.18 137.525 153.156 137.514 153.134C137.504 153.112 137.488 153.092 137.469 153.077C137.419 153.03 137.363 152.991 137.303 152.96L137.2 152.913L137.1 152.879C137.064 152.869 137.028 152.862 136.991 152.857H136.969H136.869H136.788C136.319 152.738 135.862 152.576 135.423 152.373V151.639L134.815 151.356L134.309 151.133L134.489 150.458H132.899L133.116 149.863L132.385 149.721L132.213 149.688V149.41L131.237 149.026V148.607H130.064L130.514 148.256H129.611C127.251 146.638 120.604 146.755 117.955 147.639C115.306 148.523 114.533 149.176 110.922 156.771C108.612 161.625 111.561 166.331 114.152 168.958C114.238 169.047 114.324 169.13 114.41 169.214L114.447 169.25L114.677 169.469L114.7 169.489L114.947 169.714L114.975 169.736L115.192 169.925L115.222 169.95L115.456 170.142L115.667 170.306L115.703 170.334C115.845 170.442 115.981 170.537 116.106 170.612L116.145 170.637L116.312 170.745H116.326C116.381 170.781 116.437 170.812 116.49 170.843L116.523 170.862L116.648 170.929H116.676L116.807 170.987H116.829L116.921 171.021H116.946C116.976 171.029 117.006 171.036 117.037 171.04H117.135C117.153 171.036 117.17 171.029 117.185 171.018C117.521 170.845 117.884 170.729 118.258 170.673L118.536 170.895C118.669 171.004 118.814 171.107 118.947 171.207C118.98 171.41 119.008 171.615 119.033 171.829C119.196 173.191 119.108 174.57 118.772 175.899C118.744 176.002 118.714 176.105 118.683 176.208C117.443 176.59 116.378 177.401 115.681 178.496C112.573 183.319 111.2 186.185 111.2 186.185C111.2 186.185 110.741 189.44 109.957 190.213C109.173 190.986 111.403 204.818 111.403 204.818C111.403 204.818 108.728 210.128 111.125 211.073C113.521 212.018 110.908 212.785 110.908 212.785C110.908 212.785 111.631 214.392 110.257 214.531C108.884 214.67 108.089 217.119 108.089 217.119L103.827 221.731L104.9 222.098C104.809 222.242 104.714 222.392 104.623 222.562C103.199 224.942 101.048 229.79 102.463 235.627C104.486 244.014 105.065 245.829 104.992 247.303C104.92 248.776 107.302 254.572 106.724 255.898C106.146 257.224 105.823 261.839 106.816 263.028C107.808 264.218 106.438 264.913 106.438 264.913C106.438 264.913 107.917 266.662 107.177 267.849C106.438 269.036 108.097 283.713 108.097 283.713C108.097 283.713 110.772 287.488 110.627 288.675C110.482 289.862 109.254 290.493 110.349 290.983C111.444 291.472 111 292.17 111 292.17L111.277 292.192C111.03 292.414 110.794 292.648 110.577 292.884C110.362 293.118 110.164 293.367 109.985 293.629C109.893 293.768 109.811 293.913 109.74 294.063C108.767 296.203 111.358 297.838 111.358 297.838H111.636H111.703H111.803H111.945H112.009H112.242C114.758 297.938 121.869 298.116 125.221 297.282L125.282 297.321C125.282 297.321 138 298.005 140.527 296.256C143.054 294.508 139.296 293.435 136.621 293.129ZM123.598 293.743L123.506 293.729L123.362 293.704H123.259L123.097 293.679H123.053H123.031C122.911 293.662 122.792 293.646 122.675 293.635C122.104 293.549 121.55 293.378 121.029 293.129C120.662 292.965 120.29 292.767 119.917 292.556L120.651 292.539C120.843 292.539 121.032 292.539 121.207 292.52L121.538 292.503C122.372 292.503 123.567 292.614 123.881 293.179C123.767 293.355 123.672 293.543 123.598 293.74V293.743Z" fill="url(#paint0_linear)"/>
<path d="M130.478 182.421C130.269 182.421 113.868 185.548 117.969 179.988C118.747 178.946 119.313 177.762 119.636 176.502C119.959 175.179 120.044 173.808 119.887 172.455C119.706 170.822 119.246 169.233 118.525 167.757C118.525 167.757 132.076 164.769 129.922 167.062C128.982 168.063 129.007 171.118 129.319 174.24C129.486 175.927 129.736 177.631 129.961 179.046C130.278 181.017 130.545 182.421 130.478 182.421Z" fill="#FFCCD0"/>
<path d="M116.579 289.298C116.579 289.298 120.818 293.206 123.389 293.512C125.961 293.818 129.575 294.927 127.142 296.665C124.71 298.402 112.478 297.724 112.478 297.724C112.478 297.724 109.646 295.872 111.158 293.537C112.67 291.202 116.579 289.298 116.579 289.298Z" fill="#3F3D56"/>
<path opacity="0.1" d="M127.142 296.665C126.675 296.953 126.158 297.154 125.619 297.257C121.546 298.227 112.478 297.724 112.478 297.724C112.478 297.724 109.646 295.872 111.158 293.537C112.67 291.202 116.579 289.298 116.579 289.298C116.579 289.298 120.818 293.206 123.389 293.512L123.754 293.559C126.283 293.921 129.461 295.008 127.142 296.665Z" fill="black"/>
<path opacity="0.1" d="M127.142 296.665C126.675 296.953 126.158 297.154 125.619 297.257L125.341 297.243C125.341 297.243 122.903 295.653 123.759 293.56C126.283 293.921 129.46 295.008 127.142 296.665Z" fill="black"/>
<path d="M129.992 288.82C129.992 288.82 134.231 292.712 136.802 293.031C139.374 293.351 142.987 294.449 140.555 296.187C138.123 297.924 125.891 297.243 125.891 297.243C125.891 297.243 123.059 295.394 124.571 293.073C126.083 290.752 129.992 288.82 129.992 288.82Z" fill="#3F3D56"/>
<path opacity="0.1" d="M129.992 288.82C129.992 288.82 134.231 292.712 136.802 293.031C139.374 293.351 142.987 294.449 140.555 296.187C138.123 297.924 125.891 297.243 125.891 297.243C125.891 297.243 123.059 295.394 124.571 293.073C126.083 290.752 129.992 288.82 129.992 288.82Z" fill="black"/>
<path d="M125.822 291.669C125.266 292.078 123.931 292.292 122.316 292.386H122.291L121.988 292.403C121.81 292.403 121.627 292.42 121.432 292.423C117.365 292.553 112.12 292.086 112.12 292.086C112.12 292.086 112.537 291.391 111.494 290.905C110.452 290.418 111.633 289.793 111.772 288.611C111.911 287.43 109.351 283.677 109.351 283.677C109.351 283.677 107.753 269.083 108.464 267.901C109.176 266.72 107.753 264.983 107.753 264.983C107.753 264.983 109.073 264.288 108.117 263.106C107.161 261.925 107.475 257.338 108.031 256.018C108.587 254.697 106.293 248.929 106.363 247.469C106.432 246.01 105.876 244.203 103.93 235.864C102.571 230.026 104.639 225.228 106.007 222.859C106.318 222.305 106.669 221.773 107.058 221.269H120.331L120.668 224.394L120.685 224.566C120.796 225.62 120.932 226.896 121.085 228.361C122.939 245.991 127.437 290.499 125.822 291.669Z" fill="#3F3D56"/>
<path opacity="0.1" d="M125.822 291.669C125.219 292.106 123.751 292.32 121.988 292.403C121.525 292.375 121.061 292.382 120.598 292.423C120.598 292.423 120.39 291.947 117.888 290.199C115.386 288.45 117.888 284.5 117.888 284.5L115.286 273.867C115.286 273.867 114.633 271.029 115.189 269.361C115.745 267.693 113.991 267.276 113.991 267.276C113.991 267.276 115.745 266.164 113.991 264.705C112.237 263.245 111.992 257.894 111.992 257.894C111.992 257.894 109.49 254.558 110.602 253.446C111.714 252.334 109.907 249.693 109.907 249.693C109.907 249.693 107.266 245.524 107.544 244.134C107.822 242.744 111.575 243.23 110.463 238.782C109.351 234.335 116.203 240.45 116.203 240.45L120.685 224.566C122.138 238.31 127.57 290.402 125.822 291.669Z" fill="black"/>
<path d="M132.563 289.237C132.563 289.237 125.057 293.963 124.571 293.059C124.268 292.503 123.131 292.389 122.316 292.386H122.291C121.808 292.386 121.443 292.423 121.443 292.423C121.443 292.423 121.235 291.947 118.733 290.199C116.231 288.45 118.733 284.5 118.733 284.5L116.131 273.867C116.131 273.867 115.467 271.029 116.023 269.361C116.579 267.693 114.825 267.276 114.825 267.276C114.825 267.276 116.579 266.164 114.825 264.705C113.07 263.245 112.826 257.894 112.826 257.894C112.826 257.894 110.324 254.558 111.436 253.446C112.548 252.334 110.741 249.693 110.741 249.693C110.741 249.693 108.1 245.524 108.378 244.134C108.656 242.744 108.378 243.022 107.266 238.574C106.432 235.221 108.589 227.685 109.707 224.177C110.071 223.029 110.324 222.312 110.324 222.312L120.668 224.394L131.034 226.481L131.312 230.165L131.234 230.749L129.844 241.034L129.01 249.96C129.01 249.96 129.01 252.532 128.593 253.713C128.176 254.894 128.802 259.829 128.802 259.829C128.802 259.829 128.802 260.802 127.759 264.693C126.717 268.585 128.663 270.114 128.663 270.114C128.663 270.114 129.914 280.886 129.497 283.249C129.08 285.612 132.563 289.237 132.563 289.237Z" fill="#3F3D56"/>
<path opacity="0.1" d="M117.31 263.384C118.352 263.559 123.737 263.662 122.314 264.324C120.89 264.985 117.31 263.384 117.31 263.384Z" fill="black"/>
<path opacity="0.1" d="M116.718 266.895C117.135 266.859 119.047 266.025 119.567 266.095C120.087 266.164 120.785 265.947 121.41 266.095C122.036 266.242 123.206 266.651 122.55 266.898C121.894 267.145 120.521 266.931 119.731 267.176C118.942 267.421 116.718 266.895 116.718 266.895Z" fill="black"/>
<path opacity="0.1" d="M111.019 265.436C111.297 265.399 113.451 264.843 113.279 265.436C113.107 266.028 111.019 265.436 111.019 265.436Z" fill="black"/>
<path opacity="0.1" d="M107.58 247.992C107.789 248.27 109.003 251.05 109.595 251.05C110.188 251.05 107.58 247.992 107.58 247.992Z" fill="black"/>
<path opacity="0.1" d="M129.922 167.062C128.982 168.063 129.008 171.118 129.319 174.24C128.386 174.487 127.424 174.612 126.458 174.612C123.993 174.612 123.798 171.501 121.955 170.148C121.663 167.437 118.525 167.757 118.525 167.757C118.525 167.757 132.076 164.769 129.922 167.062Z" fill="black"/>
<path d="M137.578 162.937C137.576 165.758 136.503 168.473 134.574 170.532C132.646 172.591 130.006 173.84 127.191 174.026C124.376 174.212 121.596 173.321 119.413 171.534C117.23 169.746 115.809 167.196 115.436 164.399C115.064 161.603 115.768 158.769 117.407 156.473C119.045 154.176 121.496 152.588 124.261 152.031C127.027 151.473 129.901 151.988 132.301 153.471C134.702 154.953 136.449 157.292 137.189 160.015C137.447 160.967 137.578 161.95 137.578 162.937Z" fill="#FFCCD0"/>
<path opacity="0.1" d="M130.478 182.421C130.269 182.421 113.868 185.548 117.969 179.988C118.747 178.946 119.313 177.762 119.636 176.502C122.953 175.443 127.017 177.208 127.017 177.208L128.893 178.598C129.267 178.714 129.629 178.864 129.975 179.046C130.278 181.017 130.545 182.421 130.478 182.421Z" fill="black"/>
<path opacity="0.1" d="M131.312 230.165L131.234 230.749C130.792 230.899 128.76 231.463 123.901 229.47C123.12 229.15 122.155 228.772 121.085 228.358C117.635 227.037 113.054 225.375 109.707 224.188C108.103 223.613 106.782 223.143 106.007 222.87C106.318 222.316 106.669 221.784 107.058 221.28H120.331L120.668 224.405L131.034 226.482L131.312 230.165Z" fill="black"/>
<path d="M127.003 177.486C127.003 177.486 119.637 174.29 116.648 179.085C113.66 183.88 112.339 186.73 112.339 186.73C112.339 186.73 111.922 189.926 111.158 190.691C110.393 191.455 112.548 205.216 112.548 205.216C112.548 205.216 109.976 210.497 112.27 211.434C114.563 212.371 112.061 213.138 112.061 213.138C112.061 213.138 112.756 214.737 111.436 214.876C110.115 215.015 109.351 217.447 109.351 217.447L105.251 222.034C105.251 222.034 118.641 226.76 123.901 228.914C129.16 231.068 131.103 230.234 131.312 230.165C131.52 230.095 134.717 221.339 134.717 221.339C134.717 221.339 134.578 218.906 135.76 218.072C136.941 217.239 135.76 199.239 135.76 199.239L135.354 188C135.304 186.27 134.813 184.581 133.927 183.093C133.041 181.606 131.79 180.37 130.292 179.502C129.845 179.242 129.372 179.032 128.88 178.876L127.003 177.486Z" fill="#6C63FF"/>
<path d="M134.3 196.667L135.76 199.239C135.76 199.239 124.084 202.575 123.626 199.378C123.556 198.911 128.185 195.208 128.185 195.208L134.3 196.667Z" fill="#6C63FF"/>
<path opacity="0.1" d="M134.3 196.667L135.76 199.239C135.76 199.239 124.084 202.575 123.626 199.378C123.556 198.911 128.185 195.208 128.185 195.208L134.3 196.667Z" fill="black"/>
<path opacity="0.1" d="M114.424 210.567C114.424 210.567 119.984 208.76 118.803 210.219C117.621 211.679 114.424 210.567 114.424 210.567Z" fill="black"/>
<path opacity="0.1" d="M120.768 210.973C120.768 210.973 123.612 214.525 124.293 213.197C124.974 211.868 120.768 210.973 120.768 210.973Z" fill="black"/>
<path opacity="0.1" d="M137.189 160.015C136.818 160.392 136.49 160.809 136.21 161.258C135.237 162.787 134.509 162.823 134.509 162.823C134.509 162.823 134.509 166.131 134.059 166.475C133.608 166.82 131.034 165.01 131.001 164.56C130.967 164.11 127.823 159.209 126.458 165.427L126.203 170.467C126.203 170.467 121.699 171.023 119.395 171.526C118.044 170.415 116.974 169.001 116.272 167.399C115.57 165.797 115.257 164.051 115.356 162.305C115.456 160.558 115.966 158.86 116.845 157.348C117.725 155.836 118.948 154.553 120.417 153.602C121.886 152.652 123.558 152.062 125.298 151.879C127.037 151.697 128.795 151.927 130.429 152.552C132.063 153.177 133.527 154.178 134.701 155.475C135.875 156.772 136.726 158.327 137.186 160.015H137.189Z" fill="black"/>
<path d="M130.061 148.96H130.931L130.495 149.307H131.626V149.724L132.563 150.105V150.383L133.433 150.558L133.224 151.147H134.753L134.578 151.817L135.621 152.295V153.024C135.621 153.024 136.663 153.51 137.011 153.51C137.358 153.51 137.933 153.824 137.567 153.997C137.2 154.169 137.845 154.38 138.148 154.414C138.451 154.447 138.843 154.797 138.667 154.936L138.495 155.075C138.495 155.075 139.432 155.873 139.607 155.873C139.782 155.873 139.779 156.535 139.607 156.604C139.435 156.674 138.773 157.055 139.329 157.402C139.885 157.75 139.815 158.411 139.468 158.411C139.12 158.411 138.982 157.958 138.945 158.583C138.909 159.209 138.389 160.01 138.32 159.384C138.25 158.759 137.175 159.454 136.202 160.983C135.229 162.511 134.498 162.545 134.498 162.545C134.498 162.545 134.498 165.853 134.047 166.198C133.597 166.542 131.023 164.735 130.989 164.282C130.956 163.829 127.812 158.931 126.447 165.152L126.194 170.189C126.194 170.189 118.689 171.129 118.096 171.649C117.504 172.169 108.598 164.977 112.072 157.424C115.547 149.871 116.289 149.224 118.839 148.345C121.388 147.467 127.79 147.347 130.061 148.96Z" fill="#3F3D56"/>
<path d="M124.223 197.849C124.223 197.849 124.154 203.478 123.667 204.868C123.181 206.258 127.003 219.254 127.003 219.254C127.003 219.254 130.061 226.106 129.505 228.219C128.949 230.332 129.713 243.856 134.3 240.52C138.887 237.184 135.482 226.273 135.482 226.273C135.482 226.273 134.022 220.196 134.022 219.448C134.022 218.701 132.493 207.439 132.493 207.439C132.493 207.439 131.312 203.756 131.659 201.532C132.007 199.308 132.146 195.208 132.146 195.208L124.223 197.849Z" fill="#FFCCD0"/>
<path d="M133.968 237.345H134.524H132.578" stroke="#B76E79" stroke-width="1.5"/>
<circle cx="133.551" cy="237.345" r="0.555972" fill="#B76E79"/>
<path opacity="0.1" d="M128.88 187.285C128.88 187.285 123.303 189.092 123.07 194.027C122.836 198.961 123.07 199.378 123.07 199.378C123.07 199.378 131.381 195.208 135.204 199.239L134.812 188.328L128.88 187.285Z" fill="black"/>
<path d="M129.435 187.285C129.435 187.285 123.859 189.092 123.626 194.027C123.392 198.961 123.626 199.378 123.626 199.378C123.626 199.378 131.937 195.208 135.76 199.239L135.368 188.328L129.435 187.285Z" fill="#6C63FF"/>
<path opacity="0.1" d="M135.065 152.468C135.065 152.468 135.321 152.587 135.621 152.707V152.295L135.065 152.04V152.468Z" fill="black"/>
<path opacity="0.1" d="M134.022 151.264L134.648 151.548L134.751 151.147H134.053L134.022 151.264Z" fill="black"/>
<path opacity="0.1" d="M125.902 164.596L125.649 169.633C125.649 169.633 118.144 170.573 117.552 171.093C117.368 171.257 116.37 170.665 115.192 169.544C116.598 171.02 117.894 171.838 118.108 171.649C118.7 171.129 126.205 170.189 126.205 170.189L126.458 165.152C127.256 161.505 128.682 161.68 129.705 162.539C128.682 161.335 126.864 160.251 125.902 164.596Z" fill="black"/>
<path opacity="0.1" d="M139.34 157.402C138.784 157.054 139.443 156.674 139.618 156.604C139.794 156.535 139.791 155.873 139.618 155.873C139.461 155.817 139.315 155.731 139.19 155.62C139.19 155.803 139.154 156.009 139.062 156.048C138.887 156.118 138.228 156.498 138.784 156.846C139.34 157.193 139.271 157.855 138.923 157.855C138.576 157.855 138.437 157.402 138.401 158.027C138.365 158.653 137.845 159.453 137.775 158.828C137.706 158.202 136.63 158.897 135.657 160.426C134.684 161.955 133.953 161.989 133.953 161.989C133.953 161.989 133.953 165.297 133.503 165.641C133.189 165.878 131.871 165.085 131.07 164.435C131.479 165.041 133.644 166.511 134.059 166.197C134.473 165.883 134.509 162.545 134.509 162.545C134.509 162.545 135.24 162.511 136.213 160.982C137.186 159.453 138.262 158.758 138.331 159.384C138.401 160.009 138.923 159.209 138.957 158.583C138.99 157.958 139.132 158.411 139.479 158.411C139.827 158.411 139.896 157.749 139.34 157.402Z" fill="black"/>
<path opacity="0.1" d="M132.666 150.591H133.419L133.43 150.558L132.73 150.416L132.666 150.591Z" fill="black"/>
<path opacity="0.1" d="M131.623 149.393V149.307H131.409L131.623 149.393Z" fill="black"/>
<path d="M487.342 162.839L301.384 106.99L269.581 213.309L455.539 269.158L487.342 162.839Z" fill="#F2F2F2"/>
<path d="M455.669 270.496L205 193.21L264.331 0L515 77.2859L455.669 270.496ZM206.388 192.501L454.919 269.127L513.612 77.9951L265.081 1.36834L206.388 192.501Z" fill="#3F3D56"/>
<path d="M455.387 270.389C442.11 262.973 433.845 252.847 430.821 240.294C428.575 230.974 429.22 220.487 432.738 209.122C435.346 200.744 439.256 192.83 444.325 185.671C471.213 147.535 473.64 122.686 470.941 108.555C467.982 93.0604 458.368 86.6255 458.271 86.5624L458.686 85.9229C458.785 85.9875 468.653 92.5719 471.683 108.38C473.43 117.494 472.608 127.886 469.24 139.268C465.049 153.433 456.875 169.193 444.947 186.112C439.925 193.204 436.05 201.046 433.465 209.348C427.695 227.987 426.879 253.591 455.758 269.723L455.387 270.389Z" fill="#2F2E41"/>
<path d="M431.138 199.773C420.671 193.927 420.962 184.661 423.05 177.918C423.975 174.944 425.363 172.134 427.162 169.593C436.582 156.233 437.433 147.554 436.489 142.626C435.463 137.274 432.172 135.077 432.139 135.056L432.554 134.416C432.7 134.511 436.15 136.815 437.237 142.482C438.651 149.862 435.471 159.131 427.784 170.034C426.031 172.509 424.679 175.246 423.777 178.143C421.773 184.617 421.487 193.51 431.509 199.107L431.138 199.773Z" fill="#2F2E41"/>
<path d="M478.231 115.1L477.86 114.433C487.881 108.836 487.596 99.9434 485.592 93.4698C484.69 90.5722 483.337 87.8352 481.584 85.3597C473.898 74.4576 470.718 65.1878 472.132 57.8081C473.219 52.1407 476.669 49.8374 476.815 49.7422L477.23 50.3813C477.197 50.4033 473.889 52.6292 472.874 57.9821C471.94 62.9075 472.8 71.5791 482.206 84.9194C484.005 87.4603 485.393 90.2696 486.319 93.2437C488.406 99.987 488.698 109.253 478.231 115.1Z" fill="#2F2E41"/>
<path d="M500.579 77.1476C498.923 79.6878 496.329 81.4652 493.366 82.0891C490.403 82.7129 487.314 82.1322 484.778 80.4745C482.242 78.8168 480.467 76.2178 479.843 73.2491C479.219 70.2804 479.798 67.1849 481.451 64.6432C484.897 59.3505 502.246 53.6455 502.246 53.6455C502.246 53.6455 504.025 71.8549 500.579 77.1476Z" fill="#8A6E4B"/>
<path d="M496.392 41.6759C494.736 44.2153 492.142 45.992 489.179 46.6155C486.216 47.2389 483.128 46.658 480.592 45.0006C478.057 43.3431 476.282 40.7447 475.658 37.7765C475.034 34.8083 475.611 31.7132 477.264 29.1715C480.71 23.8788 498.059 18.1738 498.059 18.1738C498.059 18.1738 499.838 36.3832 496.392 41.6759Z" fill="#8A6E4B"/>
<path d="M477.986 171.631C475.307 171.635 472.706 170.726 470.611 169.052C468.516 167.379 467.052 165.041 466.459 162.423C465.867 159.805 466.181 157.063 467.35 154.648C468.519 152.232 470.474 150.287 472.892 149.133C478.64 146.389 495.88 150.406 496.611 150.578L497.074 150.688L496.867 151.116C496.54 151.793 488.79 167.738 483.042 170.482C481.463 171.238 479.736 171.631 477.986 171.631ZM478.946 148.94C476.608 148.94 474.559 149.183 473.22 149.822C470.578 151.084 468.545 153.346 467.567 156.11C466.59 158.875 466.748 161.915 468.006 164.562C469.265 167.21 471.521 169.248 474.279 170.229C477.038 171.21 480.072 171.054 482.715 169.794C487.715 167.407 494.67 153.821 495.969 151.215C493.891 150.752 485.339 148.94 478.946 148.94V148.94Z" fill="#2F2E41"/>
<path d="M454.715 66.6496C455.823 67.6621 456.721 68.8833 457.359 70.2436C457.996 71.6039 458.359 73.0766 458.428 74.5776C458.497 76.0787 458.271 77.5787 457.761 78.9919C457.252 80.4052 456.47 81.7041 455.459 82.8145C454.449 83.9248 453.23 84.8249 451.872 85.4633C450.515 86.1017 449.045 86.4659 447.547 86.5351C446.049 86.6044 444.552 86.3773 443.142 85.8668C441.731 85.3564 440.435 84.5725 439.327 83.5601C434.666 79.3022 431.832 61.2275 431.832 61.2275C431.832 61.2275 450.055 62.3917 454.715 66.6496Z" fill="#8A6E4B"/>
<path d="M428.07 114.707C430.308 116.752 431.643 119.604 431.783 122.635C431.922 125.667 430.854 128.63 428.814 130.872C426.773 133.115 423.927 134.453 420.902 134.593C417.876 134.733 414.919 133.662 412.681 131.618C408.021 127.36 405.187 109.285 405.187 109.285C405.187 109.285 423.409 110.449 428.07 114.707Z" fill="#8A6E4B"/>
<path d="M457.936 121.447C454.125 121.447 446.837 117.831 446.502 117.664L446.077 117.451L446.377 117.082C446.632 116.766 452.682 109.339 456.085 108.601C457.773 108.236 459.537 108.557 460.989 109.495C462.441 110.432 463.462 111.909 463.827 113.601C464.193 115.292 463.873 117.06 462.938 118.515C462.003 119.971 460.529 120.994 458.841 121.361C458.544 121.422 458.24 121.45 457.936 121.447ZM447.276 117.191C449.071 118.05 455.946 121.209 458.681 120.616C460.171 120.291 461.471 119.387 462.296 118.102C463.121 116.817 463.403 115.256 463.08 113.763C462.758 112.269 461.857 110.965 460.575 110.137C459.294 109.309 457.736 109.025 456.246 109.347C453.51 109.94 448.555 115.666 447.276 117.191Z" fill="#2F2E41"/>
<path d="M350.244 213.635C351.141 216.879 350.639 232.145 350.375 238.714C350.291 240.806 350.291 242.9 350.377 244.994L350.978 259.76L350.963 260.207L350.244 282L357.014 281.079L357.522 269.169C357.522 269.169 358.151 266.319 359.037 262.029C361.449 250.368 365.77 228.074 364.574 223.505C362.938 217.254 367 193.961 367 193.961L352.783 191C352.783 191 349.022 209.21 350.244 213.635Z" fill="#FFC1C7"/>
<path d="M311 286.338L315.073 289C315.073 289 322.463 285.739 322.871 285.606C323.278 285.473 323.744 278.484 323.744 278.484C323.744 278.484 324.705 271.314 325.911 263.976C326.761 258.806 327.731 253.553 328.573 250.665C330.61 243.677 330.377 220.383 330.61 218.852C330.843 217.321 338 188.969 338 188.969C338 188.969 322.463 185.641 320.485 187.638C318.506 189.635 316.644 213.727 316.761 218.852C316.877 223.977 316.237 254.924 316.237 254.924C316.237 254.924 316.157 259.425 316.033 264.223C315.944 267.615 315.834 271.155 315.713 273.36C315.534 276.542 314.356 279.543 312.397 281.812L311 286.338Z" fill="#FFC1C7"/>
<path d="M316.933 283.594C316.933 283.594 321.268 277.93 311.154 278.365C311.154 278.365 310.212 279.361 308.39 281.789C306.568 284.216 294.695 293.366 300.663 295.108C306.631 296.851 314.311 297.83 316.637 296.076C320.029 296.898 323.553 297.038 327 296.486C327 296.486 326.293 285.212 325.728 283.905C325.162 282.598 324.534 276 324.534 276L317.687 284.652L316.933 283.594Z" fill="#2F2E41"/>
<path d="M359.994 281.437C359.994 281.437 352.022 275.954 347.79 281.437C347.79 281.437 346.012 293.647 347.79 295.017C349.569 296.388 361.711 298.693 361.956 295.017C362.201 291.342 361.343 289.66 361.343 289.66L359.994 284.676L359.994 281.437Z" fill="#2F2E41"/>
<path d="M352.278 55.5744H310.08V103.56H352.278V55.5744Z" fill="#2F2E41"/>
<path d="M375.887 197.812H314.423V174.971C314.434 169.608 315.386 164.289 317.236 159.257C317.33 159 317.423 158.747 317.521 158.494C320.244 151.401 323.785 147.237 323.785 147.237C348.615 161.104 363.675 148.461 363.675 148.461L366.37 159.35L366.565 160.142L373.733 189.108L373.929 189.903L375.887 197.812Z" fill="#2F2E41"/>
<path d="M366.565 160.304C357.317 162.56 349.123 163.335 342.216 163.335C337.916 163.345 333.622 163.027 329.37 162.385C325.244 161.765 321.183 160.772 317.236 159.419C317.329 159.162 317.423 158.91 317.521 158.657C321.43 159.996 325.454 160.976 329.541 161.585C337.938 162.874 350.605 163.355 366.37 159.513L366.565 160.304Z" fill="#3F3D56"/>
<path d="M373.929 190.067C361.632 193.922 350.902 195.149 342.216 195.149C337.916 195.159 333.622 194.841 329.37 194.199C322.377 193.118 317.277 191.352 314.423 190.173V189.288C317.155 190.447 322.32 192.29 329.541 193.399C339.208 194.884 354.537 195.296 373.733 189.272L373.929 190.067Z" fill="#3F3D56"/>
<path d="M375.683 94.9911L367.017 109.984V109.988L366.728 110.49L346.783 128.436L322.361 111.713L311.778 98.254C311.778 98.254 313.406 92.9518 319.105 92.1361C320.607 91.9199 321.881 91.7079 323.041 91.4632C323.83 91.2959 324.567 91.1165 325.287 90.9125C327.522 90.2804 329.586 89.4198 332.537 88.0575C337.828 85.6104 330.909 77.861 330.909 77.861L345.155 68.8881C345.155 68.8881 351.481 89.485 362.572 89.3015C362.735 89.3015 362.898 89.2933 363.065 89.2811C363.676 89.2362 364.258 89.2158 364.811 89.2118C374.588 89.1465 375.683 94.9911 375.683 94.9911Z" fill="#FFB8B8"/>
<path d="M326.024 106.41L323.04 91.4624C323.83 91.2952 324.566 91.1158 325.287 90.9118L326.024 106.41Z" fill="#3F3D56"/>
<path d="M364.811 89.2108L362.047 104.167L362.572 89.3005C362.735 89.3005 362.898 89.2923 363.065 89.2801C363.676 89.2352 364.258 89.2148 364.811 89.2108Z" fill="#3F3D56"/>
<path d="M331.723 79.4916C340.265 79.4916 347.19 72.5526 347.19 63.9929C347.19 55.4333 340.265 48.4943 331.723 48.4943C323.18 48.4943 316.255 55.4333 316.255 63.9929C316.255 72.5526 323.18 79.4916 331.723 79.4916Z" fill="#FFB8B8"/>
<path d="M314.22 95.8055L311.777 98.2527C311.777 98.2527 308.114 131.289 311.777 147.196L328.873 191.245C328.873 191.245 333.35 206.743 343.119 203.481C352.888 200.218 334.979 182.272 334.979 182.272L322.36 147.604V104.371L314.22 95.8055Z" fill="#FFB8B8"/>
<path d="M369.577 91.3193L375.683 94.99C375.683 94.99 380.974 113.344 376.497 138.631L369.577 186.758C369.577 186.758 365.507 205.112 356.959 200.626C348.411 196.139 362.657 181.048 362.657 181.048L366.321 143.525L367.135 104.371L369.577 91.3193Z" fill="#FFB8B8"/>
<path d="M344.748 119.461L325.617 103.555L321.547 113.343C321.547 113.343 317.476 154.129 320.733 153.314C323.989 152.498 324.396 148.827 327.245 151.682C330.095 154.537 348.004 158.616 350.447 156.169C352.889 153.721 364.693 150.051 364.693 150.051C364.693 150.051 369.578 146.38 367.949 141.486C366.321 136.591 367.949 135.776 368.356 133.736C368.763 131.697 368.356 110.08 368.356 110.08L362.658 100.292L344.748 119.461Z" fill="#3F3D56"/>
<path d="M345.259 92.349C348.873 91.8993 352.006 89.598 354.573 85.509L353.883 85.0749C351.454 88.9447 348.52 91.1197 345.163 91.5391C339.198 92.2841 333.817 87.2163 333.763 87.1651L333.201 87.7552C333.415 87.9599 338.161 92.4313 343.923 92.4313C343.926 92.4313 343.93 92.4309 343.934 92.4309V98.8854C343.433 98.9362 342.968 99.1717 342.63 99.5461C342.292 99.9206 342.105 100.407 342.105 100.912C342.105 101.417 342.292 101.904 342.629 102.279C342.967 102.653 343.431 102.889 343.933 102.94C344.434 102.992 344.936 102.855 345.342 102.556C345.748 102.257 346.029 101.818 346.131 101.324C346.233 100.829 346.147 100.315 345.892 99.8794C345.636 99.4444 345.229 99.1198 344.748 98.9686V92.3963C344.918 92.3834 345.088 92.3704 345.259 92.349Z" fill="#6C63FF"/>
<path d="M331.112 37.2779C331.112 37.2779 315.46 39.2387 311.956 48.7C308.452 58.1612 302.32 63.1284 302.32 63.1284C302.32 63.1284 292.661 69.8564 297.49 81.8669C297.49 81.8669 282.464 91.9852 292.392 100.973C292.392 100.973 291.808 109.962 297.648 116.111C297.648 116.111 302.32 118.477 300.568 119.896C298.816 121.315 312.248 120.369 311.08 107.596C309.912 94.8236 317.796 85.8264 317.796 85.8264C317.796 85.8264 310.204 69.2661 313.708 63.5893C315.836 60.1427 316.749 57.5725 318.516 56.085C319.499 55.2763 320.411 54.3844 321.242 53.4189C322.33 52.1241 324.531 50.3607 328.017 51.3018C329.504 51.6835 330.881 52.4095 332.038 53.4216C335.529 56.5261 339.308 59.2906 343.322 61.6779C345.209 62.8002 347.186 64.0686 349.022 65.4202C352.421 67.9231 349.613 73.2275 346.214 77.6683C341.186 84.2385 341.087 93.4684 346.346 99.8544C346.5 100.042 346.658 100.226 346.819 100.407C351.961 106.177 345.337 111.207 344.953 111.854C344.077 113.33 340.578 122.652 355.03 122.693C355.03 122.693 358.385 115.638 363.057 111.381C367.729 107.123 364.225 94.8236 364.225 94.8236C364.225 94.8236 371.233 90.566 363.641 80.1587C363.641 80.1587 367.657 67.4915 361.233 61.3416C361.233 61.3416 350.968 33.9665 331.112 37.2779Z" fill="#2F2E41"/>
<path d="M348.615 67.4597C349.739 67.4597 350.65 66.0901 350.65 64.4007C350.65 62.7113 349.739 61.3418 348.615 61.3418C347.491 61.3418 346.579 62.7113 346.579 64.4007C346.579 66.0901 347.491 67.4597 348.615 67.4597Z" fill="#FFB8B8"/>
<path d="M348.818 77.2584C346.456 77.2584 344.534 74.7839 344.534 71.7424C344.534 68.7008 346.456 66.2264 348.818 66.2264C348.875 66.2264 348.929 66.2489 348.969 66.289C349.009 66.3291 349.031 66.3835 349.031 66.4402C349.031 66.4969 349.009 66.5513 348.969 66.5914C348.929 66.6315 348.875 66.6541 348.818 66.6541C346.691 66.6541 344.961 68.9367 344.961 71.7424C344.961 74.5481 346.691 76.8307 348.818 76.8307C350.945 76.8307 352.675 74.5481 352.675 71.7424C352.675 69.241 351.78 67.4112 350.281 66.8478C350.228 66.8277 350.185 66.7875 350.162 66.7359C350.138 66.6843 350.137 66.6255 350.156 66.5725C350.176 66.5195 350.216 66.4765 350.268 66.453C350.319 66.4295 350.378 66.4274 350.431 66.4472C352.103 67.0759 353.102 69.0555 353.102 71.7424C353.102 74.7839 351.18 77.2584 348.818 77.2584Z" fill="#6C63FF"/>
<path d="M350.541 65.3899C350.415 66.061 350.066 66.6696 349.551 67.1171L350.541 65.3899Z" fill="#FFB8B8"/>
<path d="M335.349 182.118L326.923 186.276L327.128 186.693L335.554 182.536L335.349 182.118Z" fill="#6C63FF"/>
<path d="M331.274 186.046C332.299 186.046 333.13 185.213 333.13 184.185C333.13 183.158 332.299 182.325 331.274 182.325C330.249 182.325 329.417 183.158 329.417 184.185C329.417 185.213 330.249 186.046 331.274 186.046Z" fill="#6C63FF"/>
<path d="M237.482 290.239H230.957L227.852 265.07L237.483 265.07L237.482 290.239Z" fill="#A0616A"/>
<path d="M239.148 288.107L226.297 288.106H226.296C224.124 288.107 222.041 288.969 220.506 290.505C218.97 292.041 218.107 294.124 218.107 296.296V296.562L239.147 296.563L239.148 288.107Z" fill="#2F2E41"/>
<path d="M194.377 290.239H187.852L184.747 265.07L194.378 265.07L194.377 290.239Z" fill="#A0616A"/>
<path d="M196.041 288.107L183.19 288.106H183.19C181.018 288.107 178.935 288.969 177.399 290.505C175.863 292.041 175 294.124 175 296.296V296.562L196.041 296.563L196.041 288.107Z" fill="#2F2E41"/>
<path d="M202.681 85.8555C203.044 85.8555 231.62 91.3043 224.476 81.6175C223.121 79.8018 222.134 77.7386 221.57 75.5439C221.008 73.2377 220.86 70.8499 221.134 68.492C221.449 65.6473 222.251 62.8782 223.508 60.3067C223.508 60.3067 199.896 55.1 203.65 59.0958C205.287 60.8394 205.243 66.1623 204.701 71.6014C204.41 74.5413 203.974 77.5103 203.582 79.9756C203.03 83.4095 202.565 85.8555 202.681 85.8555Z" fill="#B5727C"/>
<path d="M242.947 284.78H226.043L215.239 190.178L195.374 284.78H183.969V171.97L238.197 155.741L242.947 284.78Z" fill="#2F2E41"/>
<path d="M214.124 72.5064C205.983 72.5064 199.383 65.9065 199.383 57.7652C199.383 49.6238 205.983 43.0239 214.124 43.0239C222.266 43.0239 228.865 49.6238 228.865 57.7652C228.865 65.9065 222.266 72.5064 214.124 72.5064Z" fill="#A0616A"/>
<path d="M237.009 158.117C221.192 170.487 203.732 176.722 183.969 174.345C192.316 145.038 194.792 115.952 186.739 87.2638L203.364 79.7431L222.051 78.5556L235.633 82.5503C237.544 83.1129 239.217 84.2879 240.394 85.8945C241.571 87.5011 242.187 89.4501 242.148 91.4415C241.669 115.907 243.295 138.803 237.009 158.117Z" fill="#E6E6E6"/>
<path d="M228.233 50.3503C226.815 47.6745 225.013 42.3418 222.15 41.3528C220.561 40.8257 218.918 40.4758 217.251 40.3092L212.386 42.1805L215.034 40.121C214.518 40.0903 214.003 40.0652 213.488 40.0457L210.205 41.3083L211.885 40.002C208.824 39.9706 205.665 40.2888 203.294 42.1519C201.272 43.7402 199.269 49.7569 198.946 52.3072C198.599 54.747 198.721 57.2304 199.303 59.6248L200.134 60.4154C200.425 59.7486 200.644 59.0525 200.786 58.3392C201.084 57.0064 201.657 55.7503 202.467 54.6509C203.277 53.5516 204.308 52.6331 205.493 51.954L205.538 51.9285C206.932 51.1438 208.624 51.18 210.223 51.2375L217.817 51.5108C219.644 51.5765 221.612 51.6921 223.036 52.8382C223.998 53.6122 224.575 54.7547 225.123 55.861C225.831 57.2895 227.214 62.6776 227.214 62.6776C227.214 62.6776 227.996 61.6606 228.371 62.4175C228.973 60.4425 229.338 58.4032 229.461 56.3422C229.58 54.2721 229.157 52.2065 228.233 50.3503Z" fill="#2F2E41"/>
<path d="M227.738 167.78C227.741 167.041 227.907 166.312 228.222 165.645C228.538 164.977 228.996 164.386 229.565 163.915C230.133 163.443 230.798 163.102 231.513 162.915C232.228 162.728 232.975 162.7 233.701 162.833L242.548 147.208L246.198 154.69L237.743 169.08C237.439 170.286 236.703 171.339 235.674 172.038C234.646 172.737 233.396 173.035 232.163 172.874C230.93 172.714 229.798 172.107 228.982 171.168C228.167 170.229 227.724 169.024 227.738 167.78V167.78Z" fill="#A0616A"/>
<path d="M188.181 185.151C188.53 184.501 188.732 183.781 188.773 183.043C188.814 182.306 188.693 181.568 188.418 180.883C188.143 180.197 187.721 179.58 187.182 179.075C186.643 178.57 185.999 178.19 185.297 177.96L184.97 160.007L177.275 165.285L178.766 181.524C178.458 182.729 178.604 184.005 179.175 185.11C179.745 186.215 180.701 187.073 181.862 187.52C183.023 187.967 184.307 187.973 185.471 187.536C186.636 187.1 187.6 186.251 188.181 185.151H188.181Z" fill="#A0616A"/>
<path d="M241.759 165.637L235.426 159.699L238.676 127.637L234.916 82.3153C243.084 84.8826 251.855 91.779 253.3 100.219L258.467 130.408L241.759 165.637Z" fill="#E6E6E6"/>
<path opacity="0.2" d="M238.081 110.42L243.227 131.003L235.425 160.211L240.456 132.587L238.081 110.42Z" fill="black"/>
<path d="M187.134 176.721L176.843 177.908L179.253 101.487C179.36 98.0727 180.449 94.7612 182.389 91.9488C184.328 89.1364 187.037 86.9421 190.19 85.6281L193.864 84.0976L192.874 119.92L187.134 176.721Z" fill="#E6E6E6"/>
<path opacity="0.2" d="M190.987 121.091L187.015 165.195L193.741 121.398L190.987 121.091Z" fill="black"/>
<path d="M229.013 80.8342C224.816 88.2607 212.885 98.9 198.742 82.045" stroke="#B76E79" stroke-width="1.5"/>
<circle r="1.69518" transform="matrix(-1 0 0 1 213.756 92.6995)" fill="#B76E79"/>
<defs>
<linearGradient id="paint0_linear" x1="7475.49" y1="123067" x2="7475.49" y2="41091.7" gradientUnits="userSpaceOnUse">
<stop stop-color="#808080" stop-opacity="0.25"/>
<stop offset="0.54" stop-color="#808080" stop-opacity="0.12"/>
<stop offset="1" stop-color="#808080" stop-opacity="0.1"/>
</linearGradient>
</defs>
</svg>
