<svg width="32" height="32" viewBox="0 0 32 32" fill="none" xmlns="http://www.w3.org/2000/svg">
<circle cx="16" cy="16" r="16" fill="#F2C94C"/>
<mask id="mask0_400_42647" style="mask-type:alpha" maskUnits="userSpaceOnUse" x="0" y="0" width="32" height="32">
<circle cx="16" cy="16" r="16" fill="#C4C4C4"/>
</mask>
<g mask="url(#mask0_400_42647)">
<path d="M23.407 31.4177H22.6671L22.6514 31.05C22.595 29.9975 22.416 28.575 21.8829 27.7734C21.11 26.6315 20.4812 25.8369 18.8486 25.218C18.8398 25.2147 18.831 25.2164 18.8222 25.2138C18.8009 25.2076 18.7799 25.2053 18.7578 25.2036C18.7371 25.2022 18.7174 25.2009 18.6972 25.2035C18.6757 25.2062 18.6556 25.2129 18.6346 25.22C18.6154 25.2268 18.5972 25.2336 18.5795 25.2439C18.5708 25.2489 18.561 25.2497 18.5526 25.2556L18.3565 25.3939C18.1712 25.3598 17.9272 25.3264 17.6012 25.2851C17.4277 25.2631 17.2507 25.2407 17.1064 25.2192C17.0909 24.9094 17.0824 24.5954 17.0845 24.4024C17.6141 24.3519 18.8049 24.1756 19.7955 23.5776C20.3789 23.2255 20.8499 22.8076 21.633 21.6401C21.6672 21.6431 21.7076 21.648 21.7414 21.652C22.0208 21.6861 22.489 21.7416 22.9416 21.4397C23.9109 20.7995 24.1363 19.8373 23.9296 19.1679C23.7778 18.676 23.4134 18.3335 22.9255 18.1803C23.4879 17.6638 23.6455 16.5959 23.6455 16.0506C23.6455 12.6151 22.6658 10.4341 22.0072 9.80629L21.8966 9.69845C19.4089 7.25162 16.3449 6.59786 12.7892 7.75293C11.5531 8.15528 9.76643 9.60403 9.31318 10.5723C9.19103 10.8351 8.11618 13.1937 8.01818 15.0408C7.95327 16.2637 8.00347 17.9463 9.18272 18.4352L9.18809 18.4395C8.5584 18.5928 8.20545 19.0085 8.07861 19.4187C7.90594 19.9775 8.0655 20.8018 9.02956 21.4388C9.48361 21.7416 9.95189 21.6859 10.2317 21.652C10.2656 21.648 10.3062 21.6431 10.3404 21.6401C11.1084 22.7729 11.7316 23.2061 12.3544 23.5826C13.3237 24.1683 14.3891 24.3466 14.8839 24.3999C14.8889 24.6023 14.8812 24.9138 14.8662 25.2194C14.7226 25.2407 14.5469 25.2631 14.3747 25.2851C14.0601 25.3251 13.8221 25.3576 13.639 25.3906L13.4446 25.2547C13.4358 25.2486 13.4256 25.2478 13.4165 25.2427C13.4001 25.2333 13.3833 25.2272 13.3657 25.2209C13.3432 25.2129 13.3216 25.2058 13.2986 25.2031C13.2796 25.2008 13.261 25.2023 13.2416 25.2035C13.2187 25.2051 13.1969 25.2074 13.1749 25.214C13.1664 25.2164 13.1578 25.2148 13.1494 25.218C11.5168 25.8369 10.888 26.6315 10.1135 27.7757C9.58193 28.575 9.40303 29.9975 9.34643 31.0536C9.34126 31.1732 9.3412 31.296 9.3387 31.4177H8.59597C8.41515 31.4177 8.26854 31.5715 8.26854 31.7612V33.6555C8.26854 33.8452 8.41515 33.999 8.59597 33.999L10.0024 33.9989L12.3553 33.999C12.4119 33.999 12.4626 33.98 12.509 33.9534C13.3293 33.958 15.3674 33.9678 16.1019 33.9526L17.2464 33.963C17.5876 33.963 17.8249 33.9616 18.1769 33.9594L19.4889 33.9533C19.5354 33.9799 19.5861 33.999 19.6428 33.999H21.9948H23.407C23.5878 33.999 23.7344 33.8452 23.7344 33.6555V31.7612C23.7344 31.5715 23.5878 31.4177 23.407 31.4177ZM12.0279 33.2676C12.0108 33.2678 11.9952 33.2686 11.9782 33.2688C11.8042 33.2712 11.6336 33.275 11.4693 33.2809L11.4592 33.281C11.4564 33.2811 11.453 33.2813 11.4503 33.2814L10.145 33.307L8.9234 33.3121V32.1047H12.0279V33.2676ZM23.0795 33.3121H22.001L19.9703 33.2719V32.1047H23.0795V33.3121Z" fill="#FFDFBA"/>
<path d="M16.0116 27.0487L17.5405 25.9704L19.8428 26.4859L18.6728 29.6302C18.6345 29.7329 18.5516 29.81 18.4499 29.8377C18.4227 29.8451 18.3952 29.8488 18.3677 29.8488C18.2924 29.8488 18.2184 29.8214 18.1591 29.77L16.0126 27.9077L13.8662 29.77C13.8069 29.8214 13.7329 29.8488 13.6576 29.8488C13.6301 29.8488 13.6026 29.8451 13.5754 29.8377C13.4737 29.81 13.3907 29.7329 13.3525 29.6302L12.1768 26.4708L14.4627 25.9668L16.0116 27.0487Z" fill="#505565"/>
<path d="M23.6455 16.0506C23.6455 16.5959 23.4879 17.6638 22.9255 18.1803C22.5993 18.2361 22.3425 18.6022 22.2548 18.7782C22.1402 18.9758 22.1294 19.1407 22.1291 19.1523C22.1255 19.2614 22.0728 19.3682 21.9871 19.4301L21.7206 19.6223C21.6127 19.6999 21.4709 19.703 21.3604 19.6297C21.2497 19.5564 21.1912 19.421 21.2117 19.2853C21.2144 19.2681 21.4742 17.5416 21.4742 16.969C21.4742 15.371 20.6601 14.6215 19.8264 13.9907C19.2374 13.5452 18.7438 13.3158 18.3841 13.1979C17.9702 14.0385 16.5305 16.1101 13.6558 16.7258C13.55 16.7483 13.3974 16.7878 13.2256 16.8323L13.2035 16.838C12.0106 17.1471 11.6875 17.1951 11.5072 16.913C11.4093 16.7602 11.4439 16.5534 11.5853 16.4445C11.5882 16.4422 11.7336 16.3297 11.9404 16.142C11.2478 16.2689 10.6696 16.3198 10.3247 16.3402C10.3477 16.8373 10.3828 17.7283 10.3597 18.1105C10.3207 18.7945 10.591 19.4864 10.5992 19.5075L10.5994 19.5079C10.6512 19.637 10.6229 19.7863 10.5279 19.8849C10.4654 19.95 10.3821 19.9844 10.2975 19.9844C10.2537 19.9844 10.2098 19.9752 10.1679 19.9564L9.66491 19.729C9.5482 19.6761 9.47114 19.5569 9.4673 19.4237C9.46398 19.312 9.45297 19.1987 9.43642 19.0904C9.43642 18.8734 9.38676 18.4395 9.18809 18.4395C9.1863 18.4386 9.18452 18.4359 9.18272 18.4352C8.00347 17.9463 7.95327 16.2637 8.01818 15.0408C8.11618 13.1937 9.19103 10.8351 9.31318 10.5723C9.76643 9.60403 11.5531 8.15528 12.7892 7.75293C16.3449 6.59786 19.4089 7.25162 21.8966 9.69845L22.0072 9.80629C22.6658 10.4341 23.6455 12.6151 23.6455 16.0506Z" fill="#505565"/>
</g>
</svg>
