<svg width="60" height="60" viewBox="0 0 60 60" fill="none" xmlns="http://www.w3.org/2000/svg">
<path d="M30 4.20001C29.73 4.20001 29.55 4.38106 29.55 4.65264V7.82106C28.65 8.00212 27.93 8.72633 27.75 9.63159H27.3C27.03 9.63159 26.85 9.81264 26.85 10.0842C26.85 10.3558 27.03 10.5369 27.3 10.5369H27.75V13.6151C25.14 14.5204 23.2497 16.7832 22.8897 19.5895H22.35C22.08 19.5895 21.9 19.7705 21.9 20.0421C21.9 20.3137 22.08 20.4947 22.35 20.4947H22.8V22.3053H21.45C21.18 22.3053 21 22.4863 21 22.7579V24.5684C21 24.84 21.18 25.0211 21.45 25.0211H22.7086C22.5286 26.0169 21.63 26.8316 20.55 26.8316H20.1V25.4737C20.1 25.2021 19.92 25.0211 19.65 25.0211C19.38 25.0211 19.2 25.2021 19.2 25.4737V26.8316C18.3 27.0126 17.58 27.7369 17.4 28.6421H16.95C16.68 28.6421 16.5 28.8232 16.5 29.0947C16.5 29.3663 16.68 29.5474 16.95 29.5474H17.4V34.0737H16.95C16.68 34.0737 16.5 34.2547 16.5 34.5263C16.5 34.7979 16.68 34.979 16.95 34.979H17.4V35.8842H10.2V34.979H10.65C10.92 34.979 11.1 34.7979 11.1 34.5263C11.1 34.2547 10.92 34.0737 10.65 34.0737H10.2V32.3533V31.8105V30.9053C10.2 30.6337 10.02 30.4526 9.75001 30.4526C9.48001 30.4526 9.30001 30.6337 9.30001 30.9053V31.3579H8.40001V28.6421H8.85001C9.12001 28.6421 9.30001 28.4611 9.30001 28.1895C9.30001 27.9179 9.12001 27.7369 8.85001 27.7369H8.40001C8.40001 26.9221 7.86001 26.1976 7.05001 26.0165V24.5684C7.05001 24.2969 6.87001 24.1158 6.60001 24.1158C6.33001 24.1158 6.15001 24.2969 6.15001 24.5684V26.0165C5.34001 26.1976 4.80001 26.9221 4.80001 27.7369H4.35001C4.08001 27.7369 3.90001 27.9179 3.90001 28.1895C3.90001 28.4611 4.08001 28.6421 4.35001 28.6421H4.80001V31.3579H3.90001V30.9053C3.90001 30.6337 3.72001 30.4526 3.45001 30.4526C3.18001 30.4526 3.00001 30.6337 3.00001 30.9053V31.8105V32.3533V34.0737H2.55001C2.28001 34.0737 2.10001 34.2547 2.10001 34.5263C2.10001 34.7979 2.28001 34.979 2.55001 34.979H3.00001V37.6947H2.55001C2.28001 37.6947 2.10001 37.8758 2.10001 38.1474C2.10001 38.419 2.28001 38.6 2.55001 38.6H3.00001V45.8421H2.55001C2.28001 45.8421 2.10001 46.0232 2.10001 46.2947C2.10001 46.5663 2.28001 46.7474 2.55001 46.7474H3.00001V54.8947H1.65001C1.38001 54.8947 1.20001 55.0758 1.20001 55.3474C1.20001 55.619 1.38001 55.8 1.65001 55.8H3.45001H9.75001H17.85H20.55H23.25H25.95H34.05H36.75H39.45H42.15H50.25H56.55H58.35C58.62 55.8 58.8 55.619 58.8 55.3474C58.8 55.0758 58.5286 54.8947 58.2586 54.8947H56.9086V46.7474H57.3586C57.6286 46.7474 57.8086 46.5663 57.8086 46.2947C57.8086 46.0232 57.6286 45.8421 57.3586 45.8421H56.9086V38.6H57.3586C57.6286 38.6 57.8086 38.419 57.8086 38.1474C57.8086 37.8758 57.6286 37.6947 57.3586 37.6947H56.9086V34.979H57.3586C57.6286 34.979 57.8086 34.7979 57.8086 34.5263C57.8086 34.2547 57.6286 34.0737 57.3586 34.0737H56.9086V32.3533V31.8105V30.9053C56.9086 30.6337 56.7286 30.4526 56.4586 30.4526C56.1886 30.4526 56.0086 30.6337 56.0086 30.9053V31.3579H55.1086V28.6421H55.5586C55.8286 28.6421 56.0086 28.4611 56.0086 28.1895C56.0086 27.9179 55.8286 27.7369 55.5586 27.7369H55.1086C55.1086 26.9221 54.5686 26.1976 53.7586 26.0165V24.5684C53.7586 24.2969 53.5786 24.1158 53.3086 24.1158C53.0386 24.1158 52.8586 24.2969 52.8586 24.5684V26.0165C52.0486 26.1976 51.5086 26.9221 51.5086 27.7369H51.0586C50.7886 27.7369 50.6086 27.9179 50.6086 28.1895C50.6086 28.4611 50.7886 28.6421 51.0586 28.6421H51.5086V31.3579H50.6086V30.9053C50.6086 30.6337 50.4286 30.4526 50.1586 30.4526C49.8886 30.4526 49.7086 30.6337 49.7086 30.9053V31.8105V32.3533V34.0737H49.2586C48.9886 34.0737 48.8086 34.2547 48.8086 34.5263C48.8086 34.7979 48.9886 34.979 49.2586 34.979H49.7086V35.8842H42.5086V34.979H42.9586C43.2286 34.979 43.4086 34.7979 43.4086 34.5263C43.4086 34.2547 43.2286 34.0737 42.9586 34.0737H42.5086V29.5474H42.9586C43.2286 29.5474 43.4086 29.3663 43.4086 29.0947C43.4086 28.8232 43.2286 28.6421 42.9586 28.6421H42.5086C42.3286 27.7369 41.6086 27.0126 40.7086 26.8316V25.4737C40.7086 25.2021 40.5286 25.0211 40.2586 25.0211C39.9886 25.0211 39.8086 25.2021 39.8086 25.4737V26.8316H39.3586C38.2786 26.8316 37.38 26.0169 37.2 25.0211H38.4586C38.7286 25.0211 38.9086 24.84 38.9086 24.5684V22.7579C38.9086 22.4863 38.7286 22.3053 38.4586 22.3053H37.1086V20.4947H37.5586C37.8286 20.4947 38.0086 20.3137 38.0086 20.0421C38.0086 19.7705 37.8286 19.5895 37.5586 19.5895H37.1086C36.7486 16.7832 34.86 14.5204 32.25 13.6151V10.5369H32.7C32.97 10.5369 33.15 10.3558 33.15 10.0842C33.15 9.81264 32.97 9.63159 32.7 9.63159H32.25C32.07 8.72633 31.35 8.00212 30.45 7.82106V4.65264C30.45 4.38106 30.27 4.20001 30 4.20001ZM29.9086 8.72633C30.5386 8.72633 30.989 9.08843 31.169 9.63159H28.65C28.83 9.08843 29.2786 8.72633 29.9086 8.72633ZM28.5586 10.5369H31.2586V13.3428C30.9886 13.2523 30.6286 13.2526 30.3586 13.2526V13.1625V11.8947C30.3586 11.6232 30.1786 11.4421 29.9086 11.4421C29.6386 11.4421 29.4586 11.6232 29.4586 11.8947V13.1625V13.2526C29.1886 13.2526 28.8286 13.3428 28.5586 13.3428V10.5369ZM29.9086 14.1579C33.0586 14.1579 35.669 16.5116 36.119 19.5895H23.7C24.15 16.5116 26.7586 14.1579 29.9086 14.1579ZM23.6086 20.4947H24.5086V22.3053H23.6086V20.4947ZM25.4086 20.4947H27.2086V22.3053H25.4086V20.4947ZM28.1086 20.4947H31.7086V22.3053H28.1086V20.4947ZM32.6086 20.4947H34.4086V22.3053H32.6086V20.4947ZM35.3086 20.4947H36.2086V22.3053H35.3086V20.4947ZM29.9086 20.9474C29.7893 20.9474 29.6748 20.9951 29.5904 21.08C29.506 21.1648 29.4586 21.28 29.4586 21.4C29.4586 21.5201 29.506 21.6352 29.5904 21.7201C29.6748 21.805 29.7893 21.8526 29.9086 21.8526C30.028 21.8526 30.1424 21.805 30.2268 21.7201C30.3112 21.6352 30.3586 21.5201 30.3586 21.4C30.3586 21.28 30.3112 21.1648 30.2268 21.08C30.1424 20.9951 30.028 20.9474 29.9086 20.9474ZM21.8086 23.2105H38.0086V24.1158H21.8086V23.2105ZM23.6086 25.0211H24.6V28.6421H24.15C23.88 28.6421 23.7 28.8232 23.7 29.0947C23.7 29.3663 23.88 29.5474 24.15 29.5474H27.3V30.4526H25.95H23.25C22.98 30.4526 22.8 30.6337 22.8 30.9053V33.1684H21.9V29.5474H22.35C22.62 29.5474 22.8 29.3663 22.8 29.0947C22.8 28.8232 22.62 28.6421 22.35 28.6421H21.9C21.81 28.28 21.6286 27.9183 21.3586 27.6467C22.4386 27.2846 23.4286 26.2884 23.6086 25.0211ZM25.4086 25.0211H26.3086V28.6421H25.4086V25.0211ZM27.2086 25.0211H32.6086V28.6421H32.1586H31.7086V27.6467C31.7086 26.6509 30.8986 25.8362 29.9086 25.8362C28.9186 25.8362 28.1086 26.6509 28.1086 27.6467V28.6421H27.6586H27.2086V25.0211ZM33.5086 25.0211H34.4086V28.6421H33.5086V25.0211ZM35.3086 25.0211H36.3C36.48 26.2884 37.38 27.2846 38.55 27.6467C38.28 27.9183 38.0986 28.28 38.0086 28.6421H37.5586C37.2886 28.6421 37.1086 28.8232 37.1086 29.0947C37.1086 29.3663 37.2886 29.5474 37.5586 29.5474H38.0086V33.1684H37.1086V30.9053C37.1086 30.6337 36.9286 30.4526 36.6586 30.4526H33.9586H32.6086V29.5474H35.7586C36.0286 29.5474 36.2086 29.3663 36.2086 29.0947C36.2086 28.8232 36.0286 28.6421 35.7586 28.6421H35.3086V25.0211ZM29.9086 26.7414C30.4486 26.7414 30.8086 27.1035 30.8086 27.6467V28.6421H29.0086V27.6467C29.0086 27.1035 29.3686 26.7414 29.9086 26.7414ZM6.50861 26.8316C7.04861 26.8316 7.40861 27.1937 7.40861 27.7369H5.60861C5.60861 27.1937 5.96861 26.8316 6.50861 26.8316ZM53.3086 26.8316C53.8486 26.8316 54.2086 27.1937 54.2086 27.7369H52.4086C52.4086 27.1937 52.8586 26.8316 53.3086 26.8316ZM19.5586 27.7369C20.1886 27.7369 20.639 28.099 20.819 28.6421H18.3C18.48 28.099 19.0186 27.7369 19.5586 27.7369ZM40.2586 27.7369C40.7986 27.7369 41.339 28.099 41.519 28.6421H39C39.18 28.099 39.7186 27.7369 40.2586 27.7369ZM5.60861 28.6421H7.40861V31.3579H5.60861V28.6421ZM52.4086 28.6421H54.2086V31.3579H52.4086V28.6421ZM18.2086 29.5474H20.9086V33.6211V34.0737H20.0086V33.9835V31.8105C20.0086 31.539 19.8286 31.3579 19.5586 31.3579C19.2886 31.3579 19.1086 31.539 19.1086 31.8105V33.9835V34.0737H18.2086V29.5474ZM28.1086 29.5474H31.7086V30.4526H28.1086V29.5474ZM38.9086 29.5474H41.6086V34.0737H40.7086V33.9835V31.8105C40.7086 31.539 40.5286 31.3579 40.2586 31.3579C39.9886 31.3579 39.8086 31.539 39.8086 31.8105V33.9835V34.0737H38.9086V33.6211V33.5309V29.5474ZM23.6086 31.3579H25.4086V33.1684H23.6086V31.3579ZM26.3086 31.3579H27.6586H32.1586H33.5086V33.1684H26.3086V31.3579ZM34.4086 31.3579H36.2086V33.1684H34.4086V31.3579ZM5.06896 32.2632H7.76896H9.11896V32.3533V34.0737H3.71896V32.3533H3.80861L5.06896 32.2632ZM51.9586 32.2632H54.6586H55.919V32.3533V34.0737H50.519V32.3533H50.6086L51.9586 32.2632ZM21.8086 34.0737H23.1586H25.8586H33.9586H36.6586H38.0086V34.5263V34.6165V34.979H36.6586H33.9586H25.8586H23.1586H21.8086V34.5263V34.0737ZM3.80861 34.979H9.20861V36.3369V37.6947H3.80861V34.979ZM18.2086 34.979H20.9086V35.4316C20.9086 35.7032 21.0886 35.8842 21.3586 35.8842H22.7086V37.6947H20.4586H18.2086V36.3369V34.979ZM38.9086 34.979H41.6086V36.3369V37.6947H39.3586H37.1086V35.8842H38.4586C38.7286 35.8842 38.9086 35.7032 38.9086 35.4316V34.979ZM50.6086 34.979H56.0086V37.6947H50.6086V36.3369V34.979ZM6.50861 35.8842C6.38926 35.8842 6.2748 35.9319 6.19041 36.0168C6.10602 36.1017 6.05861 36.2168 6.05861 36.3369C6.05861 36.4569 6.10602 36.572 6.19041 36.6569C6.2748 36.7418 6.38926 36.7895 6.50861 36.7895C6.62795 36.7895 6.74241 36.7418 6.8268 36.6569C6.9112 36.572 6.95861 36.4569 6.95861 36.3369C6.95861 36.2168 6.9112 36.1017 6.8268 36.0168C6.74241 35.9319 6.62795 35.8842 6.50861 35.8842ZM23.6086 35.8842H25.4086V37.6947H23.6086V35.8842ZM26.3086 35.8842H33.5086V37.6947H32.1586H27.6586H26.3086V35.8842ZM34.4086 35.8842H36.2086V37.6947H34.4086V35.8842ZM53.3086 35.8842C53.1893 35.8842 53.0748 35.9319 52.9904 36.0168C52.906 36.1017 52.8586 36.2168 52.8586 36.3369C52.8586 36.4569 52.906 36.572 52.9904 36.6569C53.0748 36.7418 53.1893 36.7895 53.3086 36.7895C53.428 36.7895 53.5424 36.7418 53.6268 36.6569C53.7112 36.572 53.7586 36.4569 53.7586 36.3369C53.7586 36.2168 53.7112 36.1017 53.6268 36.0168C53.5424 35.9319 53.428 35.8842 53.3086 35.8842ZM10.1086 36.7895H17.3086V37.6947H16.8586C16.5886 37.6947 16.4086 37.8758 16.4086 38.1474C16.4086 38.419 16.5886 38.6 16.8586 38.6H17.3086V39.5053H10.1086V38.6H10.5586C10.8286 38.6 11.0086 38.419 11.0086 38.1474C11.0086 37.8758 10.8286 37.6947 10.5586 37.6947H10.1086V36.7895ZM42.5086 36.7895H49.7086V37.6947H49.2586C48.9886 37.6947 48.8086 37.8758 48.8086 38.1474C48.8086 38.419 48.9886 38.6 49.2586 38.6H49.7086V39.5053H42.5086V38.6H42.9586C43.2286 38.6 43.4086 38.419 43.4086 38.1474C43.4086 37.8758 43.2286 37.6947 42.9586 37.6947H42.5086V36.7895ZM3.80861 38.6H9.20861V39.9579V45.8421H3.80861V38.6ZM18.2086 38.6H20.0086V42.2211V44.4842V48.5579V50.8211V54.8947H18.2086V39.9579V38.6ZM20.9086 38.6H22.7086V40.6828C22.4386 40.5018 22.1686 40.4105 21.8086 40.4105C21.4486 40.4105 21.1786 40.5018 20.9086 40.6828V38.6ZM23.6086 38.6H25.4086V44.0316V52.179V54.8947H23.6086V50.8211V48.5579V44.4842V42.2211V38.6ZM26.3086 38.6H27.6586H32.1586H33.5086V41.3158C32.6986 40.2295 31.4386 39.5053 29.9086 39.5053C28.4686 39.5053 27.1186 40.2295 26.3086 41.3158V38.6ZM34.4086 38.6H36.2086V42.2211V44.4842V48.5579V50.8211V54.8947H34.4086V52.179V44.0316V38.6ZM37.1086 38.6H38.9086V40.6828C38.6386 40.5018 38.3686 40.4105 38.0086 40.4105C37.6486 40.4105 37.3786 40.5018 37.1086 40.6828V38.6ZM39.8086 38.6H41.6086V39.9579V54.8947H39.8086V50.8211V48.5579V44.4842V42.2211V38.6ZM50.6086 38.6H56.0086V45.8421H50.6086V39.9579V38.6ZM5.15861 39.5053C4.88861 39.5053 4.70861 39.6863 4.70861 39.9579V43.579C4.70861 43.8505 4.88861 44.0316 5.15861 44.0316H7.85861C8.12861 44.0316 8.30861 43.8505 8.30861 43.579V39.9579C8.30861 39.6863 8.12861 39.5053 7.85861 39.5053H5.15861ZM51.9586 39.5053C51.6886 39.5053 51.5086 39.6863 51.5086 39.9579V43.579C51.5086 43.8505 51.6886 44.0316 51.9586 44.0316H54.6586C54.9286 44.0316 55.1086 43.8505 55.1086 43.579V39.9579C55.1086 39.6863 54.9286 39.5053 54.6586 39.5053H51.9586ZM5.60861 40.4105H7.40861V41.3158H5.60861V40.4105ZM10.1086 40.4105H17.3086V54.8947H10.1086V46.7474H10.5586C10.8286 46.7474 11.0086 46.5663 11.0086 46.2947C11.0086 46.0232 10.8286 45.8421 10.5586 45.8421H10.1086V40.4105ZM29.9086 40.4105C31.8886 40.4105 33.5086 42.04 33.5086 44.0316V52.179V54.8947H26.3086V52.179V44.0316C26.3086 42.04 27.9286 40.4105 29.9086 40.4105ZM42.5086 40.4105H49.7086V45.8421H49.2586C48.9886 45.8421 48.8086 46.0232 48.8086 46.2947C48.8086 46.5663 48.9886 46.7474 49.2586 46.7474H49.7086V54.8947H42.5086V40.4105ZM52.4086 40.4105H54.2086V41.3158H52.4086V40.4105ZM12.3586 41.3158C12.0886 41.3158 11.9086 41.4969 11.9086 41.7684V45.3895C11.9086 45.6611 12.0886 45.8421 12.3586 45.8421H15.0586C15.3286 45.8421 15.5086 45.6611 15.5086 45.3895V41.7684C15.5086 41.4969 15.3286 41.3158 15.0586 41.3158H12.3586ZM21.8086 41.3158C22.3486 41.3158 22.7086 41.6779 22.7086 42.2211V44.0316H20.9086V42.2211C20.9086 41.6779 21.2686 41.3158 21.8086 41.3158ZM38.0086 41.3158C38.5486 41.3158 38.9086 41.6779 38.9086 42.2211V44.0316H37.1086V42.2211C37.1086 41.6779 37.4686 41.3158 38.0086 41.3158ZM44.7586 41.3158C44.4886 41.3158 44.3086 41.4969 44.3086 41.7684V45.3895C44.3086 45.6611 44.4886 45.8421 44.7586 45.8421H47.4586C47.7286 45.8421 47.9086 45.6611 47.9086 45.3895V41.7684C47.9086 41.4969 47.7286 41.3158 47.4586 41.3158H44.7586ZM5.60861 42.2211H7.40861V43.1263H5.60861V42.2211ZM12.8086 42.2211H14.6086V43.1263H12.8086V42.2211ZM45.2086 42.2211H47.0086V43.1263H45.2086V42.2211ZM52.4086 42.2211H54.2086V43.1263H52.4086V42.2211ZM12.8086 44.0316H14.6086V44.9369H12.8086V44.0316ZM45.2086 44.0316H47.0086V44.9369H45.2086V44.0316ZM20.9086 44.9369H22.7086V47.0197C22.4386 46.8386 22.1686 46.7474 21.8086 46.7474C21.4486 46.7474 21.1786 46.8386 20.9086 47.0197V44.9369ZM37.1086 44.9369H38.9086V47.0197C38.6386 46.8386 38.3686 46.7474 38.0086 46.7474C37.6486 46.7474 37.3786 46.8386 37.1086 47.0197V44.9369ZM3.80861 46.7474H9.20861V54.8947H3.80861V46.7474ZM50.6086 46.7474H56.0086V54.8947H50.6086V46.7474ZM5.15861 47.6526C4.88861 47.6526 4.70861 47.8337 4.70861 48.1053V51.7263C4.70861 51.9979 4.88861 52.179 5.15861 52.179H7.85861C8.12861 52.179 8.30861 51.9979 8.30861 51.7263V48.1053C8.30861 47.8337 8.12861 47.6526 7.85861 47.6526H5.15861ZM12.3586 47.6526C12.0886 47.6526 11.9086 47.8337 11.9086 48.1053V51.7263C11.9086 51.9979 12.0886 52.179 12.3586 52.179H15.0586C15.3286 52.179 15.5086 51.9979 15.5086 51.7263V48.1053C15.5086 47.8337 15.3286 47.6526 15.0586 47.6526H12.3586ZM21.8086 47.6526C22.3486 47.6526 22.7086 48.0147 22.7086 48.5579V50.3684H20.9086V48.5579C20.9086 48.0147 21.2686 47.6526 21.8086 47.6526ZM38.0086 47.6526C38.5486 47.6526 38.9086 48.0147 38.9086 48.5579V50.3684H37.1086V48.5579C37.1086 48.0147 37.4686 47.6526 38.0086 47.6526ZM44.7586 47.6526C44.4886 47.6526 44.3086 47.8337 44.3086 48.1053V51.7263C44.3086 51.9979 44.4886 52.179 44.7586 52.179H47.4586C47.7286 52.179 47.9086 51.9979 47.9086 51.7263V48.1053C47.9086 47.8337 47.7286 47.6526 47.4586 47.6526H44.7586ZM51.9586 47.6526C51.6886 47.6526 51.5086 47.8337 51.5086 48.1053V51.7263C51.5086 51.9979 51.6886 52.179 51.9586 52.179H54.6586C54.9286 52.179 55.1086 51.9979 55.1086 51.7263V48.1053C55.1086 47.8337 54.9286 47.6526 54.6586 47.6526H51.9586ZM5.60861 48.5579H7.40861V51.2737H5.60861V48.5579ZM12.8086 48.5579H14.6086V49.4632H12.8086V48.5579ZM45.2086 48.5579H47.0086V49.4632H45.2086V48.5579ZM52.4086 48.5579H54.2086V51.2737H52.4086V48.5579ZM12.8086 50.3684H14.6086V51.2737H12.8086V50.3684ZM45.2086 50.3684H47.0086V51.2737H45.2086V50.3684ZM20.9086 51.2737H22.7086V54.8947H20.9086V51.2737ZM37.1086 51.2737H38.9086V54.8947H37.1086V51.2737Z" fill="#505565"/>
</svg>
