<svg width="24" height="20" viewBox="0 0 24 20" fill="none" xmlns="http://www.w3.org/2000/svg">
<g clip-path="url(#clip0_473_28156)">
<path d="M9.69381 11.077C10.2415 11.077 10.7769 10.9146 11.2323 10.6103C11.6877 10.3061 12.0426 9.87356 12.2522 9.36754C12.4618 8.86153 12.5167 8.30473 12.4098 7.76756C12.303 7.23038 12.0392 6.73695 11.652 6.34966C11.2647 5.96238 10.7712 5.69864 10.2341 5.59179C9.69688 5.48493 9.14008 5.53977 8.63407 5.74937C8.12806 5.95897 7.69557 6.31391 7.39128 6.7693C7.08699 7.2247 6.92458 7.7601 6.92458 8.30781C6.92458 9.04225 7.21634 9.74662 7.73567 10.2659C8.255 10.7853 8.95936 11.077 9.69381 11.077ZM19.8477 16.6155H15.4377C15.6037 16.3361 15.6921 16.0174 15.6938 15.6924C15.6938 14.958 15.4021 14.2536 14.8827 13.7343C14.3634 13.2149 13.659 12.9232 12.9246 12.9232H6.46304C5.7286 12.9232 5.02423 13.2149 4.5049 13.7343C3.98557 14.2536 3.69381 14.958 3.69381 15.6924C3.69555 16.0174 3.78395 16.3361 3.94987 16.6155H2.30919C2.18679 16.6155 2.06939 16.6641 1.98284 16.7507C1.89628 16.8372 1.84766 16.9546 1.84766 17.077C1.84766 17.1994 1.89628 17.3168 1.98284 17.4034C2.06939 17.49 2.18679 17.5386 2.30919 17.5386H19.8477C19.9701 17.5386 20.0875 17.49 20.174 17.4034C20.2606 17.3168 20.3092 17.1994 20.3092 17.077C20.3092 16.9546 20.2606 16.8372 20.174 16.7507C20.0875 16.6641 19.9701 16.6155 19.8477 16.6155Z" fill="#50C5FF"/>
<path d="M22.1806 4.76492C22.2423 4.70481 22.2859 4.62864 22.3065 4.54503C22.3272 4.46142 22.324 4.37371 22.2974 4.2918C22.2708 4.20989 22.2218 4.13707 22.156 4.08156C22.0901 4.02605 22.0101 3.99006 21.9248 3.97768L20.0573 3.70635C19.9833 3.69558 19.9129 3.66698 19.8524 3.623C19.7919 3.57902 19.7429 3.52098 19.7098 3.45389L18.8746 1.76166C18.8365 1.68443 18.7775 1.61941 18.7044 1.57395C18.6313 1.52849 18.5469 1.50439 18.4608 1.50439C18.3746 1.50439 18.2902 1.52849 18.2171 1.57395C18.144 1.61941 18.085 1.68443 18.0469 1.76166L17.2117 3.45389C17.1786 3.52098 17.1297 3.57901 17.0691 3.62299C17.0086 3.66697 16.9383 3.69557 16.8642 3.70635L14.9967 3.97768C14.9115 3.99006 14.8314 4.02605 14.7656 4.08156C14.6998 4.13707 14.6508 4.20989 14.6242 4.2918C14.5975 4.37371 14.5944 4.46142 14.615 4.54503C14.6357 4.62864 14.6793 4.70481 14.7409 4.76492L16.0923 6.08216C16.1459 6.13439 16.1859 6.19887 16.2091 6.27003C16.2322 6.3412 16.2377 6.41693 16.225 6.49068L15.906 8.35064C15.891 8.43563 15.9001 8.52314 15.9324 8.60318C15.9647 8.68322 16.0189 8.75257 16.0887 8.8033C16.1585 8.85404 16.2412 8.88412 16.3273 8.89011C16.4134 8.8961 16.4995 8.87776 16.5757 8.83719L18.246 7.95901C18.3122 7.92419 18.3859 7.90599 18.4608 7.90599C18.5356 7.90599 18.6093 7.92419 18.6755 7.95901L20.3458 8.83719C20.422 8.87776 20.5081 8.8961 20.5942 8.89011C20.6803 8.88412 20.763 8.85404 20.8328 8.80331C20.9027 8.75257 20.9568 8.68323 20.9891 8.60319C21.0214 8.52314 21.0306 8.43563 21.0156 8.35064L20.6966 6.49068C20.6839 6.41693 20.6894 6.3412 20.7125 6.27003C20.7356 6.19887 20.7757 6.13439 20.8293 6.08216L22.1806 4.76492Z" fill="#FF9000"/>
</g>
<defs>
<clipPath id="clip0_473_28156">
<rect width="24" height="19.3846" fill="white"/>
</clipPath>
</defs>
</svg>
