<svg width="450" height="296" viewBox="0 0 450 296" fill="none" xmlns="http://www.w3.org/2000/svg">
<g clip-path="url(#clip0)">
<path d="M283.356 152.646H116.904V294.42H283.356V152.646Z" fill="white"/>
<path d="M283.84 294.904H116.421V152.162H283.84V294.904ZM117.389 293.936H282.873V153.13H117.389V293.936Z" fill="#3F3D56"/>
<path d="M220.937 180.226H179.324V294.42H220.937V180.226Z" fill="#F9B9B8"/>
<path d="M220.937 180.226H179.324V294.42H220.937V180.226Z" fill="#F9B9B8"/>
<path opacity="0.2" d="M117.389 163.049V186.051L283.357 196.678L282.868 168.295L117.389 163.049Z" fill="black"/>
<path d="M293.033 139.581H107.227V180.226H293.033V139.581Z" fill="white"/>
<path d="M293.517 180.71H106.743V139.097H293.517V180.71ZM107.711 179.743H292.549V140.065H107.711V179.743Z" fill="#3F3D56"/>
<path d="M220.937 135.71H179.324V179.743H220.937V135.71Z" fill="#F9B9B8"/>
<path d="M195.675 97.3182C206.66 113.601 196.31 139.79 196.31 139.79C196.31 139.79 168.151 139.579 157.167 123.296C146.182 107.013 156.531 80.824 156.531 80.824C156.531 80.824 184.69 81.0352 195.675 97.3182Z" fill="#F9B9B8"/>
<path d="M200.715 97.3182C189.731 113.601 200.08 139.79 200.08 139.79C200.08 139.79 228.239 139.579 239.224 123.296C250.208 107.013 239.859 80.824 239.859 80.824C239.859 80.824 211.7 81.0352 200.715 97.3182Z" fill="#F9B9B8"/>
<path d="M171.098 109.581C173.503 109.581 175.453 107.632 175.453 105.226C175.453 102.821 173.503 100.872 171.098 100.872C168.693 100.872 166.743 102.821 166.743 105.226C166.743 107.632 168.693 109.581 171.098 109.581Z" fill="#3F3D56"/>
<path d="M197.227 153.614C199.632 153.614 201.582 151.664 201.582 149.259C201.582 146.854 199.632 144.904 197.227 144.904C194.822 144.904 192.872 146.854 192.872 149.259C192.872 151.664 194.822 153.614 197.227 153.614Z" fill="#3F3D56"/>
<path d="M197.227 248.936C199.632 248.936 201.582 246.986 201.582 244.581C201.582 242.176 199.632 240.226 197.227 240.226C194.822 240.226 192.872 242.176 192.872 244.581C192.872 246.986 194.822 248.936 197.227 248.936Z" fill="#3F3D56"/>
<path d="M182.71 124.097C184.314 124.097 185.614 122.798 185.614 121.194C185.614 119.591 184.314 118.291 182.71 118.291C181.107 118.291 179.807 119.591 179.807 121.194C179.807 122.798 181.107 124.097 182.71 124.097Z" fill="#3F3D56"/>
<path d="M226.259 99.42C227.862 99.42 229.162 98.1202 229.162 96.5168C229.162 94.9134 227.862 93.6136 226.259 93.6136C224.656 93.6136 223.356 94.9134 223.356 96.5168C223.356 98.1202 224.656 99.42 226.259 99.42Z" fill="#3F3D56"/>
<path d="M207.388 167.646C208.992 167.646 210.291 166.346 210.291 164.743C210.291 163.139 208.992 161.839 207.388 161.839C205.785 161.839 204.485 163.139 204.485 164.743C204.485 166.346 205.785 167.646 207.388 167.646Z" fill="#3F3D56"/>
<path d="M189.969 205.388C191.572 205.388 192.872 204.088 192.872 202.484C192.872 200.881 191.572 199.581 189.969 199.581C188.365 199.581 187.065 200.881 187.065 202.484C187.065 204.088 188.365 205.388 189.969 205.388Z" fill="#3F3D56"/>
<path d="M204.969 218.452C206.572 218.452 207.872 217.152 207.872 215.549C207.872 213.946 206.572 212.646 204.969 212.646C203.365 212.646 202.065 213.946 202.065 215.549C202.065 217.152 203.365 218.452 204.969 218.452Z" fill="#3F3D56"/>
<path d="M151.639 139.916C151.703 140.033 151.763 140.155 151.817 140.279C152.09 140.894 152.229 141.56 152.226 142.233C152.223 142.905 152.078 143.57 151.8 144.182C151.523 144.795 151.119 145.342 150.615 145.788C150.111 146.234 149.519 146.568 148.877 146.769C148.727 146.815 148.576 146.853 148.422 146.884L139.637 169.609C139.346 170.352 138.824 170.981 138.148 171.404C137.471 171.826 136.677 172.019 135.882 171.954L135.838 171.946L116.796 166.214C115.757 165.9 114.886 165.187 114.373 164.231C113.86 163.275 113.748 162.154 114.061 161.115C114.373 160.076 115.086 159.204 116.041 158.691C116.997 158.177 118.117 158.063 119.156 158.375C119.18 158.382 119.204 158.39 119.227 158.397L132.7 162.723L143.131 144.231C143.039 144.039 142.961 143.84 142.896 143.637C142.543 142.507 142.622 141.286 143.119 140.211C143.615 139.136 144.493 138.283 145.583 137.82C146.673 137.356 147.896 137.313 149.015 137.701C150.134 138.088 151.069 138.877 151.639 139.916L151.639 139.916Z" fill="#FFB8B8"/>
<path d="M334.421 244.384H275.591V294.492H334.421V244.384Z" fill="white"/>
<path d="M334.593 294.664H275.421V244.213H334.593V294.664ZM275.763 294.322H334.251V244.555H275.763V294.322Z" fill="#3F3D56"/>
<path d="M312.36 254.132H297.653V294.493H312.36V254.132Z" fill="#F9B9B8"/>
<path d="M312.36 254.132H297.653V294.493H312.36V254.132Z" fill="#F9B9B8"/>
<path opacity="0.2" d="M275.763 248.061V256.191L334.422 259.947L334.249 249.915L275.763 248.061Z" fill="black"/>
<path d="M337.842 239.767H272.171V254.132H337.842V239.767Z" fill="white"/>
<path d="M338.013 254.303H272V239.596H338.013V254.303ZM272.342 253.961H337.671V239.938H272.342V253.961Z" fill="#3F3D56"/>
<path d="M312.36 238.399H297.653V253.961H312.36V238.399Z" fill="#F9B9B8"/>
<path d="M303.432 224.83C307.314 230.585 303.656 239.841 303.656 239.841C303.656 239.841 293.704 239.766 289.821 234.011C285.939 228.256 289.597 219 289.597 219C289.597 219 299.549 219.075 303.432 224.83Z" fill="#F9B9B8"/>
<path d="M305.213 224.83C301.331 230.585 304.989 239.841 304.989 239.841C304.989 239.841 314.941 239.766 318.823 234.011C322.706 228.256 319.048 219 319.048 219C319.048 219 309.095 219.075 305.213 224.83Z" fill="#F9B9B8"/>
<path d="M294.745 229.164C295.595 229.164 296.284 228.475 296.284 227.625C296.284 226.775 295.595 226.086 294.745 226.086C293.895 226.086 293.206 226.775 293.206 227.625C293.206 228.475 293.895 229.164 294.745 229.164Z" fill="#3F3D56"/>
<path d="M303.98 244.726C304.83 244.726 305.519 244.037 305.519 243.187C305.519 242.337 304.83 241.648 303.98 241.648C303.13 241.648 302.441 242.337 302.441 243.187C302.441 244.037 303.13 244.726 303.98 244.726Z" fill="#3F3D56"/>
<path d="M303.98 278.417C304.83 278.417 305.519 277.728 305.519 276.878C305.519 276.028 304.83 275.339 303.98 275.339C303.13 275.339 302.441 276.028 302.441 276.878C302.441 277.728 303.13 278.417 303.98 278.417Z" fill="#3F3D56"/>
<path d="M298.85 234.294C299.416 234.294 299.876 233.835 299.876 233.268C299.876 232.702 299.416 232.242 298.85 232.242C298.283 232.242 297.823 232.702 297.823 233.268C297.823 233.835 298.283 234.294 298.85 234.294Z" fill="#3F3D56"/>
<path d="M314.241 225.572C314.808 225.572 315.267 225.113 315.267 224.546C315.267 223.98 314.808 223.52 314.241 223.52C313.674 223.52 313.215 223.98 313.215 224.546C313.215 225.113 313.674 225.572 314.241 225.572Z" fill="#3F3D56"/>
<path d="M307.572 249.686C308.138 249.686 308.598 249.227 308.598 248.66C308.598 248.093 308.138 247.634 307.572 247.634C307.005 247.634 306.545 248.093 306.545 248.66C306.545 249.227 307.005 249.686 307.572 249.686Z" fill="#3F3D56"/>
<path d="M301.415 263.025C301.982 263.025 302.441 262.566 302.441 261.999C302.441 261.432 301.982 260.973 301.415 260.973C300.848 260.973 300.389 261.432 300.389 261.999C300.389 262.566 300.848 263.025 301.415 263.025Z" fill="#3F3D56"/>
<path d="M306.717 267.643C307.283 267.643 307.743 267.183 307.743 266.617C307.743 266.05 307.283 265.591 306.717 265.591C306.15 265.591 305.69 266.05 305.69 266.617C305.69 267.183 306.15 267.643 306.717 267.643Z" fill="#3F3D56"/>
<path d="M19.8684 271.832C21.7667 272.499 23.8049 272.666 25.7865 272.317C27.7682 271.968 29.6265 271.115 31.1826 269.839C35.1454 266.512 36.3881 261.034 37.3987 255.96L40.3889 240.952L34.1287 245.263C29.6265 248.363 25.0231 251.562 21.9061 256.052C18.7891 260.542 17.4292 266.672 19.9329 271.53" fill="#E6E6E6"/>
<path d="M20.8353 291.046C20.0474 285.306 19.2367 279.491 19.7907 273.689C20.2817 268.536 21.8538 263.504 25.0544 259.377C26.7533 257.19 28.8205 255.317 31.1631 253.841C31.7739 253.456 32.3361 254.423 31.728 254.807C27.6745 257.369 24.5392 261.152 22.7742 265.61C20.8249 270.568 20.5119 275.972 20.8477 281.239C21.0506 284.424 21.4819 287.588 21.915 290.748C21.9492 290.891 21.9279 291.042 21.8553 291.17C21.7827 291.297 21.6643 291.393 21.524 291.437C21.381 291.475 21.2284 291.456 21.0996 291.383C20.9707 291.309 20.8759 291.188 20.8357 291.046L20.8353 291.046Z" fill="#F2F2F2"/>
<path d="M26.5063 281.835C27.3204 283.073 28.4394 284.08 29.7557 284.76C31.072 285.439 32.5411 285.768 34.0215 285.715C37.8269 285.535 40.998 282.88 43.8524 280.359L52.2969 272.903L46.7083 272.635C42.6892 272.443 38.5663 272.262 34.7382 273.503C30.9101 274.744 27.3797 277.726 26.6798 281.688" fill="#E6E6E6"/>
<path d="M18.6075 294.346C22.401 287.634 26.8006 280.175 34.6628 277.791C36.8487 277.13 39.1407 276.893 41.4154 277.093C42.1325 277.155 41.9534 278.26 41.2378 278.199C37.4247 277.882 33.619 278.889 30.4612 281.05C27.4226 283.118 25.0565 285.994 23.0542 289.043C21.8276 290.911 20.7289 292.858 19.6301 294.802C19.2791 295.424 18.2524 294.975 18.6075 294.346Z" fill="#F2F2F2"/>
<path d="M328.903 42.8064C330.507 42.8064 331.806 41.5066 331.806 39.9032C331.806 38.2998 330.507 37 328.903 37C327.3 37 326 38.2998 326 39.9032C326 41.5066 327.3 42.8064 328.903 42.8064Z" fill="#8A6E4B"/>
<path d="M21.9032 170.806C23.5066 170.806 24.8064 169.507 24.8064 167.903C24.8064 166.3 23.5066 165 21.9032 165C20.2998 165 19 166.3 19 167.903C19 169.507 20.2998 170.806 21.9032 170.806Z" fill="#EADE7F"/>
<path d="M201.581 273.13C203.185 273.13 204.484 271.83 204.484 270.227C204.484 268.623 203.185 267.323 201.581 267.323C199.978 267.323 198.678 268.623 198.678 270.227C198.678 271.83 199.978 273.13 201.581 273.13Z" fill="#3F3D56"/>
<path d="M380.63 289.075L375.32 289.075L372.794 268.594L380.631 268.595L380.63 289.075Z" fill="#FFB7B7"/>
<path d="M381.985 294.222L364.865 294.221V294.005C364.865 292.237 365.567 290.543 366.816 289.293C368.066 288.043 369.761 287.341 371.528 287.341H371.529L381.985 287.341L381.985 294.222Z" fill="#2F2E41"/>
<path d="M393.598 289.075L398.908 289.075L401.434 268.594L393.597 268.595L393.598 289.075Z" fill="#FFB7B7"/>
<path d="M392.245 287.341L402.702 287.341H402.702C404.469 287.341 406.164 288.043 407.414 289.293C408.664 290.543 409.366 292.237 409.366 294.005V294.221L392.245 294.222L392.245 287.341Z" fill="#2F2E41"/>
<path d="M379.45 129.028C381.731 124.438 379.859 118.868 375.269 116.587C370.678 114.307 365.109 116.179 362.828 120.769C360.548 125.359 362.42 130.929 367.01 133.21C371.6 135.49 377.17 133.618 379.45 129.028Z" fill="#FFB7B7"/>
<path d="M364.305 188.742C364.305 188.742 361.374 200.953 362.84 206.815C364.305 212.676 368.701 252.729 368.701 252.729L371.632 284.478L383.354 285.455L381.889 248.333L383.354 216.095L391.658 247.356V284.588L404.09 285.077L404.357 236.61C404.357 236.61 405.334 198.511 398.985 193.627C392.635 188.742 391.658 187.765 391.658 187.765L364.305 188.742Z" fill="#2F2E41"/>
<path d="M382.002 135.013L393.123 140.875L394.589 191.673C394.589 191.673 388.239 187.765 378.47 192.65C368.701 197.534 362.351 194.115 362.351 194.115L368.212 172.135L365.77 142.828L369.263 139.658L382.002 135.013Z" fill="#CBCBCB"/>
<path d="M369.265 138.733L367.236 140.386C367.236 140.386 354.536 146.736 354.048 151.132L362.84 175.066C362.84 175.066 365.282 180.439 363.328 182.392C361.375 184.346 359.421 189.231 359.909 191.673C360.398 194.115 356.979 204.372 360.886 204.372C364.794 204.372 374.074 180.927 373.586 171.647C373.097 162.366 372.759 138.057 369.265 138.733Z" fill="#2F2E41"/>
<path d="M377.803 135.564L382.277 134.819C382.277 134.819 398.884 139.215 401.327 146.542L394.488 163.637C394.488 163.637 399.373 194.898 397.907 194.898H396.442C396.442 194.898 400.35 197.829 397.907 198.806C395.465 199.782 389.604 207.598 388.139 204.178C386.673 200.759 377.881 160.218 378.858 151.426C379.835 142.634 376.936 136.485 377.803 135.564Z" fill="#2F2E41"/>
<path d="M379.745 115.811L380.179 114.937L377.992 113.85C377.992 113.85 375.579 109.924 371.213 111.027C366.847 112.131 364.883 112.791 364.883 112.791L362.701 113.889L363.796 114.978L361.832 115.638L363.144 116.29L361.617 117.168L362.439 121.667C362.439 121.667 363.805 118.255 366.429 119.559C369.054 120.863 373.854 118.884 373.854 118.884L378.025 126.956C378.025 126.956 378.886 124.127 380.42 124.881C380.42 124.881 384.339 118.64 379.745 115.811Z" fill="#2F2E41"/>
<path d="M393.33 201.521C393.089 200.932 392.98 200.297 393.01 199.661C393.041 199.025 393.211 198.403 393.507 197.84C393.804 197.277 394.221 196.785 394.728 196.401C395.235 196.016 395.821 195.747 396.443 195.613L398.323 180.251L404.45 185.461L401.725 199.25C401.881 200.311 401.643 201.392 401.055 202.288C400.467 203.185 399.571 203.835 398.536 204.114C397.501 204.394 396.4 204.285 395.441 203.807C394.481 203.329 393.73 202.516 393.33 201.521Z" fill="#FFB7B7"/>
<path d="M367.126 200.464C367.304 199.853 367.345 199.21 367.247 198.581C367.149 197.952 366.915 197.352 366.56 196.823C366.205 196.294 365.738 195.85 365.193 195.521C364.648 195.192 364.037 194.987 363.404 194.919L359.906 179.843L354.366 185.674L358.538 199.097C358.495 200.168 358.847 201.217 359.526 202.046C360.206 202.875 361.166 203.426 362.225 203.595C363.283 203.764 364.367 203.538 365.27 202.961C366.174 202.384 366.834 201.496 367.126 200.464H367.126Z" fill="#FFB7B7"/>
<path d="M393.567 142.561C393.567 142.561 399.917 140.119 401.871 147.446C403.825 154.772 406.267 169.426 406.267 169.426C406.388 177.574 405.955 177.574 406.267 185.544L404.802 192.871L396.498 191.894L396.86 173.243L392.59 154.284L393.567 142.561Z" fill="#2F2E41"/>
<path d="M358.443 148.201L355.433 148.523C355.433 148.523 352.582 150.643 352.582 155.528C352.582 160.412 352.093 175.066 352.093 175.066C352.093 175.066 351.816 175.409 354.047 187.765C355.135 193.788 357.014 196.63 357.014 196.63L363.077 191L362.351 176.531L364.305 168.716L358.443 148.201Z" fill="#2F2E41"/>
<path d="M449.516 294.904H0.483871C0.35554 294.904 0.232466 294.853 0.141722 294.762C0.0509787 294.671 0 294.548 0 294.42C0 294.292 0.0509787 294.169 0.141722 294.078C0.232466 293.987 0.35554 293.936 0.483871 293.936H449.516C449.644 293.936 449.768 293.987 449.858 294.078C449.949 294.169 450 294.292 450 294.42C450 294.548 449.949 294.671 449.858 294.762C449.768 294.853 449.644 294.904 449.516 294.904Z" fill="#3F3D56"/>
<path d="M111.605 151.08C117.491 151.08 122.263 146.308 122.263 140.422C122.263 134.535 117.491 129.763 111.605 129.763C105.718 129.763 100.946 134.535 100.946 140.422C100.946 146.308 105.718 151.08 111.605 151.08Z" fill="#FFB8B8"/>
<path d="M107.756 203.491C107.621 203.491 107.487 203.485 107.351 203.473C106.681 203.417 106.03 203.22 105.441 202.895C104.852 202.57 104.338 202.124 103.934 201.586C103.529 201.049 103.243 200.432 103.093 199.776C102.944 199.121 102.934 198.441 103.066 197.781C103.097 197.628 103.136 197.476 103.183 197.327L87.4518 178.722C86.9392 178.111 86.6372 177.351 86.5908 176.554C86.5443 175.758 86.7558 174.968 87.1938 174.302L87.2223 174.267L101.382 160.305C102.155 159.543 103.199 159.119 104.285 159.126C105.371 159.134 106.409 159.573 107.171 160.346C107.933 161.119 108.357 162.163 108.349 163.248C108.342 164.334 107.903 165.372 107.13 166.134C107.112 166.152 107.094 166.169 107.076 166.186L96.8206 175.936L108.048 193.956C108.261 193.967 108.472 193.993 108.681 194.034C109.843 194.265 110.876 194.92 111.582 195.872C112.287 196.823 112.614 198.002 112.499 199.181C112.383 200.36 111.834 201.453 110.958 202.25C110.081 203.046 108.94 203.488 107.756 203.491H107.756Z" fill="#FFB8B8"/>
<path d="M129.159 288.763H134.479L137.01 268.242L129.158 268.242L129.159 288.763Z" fill="#FFB8B8"/>
<path d="M127.803 287.026L138.28 287.025H138.281C140.052 287.025 141.75 287.729 143.002 288.981C144.254 290.233 144.958 291.931 144.958 293.702V293.919L127.803 293.92L127.803 287.026Z" fill="#2F2E41"/>
<path d="M76.2781 281.407L80.8497 284.129L93.5232 267.792L86.7766 263.774L76.2781 281.407Z" fill="#FFB8B8"/>
<path d="M76.0013 279.22L85.004 284.58L85.0043 284.58C86.5259 285.486 87.6252 286.96 88.0605 288.676C88.4958 290.393 88.2314 292.212 87.3255 293.733L87.3253 293.734L87.2143 293.92L72.4744 285.144L76.0013 279.22Z" fill="#2F2E41"/>
<path d="M135.735 281.515H129.777C129.295 281.515 128.829 281.337 128.471 281.015C128.112 280.692 127.886 280.248 127.835 279.768L121.829 223.311C121.814 223.169 121.753 223.036 121.654 222.932C121.556 222.828 121.426 222.76 121.285 222.737C121.144 222.715 120.999 222.739 120.873 222.807C120.748 222.874 120.647 222.982 120.589 223.112L109.753 247.104L90.5705 278.384C90.3222 278.785 89.9378 279.083 89.4877 279.224C89.0375 279.365 88.5517 279.338 88.1193 279.15L80.4558 275.779C80.2025 275.667 79.9757 275.503 79.7905 275.297C79.6054 275.091 79.4661 274.848 79.382 274.585C79.2978 274.321 79.2707 274.042 79.3024 273.767C79.3341 273.492 79.4239 273.227 79.5659 272.989L97.2003 243.462L102.609 218.584C100.908 207.795 108.2 191.755 108.274 191.593L108.31 191.515L128.396 183.664L128.497 183.788C136.418 209.783 141.245 237.758 137.681 279.725C137.637 280.212 137.414 280.665 137.054 280.996C136.694 281.327 136.224 281.512 135.735 281.515Z" fill="#2F2E41"/>
<path d="M107.5 194.144L107.406 193.947C107.361 193.853 102.895 184.433 99.452 174.365C98.7903 172.418 98.5401 170.355 98.7174 168.306C98.8946 166.258 99.4954 164.268 100.482 162.464C101.481 160.641 102.848 159.045 104.496 157.778C106.143 156.51 108.037 155.599 110.055 155.102C113.559 154.262 117.249 154.709 120.451 156.361C123.653 158.014 126.155 160.761 127.501 164.104C130.232 170.933 129.362 178.223 128.543 183.955L128.527 184.07L128.422 184.12L107.5 194.144Z" fill="#F9B9B8"/>
<path d="M124.527 134.401H107.603V127.024C111.317 125.548 114.952 124.293 117.15 127.024C119.106 127.024 120.983 127.801 122.366 129.184C123.75 130.568 124.527 132.444 124.527 134.401H124.527Z" fill="#2F2E41"/>
<path d="M106.666 125.722C96.5478 125.722 93.7158 138.404 93.7158 145.559C93.7158 149.549 95.5203 150.976 98.3559 151.459L99.3573 146.118L101.703 151.689C102.499 151.693 103.336 151.677 104.204 151.661L104.999 150.024L106.772 151.632C113.875 151.642 119.615 152.678 119.615 145.559C119.615 138.404 117.132 125.722 106.666 125.722Z" fill="#2F2E41"/>
<path d="M320.913 82.1944C313.795 72.6684 300.766 70.3693 294.292 75.2071C287.818 80.0448 286.331 93.1905 293.449 102.717C300.038 111.534 311.976 113.939 318.551 110.635C318.53 110.738 318.528 110.845 318.547 110.948L318.918 112.781C318.946 112.921 319.01 113.051 319.102 113.159C319.195 113.267 319.314 113.35 319.447 113.4C319.581 113.449 319.725 113.463 319.866 113.441C320.007 113.42 320.14 113.362 320.252 113.274L323.391 110.822C323.504 110.734 323.592 110.619 323.647 110.488C323.702 110.356 323.723 110.213 323.708 110.071C323.692 109.93 323.641 109.794 323.558 109.678C323.475 109.562 323.364 109.469 323.236 109.408L321.547 108.605C321.488 108.578 321.425 108.558 321.361 108.546C326.429 103.188 327.516 91.0311 320.913 82.1944Z" fill="#CCCCCC"/>
<path d="M305.341 78.5979C308.823 79.151 311.96 81.0198 314.104 83.8187C316.248 86.6176 317.236 90.1328 316.863 93.6388C316.787 94.4419 318.042 94.4366 318.118 93.6388C318.477 89.8599 317.394 86.085 315.086 83.0712C312.778 80.0574 309.416 78.0274 305.675 77.3884C304.885 77.2542 304.546 78.4626 305.341 78.5979Z" fill="white"/>
<path d="M394.482 20.7712C393.962 8.89067 384.489 -0.343843 376.415 0.00982816C368.34 0.363499 359.711 10.391 360.231 22.2714C360.713 33.2683 369.225 41.9761 376.519 42.9474C376.444 43.0207 376.383 43.1078 376.34 43.2039L375.614 44.9273C375.559 45.0587 375.538 45.202 375.554 45.3437C375.57 45.4853 375.621 45.6206 375.704 45.7367C375.787 45.8528 375.898 45.9459 376.026 46.007C376.155 46.0682 376.297 46.0954 376.44 46.0861L380.415 45.8264C380.557 45.8172 380.694 45.7717 380.814 45.6943C380.934 45.6169 381.032 45.5102 381.099 45.3844C381.165 45.2585 381.199 45.1176 381.196 44.9751C381.193 44.8326 381.154 44.6932 381.082 44.5701L380.139 42.9558C380.105 42.9003 380.064 42.849 380.018 42.8029C387.223 41.2278 394.965 31.7919 394.482 20.7712Z" fill="#F9B9B8"/>
<path d="M383.64 9.03304C386.206 11.4504 387.747 14.7609 387.943 18.2812C388.139 21.8014 386.977 25.2627 384.695 27.9506C384.18 28.5713 385.22 29.2733 385.732 28.6567C388.156 25.7356 389.386 22.0061 389.175 18.216C388.965 14.426 387.329 10.8557 384.596 8.22112C384.019 7.66572 383.058 8.47352 383.64 9.03304Z" fill="white"/>
<path d="M320.214 55.0689C317.102 54.8729 314.081 53.9421 311.397 52.3528C308.714 50.7635 306.446 48.561 304.779 45.9258C304.311 45.1788 303.701 44.3578 304.025 43.4383C304.138 43.0858 304.367 42.7818 304.674 42.5763C304.982 42.3707 305.351 42.2756 305.719 42.3066C306.673 42.4226 307.289 43.3557 307.406 44.2497C307.54 45.2639 306.824 46.06 305.941 46.4368C303.782 47.3576 301.604 45.9346 299.846 44.799C295.84 42.2113 291.433 39.8711 286.579 39.5762C282.087 39.3034 277.271 41.0646 274.772 44.9596C274.335 45.6411 275.42 46.2708 275.855 45.5927C278.333 41.7297 283.342 40.3423 287.697 40.9394C290.292 41.349 292.798 42.1998 295.107 43.4551C296.304 44.0763 297.465 44.7649 298.602 45.4889C299.685 46.2441 300.832 46.9018 302.031 47.4543C304.03 48.2755 306.676 48.2113 308.073 46.3206C309.375 44.5567 308.369 41.62 306.19 41.1241C305.712 41.0299 305.218 41.0557 304.752 41.1994C304.287 41.343 303.864 41.5999 303.522 41.947C303.18 42.2942 302.93 42.7207 302.794 43.1884C302.657 43.6561 302.639 44.1504 302.741 44.6268C302.958 45.6656 303.74 46.6821 304.346 47.5311C306.165 50.0902 308.535 52.2085 311.281 53.7301C314.027 55.2517 317.08 56.1379 320.214 56.3233C321.021 56.3632 321.019 55.1087 320.214 55.0689H320.214Z" fill="#CCCCCC"/>
<path d="M145.616 47.0831C151.84 36.9497 149.164 23.9935 142.277 19.764C135.391 15.5345 122.625 19.0077 116.402 29.1411C110.641 38.5209 112.816 50.5024 118.314 55.3925C118.21 55.4109 118.111 55.4489 118.022 55.5046L116.455 56.5259C116.336 56.6038 116.239 56.7109 116.172 56.837C116.106 56.9632 116.073 57.1042 116.076 57.2467C116.08 57.3892 116.12 57.5284 116.192 57.6512C116.264 57.774 116.367 57.8762 116.49 57.9481L119.928 59.9595C120.051 60.0315 120.191 60.0708 120.333 60.0738C120.476 60.0767 120.617 60.0432 120.743 59.9764C120.869 59.9096 120.975 59.8117 121.053 59.692C121.13 59.5724 121.176 59.4349 121.185 59.2926L121.308 57.4268C121.311 57.3618 121.306 57.2966 121.293 57.2326C128.144 59.9635 139.843 56.4832 145.616 47.0831Z" fill="#EADE7F"/>
<path d="M143.208 31.2851C143.98 34.7253 143.402 38.3305 141.593 41.3568C139.784 44.383 136.882 46.5991 133.486 47.5477C132.712 47.7733 133.18 48.9374 133.95 48.7134C137.594 47.6512 140.702 45.2506 142.65 41.993C144.599 38.7353 145.243 34.8614 144.455 31.1483C144.288 30.365 143.04 30.496 143.208 31.2851Z" fill="white"/>
<path d="M118.279 57.3108C116.547 59.9045 114.226 62.0509 111.505 63.5742C108.784 65.0974 105.741 65.9542 102.625 66.0741C101.744 66.1035 100.728 66.2192 100.095 65.4779C99.8462 65.2035 99.6982 64.853 99.6749 64.4836C99.6515 64.1142 99.7542 63.7478 99.966 63.4443C100.545 62.6775 101.661 62.6133 102.493 62.9603C103.437 63.3539 103.767 64.3723 103.65 65.3254C103.363 67.6546 101.039 68.8242 99.1747 69.7752C94.926 71.9421 90.6905 74.5794 87.9994 78.6306C85.5095 82.3788 84.6158 87.4288 86.7313 91.5444C87.1014 92.2644 88.1907 91.6417 87.8224 90.9252C85.7244 86.8436 87.0377 81.8148 89.7396 78.3473C91.3962 76.3079 93.3898 74.5672 95.6338 73.2005C96.7719 72.4769 97.9501 71.8182 99.1471 71.1975C100.344 70.6403 101.488 69.9779 102.568 69.2183C104.281 67.9011 105.554 65.5798 104.619 63.4231C103.747 61.4111 100.702 60.8083 99.1792 62.4442C98.8578 62.8104 98.6323 63.2506 98.5229 63.7253C98.4136 64.2001 98.4237 64.6945 98.5524 65.1644C98.6812 65.6343 98.9245 66.0649 99.2606 66.4176C99.5967 66.7702 100.015 67.034 100.478 67.1852C101.486 67.5184 102.758 67.352 103.796 67.2543C106.922 66.965 109.944 65.978 112.638 64.366C115.332 62.754 117.631 60.5582 119.364 57.9402C119.803 57.2623 118.717 56.6347 118.279 57.3108L118.279 57.3108Z" fill="#EADE7F"/>
<path d="M35.0581 171.845C33.0731 169.44 31.6862 166.599 31.0113 163.554C30.3363 160.51 30.3925 157.349 31.1752 154.33C31.4007 153.478 31.5826 152.472 32.4748 152.079C32.8091 151.92 33.1874 151.88 33.5479 151.964C33.9084 152.048 34.2297 152.251 34.4593 152.542C35.0268 153.317 34.7668 154.404 34.1948 155.101C33.546 155.892 32.4758 155.914 31.5969 155.527C29.449 154.582 28.9982 152.02 28.6246 149.96C27.7733 145.268 26.4677 140.452 23.3634 136.708C20.4912 133.244 15.9126 130.934 11.3622 131.774C10.566 131.921 10.8486 133.144 11.6408 132.997C16.1538 132.164 20.5911 134.87 23.1334 138.456C24.6092 140.63 25.702 143.04 26.3643 145.583C26.7296 146.881 27.0209 148.199 27.2705 149.524C27.4595 150.831 27.7641 152.117 28.1807 153.37C28.9485 155.39 30.8049 157.277 33.1394 157.004C35.3173 156.748 36.7717 154.005 35.6436 152.076C35.3856 151.663 35.029 151.32 34.6058 151.079C34.1827 150.837 33.7063 150.705 33.2192 150.693C32.7322 150.681 32.2498 150.79 31.8152 151.01C31.3807 151.23 31.0076 151.555 30.7293 151.955C30.1201 152.824 29.9132 154.089 29.7076 155.112C29.0842 158.189 29.1591 161.367 29.9267 164.411C30.6943 167.456 32.135 170.289 34.1429 172.703C34.6655 173.319 35.5794 172.459 35.0581 171.845L35.0581 171.845Z" fill="#F9B9B8"/>
</g>
<defs>
<clipPath id="clip0">
<rect width="450" height="295.1" fill="white"/>
</clipPath>
</defs>
</svg>
