<svg width="24" height="24" viewBox="0 0 24 24" fill="none" xmlns="http://www.w3.org/2000/svg">
<path d="M21.7425 9.68979C21.7425 9.57729 21.705 9.47229 21.6525 9.38229L21.1875 7.83729L21.18 7.82978L19.5 2.27979H4.5L2.8275 7.80729L2.82 7.81479L2.4975 8.89478L2.49 8.90229L2.3475 9.38229C2.295 9.47229 2.2575 9.57729 2.2575 9.68979L2.25 9.71229V9.74979C2.25 9.92229 2.31 10.0873 2.4225 10.2148C2.4375 10.2373 2.4525 10.2598 2.475 10.2823C2.61 10.4173 2.7975 10.4998 3 10.4998C3.135 10.4998 3.2625 10.4623 3.375 10.3948C3.6 10.2673 3.75 10.0198 3.75 9.74979C3.75 10.0198 3.9 10.2673 4.125 10.3948C4.2375 10.4623 4.365 10.4998 4.5 10.4998C4.9125 10.4998 5.25 10.1548 5.25 9.74979C5.25 10.1548 5.5875 10.4998 6 10.4998C6.4125 10.4998 6.75 10.1548 6.75 9.74979C6.75 10.1548 7.0875 10.4998 7.5 10.4998C7.9125 10.4998 8.25 10.1548 8.25 9.74979C8.25 10.1548 8.5875 10.4998 9 10.4998C9.4125 10.4998 9.75 10.1548 9.75 9.74979C9.75 10.1548 10.0875 10.4998 10.5 10.4998C10.9125 10.4998 11.25 10.1548 11.25 9.74979C11.25 10.1548 11.5875 10.4998 12 10.4998C12.4125 10.4998 12.75 10.1548 12.75 9.74979C12.75 10.1548 13.0875 10.4998 13.5 10.4998C13.9125 10.4998 14.25 10.1548 14.25 9.74979C14.25 10.1548 14.5875 10.4998 15 10.4998C15.4125 10.4998 15.75 10.1548 15.75 9.74979C15.75 10.1548 16.0875 10.4998 16.5 10.4998C16.9125 10.4998 17.25 10.1548 17.25 9.74979C17.25 10.1548 17.5875 10.4998 18 10.4998C18.4125 10.4998 18.75 10.1548 18.75 9.74979C18.75 10.1548 19.0875 10.4998 19.5 10.4998C19.635 10.4998 19.7625 10.4623 19.875 10.3948C20.1 10.2673 20.25 10.0198 20.25 9.74979C20.25 10.0198 20.4 10.2673 20.625 10.3948C20.7375 10.4623 20.865 10.4998 21 10.4998C21.2025 10.4998 21.39 10.4173 21.525 10.2823C21.66 10.1473 21.75 9.95229 21.75 9.74979V9.71229C21.75 9.70478 21.75 9.70479 21.7425 9.68979Z" fill="#ED6E7A"/>
<path d="M3.375 10.8075V22.4925H4.125V10.7925C3.9825 10.7475 3.855 10.68 3.75 10.5825C3.6375 10.68 3.5175 10.755 3.375 10.8075Z" fill="#ED6E7A"/>
<path d="M19.875 10.7925V18.3675H20.625V10.8075C20.4825 10.755 20.3625 10.68 20.25 10.5825C20.145 10.68 20.0175 10.7475 19.875 10.7925Z" fill="#ED6E7A"/>
<path d="M10.875 20.6172H10.5V22.4997H20.25V22.4922V20.6172H19.875H10.875Z" fill="#D34E5C"/>
<path d="M12.75 17.9996V18.3671H13.125H16.875H17.25V17.9996C17.25 17.0471 16.6725 16.2446 15.8475 15.9146C15.5925 16.0421 15.3075 16.1171 15 16.1171C14.6925 16.1171 14.4075 16.0421 14.1525 15.9146C13.3275 16.2446 12.75 17.0471 12.75 17.9996Z" fill="#168773"/>
<path d="M15 15.75C15.3 15.75 15.585 15.66 15.825 15.5025C16.23 15.2325 16.5 14.775 16.5 14.25C16.5 13.4175 15.825 12.75 15 12.75C14.175 12.75 13.5 13.4175 13.5 14.25C13.5 14.775 13.77 15.2325 14.175 15.5025C14.415 15.66 14.7 15.75 15 15.75Z" fill="#168773"/>
<path d="M17.625 18.75H12.375H10.5C10.0875 18.75 9.75 19.0875 9.75 19.5C9.75 19.77 9.9 20.0175 10.125 20.145C10.2375 20.2125 10.365 20.25 10.5 20.25H19.875H20.25V20.2425V19.8675V19.1175V18.75H19.875H17.625Z" fill="#D34E5C"/>
</svg>
