<svg width="23" height="24" viewBox="0 0 23 24" fill="none" xmlns="http://www.w3.org/2000/svg">
<path d="M20.5997 2.49609L12.4637 0.624087C12.2237 0.576087 11.9837 0.624087 11.7917 0.792087C11.5997 0.936087 11.5037 1.15209 11.5037 1.39209V2.47209H7.47169C7.03969 2.47209 6.67969 2.83209 6.67969 3.26409V8.59209C7.25569 8.66409 7.78369 8.80809 8.26369 9.07209V4.05609H11.5277V17.4481C12.1997 18.2161 12.6317 19.2001 12.7517 20.2801L12.8957 22.1521C12.9197 22.5841 12.8237 23.0401 12.6317 23.4241L20.5997 21.5521C20.9597 21.4561 21.2237 21.1441 21.2237 20.7841V3.26409C21.2237 2.88009 20.9837 2.56809 20.5997 2.49609ZM14.2877 12.8641C13.8317 12.8641 13.4477 12.4801 13.4477 12.0241C13.4477 11.5441 13.8317 11.1841 14.2877 11.1841C14.7677 11.1841 15.1277 11.5441 15.1277 12.0241C15.1277 12.5041 14.7677 12.8641 14.2877 12.8641Z" fill="#DDEBFD"/>
<path d="M8.84108 17.1841C8.07308 17.7121 7.13708 18.0241 6.12908 18.0241C5.12108 18.0241 4.18508 17.7121 3.41708 17.1841C2.12108 17.6881 1.08908 18.8881 0.921084 20.3761L0.777084 22.2481C0.729084 22.8001 1.16108 23.2561 1.71308 23.2561H10.5931C11.1451 23.2561 11.5771 22.8001 11.5291 22.2241L11.3851 20.3521C11.2171 18.8881 10.2091 17.6641 8.84108 17.1841Z" fill="#26447E"/>
<path d="M6.15353 16.6801C8.02246 16.6801 9.53753 15.165 9.53753 13.2961C9.53753 11.4272 8.02246 9.91211 6.15353 9.91211C4.2846 9.91211 2.76953 11.4272 2.76953 13.2961C2.76953 15.165 4.2846 16.6801 6.15353 16.6801Z" fill="#26447E"/>
</svg>
