<svg width="172" height="80" viewBox="0 0 172 80" fill="none" xmlns="http://www.w3.org/2000/svg">
<path d="M34.0151 36.4924L66.7932 22.1263V63.4826L34.0151 77.0729V36.4924Z" fill="#EEA7A7"/>
<path d="M1.04248 21.7591L34.0156 36.5152L34.0122 77.0654L1.04248 63.5043V21.7591Z" fill="#F8B8B7"/>
<path d="M1.11768 21.7885L34.0202 36.4932L66.7606 22.1583L34.2646 10.5258L1.11768 21.7885Z" fill="#F8D5CF"/>
<path d="M63.6255 40.2871L61.4375 42.3499C59.8637 40.8092 58.1363 39.6441 56.2554 38.8546C54.3872 38.0525 52.5639 37.6514 50.7853 37.6514C48.5717 37.6514 46.4604 38.1925 44.4516 39.2748C42.4555 40.3571 40.9072 41.8278 39.8068 43.6868C38.7064 45.5331 38.1562 47.4876 38.1562 49.5504C38.1562 51.664 38.7256 53.6759 39.8644 55.5858C41.0032 57.483 42.577 58.9791 44.5859 60.0742C46.5948 61.1565 48.7956 61.6976 51.1884 61.6976C54.0929 61.6976 56.5497 60.8827 58.5585 59.2529C60.5674 57.6231 61.7574 55.5094 62.1285 52.9119H53.1269V50.1997H65.2953C65.2698 54.5417 63.971 57.9923 61.3991 60.5517C58.84 63.0983 55.4109 64.3716 51.1116 64.3716C45.891 64.3716 41.7581 62.6017 38.7128 59.0619C36.3712 56.337 35.2004 53.1856 35.2004 49.6077C35.2004 46.9465 35.8722 44.4699 37.2157 42.178C38.5592 39.886 40.4018 38.097 42.7434 36.811C45.0849 35.5122 47.7336 34.8629 50.6893 34.8629C53.0821 34.8629 55.3341 35.2958 57.4453 36.1616C59.5566 37.0147 61.6167 38.3899 63.6255 40.2871Z" fill="white"/>
<path d="M71.1686 34.328C71.7828 34.328 72.3074 34.5445 72.7425 34.9774C73.1775 35.4103 73.3951 35.9324 73.3951 36.5435C73.3951 37.142 73.1775 37.6577 72.7425 38.0906C72.3074 38.5235 71.7828 38.74 71.1686 38.74C70.5673 38.74 70.049 38.5235 69.614 38.0906C69.1789 37.6577 68.9614 37.142 68.9614 36.5435C68.9614 35.9324 69.1789 35.4103 69.614 34.9774C70.049 34.5445 70.5673 34.328 71.1686 34.328ZM69.8251 42.8846H72.5314V63.6648H69.8251V42.8846Z" fill="#F4C9C6"/>
<path d="M86.6959 34.8628V37.4794C85.7107 37.0592 84.8662 36.8491 84.1624 36.8491C83.6378 36.8491 83.2028 36.9574 82.8573 37.1738C82.5118 37.3776 82.2943 37.6195 82.2047 37.8996C82.1152 38.167 82.0704 38.8928 82.0704 40.0769V42.8846H86.4272V45.1765H82.0512V63.6648H79.3641V45.1765H76.6195V42.8846H79.3641V39.6377C79.3641 38.1479 79.4985 37.0847 79.7672 36.448C80.0487 35.8114 80.5157 35.3021 81.1683 34.9201C81.8337 34.5254 82.6334 34.328 83.5674 34.328C84.4375 34.328 85.4804 34.5063 86.6959 34.8628Z" fill="#F4C9C6"/>
<path d="M92.7994 35.1684H95.5056V42.8846H99.7665V45.1765H95.5056V63.6648H92.7994V45.1765H89.1335V42.8846H92.7994V35.1684Z" fill="#F4C9C6"/>
<path d="M113.662 42.3498C116.874 42.3498 119.535 43.5085 121.647 45.8259C123.566 47.9396 124.526 50.4416 124.526 53.332C124.526 56.2351 123.508 58.7754 121.474 60.9527C119.452 63.1173 116.848 64.1996 113.662 64.1996C110.463 64.1996 107.847 63.1173 105.812 60.9527C103.791 58.7754 102.78 56.2351 102.78 53.332C102.78 50.4543 103.739 47.9587 105.659 45.845C107.77 43.5149 110.438 42.3498 113.662 42.3498ZM113.662 44.9664C111.436 44.9664 109.523 45.7877 107.924 47.4303C106.324 49.0728 105.524 51.0592 105.524 53.3893C105.524 54.8918 105.889 56.2924 106.618 57.5912C107.348 58.8899 108.333 59.8959 109.574 60.6089C110.815 61.3092 112.178 61.6594 113.662 61.6594C115.147 61.6594 116.509 61.3092 117.75 60.6089C118.992 59.8959 119.977 58.8899 120.706 57.5912C121.436 56.2924 121.8 54.8918 121.8 53.3893C121.8 51.0592 120.994 49.0728 119.382 47.4303C117.782 45.7877 115.876 44.9664 113.662 44.9664Z" fill="#F4C9C6"/>
<path d="M129.535 42.8846H132.222V46.609C133.297 45.1829 134.487 44.1197 135.792 43.4194C137.097 42.7063 138.518 42.3498 140.053 42.3498C141.614 42.3498 142.996 42.7445 144.199 43.534C145.414 44.3234 146.31 45.3866 146.886 46.7236C147.462 48.0605 147.749 50.1424 147.749 52.9691V63.6648H145.082V53.7522C145.082 51.3584 144.979 49.7604 144.774 48.9582C144.455 47.583 143.853 46.5517 142.97 45.8641C142.087 45.1638 140.936 44.8136 139.516 44.8136C137.891 44.8136 136.432 45.3484 135.14 46.418C133.86 47.4876 133.015 48.8118 132.606 50.3907C132.35 51.422 132.222 53.3065 132.222 56.0441V63.6648H129.535V42.8846Z" fill="#F4C9C6"/>
<path d="M153.527 42.8846H156.214V46.609C157.288 45.1829 158.478 44.1197 159.784 43.4194C161.089 42.7063 162.509 42.3498 164.044 42.3498C165.605 42.3498 166.987 42.7445 168.19 43.534C169.406 44.3234 170.301 45.3866 170.877 46.7236C171.453 48.0605 171.741 50.1424 171.741 52.9691V63.6648H169.073V53.7522C169.073 51.3584 168.971 49.7604 168.766 48.9582C168.446 47.583 167.845 46.5517 166.962 45.8641C166.079 45.1638 164.927 44.8136 163.507 44.8136C161.882 44.8136 160.423 45.3484 159.131 46.418C157.851 47.4876 157.007 48.8118 156.597 50.3907C156.342 51.422 156.214 53.3065 156.214 56.0441V63.6648H153.527V42.8846Z" fill="#F4C9C6"/>
<path d="M39.2724 5.81248C39.2724 5.81248 33.7012 10.1485 33.7012 22.1616C33.7012 22.1616 47.4862 22.3748 47.7008 11.4995C47.7008 11.4995 47.4773 3.94458 43.3937 3.94458C42.3128 3.94458 40.9617 4.47374 39.2724 5.81248ZM34.7725 20.9353C34.7725 14.0912 37.9469 11.6205 37.9469 11.6205C42.5466 7.97495 42.7492 14.8596 42.7492 14.8596C42.6326 20.8229 35.3539 20.9353 34.8051 20.9353C34.7837 20.9353 34.7725 20.9353 34.7725 20.9353Z" fill="url(#paint0_radial)"/>
<path d="M6.04159 17.7305C6.04159 17.7305 2.44788 16.8982 1.45746 17.9859C1.45746 17.9859 8.96963 28.3804 38.5931 22.2961C38.5931 22.2961 8.76931 25.4833 0 6.74574C0 6.74574 0.975359 13.8667 6.04159 17.7305Z" fill="url(#paint1_radial)"/>
<path d="M16.7129 9.53771C16.983 23.2655 34.3854 22.9964 34.3854 22.9964C34.3854 7.83306 27.3531 2.35901 27.3531 2.35901C25.2205 0.66851 23.5139 -2.86102e-05 22.1493 -2.86102e-05C16.9941 -0.000583649 16.7129 9.53771 16.7129 9.53771ZM22.9637 13.7785C22.9637 13.7785 23.2193 5.08729 29.0251 9.68875C29.0251 9.68875 33.0334 12.8085 33.0334 21.4486C33.0334 21.4486 33.0195 21.4489 32.9924 21.4489C32.3002 21.4489 23.1102 21.3073 22.9637 13.7785Z" fill="url(#paint2_radial)"/>
<path d="M25.8354 22.7222C59.624 25.6662 66.6323 13.1173 66.6323 13.1173C65.388 12.0337 61.4936 13.4266 61.4936 13.4266C66.6323 8.46781 66.7872 0.411783 66.7872 0.411783C59.4681 22.4143 25.8354 22.7222 25.8354 22.7222Z" fill="url(#paint3_radial)"/>
<path d="M70.167 69.2157V79.6288H74.9777V78.7562H71.0444V69.2157H70.167Z" fill="url(#paint4_radial)"/>
<path d="M76.6758 71.1288C76.5341 71.2679 76.4626 71.437 76.4626 71.6336C76.4626 71.8354 76.5341 72.0056 76.6758 72.1452C76.8186 72.2846 76.9891 72.3551 77.1872 72.3551C77.3844 72.3551 77.5552 72.2846 77.6977 72.1452C77.8406 72.0056 77.9115 71.8354 77.9115 71.6336C77.9115 71.437 77.8406 71.2679 77.6977 71.1288C77.5552 70.9897 77.3844 70.9198 77.1872 70.9198C76.9891 70.9198 76.8186 70.9897 76.6758 71.1288ZM76.7458 79.6288H77.6216V73.125H76.7458V79.6288Z" fill="url(#paint5_radial)"/>
<path d="M84.7233 73.125L82.4182 78.0827L80.1199 73.125H79.1191L82.4182 80L85.7246 73.125H84.7233Z" fill="url(#paint6_radial)"/>
<path d="M87.6188 73.6226C86.9076 74.3291 86.5527 75.182 86.5527 76.1804C86.5527 77.1835 86.9076 78.0388 87.6188 78.7457C88.3296 79.4542 89.187 79.8071 90.1897 79.8071C91.1983 79.8071 92.0581 79.4525 92.7712 78.7429C92.9143 78.6008 93.0815 78.395 93.2754 78.1243L92.3845 77.8087C92.2791 77.9358 92.1917 78.0347 92.1226 78.1032C91.5888 78.6302 90.9449 78.8939 90.1897 78.8939C89.4905 78.8939 88.9247 78.6985 88.492 78.3092L92.4467 74.3749L92.9779 73.8455C92.8778 73.735 92.8078 73.6598 92.7712 73.6184C92.6655 73.514 92.5597 73.4171 92.454 73.3308C91.8056 72.8177 91.0507 72.5614 90.1897 72.5614C89.187 72.5614 88.3296 72.9146 87.6188 73.6226ZM87.4639 76.1804C87.4639 75.4291 87.7309 74.79 88.2644 74.2611C88.7978 73.7319 89.44 73.4679 90.1897 73.4679C90.8113 73.4679 91.3107 73.6123 91.6879 73.9002L87.8992 77.671C87.6087 77.2959 87.4639 76.7987 87.4639 76.1804Z" fill="url(#paint7_radial)"/>
<path d="M100.675 70.48V73.125H99.4043V73.9898H100.675V79.6288H101.551V73.9898H102.821V73.125H101.551V70.48H100.675Z" fill="url(#paint8_radial)"/>
<path d="M104.477 69.2157V79.6288H105.354V74.574C105.423 74.4321 105.533 74.2833 105.685 74.1275C106.039 73.7885 106.458 73.6184 106.941 73.6184C107.425 73.6184 107.841 73.7902 108.193 74.1339C108.545 74.4776 108.722 74.8921 108.722 75.3769V79.6288H109.598V75.3219C109.585 74.5848 109.333 73.9715 108.843 73.4812C108.352 72.9923 107.719 72.7466 106.941 72.7466C106.223 72.7466 105.694 72.9115 105.354 73.2413V69.2157H104.477Z" fill="url(#paint9_radial)"/>
<path d="M112.321 73.6226C111.61 74.3291 111.254 75.182 111.254 76.1804C111.254 77.1835 111.61 78.0388 112.321 78.7457C113.032 79.4542 113.889 79.8071 114.892 79.8071C115.9 79.8071 116.76 79.4525 117.473 78.7429C117.617 78.6008 117.784 78.395 117.978 78.1243L117.087 77.8087C116.981 77.9358 116.894 78.0347 116.825 78.1032C116.291 78.6302 115.647 78.8939 114.892 78.8939C114.192 78.8939 113.627 78.6985 113.195 78.3092L117.149 74.3749L117.68 73.8455C117.58 73.735 117.511 73.6598 117.473 73.6184C117.368 73.514 117.262 73.4171 117.156 73.3308C116.508 72.8177 115.752 72.5614 114.892 72.5614C113.889 72.5614 113.032 72.9146 112.321 73.6226ZM112.166 76.1804C112.166 75.4291 112.433 74.79 112.967 74.2611C113.5 73.7319 114.142 73.4679 114.892 73.4679C115.514 73.4679 116.013 73.6123 116.391 73.9002L112.6 77.671C112.311 77.2959 112.166 76.7987 112.166 76.1804Z" fill="url(#paint10_radial)"/>
<path d="M132.976 69.2157L129.256 75.637L125.522 69.2157H124.521L124.658 69.4486V79.6288H125.528V70.9611L129.256 77.3622L132.969 70.9611V79.6288H133.845V69.4486L133.977 69.2157H132.976Z" fill="url(#paint11_radial)"/>
<path d="M136.699 73.6226C135.988 74.3291 135.632 75.1851 135.632 76.1881C135.632 77.186 135.988 78.0388 136.699 78.7457C137.41 79.4542 138.267 79.8071 139.27 79.8071C140.278 79.8071 141.136 79.4542 141.845 78.7457C142.553 78.0388 142.907 77.186 142.907 76.1881C142.907 75.1851 142.553 74.3291 141.845 73.6226C141.136 72.9146 140.278 72.5614 139.27 72.5614C138.267 72.5614 137.41 72.9146 136.699 73.6226ZM137.338 78.1032C136.804 77.5777 136.537 76.9389 136.537 76.1881C136.537 75.4369 136.804 74.7961 137.338 74.2642C137.872 73.7328 138.515 73.4679 139.27 73.4679C140.025 73.4679 140.669 73.7328 141.203 74.2642C141.737 74.7961 142.004 75.4369 142.004 76.1881C142.004 76.9389 141.737 77.5777 141.203 78.1032C140.669 78.6302 140.025 78.8939 139.27 78.8939C138.515 78.8939 137.872 78.6302 137.338 78.1032Z" fill="url(#paint12_radial)"/>
<path d="M148.277 73.3366L148.125 73.4812L147.98 73.3366C147.59 72.9479 147.117 72.7532 146.566 72.7532C146.027 72.7532 145.653 72.8557 145.44 73.0623V73.125H144.564V79.6288H145.44V74.6423C145.463 74.3718 145.574 74.1431 145.772 73.9551C145.988 73.735 146.253 73.6256 146.566 73.6256C146.874 73.6256 147.141 73.735 147.366 73.9551C147.568 74.1564 147.675 74.3516 147.684 74.5398H147.69V79.6288H148.56V74.7797C148.56 74.4501 148.672 74.1753 148.895 73.9551C149.117 73.735 149.383 73.6256 149.693 73.6256C150.005 73.6256 150.272 73.735 150.493 73.9551C150.7 74.1564 150.808 74.3516 150.817 74.5398V79.6288H151.693V74.6836C151.676 74.1564 151.48 73.7077 151.107 73.3366C150.721 72.9479 150.248 72.7532 149.693 72.7532C149.14 72.7532 148.668 72.9479 148.277 73.3366Z" fill="url(#paint13_radial)"/>
<path d="M154.417 73.6226C153.706 74.3291 153.35 75.182 153.35 76.1804C153.35 77.1835 153.706 78.0388 154.417 78.7457C155.127 79.4542 155.984 79.8071 156.987 79.8071C157.995 79.8071 158.856 79.4525 159.568 78.7429C159.712 78.6008 159.879 78.395 160.073 78.1243L159.182 77.8087C159.076 77.9358 158.989 78.0347 158.92 78.1032C158.387 78.6302 157.742 78.8939 156.987 78.8939C156.288 78.8939 155.722 78.6985 155.289 78.3092L159.244 74.3749L159.776 73.8455C159.675 73.735 159.605 73.6598 159.568 73.6184C159.463 73.514 159.357 73.4171 159.251 73.3308C158.603 72.8177 157.848 72.5614 156.987 72.5614C155.984 72.5614 155.127 72.9146 154.417 73.6226ZM154.261 76.1804C154.261 75.4291 154.528 74.79 155.062 74.2611C155.596 73.7319 156.237 73.4679 156.987 73.4679C157.609 73.4679 158.108 73.6123 158.485 73.9002L154.696 77.671C154.406 77.2959 154.261 76.7987 154.261 76.1804Z" fill="url(#paint14_radial)"/>
<path d="M162.605 73.3099V73.125H161.729V79.6288H162.605V74.6903C162.684 74.507 162.82 74.3191 163.013 74.1275C163.367 73.7885 163.786 73.6184 164.269 73.6184C164.752 73.6184 165.171 73.7902 165.525 74.1339C165.879 74.4776 166.057 74.8921 166.057 75.3769V79.6288H166.926V75.3219C166.912 74.5848 166.66 73.9715 166.17 73.4812C165.681 72.9923 165.047 72.7466 164.269 72.7466C163.538 72.7466 162.983 72.9345 162.605 73.3099Z" fill="url(#paint15_radial)"/>
<path d="M169.853 70.48V73.125H168.583V73.9898H169.853V79.6288H170.729V73.9898H172V73.125H170.729V70.48H169.853Z" fill="url(#paint16_radial)"/>
<defs>
<radialGradient id="paint0_radial" cx="0" cy="0" r="1" gradientUnits="userSpaceOnUse" gradientTransform="translate(40.7009 13.0532) scale(20.719 20.6179)">
<stop stop-color="#EADD7F"/>
<stop offset="0.99677" stop-color="#896E4B"/>
<stop offset="1" stop-color="#896E4B"/>
</radialGradient>
<radialGradient id="paint1_radial" cx="0" cy="0" r="1" gradientUnits="userSpaceOnUse" gradientTransform="translate(11.1099 18.9229) scale(20.4526 20.3528)">
<stop stop-color="#EADD7F"/>
<stop offset="0.99677" stop-color="#896E4B"/>
<stop offset="1" stop-color="#896E4B"/>
</radialGradient>
<radialGradient id="paint2_radial" cx="0" cy="0" r="1" gradientUnits="userSpaceOnUse" gradientTransform="translate(27.3381 17.4325) rotate(-98.0134) scale(22.5053 22.6114)">
<stop stop-color="#EADD7F"/>
<stop offset="0.99677" stop-color="#896E4B"/>
<stop offset="1" stop-color="#896E4B"/>
</radialGradient>
<radialGradient id="paint3_radial" cx="0" cy="0" r="1" gradientUnits="userSpaceOnUse" gradientTransform="translate(44.3537 19.8616) scale(27.9958 27.8592)">
<stop stop-color="#EADD7F"/>
<stop offset="0.99677" stop-color="#896E4B"/>
<stop offset="1" stop-color="#896E4B"/>
</radialGradient>
<radialGradient id="paint4_radial" cx="0" cy="0" r="1" gradientUnits="userSpaceOnUse" gradientTransform="translate(72.5724 74.4221) scale(4.07193 4.05204)">
<stop stop-color="#EADD7F"/>
<stop offset="0.99677" stop-color="#896E4B"/>
<stop offset="1" stop-color="#896E4B"/>
</radialGradient>
<radialGradient id="paint5_radial" cx="0" cy="0" r="1" gradientUnits="userSpaceOnUse" gradientTransform="translate(77.1871 75.2743) scale(3.13632 3.12101)">
<stop stop-color="#EADD7F"/>
<stop offset="0.99677" stop-color="#896E4B"/>
<stop offset="1" stop-color="#896E4B"/>
</radialGradient>
<radialGradient id="paint6_radial" cx="0" cy="0" r="1" gradientUnits="userSpaceOnUse" gradientTransform="translate(82.422 76.5624) scale(3.37929 3.36279)">
<stop stop-color="#EADD7F"/>
<stop offset="0.99677" stop-color="#896E4B"/>
<stop offset="1" stop-color="#896E4B"/>
</radialGradient>
<radialGradient id="paint7_radial" cx="0" cy="0" r="1" gradientUnits="userSpaceOnUse" gradientTransform="translate(89.9143 76.1845) scale(3.50368 3.48658)">
<stop stop-color="#EADD7F"/>
<stop offset="0.99677" stop-color="#896E4B"/>
<stop offset="1" stop-color="#896E4B"/>
</radialGradient>
<radialGradient id="paint8_radial" cx="0" cy="0" r="1" gradientUnits="userSpaceOnUse" gradientTransform="translate(101.113 75.0544) scale(3.46765 3.45072)">
<stop stop-color="#EADD7F"/>
<stop offset="0.99677" stop-color="#896E4B"/>
<stop offset="1" stop-color="#896E4B"/>
</radialGradient>
<radialGradient id="paint9_radial" cx="0" cy="0" r="1" gradientUnits="userSpaceOnUse" gradientTransform="translate(107.038 74.4221) scale(4.119 4.09889)">
<stop stop-color="#EADD7F"/>
<stop offset="0.99677" stop-color="#896E4B"/>
<stop offset="1" stop-color="#896E4B"/>
</radialGradient>
<radialGradient id="paint10_radial" cx="0" cy="0" r="1" gradientUnits="userSpaceOnUse" gradientTransform="translate(114.616 76.1845) scale(3.50382 3.48671)">
<stop stop-color="#EADD7F"/>
<stop offset="0.99677" stop-color="#896E4B"/>
<stop offset="1" stop-color="#896E4B"/>
</radialGradient>
<radialGradient id="paint11_radial" cx="0" cy="0" r="1" gradientUnits="userSpaceOnUse" gradientTransform="translate(129.249 74.4221) scale(4.98656 4.96222)">
<stop stop-color="#EADD7F"/>
<stop offset="0.99677" stop-color="#896E4B"/>
<stop offset="1" stop-color="#896E4B"/>
</radialGradient>
<radialGradient id="paint12_radial" cx="0" cy="0" r="1" gradientUnits="userSpaceOnUse" gradientTransform="translate(139.27 76.1845) scale(3.63904 3.62127)">
<stop stop-color="#EADD7F"/>
<stop offset="0.99677" stop-color="#896E4B"/>
<stop offset="1" stop-color="#896E4B"/>
</radialGradient>
<radialGradient id="paint13_radial" cx="0" cy="0" r="1" gradientUnits="userSpaceOnUse" gradientTransform="translate(148.129 76.1909) scale(3.51005 3.49291)">
<stop stop-color="#EADD7F"/>
<stop offset="0.99677" stop-color="#896E4B"/>
<stop offset="1" stop-color="#896E4B"/>
</radialGradient>
<radialGradient id="paint14_radial" cx="0" cy="0" r="1" gradientUnits="userSpaceOnUse" gradientTransform="translate(156.711 76.1845) scale(3.50381 3.48671)">
<stop stop-color="#EADD7F"/>
<stop offset="0.99677" stop-color="#896E4B"/>
<stop offset="1" stop-color="#896E4B"/>
</radialGradient>
<radialGradient id="paint15_radial" cx="0" cy="0" r="1" gradientUnits="userSpaceOnUse" gradientTransform="translate(164.328 76.1877) scale(3.05865 3.04372)">
<stop stop-color="#EADD7F"/>
<stop offset="0.99677" stop-color="#896E4B"/>
<stop offset="1" stop-color="#896E4B"/>
</radialGradient>
<radialGradient id="paint16_radial" cx="0" cy="0" r="1" gradientUnits="userSpaceOnUse" gradientTransform="translate(170.291 75.0544) scale(3.46772 3.45079)">
<stop stop-color="#EADD7F"/>
<stop offset="0.99677" stop-color="#896E4B"/>
<stop offset="1" stop-color="#896E4B"/>
</radialGradient>
</defs>
</svg>
