<svg width="20" height="20" viewBox="0 0 20 20" fill="none" xmlns="http://www.w3.org/2000/svg">
<path fill-rule="evenodd" clip-rule="evenodd" d="M10 0C4.4772 0 0 4.4772 0 10C0 15.5228 4.4772 20 10 20C15.5228 20 20 15.5228 20 10C20 4.4772 15.5228 0 10 0ZM10 1.36364C5.23031 1.36364 1.36364 5.23031 1.36364 10C1.36364 14.7697 5.23031 18.6364 10 18.6364C14.7697 18.6364 18.6364 14.7697 18.6364 10C18.6364 5.23031 14.7697 1.36364 10 1.36364Z" fill="#B76E79"/>
<path d="M10.682 8.86346C10.682 8.4869 10.3767 8.18164 10.0002 8.18164C9.62362 8.18164 9.31836 8.4869 9.31836 8.86346V12.9544C9.31836 13.3309 9.62362 13.6362 10.0002 13.6362C10.3767 13.6362 10.682 13.3309 10.682 12.9544V8.86346Z" fill="#B76E79"/>
<path d="M10.0009 7.27326C10.503 7.27326 10.91 6.86625 10.91 6.36417C10.91 5.86209 10.503 5.45508 10.0009 5.45508C9.49881 5.45508 9.0918 5.86209 9.0918 6.36417C9.0918 6.86625 9.49881 7.27326 10.0009 7.27326Z" fill="#B76E79"/>
</svg>
