<svg width="14" height="14" viewBox="0 0 14 14" fill="none" xmlns="http://www.w3.org/2000/svg">
<path fill-rule="evenodd" clip-rule="evenodd" d="M7 0C3.13404 0 0 3.13404 0 7C0 10.866 3.13404 14 7 14C10.866 14 14 10.866 14 7C14 3.13404 10.866 0 7 0ZM7 0.954545C3.66122 0.954545 0.954545 3.66122 0.954545 7C0.954545 10.3388 3.66122 13.0455 7 13.0455C10.3388 13.0455 13.0455 10.3388 13.0455 7C13.0455 3.66122 10.3388 0.954545 7 0.954545Z" fill="#505565"/>
<path d="M7.47749 6.20454C7.47749 5.94095 7.26381 5.72727 7.00022 5.72727C6.73663 5.72727 6.52295 5.94095 6.52295 6.20454V9.06818C6.52295 9.33177 6.73663 9.54545 7.00022 9.54545C7.26381 9.54545 7.47749 9.33177 7.47749 9.06818V6.20454Z" fill="#505565"/>
<path d="M7.00013 5.09091C7.35159 5.09091 7.6365 4.806 7.6365 4.45455C7.6365 4.10309 7.35159 3.81818 7.00013 3.81818C6.64868 3.81818 6.36377 4.10309 6.36377 4.45455C6.36377 4.806 6.64868 5.09091 7.00013 5.09091Z" fill="#505565"/>
</svg>
