<svg width="178" height="178" viewBox="0 0 178 178" fill="none" xmlns="http://www.w3.org/2000/svg">
<circle opacity="0.1" cx="89" cy="89" r="89" fill="#B76E79"/>
<circle opacity="0.2" cx="89" cy="89" r="60" fill="#B76E79"/>
<circle cx="89" cy="89" r="40" fill="#B76E79"/>
<g clip-path="url(#clip0_400_40893)">
<path d="M102.075 81.4612C102.075 79.4869 105 79.4869 105 81.4612V85.2305C105 94.0253 98.6344 101.205 90.5484 101.923V109.641C91.7527 110.179 92.7849 111.077 93.4731 112.333H98.2903C99.4946 112.333 100.527 113.41 100.527 114.666V117H77.4731V114.666C77.4731 113.41 78.5054 112.333 79.8817 112.333H84.6989C85.2151 111.077 86.2473 110.179 87.6237 109.641V101.923C79.3656 101.205 73 94.0253 73 85.2305V81.4612C73 79.4869 75.9247 79.4869 75.9247 81.4612V85.2305C75.9247 92.7689 81.7742 99.051 89 99.051C96.2258 99.051 102.075 92.7689 102.075 85.2305V81.4612Z" fill="white"/>
<path d="M88.9999 61C93.8171 61 97.7741 65.1282 97.7741 70.1538V85.2308C97.7741 90.2564 93.8171 94.3846 88.9999 94.3846C84.1827 94.3846 80.2257 90.2564 80.2257 85.2308V70.1538C80.2257 65.1282 84.1827 61 88.9999 61ZM88.9999 64.0513C85.9032 64.0513 83.1505 66.7436 83.1505 70.1538V85.2308C83.1505 88.641 85.9032 91.3333 88.9999 91.3333C92.2688 91.3333 94.8494 88.641 94.8494 85.2308V70.1538C94.8494 66.7436 92.2688 64.0513 88.9999 64.0513Z" fill="white"/>
</g>
<defs>
<clipPath id="clip0_400_40893">
<rect width="32" height="56" fill="white" transform="translate(73 61)"/>
</clipPath>
</defs>
</svg>
