<svg width="24" height="24" viewBox="0 0 24 24" fill="none" xmlns="http://www.w3.org/2000/svg">
<path d="M18.5625 2.76562C18.5625 1.49531 17.5359 0.46875 16.2656 0.46875H7.73438C6.46406 0.46875 5.4375 1.49531 5.4375 2.76562V21.2344C5.4375 22.5047 6.46406 23.5312 7.73438 23.5312H16.2656C17.5359 23.5312 18.5625 22.5047 18.5625 21.2344V2.76562ZM6.28125 4.40625H17.7188V18.3281H6.28125V4.40625ZM16.2703 22.6875H7.72969C6.92812 22.6875 6.28125 22.0266 6.28125 21.225V19.1719H17.7188V21.225C17.7188 22.0266 17.0719 22.6875 16.2703 22.6875ZM17.7188 2.775V3.5625H6.28125V2.775C6.28125 1.97344 6.92812 1.3125 7.72969 1.3125H16.2703C17.0719 1.3125 17.7188 1.97344 17.7188 2.775Z" fill="white"/>
<path d="M13.1437 20.5312H10.8562C10.6218 20.5312 10.4343 20.7188 10.4343 20.9531C10.4343 21.1875 10.6218 21.375 10.8562 21.375H13.1437C13.3781 21.375 13.5656 21.1875 13.5656 20.9531C13.5656 20.7188 13.3781 20.5312 13.1437 20.5312Z" fill="white"/>
</svg>
