<svg width="60" height="60" viewBox="0 0 60 60" fill="none" xmlns="http://www.w3.org/2000/svg">
<path d="M7.05761 7.20001C6.77084 7.20001 6.57965 7.39211 6.57965 7.68027V9.31238L6.10168 9.69695C5.24134 10.2733 4.66778 11.2349 4.66778 12.2914V13.0587H4.18982C3.90304 13.0587 3.71185 13.2508 3.71185 13.539C3.71185 13.8271 3.90304 14.0192 4.18982 14.0192H4.66778V15.3643V18.8218H4.18982C3.90304 18.8218 3.71185 19.0139 3.71185 19.302V25.5453H2.27795C1.99117 25.5453 1.79999 25.7374 1.79999 26.0256V28.9071C1.79999 29.1952 1.99117 29.3873 2.27795 29.3873H3.71185V52.4395H2.27795C1.99117 52.4395 1.79999 52.6316 1.79999 52.9198C1.79999 53.2079 1.99117 53.4 2.27795 53.4H4.18982H9.92541H19.4847H25.2203H34.7796H40.5152H50.0746H55.8102H57.722C58.0088 53.4 58.2 53.2079 58.2 52.9198C58.2 52.6316 58.0088 52.4395 57.722 52.4395H56.2881V29.3873H57.722V29.2917C58.0088 29.2917 58.2 29.0996 58.2 28.8114V25.9299C58.2 25.6417 58.0088 25.4496 57.722 25.4496H56.2881V19.2063C56.2881 18.9182 56.0969 18.7261 55.8102 18.7261H55.3322V15.2686V13.9236H55.8102C56.0969 13.9236 56.2881 13.7315 56.2881 13.4433C56.2881 13.1552 56.0969 12.9631 55.8102 12.9631H55.3322V12.1939C55.3322 11.1373 54.8542 10.1776 53.8983 9.60128L53.4203 9.31238V7.68027C53.4203 7.39211 53.2291 7.20001 52.9424 7.20001C52.6556 7.20001 52.4644 7.39211 52.4644 7.68027V9.31238L51.9864 9.69695C51.1261 10.2733 50.5525 11.2349 50.5525 12.2914V13.0587H50.0746C49.7878 13.0587 49.5966 13.2508 49.5966 13.539C49.5966 13.8271 49.7878 14.0192 50.0746 14.0192H50.5525V15.3643V15.8446C50.4569 15.8446 50.4577 15.7489 50.3621 15.7489L50.0746 15.3643V14.8841C50.0746 14.5959 49.8834 14.4038 49.5966 14.4038C49.3098 14.4038 49.1186 14.5959 49.1186 14.8841V15.3643L48.7359 15.5557C48.4491 15.7478 48.2583 15.9414 48.1627 16.1335C47.9715 15.9414 47.7811 15.6517 47.4943 15.5557L47.2068 15.3643V14.8841C47.2068 14.5959 47.0156 14.4038 46.7288 14.4038C46.442 14.4038 46.2508 14.5959 46.2508 14.8841V15.3643L45.8681 15.5557C45.5813 15.7478 45.3905 15.9414 45.2949 16.1335C45.1037 15.9414 44.9133 15.6517 44.6265 15.5557L44.339 15.3643V14.8841C44.339 14.5959 44.1478 14.4038 43.861 14.4038C43.5742 14.4038 43.383 14.5959 43.383 14.8841V15.3643L43.0003 15.5557C42.7135 15.7478 42.5227 15.9414 42.4271 16.1335C42.2359 15.9414 42.0455 15.6517 41.7587 15.5557L41.4712 15.3643V14.8841C41.4712 14.5959 41.28 14.4038 40.9932 14.4038C40.7064 14.4038 40.5152 14.5959 40.5152 14.8841V15.3643L40.1325 15.5557C39.8457 15.7478 39.6549 15.9414 39.5593 16.1335C39.3681 15.9414 39.1777 15.6517 38.8909 15.5557L38.6034 15.3643V14.8841C38.6034 14.5959 38.4122 14.4038 38.1254 14.4038C37.8386 14.4038 37.6474 14.5959 37.6474 14.8841V15.3643L37.2647 15.5557C36.5955 16.0359 36.2135 16.7098 36.2135 17.5742V18.6304H34.7796V14.5952C34.7796 13.6347 34.2065 12.771 33.2505 12.4828V12.3871V11.9069C33.2505 11.6187 33.0593 11.4266 32.7726 11.4266C32.4858 11.4266 32.2946 11.6187 32.2946 11.9069V12.4828H30.3827V12.0025C30.3827 11.7144 30.1915 11.5223 29.9048 11.5223C29.618 11.5223 29.4268 11.7144 29.4268 12.0025V12.4828H27.5149V12.0025C27.5149 11.7144 27.3238 11.5223 27.037 11.5223C26.7502 11.5223 26.559 11.7144 26.559 12.0025V12.4828V12.5785C25.6987 12.9627 25.1251 13.7322 25.1251 14.6927V17.4767V17.5742V18.6304H23.6912V17.5742C23.6912 16.7098 23.3077 16.0359 22.543 15.5557L22.3525 15.3643V14.8841C22.3525 14.5959 22.1613 14.4038 21.8746 14.4038C21.5878 14.4038 21.3966 14.5959 21.3966 14.8841V15.3643L21.0139 15.5557C20.7271 15.7478 20.5363 15.9414 20.4407 16.1335C20.2495 15.9414 20.059 15.6517 19.7723 15.5557L19.4847 15.3643V14.8841C19.4847 14.5959 19.2935 14.4038 19.0068 14.4038C18.72 14.4038 18.5288 14.5959 18.5288 14.8841V15.3643L18.1461 15.5557C17.8593 15.7478 17.6685 15.9414 17.5729 16.1335C17.3817 15.9414 17.1912 15.6517 16.9045 15.5557L16.6169 15.3643V14.8841C16.6169 14.5959 16.4258 14.4038 16.139 14.4038C15.8522 14.4038 15.661 14.5959 15.661 14.8841V15.3643L15.2783 15.5557C14.9915 15.7478 14.8007 15.9414 14.7051 16.1335C14.5139 15.9414 14.3234 15.6517 14.0367 15.5557L13.7491 15.3643V14.8841C13.7491 14.5959 13.558 14.4038 13.2712 14.4038C12.9844 14.4038 12.7932 14.5959 12.7932 14.8841V15.3643L12.4105 15.5557C12.1237 15.7478 11.9329 15.9414 11.8373 16.1335C11.6461 15.9414 11.4556 15.6517 11.1689 15.5557L10.8813 15.3643V14.8841C10.8813 14.5959 10.6902 14.4038 10.4034 14.4038C10.1166 14.4038 9.92541 14.5959 9.92541 14.8841V15.3643L9.54267 15.5557C9.44707 15.5557 9.44745 15.6532 9.44745 15.6532V15.173V13.8279H9.92541C10.2122 13.8279 10.4034 13.6358 10.4034 13.3476C10.4034 13.0595 10.2122 12.8674 9.92541 12.8674H9.44745V12.0982C9.44745 11.0417 8.96948 10.0819 8.01355 9.5056L7.53558 9.2167V7.68027C7.53558 7.39211 7.34439 7.20001 7.05761 7.20001ZM7.05761 10.1772L7.53558 10.4661C8.10914 10.8503 8.49151 11.5215 8.49151 12.1939V12.9631H5.62372V12.1939C5.62372 11.5215 6.00609 10.8503 6.57965 10.4661L7.05761 10.1772ZM52.9424 10.1772L53.4203 10.4661C53.9939 10.8503 54.3763 11.5215 54.3763 12.1939V12.9631H51.5085V12.1939C51.5085 11.5215 51.8908 10.8503 52.4644 10.4661L52.9424 10.1772ZM27.1322 13.4433H32.7726C33.3461 13.6354 33.8237 14.1164 33.8237 14.6927V15.7489L33.6333 15.5557L33.2505 15.3643V14.8841C33.2505 14.5959 33.0593 14.4038 32.7726 14.4038C32.4858 14.4038 32.2946 14.5959 32.2946 14.8841V15.3643L31.9119 15.5557C31.6251 15.7478 31.4343 15.9414 31.3387 16.1335C31.1475 15.9414 30.9552 15.6517 30.6684 15.5557L30.3827 15.3643V14.8841C30.3827 14.5959 30.1915 14.4038 29.9048 14.4038C29.618 14.4038 29.4268 14.5959 29.4268 14.8841V15.3643L29.0441 15.5557C28.7573 15.7478 28.5665 15.9414 28.4709 16.1335C28.2797 15.9414 28.0874 15.6517 27.8006 15.5557L27.5149 15.3643V14.8841C27.5149 14.5959 27.3238 14.4038 27.037 14.4038C26.7502 14.4038 26.559 14.5959 26.559 14.8841V15.3643L26.1763 15.5557L26.081 15.6532V14.6927C26.1766 14.1164 26.5586 13.5394 27.1322 13.4433ZM5.62372 13.9236H8.49151V15.2686V17.6699V18.7261H7.53558V16.3248C7.53558 16.0367 7.34439 15.8446 7.05761 15.8446C6.77084 15.8446 6.57965 16.0367 6.57965 16.3248V18.7261H5.62372V15.2686V13.9236ZM51.5085 13.9236H54.3763V15.2686V18.7261H53.4203V16.3248C53.4203 16.0367 53.2291 15.8446 52.9424 15.8446C52.6556 15.8446 52.4644 16.0367 52.4644 16.3248V18.7261H51.5085V17.6699V15.2686V13.9236ZM10.4034 16.2292L10.6909 16.4205C11.0733 16.7087 11.3593 17.0936 11.3593 17.6699V18.7261H9.44745V17.6699C9.44745 17.0936 9.73348 16.7087 10.1159 16.4205L10.4034 16.2292ZM13.2712 16.2292L13.5587 16.4205C13.9411 16.7087 14.2271 17.0936 14.2271 17.6699V18.7261H12.3152V17.6699C12.3152 17.0936 12.6013 16.7087 12.9836 16.4205L13.2712 16.2292ZM16.139 16.2292L16.4265 16.4205C16.8089 16.7087 17.0949 17.0936 17.0949 17.6699V18.7261H15.183V17.6699C15.183 17.0936 15.4691 16.7087 15.8514 16.4205L16.139 16.2292ZM19.0068 16.2292L19.2943 16.4205C19.6767 16.7087 19.9627 17.0936 19.9627 17.6699V18.7261H18.0508V17.6699C18.0508 17.0936 18.3369 16.7087 18.7192 16.4205L19.0068 16.2292ZM21.8746 16.2292L22.1621 16.4205C22.5445 16.7087 22.8305 17.0936 22.8305 17.6699V18.7261H20.9186V17.6699C20.9186 17.0936 21.2047 16.7087 21.587 16.4205L21.8746 16.2292ZM27.1322 16.2292L27.4197 16.4205C27.8021 16.7087 28.0881 17.0936 28.0881 17.6699V18.7261H26.1763V17.4767C26.1763 16.9964 26.4623 16.6126 26.8447 16.4205L27.1322 16.2292ZM30 16.2292L30.2875 16.4205C30.6699 16.7087 30.9559 17.0936 30.9559 17.6699V18.7261H29.0441V17.6699C29.0441 17.1897 29.3301 16.7087 29.7125 16.4205L30 16.2292ZM32.7726 16.2292L33.0582 16.4205C33.4406 16.7087 33.7285 17.0936 33.7285 17.6699V18.7261H31.8166V17.6699C31.9122 17.0936 32.1027 16.7087 32.485 16.4205L32.7726 16.2292ZM38.1254 16.2292L38.4129 16.4205C38.7953 16.7087 39.0813 17.0936 39.0813 17.6699V18.7261H37.1695V17.6699C37.1695 17.1897 37.4555 16.7087 37.8379 16.4205L38.1254 16.2292ZM40.9932 16.2292L41.2807 16.4205C41.6631 16.7087 41.9491 17.0936 41.9491 17.6699V18.7261H40.0373V17.6699C40.0373 17.0936 40.3233 16.7087 40.7057 16.4205L40.9932 16.2292ZM43.861 16.2292L44.1485 16.4205C44.5309 16.7087 44.8169 17.0936 44.8169 17.6699V18.7261H42.9051V17.6699C42.9051 17.0936 43.1911 16.7087 43.5735 16.4205L43.861 16.2292ZM46.7288 16.2292L47.0163 16.4205C47.3987 16.7087 47.6847 17.0936 47.6847 17.6699V18.7261H45.7729V17.6699C45.7729 17.0936 46.0589 16.7087 46.4413 16.4205L46.7288 16.2292ZM49.5966 16.2292L49.8841 16.4205C50.2665 16.7087 50.5525 17.0936 50.5525 17.6699V18.7261H48.6407V17.6699C48.6407 17.0936 48.9267 16.7087 49.3091 16.4205L49.5966 16.2292ZM4.66778 19.6866H5.14575H8.96948H51.0305H54.8542H55.3322V25.4496H4.66778V19.6866ZM7.05761 20.6471C6.29287 20.6471 5.62372 21.3195 5.62372 22.0879V24.0089C5.62372 24.297 5.8149 24.4891 6.10168 24.4891H8.01355C8.30033 24.4891 8.49151 24.297 8.49151 24.0089V22.0879C8.49151 21.3195 7.82236 20.6471 7.05761 20.6471ZM12.7932 20.6471C12.0285 20.6471 11.3593 21.3195 11.3593 22.0879V24.0089C11.3593 24.297 11.5505 24.4891 11.8373 24.4891H13.7491C14.0359 24.4891 14.2271 24.297 14.2271 24.0089V22.0879C14.2271 21.3195 13.558 20.6471 12.7932 20.6471ZM16.6169 20.6471C15.8522 20.6471 15.183 21.3195 15.183 22.0879V24.0089C15.183 24.297 15.3742 24.4891 15.661 24.4891H17.5729C17.8596 24.4891 18.0508 24.297 18.0508 24.0089V22.0879C18.0508 21.3195 17.3817 20.6471 16.6169 20.6471ZM22.3525 20.6471C21.5878 20.6471 20.9186 21.3195 20.9186 22.0879V24.0089C20.9186 24.297 21.1098 24.4891 21.3966 24.4891H23.3085C23.5952 24.4891 23.7864 24.297 23.7864 24.0089V22.0879C23.7864 21.3195 23.1173 20.6471 22.3525 20.6471ZM28.0881 20.6471C27.3234 20.6471 26.6542 21.3195 26.6542 22.0879V24.0089C26.6542 24.297 26.8454 24.4891 27.1322 24.4891H29.0441C29.3308 24.4891 29.522 24.297 29.522 24.0089V22.0879C29.522 21.3195 28.8529 20.6471 28.0881 20.6471ZM31.9119 20.6471C31.1471 20.6471 30.478 21.3195 30.478 22.0879V24.0089C30.478 24.297 30.6691 24.4891 30.9559 24.4891H32.8678C33.1546 24.4891 33.3458 24.297 33.3458 24.0089V22.0879C33.3458 21.3195 32.6766 20.6471 31.9119 20.6471ZM37.6474 20.6471C36.8827 20.6471 36.2135 21.3195 36.2135 22.0879V24.0089C36.2135 24.297 36.4047 24.4891 36.6915 24.4891H38.6034C38.8902 24.4891 39.0813 24.297 39.0813 24.0089V22.0879C39.0813 21.3195 38.4122 20.6471 37.6474 20.6471ZM43.383 20.6471C42.6183 20.6471 41.9491 21.3195 41.9491 22.0879V24.0089C41.9491 24.297 42.1403 24.4891 42.4271 24.4891H44.339C44.6258 24.4891 44.8169 24.297 44.8169 24.0089V22.0879C44.8169 21.3195 44.1478 20.6471 43.383 20.6471ZM47.2068 20.6471C46.442 20.6471 45.7729 21.3195 45.7729 22.0879V24.0089C45.7729 24.297 45.9641 24.4891 46.2508 24.4891H48.1627C48.4495 24.4891 48.6407 24.297 48.6407 24.0089V22.0879C48.6407 21.3195 47.9715 20.6471 47.2068 20.6471ZM52.9424 20.6471C52.1776 20.6471 51.5085 21.3195 51.5085 22.0879V24.0089C51.5085 24.297 51.6996 24.4891 51.9864 24.4891H53.8983C54.1851 24.4891 54.3763 24.297 54.3763 24.0089V22.0879C54.3763 21.3195 53.7071 20.6471 52.9424 20.6471ZM7.05761 21.6076C7.34439 21.6076 7.53558 21.7997 7.53558 22.0879V23.5286H6.57965V22.0879C6.57965 21.7997 6.77084 21.6076 7.05761 21.6076ZM12.7932 21.6076C13.08 21.6076 13.2712 21.7997 13.2712 22.0879V23.5286H12.3152V22.0879C12.3152 21.7997 12.5064 21.6076 12.7932 21.6076ZM16.6169 21.6076C16.9037 21.6076 17.0949 21.7997 17.0949 22.0879V23.5286H16.139V22.0879C16.139 21.7997 16.3302 21.6076 16.6169 21.6076ZM22.3525 21.6076C22.6393 21.6076 22.8305 21.7997 22.8305 22.0879V23.5286H21.8746V22.0879C21.8746 21.7997 22.0658 21.6076 22.3525 21.6076ZM28.0881 21.6076C28.3749 21.6076 28.5661 21.7997 28.5661 22.0879V23.5286H27.6102V22.0879C27.6102 21.7997 27.8013 21.6076 28.0881 21.6076ZM31.9119 21.6076C32.1986 21.6076 32.3898 21.7997 32.3898 22.0879V23.5286H31.4339V22.0879C31.4339 21.7997 31.6251 21.6076 31.9119 21.6076ZM37.6474 21.6076C37.9342 21.6076 38.1254 21.7997 38.1254 22.0879V23.5286H37.1695V22.0879C37.1695 21.7997 37.3607 21.6076 37.6474 21.6076ZM43.383 21.6076C43.6698 21.6076 43.861 21.7997 43.861 22.0879V23.5286H42.9051V22.0879C42.9051 21.7997 43.0963 21.6076 43.383 21.6076ZM47.2068 21.6076C47.4935 21.6076 47.6847 21.7997 47.6847 22.0879V23.5286H46.7288V22.0879C46.7288 21.7997 46.92 21.6076 47.2068 21.6076ZM52.9424 21.6076C53.2291 21.6076 53.4203 21.7997 53.4203 22.0879V23.5286H52.4644V22.0879C52.4644 21.7997 52.6556 21.6076 52.9424 21.6076ZM2.75592 26.4101H57.2441V28.3312H50.0746H40.5152H34.7796H25.2203H19.4847H9.92541H2.75592V26.4101ZM4.66778 29.2917H9.44745V52.3438H4.66778V29.2917ZM10.4034 29.2917H19.0068V36.9757H10.4034V29.2917ZM19.9627 29.2917H24.7424V36.9757H19.9627V29.2917ZM25.6983 29.2917H34.3017V36.9757H25.6983V29.2917ZM35.2576 29.2917H40.0373V36.9757H35.2576V29.2917ZM40.9932 29.2917H49.5966V36.9757H40.9932V29.2917ZM50.5525 29.2917H55.3322V52.3438H50.5525V29.2917ZM7.05761 31.2127C6.29287 31.2127 5.62372 31.885 5.62372 32.6534V35.535C5.62372 35.8231 5.8149 36.0152 6.10168 36.0152H8.01355C8.30033 36.0152 8.49151 35.8231 8.49151 35.535V32.6534C8.49151 31.885 7.82236 31.2127 7.05761 31.2127ZM12.7932 31.2127C12.0285 31.2127 11.3593 31.885 11.3593 32.6534V35.535C11.3593 35.8231 11.5505 36.0152 11.8373 36.0152H13.7491C14.0359 36.0152 14.2271 35.8231 14.2271 35.535V32.6534C14.2271 31.885 13.558 31.2127 12.7932 31.2127ZM16.6169 31.2127C15.8522 31.2127 15.183 31.885 15.183 32.6534V35.535C15.183 35.8231 15.3742 36.0152 15.661 36.0152H17.5729C17.8596 36.0152 18.0508 35.8231 18.0508 35.535V32.6534C18.0508 31.885 17.3817 31.2127 16.6169 31.2127ZM22.3525 31.2127C21.5878 31.2127 20.9186 31.885 20.9186 32.6534V35.535C20.9186 35.8231 21.1098 36.0152 21.3966 36.0152H23.3085C23.5952 36.0152 23.7864 35.8231 23.7864 35.535V32.6534C23.7864 31.885 23.1173 31.2127 22.3525 31.2127ZM28.0881 31.2127C27.3234 31.2127 26.6542 31.885 26.6542 32.6534V35.535C26.6542 35.8231 26.8454 36.0152 27.1322 36.0152H29.0441C29.3308 36.0152 29.522 35.8231 29.522 35.535V32.6534C29.522 31.885 28.8529 31.2127 28.0881 31.2127ZM31.9119 31.2127C31.1471 31.2127 30.478 31.885 30.478 32.6534V35.535C30.478 35.8231 30.6691 36.0152 30.9559 36.0152H32.8678C33.1546 36.0152 33.3458 35.8231 33.3458 35.535V32.6534C33.3458 31.885 32.6766 31.2127 31.9119 31.2127ZM37.6474 31.2127C36.8827 31.2127 36.2135 31.885 36.2135 32.6534V35.535C36.2135 35.8231 36.4047 36.0152 36.6915 36.0152H38.6034C38.8902 36.0152 39.0813 35.8231 39.0813 35.535V32.6534C39.0813 31.885 38.4122 31.2127 37.6474 31.2127ZM43.383 31.2127C42.6183 31.2127 41.9491 31.885 41.9491 32.6534V35.535C41.9491 35.8231 42.1403 36.0152 42.4271 36.0152H44.339C44.6258 36.0152 44.8169 35.8231 44.8169 35.535V32.6534C44.8169 31.885 44.1478 31.2127 43.383 31.2127ZM47.2068 31.2127C46.442 31.2127 45.7729 31.885 45.7729 32.6534V35.535C45.7729 35.8231 45.9641 36.0152 46.2508 36.0152H48.1627C48.4495 36.0152 48.6407 35.8231 48.6407 35.535V32.6534C48.6407 31.885 47.9715 31.2127 47.2068 31.2127ZM52.9424 31.2127C52.1776 31.2127 51.5085 31.885 51.5085 32.6534V35.535C51.5085 35.8231 51.6996 36.0152 51.9864 36.0152H53.8983C54.1851 36.0152 54.3763 35.8231 54.3763 35.535V32.6534C54.3763 31.885 53.7071 31.2127 52.9424 31.2127ZM7.05761 32.1732C7.34439 32.1732 7.53558 32.3653 7.53558 32.6534V35.0547H6.57965V32.6534C6.57965 32.3653 6.77084 32.1732 7.05761 32.1732ZM12.7932 32.1732C13.08 32.1732 13.2712 32.3653 13.2712 32.6534V35.0547H12.3152V32.6534C12.3152 32.3653 12.5064 32.1732 12.7932 32.1732ZM16.6169 32.1732C16.9037 32.1732 17.0949 32.3653 17.0949 32.6534V35.0547H16.139V32.6534C16.139 32.3653 16.3302 32.1732 16.6169 32.1732ZM22.3525 32.1732C22.6393 32.1732 22.8305 32.3653 22.8305 32.6534V35.0547H21.8746V32.6534C21.8746 32.3653 22.0658 32.1732 22.3525 32.1732ZM28.0881 32.1732C28.3749 32.1732 28.5661 32.3653 28.5661 32.6534V35.0547H27.6102V32.6534C27.6102 32.3653 27.8013 32.1732 28.0881 32.1732ZM31.9119 32.1732C32.1986 32.1732 32.3898 32.3653 32.3898 32.6534V35.0547H31.4339V32.6534C31.4339 32.3653 31.6251 32.1732 31.9119 32.1732ZM37.6474 32.1732C37.9342 32.1732 38.1254 32.3653 38.1254 32.6534V35.0547H37.1695V32.6534C37.1695 32.3653 37.3607 32.1732 37.6474 32.1732ZM43.383 32.1732C43.6698 32.1732 43.861 32.3653 43.861 32.6534V35.0547H42.9051V32.6534C42.9051 32.3653 43.0963 32.1732 43.383 32.1732ZM47.2068 32.1732C47.4935 32.1732 47.6847 32.3653 47.6847 32.6534V35.0547H46.7288V32.6534C46.7288 32.3653 46.92 32.1732 47.2068 32.1732ZM52.9424 32.1732C53.2291 32.1732 53.4203 32.3653 53.4203 32.6534V35.0547H52.4644V32.6534C52.4644 32.3653 52.6556 32.1732 52.9424 32.1732ZM10.4034 37.9362H19.0068V52.3438H18.0508V44.2752C18.0508 42.8344 17.2865 41.3948 16.0438 40.6264L14.9926 39.9529C14.8014 39.8569 14.6102 39.8569 14.5146 39.9529L13.3664 40.6264C12.1237 41.3948 11.3593 42.7384 11.3593 44.2752V52.3438H10.4034V37.9362ZM19.9627 37.9362H24.7424V52.3438H19.9627V37.9362ZM25.6983 37.9362H34.3017V52.3438H33.3458V44.2752C33.3458 42.8344 32.5814 41.3948 31.3387 40.6264L30.2875 39.9529C30.0963 39.8569 29.9051 39.8569 29.8095 39.9529L28.6613 40.6264C27.4186 41.3948 26.6542 42.7384 26.6542 44.2752V52.3438H25.6983V37.9362ZM35.2576 37.9362H40.0373V52.3438H35.2576V37.9362ZM40.9932 37.9362H49.5966V52.3438H48.6407V44.2752C48.6407 42.8344 47.8763 41.3948 46.6336 40.6264L45.5824 39.9529C45.3912 39.8569 45.2001 39.8569 45.1045 39.9529L43.9562 40.6264C42.7135 41.3948 41.9491 42.7384 41.9491 44.2752V52.3438H40.9932V37.9362ZM7.05761 38.8967C6.29287 38.8967 5.62372 39.5691 5.62372 40.3375V43.219C5.62372 43.5072 5.8149 43.6993 6.10168 43.6993H8.01355C8.30033 43.6993 8.49151 43.5072 8.49151 43.219V40.3375C8.49151 39.5691 7.82236 38.8967 7.05761 38.8967ZM22.3525 38.8967C21.5878 38.8967 20.9186 39.5691 20.9186 40.3375V43.219C20.9186 43.5072 21.1098 43.6993 21.3966 43.6993H23.3085C23.5952 43.6993 23.7864 43.5072 23.7864 43.219V40.3375C23.7864 39.5691 23.1173 38.8967 22.3525 38.8967ZM37.6474 38.8967C36.8827 38.8967 36.2135 39.5691 36.2135 40.3375V43.219C36.2135 43.5072 36.4047 43.6993 36.6915 43.6993H38.6034C38.8902 43.6993 39.0813 43.5072 39.0813 43.219V40.3375C39.0813 39.5691 38.4122 38.8967 37.6474 38.8967ZM52.9424 38.8967C52.1776 38.8967 51.5085 39.5691 51.5085 40.3375V43.219C51.5085 43.5072 51.6996 43.6993 51.9864 43.6993H53.8983C54.1851 43.6993 54.3763 43.5072 54.3763 43.219V40.3375C54.3763 39.5691 53.7071 38.8967 52.9424 38.8967ZM7.05761 39.8572C7.34439 39.8572 7.53558 40.0493 7.53558 40.3375V42.7388H6.57965V40.3375C6.57965 40.0493 6.77084 39.8572 7.05761 39.8572ZM22.3525 39.8572C22.6393 39.8572 22.8305 40.0493 22.8305 40.3375V42.7388H21.8746V40.3375C21.8746 40.0493 22.0658 39.8572 22.3525 39.8572ZM37.6474 39.8572C37.9342 39.8572 38.1254 40.0493 38.1254 40.3375V42.7388H37.1695V40.3375C37.1695 40.0493 37.3607 39.8572 37.6474 39.8572ZM52.9424 39.8572C53.2291 39.8572 53.4203 40.0493 53.4203 40.3375V42.7388H52.4644V40.3375C52.4644 40.0493 52.6556 39.8572 52.9424 39.8572ZM14.7051 40.9134L15.5658 41.4894C16.5217 42.0657 17.0949 43.1222 17.0949 44.3709V52.3438H12.3152V44.2752C12.3152 43.1226 12.8884 42.0657 13.8444 41.4894L14.7051 40.9134ZM30 40.9134L30.8607 41.4894C31.8166 42.0657 32.3898 43.1222 32.3898 44.3709V52.3438H27.6102V44.2752C27.6102 43.1226 28.1833 42.0657 29.1393 41.4894L30 40.9134ZM45.2949 40.9134L46.1556 41.4894C47.1115 42.0657 47.6847 43.1222 47.6847 44.3709V52.3438H42.9051V44.2752C42.9051 43.1226 43.4783 42.0657 44.4342 41.4894L45.2949 40.9134ZM7.05761 45.6203C6.29287 45.6203 5.62372 46.2926 5.62372 47.061V49.9426C5.62372 50.2307 5.8149 50.4228 6.10168 50.4228H8.01355C8.30033 50.4228 8.49151 50.2307 8.49151 49.9426V47.061C8.49151 46.2926 7.82236 45.6203 7.05761 45.6203ZM22.3525 45.6203C21.5878 45.6203 20.9186 46.2926 20.9186 47.061V49.9426C20.9186 50.2307 21.1098 50.4228 21.3966 50.4228H23.3085C23.5952 50.4228 23.7864 50.2307 23.7864 49.9426V47.061C23.7864 46.2926 23.1173 45.6203 22.3525 45.6203ZM37.6474 45.6203C36.8827 45.6203 36.2135 46.2926 36.2135 47.061V49.9426C36.2135 50.2307 36.4047 50.4228 36.6915 50.4228H38.6034C38.8902 50.4228 39.0813 50.2307 39.0813 49.9426V47.061C39.0813 46.2926 38.4122 45.6203 37.6474 45.6203ZM52.9424 45.6203C52.1776 45.6203 51.5085 46.2926 51.5085 47.061V49.9426C51.5085 50.2307 51.6996 50.4228 51.9864 50.4228H53.8983C54.1851 50.4228 54.3763 50.2307 54.3763 49.9426V47.061C54.3763 46.2926 53.7071 45.6203 52.9424 45.6203ZM7.05761 46.5808C7.34439 46.5808 7.53558 46.7729 7.53558 47.061V49.4623H6.57965V47.061C6.57965 46.7729 6.77084 46.5808 7.05761 46.5808ZM22.3525 46.5808C22.6393 46.5808 22.8305 46.7729 22.8305 47.061V49.4623H21.8746V47.061C21.8746 46.7729 22.0658 46.5808 22.3525 46.5808ZM37.6474 46.5808C37.9342 46.5808 38.1254 46.7729 38.1254 47.061V49.4623H37.1695V47.061C37.1695 46.7729 37.3607 46.5808 37.6474 46.5808ZM52.9424 46.5808C53.2291 46.5808 53.4203 46.7729 53.4203 47.061V49.4623H52.4644V47.061C52.4644 46.7729 52.6556 46.5808 52.9424 46.5808Z" fill="#505565"/>
</svg>
