<svg width="32" height="32" viewBox="0 0 32 32" fill="none" xmlns="http://www.w3.org/2000/svg">
<path d="M0.764856 5.64526e-06C0.664305 -0.000380892 0.564672 0.0190858 0.471701 0.0573874C0.378729 0.095689 0.294259 0.152016 0.223158 0.223118C0.152058 0.29422 0.0957347 0.378741 0.0574351 0.471714C0.0191355 0.564686 -0.000382742 0.66431 5.6854e-06 0.764861V13.7168C0.000356603 13.8169 0.0204201 13.9159 0.0590505 14.0082C0.0976809 14.1005 0.154121 14.1843 0.225148 14.2548C0.296174 14.3254 0.380395 14.3812 0.472999 14.4192C0.565604 14.4571 0.664778 14.4764 0.764856 14.476H13.7167C13.9178 14.4753 14.1105 14.3951 14.2528 14.2528C14.395 14.1106 14.4752 13.9179 14.4759 13.7168V0.764861C14.4763 0.664783 14.457 0.565637 14.419 0.473032C14.3811 0.380426 14.3253 0.296167 14.2548 0.225139C14.1843 0.154111 14.1005 0.09769 14.0081 0.059057C13.9158 0.0204241 13.8168 0.000359619 13.7167 5.64526e-06H0.764856ZM1.52408 1.52409H12.9519V12.9519H1.52408V1.52409Z" fill="#505565"/>
<path d="M18.2832 5.65613e-06C18.1831 0.000359667 18.0841 0.0204241 17.9917 0.059057C17.8994 0.09769 17.8156 0.154111 17.7451 0.225139C17.6746 0.296167 17.6188 0.380426 17.5808 0.473032C17.5429 0.565637 17.5235 0.664783 17.5239 0.764861V13.7168C17.5246 13.9179 17.6049 14.1106 17.7471 14.2528C17.8893 14.3951 18.082 14.4753 18.2832 14.476H31.235C31.3351 14.4764 31.4343 14.4571 31.5269 14.4192C31.6195 14.3812 31.7037 14.3254 31.7747 14.2548C31.8457 14.1843 31.9022 14.1005 31.9408 14.0082C31.9794 13.9159 31.9995 13.8169 31.9999 13.7168V0.764861C32.0003 0.664309 31.9807 0.564686 31.9424 0.471714C31.9041 0.378741 31.8478 0.29422 31.7767 0.223118C31.7056 0.152016 31.6211 0.0956888 31.5282 0.0573874C31.4352 0.019086 31.3356 -0.000381262 31.235 5.65613e-06H18.2832ZM19.048 1.52409H30.4758V12.9519H19.048V1.52409Z" fill="#505565"/>
<path d="M0.764856 17.5244C0.66478 17.524 0.565608 17.5433 0.473006 17.5813C0.380403 17.6192 0.296184 17.6751 0.225158 17.7456C0.154132 17.8161 0.0976907 17.8999 0.0590586 17.9922C0.0204265 18.0845 0.000360266 18.1836 5.57473e-06 18.2837V31.2356C-0.000379043 31.3361 0.0191419 31.4358 0.0574432 31.5287C0.0957445 31.6217 0.152069 31.7061 0.223168 31.7772C0.294268 31.8483 0.378737 31.9047 0.471707 31.943C0.564676 31.9813 0.664308 32.0008 0.764856 32.0004H13.7167C13.8168 32.0001 13.9158 31.98 14.0081 31.9414C14.1004 31.9028 14.1842 31.8463 14.2548 31.7753C14.3253 31.7043 14.3811 31.62 14.419 31.5274C14.457 31.4348 14.4763 31.3357 14.4759 31.2356V18.2837C14.4752 18.0825 14.395 17.8898 14.2528 17.7475C14.1105 17.6053 13.9178 17.5251 13.7167 17.5244H0.764856ZM1.52408 19.0485H12.9519V30.4764H1.52408V19.0485Z" fill="#505565"/>
<path d="M18.2832 17.5244C18.082 17.5251 17.8893 17.6053 17.7471 17.7475C17.6049 17.8898 17.5246 18.0825 17.5239 18.2837V31.2356C17.5235 31.3357 17.5429 31.4348 17.5808 31.5274C17.6188 31.62 17.6746 31.7043 17.7451 31.7753C17.8156 31.8463 17.8994 31.9028 17.9917 31.9414C18.0841 31.98 18.1831 32.0001 18.2832 32.0004H31.235C31.3356 32.0008 31.4352 31.9813 31.5282 31.943C31.6211 31.9047 31.7056 31.8483 31.7767 31.7772C31.8478 31.7061 31.9041 31.6217 31.9424 31.5287C31.9807 31.4358 32.0002 31.3361 31.9999 31.2356V18.2837C31.9995 18.1836 31.9794 18.0845 31.9408 17.9922C31.9022 17.8999 31.8457 17.8161 31.7747 17.7456C31.7037 17.6751 31.6195 17.6192 31.5269 17.5813C31.4343 17.5433 31.3351 17.524 31.235 17.5244H18.2832ZM19.048 19.0485H30.4758V30.4764H19.048V19.0485Z" fill="#505565"/>
</svg>
