<svg width="40" height="25" viewBox="0 0 40 25" fill="none" xmlns="http://www.w3.org/2000/svg">
<path d="M19.9998 1.66699C17.4784 1.66699 15.4165 3.51559 15.4165 5.77619C15.4149 5.87519 15.4353 5.97348 15.4765 6.06536C15.5177 6.15723 15.5788 6.24085 15.6564 6.31136C15.7339 6.38186 15.8263 6.43785 15.9282 6.47606C16.0301 6.51428 16.1394 6.53396 16.2498 6.53396C16.3603 6.53396 16.4696 6.51428 16.5715 6.47606C16.6734 6.43785 16.7658 6.38186 16.8433 6.31136C16.9208 6.24085 16.982 6.15723 17.0232 6.06536C17.0643 5.97348 17.0847 5.87519 17.0832 5.77619C17.0832 4.32315 18.3791 3.16125 19.9998 3.16125C21.6205 3.16125 22.9165 4.32315 22.9165 5.77619C22.9165 6.32004 22.7642 6.65763 22.4868 7.01362C22.2094 7.3696 21.7822 7.72386 21.3019 8.13431C20.4555 8.85766 19.4473 9.85732 19.2186 11.4497C18.3249 11.6007 17.6039 11.9936 17.0441 12.4536C16.3295 13.0409 15.8068 13.703 15.2472 14.2047C15.2338 14.216 15.2208 14.2277 15.2082 14.2397C14.0554 15.399 10.7962 16.2993 7.77327 17.3333C6.26183 17.8503 4.80381 18.427 3.65869 19.2361C2.51357 20.0452 1.6665 21.1806 1.6665 22.5865C1.66653 22.7847 1.75433 22.9747 1.91061 23.1148C2.06688 23.2549 2.27883 23.3336 2.49984 23.3337H37.4998C37.7208 23.3336 37.9328 23.2549 38.0891 23.1148C38.2453 22.9747 38.3331 22.7847 38.3332 22.5865C38.3332 21.1806 37.4861 20.0454 36.341 19.2361C35.1959 18.427 33.7378 17.8503 32.2264 17.3333C29.2035 16.2993 25.9443 15.399 24.7915 14.2397C24.7789 14.2277 24.7659 14.216 24.7524 14.2047C24.1929 13.703 23.6702 13.0409 22.9556 12.4536C22.417 12.011 21.7323 11.6361 20.8853 11.473C21.0625 10.4152 21.6791 9.86523 22.4478 9.2083C22.905 8.81754 23.4153 8.41204 23.841 7.86581C24.2667 7.31957 24.5832 6.62142 24.5832 5.77619C24.5832 3.51559 22.5213 1.66699 19.9998 1.66699ZM19.9998 12.8739C20.8193 12.8739 21.3004 13.1226 21.8358 13.5626C22.3597 13.9932 22.8729 14.6252 23.5415 15.232C23.5533 15.244 23.5686 15.2551 23.5806 15.267C25.3754 17.0365 28.7505 17.7456 31.6405 18.7342C33.0951 19.2317 34.4166 19.7822 35.3123 20.4152C35.9274 20.8498 36.2628 21.3165 36.4582 21.8394H3.5415C3.7369 21.3165 4.07227 20.8498 4.68734 20.4152C5.5831 19.7822 6.90461 19.2317 8.35921 18.7342C11.2492 17.7456 14.6242 17.0365 16.4191 15.267C16.4271 15.2592 16.4372 15.2515 16.4451 15.2437C16.45 15.2392 16.4533 15.2365 16.4582 15.232C17.1268 14.6252 17.64 13.9932 18.1639 13.5626C18.6993 13.1226 19.1804 12.8739 19.9998 12.8739Z" fill="#505565"/>
</svg>
