<svg width="40" height="30" viewBox="0 0 40 30" fill="none" xmlns="http://www.w3.org/2000/svg">
<path d="M35.9746 23.1416V13.1335C35.9743 12.8169 35.8501 12.5134 35.6291 12.2895C35.4082 12.0657 35.1086 11.9398 34.7962 11.9395H21.8329C21.5204 11.9398 21.2209 12.0657 20.9999 12.2895C20.779 12.5134 20.6547 12.8169 20.6544 13.1335V23.1416L19.3752 25.7338C19.2876 25.916 19.2468 26.1178 19.2569 26.3204C19.2669 26.5229 19.3273 26.7195 19.4325 26.892C19.5378 27.0645 19.6844 27.2072 19.8587 27.3068C20.033 27.4065 20.2293 27.4598 20.4295 27.4618H36.1999C36.4 27.4598 36.5964 27.4065 36.7707 27.3068C36.945 27.2072 37.0916 27.0645 37.1968 26.892C37.302 26.7195 37.3624 26.5228 37.3723 26.3203C37.3823 26.1178 37.3415 25.916 37.2538 25.7337L35.9746 23.1416ZM21.8329 13.1335H34.7962V22.6857H21.8329V13.1335ZM26.5468 26.2678V25.6708H30.0822V26.2678H26.5468ZM31.2607 26.2678V25.0738C31.2607 24.9154 31.1986 24.7636 31.0881 24.6516C30.9776 24.5397 30.8278 24.4768 30.6715 24.4768H25.9576C25.8013 24.4768 25.6514 24.5397 25.5409 24.6516C25.4304 24.7636 25.3683 24.9154 25.3683 25.0738V26.2678H20.4294L21.6079 23.8798H35.0214L36.2025 26.2678H31.2607Z" fill="#505565"/>
<path d="M19.4761 19.1041C19.6304 19.1011 19.7773 19.0368 19.8854 18.9252C19.9934 18.8136 20.054 18.6634 20.054 18.5071C20.054 18.3507 19.9934 18.2006 19.8854 18.089C19.7773 17.9774 19.6304 17.9131 19.4761 17.9101H10.0483V13.731C10.048 13.4144 9.92372 13.1109 9.70278 12.887C9.48184 12.6632 9.18227 12.5373 8.86981 12.5369H5.33438V3.58173H23.0115V10.7459C23.0115 10.9042 23.0736 11.0561 23.1841 11.1681C23.2946 11.28 23.4445 11.3429 23.6008 11.3429C23.7571 11.3429 23.9069 11.28 24.0174 11.1681C24.1279 11.0561 24.19 10.9042 24.19 10.7459V3.58173C24.1897 3.26515 24.0654 2.96162 23.8445 2.73777C23.6236 2.51391 23.324 2.38801 23.0115 2.3877H5.33438C5.02192 2.38801 4.72235 2.51391 4.50141 2.73777C4.28047 2.96162 4.15621 3.26515 4.1559 3.58173V12.5369H3.56666C3.25421 12.5373 2.95464 12.6632 2.7337 12.887C2.51276 13.1109 2.3885 13.4144 2.38818 13.731V23.2832C2.3885 23.5998 2.51276 23.9033 2.7337 24.1272C2.95464 24.351 3.25421 24.4769 3.56666 24.4772H8.86981C9.18227 24.4769 9.48184 24.351 9.70278 24.1272C9.92372 23.9033 10.048 23.5998 10.0483 23.2832V19.1041H11.816V22.6862C11.816 22.8445 11.8781 22.9964 11.9886 23.1083C12.0991 23.2203 12.249 23.2832 12.4052 23.2832H15.9407C16.097 23.2832 16.2468 23.2203 16.3573 23.1084C16.4678 22.9964 16.5299 22.8445 16.5299 22.6862V19.1041H19.4761ZM3.56666 23.2832V13.731H8.86981L8.87068 23.2832H3.56666ZM15.3514 22.0892H12.9945V19.1041H15.3514V22.0892Z" fill="#505565"/>
<path d="M7.1024 21.4922H5.33468C5.18039 21.4952 5.03344 21.5595 4.9254 21.6711C4.81735 21.7828 4.75683 21.9329 4.75684 22.0892C4.75684 22.2456 4.81737 22.3957 4.92543 22.5073C5.03348 22.6189 5.18043 22.6832 5.33472 22.6862H7.1024C7.25668 22.6832 7.40363 22.6189 7.51168 22.5073C7.61973 22.3957 7.68026 22.2456 7.68026 22.0892C7.68026 21.9328 7.61973 21.7827 7.51168 21.6711C7.40363 21.5595 7.25668 21.4952 7.1024 21.4922Z" fill="#505565"/>
<path d="M30.7733 9.05765C30.6664 9.17034 30.6074 9.32102 30.6089 9.47731C30.6104 9.63361 30.6724 9.78307 30.7815 9.89359C30.8906 10.0041 31.0381 10.0669 31.1924 10.0684C31.3466 10.07 31.4953 10.0101 31.6066 9.90183C31.8312 9.68513 32.1296 9.56427 32.4398 9.56427C32.75 9.56427 33.0483 9.68513 33.273 9.90183C33.3837 10.0127 33.5332 10.0747 33.6889 10.0743C33.8445 10.0738 33.9937 10.011 34.1038 9.89945C34.2139 9.78792 34.2759 9.63678 34.2764 9.47905C34.2768 9.32132 34.2156 9.16982 34.1062 9.05765C33.6627 8.61281 33.0638 8.36328 32.4398 8.36328C31.8157 8.36328 31.2168 8.61281 30.7733 9.05765Z" fill="#505565"/>
<path d="M35.3559 8.38692C35.4716 8.38504 35.5842 8.34893 35.6799 8.28302C35.7756 8.2171 35.8502 8.12428 35.8945 8.01596C35.9388 7.90764 35.9508 7.78857 35.9291 7.67341C35.9075 7.55825 35.853 7.45202 35.7725 7.36781C34.8882 6.47259 33.6893 5.96973 32.4392 5.96973C31.1891 5.96973 29.9902 6.47259 29.1059 7.36781C28.999 7.4805 28.9399 7.63119 28.9414 7.7875C28.943 7.94382 29.0049 8.0933 29.114 8.20383C29.2231 8.31436 29.3707 8.37714 29.5249 8.37866C29.6792 8.38019 29.8279 8.32035 29.9391 8.21199C30.6047 7.54486 31.5031 7.17068 32.4392 7.17069C33.3754 7.1707 34.2738 7.54492 34.9393 8.21206C34.994 8.26757 35.0589 8.3116 35.1304 8.3416C35.2019 8.37161 35.2785 8.38701 35.3559 8.38692Z" fill="#505565"/>
<path d="M32.4394 3.58206C31.5104 3.57918 30.59 3.76308 29.7316 4.12311C28.8733 4.48314 28.0939 5.01214 27.4387 5.67949C27.384 5.73492 27.3406 5.80072 27.311 5.87315C27.2814 5.94558 27.2661 6.0232 27.2661 6.10159C27.2661 6.17999 27.2814 6.25761 27.311 6.33004C27.3406 6.40246 27.384 6.46827 27.4387 6.5237C27.4934 6.57914 27.5583 6.62311 27.6298 6.65311C27.7013 6.68311 27.7779 6.69855 27.8553 6.69855C27.9327 6.69855 28.0093 6.68311 28.0808 6.65311C28.1522 6.62311 28.2172 6.57914 28.2719 6.52371C29.3813 5.4115 30.8789 4.78767 32.4396 4.78768C34.0003 4.78769 35.4979 5.41155 36.6073 6.52377C36.7179 6.6353 36.8676 6.69783 37.0236 6.69764C37.1797 6.69745 37.3293 6.63457 37.4396 6.52277C37.5499 6.41098 37.612 6.25941 37.6121 6.10132C37.6123 5.94323 37.5506 5.79152 37.4405 5.67949C36.7852 5.01221 36.0058 4.48324 35.1473 4.12322C34.2889 3.7632 33.3685 3.57926 32.4394 3.58206Z" fill="#505565"/>
</svg>
