<svg width="40" height="40" viewBox="0 0 40 40" fill="none" xmlns="http://www.w3.org/2000/svg">
<path d="M20.0005 12.4278C19.9636 12.4356 19.9254 12.4356 19.8885 12.4278C18.0332 11.5444 16.462 10.1376 15.359 8.37228C14.0679 5.90724 14.7507 3.87946 15.9298 3.02134C16.9968 2.25614 18.7147 2.22882 20.1979 3.90132C20.2228 3.92626 20.2425 3.95603 20.256 3.98887C20.2694 4.02172 20.2764 4.05699 20.2764 4.09263C20.2764 4.12826 20.2694 4.16353 20.256 4.19638C20.2425 4.22922 20.2228 4.25899 20.1979 4.28393C20.174 4.30922 20.1454 4.32933 20.1138 4.34306C20.0822 4.35679 20.0482 4.36387 20.0138 4.36387C19.9795 4.36387 19.9455 4.35679 19.9139 4.34306C19.8823 4.32933 19.8537 4.30922 19.8298 4.28393C18.4587 2.73713 17.0342 2.87924 16.2286 3.46407C15.1989 4.20741 14.6654 5.92364 15.8124 8.07713C16.8624 9.74466 18.3538 11.0717 20.1125 11.9031C20.1755 11.9329 20.2244 11.987 20.2484 12.0536C20.2724 12.1202 20.2696 12.1939 20.2406 12.2584C20.2209 12.3075 20.1878 12.3496 20.1451 12.3797C20.1025 12.4098 20.0523 12.4265 20.0005 12.4278Z" fill="#505565" stroke="#505565" stroke-width="0.8"/>
<path d="M20.0004 12.4288C19.9504 12.4289 19.9014 12.4146 19.8589 12.3876C19.8165 12.3605 19.7823 12.3218 19.7603 12.2758C19.7313 12.2113 19.7285 12.1376 19.7525 12.071C19.7765 12.0043 19.8254 11.9502 19.8883 11.9205C21.6545 11.0808 23.15 9.74213 24.1991 8.0617C25.3248 5.92461 24.7967 4.2357 23.7723 3.46503C22.9667 2.8802 21.5476 2.73809 20.1924 4.26303C20.1686 4.28832 20.14 4.30843 20.1083 4.32216C20.0767 4.3359 20.0427 4.34298 20.0084 4.34298C19.974 4.34298 19.94 4.3359 19.9084 4.32216C19.8768 4.30843 19.8482 4.28832 19.8243 4.26303C19.7995 4.23809 19.7797 4.20833 19.7663 4.17548C19.7528 4.14263 19.7459 4.10736 19.7459 4.07173C19.7459 4.0361 19.7528 4.00083 19.7663 3.96798C19.7797 3.93513 19.7995 3.90537 19.8243 3.88043C21.3022 2.20792 23.0254 2.24071 24.0924 3.00045C25.2661 3.85857 25.949 5.88635 24.6633 8.31313C23.5623 10.0863 21.9886 11.4993 20.1284 12.3851C20.0899 12.4102 20.0459 12.4253 20.0004 12.4288Z" fill="#505565" stroke="#505565" stroke-width="0.8"/>
<path d="M19.9997 37.5001C17.5274 37.5001 15.1106 36.749 13.055 35.3418C10.9993 33.9347 9.39715 31.9346 8.45104 29.5946C7.50493 27.2546 7.25738 24.6797 7.73971 22.1955C8.22203 19.7114 9.41256 17.4295 11.1607 15.6385C12.9089 13.8476 15.1362 12.6279 17.561 12.1338C19.9858 11.6396 22.4992 11.8932 24.7833 12.8625C27.0674 13.8318 29.0197 15.4732 30.3932 17.5791C31.7668 19.6851 32.4999 22.1611 32.4999 24.6939C32.4957 28.089 31.1773 31.3437 28.834 33.7444C26.4907 36.1451 23.3137 37.4957 19.9997 37.5001ZM19.9997 12.4288C17.6304 12.4277 15.3139 13.1466 13.3434 14.4945C11.373 15.8424 9.83697 17.7587 8.92977 20.0011C8.02257 22.2435 7.78493 24.7111 8.24691 27.0919C8.70889 29.4726 9.84973 31.6595 11.5251 33.3759C13.2005 35.0923 15.3351 36.2611 17.659 36.7344C19.9829 37.2077 22.3916 36.9642 24.5804 36.0348C26.7692 35.1054 28.6397 33.5318 29.9554 31.5131C31.2711 29.4944 31.9728 27.1212 31.9717 24.6939C31.9675 21.4423 30.7048 18.3252 28.4605 16.026C26.2163 13.7267 23.1736 12.4331 19.9997 12.4288Z" fill="#505565" stroke="#505565" stroke-width="0.8"/>
<path d="M19.9999 34.1325C18.1773 34.1336 16.3954 33.5809 14.8795 32.5443C13.3636 31.5078 12.1818 30.034 11.4837 28.3093C10.7855 26.5845 10.6022 24.6864 10.9572 22.855C11.3121 21.0236 12.1892 19.3412 13.4775 18.0205C14.7659 16.6999 16.4076 15.8003 18.195 15.4357C19.9825 15.071 21.8353 15.2576 23.5192 15.9719C25.2032 16.6862 26.6425 17.896 27.6551 19.4484C28.6678 21.0008 29.2083 22.8261 29.2083 24.6932C29.2069 27.1953 28.2364 29.5945 26.51 31.3643C24.7835 33.134 22.4421 34.1296 19.9999 34.1325ZM19.9999 15.8005C18.2818 15.8005 16.6023 16.3225 15.1739 17.3005C13.7454 18.2785 12.6322 19.6685 11.9749 21.2947C11.3177 22.921 11.146 24.7104 11.4816 26.4366C11.8171 28.1629 12.6449 29.7484 13.8601 30.9926C15.0754 32.2368 16.6235 33.0838 18.3087 33.4265C19.9939 33.7693 21.7404 33.5923 23.3274 32.918C24.9144 32.2436 26.2705 31.1023 27.2243 29.6383C28.178 28.1742 28.6865 26.4533 28.6854 24.6932C28.6826 22.3346 27.7665 20.0736 26.1381 18.4064C24.5096 16.7391 22.3021 15.8019 19.9999 15.8005Z" fill="#505565" stroke="#505565" stroke-width="0.8"/>
</svg>
