<svg width="38" height="25" viewBox="0 0 38 25" fill="none" xmlns="http://www.w3.org/2000/svg">
<path d="M26.4942 2.11175C26.3563 1.51507 25.8885 0.860352 24.896 0.860352C23.9041 0.860352 23.4362 1.51448 23.2981 2.11099C14.6175 3.0152 11.9584 11.1436 11.548 12.6162L1.1596 17.1753C1.13281 17.187 1.11229 17.2062 1.08881 17.2221C1.07447 17.2319 1.05849 17.2397 1.04547 17.2508C1.01072 17.2803 0.982149 17.3161 0.957172 17.3546C0.950993 17.3642 0.941968 17.3719 0.936565 17.382C0.909548 17.4315 0.891814 17.4867 0.884657 17.5457C0.884341 17.5484 0.882588 17.5504 0.8823 17.5531C0.871494 17.6592 0.631673 20.1608 2.03771 21.2724C2.46907 21.6134 2.99355 21.7842 3.60586 21.7842C4.03813 21.7842 4.51409 21.699 5.03167 21.5287C8.62736 20.3451 9.87337 19.142 9.92464 19.0914C9.97115 19.0455 10.0053 18.9924 10.0282 18.9358C13.3239 19.5719 16.7455 20.6717 18.6768 22.5788C19.7106 23.5996 20.872 24.1162 22.1033 24.1162C22.7266 24.1162 23.3677 23.9838 24.0191 23.7175C27.0795 22.4657 29.8113 18.3083 30.0523 15.6462C33.1866 15.3893 35.5134 14.6025 36.9836 13.2958C37.0965 13.1956 37.1533 13.0478 37.1365 12.8989C37.125 12.7957 35.9147 3.10778 26.4942 2.11175ZM24.896 1.79034C25.1929 1.79034 25.3637 1.9021 25.4643 2.04049C25.2756 2.03373 25.0907 2.02284 24.896 2.02284C24.8141 2.02284 24.7371 2.02905 24.6561 2.03027C24.6234 2.02916 24.5927 2.02284 24.5596 2.02284C24.482 2.02284 24.4081 2.03413 24.3324 2.03992C24.4326 1.90412 24.6004 1.79034 24.896 1.79034ZM22.072 3.23493C19.5762 5.91755 18.7539 12.2593 18.5785 13.9172C15.7361 13.4224 13.4476 12.8603 12.5199 12.6205C13.022 10.8901 15.2917 4.63247 22.072 3.23493ZM4.73368 20.6464C3.80728 20.952 3.09816 20.9187 2.62772 20.5477C1.9458 20.0099 1.80215 18.8142 1.80333 18.0726C2.87257 18.0978 5.72219 18.2134 8.87707 18.7304C8.30241 19.1339 7.03183 19.89 4.73368 20.6464ZM23.6585 22.8583C22.0789 23.5036 20.6269 23.1889 19.3427 21.9213C15.6585 18.2833 7.32134 17.4101 3.41984 17.201L11.984 13.4424C13.1837 13.7617 20.8927 15.74 27.643 15.7401C27.6435 15.7401 27.6437 15.7401 27.6442 15.7401C28.1477 15.7401 28.633 15.7279 29.1038 15.7062C28.8168 17.9165 26.4873 21.7013 23.6585 22.8583ZM27.6442 14.8102C27.644 14.8102 27.6433 14.8102 27.643 14.8102C24.925 14.8101 22.0433 14.482 19.5077 14.0733C19.8348 10.7634 21.2415 3.25006 24.3777 2.96676C24.4652 2.96378 24.5529 2.96114 24.6416 2.95966C27.7739 3.09896 28.8936 11.0801 29.1086 14.7765C28.6385 14.7988 28.1506 14.8102 27.6442 14.8102ZM30.0483 14.7133C29.9234 12.5557 29.3344 5.73129 26.8233 3.0859C34.4275 4.13668 35.9401 11.3179 36.1671 12.7626C34.85 13.83 32.7966 14.4819 30.0483 14.7133Z" fill="#505565"/>
</svg>
