<svg width="479" height="278" viewBox="0 0 479 278" fill="none" xmlns="http://www.w3.org/2000/svg">
<g clip-path="url(#clip0)">
<g opacity="0.1">
<path opacity="0.1" d="M352.177 273.9C357.289 273.9 361.434 268.478 361.434 261.791C361.434 255.103 357.289 249.682 352.177 249.682C347.064 249.682 342.919 255.103 342.919 261.791C342.919 268.478 347.064 273.9 352.177 273.9Z" fill="#3F3D56"/>
<path opacity="0.1" d="M359.503 209.988C360.8 207.739 361.473 205.184 361.452 202.587C361.452 195.886 357.307 190.479 352.195 190.479C347.082 190.479 342.942 195.898 342.942 202.587C342.916 205.182 343.582 207.737 344.874 209.988C343.607 212.249 342.942 214.796 342.942 217.387C342.942 219.978 343.607 222.526 344.874 224.786C343.607 227.047 342.942 229.596 342.942 232.187C342.942 234.779 343.607 237.327 344.874 239.588C343.582 241.839 342.916 244.394 342.942 246.989C342.942 253.691 347.086 259.098 352.195 259.098C357.303 259.098 361.452 253.678 361.452 246.989C361.478 244.394 360.811 241.839 359.52 239.588C360.787 237.327 361.452 234.779 361.452 232.187C361.452 229.596 360.787 227.047 359.52 224.786C360.787 222.526 361.452 219.978 361.452 217.387C361.452 214.796 360.787 212.249 359.52 209.988H359.503Z" fill="#3F3D56"/>
<path opacity="0.1" d="M352.177 199.897C357.289 199.897 361.434 194.476 361.434 187.789C361.434 181.101 357.289 175.68 352.177 175.68C347.064 175.68 342.919 181.101 342.919 187.789C342.919 194.476 347.064 199.897 352.177 199.897Z" fill="#3F3D56"/>
<path opacity="0.1" d="M352.177 185.096C357.289 185.096 361.434 179.675 361.434 172.987C361.434 166.3 357.289 160.879 352.177 160.879C347.064 160.879 342.919 166.3 342.919 172.987C342.919 179.675 347.064 185.096 352.177 185.096Z" fill="#3F3D56"/>
<path opacity="0.1" d="M386.826 71.7018C388.089 70.0921 389.24 68.3974 390.27 66.6296L365.964 62.6381L392.269 62.8349C394.79 57.3476 396.165 51.4039 396.309 45.3675C396.453 39.331 395.364 33.3286 393.107 27.7273L357.813 46.0141L390.367 22.1148C387.316 16.8528 383.214 12.2747 378.317 8.66557C373.419 5.05639 367.831 2.49336 361.9 1.13601C355.968 -0.22133 349.821 -0.343932 343.84 0.775842C337.859 1.89562 332.173 4.2338 327.135 7.64484C322.098 11.0559 317.817 15.4668 314.558 20.6029C311.3 25.7391 309.134 31.4906 308.196 37.4994C307.258 43.5082 307.567 49.6457 309.105 55.5299C310.643 61.4141 313.376 66.9189 317.134 71.7018C315.164 74.206 313.47 76.9148 312.08 79.7814L343.649 96.175L309.989 84.8662C307.62 91.8466 307.031 99.3072 308.275 106.572C309.519 113.838 312.557 120.678 317.113 126.474C311.969 133.01 308.769 140.861 307.879 149.128C306.989 157.396 308.445 165.747 312.08 173.227C315.715 180.707 321.383 187.013 328.435 191.426C335.487 195.838 343.639 198.178 351.959 198.178C360.279 198.178 368.431 195.838 375.483 191.426C382.535 187.013 388.202 180.707 391.837 173.227C395.472 165.747 396.928 157.396 396.038 149.128C395.148 140.861 391.948 133.01 386.805 126.474C392.951 118.664 396.293 109.016 396.293 99.0797C396.293 89.1431 392.951 79.495 386.805 71.6851L386.826 71.7018Z" fill="#B76E79"/>
<path opacity="0.1" d="M307.645 99.0979C307.63 109.036 310.973 118.689 317.133 126.49C311.989 133.026 308.79 140.877 307.9 149.144C307.01 157.412 308.465 165.763 312.1 173.243C315.735 180.723 321.403 187.029 328.455 191.442C335.507 195.854 343.659 198.194 351.979 198.194C360.299 198.194 368.451 195.854 375.503 191.442C382.555 187.029 388.223 180.723 391.858 173.243C395.493 165.763 396.948 157.412 396.058 149.144C395.168 140.877 391.969 133.026 386.825 126.49C392.767 118.951 307.645 94.122 307.645 99.0979Z" fill="black"/>
</g>
<g opacity="0.1">
<path opacity="0.1" d="M92.5352 260.949C95.6458 260.949 98.1675 257.649 98.1675 253.577C98.1675 249.506 95.6458 246.206 92.5352 246.206C89.4245 246.206 86.9028 249.506 86.9028 253.577C86.9028 257.649 89.4245 260.949 92.5352 260.949Z" fill="#3F3D56"/>
<path opacity="0.5" d="M97.0151 222.044C97.8013 220.673 98.2078 219.117 98.1927 217.537C98.1927 213.466 95.6783 210.165 92.5562 210.165C89.4341 210.165 86.9239 213.466 86.9239 217.537C86.9075 219.117 87.3125 220.672 88.0973 222.044C87.328 223.421 86.9241 224.971 86.9241 226.548C86.9241 228.125 87.328 229.676 88.0973 231.053C87.328 232.43 86.9241 233.981 86.9241 235.558C86.9241 237.135 87.328 238.685 88.0973 240.062C87.3119 241.432 86.9068 242.986 86.9239 244.565C86.9239 248.64 89.4383 251.941 92.5562 251.941C95.6741 251.941 98.1927 248.64 98.1927 244.565C98.2085 242.986 97.8019 241.432 97.0151 240.062C97.7867 238.686 98.1919 237.135 98.1919 235.558C98.1919 233.98 97.7867 232.429 97.0151 231.053C97.7867 229.677 98.1919 228.126 98.1919 226.548C98.1919 224.971 97.7867 223.42 97.0151 222.044Z" fill="#3F3D56"/>
<path opacity="0.1" d="M92.5352 215.899C95.6458 215.899 98.1675 212.598 98.1675 208.527C98.1675 204.456 95.6458 201.155 92.5352 201.155C89.4245 201.155 86.9028 204.456 86.9028 208.527C86.9028 212.598 89.4245 215.899 92.5352 215.899Z" fill="#3F3D56"/>
<path opacity="0.1" d="M92.5352 206.889C95.6458 206.889 98.1675 203.588 98.1675 199.517C98.1675 195.446 95.6458 192.146 92.5352 192.146C89.4245 192.146 86.9028 195.446 86.9028 199.517C86.9028 203.588 89.4245 206.889 92.5352 206.889Z" fill="#3F3D56"/>
<path opacity="0.1" d="M71.4526 137.855C70.6834 136.876 69.9832 135.845 69.3572 134.768L84.163 132.339L68.1503 132.46C66.6173 129.122 65.781 125.506 65.6923 121.833C65.6037 118.16 66.2647 114.508 67.6348 111.099L89.1039 122.245L69.2944 107.669C71.1524 104.468 73.6496 101.683 76.6306 99.4878C79.6117 97.2927 83.0128 95.7341 86.6225 94.9091C90.2321 94.084 93.9729 94.0102 97.6123 94.6922C101.252 95.3741 104.712 96.7973 107.777 98.8731C110.843 100.949 113.448 103.633 115.431 106.758C117.414 109.884 118.732 113.384 119.304 117.04C119.875 120.696 119.688 124.431 118.753 128.012C117.819 131.593 116.157 134.944 113.871 137.855C115.07 139.378 116.101 141.025 116.947 142.768L97.7284 152.753L118.221 145.88C119.66 150.131 120.016 154.674 119.257 159.097C118.497 163.52 116.646 167.684 113.871 171.212C117.002 175.191 118.95 179.97 119.491 185.003C120.033 190.036 119.146 195.119 116.934 199.672C114.721 204.226 111.271 208.064 106.978 210.75C102.685 213.436 97.7223 214.861 92.6576 214.861C87.593 214.861 82.6305 213.436 78.3376 210.75C74.0447 208.064 70.5946 204.226 68.3817 199.672C66.1689 195.119 65.2826 190.036 65.8241 185.003C66.3657 179.97 68.3133 175.191 71.4442 171.212C67.7029 166.457 65.6689 160.583 65.6689 154.534C65.6689 148.484 67.7029 142.61 71.4442 137.855H71.4526Z" fill="#B76E79"/>
<path opacity="0.5" d="M119.645 154.533C119.654 160.584 117.619 166.461 113.87 171.212C117.001 175.19 118.948 179.969 119.49 185.002C120.032 190.035 119.145 195.119 116.932 199.672C114.72 204.225 111.269 208.064 106.977 210.75C102.684 213.436 97.7212 214.86 92.6565 214.86C87.5919 214.86 82.6294 213.436 78.3365 210.75C74.0436 208.064 70.5935 204.225 68.3806 199.672C66.1677 195.119 65.2814 190.035 65.823 185.002C66.3645 179.969 68.3121 175.19 71.443 171.212C67.8264 166.642 119.645 151.505 119.645 154.533Z" fill="black"/>
</g>
<g opacity="0.1">
<path opacity="0.5" d="M225.482 215.299C226.532 213.464 227.075 211.382 227.053 209.268C227.053 203.823 223.7 199.404 219.51 199.404C215.319 199.404 211.966 203.823 211.966 209.268C211.944 211.383 212.488 213.465 213.542 215.299C212.509 217.141 211.967 219.217 211.967 221.328C211.967 223.44 212.509 225.516 213.542 227.358C212.509 229.199 211.967 231.274 211.967 233.385C211.967 235.496 212.509 237.571 213.542 239.412C212.488 241.246 211.944 243.328 211.966 245.443C211.966 250.888 215.344 255.307 219.51 255.307C223.675 255.307 227.053 250.888 227.053 245.443C227.075 243.329 226.532 241.247 225.482 239.412C226.512 237.57 227.053 235.495 227.053 233.385C227.053 231.275 226.512 229.199 225.482 227.358C226.512 225.515 227.053 223.439 227.053 221.328C227.053 219.217 226.512 217.142 225.482 215.299Z" fill="#3F3D56"/>
<path opacity="0.1" d="M219.515 207.077C223.679 207.077 227.054 202.661 227.054 197.213C227.054 191.766 223.679 187.349 219.515 187.349C215.351 187.349 211.976 191.766 211.976 197.213C211.976 202.661 215.351 207.077 219.515 207.077Z" fill="#3F3D56"/>
<path opacity="0.1" d="M219.515 195.018C223.679 195.018 227.054 190.602 227.054 185.154C227.054 179.707 223.679 175.291 219.515 175.291C215.351 175.291 211.976 179.707 211.976 185.154C211.976 190.602 215.351 195.018 219.515 195.018Z" fill="#3F3D56"/>
<path opacity="0.1" d="M191.307 102.642C190.277 101.332 189.338 99.9521 188.499 98.5122L208.309 95.262L186.886 95.4211C184.83 90.9511 183.709 86.109 183.59 81.1909C183.471 76.2729 184.357 71.3822 186.194 66.8182L214.943 81.7207L188.428 62.2444C190.905 57.9419 194.244 54.1962 198.235 51.2414C202.226 48.2866 206.783 46.1861 211.623 45.0714C216.463 43.9566 221.481 43.8514 226.363 44.7624C231.246 45.6734 235.888 47.581 239.999 50.366C244.111 53.151 247.603 56.7535 250.259 60.9485C252.914 65.1435 254.675 69.8407 255.432 74.7467C256.189 79.6528 255.926 84.6621 254.659 89.4618C253.391 94.2615 251.147 98.7484 248.066 102.642C249.67 104.683 251.05 106.89 252.181 109.226L226.467 122.579L253.887 113.364C255.813 119.053 256.29 125.131 255.273 131.05C254.257 136.969 251.78 142.541 248.066 147.262C252.256 152.586 254.862 158.981 255.587 165.716C256.312 172.451 255.125 179.254 252.164 185.347C249.203 191.44 244.586 196.577 238.841 200.172C233.096 203.766 226.456 205.672 219.678 205.672C212.901 205.672 206.26 203.766 200.515 200.172C194.77 196.577 190.154 191.44 187.192 185.347C184.231 179.254 183.045 172.451 183.77 165.716C184.494 158.981 187.1 152.586 191.29 147.262C186.284 140.898 183.563 133.038 183.563 124.943C183.563 116.849 186.284 108.989 191.29 102.625L191.307 102.642Z" fill="#B76E79"/>
<path opacity="0.5" d="M255.794 124.963C255.806 133.059 253.083 140.923 248.066 147.279C252.256 152.603 254.862 158.999 255.587 165.734C256.312 172.469 255.125 179.272 252.164 185.365C249.203 191.458 244.586 196.595 238.841 200.189C233.096 203.783 226.456 205.689 219.678 205.689C212.901 205.689 206.26 203.783 200.515 200.189C194.77 196.595 190.154 191.458 187.192 185.365C184.231 179.272 183.045 172.469 183.77 165.734C184.494 158.999 187.1 152.603 191.29 147.279C186.45 141.139 255.794 120.909 255.794 124.963Z" fill="black"/>
</g>
<path d="M479 266.478C479 269.355 457.954 271.985 423.159 274.017C416.831 274.381 410.05 274.729 402.859 275.056C396.646 275.335 390.133 275.599 383.322 275.847C376.723 276.082 369.871 276.3 362.766 276.501C340.329 277.141 315.524 277.602 289.173 277.833C282.778 277.891 276.298 277.936 269.732 277.967C262.893 277.997 255.975 278.011 248.98 278.008C121.942 278.008 18.9634 272.853 18.9634 266.49C18.9634 260.128 121.942 254.972 248.98 254.972C303.673 254.972 353.899 255.931 393.375 257.523L397.692 257.699H397.717C447.444 259.806 479 262.976 479 266.478Z" fill="#3F3D56"/>
<path opacity="0.15" d="M479 266.478C479 269.355 457.954 271.985 423.159 274.017C416.831 274.381 410.05 274.729 402.859 275.056C396.646 275.335 390.133 275.599 383.322 275.847C376.723 276.082 369.871 276.3 362.766 276.501C340.329 277.141 315.524 277.602 289.173 277.833C282.778 277.891 276.298 277.936 269.732 277.967C262.893 277.997 255.975 278.011 248.98 278.008C121.942 278.008 18.9634 272.853 18.9634 266.49C18.9634 260.128 121.942 254.972 248.98 254.972C303.673 254.972 353.899 255.931 393.375 257.523L397.692 257.699H397.717C447.444 259.806 479 262.976 479 266.478Z" fill="black"/>
<path d="M460.037 264.451C460.037 266.855 438.991 269.058 404.196 270.733C397.872 271.039 391.087 271.328 383.9 271.6C377.684 271.835 371.171 272.055 364.363 272.262C357.764 272.457 350.912 272.64 343.807 272.811C321.366 273.347 296.561 273.732 270.21 273.925C263.82 273.972 257.34 274.009 250.769 274.034C243.93 274.059 237.014 274.071 230.021 274.071C102.983 274.071 0 269.761 0 264.438C0 259.114 102.983 254.805 230.021 254.805C284.71 254.805 334.935 255.605 374.412 256.936L378.728 257.083H378.758C428.502 258.872 460.037 261.506 460.037 264.451Z" fill="#3F3D56"/>
<path d="M59.4084 176.941L53.6335 159.27L191.928 157.758L197.593 175.253L59.4084 176.941Z" fill="#3F3D56"/>
<path opacity="0.15" d="M59.4084 176.941L53.6335 159.27L191.928 157.758L197.593 175.253L59.4084 176.941Z" fill="black"/>
<path d="M50.1889 176.941L44.4141 159.27L182.708 157.758L188.374 175.253L50.1889 176.941Z" fill="#3F3D56"/>
<path d="M276.155 152.15C261.857 152.15 250.588 146.477 242.349 135.132C234.11 123.787 229.99 110.043 229.99 93.9011C229.99 77.65 233.974 63.9342 241.942 52.7538C249.91 41.5734 261.15 35.9888 275.661 36C291.049 36 302.643 41.8904 310.444 53.6711C318.244 65.4518 322.146 79.0866 322.149 94.5755C322.149 109.953 318.111 123.395 310.037 134.902C301.963 146.409 290.669 152.158 276.155 152.15ZM276.574 139.388C285.981 139.388 293.012 135.29 297.666 127.095C302.321 118.899 304.648 108.568 304.648 96.1001C304.648 82.2224 302.266 70.8591 297.503 62.0103C292.739 53.1615 285.434 48.7357 275.585 48.7329C256.867 48.7329 247.507 63.5935 247.507 93.3148C247.507 124.033 257.194 139.391 276.566 139.388H276.574ZM281.285 261.602H260.603L395.998 38.2743H416.289L281.285 261.602ZM401.064 263.894C386.55 263.894 375.235 258.169 367.119 246.721C359.003 235.272 354.928 221.527 354.895 205.486C354.895 189.343 358.851 175.682 366.763 164.502C374.675 153.321 385.943 147.737 400.565 147.748C415.845 147.748 427.358 153.638 435.105 165.419C442.853 177.2 446.728 190.833 446.73 206.319C446.73 221.596 442.72 235.013 434.699 246.57C426.678 258.127 415.463 263.902 401.056 263.894H401.064ZM401.307 250.805C410.669 250.805 417.662 246.777 422.286 238.721C426.91 230.665 429.222 220.376 429.222 207.852C429.222 194.449 426.882 183.209 422.202 174.131C417.522 165.053 410.232 160.507 400.331 160.493C381.503 160.493 372.089 175.354 372.089 205.075C372.084 235.564 381.82 250.807 401.299 250.805H401.307Z" fill="#3F3D56"/>
<path d="M276.155 152.15C261.857 152.15 250.588 146.477 242.349 135.132C234.11 123.787 229.99 110.043 229.99 93.9011C229.99 77.65 233.974 63.9342 241.942 52.7538C249.91 41.5734 261.15 35.9888 275.661 36C291.049 36 302.643 41.8904 310.444 53.6711C318.244 65.4518 322.146 79.0866 322.149 94.5755C322.149 109.953 318.111 123.395 310.037 134.902C301.963 146.409 290.669 152.158 276.155 152.15ZM276.574 139.388C285.981 139.388 293.012 135.29 297.666 127.095C302.321 118.899 304.648 108.568 304.648 96.1001C304.648 82.2224 302.266 70.8591 297.503 62.0103C292.739 53.1615 285.434 48.7357 275.585 48.7329C256.867 48.7329 247.507 63.5935 247.507 93.3148C247.507 124.033 257.194 139.391 276.566 139.388H276.574ZM281.285 261.602H260.603L395.998 38.2743H416.289L281.285 261.602ZM401.064 263.894C386.55 263.894 375.235 258.169 367.119 246.721C359.003 235.272 354.928 221.527 354.895 205.486C354.895 189.343 358.851 175.682 366.763 164.502C374.675 153.321 385.943 147.737 400.565 147.748C415.845 147.748 427.358 153.638 435.105 165.419C442.853 177.2 446.728 190.833 446.73 206.319C446.73 221.596 442.72 235.013 434.699 246.57C426.678 258.127 415.463 263.902 401.056 263.894H401.064ZM401.307 250.805C410.669 250.805 417.662 246.777 422.286 238.721C426.91 230.665 429.222 220.376 429.222 207.852C429.222 194.449 426.882 183.209 422.202 174.131C417.522 165.053 410.232 160.507 400.331 160.493C381.503 160.493 372.089 175.354 372.089 205.075C372.084 235.564 381.82 250.807 401.299 250.805H401.307Z" fill="#3F3D56"/>
<path opacity="0.15" d="M276.155 152.15C261.857 152.15 250.588 146.477 242.349 135.132C234.11 123.787 229.99 110.043 229.99 93.9011C229.99 77.65 233.974 63.9342 241.942 52.7538C249.91 41.5734 261.15 35.9888 275.661 36C291.049 36 302.643 41.8904 310.444 53.6711C318.244 65.4518 322.146 79.0866 322.149 94.5755C322.149 109.953 318.111 123.395 310.037 134.902C301.963 146.409 290.669 152.158 276.155 152.15ZM276.574 139.388C285.981 139.388 293.012 135.29 297.666 127.095C302.321 118.899 304.648 108.568 304.648 96.1001C304.648 82.2224 302.266 70.8591 297.503 62.0103C292.739 53.1615 285.434 48.7357 275.585 48.7329C256.867 48.7329 247.507 63.5935 247.507 93.3148C247.507 124.033 257.194 139.391 276.566 139.388H276.574ZM281.285 261.602H260.603L395.998 38.2743H416.289L281.285 261.602ZM401.064 263.894C386.55 263.894 375.235 258.169 367.119 246.721C359.003 235.272 354.928 221.527 354.895 205.486C354.895 189.343 358.851 175.682 366.763 164.502C374.675 153.321 385.943 147.737 400.565 147.748C415.845 147.748 427.358 153.638 435.105 165.419C442.853 177.2 446.728 190.833 446.73 206.319C446.73 221.596 442.72 235.013 434.699 246.57C426.678 258.127 415.463 263.902 401.056 263.894H401.064ZM401.307 250.805C410.669 250.805 417.662 246.777 422.286 238.721C426.91 230.665 429.222 220.376 429.222 207.852C429.222 194.449 426.882 183.209 422.202 174.131C417.522 165.053 410.232 160.507 400.331 160.493C381.503 160.493 372.089 175.354 372.089 205.075C372.084 235.564 381.82 250.807 401.299 250.805H401.307Z" fill="black"/>
<path d="M263.165 152.15C248.866 152.15 237.597 146.477 229.358 135.132C221.119 123.787 217 110.043 217 93.9011C217 77.65 220.984 63.9342 228.952 52.7538C236.92 41.5734 248.159 35.9888 262.671 36C278.059 36 289.653 41.8904 297.454 53.6711C305.254 65.4518 309.155 79.0866 309.158 94.5755C309.158 109.953 305.121 123.395 297.047 134.902C288.973 146.409 277.679 152.158 263.165 152.15ZM263.584 139.388C272.991 139.388 280.022 135.29 284.676 127.095C289.331 118.899 291.658 108.568 291.658 96.1001C291.658 82.2224 289.276 70.8591 284.513 62.0103C279.749 53.1615 272.443 48.7357 262.595 48.7329C243.877 48.7329 234.517 63.5935 234.517 93.3148C234.517 124.033 244.203 139.391 263.576 139.388H263.584ZM268.294 261.602H247.613L383.007 38.2743H403.299L268.294 261.602ZM388.074 263.894C373.56 263.894 362.245 258.169 354.129 246.721C346.013 235.272 341.938 221.527 341.905 205.486C341.905 189.343 345.861 175.682 353.773 164.502C361.685 153.321 372.952 147.737 387.575 147.748C402.855 147.748 414.368 153.638 422.115 165.419C429.862 177.2 433.737 190.833 433.74 206.319C433.74 221.596 429.73 235.013 421.709 246.57C413.688 258.127 402.473 263.902 388.065 263.894H388.074ZM388.317 250.805C397.679 250.805 404.672 246.777 409.296 238.721C413.919 230.665 416.231 220.376 416.231 207.852C416.231 194.449 413.892 183.209 409.212 174.131C404.532 165.053 397.239 160.507 387.332 160.493C368.505 160.493 359.091 175.354 359.091 205.075C359.091 235.564 368.83 250.807 388.309 250.805H388.317Z" fill="#3F3D56"/>
<path d="M318.524 264.845C320.25 261.645 318.289 257.724 316.035 254.868C313.78 252.011 311.031 249.046 311.09 245.406C311.173 240.183 316.722 237.096 321.147 234.323C324.439 232.269 327.474 229.831 330.191 227.061C331.328 225.994 332.269 224.735 332.969 223.341C333.887 221.297 333.858 218.973 333.807 216.736C333.615 209.275 333.246 201.825 332.701 194.387" stroke="#3F3D56" stroke-width="4" stroke-miterlimit="10"/>
<path d="M341.134 193.975C341.071 192.61 340.665 191.283 339.954 190.117C339.243 188.95 338.249 187.981 337.065 187.299L335.238 190.909L335.292 186.536C334.421 186.282 333.513 186.173 332.606 186.214C330.995 186.289 329.442 186.841 328.145 187.798C326.847 188.755 325.863 190.076 325.316 191.592C324.769 193.109 324.684 194.753 325.073 196.318C325.461 197.883 326.305 199.297 327.497 200.382C328.69 201.468 330.178 202.175 331.773 202.415C333.367 202.656 334.998 202.418 336.457 201.732C337.917 201.046 339.14 199.943 339.973 198.563C340.805 197.182 341.21 195.585 341.134 193.975Z" fill="#B76E79"/>
<path d="M326.591 249.154C325.735 250.815 324.334 252.133 322.622 252.884C320.91 253.636 318.992 253.776 317.188 253.282C315.385 252.788 313.806 251.689 312.717 250.17C311.629 248.651 311.095 246.803 311.207 244.938C311.319 243.072 312.07 241.302 313.332 239.924C314.595 238.546 316.294 237.643 318.143 237.368C319.993 237.093 321.881 237.462 323.491 238.412C325.1 239.363 326.334 240.838 326.985 242.59L321.889 246.733L327.505 245.426C327.502 246.724 327.189 248.002 326.591 249.154Z" fill="#B76E79"/>
<path d="M322.565 233.317C321.495 233.368 320.426 233.207 319.418 232.844C318.411 232.481 317.485 231.923 316.693 231.202C315.901 230.482 315.259 229.612 314.803 228.643C314.347 227.674 314.087 226.625 314.037 225.556C313.974 224.28 314.215 223.006 314.741 221.841C315.228 220.752 315.948 219.783 316.85 219.003C317.753 218.222 318.815 217.648 319.963 217.322L319.917 220.672L321.765 217.02C323.925 216.919 326.038 217.68 327.637 219.135C329.236 220.591 330.192 222.622 330.293 224.781C330.394 226.941 329.633 229.052 328.176 230.65C326.72 232.249 324.688 233.204 322.527 233.305L322.565 233.317Z" fill="#B76E79"/>
<path d="M342.362 220.154C341.279 220.226 340.193 220.081 339.167 219.728C338.141 219.376 337.196 218.822 336.387 218.1C335.578 217.378 334.921 216.501 334.454 215.522C333.988 214.543 333.722 213.481 333.671 212.398C333.62 211.315 333.786 210.232 334.159 209.214C334.532 208.196 335.104 207.262 335.842 206.468C336.581 205.673 337.47 205.034 338.458 204.587C339.447 204.14 340.515 203.894 341.599 203.865C343.123 203.791 344.637 204.149 345.966 204.899L344.524 208.845L347.491 206.001C349.084 207.452 350.035 209.475 350.136 211.626C350.173 212.381 350.102 213.137 349.926 213.871C349.521 215.598 348.563 217.146 347.198 218.28C345.833 219.413 344.135 220.071 342.362 220.154Z" fill="#B76E79"/>
<path opacity="0.1" d="M340.036 196.149C338.154 196.354 336.327 196.94 334.437 197.058C332.547 197.175 330.472 196.722 329.278 195.252C328.633 194.465 328.314 193.464 327.769 192.601C327.255 191.798 326.549 191.134 325.716 190.67C325.192 191.703 324.895 192.836 324.844 193.993C324.793 195.15 324.989 196.304 325.42 197.38C325.85 198.455 326.504 199.426 327.34 200.229C328.175 201.031 329.172 201.647 330.264 202.034C331.356 202.421 332.518 202.572 333.673 202.475C334.827 202.378 335.948 202.037 336.96 201.473C337.973 200.909 338.853 200.137 339.543 199.206C340.233 198.276 340.717 197.209 340.962 196.077C340.652 196.094 340.346 196.115 340.036 196.149Z" fill="black"/>
<path opacity="0.1" d="M342.362 220.153C340.956 220.217 339.558 219.917 338.303 219.282C337.048 218.647 335.978 217.698 335.198 216.529C334.417 215.359 333.953 214.007 333.849 212.605C333.745 211.203 334.005 209.798 334.605 208.526C335.251 208.963 335.807 209.521 336.243 210.167C336.826 211.043 337.178 212.056 337.861 212.861C339.118 214.356 341.301 214.842 343.267 214.754C345.232 214.666 347.135 214.105 349.096 213.916C349.368 213.891 349.645 213.874 349.934 213.866C349.529 215.595 348.57 217.145 347.203 218.279C345.837 219.414 344.137 220.072 342.362 220.153Z" fill="black"/>
<path opacity="0.1" d="M322.565 233.317C321.495 233.367 320.426 233.206 319.418 232.843C318.411 232.48 317.485 231.923 316.693 231.202C315.901 230.481 315.259 229.612 314.803 228.643C314.347 227.674 314.087 226.625 314.037 225.556C313.974 224.279 314.215 223.006 314.741 221.841C315.413 222.289 315.997 222.857 316.463 223.516C317.096 224.408 317.494 225.439 318.236 226.264C319.611 227.793 321.924 228.333 324.007 228.283C326.09 228.232 327.971 227.747 329.979 227.592C329.481 229.191 328.502 230.599 327.176 231.624C325.85 232.648 324.24 233.239 322.565 233.317Z" fill="black"/>
<path opacity="0.1" d="M326.592 249.154C325.643 251.018 324.014 252.446 322.041 253.143C320.068 253.839 317.902 253.751 315.992 252.897C314.082 252.043 312.574 250.487 311.779 248.552C310.985 246.618 310.965 244.452 311.723 242.503C312.395 242.944 312.998 243.482 313.513 244.098C314.288 245.045 314.799 246.117 315.696 246.997C317.373 248.63 320.055 249.305 322.452 249.367C323.835 249.379 325.218 249.307 326.592 249.154Z" fill="black"/>
<path d="M444.666 264.426C446.392 261.226 444.431 257.305 442.176 254.449C439.922 251.592 437.173 248.627 437.231 244.987C437.315 239.764 442.864 236.677 447.289 233.904C450.58 231.849 453.616 229.411 456.333 226.642C457.47 225.575 458.411 224.316 459.111 222.922C460.029 220.878 460 218.554 459.949 216.317C459.756 208.856 459.388 201.406 458.843 193.968" stroke="#3F3D56" stroke-width="4" stroke-miterlimit="10"/>
<path d="M467.274 193.556C467.211 192.191 466.805 190.864 466.094 189.697C465.383 188.531 464.39 187.561 463.205 186.879L461.378 190.49L461.432 186.117C460.561 185.863 459.653 185.754 458.746 185.795C457.135 185.87 455.583 186.421 454.285 187.379C452.987 188.336 452.003 189.657 451.456 191.173C450.909 192.69 450.824 194.334 451.213 195.899C451.601 197.463 452.445 198.878 453.637 199.963C454.83 201.048 456.318 201.756 457.913 201.996C459.508 202.236 461.138 201.999 462.598 201.313C464.057 200.627 465.281 199.524 466.113 198.143C466.945 196.763 467.35 195.166 467.274 193.556Z" fill="#B76E79"/>
<path d="M452.732 248.735C451.877 250.397 450.475 251.714 448.763 252.466C447.051 253.217 445.133 253.358 443.33 252.864C441.526 252.369 439.948 251.271 438.859 249.751C437.77 248.232 437.237 246.385 437.349 244.519C437.461 242.654 438.211 240.883 439.474 239.505C440.737 238.127 442.435 237.224 444.285 236.949C446.134 236.674 448.022 237.043 449.632 237.994C451.242 238.945 452.475 240.42 453.126 242.172L448.03 246.314L453.646 245.007C453.644 246.305 453.33 247.583 452.732 248.735Z" fill="#B76E79"/>
<path d="M448.705 232.898C447.635 232.949 446.566 232.788 445.559 232.425C444.551 232.062 443.625 231.504 442.833 230.783C442.041 230.063 441.399 229.193 440.943 228.224C440.487 227.256 440.227 226.207 440.177 225.137C440.114 223.861 440.355 222.587 440.881 221.422C441.368 220.333 442.088 219.364 442.99 218.584C443.893 217.803 444.955 217.229 446.103 216.903L446.057 220.254L447.905 216.601H447.926C448.996 216.551 450.065 216.712 451.072 217.075C452.08 217.438 453.006 217.996 453.798 218.717C454.59 219.437 455.232 220.307 455.688 221.275C456.143 222.244 456.404 223.293 456.454 224.362C456.504 225.432 456.343 226.5 455.98 227.507C455.617 228.514 455.058 229.44 454.337 230.232C453.616 231.023 452.746 231.665 451.777 232.12C450.808 232.576 449.758 232.836 448.689 232.886L448.705 232.898Z" fill="#B76E79"/>
<path d="M468.502 219.735C467.419 219.807 466.333 219.662 465.308 219.309C464.282 218.957 463.336 218.403 462.527 217.681C461.718 216.959 461.061 216.082 460.594 215.103C460.128 214.124 459.862 213.062 459.811 211.979C459.76 210.896 459.926 209.813 460.299 208.795C460.672 207.777 461.244 206.843 461.982 206.049C462.721 205.254 463.61 204.615 464.599 204.168C465.587 203.721 466.655 203.475 467.739 203.446C469.263 203.372 470.777 203.73 472.106 204.48L470.664 208.426L473.631 205.582C475.224 207.033 476.175 209.056 476.276 211.207C476.313 211.962 476.242 212.717 476.066 213.452C475.661 215.179 474.703 216.727 473.338 217.861C471.973 218.994 470.275 219.652 468.502 219.735Z" fill="#B76E79"/>
<path opacity="0.1" d="M466.176 195.73C464.294 195.935 462.467 196.521 460.577 196.639C458.687 196.756 456.613 196.304 455.418 194.833C454.773 194.046 454.454 193.045 453.91 192.182C453.395 191.379 452.69 190.716 451.856 190.251C451.333 191.284 451.035 192.417 450.984 193.574C450.933 194.731 451.129 195.886 451.56 196.961C451.99 198.036 452.645 199.007 453.48 199.81C454.315 200.612 455.312 201.228 456.404 201.615C457.496 202.002 458.658 202.153 459.813 202.056C460.967 201.959 462.088 201.618 463.1 201.054C464.113 200.49 464.993 199.718 465.683 198.787C466.373 197.857 466.857 196.79 467.102 195.659C466.792 195.675 466.486 195.696 466.176 195.73Z" fill="black"/>
<path opacity="0.1" d="M468.502 219.734C467.097 219.798 465.699 219.498 464.443 218.863C463.188 218.228 462.119 217.28 461.338 216.11C460.558 214.94 460.093 213.588 459.989 212.186C459.885 210.784 460.145 209.379 460.745 208.107C461.391 208.545 461.947 209.102 462.383 209.749C462.966 210.624 463.318 211.638 464.001 212.442C465.258 213.937 467.442 214.423 469.407 214.335C471.373 214.247 473.275 213.686 475.236 213.497C475.509 213.472 475.785 213.456 476.074 213.447C475.669 215.176 474.71 216.726 473.344 217.861C471.977 218.995 470.277 219.653 468.502 219.734Z" fill="black"/>
<path opacity="0.1" d="M448.705 232.898C447.635 232.949 446.566 232.788 445.559 232.425C444.551 232.062 443.625 231.504 442.833 230.783C442.041 230.063 441.399 229.193 440.943 228.224C440.487 227.256 440.227 226.207 440.177 225.137C440.114 223.861 440.355 222.587 440.881 221.422C441.554 221.87 442.138 222.438 442.604 223.097C443.236 223.99 443.635 225.02 444.376 225.845C445.751 227.374 448.064 227.914 450.147 227.864C452.167 227.822 454.111 227.328 456.119 227.173C455.621 228.773 454.643 230.181 453.316 231.205C451.99 232.23 450.38 232.821 448.705 232.898Z" fill="black"/>
<path opacity="0.1" d="M452.733 248.735C451.784 250.599 450.155 252.027 448.182 252.724C446.209 253.421 444.043 253.333 442.133 252.478C440.223 251.624 438.715 250.068 437.921 248.134C437.126 246.199 437.106 244.033 437.865 242.084C438.536 242.525 439.139 243.063 439.654 243.68C440.429 244.626 440.941 245.698 441.837 246.578C443.514 248.212 446.196 248.886 448.593 248.949C449.976 248.96 451.359 248.889 452.733 248.735Z" fill="black"/>
<path d="M46.0688 258.981C44.3422 255.781 46.3035 251.861 48.5581 249.004C50.8127 246.148 53.5618 243.182 53.5031 239.542C53.4193 234.319 47.8708 231.232 43.4454 228.46C40.1541 226.405 37.1184 223.967 34.4018 221.197C33.2642 220.13 32.3237 218.871 31.6234 217.478C30.7056 215.434 30.7349 213.109 30.7852 210.872C30.978 203.411 31.3468 195.962 31.8916 188.523" stroke="#3F3D56" stroke-width="4" stroke-miterlimit="10"/>
<path d="M23.4591 188.111C23.5221 186.747 23.9279 185.42 24.6391 184.253C25.3502 183.086 26.3438 182.117 27.5283 181.435L29.3554 185.045L29.301 180.673C30.1725 180.418 31.0801 180.309 31.9872 180.35C33.5983 180.426 35.1509 180.977 36.4485 181.934C37.7462 182.892 38.7307 184.212 39.2775 185.729C39.8243 187.245 39.9089 188.89 39.5206 190.454C39.1323 192.019 38.2885 193.433 37.096 194.519C35.9034 195.604 34.4156 196.311 32.8207 196.552C31.2258 196.792 29.5955 196.554 28.1359 195.868C26.6762 195.183 25.4528 194.08 24.6204 192.699C23.7879 191.318 23.3838 189.722 23.4591 188.111Z" fill="#B76E79"/>
<path d="M38.0022 243.29C38.8579 244.952 40.2592 246.269 41.9712 247.02C43.6832 247.772 45.6017 247.913 47.405 247.418C49.2083 246.924 50.7868 245.825 51.8758 244.306C52.9647 242.787 53.4979 240.94 53.386 239.074C53.274 237.209 52.5237 235.438 51.2608 234.06C49.9979 232.682 48.2993 231.779 46.4498 231.504C44.6003 231.229 42.7124 231.598 41.1026 232.549C39.4928 233.499 38.2591 234.975 37.6083 236.727L42.7042 240.869L37.0886 239.562C37.091 240.86 37.4042 242.138 38.0022 243.29Z" fill="#B76E79"/>
<path d="M42.0294 227.454C43.0992 227.504 44.1685 227.343 45.1761 226.98C46.1837 226.617 47.1099 226.059 47.9018 225.338C48.6938 224.618 49.3359 223.748 49.7915 222.779C50.2472 221.811 50.5075 220.762 50.5575 219.692C50.6209 218.416 50.3796 217.142 49.8534 215.977C49.3663 214.888 48.6463 213.92 47.7441 213.139C46.842 212.358 45.7796 211.784 44.6318 211.458L44.6779 214.809L42.8298 211.156C40.6691 211.055 38.5568 211.816 36.9574 213.272C35.3581 214.727 34.4028 216.758 34.3017 218.918C34.2005 221.077 34.9618 223.188 36.4181 224.787C37.8744 226.385 39.9064 227.34 42.0671 227.441L42.0294 227.454Z" fill="#B76E79"/>
<path d="M22.2316 214.289C23.3142 214.361 24.4002 214.216 25.4261 213.864C26.452 213.511 27.3973 212.957 28.2066 212.235C29.0159 211.513 29.6729 210.637 30.1393 209.658C30.6057 208.679 30.872 207.617 30.9227 206.533C30.9734 205.45 30.8075 204.368 30.4347 203.35C30.0618 202.331 29.4895 201.398 28.7512 200.603C28.013 199.808 27.1236 199.169 26.1351 198.722C25.1466 198.275 24.0789 198.03 22.9944 198C21.4773 197.93 19.9711 198.289 18.6486 199.035L20.0902 202.98L17.1022 200.149C15.5128 201.597 14.5619 203.615 14.4578 205.762C14.4207 206.516 14.4913 207.272 14.6674 208.007C15.073 209.734 16.0309 211.281 17.3959 212.415C18.761 213.549 20.4587 214.207 22.2316 214.289Z" fill="#B76E79"/>
<path opacity="0.1" d="M24.5573 190.285C26.4389 190.491 28.266 191.077 30.1561 191.194C32.0461 191.312 34.1205 190.859 35.3148 189.389C35.9602 188.602 36.2787 187.601 36.8235 186.738C37.338 185.935 38.0435 185.271 38.877 184.807C39.4004 185.84 39.6977 186.973 39.7488 188.13C39.7999 189.287 39.6037 190.441 39.1734 191.516C38.7431 192.592 38.0884 193.563 37.2531 194.365C36.4177 195.168 35.4209 195.783 34.3289 196.171C33.2369 196.558 32.0749 196.708 30.9203 196.612C29.7656 196.515 28.6449 196.173 27.6326 195.61C26.6204 195.046 25.74 194.273 25.05 193.343C24.36 192.413 23.8763 191.346 23.6311 190.214C23.9412 190.231 24.2471 190.252 24.5573 190.285Z" fill="black"/>
<path opacity="0.1" d="M22.2311 214.289C23.6364 214.353 25.0344 214.053 26.2896 213.418C27.5447 212.783 28.6144 211.835 29.3948 210.665C30.1753 209.495 30.64 208.143 30.7439 206.741C30.8479 205.339 30.5875 203.934 29.9881 202.662C29.342 203.1 28.7858 203.657 28.3496 204.304C27.767 205.179 27.415 206.193 26.7319 206.997C25.4747 208.492 23.2913 208.978 21.3259 208.89C19.3604 208.802 17.4579 208.241 15.4966 208.052C15.2242 208.027 14.9476 208.011 14.6584 208.002C15.0636 209.731 16.0225 211.281 17.3893 212.416C18.7561 213.55 20.4561 214.208 22.2311 214.289Z" fill="black"/>
<path opacity="0.1" d="M42.0291 227.453C43.099 227.504 44.1683 227.343 45.1759 226.98C46.1835 226.617 47.1097 226.059 47.9016 225.338C48.6935 224.618 49.3357 223.748 49.7913 222.779C50.247 221.81 50.5072 220.761 50.5573 219.692C50.6207 218.416 50.3794 217.142 49.8532 215.977C49.1808 216.425 48.5969 216.993 48.1308 217.652C47.498 218.545 47.0999 219.575 46.3581 220.4C44.9836 221.929 42.6703 222.469 40.5875 222.419C38.5676 222.377 36.6231 221.883 34.6157 221.728C35.1133 223.328 36.0918 224.736 37.4182 225.76C38.7447 226.784 40.3546 227.376 42.0291 227.453Z" fill="black"/>
<path opacity="0.1" d="M38.002 243.29C38.9509 245.154 40.5805 246.582 42.5535 247.279C44.5264 247.976 46.6919 247.888 48.6019 247.033C50.5118 246.179 52.0201 244.623 52.8146 242.689C53.6092 240.754 53.6293 238.588 52.8707 236.639C52.1993 237.08 51.5964 237.618 51.0812 238.235C50.3059 239.181 49.7947 240.253 48.8978 241.133C47.2215 242.766 44.5395 243.441 42.1424 243.504C40.7592 243.515 39.3766 243.444 38.002 243.29Z" fill="black"/>
<path d="M301 177.95C301.015 175.989 300.569 174.051 299.699 172.292C298.828 170.534 297.557 169.002 295.986 167.822C295.792 160.404 290.487 154.345 283.664 153.406C283.137 150.886 281.954 148.548 280.234 146.628C278.514 144.709 276.318 143.274 273.865 142.469C273.269 142.281 272.658 142.137 272.04 142.04H271.862L271.545 142H271.278H271.01H270.661H270.45H269.874C262.914 142 257.122 147.307 255.93 154.304C251.428 153.269 247.299 154.612 246.561 157.451C246.37 158.204 246.412 158.996 246.682 159.724C247.445 161.924 249.927 164.028 253.293 165.071L253.732 165.201C253.951 165.265 254.17 165.314 254.389 165.363H254.535C253.297 167.994 253.121 170.999 254.044 173.756C254.966 176.514 256.917 178.811 259.491 180.174C259.39 180.23 259.292 180.292 259.199 180.36C258.783 180.741 258.452 181.204 258.226 181.719C257.412 183.143 256.78 184.662 256.344 186.242C256.019 187.592 255.962 189.008 255.532 190.343C254.794 192.77 252.896 194.897 252.677 197.478C252.58 198.627 252.766 199.978 251.947 200.762C251.743 200.937 251.526 201.097 251.298 201.239C250.724 201.631 250.237 202.138 249.87 202.728C249.631 203.216 249.31 203.659 248.921 204.038C248.183 204.597 246.966 204.54 246.601 205.398C246.236 206.255 247.177 207.266 246.958 208.205C246.78 208.965 245.944 209.313 245.336 209.822C244.655 210.559 244.18 211.459 243.957 212.435C242.745 212.668 241.496 212.632 240.3 212.329C239.104 212.025 237.99 211.462 237.037 210.68C237.364 211.513 237.603 212.378 237.751 213.261C236.786 212.233 235.196 211.934 234.02 211.4C232.503 210.707 231.148 209.704 230.045 208.455L232.17 208.164L222.76 193.927L219.986 193.36L222.476 198.125C222.273 198.223 222.094 198.365 221.953 198.542C221.813 198.718 221.714 198.924 221.665 199.144C221.531 199.673 221.498 200.222 221.568 200.762C221.7 202.039 221.914 203.307 222.209 204.556L222.931 207.905C222.992 208.219 223.07 208.53 223.166 208.836C222.225 208.802 221.285 208.908 220.375 209.151C218.51 208.463 216.568 208.004 214.592 207.784C214.157 207.708 213.711 207.73 213.286 207.849C212.803 208.071 212.385 208.41 212.069 208.836C210.446 210.706 209.007 212.727 207.769 214.87C202.716 223.639 195.967 231.292 189.647 239.22C185.283 240.991 180.887 242.674 176.482 244.34L167.015 247.94C165.125 248.66 163.162 249.396 161.15 249.267C160.242 249.21 159.139 249.073 158.628 249.841C158.379 250.222 158.185 250.636 158.052 251.071C157.719 251.071 157.386 251.152 157.078 251.168H157.021C156.421 249.68 155.902 248.086 154.75 247.002C154.518 247.037 154.299 247.13 154.112 247.271C153.925 247.412 153.776 247.598 153.679 247.811C153.452 248.231 153.314 248.693 153.055 249.081C152.544 249.825 151.659 250.189 151.027 250.82C150.394 251.451 149.996 252.438 149.315 253.053C148.361 253.744 147.243 254.177 146.07 254.307C144.314 254.719 142.62 255.361 141.033 256.216C140.447 256.575 139.821 256.863 139.167 257.073C138.448 257.211 137.712 257.235 136.985 257.146L131.972 256.782C131.526 256.724 131.073 256.743 130.633 256.839C130.117 257.028 129.678 257.381 129.384 257.845C129.091 258.309 128.959 258.857 129.011 259.403C129.072 259.945 129.244 260.469 129.516 260.942C129.788 261.415 130.155 261.827 130.593 262.154C131.463 262.79 132.426 263.289 133.448 263.634C137.804 265.317 142.295 266.629 146.873 267.557V268.569C150.047 270.162 153.55 270.993 157.102 270.995C157.364 271.016 157.627 270.968 157.865 270.858C158.193 270.612 158.421 270.255 158.506 269.855C159.57 266.682 160.242 263.393 160.509 260.058C161.136 260.018 161.749 259.862 162.318 259.597C164.046 259.128 165.758 260.309 167.534 260.503C169.725 260.738 171.761 259.468 173.829 258.683C174.129 258.57 174.43 258.473 174.73 258.376C174.14 259.137 173.443 259.81 172.661 260.374C171.801 260.989 170.836 261.442 169.992 262.081C169.291 262.72 168.54 263.301 167.745 263.82C167.185 264.08 166.608 264.302 166.017 264.483C165.161 264.795 164.345 265.205 163.584 265.705C162.902 266.105 162.325 266.659 161.897 267.323C161.681 267.632 161.549 267.992 161.512 268.367C161.475 268.742 161.535 269.12 161.686 269.466C161.837 269.811 162.075 270.112 162.376 270.341C162.677 270.569 163.031 270.716 163.405 270.769C164.083 270.889 164.775 270.908 165.458 270.825C168.167 270.623 170.868 270.372 173.57 270.13C174.713 270.054 175.849 269.891 176.969 269.644C177.561 269.499 178.145 269.305 178.737 269.151C179.747 268.885 180.784 268.731 181.828 268.69C182.131 268.666 182.436 268.696 182.728 268.779C183.361 268.981 183.807 269.588 184.448 269.75C184.864 269.79 185.283 269.732 185.673 269.58C187.65 269.151 189.668 268.937 191.692 268.941C192.576 268.892 193.614 268.722 194.028 267.905C194.531 266.894 193.687 265.761 193.355 264.669C193.185 263.975 193.093 263.264 193.079 262.55C192.925 260.787 192.417 259.074 191.586 257.51C191.145 256.781 190.773 256.011 190.475 255.213C194.351 253.742 198.06 251.866 201.54 249.615C203.535 248.377 205.595 247.042 207.851 246.589C210.479 246.063 213.188 246.759 215.776 247.503C221.94 249.282 228.003 251.391 233.938 253.821C236.778 254.978 239.617 256.208 242.521 257.057C243.37 258.2 244.397 259.199 245.563 260.018C247.51 261.272 249.886 261.636 252.174 261.814C255.264 262.095 258.368 262.211 261.47 262.162C263.839 262.121 266.281 261.959 268.398 260.883C268.915 260.619 269.402 260.299 269.85 259.929C271.472 260.22 273.135 259.355 274.409 258.246C276.094 256.816 277.31 254.914 277.897 252.786C278.643 249.866 278.067 246.46 279.868 244.073C280.347 243.434 280.971 242.917 281.442 242.27C282.021 241.403 282.306 240.373 282.253 239.333L282.334 239.212C282.742 238.273 283.015 237.282 283.145 236.267C283.359 235.475 283.63 234.699 283.956 233.945C284.871 231.688 285.667 229.385 286.341 227.045C286.81 225.493 287.179 223.912 287.445 222.313C287.639 221.035 287.753 219.748 287.858 218.462C287.988 216.449 288.381 214.461 289.026 212.549C290.628 207.985 291.533 203.207 291.711 198.376C291.711 198.279 291.711 198.19 291.711 198.093C294.067 197.835 296.241 196.711 297.808 194.939C299.376 193.168 300.225 190.877 300.188 188.515C300.191 187.091 299.892 185.682 299.312 184.381C300.432 182.422 301.014 180.204 301 177.95ZM255.127 233.533C255.265 234.026 255.427 234.52 255.589 235.013C254.843 234.277 254.105 233.517 253.35 232.789C253.65 232.878 253.951 232.975 254.243 233.08C254.554 233.203 254.852 233.354 255.135 233.533H255.127ZM251.493 231.106C247.064 227.272 241.937 224.295 237.402 220.59C239.836 221.811 242.269 223.227 244.703 224.586C247.537 226.204 250.403 227.752 253.302 229.229C252.826 229.949 252.221 230.574 251.517 231.074L251.493 231.106ZM253.383 221.447L253.594 221.229C253.594 221.771 253.594 222.28 253.594 222.741C253.196 222.612 252.782 222.483 252.401 222.337C252.751 222.052 253.082 221.744 253.391 221.415L253.383 221.447ZM214.389 231.834C216.213 229.777 217.799 227.522 219.118 225.112C220.87 228.178 223.726 230.386 226.159 232.95C222.249 232.4 218.331 231.972 214.397 231.802L214.389 231.834Z" fill="url(#paint0_linear)"/>
<path d="M216.822 193.947L219.624 194.515L229.167 208.607L224.952 209.175L216.822 193.947Z" fill="#2F2E41"/>
<path d="M148.96 251.14C149.716 253.638 150.647 256.079 151.746 258.446C154.908 257.785 158.019 256.898 161.054 255.791C160.467 254.877 159.821 254.001 159.121 253.169C158.375 252.34 157.483 251.655 156.49 251.148C155.523 250.726 154.329 251.043 153.298 251.099C151.852 251.153 150.406 251.167 148.96 251.14Z" fill="#FBBEBE"/>
<path d="M156.508 254.909C154.933 254.414 153.966 252.823 153.324 251.289C152.683 249.755 152.163 248.083 150.945 246.954C150.713 246.991 150.493 247.084 150.306 247.225C150.119 247.367 149.97 247.553 149.872 247.766C149.637 248.172 149.499 248.635 149.231 249.024C148.727 249.755 147.834 250.112 147.192 250.737C146.551 251.362 146.153 252.312 145.462 252.937C144.504 253.625 143.386 254.055 142.214 254.187C140.443 254.588 138.733 255.221 137.129 256.07C136.535 256.414 135.903 256.687 135.245 256.882C134.519 257.02 133.777 257.045 133.044 256.955L127.984 256.59C127.534 256.534 127.078 256.556 126.636 256.655C126.12 256.834 125.68 257.181 125.385 257.64C125.091 258.1 124.959 258.644 125.011 259.187C125.078 259.728 125.257 260.25 125.537 260.718C125.817 261.186 126.191 261.591 126.636 261.907C127.515 262.535 128.484 263.028 129.511 263.368C133.919 265.025 138.455 266.32 143.074 267.24V268.238C146.285 269.826 149.816 270.659 153.397 270.674C153.676 270.698 153.955 270.651 154.21 270.536C154.539 270.295 154.77 269.943 154.859 269.545C156.073 265.998 156.782 262.298 156.963 258.554C157.056 257.607 156.985 256.652 156.752 255.729C156.476 254.82 157.418 255.202 156.541 254.844" fill="#2F2E41"/>
<path d="M253.518 235.848C238.517 236.757 223.702 232.358 208.677 231.887C206.812 231.774 204.94 231.894 203.105 232.244C201.192 232.757 199.34 233.475 197.582 234.387C189.533 238.129 181.2 241.23 172.875 244.331L163.324 247.887C161.407 248.593 159.433 249.315 157.395 249.194C156.485 249.137 155.372 248.999 154.853 249.762C153.301 252.059 154.04 255.444 155.064 258.025C155.397 258.837 155.957 259.771 156.851 259.868C157.483 259.825 158.102 259.668 158.678 259.405C160.416 258.943 162.154 260.112 163.941 260.298C166.158 260.534 168.213 259.275 170.301 258.504C173.76 257.23 177.545 257.27 181.184 256.662C187.292 255.647 192.945 252.814 198.24 249.583C200.254 248.357 202.301 247.042 204.608 246.596C207.264 246.076 210.001 246.758 212.608 247.497C218.823 249.256 224.942 251.339 230.939 253.739C234.06 255.095 237.261 256.26 240.523 257.23C247.633 259.101 255.153 258.663 261.998 255.98C264.434 255.03 267.001 253.358 267.139 250.768C267.22 249.291 266.075 247.992 265.311 246.71C264.816 245.898 264.328 245.086 263.792 244.315C261.21 240.548 258.075 235.572 253.518 235.848Z" fill="#2F2E41"/>
<path opacity="0.1" d="M253.518 235.848C238.517 236.757 223.702 232.358 208.677 231.887C206.812 231.774 204.94 231.894 203.105 232.244C201.192 232.757 199.34 233.475 197.582 234.387C189.533 238.129 181.2 241.23 172.875 244.331L163.324 247.887C161.407 248.593 159.433 249.315 157.395 249.194C156.485 249.137 155.372 248.999 154.853 249.762C153.301 252.059 154.04 255.444 155.064 258.025C155.397 258.837 155.957 259.771 156.851 259.868C157.483 259.825 158.102 259.668 158.678 259.405C160.416 258.943 162.154 260.112 163.941 260.298C166.158 260.534 168.213 259.275 170.301 258.504C173.76 257.23 177.545 257.27 181.184 256.662C187.292 255.647 192.945 252.814 198.24 249.583C200.254 248.357 202.301 247.042 204.608 246.596C207.264 246.076 210.001 246.758 212.608 247.497C218.823 249.256 224.942 251.339 230.939 253.739C234.06 255.095 237.261 256.26 240.523 257.23C247.633 259.101 255.153 258.663 261.998 255.98C264.434 255.03 267.001 253.358 267.139 250.768C267.22 249.291 266.075 247.992 265.311 246.71C264.816 245.898 264.328 245.086 263.792 244.315C261.21 240.548 258.075 235.572 253.518 235.848Z" fill="black"/>
<path d="M177.752 251.873C180.102 252.668 182.469 253.404 184.851 254.081C186.191 251.881 188.693 250.355 189.261 247.846C189.294 247.738 189.294 247.622 189.261 247.513C189.199 247.407 189.106 247.322 188.993 247.27C187.281 246.326 185.381 245.772 183.43 245.646C181.887 245.549 181.188 247.156 180.49 248.285C180.246 248.739 178.378 252.084 177.752 251.873Z" fill="#FBBEBE"/>
<path d="M181.058 250.265C180.357 250.148 179.687 249.886 179.093 249.496C178.499 249.106 177.992 248.597 177.606 248C177.273 247.423 176.924 246.644 176.258 246.685C175.592 246.725 175.365 247.456 175.227 248.065C174.777 250.339 174.127 252.569 173.285 254.729C172.436 256.896 170.999 258.782 169.135 260.176C168.266 260.777 167.3 261.231 166.447 261.865C165.736 262.498 164.975 263.074 164.173 263.586C163.607 263.844 163.023 264.061 162.426 264.235C161.551 264.54 160.714 264.946 159.933 265.444C159.248 265.846 158.666 266.402 158.235 267.068C158.028 267.406 157.906 267.79 157.88 268.186C157.855 268.582 157.926 268.979 158.089 269.341C158.264 269.635 158.499 269.889 158.779 270.086C159.059 270.283 159.378 270.419 159.714 270.485C160.398 270.599 161.095 270.615 161.785 270.534C164.522 270.331 167.251 270.088 169.98 269.844C171.135 269.773 172.283 269.615 173.415 269.373C174.016 269.227 174.601 269.032 175.194 268.878C176.218 268.617 177.266 268.465 178.321 268.424C178.627 268.4 178.935 268.431 179.231 268.513C179.864 268.716 180.311 269.325 180.961 269.471C181.379 269.514 181.802 269.459 182.195 269.308C184.193 268.886 186.229 268.674 188.27 268.675C189.164 268.627 190.22 268.456 190.626 267.652C191.137 266.654 190.293 265.534 189.952 264.462C189.783 263.776 189.688 263.074 189.667 262.368C189.514 260.624 189.002 258.93 188.165 257.392C187.466 256.109 186.54 254.697 187.003 253.333C187.252 252.907 187.41 252.435 187.466 251.945C187.353 249.745 182.293 250.557 181.058 250.265Z" fill="#2F2E41"/>
<path d="M231.026 211.805C228.369 210.633 226.239 208.519 225.048 205.871C224.805 205.303 224.594 204.71 224.358 204.134C223.568 202.229 222.344 200.533 220.784 199.182C220.618 198.999 220.413 198.854 220.184 198.757C219.956 198.66 219.709 198.614 219.461 198.622C219.221 198.694 219.004 198.827 218.833 199.01C218.661 199.193 218.542 199.417 218.486 199.661C218.347 200.191 218.311 200.742 218.38 201.285C218.519 202.544 218.736 203.794 219.03 205.027L219.761 208.339C219.853 208.848 220.006 209.344 220.216 209.816C220.529 210.372 220.942 210.865 221.434 211.269C222.1 211.886 222.774 212.479 223.457 213.055C223.833 213.395 224.244 213.695 224.683 213.948C225.404 214.29 226.174 214.514 226.965 214.614C229.946 215.166 232.976 215.961 235.485 217.861C235.485 217.861 235.485 215.645 235.428 215.426C235.398 214.783 235.177 214.165 234.795 213.648C233.853 212.633 232.228 212.333 231.026 211.805Z" fill="#FBBEBE"/>
<path opacity="0.1" d="M231.026 211.805C228.369 210.633 226.239 208.519 225.048 205.871C224.805 205.303 224.594 204.71 224.358 204.134C223.568 202.229 222.344 200.533 220.784 199.182C220.618 198.999 220.413 198.854 220.184 198.757C219.956 198.66 219.709 198.614 219.461 198.622C219.221 198.694 219.004 198.827 218.833 199.01C218.661 199.193 218.542 199.417 218.486 199.661C218.347 200.191 218.311 200.742 218.38 201.285C218.519 202.544 218.736 203.794 219.03 205.027L219.761 208.339C219.853 208.848 220.006 209.344 220.216 209.816C220.529 210.372 220.942 210.865 221.434 211.269C222.1 211.886 222.774 212.479 223.457 213.055C223.833 213.395 224.244 213.695 224.683 213.948C225.404 214.29 226.174 214.514 226.965 214.614C229.946 215.166 232.976 215.961 235.485 217.861C235.485 217.861 235.485 215.645 235.428 215.426C235.398 214.783 235.177 214.165 234.795 213.648C233.853 212.633 232.228 212.333 231.026 211.805Z" fill="black"/>
<path d="M261.565 186.477C263.579 186.477 265.211 184.834 265.211 182.808C265.211 180.782 263.579 179.139 261.565 179.139C259.551 179.139 257.918 180.782 257.918 182.808C257.918 184.834 259.551 186.477 261.565 186.477Z" fill="#2F2E41"/>
<path d="M259.309 180.592C258.33 180.368 257.302 180.516 256.426 181.006C256.004 181.378 255.669 181.838 255.443 182.353C254.622 183.755 253.984 185.255 253.542 186.818C253.217 188.157 253.161 189.553 252.73 190.876C251.983 193.312 250.066 195.382 249.847 197.922C249.749 199.059 249.936 200.398 249.108 201.169C248.902 201.342 248.682 201.497 248.45 201.632C247.873 202.019 247.383 202.522 247.012 203.11C246.764 203.637 246.42 204.113 245.997 204.514C245.25 205.066 244.023 205.009 243.658 205.861C243.292 206.714 244.234 207.704 244.015 208.629C243.836 209.384 242.992 209.733 242.391 210.253C241.706 210.978 241.227 211.871 241.002 212.842C239.782 213.072 238.527 213.035 237.322 212.734C236.118 212.432 234.993 211.874 234.025 211.097C235.04 213.606 235.065 216.374 235.105 219.077C235.222 219.941 234.992 220.817 234.464 221.512C237.371 221.577 240.198 222.324 243.032 222.998C244.245 223.403 245.556 223.403 246.769 222.998C247.417 222.649 247.997 222.187 248.482 221.634C250.025 220.067 251.642 218.387 252.015 216.203C252.114 214.975 252.136 213.741 252.08 212.51C252.229 210.989 252.543 209.49 253.014 208.037C253.83 205.02 254.374 201.937 254.639 198.824C254.809 196.9 256.466 195.357 257.343 193.636C258.968 190.389 260.673 187.021 260.803 183.384C260.917 182.199 260.511 180.746 259.309 180.592Z" fill="#2F2E41"/>
<path opacity="0.1" d="M259.309 180.592C258.33 180.368 257.302 180.516 256.426 181.006C256.004 181.378 255.669 181.838 255.443 182.353C254.622 183.755 253.984 185.255 253.542 186.818C253.217 188.157 253.161 189.553 252.73 190.876C251.983 193.312 250.066 195.382 249.847 197.922C249.749 199.059 249.936 200.398 249.108 201.169C248.902 201.342 248.682 201.497 248.45 201.632C247.873 202.019 247.383 202.522 247.012 203.11C246.764 203.637 246.42 204.113 245.997 204.514C245.25 205.066 244.023 205.009 243.658 205.861C243.292 206.714 244.234 207.704 244.015 208.629C243.836 209.384 242.992 209.733 242.391 210.253C241.706 210.978 241.227 211.871 241.002 212.842C239.782 213.072 238.527 213.035 237.322 212.734C236.118 212.432 234.993 211.874 234.025 211.097C235.04 213.606 235.065 216.374 235.105 219.077C235.222 219.941 234.992 220.817 234.464 221.512C237.371 221.577 240.198 222.324 243.032 222.998C244.245 223.403 245.556 223.403 246.769 222.998C247.417 222.649 247.997 222.187 248.482 221.634C250.025 220.067 251.642 218.387 252.015 216.203C252.114 214.975 252.136 213.741 252.08 212.51C252.229 210.989 252.543 209.49 253.014 208.037C253.83 205.02 254.374 201.937 254.639 198.824C254.809 196.9 256.466 195.357 257.343 193.636C258.968 190.389 260.673 187.021 260.803 183.384C260.917 182.199 260.511 180.746 259.309 180.592Z" fill="black"/>
<path d="M255.898 239.007C252.771 237.521 250.488 234.753 247.962 232.383C243.138 227.853 237.241 224.655 232.173 220.409C228.819 217.601 225.814 214.329 222.118 211.975C218.868 209.903 215.182 208.611 211.349 208.201C210.911 208.124 210.461 208.146 210.033 208.266C209.549 208.482 209.127 208.817 208.806 209.24C207.169 211.084 205.714 213.082 204.461 215.206C198.037 226.1 188.916 235.265 181.354 245.403C181.112 245.642 180.968 245.963 180.951 246.303C180.935 246.643 181.047 246.977 181.265 247.238L182.8 250.25C183.661 251.93 185.042 253.894 186.861 253.562C187.696 253.321 188.443 252.845 189.013 252.19L195.917 245.59L203.154 238.674C207.393 234.615 211.706 230.475 214.476 225.296C216.636 229.038 220.47 231.49 223.101 234.924C224.1 236.222 224.912 237.659 225.806 239.039C227.243 241.255 228.868 243.333 230.492 245.403L238.801 255.997C239.849 257.506 241.149 258.823 242.643 259.893C244.608 261.135 247.004 261.468 249.319 261.671C252.437 261.955 255.569 262.069 258.7 262.012C261.088 261.971 263.573 261.817 265.685 260.754C267.796 259.69 269.591 257.507 269.477 255.128C269.348 253.882 268.94 252.681 268.284 251.613C265.352 246.175 261.469 241.629 255.898 239.007Z" fill="#2F2E41"/>
<path d="M263.808 188.165C265.355 188.165 266.61 186.904 266.61 185.349C266.61 183.793 265.355 182.532 263.808 182.532C262.26 182.532 261.006 183.793 261.006 185.349C261.006 186.904 262.26 188.165 263.808 188.165Z" fill="#E8E8F0"/>
<path d="M263.185 183.231C263.818 184.491 263.929 185.949 263.494 187.29C263.06 188.609 262.454 189.864 261.691 191.024C261.033 192.221 260.246 193.343 259.343 194.368C263.672 194.579 267.871 192.883 271.689 190.821C274.767 189.197 277.837 187.127 279.478 184.035C278.989 184.151 278.482 184.164 277.988 184.073C277.495 183.982 277.025 183.79 276.611 183.507C275.785 182.932 275.044 182.243 274.409 181.461L272.241 179.026C271.729 178.492 271.279 177.901 270.901 177.265C270.426 176.4 270.225 175.412 270.324 174.432C269.461 175.335 268.496 176.136 267.449 176.818C265.898 177.833 264.2 178.563 262.633 179.562C262.08 179.919 260.854 180.495 261.171 181.185C261.487 181.875 262.746 182.452 263.185 183.231Z" fill="#FBBEBE"/>
<path opacity="0.1" d="M263.185 183.231C263.818 184.491 263.929 185.949 263.494 187.29C263.06 188.609 262.454 189.864 261.691 191.024C261.033 192.221 260.246 193.343 259.343 194.368C263.672 194.579 267.871 192.883 271.689 190.821C274.767 189.197 277.837 187.127 279.478 184.035C278.989 184.151 278.482 184.164 277.988 184.073C277.495 183.982 277.025 183.79 276.611 183.507C275.785 182.932 275.044 182.243 274.409 181.461L272.241 179.026C271.729 178.492 271.279 177.901 270.901 177.265C270.426 176.4 270.225 175.412 270.324 174.432C269.461 175.335 268.496 176.136 267.449 176.818C265.898 177.833 264.2 178.563 262.633 179.562C262.08 179.919 260.854 180.495 261.171 181.185C261.487 181.875 262.746 182.452 263.185 183.231Z" fill="black"/>
<path d="M263.246 183.652C262.808 184.271 262.573 185.01 262.573 185.767C262.573 186.524 262.808 187.263 263.246 187.882C263.368 188.036 263.831 189.002 264.058 189.01C264.25 188.994 264.427 188.903 264.553 188.758C265.535 187.734 266.451 186.649 267.299 185.511C268.154 184.359 269.392 183.547 270.791 183.222C272.489 182.954 274.121 183.855 275.607 184.716C276.246 185.033 276.802 185.494 277.232 186.063C277.545 186.628 277.731 187.254 277.776 187.898C278.203 191.768 278.365 195.662 278.263 199.555C278.342 202.361 278.157 205.168 277.711 207.94C277.435 209.369 277.021 210.765 276.826 212.21C276.683 213.482 276.626 214.762 276.655 216.041V221.399C276.619 222.381 276.69 223.363 276.866 224.329C277.202 225.482 277.595 226.617 278.044 227.731C278.439 229.056 278.711 230.414 278.856 231.789L279.587 237.334C279.823 239.087 279.993 240.995 278.929 242.399C278.458 243.04 277.825 243.544 277.305 244.177C275.477 246.498 276.087 249.867 275.274 252.749C274.673 254.864 273.444 256.746 271.749 258.147C270.458 259.243 268.785 260.112 267.112 259.771C264.862 259.349 263.506 257.003 262.888 254.787C262.271 252.57 262.076 250.151 260.72 248.292C259.631 246.758 257.95 245.8 256.431 244.704C254.913 243.609 253.418 242.204 253.085 240.353C252.939 239.542 253.028 238.73 252.947 237.918C252.826 236.884 252.429 235.901 251.798 235.072C251.166 234.244 250.323 233.601 249.357 233.21C248.204 232.764 246.774 232.601 246.108 231.587C247.762 230.549 248.967 228.93 249.487 227.049C249.991 225.195 250.264 223.287 250.299 221.367L250.689 214.921C250.86 212.039 250.941 209.182 252.208 206.593C252.776 205.44 253.483 204.352 254.068 203.208C254.851 201.601 255.519 199.941 256.066 198.24C256.984 195.601 257.91 192.955 258.73 190.284C259.058 188.991 259.549 187.744 260.192 186.575C260.947 185.357 261.946 183.896 263.246 183.652Z" fill="#E8E8F0"/>
<path d="M248.926 225.532L250.632 225.589L250.997 223.016C251.046 222.501 251.166 221.995 251.355 221.514C251.638 221.006 251.967 220.525 252.338 220.077C254.019 217.707 253.897 214.557 254.311 211.675C254.864 207.836 256.472 204.232 258.064 200.692L261.377 193.314C261.672 192.707 261.909 192.074 262.084 191.422C262.229 190.704 262.297 189.972 262.287 189.239C262.287 188.102 262.661 183.954 262.685 182.809C262.685 182.387 261.759 182.623 261.564 182.249C261.15 181.438 260.581 183.646 259.802 184.133C259.067 184.694 258.531 185.477 258.275 186.365C257.56 188.224 257.121 190.18 256.455 192.047C255.871 193.959 254.806 195.689 253.361 197.072C252.687 197.673 251.899 198.143 251.257 198.777C249.194 200.814 248.999 204.029 248.926 206.894C248.878 208.672 248.545 225.532 248.926 225.532Z" fill="#2F2E41"/>
<path d="M273.493 180.575C271.869 181.225 270.927 183.011 270.464 184.748C270.001 186.485 269.806 188.319 268.913 189.862C266.833 193.482 261.53 194.538 260.06 198.45C259.685 199.771 259.486 201.136 259.467 202.509C259.207 205.31 258.281 208.021 258.005 210.821C257.861 213 257.913 215.187 258.159 217.356L260.019 239.46C260.38 242.716 260.19 246.008 259.459 249.201C261.366 249.476 263.312 249.155 265.03 248.284C266.777 247.472 268.368 246.401 270.042 245.475C272.925 243.852 276.109 242.756 278.626 240.605C279.083 240.249 279.476 239.818 279.788 239.33C280.192 238.401 280.465 237.42 280.6 236.416C280.814 235.634 281.085 234.869 281.412 234.127C282.345 231.899 283.158 229.623 283.849 227.308C284.322 225.773 284.693 224.208 284.961 222.624C285.165 221.366 285.27 220.092 285.384 218.825C285.514 216.833 285.91 214.868 286.562 212.981C288.173 208.478 289.085 203.756 289.266 198.978C289.322 198.288 289.276 197.593 289.128 196.916C288.847 196.095 288.471 195.311 288.007 194.578C287.236 193.125 286.773 191.526 286.042 190.057C284.417 186.728 281.502 184.204 278.456 182.085C276.896 181.054 275.183 179.934 273.493 180.575Z" fill="#2F2E41"/>
<path d="M234.724 216.641C233.404 215.952 232.21 215.046 231.19 213.962C230.728 213.419 230.378 212.81 229.875 212.274C228.682 211.003 227.134 210.121 225.432 209.741C223.742 209.369 222.013 209.203 220.283 209.246C219.127 209.166 217.967 209.307 216.863 209.66C216.309 209.841 215.81 210.159 215.413 210.585C215.015 211.011 214.732 211.531 214.589 212.095C214.337 213.475 215.239 214.815 216.319 215.692C217.324 216.512 218.505 217.087 219.771 217.372C220.803 217.551 221.844 217.672 222.89 217.737C229.03 218.378 234.512 221.715 239.889 224.759C244.616 227.427 249.435 229.924 254.346 232.251C254.541 230.782 254.622 229.301 254.59 227.819C254.59 226.715 254.509 225.027 253.461 224.377C252.243 223.614 250.212 223.444 248.864 222.989C245.699 221.957 242.608 220.709 239.613 219.255C237.915 218.435 236.291 217.567 234.724 216.641Z" fill="#FBBEBE"/>
<path d="M261.564 181.974C267.607 181.974 272.505 177.05 272.505 170.975C272.505 164.9 267.607 159.976 261.564 159.976C255.522 159.976 250.624 164.9 250.624 170.975C250.624 177.05 255.522 181.974 261.564 181.974Z" fill="#FBBEBE"/>
<path d="M276.622 193.045C275.751 194.268 275.039 195.596 274.502 196.998C273.145 199.783 271.026 202.169 269.97 205.116C268.849 208.176 268.89 211.821 266.721 214.232C266.285 214.597 265.957 215.074 265.771 215.612C265.757 215.947 265.719 216.281 265.657 216.61C265.348 217.487 263.911 217.528 263.643 218.42C263.57 218.68 263.643 218.964 263.513 219.232C263.294 219.809 262.538 219.89 262.026 220.239C260.963 220.961 261.214 222.634 260.402 223.673C260.072 224.058 259.646 224.35 259.166 224.518C258.687 224.686 258.172 224.725 257.673 224.63C256.677 224.421 255.719 224.062 254.83 223.567C254.518 223.391 254.172 223.283 253.815 223.25C253.391 223.259 252.98 223.398 252.638 223.648C250.615 224.931 249.665 227.48 249.681 229.882C249.824 232.285 250.393 234.644 251.362 236.847C251.477 237.228 251.667 237.582 251.923 237.886C252.589 238.593 253.758 238.479 254.652 238.081C255.489 237.586 256.38 237.188 257.308 236.896C258.997 236.588 260.654 237.756 262.368 237.659C263.621 237.469 264.802 236.947 265.787 236.149C267.527 235.093 269.084 233.764 270.4 232.212C271.147 231.23 271.7 230.11 272.358 229.063C273.198 227.776 274.12 226.545 275.119 225.377L281.43 217.657C282.063 216.926 282.631 216.141 283.127 215.311C283.696 214.189 284.14 213.008 284.451 211.788C285.127 209.754 285.566 207.649 285.759 205.514C285.791 203.746 285.636 201.98 285.296 200.245C285.084 198.52 284.627 196.833 283.939 195.237C282.534 192.396 279.196 190.042 276.622 193.045Z" fill="#2F2E41"/>
<path d="M298.601 178.717C298.61 176.767 298.155 174.842 297.274 173.102C296.393 171.362 295.111 169.856 293.533 168.708C293.486 165.246 292.209 161.913 289.932 159.304C287.654 156.695 284.524 154.979 281.099 154.462C280.436 151.182 278.637 148.242 276.018 146.158C273.4 144.074 270.129 142.981 266.783 143.072C263.437 143.162 260.23 144.43 257.727 146.651C255.224 148.873 253.587 151.906 253.102 155.217C248.554 154.194 244.395 155.525 243.64 158.326C242.828 161.256 246.077 164.682 250.885 165.981C252.391 166.406 253.961 166.563 255.523 166.443C256.641 168.084 258.09 169.474 259.776 170.522C261.463 171.57 263.351 172.255 265.318 172.532C265.895 175.179 267.201 177.613 269.088 179.56C270.975 181.506 273.368 182.887 275.998 183.547C276.726 185.304 277.855 186.867 279.295 188.109C279.295 188.45 279.239 188.799 279.239 189.156C279.186 190.404 279.387 191.65 279.829 192.818C280.271 193.986 280.944 195.053 281.809 195.955C282.674 196.856 283.712 197.573 284.862 198.063C286.011 198.553 287.248 198.806 288.498 198.806C289.747 198.806 290.984 198.553 292.133 198.063C293.283 197.573 294.321 196.856 295.186 195.955C296.051 195.053 296.725 193.986 297.167 192.818C297.608 191.65 297.809 190.404 297.757 189.156C297.757 187.755 297.455 186.371 296.871 185.097C298.013 183.165 298.611 180.961 298.601 178.717Z" fill="#F86D70"/>
<path opacity="0.1" d="M246.728 158.886C247.483 156.086 251.601 154.754 256.19 155.777C256.724 152.415 258.429 149.349 261.004 147.122C263.579 144.894 266.859 143.647 270.265 143.601C270.582 143.601 270.899 143.601 271.207 143.601C269.891 143.199 268.522 142.997 267.146 143C263.74 143.046 260.46 144.293 257.885 146.521C255.31 148.749 253.605 151.814 253.071 155.176C248.523 154.154 244.364 155.485 243.609 158.285C242.797 161.216 246.045 164.641 250.854 165.94C251.748 166.188 252.665 166.346 253.591 166.411C249.026 165.08 245.956 161.752 246.728 158.886Z" fill="black"/>
<path opacity="0.1" d="M282.325 189.725C282.325 189.367 282.325 189.018 282.382 188.669C280.941 187.43 279.812 185.871 279.084 184.115C276.457 183.449 274.066 182.064 272.18 180.118C270.294 178.171 268.986 175.738 268.404 173.092C266.437 172.817 264.549 172.133 262.862 171.084C261.175 170.036 259.726 168.646 258.609 167.004C257.699 167.076 256.785 167.051 255.88 166.931C257.003 168.443 258.416 169.717 260.036 170.679C261.656 171.641 263.452 172.27 265.318 172.532C265.895 175.179 267.201 177.614 269.088 179.56C270.975 181.506 273.368 182.887 275.998 183.547C276.726 185.304 277.855 186.867 279.296 188.109C279.296 188.45 279.239 188.799 279.239 189.156C279.197 191.645 280.143 194.049 281.868 195.843C283.594 197.638 285.959 198.678 288.449 198.735C286.632 198.035 285.072 196.797 283.978 195.186C282.884 193.576 282.307 191.671 282.325 189.725Z" fill="black"/>
<path d="M266.569 175.002C267.312 174.438 267.305 173.179 266.553 172.19C265.801 171.201 264.59 170.857 263.847 171.421C263.104 171.985 263.111 173.244 263.863 174.232C264.614 175.221 265.826 175.566 266.569 175.002Z" fill="#FBBEBE"/>
<path d="M131.505 246.788L137.087 243.508C136.333 242.219 135.368 241.066 134.233 240.095L123.706 243.366L131.953 238.52C129.911 237.402 127.613 236.835 125.285 236.874C122.957 236.914 120.679 237.559 118.676 238.745C116.673 239.931 115.013 241.619 113.86 243.641C112.708 245.663 112.102 247.95 112.102 250.277C112.102 257.678 118.107 257.933 125.512 257.933C132.917 257.933 138.922 257.678 138.922 250.277C138.927 248.401 138.534 246.545 137.77 244.832L131.505 246.788Z" fill="#B76E79"/>
<path opacity="0.1" d="M132.926 253.983C132.331 253.388 131.667 252.866 130.947 252.43C129.938 251.755 128.886 251.068 127.691 250.842C126.644 250.641 125.562 250.813 124.494 250.75C122.638 250.637 120.892 249.836 119.595 248.505C118.832 247.717 118.233 246.75 117.315 246.147C116.289 245.538 115.079 245.316 113.904 245.523C113.563 245.57 113.226 245.639 112.894 245.728C112.369 247.187 112.101 248.726 112.102 250.277C112.102 257.678 118.107 257.933 125.512 257.933C129.108 257.933 132.368 257.875 134.778 256.966L134.359 256.216C133.978 255.414 133.496 254.664 132.926 253.983Z" fill="black"/>
</g>
<defs>
<linearGradient id="paint0_linear" x1="215.013" y1="271.003" x2="215.013" y2="141.862" gradientUnits="userSpaceOnUse">
<stop stop-color="#808080" stop-opacity="0.25"/>
<stop offset="0.54" stop-color="#808080" stop-opacity="0.12"/>
<stop offset="1" stop-color="#808080" stop-opacity="0.1"/>
</linearGradient>
<clipPath id="clip0">
<rect width="479" height="278" fill="white"/>
</clipPath>
</defs>
</svg>
