<svg width="382" height="209" viewBox="0 0 382 209" fill="none" xmlns="http://www.w3.org/2000/svg">
<g clip-path="url(#clip0_400_49728)">
<path d="M331.601 207.631C331.637 207.521 335.177 196.539 328.912 186.74L328.272 187.151C334.337 196.637 330.915 207.284 330.88 207.39L331.601 207.631Z" fill="#E4E4E4"/>
<path d="M324.433 188.148C324.568 188.79 324.827 189.399 325.197 189.94C325.567 190.481 326.039 190.944 326.587 191.302C327.135 191.66 327.748 191.907 328.391 192.027C329.034 192.148 329.695 192.14 330.335 192.005C330.975 191.869 331.582 191.609 332.122 191.238C332.662 190.868 333.123 190.394 333.481 189.844C333.838 189.295 334.083 188.68 334.204 188.035C334.324 187.391 334.316 186.729 334.181 186.087C333.614 183.388 328.801 176.67 326.108 177.239C323.416 177.808 323.865 185.449 324.433 188.148Z" fill="#EADE7F"/>
<path d="M325.341 200.771C327.743 203.375 332.041 203.304 332.041 203.304C332.041 203.304 332.444 199.013 330.041 196.41C327.639 193.807 323.341 193.877 323.341 193.877C323.341 193.877 322.938 198.168 325.341 200.771Z" fill="#EADE7F"/>
<path d="M361.755 208.392C361.841 208.133 370.194 182.217 355.41 159.092L353.9 160.062C368.212 182.448 360.137 207.573 360.054 207.824L361.755 208.392Z" fill="#E4E4E4"/>
<path d="M344.838 162.417C345.482 165.475 347.311 168.151 349.923 169.858C352.535 171.564 355.716 172.16 358.766 171.515C361.816 170.87 364.486 169.037 366.188 166.418C367.891 163.8 368.486 160.61 367.844 157.552C366.504 151.182 355.145 135.329 348.793 136.672C342.44 138.016 343.498 156.047 344.838 162.417Z" fill="#EADE7F"/>
<path d="M346.98 192.21C352.65 198.353 362.793 198.186 362.793 198.186C362.793 198.186 363.744 188.06 358.074 181.916C352.404 175.773 342.261 175.94 342.261 175.94C342.261 175.94 341.311 186.067 346.98 192.21Z" fill="#EADE7F"/>
<path d="M220.372 206.44L214.828 204.1L211.025 176.236H160.385L156.263 203.986L151.303 206.472C151.066 206.591 150.876 206.787 150.763 207.028C150.651 207.269 150.623 207.541 150.684 207.8C150.745 208.059 150.891 208.29 151.099 208.455C151.307 208.62 151.565 208.71 151.83 208.71H219.915C220.187 208.71 220.45 208.615 220.661 208.443C220.871 208.27 221.015 208.03 221.069 207.762C221.123 207.495 221.083 207.218 220.956 206.977C220.829 206.736 220.622 206.546 220.372 206.44Z" fill="#E6E6E6"/>
<path d="M310.363 179.944H61.6019C60.2968 179.941 59.046 179.419 58.1242 178.493C57.2023 177.566 56.6846 176.311 56.6846 175.003V139.83H315.28V175.003C315.28 176.311 314.763 177.566 313.841 178.493C312.919 179.419 311.668 179.941 310.363 179.944Z" fill="#CCCCCC"/>
<path d="M315.54 156.453H56.457V5.95699C56.4589 4.37762 57.0854 2.86346 58.1992 1.7467C59.313 0.62994 60.8232 0.00177025 62.3983 0H309.599C311.174 0.00176922 312.684 0.629935 313.798 1.7467C314.911 2.86346 315.538 4.37761 315.54 5.95699V156.453Z" fill="#3F3D56"/>
<path d="M300.067 10.9219H71.9301C70.7159 10.9234 69.5518 11.408 68.6936 12.2693C67.8353 13.1305 67.353 14.2981 67.3525 15.5156V140.936C67.353 142.153 67.8353 143.321 68.6936 144.182C69.5518 145.043 70.7159 145.528 71.9301 145.529H300.067C301.281 145.527 302.445 145.043 303.303 144.181C304.161 143.32 304.644 142.153 304.645 140.936V15.5156C304.644 14.2982 304.161 13.1311 303.303 12.2699C302.445 11.4088 301.281 10.924 300.067 10.9219Z" fill="white"/>
<path d="M112.369 10.9219V145.529H71.9301C70.7158 145.528 69.5518 145.043 68.6936 144.182C67.8353 143.321 67.353 142.153 67.3525 140.936V15.5156C67.353 14.2981 67.8353 13.1305 68.6936 12.2693C69.5518 11.408 70.7158 10.9234 71.9301 10.9219H112.369Z" fill="#F0F0F0"/>
<path d="M79.0082 78.9217C78.553 78.8178 78.0806 78.8152 77.6243 78.9142C77.168 79.0131 76.7389 79.2112 76.3672 79.4944C75.9955 79.7776 75.6903 80.1391 75.473 80.5534C75.2557 80.9677 75.1317 81.4248 75.1096 81.8923L64.2246 85.11L68.7307 88.9242L78.3764 85.2839C79.1623 85.269 79.9155 84.9656 80.4931 84.4312C81.0708 83.8968 81.4329 83.1684 81.5108 82.3842C81.5886 81.5999 81.3769 80.8143 80.9157 80.1761C80.4544 79.538 79.7757 79.0916 79.0082 78.9217H79.0082Z" fill="#FFB6B6"/>
<path d="M35.0277 103.138C33.9516 103.137 32.911 102.752 32.0914 102.053C31.2718 101.354 30.7265 100.385 30.5527 99.3205C30.379 98.2557 30.5881 97.1636 31.1427 96.239C31.6974 95.3144 32.5615 94.6173 33.581 94.2722L55.6388 86.8064L72.8448 80.5215L74.9563 87.932L59.7669 97.9676L35.9771 103.038C35.665 103.104 35.3468 103.138 35.0277 103.138Z" fill="#B76E79"/>
<path d="M48.8308 205.228H51.9277L53.4013 193.25H48.8301L48.8308 205.228Z" fill="#FFB6B6"/>
<path d="M48.041 204.213L54.1402 204.213H54.1404C55.1712 204.213 56.1598 204.624 56.8888 205.354C57.6177 206.085 58.0272 207.076 58.0273 208.11V208.237L48.0412 208.237L48.041 204.213Z" fill="#2F2E41"/>
<path d="M25.0853 205.228H28.1822L29.6558 193.25H25.085L25.0853 205.228Z" fill="#FFB6B6"/>
<path d="M24.2949 204.213L30.3941 204.213H30.3943C31.4252 204.213 32.4138 204.624 33.1427 205.354C33.8716 206.085 34.2811 207.076 34.2812 208.11V208.237L24.2951 208.237L24.2949 204.213Z" fill="#2F2E41"/>
<path d="M25.0544 133.385C23.6371 136.695 23.3269 140.377 24.1703 143.878L23.2861 203.293H30.0879L33.896 170.619L40.2114 149.089L47.032 165.806V200.648L53.6 200.254L57.1366 163.273L53.0948 136.931L25.0544 133.385Z" fill="#2F2E41"/>
<path d="M49.9367 87.1583L44.1266 85.3852L42.6109 82.3457H35.1478L33.2641 85.6385C33.2641 85.6385 25.6856 88.4247 25.433 101.849C25.1804 115.274 24.1699 136.803 24.1699 136.803L54.0522 141.075L49.9367 87.1583Z" fill="#B76E79"/>
<path d="M58.5156 138.671C58.7116 138.246 58.8123 137.783 58.8107 137.315C58.809 136.847 58.705 136.385 58.506 135.961C58.307 135.538 58.0178 135.163 57.6588 134.864C57.2998 134.565 56.8797 134.348 56.4282 134.229L55.5523 122.885L50.8945 126.511L52.4404 136.728C52.2915 137.502 52.4309 138.304 52.8322 138.982C53.2335 139.659 53.8687 140.166 54.6175 140.405C55.3664 140.645 56.1768 140.6 56.8953 140.281C57.6137 139.961 58.1902 139.388 58.5156 138.671H58.5156Z" fill="#FFB6B6"/>
<path d="M50.5686 132.823L43.9365 115.839V91.4525C43.9365 90.2909 44.3794 89.1733 45.1744 88.3285C45.9694 87.4836 47.0564 86.9755 48.2129 86.9081C49.3694 86.8407 50.5079 87.2191 51.3952 87.9659C52.2825 88.7126 52.8515 89.7713 52.9857 90.925L55.683 114.111L58.2368 132.292L50.5686 132.823Z" fill="#B76E79"/>
<path d="M40.3116 78.4014C44.4306 78.4014 47.7697 75.0534 47.7697 70.9234C47.7697 66.7934 44.4306 63.4453 40.3116 63.4453C36.1926 63.4453 32.8535 66.7934 32.8535 70.9234C32.8535 75.0534 36.1926 78.4014 40.3116 78.4014Z" fill="#FFB9B9"/>
<path d="M40.7994 68.6511C40.4504 69.1003 39.9721 69.5057 39.8953 70.0698C39.8383 70.4878 40.0205 70.9009 40.0378 71.3224C40.0392 71.7478 39.8788 72.1577 39.5892 72.4686C39.2997 72.7795 38.9028 72.968 38.4795 72.9957C38.1846 72.6237 37.7585 72.3793 37.2892 72.3132C37.0556 72.2867 36.8197 72.336 36.6161 72.4539C36.4126 72.5718 36.2521 72.7521 36.1584 72.9682C35.9369 73.5956 36.4495 74.2328 36.532 74.8931C36.5429 75.3816 36.4641 75.8678 36.2995 76.3277C36.1105 77.0853 36.06 77.8869 35.7285 78.5936C35.3969 79.3002 34.6597 79.9081 33.8966 79.7519C33.2549 79.6205 32.8206 78.9973 32.6412 78.3658C32.4617 77.7342 32.4698 77.0646 32.3399 76.4209C31.9179 74.3295 30.1224 72.78 29.418 70.7664C28.5154 68.1864 29.5997 65.2352 31.4685 63.2441C32.224 62.3717 33.2103 61.7314 34.3133 61.3972C35.4779 61.0999 36.7092 61.3136 37.9041 61.1865C39.1821 61.0505 40.3833 60.5298 41.6253 60.1989C42.8673 59.8679 44.2545 59.7433 45.3834 60.359C46.1708 60.7884 46.7411 61.5288 47.4747 62.0451C48.3158 62.6326 49.3354 62.9062 50.3567 62.8185L49.1372 63.3531C49.604 63.7826 50.1677 64.0922 50.7801 64.2553C50.2817 64.6514 49.6652 64.8684 49.0293 64.8716C49.1619 65.1112 49.3421 65.321 49.5588 65.4881C49.7755 65.6551 50.024 65.7759 50.2891 65.8429C49.363 66.2787 48.3799 66.7253 47.3616 66.627C46.8628 66.5789 46.386 66.4011 45.8933 66.3096C44.8431 66.1146 43.7646 66.3167 42.7156 66.5185C42.1647 66.6244 41.4887 66.7261 41.2105 67.2572C40.9789 67.6994 41.156 68.1921 40.7994 68.6511Z" fill="#2F2E41"/>
<path d="M381.42 209.001H121.787C121.656 209.004 121.528 208.963 121.422 208.885C121.316 208.807 121.239 208.696 121.203 208.569C121.18 208.483 121.177 208.393 121.195 208.305C121.213 208.218 121.25 208.136 121.304 208.065C121.358 207.995 121.428 207.938 121.508 207.898C121.587 207.859 121.675 207.838 121.764 207.838H381.373C381.511 207.833 381.648 207.876 381.759 207.958C381.871 208.041 381.951 208.159 381.987 208.293C382.006 208.378 382.005 208.466 381.986 208.551C381.966 208.636 381.927 208.715 381.873 208.783C381.819 208.851 381.75 208.906 381.671 208.944C381.593 208.981 381.507 209.001 381.42 209.001Z" fill="#CCCCCC"/>
<path d="M87.3884 209.001H0.603873C0.472557 209.004 0.344006 208.963 0.238251 208.885C0.132496 208.807 0.0554759 208.696 0.0191914 208.569C-0.0034614 208.483 -0.00609805 208.393 0.0114819 208.305C0.0290619 208.218 0.0663886 208.136 0.120595 208.065C0.1748 207.995 0.244438 207.938 0.324148 207.898C0.403859 207.859 0.491518 207.838 0.580379 207.838H87.3408C87.4794 207.833 87.6154 207.876 87.7269 207.958C87.8384 208.041 87.9187 208.159 87.9548 208.293C87.9736 208.378 87.9731 208.466 87.9534 208.551C87.9337 208.636 87.8952 208.715 87.8409 208.783C87.7865 208.851 87.7176 208.906 87.6393 208.944C87.561 208.981 87.4752 209.001 87.3884 209.001Z" fill="#CCCCCC"/>
<path opacity="0.5" d="M199.159 57.6426H145.675C136.838 57.6426 129.675 64.806 129.675 73.6426V86.4314C129.675 95.268 136.838 102.431 145.675 102.431H199.159C207.995 102.431 215.159 95.268 215.159 86.4314V73.6426C215.159 64.806 207.995 57.6426 199.159 57.6426Z" fill="#F9B9B8"/>
<path d="M256.021 55.6895H221.734V57.5868H256.021V55.6895Z" fill="#505565"/>
<path d="M271.632 59.1934H221.734V61.0908H271.632V59.1934Z" fill="#505565"/>
<path d="M256.021 67.6582H221.734V69.5556H256.021V67.6582Z" fill="#505565"/>
<path d="M256.021 81.6699H221.734V83.5673H256.021V81.6699Z" fill="#505565"/>
<path d="M271.632 71.1621H221.734V73.0595H271.632V71.1621Z" fill="#505565"/>
<path d="M271.632 74.6641H221.734V76.5614H271.632V74.6641Z" fill="#505565"/>
<path d="M271.632 78.166H221.734V80.0634H271.632V78.166Z" fill="#505565"/>
<path d="M237.199 90.1348H224.216C222.845 90.1348 221.734 91.2456 221.734 92.616C221.734 93.9863 222.845 95.0972 224.216 95.0972H237.199C238.569 95.0972 239.68 93.9863 239.68 92.616C239.68 91.2456 238.569 90.1348 237.199 90.1348Z" fill="#B76E79"/>
<path d="M195.484 53H142C133.163 53 126 60.1635 126 69V81.7889C126 90.6254 133.163 97.7889 142 97.7889H195.484C204.32 97.7889 211.484 90.6254 211.484 81.7888V69C211.484 60.1634 204.32 53 195.484 53Z" fill="#F9B9B8"/>
<path d="M170.333 85.9653C175.675 85.9653 180.006 81.6249 180.006 76.2707C180.006 70.9166 175.675 66.5762 170.333 66.5762C164.99 66.5762 160.659 70.9166 160.659 76.2707C160.659 81.6249 164.99 85.9653 170.333 85.9653Z" fill="white"/>
<path d="M170.332 64.9238C168.046 64.9238 165.811 65.6021 163.91 66.8729C162.008 68.1437 160.527 69.9499 159.652 72.0632C158.776 74.1765 158.548 76.5018 158.994 78.7453C159.44 80.9887 160.541 83.0494 162.158 84.6668C163.774 86.2842 165.834 87.3857 168.077 87.8319C170.32 88.2782 172.644 88.0492 174.757 87.1738C176.869 86.2985 178.675 84.8161 179.945 82.9143C181.215 81.0124 181.893 78.7764 181.893 76.489C181.885 73.4245 180.664 70.488 178.497 68.3211C176.331 66.1541 173.396 64.9328 170.332 64.9238ZM169.374 81.2417C168.592 82.0224 167.326 82.0221 166.545 81.241L162.865 77.559C162.406 77.1001 162.406 76.3561 162.865 75.8971V75.8971C163.324 75.4379 164.068 75.4379 164.527 75.8971L167.965 79.3358L176.143 71.1541C176.602 70.695 177.347 70.695 177.806 71.1541V71.1541C178.264 71.6131 178.264 72.3572 177.805 72.816L169.374 81.2417Z" fill="#B76E79"/>
<path d="M286.226 51.7121C288.908 51.7121 291.082 49.538 291.082 46.856C291.082 44.1741 288.908 42 286.226 42C283.544 42 281.37 44.1741 281.37 46.856C281.37 49.538 283.544 51.7121 286.226 51.7121Z" fill="#F1F1F1"/>
<path d="M346.608 116.697C348.243 116.697 349.569 115.371 349.569 113.736C349.569 112.101 348.243 110.775 346.608 110.775C344.973 110.775 343.647 112.101 343.647 113.736C343.647 115.371 344.973 116.697 346.608 116.697Z" fill="#F1F1F1"/>
<path d="M259.961 124.82C261.596 124.82 262.921 123.494 262.921 121.859C262.921 120.224 261.596 118.898 259.961 118.898C258.326 118.898 257 120.224 257 121.859C257 123.494 258.326 124.82 259.961 124.82Z" fill="#F1F1F1"/>
<path d="M353.411 67.261C353.546 66.2992 353.324 65.3212 352.787 64.5122C352.25 63.7032 351.434 63.1195 350.495 62.8716C349.556 62.6237 348.558 62.729 347.692 63.1674C346.825 63.6057 346.149 64.3468 345.792 65.2501L337.421 74.8475L339.877 81.708L348.296 70.4939C348.846 70.6698 349.427 70.7232 349.999 70.6503C350.572 70.5773 351.121 70.3797 351.608 70.0715C352.096 69.7633 352.51 69.3519 352.822 68.8663C353.133 68.3807 353.334 67.8327 353.411 67.261Z" fill="#FFB7B7"/>
<path d="M318.71 104.605L346.499 74.9474L342.751 68.9883L307.896 98.4656L318.71 104.605Z" fill="#3F3D56"/>
<path d="M312.509 86.5854C317.892 86.5854 322.256 82.2212 322.256 76.8376C322.256 71.4541 317.892 67.0898 312.509 67.0898C307.125 67.0898 302.761 71.4541 302.761 76.8376C302.761 82.2212 307.125 86.5854 312.509 86.5854Z" fill="#2F2E41"/>
<path d="M313.292 71.3299C315.39 69.2028 317.928 67.5614 320.728 66.5212C322.526 65.8553 324.482 65.4438 326.362 65.822C328.241 66.2002 330.018 67.5003 330.542 69.3441C330.971 70.8519 330.529 72.4753 329.863 73.8946C329.198 75.3139 328.31 76.6301 327.772 78.1024C327.223 79.6046 327.057 81.2202 327.291 82.8025C327.525 84.3847 328.15 85.8835 329.11 87.1628C330.07 88.4421 331.334 89.4614 332.788 90.1282C334.242 90.795 335.839 91.0881 337.435 90.9809C335.589 91.2285 333.887 92.0962 332.082 92.5581C330.277 93.02 328.147 92.9887 326.805 91.6957C325.386 90.3276 325.358 88.1033 325.427 86.1333C325.529 83.2049 325.631 80.2765 325.733 77.3481C325.785 75.8547 325.829 74.3134 325.29 72.9195C324.752 71.5256 323.472 70.305 321.978 70.3177C320.845 70.3273 319.843 71.0134 318.935 71.69C318.026 72.3666 317.065 73.0885 315.937 73.1891C314.809 73.2897 313.521 72.4549 313.605 71.3255L313.292 71.3299Z" fill="#2F2E41"/>
<path d="M275.486 142.288C274.551 142.548 273.552 142.455 272.68 142.028C271.807 141.601 271.122 140.869 270.754 139.97C270.385 139.071 270.359 138.069 270.681 137.152C271.002 136.236 271.648 135.469 272.497 134.997L280.918 125.443L288.041 126.982L278.023 136.794C278.269 137.316 278.398 137.885 278.401 138.462C278.403 139.039 278.279 139.61 278.037 140.133C277.795 140.657 277.442 141.121 277.001 141.494C276.56 141.866 276.043 142.137 275.486 142.288H275.486Z" fill="#FFB7B7"/>
<path d="M303.191 108.087L282.203 134.433L275.805 131.496L300.475 93.0879L303.191 108.087Z" fill="#3F3D56"/>
<path d="M286.445 187.639L281.442 187.561L282.044 204.61H286.444L286.445 187.639Z" fill="#FFB7B7"/>
<path d="M287.565 203.176L278.9 203.176H278.9C277.435 203.176 276.031 203.758 274.995 204.793C273.96 205.829 273.378 207.233 273.378 208.698V208.877L287.565 208.878L287.565 203.176Z" fill="#2F2E41"/>
<path d="M319.565 183.117L314.101 186.625L325.031 199.775L328.734 197.398L319.565 183.117Z" fill="#FFB7B7"/>
<path d="M328.901 195.584L321.609 200.265L321.609 200.265C320.376 201.057 319.509 202.305 319.197 203.736C318.885 205.167 319.154 206.663 319.946 207.896L320.042 208.047L331.981 200.382L328.901 195.584Z" fill="#2F2E41"/>
<path d="M321.511 131.054C321.511 131.054 309.369 90.7288 305.467 90.1838C301.565 89.6389 295.279 100.531 295.279 100.531C287.128 110.931 278.723 144.618 278.723 144.618C278.723 144.618 292.734 145.495 302.977 150.944C313.219 156.394 325.307 150.669 325.307 150.669L321.511 131.054Z" fill="#3F3D56"/>
<path opacity="0.1" d="M321.511 131.056C321.511 131.056 309.369 90.7305 305.467 90.1856C301.565 89.6407 296.876 100.643 296.876 100.643C292.814 117.431 278.723 144.62 278.723 144.62C278.723 144.62 292.734 145.497 302.977 150.946C313.219 156.396 325.307 150.67 325.307 150.67L321.511 131.056Z" fill="black"/>
<path d="M311.55 118.991V139.254L313.935 168.607L325.849 190.81L320.162 194.872L303.916 173.752L297.49 152.781L287.399 199.204L279.817 198.663L285.083 134.297L295.075 116.18L311.55 118.991Z" fill="#2F2E41"/>
<path d="M299.308 99.3918C295.517 103.183 299.037 107.244 299.037 107.244L294.705 116.992L311.764 121.595L317.725 94.957L313.664 90.6247C305.54 90.3539 305.536 90.1855 305.536 90.1855C304.113 91.5784 299.308 99.3918 299.308 99.3918Z" fill="#B76E79"/>
<path d="M318.412 92.1962C317.637 91.6243 316.757 91.2118 315.821 90.9826C314.886 90.7534 313.914 90.7121 312.963 90.861C312.012 91.0099 311.099 91.3461 310.279 91.8502C309.458 92.3542 308.746 93.016 308.183 93.7973C303.894 99.7684 299.929 109.41 305.393 121.435C314.165 140.744 321.8 150.629 324.903 150.628C325.039 150.629 325.173 150.608 325.302 150.565C327.212 149.917 329.974 146.684 330.474 143.836C330.653 142.816 330.611 141.396 329.391 140.421C325.889 137.619 319.601 128.896 317.639 117.415C316.555 111.071 318.658 105.292 320.612 101.561C321.437 100.017 321.679 98.2279 321.292 96.5206C320.905 94.8134 319.916 93.3027 318.506 92.2656V92.2656L318.412 92.1962Z" fill="#3F3D56"/>
<path d="M313.009 85.6271C316.486 83.7263 317.764 79.3664 315.863 75.8891C313.962 72.4119 309.603 71.1339 306.125 73.0348C302.648 74.9356 301.37 79.2955 303.271 82.7727C305.172 86.25 309.532 87.528 313.009 85.6271Z" fill="#FFB7B7"/>
<path d="M299.476 78.7884H309.837L309.943 77.3009L310.474 78.7884H312.07L312.28 75.8401L313.333 78.7884H316.42V78.6424C316.418 76.5898 315.602 74.6219 314.15 73.1705C312.699 71.7191 310.731 70.9027 308.678 70.9004H307.218C305.165 70.9027 303.197 71.7191 301.746 73.1705C300.294 74.6219 299.478 76.5898 299.476 78.6424V78.7884Z" fill="#2F2E41"/>
<path d="M314.857 84.1353L319.279 82.7005V71.9629H310.927L311.134 72.1693C314.01 75.0425 317.21 85.236 314.857 84.1353Z" fill="#2F2E41"/>
<path d="M8.78717 194.915C8.51737 194.444 8.37811 193.91 8.38378 193.368C8.38378 191.97 9.24729 190.838 10.3168 190.838C11.3863 190.838 12.2498 191.97 12.2498 193.368C12.2555 193.91 12.1163 194.444 11.8465 194.915C12.111 195.388 12.2498 195.92 12.2498 196.462C12.2498 197.003 12.111 197.536 11.8465 198.009C12.111 198.481 12.2498 199.014 12.2498 199.556C12.2498 200.097 12.111 200.63 11.8465 201.103C12.111 201.575 12.2498 202.108 12.2498 202.649C12.2498 203.191 12.111 203.724 11.8465 204.196C12.1161 204.667 12.2553 205.201 12.2498 205.743C12.2498 207.141 11.3863 208.275 10.3168 208.275C9.24729 208.275 8.38378 207.141 8.38378 205.743C8.37829 205.201 8.51753 204.667 8.78717 204.196C8.52267 203.724 8.38379 203.191 8.38379 202.649C8.38379 202.108 8.52267 201.575 8.78717 201.103C8.52267 200.63 8.38379 200.097 8.38379 199.556C8.38379 199.014 8.52267 198.481 8.78717 198.009C8.52267 197.536 8.38379 197.003 8.38379 196.462C8.38379 195.92 8.52267 195.388 8.78717 194.915V194.915Z" fill="#B3B4B9"/>
<path d="M10.317 189.713C9.24939 189.713 8.38395 188.58 8.38395 187.182C8.38395 185.784 9.24939 184.65 10.317 184.65C11.3846 184.65 12.25 185.784 12.25 187.182C12.25 188.58 11.3846 189.713 10.317 189.713Z" fill="#3F3D56"/>
<path d="M17.5556 166.012C17.8195 165.676 18.0598 165.322 18.2747 164.952L13.1948 164.117L18.6892 164.158C19.2159 163.011 19.5031 161.769 19.5335 160.508C19.5638 159.247 19.3365 157.992 18.8656 156.822L11.495 160.646L18.2932 155.646C17.6583 154.542 16.8025 153.58 15.7791 152.822C14.7558 152.063 13.587 151.524 12.3458 151.237C11.1045 150.951 9.81758 150.923 8.56532 151.157C7.31305 151.39 6.12239 151.88 5.06775 152.594C4.01312 153.308 3.11717 154.233 2.43591 155.309C1.75464 156.385 1.30272 157.591 1.10836 158.85C0.913996 160.109 0.981385 161.394 1.30631 162.626C1.63124 163.857 2.20673 165.009 2.9968 166.008C2.5854 166.532 2.23139 167.098 1.94085 167.697L8.53436 171.131L1.50292 168.771C1.00937 170.231 0.887379 171.791 1.14799 173.309C1.4086 174.828 2.0436 176.258 2.99557 177.469C1.92051 178.835 1.25159 180.476 1.0653 182.205C0.879008 183.933 1.18287 185.679 1.94214 187.243C2.70141 188.806 3.88542 190.125 5.35879 191.047C6.83215 191.97 8.53539 192.459 10.2737 192.459C12.012 192.459 13.7153 191.97 15.1886 191.047C16.662 190.125 17.846 188.806 18.6053 187.243C19.3646 185.679 19.6684 183.933 19.4821 182.205C19.2958 180.476 18.6269 178.835 17.5519 177.469C18.8352 175.837 19.5329 173.82 19.5329 171.743C19.5329 169.666 18.8352 167.65 17.5519 166.017L17.5556 166.012Z" fill="#F9B9B8"/>
<path opacity="0.1" d="M1.01412 171.738C1.01098 173.816 1.70903 175.833 2.99526 177.464C1.9202 178.83 1.25128 180.471 1.06499 182.2C0.8787 183.928 1.18257 185.674 1.94183 187.238C2.7011 188.801 3.88511 190.12 5.35848 191.042C6.83184 191.965 8.53508 192.454 10.2734 192.454C12.0117 192.454 13.715 191.965 15.1883 191.042C16.6617 190.12 17.8457 188.801 18.605 187.238C19.3642 185.674 19.6681 183.928 19.4818 182.2C19.2955 180.471 18.6266 178.83 17.5516 177.464C18.7987 175.888 1.01412 170.698 1.01412 171.738Z" fill="black"/>
</g>
<defs>
<clipPath id="clip0_400_49728">
<rect width="382" height="209" fill="white"/>
</clipPath>
</defs>
</svg>
