<svg width="478" height="277" viewBox="0 0 478 277" fill="none" xmlns="http://www.w3.org/2000/svg">
<path d="M288.907 98.8545H288.907C294.463 98.8545 299.964 99.9502 305.097 102.079C310.231 104.208 314.895 107.328 318.823 111.262C322.752 115.196 325.868 119.866 327.995 125.006C330.121 130.145 331.215 135.654 331.215 141.217V242.715H246.598V141.217C246.598 135.654 247.692 130.145 249.819 125.006C251.945 119.866 255.061 115.196 258.99 111.262C262.919 107.328 267.583 104.208 272.716 102.079C277.849 99.9502 283.351 98.8545 288.907 98.8545Z" fill="#E6E6E6"/>
<path d="M457.075 262.384C455.785 262.837 454.4 262.951 453.053 262.714C451.707 262.476 450.444 261.896 449.386 261.028C446.693 258.766 445.849 255.039 445.162 251.588L443.129 241.381L447.384 244.313C450.444 246.421 453.572 248.597 455.691 251.651C457.809 254.704 458.734 258.873 457.032 262.178L457.075 262.384Z" fill="#E6E6E6"/>
<path d="M456.713 274.743C457.144 271.603 457.586 268.424 457.284 265.251C457.016 262.434 456.157 259.682 454.408 257.425C453.48 256.23 452.351 255.205 451.071 254.398C450.737 254.187 450.43 254.717 450.762 254.927C452.977 256.328 454.69 258.396 455.654 260.834C456.719 263.545 456.89 266.5 456.707 269.38C456.596 271.122 456.36 272.852 456.123 274.58C456.105 274.658 456.116 274.74 456.156 274.81C456.196 274.88 456.26 274.932 456.337 274.956C456.415 274.977 456.498 274.967 456.569 274.927C456.639 274.887 456.691 274.821 456.713 274.743H456.713Z" fill="#F2F2F2"/>
<path d="M452.565 269.187C452.012 270.029 451.252 270.713 450.357 271.175C449.462 271.637 448.464 271.861 447.458 271.825C444.873 271.702 442.717 269.896 440.777 268.182L435.038 263.111L438.836 262.929C441.568 262.798 444.37 262.676 446.971 263.519C449.573 264.362 451.972 266.391 452.448 269.086L452.565 269.187Z" fill="#E6E6E6"/>
<path d="M457.928 276.546C455.855 272.876 453.451 268.797 449.156 267.493C447.961 267.132 446.709 267.002 445.466 267.112C445.074 267.146 445.172 267.75 445.563 267.716C447.646 267.543 449.726 268.094 451.451 269.275C453.112 270.406 454.404 271.979 455.498 273.646C456.169 274.667 456.769 275.732 457.369 276.795C457.561 277.135 458.122 276.89 457.928 276.546H457.928Z" fill="#F2F2F2"/>
<path d="M274.228 153.243H266.63V178.488H274.228V153.243Z" fill="white"/>
<path d="M301.513 180.563H276.301V203.387H301.513V180.563Z" fill="white"/>
<path d="M301.513 153.243H276.301V178.488H301.513V153.243Z" fill="white"/>
<path d="M303.585 151.169H311.183V150.65C311.186 147.473 310.51 144.333 309.199 141.44C307.888 138.547 305.974 135.969 303.585 133.879V151.169Z" fill="white"/>
<path d="M276.301 151.169H301.513V132.262C297.806 129.705 293.409 128.339 288.907 128.345C284.405 128.339 280.008 129.705 276.301 132.262V151.169Z" fill="white"/>
<path d="M274.228 180.563H266.63V197.854C266.63 199.322 267.212 200.729 268.248 201.767C269.285 202.804 270.69 203.387 272.156 203.387H274.228V180.563Z" fill="white"/>
<path d="M303.585 180.563V203.387H305.657C307.123 203.387 308.529 202.804 309.565 201.767C310.601 200.729 311.183 199.322 311.183 197.854V180.563H303.585Z" fill="white"/>
<path d="M274.228 151.169V133.879C271.839 135.969 269.925 138.547 268.614 141.44C267.304 144.333 266.627 147.473 266.63 150.65V151.169H274.228Z" fill="white"/>
<path d="M311.183 153.243H303.585V178.488H311.183V153.243Z" fill="white"/>
<path d="M319.3 170.88C320.826 170.88 322.063 169.641 322.063 168.113C322.063 166.585 320.826 165.347 319.3 165.347C317.774 165.347 316.537 166.585 316.537 168.113C316.537 169.641 317.774 170.88 319.3 170.88Z" fill="#3F3D56"/>
<path d="M183.622 135.688H177.658V155.501H183.622V135.688Z" fill="#F2F2F2"/>
<path d="M205.037 135.688H185.248V155.501H205.037V135.688Z" fill="#F2F2F2"/>
<path d="M212.627 135.688H206.663V155.501H212.627V135.688Z" fill="#F2F2F2"/>
<path d="M206.663 134.06H212.627V133.652C212.629 131.159 212.098 128.694 211.069 126.424C210.04 124.153 208.538 122.13 206.663 120.489V134.06Z" fill="#F2F2F2"/>
<path d="M205.037 157.13H185.248V175.044H205.037V157.13Z" fill="#F2F2F2"/>
<path d="M183.622 157.13H177.658V170.701C177.658 171.853 178.115 172.957 178.928 173.772C179.742 174.586 180.845 175.044 181.995 175.044H183.622L183.622 157.13Z" fill="#F2F2F2"/>
<path d="M206.663 157.13V175.044H208.289C208.859 175.044 209.423 174.931 209.949 174.713C210.475 174.495 210.953 174.175 211.356 173.772C211.759 173.369 212.078 172.89 212.296 172.363C212.514 171.836 212.627 171.271 212.627 170.701V157.13H206.663Z" fill="#F2F2F2"/>
<path d="M183.622 134.06V120.489C181.747 122.13 180.244 124.153 179.216 126.424C178.187 128.694 177.656 131.159 177.658 133.652V134.06H183.622Z" fill="#F2F2F2"/>
<path d="M185.248 134.06H205.037V119.22C202.127 117.213 198.676 116.141 195.142 116.146C191.609 116.141 188.158 117.213 185.248 119.22V134.06Z" fill="#F2F2F2"/>
<path d="M220.416 177.209H169.995C169.672 177.208 169.362 177.08 169.133 176.851C168.904 176.622 168.776 176.311 168.775 175.987V172.73C168.776 172.406 168.904 172.096 169.133 171.867C169.362 171.638 169.672 171.509 169.995 171.509H220.416C220.739 171.509 221.049 171.638 221.278 171.867C221.506 172.096 221.635 172.406 221.635 172.73V175.987C221.635 176.311 221.506 176.622 221.278 176.851C221.049 177.08 220.739 177.208 220.416 177.209Z" fill="#E6E6E6"/>
<path d="M407.955 177.209H357.534C357.211 177.208 356.901 177.08 356.672 176.851C356.443 176.622 356.315 176.311 356.314 175.987V172.73C356.315 172.406 356.443 172.096 356.672 171.867C356.901 171.638 357.211 171.509 357.534 171.509H407.955C408.278 171.509 408.588 171.638 408.817 171.867C409.046 172.096 409.174 172.406 409.175 172.73V175.987C409.174 176.311 409.046 176.622 408.817 176.851C408.588 177.08 408.278 177.208 407.955 177.209Z" fill="#E6E6E6"/>
<path d="M422.913 243.06H154.901C151.879 243.057 148.982 241.853 146.846 239.714C144.709 237.575 143.507 234.674 143.504 231.648V57.702C143.507 54.6764 144.709 51.7757 146.846 49.6363C148.982 47.4969 151.879 46.2935 154.901 46.29H422.913C425.934 46.2935 428.831 47.4969 430.968 49.6363C433.105 51.7757 434.307 54.6764 434.31 57.702V231.648C434.307 234.674 433.105 237.575 430.968 239.714C428.831 241.853 425.934 243.057 422.913 243.06ZM154.901 46.9817C152.062 46.9849 149.341 48.1154 147.334 50.1252C145.327 52.1349 144.198 54.8598 144.194 57.702V231.648C144.198 234.491 145.327 237.215 147.334 239.225C149.341 241.235 152.062 242.365 154.901 242.369H422.913C425.751 242.365 428.473 241.235 430.48 239.225C432.487 237.215 433.616 234.491 433.619 231.648V57.702C433.616 54.8598 432.487 52.1349 430.48 50.1252C428.473 48.1154 425.751 46.9849 422.913 46.9817H154.901Z" fill="#CCCCCC"/>
<path d="M147.837 69.0341C144.968 69.0319 142.205 67.9486 140.097 65.9997C137.989 64.0508 136.691 61.379 136.46 58.5155C136.23 55.6519 137.084 52.8064 138.853 50.5446C140.622 48.2829 143.176 46.7705 146.008 46.3082L286.077 0.227665C287.897 -0.0736047 289.754 -0.0758863 291.575 0.220911L431.83 46.3158C434.816 46.8092 437.485 48.4695 439.25 50.932C441.014 53.3945 441.73 56.4578 441.241 59.4486C440.751 62.4395 439.095 65.1133 436.638 66.8827C434.18 68.652 431.121 69.3721 428.134 68.8846C426.623 68.6685 290.149 49.157 288.904 49.1057C287.664 49.157 151.057 68.6876 149.677 68.885C149.069 68.9842 148.454 69.0341 147.837 69.0341Z" fill="#CCCCCC"/>
<g clip-path="url(#clip0_473_40127)">
<path d="M412.492 171.226C412.504 180.94 408.748 190.28 402.015 197.282C401.609 197.707 401.193 198.122 400.765 198.526C400.113 199.146 399.439 199.742 398.744 200.314C392.236 205.674 384.113 208.686 375.684 208.864C375.403 208.87 375.121 208.874 374.838 208.874C368.115 208.874 359.66 205.284 351.987 200.314C351.352 199.903 350.723 199.482 350.099 199.052C349.808 198.853 349.518 198.651 349.229 198.446C346.27 196.357 343.461 194.062 340.823 191.579C339.095 189.959 337.476 188.227 335.974 186.396C330.078 179.125 328.778 172.573 337.183 171.226C338.178 171.067 339.144 170.897 340.081 170.716C341.437 170.456 342.736 170.174 343.976 169.872C345.646 169.466 347.215 169.026 348.683 168.552C349.177 168.393 349.66 168.23 350.131 168.065C357.098 165.618 361.762 162.428 364.936 158.966C365.474 158.38 365.971 157.787 366.425 157.187C367.12 156.274 367.751 155.313 368.315 154.313C369.092 152.924 369.745 151.468 370.266 149.963L370.294 149.881C372.82 142.597 372.052 135.841 374.838 133.579C386.748 123.912 401.577 137.679 408.536 153.914C408.887 154.732 409.217 155.555 409.526 156.383C409.665 156.753 409.799 157.123 409.928 157.494C410.267 158.462 410.575 159.432 410.851 160.404C410.957 160.775 411.058 161.145 411.154 161.516C411.257 161.915 411.356 162.313 411.447 162.712C412.124 165.629 412.492 168.506 412.492 171.226Z" fill="#F2F2F2"/>
<path d="M375.683 208.863C375.402 208.87 375.12 208.873 374.837 208.873C368.115 208.873 359.659 205.283 351.986 200.313C351.351 199.902 350.722 199.481 350.099 199.051L350.646 195.724L367.201 193.526L375.51 199.879L375.683 208.863Z" fill="#2F2E41"/>
<path d="M376.481 149.452H374.122C374.049 149.452 373.979 149.481 373.927 149.533C373.876 149.585 373.846 149.655 373.846 149.728V152.087C373.846 152.124 373.854 152.159 373.867 152.193C373.881 152.226 373.902 152.256 373.927 152.282C373.953 152.307 373.983 152.327 374.017 152.341C374.05 152.355 374.086 152.362 374.122 152.362H376.481C376.554 152.362 376.624 152.333 376.676 152.282C376.727 152.23 376.756 152.16 376.757 152.087V149.728C376.757 149.655 376.727 149.585 376.676 149.533C376.624 149.481 376.554 149.452 376.481 149.452Z" fill="white"/>
<path d="M376.481 153.473H374.122C374.049 153.473 373.979 153.502 373.927 153.553C373.876 153.605 373.846 153.675 373.846 153.748V156.108C373.846 156.144 373.854 156.18 373.867 156.213C373.881 156.247 373.902 156.277 373.927 156.302C373.953 156.328 373.983 156.348 374.017 156.362C374.05 156.375 374.086 156.383 374.122 156.382H376.481C376.554 156.382 376.624 156.354 376.676 156.302C376.727 156.251 376.756 156.181 376.757 156.108V153.748C376.757 153.675 376.727 153.605 376.676 153.554C376.624 153.502 376.554 153.473 376.481 153.473Z" fill="#E6E6E6"/>
<path d="M376.481 157.494H374.122C374.049 157.494 373.979 157.523 373.927 157.575C373.875 157.627 373.846 157.697 373.846 157.77V160.128C373.846 160.165 373.853 160.2 373.867 160.234C373.881 160.267 373.901 160.298 373.927 160.323C373.953 160.349 373.983 160.369 374.016 160.383C374.05 160.397 374.086 160.404 374.122 160.404H376.481C376.554 160.404 376.624 160.375 376.676 160.323C376.728 160.272 376.757 160.201 376.757 160.128V157.77C376.757 157.697 376.727 157.627 376.676 157.575C376.624 157.523 376.554 157.494 376.481 157.494Z" fill="#E6E6E6"/>
<path d="M376.752 161.742C376.741 161.679 376.707 161.622 376.658 161.58C376.608 161.539 376.546 161.516 376.481 161.516H374.122C374.049 161.516 373.979 161.545 373.927 161.596C373.876 161.648 373.846 161.718 373.846 161.791V164.15C373.846 164.186 373.853 164.222 373.867 164.255C373.881 164.289 373.901 164.319 373.927 164.345C373.953 164.37 373.983 164.391 374.016 164.405C374.05 164.418 374.086 164.425 374.122 164.425H376.481C376.554 164.425 376.624 164.396 376.676 164.345C376.728 164.293 376.757 164.223 376.757 164.15V161.791C376.757 161.775 376.756 161.758 376.752 161.742Z" fill="#E6E6E6"/>
<path d="M376.587 165.558C376.553 165.544 376.517 165.537 376.48 165.537H374.121C374.085 165.537 374.049 165.544 374.015 165.558C373.982 165.572 373.951 165.592 373.926 165.618C373.9 165.643 373.88 165.674 373.866 165.707C373.852 165.741 373.845 165.776 373.845 165.813V168.171C373.845 168.208 373.852 168.243 373.866 168.277C373.88 168.31 373.9 168.341 373.926 168.367C373.951 168.392 373.982 168.412 374.015 168.426C374.049 168.44 374.085 168.447 374.121 168.447H376.48C376.553 168.447 376.623 168.418 376.675 168.366C376.726 168.314 376.755 168.244 376.756 168.171V165.813C376.755 165.758 376.739 165.705 376.709 165.66C376.679 165.615 376.637 165.58 376.587 165.558Z" fill="#E6E6E6"/>
<path d="M381.435 149.451H379.076C379.003 149.451 378.933 149.48 378.881 149.532C378.83 149.584 378.801 149.654 378.801 149.727V152.086C378.801 152.123 378.808 152.158 378.822 152.192C378.835 152.225 378.856 152.255 378.881 152.281C378.907 152.306 378.937 152.327 378.971 152.34C379.004 152.354 379.04 152.361 379.076 152.361H381.435C381.508 152.361 381.578 152.332 381.63 152.281C381.681 152.229 381.711 152.159 381.711 152.086V149.727C381.711 149.654 381.682 149.584 381.63 149.532C381.578 149.48 381.508 149.451 381.435 149.451Z" fill="#E6E6E6"/>
<path d="M381.435 153.473H379.076C379.003 153.473 378.933 153.502 378.881 153.553C378.83 153.605 378.801 153.675 378.801 153.748V156.108C378.801 156.144 378.808 156.18 378.822 156.213C378.835 156.247 378.856 156.277 378.881 156.302C378.907 156.328 378.937 156.348 378.971 156.362C379.004 156.375 379.04 156.383 379.076 156.382H381.435C381.508 156.382 381.578 156.354 381.63 156.302C381.681 156.251 381.711 156.181 381.711 156.108V153.748C381.711 153.675 381.682 153.605 381.63 153.554C381.578 153.502 381.508 153.473 381.435 153.473Z" fill="#B76E79"/>
<path d="M381.435 157.494H379.076C379.003 157.494 378.933 157.523 378.881 157.575C378.83 157.627 378.801 157.697 378.801 157.77V160.128C378.8 160.165 378.808 160.2 378.821 160.234C378.835 160.267 378.855 160.298 378.881 160.323C378.907 160.349 378.937 160.369 378.971 160.383C379.004 160.397 379.04 160.404 379.076 160.404H381.435C381.508 160.404 381.578 160.375 381.63 160.323C381.682 160.272 381.711 160.201 381.711 160.128V157.77C381.711 157.697 381.682 157.627 381.63 157.575C381.578 157.523 381.508 157.494 381.435 157.494Z" fill="#B76E79"/>
<path d="M381.435 161.516H379.076C379.018 161.516 378.962 161.534 378.915 161.568C378.868 161.602 378.833 161.649 378.815 161.704C378.806 161.732 378.801 161.762 378.801 161.791V164.15C378.8 164.186 378.808 164.222 378.821 164.255C378.835 164.289 378.855 164.319 378.881 164.345C378.907 164.37 378.937 164.391 378.971 164.405C379.004 164.418 379.04 164.425 379.076 164.425H381.435C381.508 164.425 381.578 164.396 381.63 164.345C381.682 164.293 381.711 164.223 381.711 164.15V161.791C381.711 161.718 381.682 161.648 381.63 161.597C381.578 161.545 381.508 161.516 381.435 161.516Z" fill="#B76E79"/>
<path d="M381.435 165.537H379.076C379.04 165.537 379.004 165.544 378.971 165.558C378.937 165.572 378.907 165.592 378.881 165.618C378.855 165.643 378.835 165.674 378.821 165.707C378.808 165.741 378.8 165.776 378.801 165.813V168.171C378.8 168.208 378.808 168.243 378.821 168.277C378.835 168.31 378.855 168.341 378.881 168.366C378.907 168.392 378.937 168.412 378.971 168.426C379.004 168.44 379.04 168.447 379.076 168.447H381.435C381.508 168.447 381.578 168.418 381.63 168.366C381.682 168.314 381.711 168.244 381.711 168.171V165.813C381.711 165.74 381.682 165.669 381.63 165.618C381.578 165.566 381.508 165.537 381.435 165.537Z" fill="#E6E6E6"/>
<path d="M386.393 149.452H384.034C383.961 149.452 383.891 149.481 383.839 149.533C383.787 149.585 383.758 149.655 383.758 149.728V152.087C383.758 152.124 383.765 152.159 383.779 152.193C383.793 152.226 383.814 152.256 383.839 152.282C383.865 152.307 383.895 152.327 383.929 152.341C383.962 152.355 383.998 152.362 384.034 152.362H386.393C386.466 152.362 386.536 152.333 386.588 152.282C386.639 152.23 386.668 152.16 386.669 152.087V149.728C386.668 149.655 386.639 149.585 386.588 149.533C386.536 149.481 386.466 149.452 386.393 149.452Z" fill="#B76E79"/>
<path d="M386.393 153.473H384.034C383.961 153.473 383.891 153.502 383.839 153.553C383.787 153.605 383.758 153.675 383.758 153.748V156.108C383.758 156.144 383.765 156.18 383.779 156.213C383.793 156.247 383.814 156.277 383.839 156.302C383.865 156.328 383.895 156.348 383.929 156.362C383.962 156.375 383.998 156.383 384.034 156.382H386.393C386.466 156.382 386.536 156.354 386.588 156.302C386.639 156.251 386.668 156.181 386.669 156.108V153.748C386.668 153.675 386.639 153.605 386.588 153.554C386.536 153.502 386.466 153.473 386.393 153.473Z" fill="#B76E79"/>
<path d="M386.393 157.494H384.034C383.961 157.494 383.891 157.523 383.839 157.575C383.787 157.627 383.758 157.697 383.758 157.77V160.128C383.758 160.165 383.765 160.2 383.779 160.234C383.793 160.267 383.813 160.298 383.839 160.323C383.864 160.349 383.895 160.369 383.928 160.383C383.962 160.397 383.998 160.404 384.034 160.404H386.393C386.466 160.404 386.536 160.375 386.588 160.323C386.64 160.272 386.669 160.201 386.669 160.128V157.77C386.668 157.697 386.639 157.627 386.588 157.575C386.536 157.523 386.466 157.494 386.393 157.494Z" fill="#E6E6E6"/>
<path d="M386.393 161.516H384.034C383.961 161.516 383.891 161.545 383.839 161.596C383.787 161.648 383.758 161.718 383.758 161.791V164.15C383.758 164.186 383.765 164.222 383.779 164.255C383.793 164.289 383.813 164.319 383.839 164.345C383.864 164.37 383.895 164.391 383.928 164.405C383.962 164.418 383.998 164.425 384.034 164.425H386.393C386.466 164.425 386.536 164.396 386.588 164.345C386.64 164.293 386.669 164.223 386.669 164.15V161.791C386.668 161.718 386.639 161.648 386.588 161.597C386.536 161.545 386.466 161.516 386.393 161.516Z" fill="#B76E79"/>
<path d="M386.393 165.537H384.034C383.998 165.537 383.962 165.544 383.928 165.558C383.895 165.572 383.864 165.592 383.839 165.618C383.813 165.643 383.793 165.674 383.779 165.707C383.765 165.741 383.758 165.776 383.758 165.813V168.171C383.758 168.208 383.765 168.243 383.779 168.277C383.793 168.31 383.813 168.341 383.839 168.366C383.864 168.392 383.895 168.412 383.928 168.426C383.962 168.44 383.998 168.447 384.034 168.447H386.393C386.466 168.447 386.536 168.418 386.588 168.366C386.64 168.314 386.669 168.244 386.669 168.171V165.813C386.669 165.74 386.64 165.669 386.588 165.618C386.536 165.566 386.466 165.537 386.393 165.537Z" fill="#B76E79"/>
<path d="M391.347 149.452H388.988C388.915 149.452 388.845 149.481 388.793 149.533C388.741 149.585 388.712 149.655 388.712 149.728V152.087C388.712 152.124 388.719 152.159 388.733 152.193C388.747 152.226 388.767 152.256 388.793 152.282C388.819 152.307 388.849 152.327 388.882 152.341C388.916 152.355 388.952 152.362 388.988 152.362H391.347C391.42 152.362 391.49 152.333 391.541 152.282C391.593 152.23 391.622 152.16 391.622 152.087V149.728C391.622 149.655 391.593 149.585 391.542 149.533C391.49 149.481 391.42 149.452 391.347 149.452Z" fill="#B76E79"/>
<path d="M391.347 153.473H388.988C388.915 153.473 388.845 153.502 388.793 153.553C388.741 153.605 388.712 153.675 388.712 153.748V156.108C388.712 156.144 388.719 156.18 388.733 156.213C388.747 156.247 388.767 156.277 388.793 156.302C388.819 156.328 388.849 156.348 388.882 156.362C388.916 156.375 388.952 156.383 388.988 156.382H391.347C391.42 156.382 391.49 156.354 391.541 156.302C391.593 156.251 391.622 156.181 391.622 156.108V153.748C391.622 153.675 391.593 153.605 391.542 153.554C391.49 153.502 391.42 153.473 391.347 153.473Z" fill="white"/>
<path d="M391.347 157.494H388.988C388.915 157.494 388.845 157.523 388.793 157.575C388.741 157.627 388.712 157.697 388.712 157.77V160.128C388.712 160.165 388.719 160.2 388.733 160.234C388.747 160.267 388.767 160.298 388.793 160.323C388.818 160.349 388.849 160.369 388.882 160.383C388.916 160.397 388.952 160.404 388.988 160.404H391.347C391.42 160.404 391.49 160.375 391.542 160.323C391.593 160.272 391.622 160.201 391.622 160.128V157.77C391.622 157.697 391.593 157.627 391.542 157.575C391.49 157.523 391.42 157.494 391.347 157.494Z" fill="white"/>
<path d="M391.347 161.516H388.988C388.915 161.516 388.845 161.545 388.793 161.596C388.741 161.648 388.712 161.718 388.712 161.791V164.15C388.712 164.186 388.719 164.222 388.733 164.255C388.747 164.289 388.767 164.319 388.793 164.345C388.818 164.37 388.849 164.391 388.882 164.405C388.916 164.418 388.952 164.425 388.988 164.425H391.347C391.42 164.425 391.49 164.396 391.542 164.345C391.593 164.293 391.622 164.223 391.622 164.15V161.791C391.622 161.718 391.593 161.648 391.542 161.597C391.49 161.545 391.42 161.516 391.347 161.516Z" fill="#E6E6E6"/>
<path d="M391.347 165.537H388.988C388.952 165.537 388.916 165.544 388.882 165.558C388.849 165.572 388.818 165.592 388.793 165.618C388.767 165.643 388.747 165.674 388.733 165.707C388.719 165.741 388.712 165.776 388.712 165.813V168.171C388.712 168.208 388.719 168.243 388.733 168.277C388.747 168.31 388.767 168.341 388.793 168.366C388.818 168.392 388.849 168.412 388.882 168.426C388.916 168.44 388.952 168.447 388.988 168.447H391.347C391.42 168.447 391.49 168.418 391.542 168.366C391.593 168.314 391.622 168.244 391.622 168.171V165.813C391.622 165.74 391.593 165.669 391.542 165.618C391.49 165.566 391.42 165.537 391.347 165.537Z" fill="#B76E79"/>
<path d="M396.305 149.451H393.944C393.872 149.451 393.802 149.481 393.75 149.532C393.699 149.584 393.67 149.654 393.67 149.727V152.086C393.67 152.159 393.699 152.229 393.75 152.281C393.802 152.332 393.872 152.361 393.944 152.361H396.305C396.378 152.361 396.448 152.332 396.499 152.281C396.551 152.229 396.58 152.159 396.58 152.086V149.727C396.58 149.654 396.551 149.584 396.499 149.532C396.448 149.48 396.378 149.451 396.305 149.451Z" fill="white"/>
<path d="M396.305 153.473H393.944C393.872 153.473 393.802 153.502 393.75 153.554C393.699 153.605 393.67 153.675 393.67 153.748V156.108C393.67 156.181 393.699 156.251 393.75 156.302C393.802 156.353 393.872 156.382 393.944 156.382H396.305C396.378 156.382 396.448 156.354 396.499 156.302C396.551 156.251 396.58 156.181 396.58 156.108V153.748C396.58 153.675 396.551 153.605 396.499 153.554C396.448 153.502 396.378 153.473 396.305 153.473Z" fill="white"/>
<path d="M396.305 157.494H393.944C393.872 157.494 393.802 157.524 393.75 157.575C393.699 157.627 393.67 157.697 393.67 157.77V160.128C393.67 160.165 393.677 160.2 393.691 160.234C393.704 160.267 393.725 160.297 393.75 160.323C393.776 160.349 393.806 160.369 393.839 160.383C393.873 160.397 393.908 160.404 393.944 160.404H396.305C396.378 160.404 396.448 160.375 396.499 160.323C396.551 160.272 396.58 160.201 396.58 160.128V157.77C396.58 157.697 396.551 157.627 396.499 157.575C396.448 157.523 396.378 157.494 396.305 157.494Z" fill="white"/>
<path d="M396.305 161.516H393.944C393.872 161.516 393.802 161.545 393.75 161.597C393.699 161.648 393.67 161.718 393.67 161.791V164.15C393.67 164.186 393.677 164.222 393.691 164.255C393.704 164.289 393.725 164.319 393.75 164.345C393.776 164.37 393.806 164.39 393.839 164.404C393.873 164.418 393.908 164.425 393.944 164.425H396.305C396.378 164.425 396.448 164.396 396.499 164.345C396.551 164.293 396.58 164.223 396.58 164.15V161.791C396.58 161.718 396.551 161.648 396.499 161.597C396.448 161.545 396.378 161.516 396.305 161.516Z" fill="#B76E79"/>
<path d="M396.305 165.537H393.944C393.908 165.537 393.873 165.544 393.839 165.558C393.806 165.572 393.776 165.592 393.75 165.618C393.725 165.644 393.704 165.674 393.691 165.707C393.677 165.741 393.67 165.776 393.67 165.813V168.171C393.67 168.207 393.677 168.243 393.691 168.277C393.704 168.31 393.725 168.34 393.75 168.366C393.776 168.392 393.806 168.412 393.839 168.426C393.873 168.44 393.908 168.447 393.944 168.447H396.305C396.378 168.447 396.448 168.418 396.499 168.366C396.551 168.314 396.58 168.244 396.58 168.171V165.813C396.58 165.74 396.551 165.669 396.499 165.618C396.448 165.566 396.378 165.537 396.305 165.537Z" fill="#E6E6E6"/>
<path d="M401.26 149.451H398.9C398.827 149.451 398.757 149.481 398.706 149.532C398.654 149.584 398.625 149.654 398.625 149.727V152.086C398.626 152.159 398.654 152.229 398.706 152.281C398.757 152.332 398.827 152.361 398.9 152.361H401.26C401.333 152.361 401.403 152.332 401.455 152.281C401.506 152.229 401.536 152.159 401.536 152.086V149.727C401.536 149.654 401.506 149.584 401.455 149.532C401.403 149.48 401.333 149.451 401.26 149.451Z" fill="white"/>
<path d="M401.26 153.473H398.9C398.827 153.473 398.757 153.502 398.706 153.554C398.654 153.605 398.625 153.675 398.625 153.748V156.108C398.626 156.181 398.654 156.251 398.706 156.302C398.757 156.353 398.827 156.382 398.9 156.382H401.26C401.333 156.382 401.403 156.354 401.455 156.302C401.506 156.251 401.536 156.181 401.536 156.108V153.748C401.536 153.675 401.506 153.605 401.455 153.554C401.403 153.502 401.333 153.473 401.26 153.473Z" fill="white"/>
<path d="M401.26 157.494H398.9C398.827 157.494 398.757 157.524 398.706 157.575C398.654 157.627 398.625 157.697 398.625 157.77V160.128C398.625 160.165 398.632 160.2 398.646 160.234C398.66 160.267 398.68 160.297 398.706 160.323C398.731 160.349 398.761 160.369 398.795 160.383C398.828 160.397 398.864 160.404 398.9 160.404H401.26C401.333 160.404 401.403 160.375 401.455 160.323C401.507 160.272 401.536 160.201 401.536 160.128V157.77C401.536 157.697 401.506 157.627 401.455 157.575C401.403 157.523 401.333 157.494 401.26 157.494Z" fill="#B76E79"/>
<path d="M401.26 161.516H398.9C398.827 161.516 398.757 161.545 398.706 161.597C398.654 161.648 398.625 161.718 398.625 161.791V164.15C398.625 164.186 398.632 164.222 398.646 164.255C398.66 164.289 398.68 164.319 398.706 164.345C398.731 164.37 398.761 164.39 398.795 164.404C398.828 164.418 398.864 164.425 398.9 164.425H401.26C401.333 164.425 401.403 164.396 401.455 164.345C401.507 164.293 401.536 164.223 401.536 164.15V161.791C401.536 161.718 401.506 161.648 401.455 161.597C401.403 161.545 401.333 161.516 401.26 161.516Z" fill="#E6E6E6"/>
<path d="M401.26 165.537H398.9C398.864 165.537 398.828 165.544 398.795 165.558C398.761 165.572 398.731 165.592 398.706 165.618C398.68 165.644 398.66 165.674 398.646 165.707C398.632 165.741 398.625 165.776 398.625 165.813V168.171C398.625 168.207 398.632 168.243 398.646 168.277C398.66 168.31 398.68 168.34 398.706 168.366C398.731 168.392 398.761 168.412 398.795 168.426C398.828 168.44 398.864 168.447 398.9 168.447H401.26C401.333 168.447 401.403 168.418 401.455 168.366C401.507 168.314 401.536 168.244 401.536 168.171V165.813C401.536 165.74 401.507 165.669 401.455 165.618C401.403 165.566 401.333 165.537 401.26 165.537Z" fill="white"/>
<path d="M406.216 149.451H403.855C403.782 149.451 403.713 149.481 403.661 149.532C403.61 149.584 403.581 149.654 403.581 149.727V152.086C403.581 152.159 403.61 152.229 403.661 152.281C403.713 152.332 403.783 152.361 403.855 152.361H406.216C406.288 152.361 406.358 152.332 406.41 152.281C406.462 152.229 406.491 152.159 406.491 152.086V149.727C406.491 149.654 406.462 149.584 406.41 149.532C406.359 149.48 406.289 149.451 406.216 149.451Z" fill="#B76E79"/>
<path d="M406.216 153.473H403.855C403.782 153.473 403.713 153.502 403.661 153.554C403.61 153.605 403.581 153.675 403.581 153.748V156.108C403.581 156.181 403.61 156.251 403.661 156.302C403.713 156.353 403.783 156.382 403.855 156.382H406.216C406.288 156.382 406.358 156.354 406.41 156.302C406.462 156.251 406.491 156.181 406.491 156.108V153.748C406.491 153.675 406.462 153.605 406.41 153.554C406.359 153.502 406.289 153.473 406.216 153.473Z" fill="#B76E79"/>
<path d="M406.216 157.494H403.855C403.782 157.494 403.713 157.524 403.661 157.575C403.61 157.627 403.581 157.697 403.581 157.77V160.128C403.581 160.165 403.588 160.2 403.601 160.234C403.615 160.267 403.635 160.297 403.661 160.323C403.686 160.349 403.717 160.369 403.75 160.383C403.783 160.397 403.819 160.404 403.855 160.404H406.216C406.289 160.404 406.359 160.375 406.41 160.323C406.462 160.272 406.491 160.201 406.491 160.128V157.77C406.491 157.697 406.462 157.627 406.41 157.575C406.359 157.523 406.289 157.494 406.216 157.494Z" fill="#E6E6E6"/>
<path d="M406.216 161.516H403.855C403.782 161.516 403.713 161.545 403.661 161.597C403.61 161.648 403.581 161.718 403.581 161.791V164.15C403.581 164.186 403.588 164.222 403.601 164.255C403.615 164.289 403.635 164.319 403.661 164.345C403.686 164.37 403.717 164.39 403.75 164.404C403.783 164.418 403.819 164.425 403.855 164.425H406.216C406.289 164.425 406.359 164.396 406.41 164.345C406.462 164.293 406.491 164.223 406.491 164.15V161.791C406.491 161.718 406.462 161.648 406.41 161.597C406.359 161.545 406.289 161.516 406.216 161.516Z" fill="white"/>
<path d="M406.216 165.537H403.855C403.819 165.537 403.783 165.544 403.75 165.558C403.717 165.572 403.686 165.592 403.661 165.618C403.635 165.644 403.615 165.674 403.601 165.707C403.588 165.741 403.581 165.776 403.581 165.813V168.171C403.581 168.207 403.588 168.243 403.601 168.277C403.615 168.31 403.635 168.34 403.661 168.366C403.686 168.392 403.717 168.412 403.75 168.426C403.783 168.44 403.819 168.447 403.855 168.447H406.216C406.289 168.447 406.359 168.418 406.41 168.366C406.462 168.314 406.491 168.244 406.491 168.171V165.813C406.491 165.74 406.462 165.669 406.41 165.618C406.359 165.566 406.289 165.537 406.216 165.537Z" fill="#B76E79"/>
<path d="M411.171 149.451H408.811C408.738 149.451 408.668 149.481 408.617 149.532C408.565 149.584 408.536 149.654 408.536 149.727V152.086C408.536 152.159 408.565 152.229 408.617 152.281C408.668 152.332 408.738 152.361 408.811 152.361H411.171C411.244 152.361 411.314 152.332 411.366 152.281C411.417 152.229 411.446 152.159 411.447 152.086V149.727C411.446 149.654 411.417 149.584 411.366 149.532C411.314 149.48 411.244 149.451 411.171 149.451Z" fill="#B76E79"/>
<path d="M411.171 153.473H408.811C408.738 153.473 408.668 153.502 408.617 153.554C408.565 153.605 408.536 153.675 408.536 153.748V156.108C408.536 156.181 408.565 156.251 408.617 156.302C408.668 156.353 408.738 156.382 408.811 156.382H411.171C411.244 156.382 411.314 156.354 411.366 156.302C411.417 156.251 411.446 156.181 411.447 156.108V153.748C411.446 153.675 411.417 153.605 411.366 153.554C411.314 153.502 411.244 153.473 411.171 153.473Z" fill="#B76E79"/>
<path d="M411.171 157.494H408.811C408.738 157.494 408.668 157.524 408.617 157.575C408.565 157.627 408.536 157.697 408.536 157.77V160.128C408.536 160.165 408.543 160.2 408.557 160.234C408.571 160.267 408.591 160.297 408.616 160.323C408.642 160.349 408.672 160.369 408.706 160.383C408.739 160.397 408.775 160.404 408.811 160.404H411.171C411.244 160.404 411.314 160.375 411.366 160.323C411.418 160.272 411.447 160.201 411.447 160.128V157.77C411.446 157.697 411.417 157.627 411.366 157.575C411.314 157.523 411.244 157.494 411.171 157.494Z" fill="#E6E6E6"/>
<path d="M411.171 161.516H408.811C408.738 161.516 408.668 161.545 408.617 161.597C408.565 161.648 408.536 161.718 408.536 161.791V164.15C408.536 164.186 408.543 164.222 408.557 164.255C408.571 164.289 408.591 164.319 408.616 164.345C408.642 164.37 408.672 164.39 408.706 164.404C408.739 164.418 408.775 164.425 408.811 164.425H411.171C411.244 164.425 411.314 164.396 411.366 164.345C411.418 164.293 411.447 164.223 411.447 164.15V161.791C411.446 161.718 411.417 161.648 411.366 161.597C411.314 161.545 411.244 161.516 411.171 161.516Z" fill="#B76E79"/>
<path d="M411.171 165.537H408.811C408.775 165.537 408.739 165.544 408.706 165.558C408.672 165.572 408.642 165.592 408.616 165.618C408.591 165.644 408.571 165.674 408.557 165.707C408.543 165.741 408.536 165.776 408.536 165.813V168.171C408.536 168.207 408.543 168.243 408.557 168.277C408.571 168.31 408.591 168.34 408.616 168.366C408.642 168.392 408.672 168.412 408.706 168.426C408.739 168.44 408.775 168.447 408.811 168.447H411.171C411.244 168.447 411.314 168.418 411.366 168.366C411.418 168.314 411.447 168.244 411.447 168.171V165.813C411.447 165.74 411.418 165.669 411.366 165.618C411.314 165.566 411.244 165.537 411.171 165.537Z" fill="#B76E79"/>
<path d="M416.127 149.451H413.766C413.694 149.451 413.624 149.481 413.572 149.532C413.521 149.584 413.492 149.654 413.492 149.727V152.086C413.492 152.159 413.521 152.229 413.572 152.281C413.624 152.332 413.694 152.361 413.766 152.361H416.127C416.2 152.361 416.27 152.332 416.321 152.281C416.373 152.229 416.402 152.159 416.402 152.086V149.727C416.402 149.654 416.373 149.584 416.321 149.532C416.27 149.48 416.2 149.451 416.127 149.451Z" fill="#E6E6E6"/>
<path d="M416.127 153.473H413.766C413.694 153.473 413.624 153.502 413.572 153.554C413.521 153.605 413.492 153.675 413.492 153.748V156.108C413.492 156.181 413.521 156.251 413.572 156.302C413.624 156.353 413.694 156.382 413.766 156.382H416.127C416.2 156.382 416.27 156.354 416.321 156.302C416.373 156.251 416.402 156.181 416.402 156.108V153.748C416.402 153.675 416.373 153.605 416.321 153.554C416.27 153.502 416.2 153.473 416.127 153.473Z" fill="#B76E79"/>
<path d="M416.127 157.494H413.766C413.694 157.494 413.624 157.524 413.572 157.575C413.521 157.627 413.492 157.697 413.492 157.77V160.128C413.492 160.165 413.499 160.2 413.513 160.234C413.526 160.267 413.547 160.297 413.572 160.323C413.598 160.349 413.628 160.369 413.661 160.383C413.695 160.397 413.73 160.404 413.766 160.404H416.127C416.2 160.404 416.27 160.375 416.322 160.323C416.373 160.272 416.402 160.201 416.402 160.128V157.77C416.402 157.697 416.373 157.627 416.321 157.575C416.27 157.523 416.2 157.494 416.127 157.494Z" fill="#B76E79"/>
<path d="M416.127 161.516H413.766C413.694 161.516 413.624 161.545 413.572 161.597C413.521 161.648 413.492 161.718 413.492 161.791V164.15C413.492 164.186 413.499 164.222 413.513 164.255C413.526 164.289 413.547 164.319 413.572 164.345C413.598 164.37 413.628 164.39 413.661 164.404C413.695 164.418 413.73 164.425 413.766 164.425H416.127C416.2 164.425 416.27 164.396 416.322 164.345C416.373 164.293 416.402 164.223 416.402 164.15V161.791C416.402 161.718 416.373 161.648 416.321 161.597C416.27 161.545 416.2 161.516 416.127 161.516Z" fill="#B76E79"/>
<path d="M416.127 165.537H413.766C413.73 165.537 413.695 165.544 413.661 165.558C413.628 165.572 413.598 165.592 413.572 165.618C413.547 165.644 413.526 165.674 413.513 165.707C413.499 165.741 413.492 165.776 413.492 165.813V168.171C413.492 168.207 413.499 168.243 413.513 168.277C413.526 168.31 413.547 168.34 413.572 168.366C413.598 168.392 413.628 168.412 413.661 168.426C413.695 168.44 413.73 168.447 413.766 168.447H416.127C416.2 168.447 416.27 168.418 416.322 168.366C416.373 168.314 416.402 168.244 416.402 168.171V165.813C416.402 165.74 416.373 165.669 416.322 165.618C416.27 165.566 416.2 165.537 416.127 165.537Z" fill="#E6E6E6"/>
<path d="M421.082 149.451H418.722C418.649 149.451 418.579 149.481 418.528 149.532C418.476 149.584 418.447 149.654 418.447 149.727V152.086C418.447 152.159 418.476 152.229 418.528 152.281C418.579 152.332 418.649 152.361 418.722 152.361H421.082C421.155 152.361 421.225 152.332 421.277 152.281C421.328 152.229 421.357 152.159 421.358 152.086V149.727C421.357 149.654 421.328 149.584 421.277 149.532C421.225 149.48 421.155 149.451 421.082 149.451Z" fill="#E6E6E6"/>
<path d="M421.082 153.473H418.722C418.649 153.473 418.579 153.502 418.528 153.554C418.476 153.605 418.447 153.675 418.447 153.748V156.108C418.447 156.181 418.476 156.251 418.528 156.302C418.579 156.353 418.649 156.382 418.722 156.382H421.082C421.155 156.382 421.225 156.354 421.277 156.302C421.328 156.251 421.357 156.181 421.358 156.108V153.748C421.357 153.675 421.328 153.605 421.277 153.554C421.225 153.502 421.155 153.473 421.082 153.473Z" fill="#E6E6E6"/>
<path d="M421.082 157.494H418.722C418.649 157.494 418.579 157.524 418.528 157.575C418.476 157.627 418.447 157.697 418.447 157.77V160.128C418.447 160.165 418.454 160.2 418.468 160.234C418.482 160.267 418.502 160.297 418.527 160.323C418.553 160.349 418.583 160.369 418.617 160.383C418.65 160.397 418.686 160.404 418.722 160.404H421.082C421.155 160.404 421.225 160.375 421.277 160.323C421.329 160.272 421.358 160.201 421.358 160.128V157.77C421.357 157.697 421.328 157.627 421.277 157.575C421.225 157.523 421.155 157.494 421.082 157.494Z" fill="#B76E79"/>
<path d="M421.082 161.516H418.722C418.649 161.516 418.579 161.545 418.528 161.597C418.476 161.648 418.447 161.718 418.447 161.791V164.15C418.447 164.186 418.454 164.222 418.468 164.255C418.482 164.289 418.502 164.319 418.527 164.345C418.553 164.37 418.583 164.39 418.617 164.404C418.65 164.418 418.686 164.425 418.722 164.425H421.082C421.155 164.425 421.225 164.396 421.277 164.345C421.329 164.293 421.358 164.223 421.358 164.15V161.791C421.357 161.718 421.328 161.648 421.277 161.597C421.225 161.545 421.155 161.516 421.082 161.516Z" fill="#E6E6E6"/>
<path d="M421.082 165.537H418.722C418.686 165.537 418.65 165.544 418.617 165.558C418.583 165.572 418.553 165.592 418.527 165.618C418.502 165.644 418.482 165.674 418.468 165.707C418.454 165.741 418.447 165.776 418.447 165.813V168.171C418.447 168.207 418.454 168.243 418.468 168.277C418.482 168.31 418.502 168.34 418.527 168.366C418.553 168.392 418.583 168.412 418.617 168.426C418.65 168.44 418.686 168.447 418.722 168.447H421.082C421.155 168.447 421.225 168.418 421.277 168.366C421.329 168.314 421.358 168.244 421.358 168.171V165.813C421.358 165.74 421.329 165.669 421.277 165.618C421.225 165.566 421.155 165.537 421.082 165.537Z" fill="#E6E6E6"/>
<path d="M366.836 200.314H366.769L366.826 200.307L366.836 200.314Z" fill="#2F2E41"/>
<path d="M361.189 156.34C365.188 156.34 368.43 153.098 368.43 149.1C368.43 145.102 365.188 141.86 361.189 141.86C357.19 141.86 353.948 145.102 353.948 149.1C353.948 153.098 357.19 156.34 361.189 156.34Z" fill="#FFB6B6"/>
<path d="M367.529 143.792C367.529 143.792 369.423 140.172 365.257 139.843C365.257 139.843 361.705 136.622 358.084 139.254C358.084 139.254 356.109 139.254 355.03 141.489C355.03 141.489 353.476 140.9 353.135 142.476C353.135 142.476 351.998 145.767 353.135 148.728C354.272 151.69 354.649 152.019 354.649 152.019C354.649 152.019 352.781 145.81 357.327 145.481C361.873 145.152 366.96 142.311 367.339 145.931C367.717 149.551 368.287 150.443 368.287 150.443C368.287 150.443 371.886 145.273 367.529 143.792Z" fill="#2F2E41"/>
<path d="M379.919 166.942L379.896 167.065L379.634 168.447L377.825 178.005L377.718 178.567L377.493 179.757L377.186 181.381L376.505 184.978L376.31 186.009L376.236 186.396L376.211 186.532L376.009 187.599L375.947 187.921L375.453 191.58L375.022 194.768L376.465 196.211L375.605 197.072L375.04 200.307L375.041 200.314H351.986C351.054 199.71 350.134 199.088 349.229 198.446L349.418 197.026C349.418 197.026 350.071 194.491 349.797 194.187C349.523 193.884 348.923 193.343 348.923 193.343L349.679 191.58L349.784 191.335L349.608 187.687L349.604 187.599L349.546 186.396L349.538 186.241L349.526 186.009L349.303 181.381L349.299 181.304L349.231 179.902L349.167 178.567L349.14 178.005L348.867 172.375L348.683 168.552L348.522 165.224L349.169 165.004L356.095 162.651L358.964 158.922L364.935 158.966L367.858 158.989L372.736 163.511L373.845 164.041L373.854 164.045L374.65 164.426L376.668 165.389L378.801 166.408L379.896 166.931L379.919 166.942Z" fill="#CACACA"/>
<path d="M359.736 189.453C359.298 189.622 358.829 189.694 358.361 189.662C357.893 189.631 357.437 189.497 357.026 189.271C356.615 189.044 356.259 188.73 355.983 188.351C355.706 187.972 355.516 187.537 355.426 187.076L344.133 185.474L348.059 181.034L358.181 183.236C358.965 183.136 359.758 183.327 360.41 183.773C361.063 184.218 361.529 184.888 361.721 185.654C361.912 186.42 361.816 187.23 361.45 187.931C361.084 188.631 360.475 189.172 359.736 189.453V189.453Z" fill="#FFB6B6"/>
<path d="M354.702 181.381C354.493 181.116 354.197 180.933 353.866 180.865L349.232 179.901L348.757 179.803C348.48 179.745 348.219 179.63 347.99 179.464C347.761 179.299 347.57 179.086 347.429 178.842C347.282 178.585 347.193 178.299 347.169 178.005C347.147 177.737 347.179 177.467 347.263 177.212L348.869 172.375L349.911 169.236C350.037 168.858 350.111 168.464 350.132 168.065C350.19 166.963 349.849 165.876 349.171 165.004C348.575 164.238 347.748 163.684 346.813 163.423C345.877 163.163 344.883 163.211 343.977 163.559C343.95 163.568 343.923 163.579 343.896 163.589C343.246 163.849 342.665 164.256 342.2 164.778C341.734 165.301 341.397 165.925 341.214 166.6L340.082 170.717L337.747 179.203C337.513 180.053 337.466 180.944 337.609 181.814C337.751 182.685 338.08 183.514 338.573 184.245C339.065 184.976 339.71 185.593 340.464 186.052C341.217 186.511 342.06 186.802 342.936 186.905L349.61 187.687L352.698 188.049C353.055 188.092 353.415 187.999 353.707 187.788C353.998 187.577 354.2 187.264 354.271 186.912C354.276 186.893 354.28 186.873 354.283 186.854L354.357 186.396L354.985 182.541L354.992 182.502C355.024 182.305 355.015 182.104 354.966 181.911C354.916 181.718 354.826 181.537 354.702 181.381Z" fill="#CACACA"/>
<path d="M366.93 189.577C367.387 189.683 367.862 189.687 368.321 189.59C368.78 189.493 369.212 189.296 369.587 189.014C369.962 188.732 370.27 188.371 370.49 187.957C370.71 187.542 370.837 187.085 370.861 186.616L381.816 183.438L377.303 179.596L367.592 183.203C366.802 183.214 366.044 183.515 365.461 184.048C364.878 184.582 364.511 185.31 364.429 186.096C364.348 186.881 364.557 187.67 365.018 188.311C365.479 188.953 366.159 189.403 366.93 189.577V189.577Z" fill="#FFB6B6"/>
<path d="M387.255 176.328L382.045 164.34C381.619 163.355 380.858 162.554 379.897 162.077C379.599 161.931 379.287 161.817 378.966 161.738C378.916 161.725 378.866 161.714 378.817 161.704C378.135 161.555 377.428 161.569 376.752 161.742C376.134 161.901 375.557 162.188 375.058 162.585C374.558 162.982 374.148 163.479 373.854 164.045C373.851 164.05 373.848 164.055 373.846 164.06C373.518 164.695 373.343 165.398 373.336 166.113C373.329 166.828 373.49 167.535 373.807 168.176L373.871 168.306L377.553 175.699C377.679 175.952 377.75 176.228 377.761 176.51C377.772 176.792 377.724 177.074 377.619 177.336C377.514 177.598 377.354 177.835 377.151 178.031C376.948 178.227 376.706 178.378 376.44 178.474L376.182 178.567L371.531 180.247C371.182 180.371 370.895 180.626 370.731 180.958C370.566 181.29 370.536 181.673 370.648 182.026L370.66 182.063L371.964 186.234C371.97 186.253 371.976 186.272 371.984 186.291C371.995 186.327 372.009 186.362 372.026 186.396C372.165 186.706 372.41 186.957 372.717 187.104C373.024 187.25 373.373 187.282 373.702 187.194L376.211 186.531L376.723 186.396L383.204 184.684C384.057 184.459 384.851 184.052 385.532 183.492C386.213 182.931 386.764 182.23 387.149 181.436C387.534 180.643 387.742 179.776 387.761 178.894C387.779 178.012 387.606 177.137 387.255 176.328L387.255 176.328Z" fill="#CACACA"/>
<path d="M335.974 186.396C337.475 188.227 339.095 189.959 340.822 191.579H388.724C389.185 191.58 389.628 191.764 389.954 192.09C390.28 192.416 390.464 192.859 390.464 193.32L390.533 205.456C393.48 204.103 396.239 202.374 398.743 200.314C399.439 199.743 400.112 199.147 400.765 198.526C401.192 198.121 401.609 197.707 402.015 197.282C405.064 194.107 407.532 190.422 409.309 186.396H335.974Z" fill="#3F3D56"/>
<path d="M402.016 197.282C401.61 197.707 401.193 198.122 400.765 198.526H390.568V197.282H402.016Z" fill="white"/>
<path d="M379.825 157.494C379.774 157.401 379.7 157.323 379.609 157.269C379.518 157.215 379.414 157.187 379.309 157.187H344.563C344.407 157.187 344.258 157.249 344.148 157.359C344.038 157.47 343.976 157.619 343.976 157.775V178.567H379.897V157.775C379.897 157.676 379.873 157.58 379.825 157.494Z" fill="#3F3D56"/>
<path d="M343.943 178.004V180.57C343.943 180.676 343.964 180.781 344.005 180.88C344.046 180.978 344.105 181.067 344.181 181.142C344.256 181.218 344.345 181.277 344.443 181.318C344.542 181.359 344.647 181.38 344.753 181.38H358.012V186.443H357.836C357.822 186.443 357.808 186.446 357.795 186.451C357.783 186.457 357.771 186.464 357.761 186.474C357.751 186.484 357.744 186.495 357.738 186.508C357.733 186.521 357.73 186.535 357.73 186.548V186.901C357.73 186.914 357.733 186.928 357.738 186.941C357.744 186.954 357.751 186.965 357.761 186.975C357.771 186.985 357.783 186.993 357.795 186.998C357.808 187.003 357.822 187.006 357.836 187.006H366.066C366.08 187.006 366.094 187.003 366.106 186.998C366.119 186.993 366.131 186.985 366.14 186.975C366.15 186.965 366.158 186.954 366.163 186.941C366.169 186.928 366.171 186.914 366.171 186.901V186.548C366.171 186.535 366.169 186.521 366.163 186.508C366.158 186.495 366.15 186.484 366.14 186.474C366.131 186.464 366.119 186.457 366.106 186.451C366.094 186.446 366.08 186.443 366.066 186.443H365.89V181.38H379.148C379.255 181.38 379.36 181.359 379.458 181.318C379.556 181.277 379.646 181.218 379.721 181.142C379.796 181.067 379.856 180.978 379.897 180.88C379.937 180.781 379.958 180.676 379.958 180.57V178.004H343.943Z" fill="#3F3D56"/>
<path d="M361.517 170.64C363.349 170.64 364.835 169.154 364.835 167.322C364.835 165.49 363.349 164.005 361.517 164.005C359.684 164.005 358.199 165.49 358.199 167.322C358.199 169.154 359.684 170.64 361.517 170.64Z" fill="#B76E79"/>
<path d="M369.97 148.705H369.44C369.44 144.699 365.475 142.074 361.475 142.072C360.893 142.071 360.313 142.127 359.742 142.241C359.1 142.369 358.433 142.523 357.778 142.723C355.196 143.515 352.8 145.045 352.8 148.705C352.8 149.415 352.89 150.123 353.07 150.811L352.557 150.945C352.366 150.213 352.27 149.46 352.271 148.705C352.271 145.507 353.584 143.31 355.852 142C357.044 141.312 358.499 140.868 360.166 140.651C360.86 140.559 361.561 140.538 362.259 140.588C366.859 140.918 369.97 144.445 369.97 148.705Z" fill="#B76E79"/>
<path d="M370.852 148.998L370.643 147.455C370.592 147.066 370.404 146.707 370.113 146.442C369.927 146.27 369.703 146.142 369.46 146.069C369.217 145.995 368.96 145.978 368.709 146.018L368.377 146.064C368.287 146.076 368.199 146.106 368.12 146.152C368.041 146.198 367.972 146.259 367.916 146.332C367.861 146.405 367.82 146.488 367.796 146.576C367.773 146.665 367.767 146.757 367.78 146.848L368.262 150.402C368.282 150.547 368.347 150.682 368.447 150.788C368.548 150.894 368.68 150.965 368.824 150.992C368.866 151.001 368.909 151.005 368.953 151.005C368.984 151.005 369.015 151.003 369.046 150.999L369.417 150.949C369.643 150.919 369.861 150.843 370.057 150.726C370.252 150.609 370.422 150.453 370.555 150.268C370.584 150.227 370.611 150.186 370.637 150.144C370.836 149.797 370.911 149.393 370.852 148.998Z" fill="#B76E79"/>
<path d="M368.163 146.129C368.066 146.176 367.981 146.246 367.916 146.332C367.861 146.405 367.82 146.488 367.796 146.577C367.773 146.665 367.767 146.758 367.78 146.848L368.262 150.402C368.282 150.547 368.347 150.682 368.447 150.788C368.548 150.894 368.68 150.966 368.824 150.993L368.163 146.129Z" fill="white"/>
<path d="M370.853 148.998L370.644 147.455C370.592 147.066 370.405 146.707 370.114 146.442L370.594 149.978C370.601 150.035 370.616 150.091 370.638 150.144C370.836 149.797 370.912 149.393 370.853 148.998Z" fill="#3F3D56"/>
<path d="M369.202 150.11C369.347 150.091 369.42 149.746 369.365 149.34C369.31 148.934 369.147 148.621 369.002 148.64C368.857 148.66 368.784 149.005 368.839 149.411C368.895 149.817 369.057 150.13 369.202 150.11Z" fill="#3F3D56"/>
<path d="M368.884 148.202C369.029 148.182 369.102 147.837 369.047 147.431C368.992 147.025 368.83 146.712 368.685 146.732C368.54 146.752 368.467 147.097 368.522 147.503C368.577 147.909 368.739 148.222 368.884 148.202Z" fill="#3F3D56"/>
<path d="M370.898 148.944C371.043 148.925 371.115 148.579 371.06 148.174C371.005 147.768 370.843 147.454 370.698 147.474C370.553 147.494 370.48 147.839 370.535 148.245C370.59 148.651 370.753 148.964 370.898 148.944Z" fill="#3F3D56"/>
<path d="M361.475 142.072C360.893 142.071 360.313 142.127 359.742 142.241C359.1 142.369 358.433 142.523 357.778 142.723C356.756 142.673 356.003 142.408 355.852 142C357.044 141.312 358.499 140.868 360.166 140.651C360.86 140.559 361.561 140.538 362.259 140.588C362.333 140.631 362.397 140.69 362.447 140.759C362.496 140.829 362.531 140.909 362.548 140.993C362.597 141.361 362.177 141.753 361.475 142.072Z" fill="#3F3D56"/>
<path d="M354.71 152.382L353.894 148.99C353.865 148.867 353.801 148.756 353.709 148.67C353.617 148.585 353.501 148.528 353.377 148.508C353.342 148.502 353.307 148.499 353.271 148.499C353.221 148.499 353.171 148.505 353.123 148.517L352.807 148.593C352.4 148.692 352.049 148.947 351.831 149.304C351.613 149.661 351.545 150.09 351.642 150.496L352.008 152.018C352.091 152.376 352.29 152.697 352.574 152.931C352.62 152.969 352.668 153.003 352.718 153.034C352.896 153.146 353.094 153.22 353.301 153.254C353.508 153.287 353.719 153.279 353.923 153.229L354.238 153.153C354.321 153.134 354.399 153.097 354.468 153.046C354.569 152.972 354.647 152.869 354.69 152.751C354.733 152.632 354.74 152.504 354.71 152.382Z" fill="#B76E79"/>
<path d="M352.999 151.75C353.141 151.716 353.178 151.366 353.083 150.967C352.987 150.569 352.794 150.274 352.651 150.308C352.509 150.342 352.472 150.693 352.567 151.091C352.663 151.49 352.856 151.785 352.999 151.75Z" fill="#3F3D56"/>
<path d="M351.938 152.069C352.081 152.035 352.118 151.684 352.023 151.286C351.927 150.887 351.734 150.592 351.591 150.626C351.449 150.661 351.411 151.011 351.507 151.41C351.603 151.808 351.796 152.103 351.938 152.069Z" fill="#3F3D56"/>
<path d="M354.761 152.369L353.945 148.977C353.914 148.845 353.843 148.725 353.744 148.632C353.644 148.539 353.519 148.478 353.385 148.456L354.499 153.089C354.609 153.008 354.692 152.897 354.739 152.769C354.786 152.641 354.794 152.502 354.761 152.369Z" fill="white"/>
<path d="M351.825 149.825C351.803 149.731 351.76 149.642 351.701 149.565C351.586 149.862 351.565 150.187 351.641 150.497L352.006 152.018C352.09 152.377 352.289 152.698 352.572 152.932L351.825 149.825Z" fill="#3F3D56"/>
</g>
<g clip-path="url(#clip1_473_40127)">
<path d="M50.9649 221.858L49.5331 220.97C49.397 220.883 49.2628 220.791 49.1248 220.704C52.1958 220.174 54.9943 218.605 57.0572 216.257C59.12 213.91 60.3235 210.925 60.4684 207.797C60.5736 205.645 60.1689 203.499 59.2877 201.535C58.4671 199.698 57.2555 198.064 55.7383 196.749C54.2212 195.433 52.4354 194.468 50.5068 193.922L50.5777 199.586L47.4821 193.421C47.4694 193.419 47.4565 193.419 47.4438 193.421C45.6499 193.337 43.8571 193.608 42.1677 194.221C40.4784 194.833 38.9255 195.773 37.5979 196.989C36.2702 198.204 35.1938 199.671 34.43 201.304C33.6662 202.938 33.23 204.707 33.1464 206.51C33.1349 206.772 33.1464 207.03 33.1464 207.28C32.0692 206.045 31.0916 204.722 30.4437 203.271C29.1326 200.333 29.102 197.006 29.2112 192.962C29.4182 184.948 29.7614 176.874 30.2099 168.823C33.4421 168.462 36.4403 166.955 38.666 164.571C40.8917 162.188 42.1989 159.086 42.3528 155.821C42.3719 155.399 42.3662 154.984 42.3528 154.572C42.3528 154.47 42.3528 154.366 42.3374 154.264C42.3106 153.865 42.2742 153.47 42.2128 153.081C42.2128 153.016 42.1898 152.954 42.1783 152.888C42.1221 152.558 42.055 152.232 41.9771 151.91C41.9464 151.79 41.9177 151.669 41.8851 151.549C41.7892 151.199 41.6934 150.854 41.5611 150.513C41.5209 150.399 41.473 150.29 41.4308 150.178C41.333 149.927 41.2276 149.681 41.1164 149.436C41.057 149.307 40.9995 149.18 40.9363 149.051C40.9209 149.018 40.9075 148.985 40.8903 148.953C39.4471 146.087 37.0506 143.821 34.1175 142.548C31.1843 141.274 27.8999 141.074 24.8352 141.982L24.9272 149.353L21.8603 143.265C19.3447 144.713 17.3554 146.93 16.1829 149.595C15.0104 152.259 14.7162 155.23 15.3432 158.075H15.3279C15.349 158.173 15.3797 158.267 15.4026 158.364C15.4448 158.545 15.4908 158.724 15.5407 158.903C15.6058 159.132 15.6787 159.358 15.7534 159.583C15.8109 159.751 15.8665 159.922 15.9298 160.088C16.0218 160.331 16.1215 160.568 16.2326 160.805C16.294 160.943 16.3495 161.084 16.4243 161.221C16.5994 161.575 16.791 161.922 16.9993 162.261C17.0703 162.379 17.1508 162.49 17.2255 162.608C17.3712 162.835 17.5188 163.061 17.6779 163.28C17.7756 163.415 17.8811 163.544 17.9846 163.677C18.1341 163.87 18.2874 164.062 18.4465 164.238C18.5596 164.367 18.6746 164.494 18.7935 164.623C18.9602 164.8 19.1327 164.972 19.311 165.141C19.4279 165.255 19.5468 165.368 19.6694 165.476C19.8707 165.656 20.0815 165.827 20.2943 165.995C20.4017 166.079 20.5052 166.168 20.6163 166.249C20.9396 166.49 21.2738 166.717 21.6188 166.929C21.684 166.968 21.753 167 21.8105 167.039C22.098 167.21 22.3855 167.37 22.6941 167.52C22.8226 167.584 22.9567 167.64 23.089 167.7C23.3363 167.811 23.5854 167.919 23.8404 168.017C23.988 168.073 24.1394 168.125 24.2908 168.177C24.5419 168.264 24.7969 168.343 25.0575 168.414C25.2109 168.457 25.3623 168.499 25.5176 168.536C25.7974 168.603 26.083 168.659 26.3705 168.707C26.3897 168.707 26.407 168.707 26.4261 168.719C26.237 172.115 26.069 175.512 25.922 178.912C25.1067 177.23 23.9581 175.733 22.5465 174.513C21.135 173.293 19.4903 172.375 17.7134 171.817C15.9365 171.259 14.0649 171.071 12.2133 171.266C10.3617 171.461 8.56917 172.033 6.94574 172.949L9.36284 179.606L4.39067 174.807C1.72904 177.259 0.1436 180.671 -0.0179596 184.297C-0.0812149 185.569 0.035614 186.843 0.328987 188.082C0.953606 190.764 2.36551 193.194 4.38152 195.059C6.39753 196.924 8.92457 198.137 11.6348 198.54C14.3451 198.944 17.1135 198.519 19.5808 197.322C22.0481 196.125 24.1004 194.21 25.4716 191.826C25.4716 192.17 25.4466 192.517 25.4371 192.862C25.347 196.43 25.2339 200.869 27.0031 204.834C28.2011 207.521 30.1313 209.704 32.0385 211.659C33.2787 212.933 34.5648 214.164 35.8836 215.356C37.1802 217.106 38.8728 218.521 40.8213 219.483C42.9872 221.16 45.2299 222.731 47.5492 224.195L48.958 225.108C50.2595 225.919 51.5936 226.752 52.9028 227.613C52.6728 227.59 52.4447 227.565 52.2108 227.555C49.313 227.419 46.447 228.212 44.0269 229.819C41.6068 231.427 39.7579 233.767 38.7473 236.5L47.2924 243.491L37.9001 241.301C37.9026 243.625 38.4913 245.911 39.6111 247.944C40.7309 249.977 42.3452 251.692 44.3033 252.929C46.2614 254.165 48.4993 254.882 50.808 255.013C53.1167 255.145 55.4208 254.685 57.505 253.679C57.2942 253.945 57.0814 254.209 56.8706 254.473C56.4508 254.999 56.0329 255.521 55.6247 256.039C50.066 263.115 48.5172 269.835 51.2716 274.957L54.6183 273.139C51.9348 268.153 55.9601 261.772 58.611 258.409C59.0116 257.9 59.4218 257.387 59.8359 256.867C63.3877 252.436 67.4129 247.404 67.3113 241.237C67.1676 231.951 58.1797 226.351 50.9649 221.858Z" fill="#EADE7F"/>
<path d="M128.064 277C176.284 277 215.374 275.188 215.374 272.954C215.374 270.72 176.284 268.908 128.064 268.908C79.8442 268.908 40.7542 270.72 40.7542 272.954C40.7542 275.188 79.8442 277 128.064 277Z" fill="#3F3D56"/>
<path d="M198.6 271.446C199.175 270.384 198.523 269.084 197.779 268.136C197.035 267.188 196.129 266.21 196.148 264.998C196.175 263.264 198.005 262.241 199.47 261.322C200.554 260.639 201.555 259.83 202.45 258.912C202.826 258.559 203.137 258.141 203.369 257.679C203.67 257.001 203.662 256.23 203.643 255.487C203.579 253.013 203.457 250.542 203.278 248.073" stroke="#3F3D56" stroke-width="4" stroke-miterlimit="10"/>
<path d="M206.06 247.942C206.038 247.489 205.904 247.049 205.67 246.662C205.435 246.275 205.108 245.953 204.718 245.726L204.116 246.925L204.133 245.476C203.721 245.352 203.286 245.329 202.864 245.409C202.442 245.49 202.045 245.671 201.707 245.937C201.369 246.204 201.099 246.548 200.921 246.941C200.743 247.334 200.661 247.765 200.683 248.196C200.716 248.911 201.031 249.584 201.558 250.066C201.819 250.305 202.124 250.489 202.456 250.609C202.788 250.73 203.141 250.783 203.493 250.766C203.845 250.749 204.191 250.663 204.51 250.512C204.829 250.361 205.116 250.148 205.353 249.886C205.591 249.624 205.775 249.317 205.894 248.984C206.014 248.65 206.067 248.296 206.05 247.942H206.06Z" fill="#57B793"/>
<path d="M201.263 266.244C200.981 266.794 200.52 267.23 199.957 267.479C199.393 267.728 198.762 267.774 198.168 267.611C197.575 267.448 197.055 267.084 196.696 266.581C196.338 266.079 196.162 265.468 196.198 264.85C196.235 264.233 196.481 263.646 196.896 263.19C197.312 262.733 197.87 262.434 198.479 262.342C199.088 262.251 199.709 262.372 200.239 262.686C200.77 263 201.176 263.488 201.391 264.067L199.712 265.441L201.56 265.009C201.56 265.439 201.459 265.862 201.263 266.244Z" fill="#57B793"/>
<path d="M199.934 260.986C199.581 261.003 199.228 260.95 198.896 260.83C198.563 260.709 198.258 260.524 197.997 260.285C197.736 260.045 197.524 259.757 197.374 259.435C197.225 259.113 197.14 258.765 197.124 258.41C197.103 257.987 197.182 257.565 197.356 257.179C197.517 256.818 197.755 256.496 198.053 256.237C198.351 255.978 198.702 255.788 199.081 255.68L199.068 256.796L199.677 255.582C200.39 255.549 201.087 255.801 201.615 256.284C202.143 256.767 202.458 257.441 202.491 258.158C202.524 258.874 202.273 259.575 201.792 260.105C201.312 260.636 200.641 260.953 199.928 260.986H199.934Z" fill="#57B793"/>
<path d="M206.465 256.611C205.753 256.645 205.057 256.393 204.53 255.911C204.003 255.429 203.688 254.757 203.655 254.041C203.621 253.326 203.872 252.627 204.351 252.097C204.831 251.567 205.5 251.251 206.212 251.217C206.715 251.192 207.214 251.311 207.653 251.56L207.178 252.87L208.155 251.926C208.68 252.408 208.993 253.079 209.025 253.793C209.038 254.043 209.014 254.293 208.956 254.537C208.822 255.108 208.506 255.619 208.057 255.994C207.607 256.368 207.048 256.585 206.465 256.611Z" fill="#57B793"/>
<path opacity="0.1" d="M205.697 248.655C205.076 248.724 204.472 248.919 203.849 248.957C203.226 248.996 202.542 248.845 202.147 248.358C201.934 248.096 201.829 247.765 201.649 247.479C201.479 247.213 201.247 246.993 200.972 246.838C200.81 247.179 200.72 247.55 200.71 247.928C200.7 248.306 200.769 248.682 200.912 249.031C201.056 249.381 201.271 249.696 201.544 249.956C201.816 250.217 202.14 250.417 202.495 250.543C202.849 250.67 203.226 250.72 203.601 250.691C203.976 250.662 204.341 250.553 204.671 250.373C205.002 250.193 205.291 249.945 205.52 249.645C205.75 249.346 205.914 249.001 206.002 248.633C205.898 248.637 205.797 248.645 205.697 248.655Z" fill="black"/>
<path opacity="0.1" d="M206.464 256.611C206 256.635 205.538 256.537 205.123 256.327C204.708 256.117 204.354 255.803 204.096 255.415C203.838 255.026 203.685 254.577 203.652 254.112C203.618 253.646 203.706 253.179 203.905 252.758C204.119 252.903 204.302 253.088 204.446 253.303C204.638 253.594 204.753 253.929 204.979 254.197C205.397 254.692 206.113 254.854 206.763 254.823C207.413 254.792 208.038 254.609 208.68 254.549C208.768 254.549 208.86 254.534 208.95 254.532C208.817 255.103 208.502 255.615 208.054 255.99C207.605 256.365 207.047 256.583 206.464 256.611Z" fill="black"/>
<path opacity="0.1" d="M199.934 260.987C199.581 261.004 199.228 260.95 198.896 260.83C198.563 260.71 198.258 260.525 197.997 260.285C197.736 260.046 197.524 259.757 197.374 259.436C197.225 259.114 197.14 258.766 197.124 258.411C197.103 257.988 197.182 257.566 197.356 257.18C197.579 257.326 197.774 257.512 197.931 257.729C198.14 258.025 198.27 258.366 198.506 258.64C198.96 259.149 199.723 259.328 200.411 259.31C201.099 259.293 201.719 259.131 202.382 259.081C202.218 259.613 201.895 260.081 201.457 260.422C201.019 260.763 200.487 260.96 199.934 260.987Z" fill="black"/>
<path opacity="0.1" d="M201.262 266.244C201.117 266.568 200.911 266.859 200.654 267.103C200.397 267.346 200.095 267.536 199.764 267.662C199.434 267.788 199.083 267.848 198.73 267.837C198.377 267.827 198.03 267.747 197.707 267.601C197.385 267.456 197.095 267.248 196.853 266.99C196.611 266.731 196.421 266.428 196.296 266.096C196.171 265.764 196.112 265.411 196.122 265.056C196.132 264.701 196.212 264.352 196.357 264.028C196.578 264.176 196.777 264.354 196.947 264.558C197.202 264.872 197.371 265.227 197.668 265.521C198.218 266.063 199.106 266.292 199.896 266.307C200.352 266.313 200.808 266.292 201.262 266.244Z" fill="black"/>
<path d="M194.545 270.222C194.545 270.222 196.667 270.157 197.307 269.698C197.947 269.24 200.566 268.692 200.733 269.428C200.899 270.164 203.924 273.089 201.526 273.1C199.128 273.112 195.956 272.715 195.318 272.33C194.679 271.944 194.545 270.222 194.545 270.222Z" fill="#656380"/>
<path opacity="0.2" d="M201.568 272.845C199.172 272.864 195.998 272.459 195.36 272.074C194.875 271.777 194.679 270.708 194.616 270.215H194.545C194.545 270.215 194.679 271.935 195.312 272.334C195.944 272.733 199.122 273.12 201.52 273.105C202.212 273.105 202.452 272.85 202.439 272.484C202.348 272.702 202.084 272.841 201.568 272.845Z" fill="black"/>
<path d="M78.0196 265.503C76.628 262.913 78.2113 259.742 80.0208 257.434C81.8302 255.126 84.046 252.726 83.9981 249.784C83.9291 245.557 79.4668 243.062 75.9016 240.822C73.256 239.159 70.8156 237.187 68.6312 234.948C67.7552 234.048 66.9061 233.089 66.3962 231.94C65.6601 230.287 65.6793 228.409 65.7272 226.598C65.8806 220.562 66.177 214.537 66.6166 208.523" stroke="#3F3D56" stroke-width="4" stroke-miterlimit="10"/>
<path d="M59.8368 208.194C59.8893 207.091 60.2166 206.019 60.7886 205.077C61.3607 204.134 62.1591 203.351 63.1107 202.799L64.579 205.718L64.5349 202.185C65.8688 201.79 67.293 201.831 68.6021 202.303C69.9111 202.774 71.0372 203.652 71.8176 204.809C72.5981 205.965 72.9926 207.341 72.9442 208.738C72.8957 210.135 72.4068 211.48 71.5481 212.58C70.6894 213.679 69.5053 214.476 68.1668 214.854C66.8283 215.233 65.4046 215.175 64.1013 214.687C62.798 214.2 61.6826 213.309 60.9161 212.143C60.1495 210.976 59.7716 209.596 59.8368 208.199V208.194Z" fill="#57B793"/>
<path d="M71.5332 252.804C72.1926 254.096 73.2579 255.133 74.5637 255.753C75.8695 256.374 77.3426 256.543 78.7542 256.236C80.1658 255.928 81.4369 255.161 82.3699 254.053C83.3029 252.944 83.8456 251.557 83.9137 250.107C83.9595 249.196 83.8139 248.285 83.4863 247.433C83.0074 246.185 82.1617 245.112 81.0618 244.358C79.9618 243.604 78.6595 243.204 77.3281 243.212C75.9966 243.22 74.699 243.635 73.6078 244.401C72.5165 245.168 71.6833 246.25 71.2188 247.505L75.315 250.853L70.8086 249.799C70.8067 250.845 71.0552 251.876 71.5332 252.804Z" fill="#57B793"/>
<path d="M74.769 240.008C76.3771 240.082 77.9561 239.559 79.2054 238.538C80.4547 237.518 81.287 236.072 81.5439 234.474C81.8008 232.877 81.4643 231.241 80.5985 229.877C79.7327 228.513 78.3981 227.516 76.8488 227.077L76.8833 229.792L75.4073 226.838H75.3901C73.6522 226.757 71.9534 227.372 70.6672 228.55C69.381 229.727 68.6129 231.37 68.5318 233.117C68.4507 234.863 69.0633 236.571 70.2348 237.864C71.4063 239.156 73.0408 239.928 74.7786 240.01L74.769 240.008Z" fill="#57B793"/>
<path d="M58.8488 229.361C59.8642 229.411 60.8771 229.223 61.8077 228.811C62.7383 228.4 63.5611 227.777 64.2111 226.992C64.8612 226.206 65.3206 225.279 65.5532 224.285C65.7858 223.29 65.7853 222.255 65.5515 221.26C65.3178 220.266 64.8573 219.34 64.2064 218.555C63.5555 217.77 62.7321 217.148 61.801 216.738C60.8699 216.328 59.8567 216.141 58.8414 216.192C57.8261 216.243 56.8365 216.53 55.9506 217.031L57.1007 220.223L54.7258 217.917C54.0909 218.498 53.5762 219.199 53.2111 219.98C52.846 220.76 52.6377 221.606 52.5981 222.468C52.5677 223.078 52.6238 223.689 52.7649 224.283C53.0909 225.679 53.8614 226.931 54.9594 227.847C56.0574 228.764 57.423 229.295 58.8488 229.361Z" fill="#57B793"/>
<path opacity="0.1" d="M60.718 209.951C62.2322 210.118 63.7043 210.59 65.2224 210.685C66.7405 210.779 68.4101 210.415 69.3704 209.228C69.8879 208.588 70.1467 207.779 70.5837 207.082C70.9978 206.432 71.5654 205.895 72.236 205.52C72.6536 206.355 72.8896 207.27 72.9283 208.204C72.9671 209.138 72.8078 210.07 72.4609 210.937C72.114 211.805 71.5876 212.588 70.9164 213.236C70.2453 213.883 69.4449 214.379 68.5683 214.692C67.6917 215.005 66.7589 215.126 65.8319 215.049C64.9049 214.972 64.0049 214.697 63.1916 214.243C62.3783 213.79 61.6703 213.167 61.1146 212.417C60.5589 211.668 60.1683 210.808 59.9685 209.895C60.2234 209.906 60.4726 209.924 60.718 209.951Z" fill="black"/>
<path opacity="0.1" d="M58.8487 229.36C59.9789 229.413 61.1034 229.171 62.113 228.657C63.1226 228.144 63.9831 227.377 64.6109 226.431C65.2388 225.485 65.6126 224.392 65.6961 223.258C65.7797 222.124 65.5702 220.988 65.0878 219.959C64.5671 220.311 64.1193 220.761 63.7691 221.284C63.3014 221.993 63.0196 222.812 62.4695 223.463C61.4479 224.669 59.7036 225.064 58.1203 224.993C56.537 224.922 55.0094 224.467 53.4338 224.323C53.2152 224.303 52.9929 224.288 52.7725 224.282C53.0981 225.678 53.8675 226.928 54.9639 227.845C56.0604 228.761 57.4242 229.293 58.8487 229.36Z" fill="black"/>
<path opacity="0.1" d="M74.7686 240.009C75.8878 240.061 77.0017 239.825 78.0043 239.322C79.0068 238.819 79.8644 238.067 80.4952 237.136C81.1261 236.206 81.5092 235.128 81.608 234.006C81.7068 232.884 81.5179 231.756 81.0595 230.729C80.5194 231.089 80.0497 231.546 79.6736 232.077C79.1638 232.8 78.8456 233.632 78.2495 234.298C77.1435 235.537 75.2842 235.974 73.607 235.934C71.9835 235.899 70.4194 235.499 68.8054 235.373C69.205 236.668 69.9918 237.808 71.0588 238.637C72.1258 239.467 73.4212 239.946 74.7686 240.009Z" fill="black"/>
<path opacity="0.1" d="M71.532 252.805C72.1914 254.096 73.2567 255.133 74.5625 255.753C75.8683 256.374 77.3415 256.544 78.7531 256.236C80.1647 255.929 81.4357 255.161 82.3687 254.053C83.3017 252.945 83.8444 251.558 83.9125 250.108C83.9583 249.196 83.8127 248.285 83.4851 247.434C82.9455 247.79 82.4611 248.224 82.0475 248.722C81.4246 249.493 81.0124 250.352 80.2917 251.065C78.95 252.387 76.7859 252.934 74.8595 252.992C73.7477 252.996 72.6365 252.933 71.532 252.805Z" fill="black"/>
<path d="M123.412 269.352L98.1099 274.553L97.5349 274.496L75.3 272.242V243.922L102.519 239.298L122.262 241.61L122.267 241.735L122.269 241.797L123.412 269.352Z" fill="#B76E79"/>
<path opacity="0.1" d="M123.41 269.352L98.1087 274.554L97.5337 274.496V245.463L122.266 241.735L123.41 269.352Z" fill="black"/>
<path opacity="0.05" d="M122.269 241.797L122.262 241.802L97.5349 245.463L75.3 243.922L102.519 239.298L122.262 241.61L122.267 241.735L122.269 241.797Z" fill="black"/>
<path d="M151.203 270.508L125.902 275.71L125.327 275.652L103.092 273.398V245.078L130.31 240.454L150.053 242.766L150.059 242.891L150.061 242.953L151.203 270.508Z" fill="#3F3D56"/>
<path opacity="0.1" d="M151.205 270.507L125.903 275.709L125.328 275.651V246.618L150.061 242.891L151.205 270.507Z" fill="black"/>
<path opacity="0.05" d="M150.061 242.953L150.053 242.959L125.327 246.619L103.092 245.078L130.31 240.454L150.053 242.766L150.059 242.891L150.061 242.953Z" fill="black"/>
<path d="M133.761 242.765L108.459 247.966L107.884 247.909L85.6492 245.655V217.335L112.868 212.711L132.611 215.023L132.616 215.148L132.618 215.21L133.761 242.765Z" fill="#3F3D56"/>
<path opacity="0.1" d="M133.762 242.765L108.46 247.967L107.885 247.909V218.876L132.618 215.148L133.762 242.765Z" fill="black"/>
<path opacity="0.05" d="M132.618 215.21L132.611 215.215L107.884 218.876L85.6492 217.335L112.868 212.711L132.611 215.023L132.616 215.148L132.618 215.21Z" fill="black"/>
<path d="M148.138 243.952L134.933 246.669L134.632 246.638L123.028 245.461V230.681L137.233 228.267L147.538 229.475L147.542 229.54V229.571L148.138 243.952Z" fill="#3F3D56"/>
<path opacity="0.1" d="M148.136 243.952L134.931 246.669L134.63 246.638V231.486L147.54 229.54L148.136 243.952Z" fill="black"/>
<path opacity="0.05" d="M147.542 229.571L147.538 229.575L134.632 231.486L123.028 230.681L137.233 228.267L147.538 229.475L147.542 229.54V229.571Z" fill="black"/>
<path d="M112.676 215.246L99.4714 217.961L99.1704 217.932L87.5662 216.755V201.974L101.772 199.561L112.076 200.768L112.08 200.834V200.865L112.676 215.246Z" fill="#3F3D56"/>
<path opacity="0.1" d="M112.676 215.247L99.4709 217.962L99.1699 217.933V202.781L112.08 200.835L112.676 215.247Z" fill="black"/>
<path opacity="0.05" d="M112.08 200.865L112.076 200.869L99.1704 202.78L87.5662 201.974L101.772 199.561L112.076 200.768L112.08 200.834V200.865Z" fill="black"/>
<path d="M135.87 214.668L122.665 217.383L122.365 217.354L110.76 216.177V201.396L124.966 198.982L135.27 200.19L135.274 200.256V200.287L135.87 214.668Z" fill="#B76E79"/>
<path opacity="0.1" d="M135.868 214.669L122.664 217.384L122.363 217.355V202.203L135.272 200.257L135.868 214.669Z" fill="black"/>
<path opacity="0.05" d="M135.274 200.287L135.27 200.291L122.365 202.202L110.76 201.396L124.966 198.982L135.27 200.19L135.274 200.256V200.287Z" fill="black"/>
<path d="M142.77 199.834L129.565 202.549L129.264 202.52L117.66 201.343V186.562L131.865 184.148L142.17 185.356L142.174 185.422V185.453L142.77 199.834Z" fill="#3F3D56"/>
<path opacity="0.1" d="M142.769 199.835L129.565 202.55L129.264 202.521V187.369L142.173 185.423L142.769 199.835Z" fill="black"/>
<path opacity="0.05" d="M142.174 185.453L142.17 185.457L129.264 187.368L117.66 186.562L131.865 184.148L142.17 185.356L142.174 185.422V185.453Z" fill="black"/>
<path d="M151.762 169.619C151.622 170.871 150.672 171.88 150.319 173.086C149.79 174.907 150.702 176.862 151.96 178.288C152.973 179.421 154.2 180.34 155.569 180.993C156.939 181.646 158.424 182.019 159.937 182.091C160.382 182.129 160.83 182.08 161.256 181.946C161.636 181.791 161.977 181.556 162.259 181.257C163.202 180.303 163.71 178.983 163.911 177.652C164.112 176.321 164.036 174.967 163.957 173.624C163.957 173.346 163.906 173.07 163.807 172.811C163.679 172.564 163.502 172.346 163.288 172.169C162.608 171.541 161.859 170.994 161.055 170.538C160.71 170.345 160.34 170.152 160.12 169.819C159.968 169.554 159.87 169.261 159.83 168.958L159.583 167.694C159.539 167.33 159.415 166.98 159.221 166.669C158.785 166.08 157.952 165.999 157.221 165.97L154.538 165.864C153.704 165.831 152.608 165.59 151.793 165.756C151.026 165.908 151.285 166.613 151.423 167.253C151.623 168.026 151.736 168.82 151.762 169.619Z" fill="#FFC0C6"/>
<path opacity="0.1" d="M151.762 169.619C151.622 170.871 150.672 171.88 150.319 173.086C149.79 174.907 150.702 176.862 151.96 178.288C152.973 179.421 154.2 180.34 155.569 180.993C156.939 181.646 158.424 182.019 159.937 182.091C160.382 182.129 160.83 182.08 161.256 181.946C161.636 181.791 161.977 181.556 162.259 181.257C163.202 180.303 163.71 178.983 163.911 177.652C164.112 176.321 164.036 174.967 163.957 173.624C163.957 173.346 163.906 173.07 163.807 172.811C163.679 172.564 163.502 172.346 163.288 172.169C162.608 171.541 161.859 170.994 161.055 170.538C160.71 170.345 160.34 170.152 160.12 169.819C159.968 169.554 159.87 169.261 159.83 168.958L159.583 167.694C159.539 167.33 159.415 166.98 159.221 166.669C158.785 166.08 157.952 165.999 157.221 165.97L154.538 165.864C153.704 165.831 152.608 165.59 151.793 165.756C151.026 165.908 151.285 166.613 151.423 167.253C151.623 168.026 151.736 168.82 151.762 169.619Z" fill="black"/>
<path d="M168.806 226.02L167.668 238.566C167.37 241.856 167.068 245.16 166.485 248.409C166.293 249.528 166.048 250.641 165.768 251.745C164.99 254.81 163.861 257.806 163.497 260.948C163.485 261.039 163.476 261.141 163.466 261.224C163.391 261.917 163.326 262.619 163.083 263.266C162.891 263.746 162.621 264.183 162.423 264.657C162.04 265.605 161.979 266.653 161.931 267.68C160.549 266.896 159.036 266.373 157.466 266.138C156.7 266.025 155.866 265.946 155.358 265.368C154.783 264.74 154.85 263.778 154.946 262.935C155.247 260.315 155.548 257.696 155.847 255.078C155.946 253.952 156.139 252.836 156.422 251.741C156.525 251.377 156.65 251.019 156.776 250.661C156.951 250.168 157.127 249.674 157.259 249.168C157.443 248.354 157.57 247.528 157.639 246.696C157.948 244.06 158.319 241.431 158.645 238.797L158.663 238.658C159.151 234.667 159.523 230.656 159.416 226.635C159.4 226.04 159.376 225.444 159.337 224.847C159.284 223.982 159.205 223.524 159.912 222.982C160.7 222.385 161.737 221.967 162.638 221.576C163.123 221.364 168.463 219.457 168.58 219.877C168.828 220.769 168.957 221.69 168.963 222.616C168.974 223.753 168.922 224.889 168.806 226.02Z" fill="#605D82"/>
<path opacity="0.1" d="M166.484 248.408C166.292 249.528 166.047 250.641 165.767 251.745C164.989 254.81 163.86 257.806 163.496 260.948C163.484 261.039 163.474 261.141 163.465 261.224C161.084 257.806 159.079 254.13 156.756 250.676C156.931 250.183 157.107 249.69 157.239 249.183C157.43 248.364 157.563 247.533 157.638 246.696C157.946 244.06 158.318 241.43 158.644 238.797L158.661 238.658C158.796 239.217 158.989 239.76 159.236 240.278C160.797 243.465 164.504 245.075 166.317 248.125C166.377 248.22 166.433 248.315 166.484 248.408Z" fill="black"/>
<path d="M147.166 220.392C147.245 222.947 147.651 225.48 148.058 228.004L148.895 233.205C149.353 236.057 149.833 238.964 151.174 241.516C152.179 243.427 153.624 245.057 154.933 246.77C158.15 250.981 160.567 255.753 163.616 260.088C164.504 261.348 165.771 262.712 167.283 262.448C168.276 262.277 168.997 261.444 169.775 260.805C170.695 260.05 171.803 259.497 172.527 258.549C173.252 257.601 173.394 256.029 172.412 255.355C172.077 255.125 171.669 255.039 171.289 254.892C169.769 254.314 168.784 252.819 168.159 251.309C167.534 249.799 167.153 248.178 166.319 246.774C164.506 243.724 160.797 242.114 159.236 238.925C158.362 237.141 158.278 235.072 158.213 233.094L158.042 228.025C158.023 227.47 158.01 226.894 158.234 226.387C158.83 225.039 160.632 224.912 162.092 224.74C163.749 224.546 165.353 224.037 166.821 223.241C167.663 222.785 168.483 222.203 168.93 221.355C169.34 220.585 169.395 219.677 169.443 218.803L169.949 209.615C169.993 208.825 170.032 208.006 169.758 207.266C169.062 205.405 166.723 204.797 164.747 204.885C161.071 205.051 157.678 206.64 154.205 207.715C153.344 207.981 152.48 208.22 151.592 208.399C150.826 208.555 149.867 208.492 149.131 208.742C147.812 209.189 147.845 212.09 147.659 213.293C147.275 215.639 147.11 218.015 147.166 220.392Z" fill="#605D82"/>
<path d="M166.786 262.838C167.11 263.167 167.216 263.649 167.3 264.104C167.768 266.627 168.012 269.187 168.028 271.754C168.007 271.993 168.055 272.234 168.164 272.447C168.256 272.574 168.38 272.674 168.523 272.736C169.46 273.185 170.547 272.559 171.329 271.871C172.776 270.598 174.001 268.887 174.083 266.955C174.105 266.458 174.049 265.955 174.135 265.464C174.262 264.736 174.685 264.102 175.057 263.466C175.693 262.382 176.208 261.231 176.591 260.033C176.732 259.582 176.828 259.016 176.476 258.702C176.352 258.603 176.211 258.529 176.06 258.484L171.824 256.904C171.456 256.767 170.543 259.124 170.399 259.382C170.045 260.012 169.692 260.368 168.981 260.514C168.27 260.661 167.392 260.449 166.713 260.813C165.563 261.428 166.136 262.181 166.786 262.838Z" fill="#535070"/>
<path d="M160.253 264.293C160.174 264.135 160.065 263.996 159.931 263.882C159.735 263.757 159.512 263.681 159.281 263.661C158.476 263.522 157.522 263.431 156.964 264.034C156.442 264.599 156.532 265.518 156.097 266.154C155.959 266.346 155.772 266.52 155.653 266.732C155.505 267.056 155.439 267.412 155.461 267.768C155.438 268.749 155.415 269.733 155.484 270.712C155.54 271.532 155.676 272.394 156.187 273.037C157.008 274.07 158.488 274.218 159.799 274.284L160.863 274.339C161.155 274.374 161.451 274.346 161.733 274.258C161.907 274.178 162.063 274.063 162.193 273.92C162.322 273.778 162.421 273.61 162.484 273.428C163.038 272.045 162.162 270.556 161.622 269.169C160.999 267.571 161.11 265.801 160.253 264.293Z" fill="#535070"/>
<path d="M151.457 162.558C151.444 162.418 151.464 162.276 151.517 162.146C151.672 161.87 152.078 161.953 152.385 162.022C153.617 162.334 154.917 162.051 156.188 162.124C157.459 162.198 158.889 162.835 159.144 164.088C160.065 163.432 160.86 162.612 161.488 161.668C161.84 161.138 162.147 160.531 162.099 159.895C162.03 158.978 161.265 158.292 160.566 157.711L158.457 155.977C158.18 155.721 157.859 155.516 157.51 155.372C157.024 155.204 156.491 155.285 155.977 155.285C154.444 155.285 152.799 154.582 151.432 155.285C150.857 155.58 150.43 156.087 150.016 156.58L148.132 158.822C147.989 158.965 147.885 159.142 147.829 159.337C147.775 159.61 147.915 159.88 147.965 160.155C148.053 160.656 147.838 161.192 148.003 161.674C148.277 162.471 149.243 162.585 149.834 163.043C150.052 163.213 150.397 163.793 150.66 163.785C151.122 163.775 151.444 162.928 151.457 162.558Z" fill="#3F3D56"/>
<path d="M154.655 169.172C157.989 169.172 160.693 166.455 160.693 163.104C160.693 159.752 157.989 157.035 154.655 157.035C151.32 157.035 148.617 159.752 148.617 163.104C148.617 166.455 151.32 169.172 154.655 169.172Z" fill="#FFC0C6"/>
<path d="M156.069 176.383C155.865 175.795 155.48 175.287 154.969 174.933C154.459 174.579 153.85 174.398 153.231 174.414C153.053 174.448 152.869 174.425 152.705 174.347C152.613 174.276 152.538 174.183 152.489 174.077C152.123 173.413 151.828 172.712 151.609 171.985C151.513 171.663 151.381 171.284 151.057 171.201C150.796 171.133 150.53 171.303 150.355 171.509C150.201 171.73 150.033 171.942 149.853 172.143C149.086 172.825 147.745 172.203 146.942 172.829C146.809 172.931 146.7 173.062 146.558 173.156C146.42 173.241 146.271 173.306 146.115 173.349C144.556 173.859 143.028 174.459 141.538 175.146C142.075 178.391 142.623 181.696 143.88 184.731C144.478 186.176 145.155 187.592 145.634 189.081C146.696 192.381 146.742 195.912 146.756 199.382C146.756 201.756 146.756 204.179 145.989 206.425C145.816 206.934 145.606 207.439 145.558 207.967C145.51 208.495 145.667 209.092 146.098 209.408C146.348 209.573 146.634 209.674 146.932 209.702C148.256 209.895 149.591 209.545 150.894 209.24C154.388 208.427 157.954 207.961 161.509 207.506L167.47 206.736C167.898 206.706 168.317 206.597 168.705 206.414C169.795 205.815 169.899 204.166 169.22 203.118C168.896 202.615 168.438 202.202 168.164 201.671C167.89 201.139 167.869 200.392 168.339 200.024C169.297 199.272 169.01 197.879 169.056 196.662C169.183 193.256 169.166 189.852 169.004 186.451C168.955 185.746 168.944 185.038 168.969 184.332C169.036 183.134 169.332 181.96 169.627 180.795L171.438 173.628C170.965 172.877 170.058 172.399 169.201 172.183C168.344 171.967 167.449 171.904 166.604 171.64C164.879 171.101 163.33 169.733 161.523 169.86C161.386 169.862 161.251 169.895 161.128 169.956C160.721 170.189 160.785 170.779 160.76 171.249C160.702 172.291 159.939 173.16 159.1 173.771C158.26 174.381 157.298 174.825 156.526 175.52C156.391 175.622 156.281 175.752 156.202 175.901C156.123 176.05 156.078 176.214 156.069 176.383Z" fill="#3F3D56"/>
<path d="M132.145 183.182C131.745 183.444 131.32 183.664 130.876 183.839C130.454 184.007 130.004 184.14 129.659 184.433C129.488 184.582 129.345 184.76 129.235 184.958C129.031 185.323 128.928 185.735 128.936 186.154C128.945 186.572 129.065 186.98 129.284 187.335C129.503 187.691 129.812 187.981 130.181 188.175C130.549 188.37 130.963 188.461 131.378 188.44C131.932 188.411 132.456 188.185 132.963 187.964L137.223 186.101C137.943 185.787 138.722 185.421 139.063 184.708C139.102 184.641 139.117 184.563 139.105 184.486C139.072 184.403 139.009 184.334 138.929 184.294C137.969 183.666 137.129 182.87 136.45 181.943C136.276 181.705 136.067 181.142 135.814 180.998C134.913 180.495 132.868 182.712 132.145 183.182Z" fill="#FFC0C6"/>
<path d="M177.674 181.669L179.244 183.472C179.581 183.857 179.919 184.243 180.225 184.659C180.98 185.704 181.585 186.849 182.023 188.063C182.364 188.963 182.648 189.922 182.529 190.878C182.45 191.368 182.318 191.848 182.136 192.309C181.849 193.197 181.492 194.06 181.069 194.891C180.715 195.521 180.316 196.125 179.875 196.696C178.659 198.315 177.328 199.844 175.893 201.271C175.357 201.805 175.127 202.67 174.899 203.391C174.467 204.722 173.442 205.76 172.451 206.743C172.132 207.081 171.779 207.386 171.398 207.652C170.828 208.022 170.161 208.213 169.482 208.199C169.185 208.201 168.892 208.14 168.621 208.02C167.942 207.696 167.597 206.908 167.527 206.157C167.464 205.474 167.577 204.787 167.856 204.161C168.757 202.156 171.071 201.287 172.706 199.823C173.664 198.965 174.398 197.886 175.123 196.821C175.614 196.155 176.023 195.433 176.344 194.669C176.708 193.689 176.566 192.529 176.886 191.535C177.02 191.113 177.27 190.733 177.406 190.315C177.542 189.897 177.588 189.402 177.333 189.042C177.142 188.811 176.898 188.632 176.622 188.518C175.577 187.986 174.408 187.3 174.208 186.139C174.129 185.495 174.296 184.845 174.676 184.322C175.054 183.805 175.497 183.339 175.993 182.935C176.447 182.522 177.216 182.066 177.674 181.669Z" fill="#FFC0C6"/>
<path d="M131.136 185.698C130.86 185.135 130.513 184.561 129.954 184.282C129.681 184.163 129.388 184.103 129.091 184.103C128.794 184.103 128.501 184.163 128.228 184.282C127.686 184.517 127.178 184.826 126.718 185.199L125.365 186.202C125.058 186.405 124.787 186.657 124.562 186.948C124.347 187.301 124.205 187.694 124.144 188.104C123.952 189.042 123.797 190.007 123.931 190.957C124.146 192.498 125.066 193.831 126.078 195.003C126.71 195.731 127.492 196.467 128.455 196.5C128.871 196.513 129.333 196.347 129.505 195.968C129.565 195.817 129.597 195.656 129.599 195.494C129.703 193.783 129.093 192.113 128.384 190.554C128.192 190.131 127.985 189.691 128 189.227C127.995 189.148 128.015 189.07 128.058 189.004C128.119 188.939 128.2 188.899 128.288 188.89C129.26 188.697 130.935 189.456 131.615 188.372C132.056 187.655 131.451 186.335 131.136 185.698Z" fill="#FFC0C6"/>
<path d="M151.139 160.649C151.127 160.508 151.148 160.367 151.2 160.236C151.356 159.959 151.762 160.044 152.069 160.113C153.301 160.425 154.601 160.142 155.872 160.215C157.143 160.288 158.571 160.926 158.827 162.178C159.749 161.521 160.543 160.702 161.172 159.759C161.524 159.227 161.831 158.62 161.783 157.984C161.714 157.067 160.947 156.381 160.25 155.802L158.141 154.068C157.864 153.812 157.544 153.607 157.196 153.463C156.707 153.295 156.176 153.376 155.663 153.376C154.129 153.376 152.485 152.673 151.118 153.376C150.543 153.671 150.116 154.177 149.702 154.671L147.815 156.913C147.674 157.056 147.57 157.233 147.515 157.428C147.461 157.701 147.601 157.971 147.651 158.246C147.739 158.747 147.524 159.283 147.689 159.762C147.963 160.562 148.929 160.676 149.519 161.134C149.738 161.304 150.083 161.884 150.346 161.876C150.8 161.866 151.122 161.019 151.139 160.649Z" fill="#3F3D56"/>
<path d="M138.316 177.279C138.072 177.437 137.858 177.638 137.683 177.87C137.463 178.207 137.417 178.641 137.227 178.987C136.821 179.746 135.868 180.018 135.276 180.64C135.18 180.725 135.113 180.839 135.084 180.964C135.08 181.133 135.137 181.299 135.243 181.43L138.107 185.954C139.065 186.039 139.974 185.437 140.928 185.518C141.283 185.547 141.649 185.671 141.99 185.565C142.234 185.455 142.463 185.315 142.671 185.147C143.246 184.784 143.997 184.742 144.474 184.266C144.952 183.79 144.992 183.091 144.986 182.442C144.995 181.878 144.937 181.316 144.816 180.766C144.394 179.032 143.073 177.695 142.245 176.157C141.841 175.408 141.622 174.971 140.769 175.485C139.916 175.999 139.123 176.685 138.316 177.279Z" fill="#3F3D56"/>
<path d="M173.088 174.992C173.626 175.344 174.112 175.77 174.53 176.26C174.965 176.824 175.212 177.518 175.632 178.096C176.052 178.674 176.59 179.09 177.05 179.606C177.75 180.389 178.223 181.34 178.687 182.286C177.552 183.771 176.314 185.175 174.984 186.486C174.836 186.661 174.64 186.79 174.42 186.856C174.272 186.872 174.121 186.851 173.983 186.794C173.844 186.737 173.722 186.646 173.627 186.53C173.42 186.315 173.274 186.045 173.077 185.819C172.612 185.337 171.992 185.036 171.327 184.97C170.667 184.905 170.004 184.896 169.343 184.941C169.198 184.958 169.051 184.934 168.919 184.87C168.821 184.802 168.742 184.711 168.689 184.604C167.922 183.278 168.162 181.614 168.436 180.1L169.063 176.632C169.154 175.97 169.33 175.322 169.586 174.705C169.824 174.195 170.353 173.328 171.009 173.482C171.664 173.636 172.534 174.592 173.088 174.992Z" fill="#3F3D56"/>
<path d="M118.428 200.412L105.223 203.127L104.922 203.098L93.3176 201.921V187.141L107.523 184.727L117.828 185.934L117.832 186V186.031L118.428 200.412Z" fill="#B76E79"/>
<path opacity="0.1" d="M118.426 200.412L105.221 203.127L104.92 203.098V187.946L117.83 186L118.426 200.412Z" fill="black"/>
<path opacity="0.05" d="M117.831 186.031L117.828 186.035L104.922 187.946L93.3176 187.141L107.523 184.727L117.828 185.935L117.831 186V186.031Z" fill="black"/>
<path d="M125.329 185.771L112.124 188.487L111.823 188.456L100.219 187.279V172.499L114.424 170.085L124.729 171.293L124.732 171.358V171.389L125.329 185.771Z" fill="#3F3D56"/>
<path opacity="0.1" d="M125.327 185.771L112.122 188.487L111.821 188.456V173.304L124.731 171.358L125.327 185.771Z" fill="black"/>
<path opacity="0.05" d="M124.732 171.389L124.729 171.393L111.823 173.304L100.219 172.499L114.424 170.085L124.729 171.293L124.732 171.358V171.389Z" fill="black"/>
</g>
<path d="M113.352 276.851H22.5331C22.5069 276.851 22.4819 276.841 22.4634 276.823C22.4449 276.804 22.4346 276.779 22.4346 276.753C22.4346 276.727 22.4449 276.702 22.4634 276.683C22.4819 276.665 22.5069 276.654 22.5331 276.654H469.089C469.115 276.654 113.403 276.665 113.421 276.683C113.44 276.702 113.45 276.727 113.45 276.753C113.45 276.779 113.44 276.804 113.421 276.823C113.403 276.841 113.378 276.851 113.352 276.851Z" fill="#CCCCCC"/>
<defs>
<clipPath id="clip0_473_40127">
<rect width="90.143" height="78.5006" fill="white" transform="translate(331.215 130.373)"/>
</clipPath>
<clipPath id="clip1_473_40127">
<rect width="222.767" height="135.561" fill="white" transform="translate(0 141.439)"/>
</clipPath>
</defs>
</svg>
