<svg width="16" height="16" viewBox="0 0 16 16" fill="none" xmlns="http://www.w3.org/2000/svg">
<path d="M14.6421 0.718881C13.6835 -0.239627 12.1294 -0.239627 11.1708 0.718881L1.43958 10.4493C1.37289 10.5159 1.32473 10.5986 1.29959 10.6894L0.0199041 15.3089C-0.0327237 15.4983 0.0207563 15.7011 0.159677 15.8403C0.29881 15.9792 0.501651 16.0326 0.691068 15.9802L5.31102 14.7004C5.40179 14.6753 5.48446 14.6271 5.55115 14.5605L15.2822 4.82987C16.2393 3.87073 16.2393 2.31803 15.2822 1.35888L14.6421 0.718881ZM2.62807 10.8038L10.5923 2.84L13.1609 5.4083L5.19639 13.3721L2.62807 10.8038ZM2.115 11.8332L4.16706 13.8853L1.32857 14.6717L2.115 11.8332ZM14.5109 4.05864L13.9324 4.63707L11.3636 2.06855L11.9423 1.49012C12.4748 0.957709 13.3381 0.957709 13.8706 1.49012L14.5109 2.13012C15.0425 2.66317 15.0425 3.5258 14.5109 4.05864Z" fill="#8A6E4B"/>
</svg>
