<svg width="136" height="40" viewBox="0 0 136 40" fill="none" xmlns="http://www.w3.org/2000/svg">
<path d="M130.9 39.9961H5.09988C2.33231 39.9961 0.0678711 37.7465 0.0678711 34.9971V5.00295C0.0678711 2.25346 2.33226 0.00390625 5.09988 0.00390625H130.9C133.667 0.00390625 135.932 2.25346 135.932 5.00295V34.9971C135.932 37.7465 133.668 39.9961 130.9 39.9961" fill="black"/>
<path d="M130.9 0.00390625H5.09988C2.33231 0.00390625 0.0678711 2.25346 0.0678711 5.00295V34.9971C0.0678711 37.7465 2.33226 39.9961 5.09988 39.9961H130.9C133.667 39.9961 135.932 37.7465 135.932 34.9971V5.00295C135.932 2.25346 133.668 0.00390625 130.9 0.00390625H130.9ZM130.9 0.803725C133.231 0.803725 135.127 2.68779 135.127 5.00295V34.9971C135.127 37.3127 133.231 39.1967 130.9 39.1967H5.09988C2.76948 39.1967 0.873 37.3126 0.873 34.9971V5.00295C0.873 2.68779 2.76944 0.80377 5.09988 0.80377H130.9" fill="#A6A6A6"/>
<path d="M47.7901 10.2444C47.7901 11.082 47.5404 11.7491 47.0403 12.2466C46.4723 12.8383 45.732 13.1344 44.8219 13.1344C43.9503 13.1344 43.2093 12.8345 42.5999 12.2337C41.9895 11.6335 41.6848 10.8891 41.6848 10.001C41.6848 9.11248 41.9895 8.36856 42.5999 7.76779C43.2093 7.16757 43.9503 6.86719 44.8219 6.86719C45.2543 6.86719 45.6684 6.95121 46.0615 7.11877C46.4546 7.28673 46.7699 7.50969 47.0058 7.78891L46.475 8.31652C46.0752 7.84202 45.5248 7.60495 44.8219 7.60495C44.1863 7.60495 43.6367 7.82684 43.1728 8.27087C42.7088 8.71535 42.4769 9.29176 42.4769 10.001C42.4769 10.7103 42.7088 11.2866 43.1728 11.7312C43.6367 12.1752 44.1862 12.397 44.8219 12.397C45.4962 12.397 46.0583 12.174 46.5084 11.7273C46.8006 11.4362 46.9695 11.0317 47.0147 10.5122H44.8218V9.79165H47.748C47.7762 9.94833 47.79 10.0987 47.79 10.2444" fill="white"/>
<path d="M47.7901 10.2447H47.6894C47.6886 11.0633 47.448 11.699 46.9691 12.1763L46.9681 12.1771L46.9676 12.1779C46.4176 12.7492 45.7107 13.0336 44.8218 13.0348C43.9736 13.0336 43.2635 12.7461 42.6706 12.1634C42.0791 11.5796 41.7866 10.8668 41.7854 10.0014C41.7866 9.13554 42.0791 8.42316 42.6706 7.8397C43.2635 7.25659 43.9736 6.96875 44.8218 6.96753C45.2413 6.96753 45.6408 7.04886 46.0217 7.21089C46.403 7.37418 46.7042 7.58816 46.9287 7.85381L47.0057 7.78928L46.9346 7.7186L46.4038 8.24657L46.4749 8.31689L46.5525 8.25291C46.1341 7.75491 45.5469 7.50386 44.8219 7.50534C44.1627 7.50454 43.5828 7.73855 43.1031 8.19943C42.6188 8.6618 42.3755 9.27065 42.3763 10.0014C42.3755 10.7321 42.6188 11.3409 43.1031 11.8033C43.5828 12.2642 44.1627 12.4982 44.8218 12.4974C45.5185 12.4986 46.1121 12.2638 46.5795 11.7983C46.8917 11.4874 47.0686 11.0567 47.115 10.5212L47.1244 10.4126H44.9225V9.89199H47.748V9.79202L47.6488 9.80959C47.6764 9.96119 47.6894 10.1053 47.6894 10.2447H47.8907C47.8907 10.0928 47.8765 9.93657 47.847 9.77413L47.8321 9.69204H44.7213V10.6126H47.0147V10.5126L46.9145 10.504C46.8701 11.0071 46.7089 11.3859 46.4372 11.657C46.0048 12.085 45.4741 12.2962 44.8219 12.2974C44.2098 12.2966 43.6905 12.0873 43.2427 11.6596C42.7993 11.2335 42.5787 10.6895 42.5776 10.0014C42.5787 9.31321 42.7993 8.76919 43.2427 8.34309C43.6905 7.91545 44.2098 7.70611 44.8219 7.7053C45.5024 7.70692 46.0163 7.93028 46.398 8.38137L46.4688 8.46495L47.0769 7.86001L47.1422 7.79521L47.0828 7.72521C46.8355 7.43237 46.5061 7.19993 46.1011 7.02739C45.6955 6.8543 45.2673 6.76758 44.8219 6.76758C43.9272 6.76682 43.1551 7.07924 42.5288 7.69753C41.9002 8.3146 41.5834 9.09024 41.5842 10.0014C41.5834 10.9121 41.9002 11.6882 42.5292 12.3056C43.1551 12.9235 43.9272 13.2356 44.8219 13.2347C45.7536 13.2356 46.5265 12.9281 47.1131 12.3161L47.0403 12.247L47.1115 12.3177C47.6328 11.8002 47.8914 11.1012 47.8907 10.2447H47.79H47.7901ZM52.4289 7.73891H49.679V9.64095H52.1589V10.3618H49.679V12.2638H52.4289V13.0008H48.9037V7.00195H52.4289V7.73891Z" fill="white"/>
<path d="M52.4287 7.73928V7.6393H49.5782V9.7413H52.0581V10.2619L49.5782 10.2622V12.3642H52.3281V12.9012H49.0043V7.1023H52.3281V7.73928H52.4287V7.6393V7.73928H52.5294V6.90234H48.803V13.1011H52.5294V12.1642H49.7794V10.4621H52.2593V9.54134H49.7794V7.83926H52.5294V7.73928H52.4287ZM55.7007 13.0012H54.9243V7.73923H53.2378V7.00228H57.3873V7.73923H55.7007V13.0011" fill="white"/>
<path d="M55.7008 13.0012V12.9012H55.025V7.6393H53.3385V7.10234H57.2867V7.6393H55.6002V13.0011H55.7008V12.9012V13.0011H55.8014V7.83925H57.488V6.90234H53.1372V7.83921H54.8237V13.1011H55.8014V13.0011H55.7008V13.0012ZM60.3896 13.0012V7.00228H61.1653V13.0011H60.3896" fill="white"/>
<path d="M60.3897 13.0012H60.4903V7.1023H61.0647V12.9012H60.3897V13.0011H60.4903H60.3897V13.1011H61.2659V6.90234H60.2891V13.1011H60.3897V13.0011V13.0012ZM64.6071 13.0012H63.8307V7.73923H62.1442V7.00228H66.2937V7.73923H64.6071V13.0011" fill="white"/>
<path d="M64.6069 13.0005V12.9004H63.9312V7.63856H62.2447V7.10161H66.1928V7.63856H64.5063V13.0004H64.6069V12.9004V13.0004H64.7076V7.83852H66.3941V6.90161H62.0435V7.83847H63.7299V13.1003H64.7076V13.0004H64.6069V13.0005ZM70.2939 11.723C70.7409 12.1725 71.2878 12.397 71.9345 12.397C72.5812 12.397 73.1283 12.1725 73.5746 11.723C74.0219 11.2735 74.2461 10.6989 74.2461 10.001C74.2461 9.30318 74.0219 8.72856 73.5746 8.27905C73.1283 7.82953 72.5812 7.60495 71.9345 7.60495C71.2878 7.60495 70.7409 7.82953 70.2939 8.27905C69.8477 8.72856 69.6237 9.30313 69.6237 10.001C69.6237 10.6989 69.8477 11.2735 70.2939 11.723ZM74.1485 12.2252C73.5549 12.8316 72.8166 13.1344 71.9345 13.1344C71.0515 13.1344 70.3135 12.8316 69.7212 12.2252C69.1271 11.6194 68.8315 10.8778 68.8315 10.001C68.8315 9.12416 69.1271 8.38248 69.7212 7.77682C70.3136 7.17022 71.0515 6.86719 71.9345 6.86719C72.8119 6.86719 73.5482 7.17184 74.1446 7.78073C74.7402 8.38958 75.0382 9.12964 75.0382 10.001C75.0382 10.8778 74.7409 11.6194 74.1485 12.2252Z" fill="white"/>
<path d="M70.294 11.7234L70.2224 11.7936C70.686 12.2611 71.2643 12.4986 71.9345 12.4974C72.6044 12.4986 73.1835 12.2611 73.6462 11.7936C74.1128 11.3257 74.3475 10.7204 74.3468 10.0014C74.3474 9.28243 74.1128 8.67704 73.6462 8.2091C73.1835 7.74161 72.6044 7.50418 71.9345 7.50535C71.2643 7.50418 70.686 7.74161 70.2224 8.2091C69.757 8.67704 69.5219 9.28243 69.5231 10.0014C69.5219 10.7203 69.757 11.3257 70.2224 11.7936L70.294 11.7234L70.3656 11.653C69.9387 11.2215 69.7252 10.6786 69.7244 10.0014C69.7252 9.32422 69.9387 8.78133 70.3655 8.34969C70.7964 7.9182 71.311 7.70651 71.9345 7.70535C72.5576 7.70651 73.0734 7.9182 73.5031 8.34969C73.9308 8.78133 74.1443 9.32422 74.1451 10.0014C74.1443 10.6785 73.9308 11.2215 73.5031 11.653C73.0734 12.0846 72.5576 12.2962 71.9345 12.2974C71.311 12.2962 70.7964 12.0846 70.3655 11.653L70.294 11.7234ZM74.1486 12.2255L74.0767 12.1561C73.4996 12.7434 72.7939 13.0336 71.9345 13.0348C71.0748 13.0336 70.3691 12.7434 69.7931 12.1561L69.7904 12.1529L69.7931 12.1561C69.2172 11.5667 68.9331 10.8559 68.9322 10.0014C68.9331 9.14682 69.2172 8.43606 69.7931 7.84671C70.3691 7.25929 71.0747 6.96875 71.9345 6.96758C72.7884 6.96875 73.4924 7.2605 74.0727 7.85098C74.6506 8.44307 74.9364 9.1527 74.9376 10.0014C74.9364 10.8559 74.6514 11.5667 74.0767 12.1561L74.1486 12.2255L74.221 12.295C74.831 11.6725 75.1396 10.9004 75.1389 10.0014C75.1397 9.10746 74.8299 8.33689 74.217 7.71164C73.6037 7.08391 72.8356 6.7665 71.9345 6.76758C71.0288 6.7665 70.2583 7.08243 69.6489 7.70773V7.70728C69.0376 8.33019 68.7301 9.10233 68.731 10.0014C68.7301 10.9004 69.0376 11.6725 69.6489 12.2954L69.6516 12.2982L69.6489 12.295C70.2583 12.9203 71.0288 13.2356 71.9345 13.2347C72.8399 13.2356 73.6104 12.9203 74.221 12.295L74.1486 12.2255ZM76.1272 13.0008V7.00191H77.0715L80.0062 11.6686H80.0396L80.0062 10.5125V7.00191H80.7826V13.0007H79.9727L76.9024 8.10791H76.869L76.9024 9.26436V13.0007H76.1272" fill="white"/>
<path d="M76.1272 13.0012H76.2279V7.1023H77.0157L79.9503 11.769H80.143L80.1068 10.5115V7.10234H80.682V12.9012H80.0286L76.9583 8.00834H76.7657L76.8018 9.26639V12.9012H76.1272V13.0011H76.2279H76.1272V13.1011H77.0031V9.2632L76.9697 8.10562L76.869 8.10832V8.20829H76.9025V8.10832L76.8171 8.16147L79.917 13.1011H80.8833V6.90234H79.9056V10.5141L79.939 11.6717L80.0396 11.669V11.569H80.0062V11.669L80.0915 11.6159L77.1273 6.90234H76.0266V13.1011H76.1273V13.0011L76.1272 13.0012ZM107.689 29.9978H109.567V17.4991H107.689L107.689 29.9978ZM124.603 22.0014L122.45 27.4203H122.386L120.152 22.0014H118.129L121.479 29.5752L119.569 33.7881H121.529L126.691 22.0014L124.603 22.0014ZM113.953 28.5782C113.338 28.5782 112.48 28.2728 112.48 27.5167C112.48 26.552 113.549 26.1822 114.471 26.1822C115.297 26.1822 115.684 26.3591 116.187 26.6005C116.041 27.7581 115.037 28.5782 113.953 28.5782ZM114.18 21.728C112.82 21.728 111.412 22.3231 110.83 23.6417L112.496 24.333C112.852 23.6417 113.516 23.4163 114.212 23.4163C115.183 23.4163 116.171 23.9955 116.187 25.0246V25.1531C115.846 24.9601 115.119 24.6708 114.228 24.6708C112.432 24.6708 110.602 25.6514 110.602 27.4846C110.602 29.157 112.075 30.2345 113.726 30.2345C114.989 30.2345 115.684 29.6717 116.122 29.0125H116.187V29.9772H117.999V25.1851C117.999 22.9664 116.333 21.728 114.18 21.728ZM102.574 23.5229H99.9031V19.2387H102.574C103.978 19.2387 104.775 20.3934 104.775 21.3807C104.775 22.3493 103.978 23.5229 102.574 23.5229ZM102.526 17.4991H98.0261V29.9978H99.903V25.2625H102.526C104.607 25.2625 106.653 23.7654 106.653 21.3807C106.653 18.9961 104.607 17.4991 102.526 17.4991ZM77.9887 28.5805C76.6913 28.5805 75.6051 27.5015 75.6051 26.0193C75.6051 24.5216 76.6913 23.4261 77.9887 23.4261C79.2695 23.4261 80.2747 24.5216 80.2747 26.0193C80.2747 27.5015 79.2695 28.5805 77.9887 28.5805H77.9887ZM80.145 22.7013H80.0801C79.6587 22.2021 78.8476 21.7511 77.8263 21.7511C75.6861 21.7511 73.7245 23.6194 73.7245 26.0193C73.7245 28.4033 75.6861 30.2556 77.8263 30.2556C78.8476 30.2556 79.6587 29.8045 80.0801 29.2894H80.145V29.9014C80.145 31.5285 79.2695 32.3982 77.859 32.3982C76.7078 32.3982 75.9944 31.5764 75.7022 30.884L74.065 31.5604C74.5351 32.6879 75.7836 34.0733 77.859 34.0733C80.064 34.0733 81.9286 32.7844 81.9286 29.6436V22.0088H80.145V22.7013ZM83.2255 29.9978H85.1063V17.4986H83.2255V29.9978ZM87.8789 25.8745C87.8302 24.2314 89.1597 23.394 90.1162 23.394C90.8625 23.394 91.4946 23.7643 91.7049 24.2963L87.8789 25.8745ZM93.7157 24.4571C93.3594 23.5065 92.2725 21.7511 90.0513 21.7511C87.8463 21.7511 86.0143 23.4745 86.0143 26.0033C86.0143 28.3873 87.8302 30.2556 90.262 30.2556C92.2242 30.2556 93.3594 29.0636 93.8294 28.3711L92.3701 27.4045C91.884 28.1134 91.2188 28.5805 90.262 28.5805C89.3055 28.5805 88.6247 28.1455 88.1867 27.2921L93.9099 24.9402L93.7157 24.4571ZM48.1175 23.0558V24.8598H52.4626C52.3329 25.8744 51.9924 26.6153 51.4735 27.1308C50.8414 27.7592 49.8523 28.4517 48.1174 28.4517C45.4421 28.4517 43.3508 26.3095 43.3508 23.6518C43.3508 20.9941 45.4421 18.8516 48.1175 18.8516C49.5606 18.8516 50.6141 19.4155 51.3925 20.1403L52.6734 18.868C51.5872 17.8369 50.144 17.0477 48.1175 17.0477C44.4531 17.0477 41.3726 20.0115 41.3726 23.6518C41.3726 27.2921 44.4531 30.2556 48.1175 30.2556C50.0957 30.2556 51.5872 29.6116 52.7544 28.4033C53.9542 27.2113 54.3273 25.5362 54.3273 24.1834C54.3273 23.7643 54.295 23.378 54.2297 23.0558H48.1175ZM59.2673 28.5805C57.9699 28.5805 56.8511 27.5174 56.8511 26.0033C56.8511 24.4731 57.9699 23.4261 59.2673 23.4261C60.5641 23.4261 61.6829 24.4731 61.6829 26.0033C61.6829 27.5174 60.5641 28.5805 59.2673 28.5805ZM59.2673 21.7511C56.8998 21.7511 54.9704 23.5389 54.9704 26.0033C54.9704 28.4517 56.8998 30.2556 59.2673 30.2556C61.6342 30.2556 63.5637 28.4517 63.5637 26.0033C63.5637 23.5389 61.6342 21.7511 59.2673 21.7511ZM68.6401 28.5805C67.3433 28.5805 66.2243 27.5174 66.2243 26.0033C66.2243 24.4731 67.3433 23.4261 68.6401 23.4261C69.9371 23.4261 71.0559 24.4731 71.0559 26.0033C71.0559 27.5174 69.9371 28.5805 68.6401 28.5805H68.6401ZM68.6401 21.7511C66.2728 21.7511 64.3437 23.5389 64.3437 26.0033C64.3437 28.4517 66.2728 30.2556 68.6401 30.2556C71.0072 30.2556 72.9367 28.4517 72.9367 26.0033C72.9367 23.5389 71.0072 21.7511 68.6401 21.7511H68.6401Z" fill="white"/>
<path d="M10.6438 7.61362C10.3061 7.91634 10.1045 8.42125 10.1045 9.09148V8.93997V31.0568V30.9111C10.1045 31.53 10.2774 32.008 10.5703 32.3159L10.645 32.387V32.3873C10.882 32.5998 11.186 32.7126 11.5343 32.7122C11.8747 32.7122 12.2576 32.6044 12.6618 32.3768L27.2699 24.1311L32.2877 21.2985C32.9249 20.9388 33.2827 20.4748 33.3425 20.0022V20.0003C33.2827 19.5266 32.9249 19.063 32.2877 18.7033L27.2695 15.871L12.6618 7.6253C12.2568 7.39726 11.8736 7.28906 11.5323 7.28906C11.1844 7.28906 10.8809 7.40153 10.6439 7.61362H10.6438Z" fill="#00C1FF"/>
<path d="M10.6451 32.3867L10.5703 32.3156C10.2774 32.0078 10.1045 31.5298 10.1045 30.9108V31.0565V8.9452V9.09123C10.1045 8.421 10.3061 7.91609 10.6438 7.61337L23.113 20.0004L10.6451 32.3867Z" fill="url(#paint0_linear_1121_11720)"/>
<path d="M27.27 24.1309L23.113 20.0005L27.2696 15.8708L32.2878 18.703C32.925 19.0628 33.2828 19.5263 33.3426 20.0001V20.002C33.2828 20.4746 32.925 20.9386 32.2878 21.2982L27.27 24.1308" fill="url(#paint1_linear_1121_11720)"/>
<path d="M11.5345 32.7129C11.1862 32.7132 10.8822 32.6003 10.6453 32.3879V32.3876L23.1132 20.0013L27.2701 24.1317L12.6619 32.3774C12.2578 32.6051 11.8748 32.7129 11.5345 32.7129Z" fill="url(#paint2_linear_1121_11720)"/>
<path d="M23.113 20L10.6438 7.61292C10.8808 7.40083 11.1844 7.28836 11.5322 7.28836C11.8735 7.28836 12.2568 7.39652 12.6617 7.6246L27.2695 15.8703L23.1129 20" fill="url(#paint3_linear_1121_11720)"/>
<path d="M11.5347 32.8594C11.1864 32.8594 10.882 32.7465 10.645 32.5341L10.6446 32.5344C10.6436 32.5334 10.6426 32.5325 10.6415 32.5317L10.5767 32.4688C10.5746 32.4668 10.5727 32.4645 10.5703 32.4623L10.6451 32.388C10.8821 32.6004 11.186 32.7133 11.5344 32.7129C11.8747 32.7129 12.2576 32.6051 12.6618 32.3775L27.2699 24.1318L27.3635 24.2248L27.2687 24.2783L12.6617 32.5235C12.2934 32.7309 11.9431 32.8391 11.6266 32.8571C11.596 32.8586 11.5654 32.8593 11.5347 32.8593" fill="url(#paint4_linear_1121_11720)"/>
<path d="M10.5703 32.4609C10.2774 32.1531 10.1045 31.6755 10.1045 31.0561V30.9105C10.1045 31.5294 10.2774 32.0074 10.5703 32.3153L10.645 32.3863L10.5703 32.4609Z" fill="url(#paint5_linear_1121_11720)"/>
<path d="M27.3636 24.2246L27.27 24.1316L32.2878 21.2989C32.9251 20.9393 33.2828 20.4753 33.3426 20.0027C33.3426 20.1761 33.3037 20.3495 33.2263 20.5183C33.0702 20.8585 32.7573 21.1799 32.2878 21.445L27.3636 24.2246" fill="url(#paint6_linear_1121_11720)"/>
<path d="M33.3426 20C33.2828 19.5263 32.925 19.0627 32.2878 18.7029L27.2695 15.8707L27.3631 15.7777H27.3635L32.2878 18.5573C32.9903 18.9541 33.3422 19.477 33.3426 20Z" fill="url(#paint7_linear_1121_11720)"/>
<path d="M10.1045 9.0918V8.93902C10.1045 8.88393 10.106 8.83006 10.1088 8.77776V8.77537C10.1088 8.77465 10.1088 8.77389 10.1091 8.77308V8.7672C10.1394 8.23406 10.3061 7.8182 10.5703 7.54051L10.6438 7.61388C10.3061 7.91665 10.1045 8.42157 10.1045 9.0918Z" fill="url(#paint8_linear_1121_11720)"/>
<path d="M27.2695 15.8711L12.6618 7.62532C12.2568 7.39728 11.8736 7.28912 11.5323 7.28912C11.1844 7.28912 10.8809 7.40159 10.6439 7.61368L10.5703 7.54026C10.5933 7.51609 10.6172 7.49279 10.6419 7.47039C10.6427 7.46958 10.6439 7.46877 10.6447 7.468C10.8798 7.25753 11.1801 7.14507 11.5249 7.14304H11.5323C11.8736 7.14304 12.2568 7.25124 12.6618 7.47937L27.3635 15.7778L27.3631 15.7781L27.2695 15.8711Z" fill="url(#paint9_linear_1121_11720)"/>
<defs>
<linearGradient id="paint0_linear_1121_11720" x1="18.073" y1="8.71151" x2="7.41559" y2="19.4739" gradientUnits="userSpaceOnUse">
<stop stop-color="#00A0FF"/>
<stop offset="0.00657" stop-color="#00A1FF"/>
<stop offset="0.2601" stop-color="#00BEFF"/>
<stop offset="0.5122" stop-color="#00D2FF"/>
<stop offset="0.7604" stop-color="#00DFFF"/>
<stop offset="1" stop-color="#00E3FF"/>
</linearGradient>
<linearGradient id="paint1_linear_1121_11720" x1="34.119" y1="19.9291" x2="9.76713" y2="19.9291" gradientUnits="userSpaceOnUse">
<stop stop-color="#FFE000"/>
<stop offset="0.4087" stop-color="#FFBD00"/>
<stop offset="0.7754" stop-color="#FFA500"/>
<stop offset="1" stop-color="#FF9C00"/>
</linearGradient>
<linearGradient id="paint2_linear_1121_11720" x1="25.0631" y1="23.9283" x2="7.00225" y2="42.0339" gradientUnits="userSpaceOnUse">
<stop stop-color="#FF3A44"/>
<stop offset="1" stop-color="#C31162"/>
</linearGradient>
<linearGradient id="paint3_linear_1121_11720" x1="7.43015" y1="5.77647" x2="15.4794" y2="13.858" gradientUnits="userSpaceOnUse">
<stop stop-color="#32A071"/>
<stop offset="0.0685" stop-color="#2DA771"/>
<stop offset="0.4762" stop-color="#15CF74"/>
<stop offset="0.8009" stop-color="#06E775"/>
<stop offset="1" stop-color="#00F076"/>
</linearGradient>
<linearGradient id="paint4_linear_1121_11720" x1="25.0539" y1="26.7935" x2="10.5907" y2="41.3992" gradientUnits="userSpaceOnUse">
<stop stop-color="#CC2E36"/>
<stop offset="1" stop-color="#9C0E4E"/>
</linearGradient>
<linearGradient id="paint5_linear_1121_11720" x1="11.7656" y1="8.71131" x2="2.37662" y2="18.193" gradientUnits="userSpaceOnUse">
<stop stop-color="#008DE0"/>
<stop offset="0.00657" stop-color="#008DE0"/>
<stop offset="0.2601" stop-color="#00A7E0"/>
<stop offset="0.5122" stop-color="#00B8E0"/>
<stop offset="0.7604" stop-color="#00C4E0"/>
<stop offset="1" stop-color="#00C7E0"/>
</linearGradient>
<linearGradient id="paint6_linear_1121_11720" x1="34.1191" y1="20.0018" x2="9.76718" y2="20.0018" gradientUnits="userSpaceOnUse">
<stop stop-color="#E0C500"/>
<stop offset="0.4087" stop-color="#E0A600"/>
<stop offset="0.7754" stop-color="#E09100"/>
<stop offset="1" stop-color="#E08900"/>
</linearGradient>
<linearGradient id="paint7_linear_1121_11720" x1="34.119" y1="20.001" x2="9.76714" y2="20.001" gradientUnits="userSpaceOnUse">
<stop stop-color="#FFE840"/>
<stop offset="0.4087" stop-color="#FFCE40"/>
<stop offset="0.7754" stop-color="#FFBC40"/>
<stop offset="1" stop-color="#FFB540"/>
</linearGradient>
<linearGradient id="paint8_linear_1121_11720" x1="11.7553" y1="8.72905" x2="2.70869" y2="17.469" gradientUnits="userSpaceOnUse">
<stop stop-color="#40B8FF"/>
<stop offset="0.00657" stop-color="#40B9FF"/>
<stop offset="0.2601" stop-color="#40CEFF"/>
<stop offset="0.5122" stop-color="#40DDFF"/>
<stop offset="0.7604" stop-color="#40E7FF"/>
<stop offset="1" stop-color="#40EAFF"/>
</linearGradient>
<linearGradient id="paint9_linear_1121_11720" x1="7.41202" y1="8.39687" x2="13.8705" y2="14.919" gradientUnits="userSpaceOnUse">
<stop stop-color="#65B895"/>
<stop offset="0.0685" stop-color="#62BD95"/>
<stop offset="0.4762" stop-color="#50DB97"/>
<stop offset="0.8009" stop-color="#44ED98"/>
<stop offset="1" stop-color="#40F498"/>
</linearGradient>
</defs>
</svg>
