<svg width="100" height="100" viewBox="0 0 100 100" fill="none" xmlns="http://www.w3.org/2000/svg">
<circle cx="50" cy="50" r="50" fill="#F9B9B8"/>
<mask id="mask0_1272_2979" style="mask-type:alpha" maskUnits="userSpaceOnUse" x="0" y="0" width="100" height="100">
<circle cx="50" cy="50" r="50" fill="#C4C4C4"/>
</mask>
<g mask="url(#mask0_1272_2979)">
<path d="M77.7724 92.0361V98.6536C77.7724 99.3945 77.1266 99.9946 76.3293 99.9946H23.6598C22.8625 99.9946 22.2168 99.3945 22.2168 98.6536V92.0361C22.2168 85.1236 28.3027 79.6408 35.7413 79.5738C38.2172 79.5493 40.4388 78.4107 41.7947 76.6153L41.7839 76.6053C43.2792 74.6285 43.1309 72.8476 43.1331 71.4946L43.1602 71.4326C36.6937 68.9418 32.1446 63.0182 32.141 56.1107V55.5643C29.5521 55.5643 27.6335 53.6561 27.6353 51.4493C27.6365 49.8877 27.6465 36.9698 27.6479 35.1133C27.6497 32.6141 29.8304 30.5876 32.5198 30.5893C34.7071 25.5197 39.9939 22.2134 45.8477 22.2168L65.2507 22.2302C66.259 22.2319 66.9571 23.1705 66.5981 24.0472L65.3625 27.0743C65.0649 27.8068 65.5014 28.6198 66.3095 28.8377L67.3088 29.1075C70.3039 29.9156 72.5595 32.4517 72.5595 35.5675C72.5595 36.8263 72.5541 45.6698 72.5505 51.2045C72.5505 53.6132 70.4473 55.5643 67.8553 55.5643V56.1107C67.8499 63.0333 63.2846 68.9636 56.8001 71.446V71.4477L56.8218 71.4946C56.8218 72.7864 56.6589 74.6063 58.1692 76.6069C59.485 78.3523 61.7166 79.5488 64.2478 79.5738C71.6865 79.6408 77.7724 85.1236 77.7724 92.0361Z" fill="#FFDFBA"/>
<path d="M72.2276 35.5619C72.2276 36.8201 72.2223 45.6599 72.2187 51.1923C72.2187 53.5999 70.138 55.5501 67.5737 55.5501C67.5755 53.7272 67.5791 49.299 67.5808 45.2243C67.5844 40.7826 63.7531 37.1804 59.0224 37.177L40.8207 37.1653C36.09 37.1619 32.2516 40.7608 32.248 45.2025L32.2409 55.5501C29.6796 55.5501 27.7814 53.6428 27.7832 51.4369C27.7845 49.876 27.7943 36.9636 27.7957 35.1078C27.7975 32.6097 29.9549 30.5841 32.6156 30.5857C34.7795 25.5181 40.0098 22.2134 45.8012 22.2168L64.9967 22.2304C65.9953 22.231 66.6845 23.1695 66.3305 24.0461L65.1079 27.0721C64.8124 27.8035 65.2441 28.6161 66.044 28.8345L67.033 29.1046C69.9961 29.9124 72.2276 32.4473 72.2276 35.5619Z" fill="#42434D"/>
<path d="M58.5988 33.3507C63.0608 33.3544 66.6746 37.2975 66.6712 42.1595C66.6697 46.3149 66.6645 54.0605 66.6645 54.0605C66.6594 61.635 62.3994 68.1238 56.3484 70.84V70.8418C45.3957 75.7632 33.3436 66.9592 33.3379 54.0605C33.3379 53.1035 33.344 43.3612 33.3446 42.1357C33.348 37.2737 36.9685 33.3342 41.4305 33.3379L58.5988 33.3507Z" fill="#FFEBD2"/>
<path d="M66.5771 23.837C65.3037 26.6106 65.3219 26.546 65.2912 26.6768L51.3044 26.6679C45.8757 26.6651 40.9363 29.2039 38.5247 33.1789C38.2223 33.6774 37.675 34.0508 37.015 34.1672C34.8265 34.5531 33.185 36.1602 33.1836 38.0836L33.1818 39.3966C32.6035 40.3521 32.2784 41.4308 32.2766 42.5718L32.2723 48.1376C32.2704 50.5411 27.7809 50.7004 27.7832 48.0926C27.7845 46.7104 27.7943 35.2758 27.7958 33.6324C27.7976 31.4202 29.9689 29.6264 32.6466 29.6279C34.8242 25.1404 40.0881 22.2138 45.9166 22.2168L65.2355 22.2287C66.2394 22.2302 66.9344 23.061 66.5771 23.837Z" fill="#4D4E59"/>
</g>
</svg>
