<svg width="20" height="20" viewBox="0 0 20 20" fill="none" xmlns="http://www.w3.org/2000/svg">
<path d="M17.9419 2.1875H16.25V1.875C16.25 1.54348 16.1183 1.22554 15.8839 0.991117C15.6495 0.756696 15.3315 0.625 15 0.625H14.6875C14.356 0.625 14.038 0.756696 13.8036 0.991117C13.5692 1.22554 13.4375 1.54348 13.4375 1.875V2.34375H8.4375V1.875C8.4375 1.54348 8.3058 1.22554 8.07138 0.991117C7.83696 0.756696 7.51902 0.625 7.1875 0.625H6.875C6.54348 0.625 6.22554 0.756696 5.99112 0.991117C5.7567 1.22554 5.625 1.54348 5.625 1.875V2.1875H3.93313C3.55263 2.18866 3.18812 2.34062 2.91949 2.61008C2.65085 2.87954 2.5 3.24451 2.5 3.625V9.30344C2.5 9.38632 2.53292 9.4658 2.59153 9.52441C2.65013 9.58301 2.72962 9.61594 2.8125 9.61594C2.89538 9.61594 2.97487 9.58301 3.03347 9.52441C3.09208 9.4658 3.125 9.38632 3.125 9.30344V6.5625H14.6875C14.7704 6.5625 14.8499 6.52958 14.9085 6.47097C14.9671 6.41237 15 6.33288 15 6.25C15 6.16712 14.9671 6.08763 14.9085 6.02903C14.8499 5.97042 14.7704 5.9375 14.6875 5.9375H3.125V3.625C3.125 3.41027 3.21 3.20427 3.36143 3.05202C3.51286 2.89977 3.7184 2.81366 3.93313 2.8125H5.625V3.4375C5.625 3.76902 5.7567 4.08696 5.99112 4.32138C6.22554 4.5558 6.54348 4.6875 6.875 4.6875H7.1875C7.51902 4.6875 7.83696 4.5558 8.07138 4.32138C8.3058 4.08696 8.4375 3.76902 8.4375 3.4375V2.96875H13.4375V3.4375C13.4375 3.76902 13.5692 4.08696 13.8036 4.32138C14.038 4.5558 14.356 4.6875 14.6875 4.6875H15C15.3315 4.6875 15.6495 4.5558 15.8839 4.32138C16.1183 4.08696 16.25 3.76902 16.25 3.4375V2.8125H17.9419C18.1566 2.81366 18.3621 2.89977 18.5136 3.05202C18.665 3.20427 18.75 3.41027 18.75 3.625V5.9375H16.875C16.7921 5.9375 16.7126 5.97042 16.654 6.02903C16.5954 6.08763 16.5625 6.16712 16.5625 6.25C16.5625 6.33288 16.5954 6.41237 16.654 6.47097C16.7126 6.52958 16.7921 6.5625 16.875 6.5625H18.75V15.4375C18.75 15.6522 18.665 15.8582 18.5136 16.0105C18.3621 16.1627 18.1566 16.2488 17.9419 16.25H10.9375C10.8546 16.25 10.7751 16.2829 10.7165 16.3415C10.6579 16.4001 10.625 16.4796 10.625 16.5625C10.625 16.6454 10.6579 16.7249 10.7165 16.7835C10.7751 16.8421 10.8546 16.875 10.9375 16.875H17.9419C18.3224 16.8738 18.6869 16.7219 18.9555 16.4524C19.2242 16.183 19.375 15.818 19.375 15.4375V3.625C19.375 3.24451 19.2242 2.87954 18.9555 2.61008C18.6869 2.34062 18.3224 2.18866 17.9419 2.1875ZM7.8125 3.4375C7.8125 3.60326 7.74665 3.76223 7.62944 3.87944C7.51223 3.99665 7.35326 4.0625 7.1875 4.0625H6.875C6.70924 4.0625 6.55027 3.99665 6.43306 3.87944C6.31585 3.76223 6.25 3.60326 6.25 3.4375V1.875C6.25 1.70924 6.31585 1.55027 6.43306 1.43306C6.55027 1.31585 6.70924 1.25 6.875 1.25H7.1875C7.35326 1.25 7.51223 1.31585 7.62944 1.43306C7.74665 1.55027 7.8125 1.70924 7.8125 1.875V3.4375ZM15.625 3.4375C15.625 3.60326 15.5592 3.76223 15.4419 3.87944C15.3247 3.99665 15.1658 4.0625 15 4.0625H14.6875C14.5217 4.0625 14.3628 3.99665 14.2456 3.87944C14.1283 3.76223 14.0625 3.60326 14.0625 3.4375V1.875C14.0625 1.70924 14.1283 1.55027 14.2456 1.43306C14.3628 1.31585 14.5217 1.25 14.6875 1.25H15C15.1658 1.25 15.3247 1.31585 15.4419 1.43306C15.5592 1.55027 15.625 1.70924 15.625 1.875V3.4375Z" fill="#505565" stroke="#505565" stroke-width="0.4"/>
<path d="M5.3125 10C4.3854 10 3.47912 10.2749 2.70827 10.79C1.93741 11.3051 1.3366 12.0371 0.981817 12.8937C0.627031 13.7502 0.534203 14.6927 0.715071 15.602C0.895939 16.5113 1.34238 17.3465 1.99794 18.0021C2.6535 18.6576 3.48873 19.1041 4.39802 19.2849C5.3073 19.4658 6.2498 19.373 7.10633 19.0182C7.96286 18.6634 8.69495 18.0626 9.21001 17.2917C9.72508 16.5209 10 15.6146 10 14.6875C9.99859 13.4447 9.50428 12.2533 8.62551 11.3745C7.74674 10.4957 6.55527 10.0014 5.3125 10ZM5.3125 18.75C4.50901 18.75 3.72357 18.5117 3.0555 18.0653C2.38742 17.619 1.86672 16.9845 1.55924 16.2422C1.25176 15.4998 1.17131 14.683 1.32806 13.8949C1.48481 13.1069 1.87173 12.383 2.43988 11.8149C3.00803 11.2467 3.7319 10.8598 4.51995 10.7031C5.30799 10.5463 6.12483 10.6268 6.86715 10.9342C7.60948 11.2417 8.24395 11.7624 8.69035 12.4305C9.13674 13.0986 9.375 13.884 9.375 14.6875C9.37376 15.7646 8.94535 16.7972 8.18375 17.5588C7.42215 18.3203 6.38956 18.7488 5.3125 18.75Z" fill="#505565" stroke="#505565" stroke-width="0.4"/>
<path d="M5.625 14.5375V12.8125C5.625 12.7296 5.59208 12.6501 5.53347 12.5915C5.47487 12.5329 5.39538 12.5 5.3125 12.5C5.22962 12.5 5.15013 12.5329 5.09153 12.5915C5.03292 12.6501 5 12.7296 5 12.8125V14.8375L6.67969 16.1812C6.74442 16.233 6.82707 16.257 6.90947 16.2479C6.99187 16.2387 7.06726 16.1972 7.11906 16.1325C7.17086 16.0678 7.19483 15.9851 7.18568 15.9027C7.17654 15.8203 7.13504 15.7449 7.07031 15.6931L5.625 14.5375Z" fill="#505565" stroke="#505565" stroke-width="0.4"/>
<path d="M9.51165 11.6856C9.57345 11.6856 9.63385 11.6673 9.68523 11.633C9.73661 11.5986 9.77665 11.5498 9.8003 11.4927C9.82395 11.4356 9.83014 11.3728 9.81808 11.3122C9.80603 11.2516 9.77628 11.1959 9.73259 11.1522L8.84853 10.2681C8.78932 10.2126 8.71084 10.1823 8.62969 10.1836C8.54854 10.185 8.47109 10.2178 8.41372 10.2752C8.35635 10.3326 8.32356 10.4101 8.3223 10.4912C8.32104 10.5724 8.3514 10.6509 8.40696 10.71L9.29071 11.5938C9.3197 11.6228 9.35413 11.6459 9.39204 11.6617C9.42995 11.6775 9.47059 11.6856 9.51165 11.6856Z" fill="#505565" stroke="#505565" stroke-width="0.4"/>
<path d="M6.25 9.375C6.33288 9.375 6.41237 9.34208 6.47097 9.28347C6.52958 9.22487 6.5625 9.14538 6.5625 9.0625C6.5625 8.97962 6.52958 8.90013 6.47097 8.84153C6.41237 8.78292 6.33288 8.75 6.25 8.75H4.375C4.29212 8.75 4.21263 8.78292 4.15403 8.84153C4.09542 8.90013 4.0625 8.97962 4.0625 9.0625C4.0625 9.14538 4.09542 9.22487 4.15403 9.28347C4.21263 9.34208 4.29212 9.375 4.375 9.375H6.25Z" fill="#505565" stroke="#505565" stroke-width="0.4"/>
</svg>
