<svg width="65" height="79" viewBox="0 0 65 79" fill="none" xmlns="http://www.w3.org/2000/svg">
<path opacity="0.23" fill-rule="evenodd" clip-rule="evenodd" d="M58.8692 0.567461C58.4555 1.27236 58.0294 1.73972 57.5642 2.11484C56.7593 2.75752 55.7328 3.15945 54.3284 3.43756C52.2331 3.86995 49.4717 3.8667 46.4948 4.49573C45.0071 4.82184 43.4403 5.33958 41.9538 6.27574C40.4668 7.20418 39.1097 8.56509 38.0943 10.3186L38.104 10.3019L38.0943 10.3186C37.3139 11.6518 36.8215 13.0391 36.6039 14.4034C36.219 16.8046 36.6619 19.015 37.2911 20.9104C38.2585 23.7562 39.5911 26.1313 40.1846 28.1224C40.4902 29.1156 40.6274 29.971 40.5895 30.7515C40.5475 31.5345 40.3627 32.2738 39.8271 33.2049C39.4123 33.9117 38.9862 34.379 38.521 34.7541C37.7161 35.3968 36.6896 35.7988 35.2852 36.0769C33.1918 36.5104 30.4304 36.5071 27.4535 37.1361C25.9658 37.4622 24.3971 37.9789 22.9106 38.9151C21.4255 39.8446 20.0664 41.2044 19.051 42.9579C18.2718 44.2893 17.7802 45.6795 17.5637 47.042C17.1758 49.4439 17.6206 51.6554 18.2498 53.5508C19.2132 56.3992 20.5468 58.7725 21.1392 60.7654C21.4449 61.7586 21.5839 62.6151 21.546 63.3955C21.5011 64.1794 21.3181 64.9198 20.7825 65.8509C20.3677 66.5576 19.9406 67.0268 19.4753 67.4019C18.6694 68.0465 17.6429 68.4484 16.2374 68.7283C14.1429 69.1637 11.3796 69.1593 8.40165 69.7902C6.91584 70.1174 5.34718 70.6341 3.86066 71.5702C2.37255 72.5005 1.01541 73.8614 -2.82652e-05 75.6149L5.62796 78.8981C6.04277 78.1913 6.46987 77.7221 6.93512 77.347C7.74 76.7043 8.76758 76.3005 10.1719 76.0224C12.2683 75.5882 15.0297 75.5914 18.0077 74.9606C19.4954 74.6345 21.0633 74.1149 22.5498 73.1787C24.0368 72.2503 25.394 70.8893 26.4104 69.134C27.1897 67.8026 27.6813 66.4124 27.8978 65.0499C28.2857 62.648 27.8409 60.4365 27.2117 58.5411C26.2483 55.6927 24.9147 53.3195 24.3222 51.3265C24.0166 50.3333 23.8776 49.4768 23.9155 48.6963C23.9604 47.9125 24.1434 47.1721 24.679 46.2411C25.0938 45.5343 25.5198 45.0669 25.9851 44.6918C26.7881 44.048 27.8165 43.6472 29.2208 43.3691C31.3142 42.9356 34.0757 42.9389 37.0526 42.3098C38.5402 41.9837 40.1089 41.4671 41.5954 40.5309C43.0806 39.6014 44.4396 38.2415 45.455 36.4881C46.2342 35.1566 46.7248 33.7683 46.9424 32.404C47.3292 30.0039 46.8844 27.7924 46.2552 25.897C45.2907 23.0504 43.9582 20.6754 43.3646 18.6843C43.059 17.691 42.92 16.8346 42.9568 16.0559C43.0017 15.2721 43.1847 14.5317 43.7222 13.6017L41.0789 12.0598L43.7117 13.6154L43.7222 13.6017L41.0789 12.0598L43.7117 13.6154L43.7222 13.6017C44.1341 12.8957 44.5612 12.4265 45.0253 12.0533C45.8302 11.4106 46.8578 11.0068 48.2622 10.7287C50.3575 10.2963 53.1189 10.2996 56.0958 9.67053C57.5824 9.34627 59.1503 8.82666 60.6368 7.89049C62.1238 6.96206 63.4799 5.60301 64.4971 3.85062L58.8692 0.567461Z" fill="#5ABFC6"/>
</svg>
