<svg width="9" height="11" viewBox="0 0 9 11" fill="none" xmlns="http://www.w3.org/2000/svg">
<path d="M8.16 0.648C8.16 0.288 7.872 0 7.512 0H3.264H0.96H0.672C0.312 0 0.0239996 0.288 0.0239996 0.648C0.0239996 1.008 0.312 1.296 0.672 1.296H0.96H1.296H3.264C3.936 1.296 4.512 1.704 4.776 2.28H1.776H0.648C0.288 2.28 0 2.568 0 2.928C0 3.288 0.288 3.576 0.648 3.576H2.424H4.752C4.488 4.152 3.912 4.56 3.24 4.56H2.904H0.96C0.696 4.56 0.456 4.728 0.36 4.968C0.264 5.208 0.312 5.496 0.504 5.688L5.112 10.296C5.232 10.416 5.4 10.488 5.568 10.488C5.736 10.488 5.904 10.416 6.024 10.296C6.288 10.032 6.288 9.624 6.024 9.36L4.632 7.968L2.544 5.88H3.264C3.384 5.88 3.48 5.88 3.576 5.856C4.848 5.712 5.856 4.776 6.144 3.576H7.512C7.872 3.576 8.16 3.288 8.16 2.928C8.16 2.568 7.872 2.28 7.512 2.28H6.144C6.072 1.92 5.928 1.584 5.712 1.296H7.488C7.872 1.32 8.16 1.008 8.16 0.648Z" fill="#505565"/>
</svg>
