<svg width="22" height="22" viewBox="0 0 22 22" fill="none" xmlns="http://www.w3.org/2000/svg">
<path d="M11 0.248047C5.07205 0.248047 0.248047 5.07205 0.248047 11C0.248047 16.928 5.07205 21.752 11 21.752C16.928 21.752 21.752 16.928 21.752 11C21.752 5.07205 16.928 0.248047 11 0.248047ZM11 20.552C5.72005 20.552 1.44805 16.28 1.44805 11C1.44805 5.72005 5.72005 1.44805 11 1.44805C16.28 1.44805 20.552 5.72005 20.552 11C20.552 16.28 16.28 20.552 11 20.552Z" fill="#505565"/>
<path d="M15.0799 6.39214C15.0799 6.03214 14.7919 5.74414 14.4319 5.74414H10.1839H7.87992H7.59192C7.23192 5.74414 6.94392 6.03214 6.94392 6.39214C6.94392 6.75214 7.23192 7.04014 7.59192 7.04014H7.87992H8.21592H10.1839C10.8559 7.04014 11.4319 7.44814 11.6959 8.02414H8.69592H7.56792C7.20792 8.02414 6.91992 8.31214 6.91992 8.67214C6.91992 9.03214 7.20792 9.32014 7.56792 9.32014H9.34392H11.6719C11.4079 9.89614 10.8319 10.3041 10.1599 10.3041H9.82392H7.87992C7.61592 10.3041 7.37592 10.4721 7.27992 10.7121C7.18392 10.9521 7.23192 11.2401 7.42392 11.4321L12.0319 16.0401C12.1519 16.1601 12.3199 16.2321 12.4879 16.2321C12.6559 16.2321 12.8239 16.1601 12.9439 16.0401C13.2079 15.7761 13.2079 15.3681 12.9439 15.1041L11.5519 13.7121L9.46392 11.6241H10.1839C10.3039 11.6241 10.3999 11.6241 10.4959 11.6001C11.7679 11.4561 12.7759 10.5201 13.0639 9.32014H14.4319C14.7919 9.32014 15.0799 9.03214 15.0799 8.67214C15.0799 8.31214 14.7919 8.02414 14.4319 8.02414H13.0639C12.9919 7.66414 12.8479 7.32814 12.6319 7.04014H14.4079C14.7919 7.06414 15.0799 6.75214 15.0799 6.39214Z" fill="#505565"/>
</svg>
