<svg width="16" height="16" viewBox="0 0 16 16" fill="none" xmlns="http://www.w3.org/2000/svg">
<path d="M15.353 14.6434L11.9297 11.225C13.0229 9.94953 13.5797 8.30015 13.483 6.62302C13.3863 4.94589 12.6438 3.3714 11.4112 2.22998C10.1786 1.08856 8.5518 0.468958 6.8722 0.501198C5.1926 0.533437 3.59077 1.21502 2.40289 2.40289C1.21502 3.59077 0.533437 5.1926 0.501198 6.8722C0.468958 8.5518 1.08856 10.1786 2.22998 11.4112C3.3714 12.6438 4.94589 13.3863 6.62302 13.483C8.30015 13.5797 9.94953 13.0229 11.225 11.9297L14.6434 15.353C14.7375 15.4471 14.8651 15.5 14.9982 15.5C15.1313 15.5 15.2589 15.4471 15.353 15.353C15.4471 15.2589 15.5 15.1313 15.5 14.9982C15.5 14.8651 15.4471 14.7375 15.353 14.6434ZM1.50468 7.00204C1.50468 5.91476 1.82709 4.8519 2.43115 3.94787C3.03521 3.04383 3.89378 2.33922 4.89829 1.92314C5.9028 1.50706 7.00813 1.39819 8.07452 1.61031C9.1409 1.82242 10.1204 2.346 10.8893 3.11482C11.6581 3.88363 12.1816 4.86317 12.3938 5.92955C12.6059 6.99594 12.497 8.10127 12.0809 9.10578C11.6649 10.1103 10.9602 10.9689 10.0562 11.5729C9.15217 12.177 8.08931 12.4994 7.00204 12.4994C5.54404 12.4994 4.14577 11.9202 3.11482 10.8893C2.08386 9.8583 1.50468 8.46003 1.50468 7.00204Z" fill="#505565" stroke="#505565" stroke-width="0.2"/>
</svg>
