<svg width="408" height="296" viewBox="0 0 408 296" fill="none" xmlns="http://www.w3.org/2000/svg">
<g clip-path="url(#clip0_400_42538)">
<path d="M185.134 161.272L73.8471 189.867C70.0722 190.833 66.0676 190.264 62.7118 188.287C59.3561 186.31 56.9234 183.086 55.9473 179.321L22.2914 48.9092C21.3238 45.1425 21.8932 41.1466 23.8745 37.7982C25.8559 34.4498 29.0874 32.0223 32.8602 31.0484L136.394 4.44531L162.894 16.2826L195.702 143.411C196.67 147.178 196.101 151.174 194.119 154.522C192.138 157.871 188.906 160.298 185.134 161.272Z" fill="#F2F2F2"/>
<path d="M33.9155 35.1371C31.2288 35.8307 28.9275 37.5593 27.5166 39.9438C26.1056 42.3283 25.7002 45.1738 26.3892 47.8562L60.0451 178.268C60.7402 180.949 62.4726 183.245 64.8623 184.653C67.252 186.061 70.1037 186.466 72.792 185.778L184.078 157.183C186.765 156.489 189.066 154.761 190.477 152.376C191.888 149.992 192.294 147.146 191.605 144.464L159.304 19.3052L136.016 8.90234L33.9155 35.1371Z" fill="white"/>
<path d="M162.611 16.9542L145.388 21.3797C144.131 21.7028 142.796 21.5142 141.678 20.8556C140.56 20.1969 139.75 19.122 139.427 17.8674L136.151 5.1744C136.136 5.11883 136.138 5.06035 136.156 5.00567C136.173 4.95099 136.205 4.90232 136.249 4.86525C136.293 4.82817 136.347 4.80419 136.404 4.79605C136.461 4.78792 136.519 4.79595 136.571 4.81924L162.659 16.3796C162.717 16.4053 162.766 16.4484 162.798 16.5029C162.83 16.5575 162.845 16.6207 162.84 16.6839C162.834 16.747 162.81 16.807 162.769 16.8555C162.728 16.9039 162.673 16.9384 162.611 16.9542Z" fill="#F2F2F2"/>
<path d="M153.55 128.323L102.883 141.342C102.572 141.422 102.248 141.44 101.929 141.395C101.611 141.35 101.305 141.243 101.028 141.08C100.751 140.917 100.509 140.701 100.316 140.445C100.123 140.188 99.9822 139.897 99.902 139.586C99.8219 139.275 99.8038 138.952 99.8489 138.635C99.894 138.317 100.001 138.011 100.165 137.735C100.328 137.459 100.544 137.218 100.801 137.025C101.058 136.832 101.351 136.692 101.662 136.612L152.329 123.593C152.64 123.513 152.964 123.495 153.283 123.54C153.601 123.585 153.907 123.692 154.184 123.855C154.461 124.018 154.703 124.234 154.896 124.49C155.089 124.747 155.23 125.038 155.31 125.349C155.39 125.66 155.408 125.983 155.363 126.3C155.318 126.618 155.211 126.924 155.047 127.2C154.884 127.476 154.668 127.717 154.411 127.91C154.154 128.103 153.861 128.243 153.55 128.323Z" fill="#CCCCCC"/>
<path d="M165.388 133.793L104.943 149.325C104.314 149.486 103.647 149.392 103.088 149.063C102.529 148.733 102.124 148.196 101.962 147.569C101.8 146.941 101.895 146.276 102.225 145.718C102.555 145.16 103.093 144.756 103.722 144.594L164.167 129.063C164.796 128.902 165.462 128.997 166.021 129.326C166.579 129.656 166.984 130.193 167.146 130.82C167.308 131.447 167.213 132.112 166.884 132.67C166.554 133.227 166.016 133.631 165.388 133.793Z" fill="#CCCCCC"/>
<path d="M82.2036 157.023C86.9816 157.023 90.855 153.158 90.855 148.39C90.855 143.623 86.9816 139.758 82.2036 139.758C77.4256 139.758 73.5522 143.623 73.5522 148.39C73.5522 153.158 77.4256 157.023 82.2036 157.023Z" fill="#E6E6E6"/>
<path d="M148.163 105.732L80.8716 123.016C78.9268 123.514 76.8639 123.221 75.1353 122.202C73.4067 121.184 72.1536 119.522 71.6509 117.583L57.5492 62.9205C57.051 60.98 57.3445 58.9215 58.3653 57.1967C59.3862 55.4719 61.051 54.2215 62.9946 53.72L130.286 36.4359C132.23 35.9387 134.293 36.2316 136.022 37.2502C137.751 38.2688 139.004 39.9301 139.506 41.8694L153.608 96.5319C154.106 98.4724 153.813 100.531 152.792 102.256C151.771 103.98 150.106 105.231 148.163 105.732Z" fill="white"/>
<path d="M148.163 105.732L80.8716 123.016C78.9268 123.514 76.8639 123.221 75.1353 122.202C73.4067 121.184 72.1536 119.522 71.6509 117.583L57.5492 62.9205C57.051 60.98 57.3445 58.9215 58.3653 57.1967C59.3862 55.4719 61.051 54.2215 62.9946 53.72L130.286 36.4359C132.23 35.9387 134.293 36.2316 136.022 37.2502C137.751 38.2688 139.004 39.9301 139.506 41.8694L153.608 96.5319C154.106 98.4724 153.813 100.531 152.792 102.256C151.771 103.98 150.106 105.231 148.163 105.732ZM63.2167 54.5808C61.5018 55.0233 60.0328 56.1266 59.132 57.6485C58.2313 59.1704 57.9723 60.9867 58.412 62.6989L72.5137 117.361C72.9572 119.073 74.0628 120.538 75.5881 121.437C77.1133 122.336 78.9336 122.594 80.6495 122.156L147.941 104.872C149.655 104.429 151.124 103.326 152.025 101.804C152.926 100.282 153.185 98.4657 152.745 96.7535L138.644 42.091C138.2 40.3798 137.094 38.914 135.569 38.0153C134.044 37.1165 132.224 36.8581 130.508 37.2968L63.2167 54.5808Z" fill="#E6E6E6"/>
<path d="M126.872 54.8145L92.9113 63.5376C92.6144 63.6203 92.2971 63.5874 92.0235 63.4456C91.75 63.3039 91.5405 63.0637 91.4376 62.7738C91.3897 62.6223 91.3732 62.4627 91.3892 62.3047C91.4052 62.1467 91.4532 61.9935 91.5305 61.8547C91.6077 61.7158 91.7125 61.5941 91.8384 61.4969C91.9643 61.3998 92.1088 61.3293 92.2629 61.2897L126.833 52.4102C128.229 53.1162 127.862 54.5603 126.872 54.8147L126.872 54.8145Z" fill="#F2F2F2"/>
<path d="M128.405 60.7599L94.4444 69.4829C94.1475 69.5656 93.8302 69.5327 93.5567 69.3909C93.2831 69.2492 93.0737 69.009 92.9708 68.7191C92.9229 68.5676 92.9064 68.408 92.9224 68.25C92.9384 68.092 92.9864 67.9388 93.0637 67.8C93.1409 67.6611 93.2456 67.5394 93.3716 67.4422C93.4975 67.3451 93.642 67.2746 93.7961 67.235L128.366 58.3555C129.763 59.0615 129.395 60.5056 128.405 60.76L128.405 60.7599Z" fill="#F2F2F2"/>
<path d="M87.9762 74.7517L77.6116 77.4139C77.2731 77.5004 76.914 77.4495 76.6131 77.2722C76.3122 77.0949 76.0941 76.8057 76.0067 76.4681L72.8582 64.2638C72.7714 63.926 72.8225 63.5677 73.0002 63.2674C73.1779 62.9672 73.4677 62.7496 73.806 62.6623L84.1706 60.0001C84.5091 59.9137 84.8681 59.9647 85.169 60.142C85.4698 60.3193 85.688 60.6084 85.7755 60.9459L88.924 73.1502C89.0107 73.488 88.9597 73.8463 88.782 74.1466C88.6043 74.4468 88.3145 74.6644 87.9762 74.7517V74.7517Z" fill="#E6E6E6"/>
<path d="M131.446 72.9553L79.6158 86.2682C79.3189 86.3509 79.0016 86.3181 78.7281 86.1763C78.4545 86.0345 78.2451 85.7944 78.1422 85.5044C78.0943 85.353 78.0778 85.1934 78.0938 85.0353C78.1098 84.8773 78.1578 84.7242 78.235 84.5853C78.3123 84.4464 78.417 84.3247 78.543 84.2276C78.6689 84.1304 78.8133 84.0599 78.9675 84.0203L131.408 70.5508C132.804 71.2568 132.437 72.7009 131.446 72.9553L131.446 72.9553Z" fill="#F2F2F2"/>
<path d="M132.98 78.9006L81.1495 92.2135C80.8526 92.2962 80.5353 92.2634 80.2618 92.1216C79.9882 91.9798 79.7788 91.7397 79.6759 91.4497C79.628 91.2983 79.6115 91.1386 79.6275 90.9806C79.6434 90.8226 79.6915 90.6695 79.7687 90.5306C79.846 90.3917 79.9507 90.27 80.0767 90.1729C80.2026 90.0757 80.347 90.0052 80.5012 89.9656L132.941 76.4961C134.338 77.2021 133.97 78.6462 132.98 78.9006V78.9006Z" fill="#F2F2F2"/>
<path d="M134.513 84.842L82.6823 98.1549C82.3854 98.2376 82.068 98.2048 81.7945 98.063C81.5209 97.9212 81.3115 97.6811 81.2086 97.3911C81.1607 97.2397 81.1442 97.0801 81.1602 96.9221C81.1762 96.764 81.2242 96.6109 81.3014 96.472C81.3787 96.3331 81.4835 96.2114 81.6094 96.1143C81.7353 96.0172 81.8798 95.9466 82.0339 95.907L134.474 82.4375C135.871 83.1435 135.503 84.5876 134.513 84.842Z" fill="#F2F2F2"/>
<path d="M136.047 90.7873L84.216 104.1C83.919 104.183 83.6018 104.15 83.3282 104.008C83.0546 103.867 82.8452 103.626 82.7423 103.336C82.6944 103.185 82.6779 103.025 82.6939 102.867C82.7099 102.709 82.7579 102.556 82.8351 102.417C82.9124 102.278 83.0171 102.157 83.1431 102.06C83.269 101.962 83.4135 101.892 83.5676 101.852L136.008 88.3828C137.404 89.0888 137.037 90.533 136.047 90.7873L136.047 90.7873Z" fill="#F2F2F2"/>
<path d="M137.58 96.7287L85.7491 110.042C85.4522 110.124 85.1349 110.091 84.8614 109.95C84.5878 109.808 84.3784 109.568 84.2755 109.278C84.2276 109.126 84.2111 108.967 84.2271 108.809C84.2431 108.651 84.2911 108.498 84.3683 108.359C84.4456 108.22 84.5503 108.098 84.6763 108.001C84.8022 107.904 84.9466 107.833 85.1008 107.794L137.541 94.3242C138.937 95.0303 138.57 96.4743 137.58 96.7287Z" fill="#F2F2F2"/>
<path d="M82.8418 151.415C82.6534 151.464 82.4542 151.45 82.2743 151.376L82.2631 151.371L79.9063 150.374C79.7969 150.328 79.6977 150.261 79.6144 150.176C79.5311 150.092 79.4653 149.992 79.4208 149.882C79.3763 149.772 79.354 149.655 79.355 149.536C79.3561 149.418 79.3805 149.3 79.427 149.191C79.4735 149.082 79.5411 148.983 79.6259 148.9C79.7107 148.818 79.811 148.752 79.9212 148.708C80.0314 148.664 80.1493 148.641 80.268 148.643C80.3868 148.644 80.5042 148.669 80.6134 148.715L82.1406 149.363L84.1418 144.666C84.1882 144.557 84.2557 144.458 84.3403 144.375C84.4249 144.292 84.5251 144.227 84.6351 144.183C84.7451 144.138 84.8628 144.116 84.9814 144.117C85.1 144.118 85.2172 144.143 85.3263 144.189L85.3266 144.189L85.3146 144.22L85.3271 144.189C85.5474 144.283 85.7214 144.46 85.811 144.682C85.9005 144.903 85.8983 145.151 85.8048 145.371L83.4503 150.894C83.3958 151.022 83.3125 151.135 83.2071 151.225C83.1016 151.315 82.9768 151.38 82.8423 151.414L82.8418 151.415Z" fill="white"/>
<path d="M227.819 210.969H112.902C109.005 210.964 105.269 209.418 102.513 206.668C99.7575 203.919 98.2075 200.191 98.2031 196.302V61.6354C98.2075 57.7469 99.7575 54.019 102.513 51.2694C105.269 48.5198 109.005 46.9731 112.902 46.9688H219.813L242.517 65.026V196.302C242.513 200.191 240.963 203.919 238.207 206.668C235.452 209.418 231.716 210.964 227.819 210.969Z" fill="#E6E6E6"/>
<path d="M112.902 51.1895C110.127 51.1926 107.466 52.294 105.504 54.252C103.541 56.21 102.438 58.8648 102.435 61.6339V196.301C102.438 199.07 103.541 201.724 105.504 203.682C107.466 205.64 110.127 206.742 112.902 206.745H227.819C230.594 206.742 233.255 205.64 235.217 203.682C237.179 201.724 238.283 199.07 238.286 196.301V67.0586L218.333 51.1895H112.902Z" fill="white"/>
<path d="M205.467 90.3477H153.147C152.498 90.3477 151.875 90.0903 151.416 89.6323C150.957 89.1743 150.699 88.553 150.699 87.9053C150.699 87.2575 150.957 86.6363 151.416 86.1782C151.875 85.7202 152.498 85.4629 153.147 85.4629H205.467C206.116 85.4629 206.739 85.7202 207.198 86.1782C207.657 86.6363 207.915 87.2575 207.915 87.9053C207.915 88.553 207.657 89.1743 207.198 89.6323C206.739 90.0903 206.116 90.3477 205.467 90.3477Z" fill="#B76E79"/>
<path d="M215.564 98.5898H153.147C152.498 98.589 151.877 98.3313 151.418 97.8733C150.96 97.4154 150.703 96.7946 150.703 96.1475C150.703 95.5003 150.96 94.8795 151.418 94.4216C151.877 93.9636 152.498 93.706 153.147 93.7051H215.564C215.886 93.7046 216.204 93.7675 216.502 93.89C216.799 94.0126 217.069 94.1924 217.297 94.4193C217.525 94.6461 217.705 94.9155 217.828 95.212C217.952 95.5086 218.015 95.8264 218.015 96.1475C218.015 96.4685 217.952 96.7863 217.828 97.0829C217.705 97.3794 217.525 97.6488 217.297 97.8757C217.069 98.1025 216.799 98.2823 216.502 98.4049C216.204 98.5274 215.886 98.5903 215.564 98.5898Z" fill="#B76E79"/>
<path d="M205.468 122.402H153.149C152.5 122.402 151.878 122.66 151.419 123.118C150.96 123.576 150.702 124.197 150.702 124.845C150.702 125.492 150.96 126.113 151.419 126.571C151.878 127.029 152.5 127.287 153.149 127.287H205.468C206.117 127.287 206.739 127.029 207.198 126.571C207.657 126.113 207.915 125.492 207.915 124.845C207.915 124.197 207.657 123.576 207.198 123.118C206.739 122.66 206.117 122.402 205.468 122.402Z" fill="#CCCCCC"/>
<path d="M215.565 130.646H153.149C152.5 130.646 151.878 130.904 151.419 131.362C150.96 131.82 150.702 132.441 150.702 133.089C150.702 133.736 150.96 134.358 151.419 134.816C151.878 135.274 152.5 135.531 153.149 135.531H215.565C216.214 135.531 216.837 135.274 217.296 134.816C217.755 134.358 218.013 133.736 218.013 133.089C218.013 132.441 217.755 131.82 217.296 131.362C216.837 130.904 216.214 130.646 215.565 130.646Z" fill="#CCCCCC"/>
<path d="M211.091 122.223H181.765C181.401 122.223 181.052 122.48 180.795 122.939C180.538 123.397 180.393 124.019 180.393 124.667C180.393 125.315 180.538 125.937 180.795 126.396C181.052 126.854 181.401 127.112 181.765 127.112H211.091C211.455 127.112 211.804 126.854 212.061 126.396C212.318 125.937 212.463 125.315 212.463 124.667C212.463 124.019 212.318 123.397 212.061 122.939C211.804 122.48 211.455 122.223 211.091 122.223Z" fill="#B76E79"/>
<path d="M216.447 130.666H181.754C181.393 130.666 181.047 130.924 180.792 131.382C180.536 131.84 180.393 132.462 180.393 133.11C180.393 133.759 180.536 134.381 180.792 134.839C181.047 135.297 181.393 135.555 181.754 135.555H216.447C216.808 135.555 217.154 135.297 217.409 134.839C217.665 134.381 217.808 133.759 217.808 133.11C217.808 132.462 217.665 131.84 217.409 131.382C217.154 130.924 216.808 130.666 216.447 130.666Z" fill="#B76E79"/>
<path d="M205.467 164.23H153.147C152.498 164.23 151.875 163.973 151.416 163.515C150.957 163.057 150.699 162.436 150.699 161.788C150.699 161.14 150.957 160.519 151.416 160.061C151.875 159.603 152.498 159.346 153.147 159.346H205.467C206.116 159.346 206.739 159.603 207.198 160.061C207.657 160.519 207.915 161.14 207.915 161.788C207.915 162.436 207.657 163.057 207.198 163.515C206.739 163.973 206.116 164.23 205.467 164.23Z" fill="#CCCCCC"/>
<path d="M215.564 172.473H153.147C152.498 172.472 151.877 172.214 151.418 171.756C150.96 171.298 150.703 170.677 150.703 170.03C150.703 169.383 150.96 168.762 151.418 168.304C151.877 167.846 152.498 167.589 153.147 167.588H215.564C215.886 167.587 216.204 167.65 216.502 167.773C216.799 167.895 217.069 168.075 217.297 168.302C217.525 168.529 217.705 168.798 217.828 169.095C217.952 169.391 218.015 169.709 218.015 170.03C218.015 170.351 217.952 170.669 217.828 170.966C217.705 171.262 217.525 171.532 217.297 171.758C217.069 171.985 216.799 172.165 216.502 172.288C216.204 172.41 215.886 172.473 215.564 172.473Z" fill="#CCCCCC"/>
<path d="M131.36 100.66C136.138 100.66 140.011 96.7946 140.011 92.027C140.011 87.2594 136.138 83.3945 131.36 83.3945C126.582 83.3945 122.708 87.2594 122.708 92.027C122.708 96.7946 126.582 100.66 131.36 100.66Z" fill="#B76E79"/>
<path d="M130.502 95.3193C130.308 95.3197 130.118 95.2568 129.963 95.1403L129.953 95.1331L127.92 93.5812C127.825 93.5092 127.746 93.4194 127.686 93.3169C127.627 93.2143 127.588 93.101 127.572 92.9835C127.557 92.866 127.564 92.7465 127.595 92.632C127.626 92.5175 127.679 92.41 127.751 92.316C127.823 92.2219 127.913 92.1429 128.016 92.0837C128.119 92.0244 128.233 91.986 128.351 91.9706C128.468 91.9552 128.588 91.9631 128.703 91.9939C128.818 92.0247 128.925 92.0779 129.019 92.1502L130.336 93.1579L133.448 89.1068C133.52 89.0129 133.61 88.934 133.713 88.8748C133.816 88.8156 133.929 88.7772 134.047 88.7617C134.164 88.7462 134.284 88.7539 134.398 88.7845C134.513 88.8151 134.62 88.8679 134.714 88.9399L134.715 88.9401L134.695 88.9669L134.715 88.9401C134.905 89.0857 135.029 89.3006 135.061 89.5375C135.092 89.7744 135.028 90.0141 134.882 90.2038L131.222 94.9667C131.137 95.0764 131.028 95.1652 130.904 95.2262C130.779 95.2872 130.642 95.3187 130.503 95.3183L130.502 95.3193Z" fill="white"/>
<path d="M140.9 128.967C140.901 130.1 140.677 131.223 140.243 132.271C139.808 133.318 139.171 134.27 138.368 135.072C137.565 135.874 136.611 136.51 135.561 136.944C134.512 137.378 133.387 137.602 132.25 137.602C132.176 137.604 132.102 137.601 132.028 137.593C130.327 137.55 128.676 137.007 127.283 136.032C125.89 135.057 124.815 133.694 124.195 132.113C123.574 130.532 123.434 128.803 123.793 127.144C124.152 125.484 124.993 123.967 126.212 122.782C127.431 121.597 128.973 120.797 130.645 120.482C132.317 120.167 134.045 120.351 135.613 121.011C137.181 121.671 138.519 122.778 139.459 124.193C140.399 125.608 140.901 127.269 140.9 128.967Z" fill="#CCCCCC"/>
<path d="M283.044 283.077C336.293 283.077 379.46 240.004 379.46 186.871C379.46 133.739 336.293 90.666 283.044 90.666C229.796 90.666 186.629 133.739 186.629 186.871C186.629 240.004 229.796 283.077 283.044 283.077Z" fill="#F2F2F2"/>
<path d="M132.477 137.71C137.255 137.71 141.128 133.845 141.128 129.078C141.128 124.31 137.255 120.445 132.477 120.445C127.699 120.445 123.825 124.31 123.825 129.078C123.825 133.845 127.699 137.71 132.477 137.71Z" fill="#B76E79"/>
<path d="M286.702 296.082C337.233 296.082 378.196 288.585 378.196 279.336C378.196 270.087 337.233 262.59 286.702 262.59C236.172 262.59 195.208 270.087 195.208 279.336C195.208 288.585 236.172 296.082 286.702 296.082Z" fill="#3F3D56"/>
<path d="M131.619 132.37C131.425 132.37 131.235 132.308 131.079 132.191L131.07 132.184L129.036 130.632C128.942 130.56 128.863 130.47 128.803 130.368C128.744 130.265 128.705 130.152 128.689 130.034C128.673 129.917 128.681 129.797 128.712 129.683C128.742 129.568 128.795 129.461 128.868 129.367C128.94 129.273 129.03 129.194 129.133 129.134C129.236 129.075 129.35 129.037 129.467 129.021C129.585 129.006 129.705 129.014 129.82 129.045C129.934 129.076 130.042 129.129 130.136 129.201L131.453 130.209L134.565 126.158C134.637 126.064 134.727 125.985 134.83 125.926C134.932 125.866 135.046 125.828 135.163 125.812C135.281 125.797 135.4 125.805 135.515 125.835C135.63 125.866 135.737 125.919 135.831 125.991L135.831 125.991L135.812 126.018L135.832 125.991C136.022 126.137 136.146 126.351 136.177 126.588C136.209 126.825 136.145 127.065 135.999 127.255L132.339 132.017C132.254 132.127 132.145 132.216 132.02 132.277C131.896 132.338 131.759 132.369 131.62 132.369L131.619 132.37Z" fill="white"/>
<path d="M367.968 278.859C367.874 278.705 365.647 274.994 364.875 267.29C364.167 260.221 364.622 248.307 370.815 231.687C382.546 200.202 368.111 174.798 367.964 174.545L368.676 174.133C368.713 174.197 372.438 180.674 374.638 190.988C377.546 204.661 376.487 218.879 371.586 231.973C359.875 263.405 368.582 278.284 368.671 278.431L367.968 278.859Z" fill="#3F3D56"/>
<path d="M363.381 172.696C366.336 172.696 368.731 170.306 368.731 167.358C368.731 164.41 366.336 162.02 363.381 162.02C360.426 162.02 358.031 164.41 358.031 167.358C358.031 170.306 360.426 172.696 363.381 172.696Z" fill="#3F3D56"/>
<path d="M380.254 192.409C383.209 192.409 385.605 190.019 385.605 187.071C385.605 184.123 383.209 181.732 380.254 181.732C377.3 181.732 374.904 184.123 374.904 187.071C374.904 190.019 377.3 192.409 380.254 192.409Z" fill="#3F3D56"/>
<path d="M368.731 205.55C371.686 205.55 374.081 203.16 374.081 200.212C374.081 197.263 371.686 194.873 368.731 194.873C365.776 194.873 363.381 197.263 363.381 200.212C363.381 203.16 365.776 205.55 368.731 205.55Z" fill="#B76E79"/>
<path d="M382.724 216.638C385.679 216.638 388.074 214.248 388.074 211.299C388.074 208.351 385.679 205.961 382.724 205.961C379.769 205.961 377.374 208.351 377.374 211.299C377.374 214.248 379.769 216.638 382.724 216.638Z" fill="#B76E79"/>
<path d="M364.615 233.884C367.57 233.884 369.965 231.494 369.965 228.546C369.965 225.597 367.57 223.207 364.615 223.207C361.66 223.207 359.265 225.597 359.265 228.546C359.265 231.494 361.66 233.884 364.615 233.884Z" fill="#3F3D56"/>
<path d="M371.2 279.055C371.2 279.055 365.85 265.914 381.901 256.059L371.2 279.055Z" fill="#3F3D56"/>
<path d="M364.62 278.818C364.62 278.818 362.185 264.844 343.34 264.964L364.62 278.818Z" fill="#3F3D56"/>
<path d="M131.36 174.542C136.138 174.542 140.011 170.677 140.011 165.91C140.011 161.142 136.138 157.277 131.36 157.277C126.582 157.277 122.708 161.142 122.708 165.91C122.708 170.677 126.582 174.542 131.36 174.542Z" fill="#CCCCCC"/>
<path d="M242.075 65.6058H224.29C222.992 65.6058 221.747 65.0911 220.829 64.1751C219.911 63.259 219.395 62.0165 219.395 60.721V47.6139C219.395 47.5565 219.411 47.5003 219.442 47.4517C219.472 47.4031 219.516 47.364 219.568 47.339C219.62 47.3141 219.677 47.3041 219.735 47.3104C219.792 47.3167 219.846 47.339 219.891 47.3746L242.265 65.0612C242.315 65.1005 242.352 65.1544 242.369 65.2152C242.387 65.2761 242.385 65.341 242.364 65.4008C242.344 65.4607 242.304 65.5126 242.253 65.5493C242.201 65.5861 242.139 65.6058 242.075 65.6058Z" fill="#CCCCCC"/>
<path d="M249.351 156.326C248.981 156.93 248.387 157.363 247.698 157.529C247.009 157.696 246.282 157.582 245.677 157.214L214.496 138.236C214.197 138.054 213.936 137.814 213.729 137.532C213.522 137.249 213.373 136.928 213.29 136.588C213.208 136.247 213.193 135.894 213.247 135.548C213.302 135.202 213.424 134.87 213.606 134.571C213.789 134.272 214.029 134.012 214.312 133.805C214.596 133.599 214.917 133.45 215.259 133.368C215.6 133.285 215.954 133.271 216.3 133.325C216.647 133.379 216.98 133.501 217.279 133.683L248.461 152.661C249.066 153.029 249.499 153.622 249.666 154.31C249.833 154.997 249.72 155.722 249.351 156.326Z" fill="#3F3D56"/>
<path d="M218.169 137.349C215.967 140.951 212.745 143.82 208.908 145.595C205.072 147.369 200.794 147.969 196.616 147.317C192.438 146.666 188.548 144.793 185.437 141.935C182.326 139.077 180.134 135.363 179.138 131.263C178.143 127.162 178.388 122.859 179.843 118.897C181.299 114.936 183.899 111.494 187.315 109.007C190.73 106.519 194.809 105.099 199.034 104.924C203.258 104.75 207.44 105.83 211.05 108.027C215.886 110.978 219.351 115.722 220.686 121.219C222.021 126.716 221.116 132.517 218.169 137.349ZM186.228 117.908C184.576 120.609 183.765 123.739 183.896 126.901C184.027 130.063 185.095 133.115 186.964 135.671C188.833 138.227 191.421 140.173 194.398 141.262C197.376 142.351 200.61 142.535 203.693 141.79C206.775 141.045 209.566 139.404 211.714 137.076C213.862 134.748 215.27 131.836 215.76 128.71C216.249 125.583 215.799 122.382 214.465 119.511C213.131 116.64 210.974 114.228 208.267 112.58C204.635 110.375 200.275 109.698 196.143 110.697C192.012 111.695 188.446 114.289 186.228 117.908Z" fill="#3F3D56"/>
<path d="M286.67 129.66C292.712 129.66 297.61 124.773 297.61 118.744C297.61 112.715 292.712 107.828 286.67 107.828C280.628 107.828 275.73 112.715 275.73 118.744C275.73 124.773 280.628 129.66 286.67 129.66Z" fill="#A0616A"/>
<path d="M285.963 179.94C285.752 179.284 285.683 178.591 285.759 177.907C285.835 177.222 286.055 176.561 286.405 175.967C286.755 175.373 287.227 174.86 287.79 174.461C288.352 174.062 288.993 173.786 289.67 173.651C289.885 173.609 290.102 173.582 290.32 173.571L301.844 155.116L291.318 145.131C290.916 144.749 290.593 144.292 290.369 143.785C290.145 143.279 290.024 142.733 290.012 142.179C290 141.626 290.099 141.075 290.302 140.56C290.505 140.045 290.808 139.574 291.194 139.177C291.58 138.779 292.041 138.461 292.551 138.242C293.06 138.023 293.608 137.907 294.163 137.901C294.718 137.894 295.269 137.998 295.784 138.205C296.298 138.412 296.767 138.719 297.162 139.107L311.695 153.407L311.725 153.442C312.174 154.125 312.391 154.934 312.344 155.749C312.296 156.565 311.986 157.343 311.46 157.969L295.314 177.024C295.362 177.176 295.402 177.331 295.434 177.488C295.569 178.164 295.559 178.86 295.406 179.532C295.252 180.204 294.958 180.836 294.543 181.386C294.128 181.936 293.601 182.393 292.996 182.726C292.392 183.059 291.723 183.26 291.035 183.318C290.896 183.33 290.758 183.336 290.62 183.336C289.584 183.332 288.577 183.001 287.74 182.391C286.904 181.781 286.282 180.924 285.963 179.94Z" fill="#A0616A"/>
<path d="M268.652 270.668L263.191 270.667L260.594 249.65L268.653 249.651L268.652 270.668Z" fill="#A0616A"/>
<path d="M270.045 275.948L252.438 275.947V275.725C252.437 274.827 252.615 273.938 252.959 273.108C253.304 272.278 253.808 271.525 254.445 270.89C255.081 270.255 255.837 269.751 256.668 269.407C257.5 269.064 258.391 268.887 259.291 268.887H259.291L270.045 268.887L270.045 275.948Z" fill="#2F2E41"/>
<path d="M322.929 263.132L318.237 265.92L305.229 249.188L312.153 245.074L322.929 263.132Z" fill="#A0616A"/>
<path d="M326.833 266.961L311.704 275.949L311.59 275.759C311.13 274.987 310.826 274.132 310.697 273.244C310.567 272.355 310.615 271.45 310.836 270.579C311.057 269.709 311.448 268.89 311.986 268.17C312.524 267.451 313.199 266.844 313.973 266.384L313.973 266.384L323.213 260.895L326.833 266.961Z" fill="#2F2E41"/>
<path d="M259.905 261.411C256.247 218.431 254.071 178.502 267.443 162.214L267.547 162.088L290.051 171.071L290.088 171.151C290.164 171.316 297.649 187.743 295.903 198.793L301.454 224.272L319.554 254.512C319.7 254.756 319.792 255.027 319.824 255.309C319.857 255.591 319.829 255.876 319.743 256.146C319.656 256.416 319.513 256.665 319.323 256.876C319.133 257.087 318.9 257.255 318.64 257.369L310.775 260.822C310.331 261.015 309.832 261.042 309.37 260.898C308.908 260.754 308.514 260.448 308.259 260.038L288.57 228.002L277.449 203.43C277.388 203.297 277.285 203.187 277.156 203.118C277.027 203.048 276.879 203.023 276.734 203.047C276.589 203.07 276.456 203.14 276.355 203.246C276.254 203.352 276.191 203.489 276.175 203.634L270.011 261.455C269.959 261.946 269.727 262.401 269.359 262.732C268.991 263.062 268.513 263.244 268.018 263.244H261.903C261.401 263.241 260.918 263.051 260.549 262.713C260.18 262.374 259.95 261.91 259.905 261.411Z" fill="#2F2E41"/>
<path d="M267.519 162.554L267.412 162.503L267.396 162.386C266.555 156.514 267.55 149.991 270.353 142.997C271.735 139.573 274.303 136.759 277.59 135.067C280.876 133.375 284.663 132.917 288.26 133.778C290.331 134.287 292.274 135.22 293.966 136.518C295.657 137.816 297.06 139.45 298.086 141.317C299.098 143.165 299.715 145.203 299.896 147.301C300.078 149.399 299.822 151.512 299.143 153.506C295.609 163.817 291.024 173.465 290.979 173.561L290.883 173.762L267.519 162.554Z" fill="#B76E79"/>
<path d="M242.966 147.932C243.507 147.505 244.134 147.197 244.803 147.028C245.472 146.86 246.17 146.834 246.85 146.953C247.53 147.073 248.177 147.334 248.749 147.72C249.321 148.106 249.804 148.608 250.168 149.194C250.282 149.38 250.383 149.573 250.47 149.773L271.83 154.081L277.517 140.746C277.734 140.237 278.051 139.775 278.448 139.388C278.845 139.001 279.315 138.697 279.83 138.492C280.346 138.287 280.897 138.187 281.452 138.196C282.007 138.205 282.554 138.324 283.063 138.545C283.572 138.767 284.031 139.086 284.415 139.486C284.799 139.886 285.1 140.357 285.301 140.874C285.501 141.39 285.597 141.941 285.583 142.495C285.568 143.048 285.444 143.593 285.218 144.099L276.884 162.69L276.861 162.73C276.378 163.389 275.694 163.875 274.912 164.116C274.13 164.357 273.291 164.34 272.519 164.067L248.978 155.649C248.851 155.748 248.72 155.84 248.584 155.925C247.997 156.287 247.34 156.522 246.655 156.614C245.971 156.706 245.275 156.652 244.613 156.457C243.951 156.261 243.338 155.929 242.813 155.48C242.289 155.032 241.866 154.478 241.571 153.855C241.511 153.729 241.457 153.602 241.409 153.473C241.05 152.504 241.007 151.446 241.287 150.451C241.567 149.456 242.154 148.574 242.966 147.932Z" fill="#A0616A"/>
<path d="M326.191 130.433C325.138 128.57 323.602 126.863 321.573 126.175C318.952 125.285 316.113 126.232 313.419 126.865C311.342 127.352 309.173 127.65 307.08 127.239C304.987 126.828 302.969 125.612 302.017 123.708C300.616 120.906 301.796 117.566 301.711 114.436C301.667 112.732 301.236 111.06 300.451 109.547C299.665 108.034 298.546 106.718 297.177 105.699C295.807 104.68 294.224 103.984 292.547 103.665C290.869 103.345 289.14 103.409 287.491 103.853C284.911 103.11 282.574 103.041 280.978 105.021C278.97 105.021 277.044 105.817 275.624 107.234C274.204 108.651 273.406 110.573 273.406 112.576H280.647C280.303 114.419 280.696 116.322 281.74 117.879C283.018 119.753 285.24 121.108 285.668 123.334C286.083 125.491 284.613 127.538 283.072 129.106C281.531 130.674 279.742 132.228 279.261 134.371C278.966 135.998 279.301 137.676 280.198 139.067C281.093 140.44 282.204 141.661 283.488 142.682C289.272 147.627 296.146 151.136 303.548 152.923C308.761 154.175 314.464 154.5 319.303 152.196C321.239 151.274 322.964 149.965 324.372 148.35C325.78 146.735 326.839 144.848 327.485 142.807C328.131 140.766 328.35 138.615 328.127 136.486C327.905 134.357 327.246 132.297 326.191 130.433Z" fill="#2F2E41"/>
</g>
<defs>
<clipPath id="clip0_400_42538">
<rect width="408" height="296" fill="white"/>
</clipPath>
</defs>
</svg>
