<svg width="24" height="24" viewBox="0 0 24 24" fill="none" xmlns="http://www.w3.org/2000/svg">
<path d="M12 24C18.6274 24 24 18.6274 24 12C24 5.37258 18.6274 0 12 0C5.37258 0 0 5.37258 0 12C0 18.6274 5.37258 24 12 24Z" fill="#FFD93B"/>
<path d="M11.999 19.7137C8.48976 19.7137 5.432 17.3369 4.5635 13.935C4.49525 13.6672 4.6565 13.3949 4.92425 13.3267C5.1905 13.2569 5.4635 13.4197 5.53175 13.6875C6.28776 16.647 8.94651 18.7139 11.9983 18.7139C15.05 18.7139 17.7095 16.647 18.4648 13.6875C18.5323 13.4197 18.8045 13.2569 19.073 13.3267C19.3408 13.3949 19.502 13.6672 19.4338 13.935C18.566 17.3369 15.5083 19.7137 11.999 19.7137Z" fill="#3E4347"/>
<path d="M23.9985 11.9994C23.9985 18.6294 18.6247 23.9994 11.9985 23.9994C8.22597 23.9994 4.85848 22.2594 2.65723 19.5332C4.71598 21.1982 7.33722 22.1919 10.191 22.1919C16.8172 22.1919 22.191 16.8219 22.191 10.192C22.191 7.3382 21.1972 4.71695 19.5322 2.6582C22.2547 4.85945 23.9985 8.22695 23.9985 11.9994Z" fill="#F4C534"/>
<path d="M8.12416 12.5136C9.13981 12.5136 9.96316 11.5351 9.96316 10.3281C9.96316 9.12106 9.13981 8.14258 8.12416 8.14258C7.1085 8.14258 6.28516 9.12106 6.28516 10.3281C6.28516 11.5351 7.1085 12.5136 8.12416 12.5136Z" fill="#3E4347"/>
<path d="M8.95405 9.85761C8.8108 9.97011 8.5753 9.91461 8.42455 9.73161C8.2738 9.54861 8.2663 9.30336 8.40955 9.19086C8.55205 9.07311 8.7883 9.12861 8.9383 9.31161C9.0898 9.49986 9.0913 9.74061 8.95405 9.85761Z" fill="#5A5F63"/>
<path d="M15.8771 12.5136C16.8927 12.5136 17.7161 11.5351 17.7161 10.3281C17.7161 9.12106 16.8927 8.14258 15.8771 8.14258C14.8614 8.14258 14.0381 9.12106 14.0381 10.3281C14.0381 11.5351 14.8614 12.5136 15.8771 12.5136Z" fill="#3E4347"/>
<path d="M16.707 9.85761C16.5637 9.97011 16.3282 9.91461 16.1775 9.73161C16.0267 9.54861 16.0192 9.30336 16.1625 9.19086C16.305 9.07311 16.5405 9.12861 16.6912 9.31161C16.8427 9.49986 16.8442 9.74061 16.707 9.85761Z" fill="#5A5F63"/>
</svg>
