<svg width="84" height="60" viewBox="0 0 84 60" fill="none" xmlns="http://www.w3.org/2000/svg">
<path d="M48.8801 41.3099C52.6781 37.9235 56.0372 34.8803 59.1521 32.0002C62.9111 28.5295 64.9103 23.8717 64.7825 18.8822C64.6549 13.9039 62.317 9.16737 58.3748 5.89344C53.2942 1.67454 45.1154 -0.0580663 38.3025 5.57282C36.8478 6.77656 33.9884 9.34743 33.9606 9.36997C33.6774 9.62308 33.2942 9.75231 32.9222 9.71856C32.5447 9.68482 32.1951 9.4993 31.9563 9.20112C31.8175 9.02682 31.6735 8.8411 31.5401 8.67791C27.0038 3.21021 21.8783 1.1572 15.8872 2.39469C9.03548 3.81223 4.61052 7.91867 2.73936 14.6126C0.884839 21.2391 2.52243 27.095 7.61401 32.0226C10.5791 34.8972 13.5722 37.5859 16.1041 39.836C21.8842 44.9718 27.1036 49.5957 32.4728 54.1915C32.7394 54.4166 32.961 54.6192 33.1554 54.7879C33.2331 54.8554 33.3108 54.9284 33.3886 54.9959C33.4773 54.9172 33.5775 54.8217 33.6718 54.7373C33.8606 54.5629 34.0772 54.3659 34.3327 54.1466L40.546 48.6844" stroke="#B76E79" stroke-width="2.5"/>
<path d="M61.8348 23.1238C62.1847 22.4375 61.918 21.5881 61.2349 21.2336C56.6209 18.8317 51.979 19.1467 47.8146 22.1505C43.6948 25.1207 41.874 29.4577 42.5625 34.6892C42.9066 37.3387 43.3508 39.9543 43.6951 41.9345C44.5335 46.7327 45.294 51.0584 46.1324 55.4068L46.2266 55.9243C46.4875 57.4543 47.0488 58 48.4646 58C48.5812 58 48.7089 58.0001 48.8422 57.9888L50.1971 57.9325C56.6879 57.6794 63.3896 57.415 69.986 56.9931C73.7506 56.7568 77.1875 54.9118 79.4141 51.9473C81.6629 48.949 82.501 45.0508 81.707 41.2594C80.4855 35.4204 75.6661 31.3702 69.9582 31.3702C69.9249 31.3702 69.8919 31.3702 69.8585 31.3702C68.637 31.3814 66.1937 31.5053 66.1937 31.5053" stroke="#B76E79" stroke-width="2.5" stroke-linecap="round"/>
</svg>
