<svg width="1359" height="1526" viewBox="0 0 1359 1526" fill="none" xmlns="http://www.w3.org/2000/svg">
<path opacity="0.23" fill-rule="evenodd" clip-rule="evenodd" d="M159.869 1213.57C159.455 1214.27 159.029 1214.74 158.564 1215.12C157.759 1215.76 156.733 1216.16 155.328 1216.44C153.233 1216.87 150.472 1216.87 147.495 1217.5C146.007 1217.82 144.44 1218.34 142.954 1219.28C141.467 1220.2 140.11 1221.57 139.094 1223.32L139.104 1223.3L139.094 1223.32C138.314 1224.65 137.821 1226.04 137.604 1227.4C137.219 1229.8 137.662 1232.02 138.291 1233.91C139.259 1236.76 140.591 1239.13 141.185 1241.12C141.49 1242.12 141.627 1242.97 141.589 1243.75C141.548 1244.53 141.363 1245.27 140.827 1246.21C140.412 1246.91 139.986 1247.38 139.521 1247.75C138.716 1248.4 137.69 1248.8 136.285 1249.08C134.192 1249.51 131.43 1249.51 128.453 1250.14C126.966 1250.46 125.397 1250.98 123.911 1251.92C122.425 1252.84 121.066 1254.2 120.051 1255.96C119.272 1257.29 118.78 1258.68 118.564 1260.04C118.176 1262.44 118.621 1264.66 119.25 1266.55C120.213 1269.4 121.547 1271.77 122.139 1273.77C122.445 1274.76 122.584 1275.62 122.546 1276.4C122.501 1277.18 122.318 1277.92 121.782 1278.85C121.368 1279.56 120.941 1280.03 120.475 1280.4C119.669 1281.05 118.643 1281.45 117.237 1281.73C115.143 1282.16 112.38 1282.16 109.402 1282.79C107.916 1283.12 106.347 1283.63 104.861 1284.57C103.373 1285.5 102.015 1286.86 101 1288.62L106.628 1291.9C107.043 1291.19 107.47 1290.72 107.935 1290.35C108.74 1289.7 109.768 1289.3 111.172 1289.02C113.268 1288.59 116.03 1288.59 119.008 1287.96C120.495 1287.63 122.063 1287.12 123.55 1286.18C125.037 1285.25 126.394 1283.89 127.41 1282.13C128.19 1280.8 128.681 1279.41 128.898 1278.05C129.286 1275.65 128.841 1273.44 128.212 1271.54C127.248 1268.69 125.915 1266.32 125.322 1264.33C125.017 1263.33 124.878 1262.48 124.915 1261.7C124.96 1260.91 125.143 1260.17 125.679 1259.24C126.094 1258.53 126.52 1258.07 126.985 1257.69C127.788 1257.05 128.816 1256.65 130.221 1256.37C132.314 1255.94 135.076 1255.94 138.053 1255.31C139.54 1254.98 141.109 1254.47 142.595 1253.53C144.081 1252.6 145.44 1251.24 146.455 1249.49C147.234 1248.16 147.725 1246.77 147.942 1245.4C148.329 1243 147.884 1240.79 147.255 1238.9C146.291 1236.05 144.958 1233.68 144.365 1231.68C144.059 1230.69 143.92 1229.83 143.957 1229.06C144.002 1228.27 144.185 1227.53 144.722 1226.6L142.079 1225.06L144.712 1226.62L144.722 1226.6L142.079 1225.06L144.712 1226.62L144.722 1226.6C145.134 1225.9 145.561 1225.43 146.025 1225.05C146.83 1224.41 147.858 1224.01 149.262 1223.73C151.357 1223.3 154.119 1223.3 157.096 1222.67C158.582 1222.35 160.15 1221.83 161.637 1220.89C163.124 1219.96 164.48 1218.6 165.497 1216.85L159.869 1213.57Z" fill="#5ABFC6"/>
<g opacity="0.2" clip-path="url(#clip0)">
<path fill-rule="evenodd" clip-rule="evenodd" d="M1184.89 335.098C1237.68 350.453 1357.6 312.158 1282.64 254.405C1260.13 236.818 1243.08 205.546 1211.4 226.95C1200.82 234.33 1149.96 324.756 1184.89 335.098Z" fill="#6FCF97"/>
</g>
<path opacity="0.1" d="M106.36 13.3324C97.9548 9.68055 88.604 9.71239 80.0282 13.4231C73.6179 16.1968 68.6108 20.7325 65.1453 26.9039C63.397 30.0187 62.0856 33.4713 61.2295 37.2092C57.92 35.2747 54.5043 33.8665 51.0362 33.0089C44.1661 31.3096 37.4321 31.8543 31.0219 34.628C22.446 38.3387 16.0204 45.1333 12.9283 53.7599C9.87373 62.2851 10.3315 71.9281 14.2192 80.9129C18.2207 90.1606 25.3835 97.1113 36.7609 102.788C46.9385 107.866 60.1076 111.793 75.3576 116.339C80.565 117.893 86.4677 119.653 92.639 121.578C94.2701 122.089 96.0383 121.993 97.6192 121.309C99.1994 120.625 100.48 119.401 101.224 117.865C104.045 112.048 106.805 106.538 109.239 101.676C116.363 87.4499 122.517 75.1632 125.783 64.2675C129.434 52.0888 129.271 42.1096 125.269 32.8611C121.382 23.8771 114.666 16.9419 106.36 13.3324Z" fill="#FA4242"/>
<path opacity="0.23" fill-rule="evenodd" clip-rule="evenodd" d="M1282.87 341.568C1282.46 342.273 1282.03 342.74 1281.56 343.115C1280.76 343.758 1279.73 344.16 1278.33 344.438C1276.23 344.87 1273.47 344.867 1270.49 345.496C1269.01 345.822 1267.44 346.34 1265.95 347.276C1264.47 348.204 1263.11 349.565 1262.09 351.319L1262.1 351.302L1262.09 351.319C1261.31 352.652 1260.82 354.039 1260.6 355.404C1260.22 357.805 1260.66 360.015 1261.29 361.911C1262.26 364.756 1263.59 367.132 1264.18 369.123C1264.49 370.116 1264.63 370.971 1264.59 371.752C1264.55 372.535 1264.36 373.274 1263.83 374.205C1263.41 374.912 1262.99 375.379 1262.52 375.754C1261.72 376.397 1260.69 376.799 1259.29 377.077C1257.19 377.511 1254.43 377.507 1251.45 378.136C1249.97 378.462 1248.4 378.979 1246.91 379.915C1245.43 380.845 1244.07 382.205 1243.05 383.958C1242.27 385.29 1241.78 386.68 1241.56 388.042C1241.18 390.444 1241.62 392.656 1242.25 394.551C1243.21 397.399 1244.55 399.773 1245.14 401.766C1245.44 402.759 1245.58 403.615 1245.55 404.396C1245.5 405.18 1245.32 405.92 1244.78 406.851C1244.37 407.558 1243.94 408.027 1243.48 408.402C1242.67 409.047 1241.64 409.449 1240.24 409.729C1238.14 410.164 1235.38 410.16 1232.4 410.79C1230.92 411.118 1229.35 411.634 1227.86 412.57C1226.37 413.501 1225.02 414.862 1224 416.615L1229.63 419.898C1230.04 419.192 1230.47 418.722 1230.94 418.347C1231.74 417.705 1232.77 417.301 1234.17 417.023C1236.27 416.588 1239.03 416.592 1242.01 415.961C1243.5 415.635 1245.06 415.115 1246.55 414.179C1248.04 413.251 1249.39 411.89 1250.41 410.134C1251.19 408.803 1251.68 407.413 1251.9 406.05C1252.29 403.648 1251.84 401.437 1251.21 399.541C1250.25 396.693 1248.91 394.32 1248.32 392.327C1248.02 391.334 1247.88 390.477 1247.92 389.697C1247.96 388.913 1248.14 388.172 1248.68 387.241C1249.09 386.535 1249.52 386.067 1249.99 385.692C1250.79 385.048 1251.82 384.647 1253.22 384.369C1255.31 383.936 1258.08 383.939 1261.05 383.31C1262.54 382.984 1264.11 382.467 1265.6 381.531C1267.08 380.602 1268.44 379.242 1269.45 377.488C1270.23 376.157 1270.72 374.769 1270.94 373.404C1271.33 371.004 1270.88 368.793 1270.26 366.897C1269.29 364.051 1267.96 361.676 1267.36 359.685C1267.06 358.691 1266.92 357.835 1266.96 357.056C1267 356.272 1267.18 355.532 1267.72 354.602L1265.08 353.06L1267.71 354.616L1267.72 354.602L1265.08 353.06L1267.71 354.616L1267.72 354.602C1268.13 353.896 1268.56 353.427 1269.03 353.054C1269.83 352.411 1270.86 352.007 1272.26 351.729C1274.36 351.297 1277.12 351.3 1280.1 350.671C1281.58 350.347 1283.15 349.827 1284.64 348.891C1286.12 347.962 1287.48 346.603 1288.5 344.851L1282.87 341.568Z" fill="#5ABFC6"/>
<path opacity="0.05" d="M1359 1506C1314.26 1506 1278 1469.74 1278 1425C1278 1380.27 1314.26 1344 1359 1344" stroke="#8A6E4B" stroke-width="40"/>
<defs>
<clipPath id="clip0">
<rect width="132.006" height="120.146" fill="white" transform="translate(1302.65 345.464) rotate(-175.813)"/>
</clipPath>
</defs>
</svg>
