<svg width="24" height="24" viewBox="0 0 24 24" fill="none" xmlns="http://www.w3.org/2000/svg">
<path d="M21.7425 9.69C21.7425 9.5775 21.705 9.4725 21.6525 9.3825L21.1875 7.8375L21.18 7.83L19.5 2.28H4.5L2.8275 7.8075L2.82 7.815L2.4975 8.895L2.49 8.9025L2.3475 9.3825C2.295 9.4725 2.2575 9.5775 2.2575 9.69L2.25 9.7125V9.75C2.25 9.9225 2.31 10.0875 2.4225 10.215C2.4375 10.2375 2.4525 10.26 2.475 10.2825C2.61 10.4175 2.7975 10.5 3 10.5C3.135 10.5 3.2625 10.4625 3.375 10.395C3.6 10.2675 3.75 10.02 3.75 9.75C3.75 10.02 3.9 10.2675 4.125 10.395C4.2375 10.4625 4.365 10.5 4.5 10.5C4.9125 10.5 5.25 10.155 5.25 9.75C5.25 10.155 5.5875 10.5 6 10.5C6.4125 10.5 6.75 10.155 6.75 9.75C6.75 10.155 7.0875 10.5 7.5 10.5C7.9125 10.5 8.25 10.155 8.25 9.75C8.25 10.155 8.5875 10.5 9 10.5C9.4125 10.5 9.75 10.155 9.75 9.75C9.75 10.155 10.0875 10.5 10.5 10.5C10.9125 10.5 11.25 10.155 11.25 9.75C11.25 10.155 11.5875 10.5 12 10.5C12.4125 10.5 12.75 10.155 12.75 9.75C12.75 10.155 13.0875 10.5 13.5 10.5C13.9125 10.5 14.25 10.155 14.25 9.75C14.25 10.155 14.5875 10.5 15 10.5C15.4125 10.5 15.75 10.155 15.75 9.75C15.75 10.155 16.0875 10.5 16.5 10.5C16.9125 10.5 17.25 10.155 17.25 9.75C17.25 10.155 17.5875 10.5 18 10.5C18.4125 10.5 18.75 10.155 18.75 9.75C18.75 10.155 19.0875 10.5 19.5 10.5C19.635 10.5 19.7625 10.4625 19.875 10.395C20.1 10.2675 20.25 10.02 20.25 9.75C20.25 10.02 20.4 10.2675 20.625 10.395C20.7375 10.4625 20.865 10.5 21 10.5C21.2025 10.5 21.39 10.4175 21.525 10.2825C21.66 10.1475 21.75 9.9525 21.75 9.75V9.7125C21.75 9.705 21.75 9.705 21.7425 9.69Z" fill="#ED6E7A"/>
<path d="M3.375 10.8075V22.4925H4.125V10.7925C3.9825 10.7475 3.855 10.68 3.75 10.5825C3.6375 10.68 3.5175 10.755 3.375 10.8075Z" fill="#ED6E7A"/>
<path d="M19.875 10.7925V18.3675H20.625V10.8075C20.4825 10.755 20.3625 10.68 20.25 10.5825C20.145 10.68 20.0175 10.7475 19.875 10.7925Z" fill="#ED6E7A"/>
<path d="M10.875 20.6175H10.5V22.5H20.25V22.4925V20.6175H19.875H10.875Z" fill="#D34E5C"/>
<path d="M12.75 18V18.3675H13.125H16.875H17.25V18C17.25 17.0475 16.6725 16.245 15.8475 15.915C15.5925 16.0425 15.3075 16.1175 15 16.1175C14.6925 16.1175 14.4075 16.0425 14.1525 15.915C13.3275 16.245 12.75 17.0475 12.75 18Z" fill="#168773"/>
<path d="M15 15.75C15.3 15.75 15.585 15.66 15.825 15.5025C16.23 15.2325 16.5 14.775 16.5 14.25C16.5 13.4175 15.825 12.75 15 12.75C14.175 12.75 13.5 13.4175 13.5 14.25C13.5 14.775 13.77 15.2325 14.175 15.5025C14.415 15.66 14.7 15.75 15 15.75Z" fill="#168773"/>
<path d="M17.625 18.75H12.375H10.5C10.0875 18.75 9.75 19.0875 9.75 19.5C9.75 19.77 9.9 20.0175 10.125 20.145C10.2375 20.2125 10.365 20.25 10.5 20.25H19.875H20.25V20.2425V19.8675V19.1175V18.75H19.875H17.625Z" fill="#D34E5C"/>
</svg>
