<svg width="40" height="40" viewBox="0 0 40 40" fill="none" xmlns="http://www.w3.org/2000/svg">
<g filter="url(#filter0_d)">
<circle cx="20" cy="20" r="16" fill="white"/>
</g>
<g clip-path="url(#clip0)">
<path d="M27.5789 15.7741C27.0088 16.0228 26.4057 16.1881 25.7884 16.2648C26.4389 15.8789 26.9253 15.2678 27.1555 14.5473C26.5463 14.9085 25.8799 15.1629 25.1849 15.2995C24.7589 14.8445 24.2058 14.5282 23.5976 14.3917C22.9894 14.2552 22.3543 14.3047 21.7746 14.5338C21.1949 14.763 20.6976 15.1612 20.3471 15.6766C19.9967 16.1921 19.8094 16.8011 19.8096 17.4244C19.8096 17.6707 19.8304 17.9076 19.8816 18.133C18.6453 18.0724 17.4358 17.7516 16.3321 17.1915C15.2283 16.6314 14.2552 15.8446 13.4764 14.8826C13.0774 15.5665 12.954 16.3767 13.1315 17.1484C13.3089 17.92 13.7737 18.595 14.4314 19.0359C13.9395 19.0227 13.4579 18.8914 13.0274 18.6532V18.6873C13.0282 19.4048 13.2762 20.1002 13.7297 20.6563C14.1831 21.2124 14.8143 21.5954 15.5171 21.7406C15.2512 21.8107 14.9772 21.8451 14.7023 21.8429C14.5049 21.8464 14.3076 21.8287 14.114 21.7899C14.3148 22.4066 14.7018 22.946 15.2218 23.3337C15.7419 23.7214 16.3693 23.9383 17.0177 23.9546C15.9177 24.8149 14.5611 25.2815 13.1647 25.28C12.9099 25.28 12.6655 25.2686 12.4211 25.2374C13.842 26.153 15.4978 26.6374 17.1882 26.6319C22.9065 26.6319 26.0328 21.895 26.0328 17.7891C26.0328 17.6518 26.0281 17.5192 26.0215 17.3875C26.6344 16.9488 27.1622 16.4021 27.5789 15.7741V15.7741Z" fill="#03A9F4"/>
</g>
<defs>
<filter id="filter0_d" x="0" y="0" width="40" height="40" filterUnits="userSpaceOnUse" color-interpolation-filters="sRGB">
<feFlood flood-opacity="0" result="BackgroundImageFix"/>
<feColorMatrix in="SourceAlpha" type="matrix" values="0 0 0 0 0 0 0 0 0 0 0 0 0 0 0 0 0 0 127 0" result="hardAlpha"/>
<feOffset/>
<feGaussianBlur stdDeviation="2"/>
<feColorMatrix type="matrix" values="0 0 0 0 0 0 0 0 0 0 0 0 0 0 0 0 0 0 0.1 0"/>
<feBlend mode="normal" in2="BackgroundImageFix" result="effect1_dropShadow"/>
<feBlend mode="normal" in="SourceGraphic" in2="effect1_dropShadow" result="shape"/>
</filter>
<clipPath id="clip0">
<rect width="15.1579" height="15.1579" fill="white" transform="translate(12.4211 12.4212)"/>
</clipPath>
</defs>
</svg>
