<svg width="32" height="32" viewBox="0 0 32 32" fill="none" xmlns="http://www.w3.org/2000/svg">
<circle cx="16" cy="16" r="16" fill="#F2C94C"/>
<mask id="mask0_1324_6410" style="mask-type:alpha" maskUnits="userSpaceOnUse" x="0" y="0" width="32" height="32">
<circle cx="16" cy="16" r="16" fill="#C4C4C4"/>
</mask>
<g mask="url(#mask0_1324_6410)">
<path d="M24.8872 29.4516V31.5692C24.8872 31.8062 24.6805 31.9983 24.4254 31.9983H7.57114C7.31601 31.9983 7.10938 31.8062 7.10938 31.5692V29.4516C7.10938 27.2395 9.05685 25.4851 11.4372 25.4636C12.2295 25.4558 12.9404 25.0914 13.3743 24.5169L13.3708 24.5137C13.8493 23.8811 13.8019 23.3112 13.8026 22.8783L13.8113 22.8584C11.742 22.0614 10.2863 20.1658 10.2851 17.9554V17.7806C9.45668 17.7806 8.84271 17.17 8.84329 16.4638C8.84369 15.9641 8.84686 11.8303 8.84733 11.2362C8.8479 10.4365 9.54574 9.78803 10.4063 9.78857C11.1063 8.1663 12.798 7.1083 14.6713 7.10938L20.8802 7.11367C21.2029 7.1142 21.4263 7.41457 21.3114 7.6951L20.916 8.66379C20.8208 8.89819 20.9605 9.15833 21.219 9.22806L21.5388 9.31441C22.4973 9.573 23.219 10.3845 23.219 11.3816C23.219 11.7844 23.2173 14.6143 23.2162 16.3855C23.2162 17.1562 22.5431 17.7806 21.7137 17.7806V17.9554C21.712 20.1707 20.2511 22.0683 18.176 22.8627V22.8633L18.183 22.8783C18.183 23.2917 18.1308 23.874 18.6141 24.5142C19.0352 25.0727 19.7493 25.4556 20.5593 25.4636C22.9397 25.4851 24.8872 27.2395 24.8872 29.4516Z" fill="#FFDFBA"/>
<path d="M23.1128 11.3798C23.1128 11.7824 23.1111 14.6112 23.11 16.3815C23.11 17.152 22.4442 17.776 21.6236 17.776C21.6242 17.1927 21.6253 15.7757 21.6259 14.4718C21.627 13.0504 20.401 11.8977 18.8872 11.8966L13.0626 11.8929C11.5488 11.8918 10.3205 13.0435 10.3194 14.4648L10.3171 17.776C9.49747 17.776 8.89005 17.1657 8.89063 16.4598C8.89103 15.9603 8.89417 11.8283 8.89462 11.2345C8.89519 10.4351 9.58558 9.7869 10.437 9.78744C11.1294 8.1658 12.8031 7.1083 14.6564 7.10938L20.799 7.11372C21.1185 7.11393 21.339 7.41423 21.2257 7.69474L20.8345 8.66308C20.74 8.89711 20.8781 9.15714 21.1341 9.22705L21.4506 9.31348C22.3988 9.57196 23.1128 10.3831 23.1128 11.3798Z" fill="#42434D"/>
<path d="M18.7515 10.6721C20.1793 10.6733 21.3357 11.9351 21.3346 13.4909C21.3342 14.8206 21.3325 17.2992 21.3325 17.2992C21.3309 19.723 19.9676 21.7995 18.0313 22.6686V22.6692C14.5265 24.2441 10.6698 21.4268 10.668 17.2992C10.668 16.993 10.6699 13.8754 10.6701 13.4833C10.6712 11.9274 11.8298 10.6668 13.2576 10.668L18.7515 10.6721Z" fill="#FFEBD2"/>
<path d="M21.3047 7.62784C20.8972 8.51541 20.903 8.49471 20.8932 8.53658L16.4174 8.53373C14.6802 8.53283 13.0996 9.34524 12.3279 10.6172C12.2311 10.7768 12.056 10.8963 11.8448 10.9335C11.1445 11.057 10.6192 11.5713 10.6187 12.1867L10.6182 12.6069C10.4331 12.9127 10.3291 13.2579 10.3285 13.623L10.3271 15.404C10.3265 16.1731 8.88988 16.2241 8.89063 15.3896C8.89103 14.9473 8.89419 11.2883 8.89465 10.7624C8.89522 10.0545 9.59003 9.48046 10.4469 9.48093C11.1437 8.04494 12.8282 7.10843 14.6933 7.10938L20.8754 7.11317C21.1966 7.11365 21.419 7.37953 21.3047 7.62784Z" fill="#4D4E59"/>
</g>
</svg>
