<svg width="16" height="18" viewBox="0 0 16 18" fill="none" xmlns="http://www.w3.org/2000/svg">
<path d="M2.0001 17.625C1.94321 17.625 1.8864 17.6207 1.83016 17.6121C1.21597 17.5182 0.794152 16.9443 0.888005 16.3301L1.58194 11.7986C1.72755 9.47777 3.61806 8.24449 6.33638 8.24449H9.69216C12.4083 8.24449 14.301 9.47856 14.443 11.7654L15.1405 16.3301C15.1491 16.3863 15.1534 16.4431 15.1534 16.5C15.1534 17.1213 14.6498 17.625 14.0284 17.625H2.0001ZM2.0001 16.875H14.0284C14.2355 16.875 14.4034 16.7071 14.4034 16.5C14.4034 16.481 14.402 16.4621 14.3991 16.4434L13.6981 11.8456C13.5816 9.98909 12.0561 8.99449 9.69216 8.99449H6.33638C3.97026 8.99449 2.447 9.98819 2.3269 11.8787L1.6294 16.4434C1.59811 16.6481 1.73872 16.8394 1.94345 16.8707C1.9622 16.8736 1.98113 16.875 2.0001 16.875ZM8.01427 7.48386C6.05121 7.48386 4.45984 5.89249 4.45984 3.92943C4.45984 1.96637 6.05121 0.375 8.01427 0.375C9.97732 0.375 11.5687 1.96637 11.5687 3.92943C11.5687 5.89249 9.97732 7.48386 8.01427 7.48386ZM8.01427 6.73386C9.56311 6.73386 10.8187 5.47828 10.8187 3.92943C10.8187 2.38059 9.56311 1.125 8.01427 1.125C6.46542 1.125 5.20984 2.38059 5.20984 3.92943C5.20984 5.47828 6.46542 6.73386 8.01427 6.73386Z" fill="#505565"/>
</svg>
