<svg width="32" height="32" viewBox="0 0 32 32" fill="none" xmlns="http://www.w3.org/2000/svg">
<circle cx="16" cy="16" r="16" fill="#F2C94C"/>
<mask id="mask0_400_42657" style="mask-type:alpha" maskUnits="userSpaceOnUse" x="0" y="0" width="32" height="32">
<circle cx="16" cy="16" r="16" fill="#C4C4C4"/>
</mask>
<g mask="url(#mask0_400_42657)">
<path d="M27.2322 30.4638C27.2642 30.8478 27.0402 31.1998 26.6882 31.3278C24.0642 32.4478 20.0642 33.3118 15.9682 33.3118C11.8722 33.3118 7.8722 32.4478 5.2482 31.3278C4.8962 31.1678 4.6722 30.8158 4.7042 30.4638C4.8322 28.0318 5.6002 25.8238 6.8482 24.0317C7.5202 24.3518 8.2562 24.5117 9.0242 24.5117C11.2002 24.5117 13.0562 23.1998 13.8562 21.3438C14.5282 21.5998 15.2322 21.7278 15.9682 21.7278C16.7042 21.7278 17.4402 21.5998 18.0802 21.3438C18.9442 23.1998 20.8002 24.4798 22.9442 24.4798C23.6802 24.4798 24.4162 24.3198 25.0882 24.0317C26.3362 25.8238 27.1362 28.0318 27.2322 30.4638Z" fill="#FFDFBA"/>
<path d="M19.6096 10.004C21.4836 10.0051 23.0014 11.2218 23 12.7221C22.9994 14.0043 22.9972 16.3944 22.9972 16.3944C22.995 18.7317 21.2058 20.7339 18.6644 21.5721V21.5726C14.0643 23.0912 9.0024 20.3746 9 16.3944C9 16.0991 9.00255 13.0929 9.00283 12.7148C9.00424 11.2145 10.5248 9.99887 12.3989 10L19.6096 10.004Z" fill="#FFEBD2"/>
<path d="M24.6724 15.3282V22.6242C24.1604 22.8802 23.5844 23.0402 22.9764 23.0402C21.3764 23.0402 20.0004 22.0482 19.4244 20.6722C21.0244 19.6162 22.1124 17.8882 22.2404 15.8722C18.6884 15.6482 15.3604 13.7602 14.3684 11.9042C13.8884 12.9602 11.7764 14.3362 9.85639 14.6562C9.82439 14.9122 9.79239 15.2002 9.79239 15.4882C9.79239 17.6642 10.9124 19.5842 12.6084 20.7042C12.0324 22.0802 10.6564 23.0722 9.05639 23.0722C8.44839 23.0722 7.84039 22.9122 7.29639 22.6242V15.3282C7.29639 10.5283 11.2004 6.65625 15.9684 6.65625C20.7364 6.65625 24.6724 10.5603 24.6724 15.3282Z" fill="#505565"/>
</g>
</svg>
