<svg xmlns="http://www.w3.org/2000/svg" width="21.567" height="21.566" viewBox="0 0 21.567 21.566">
  <g id="edit" transform="translate(0 -0.501)">
    <path id="Path_357" data-name="Path 357" d="M17.074,93.005a.9.9,0,0,0-.9.9v7.189a.9.9,0,0,1-.9.9H2.7a.9.9,0,0,1-.9-.9V88.512a.9.9,0,0,1,.9-.9H9.885a.9.9,0,0,0,0-1.8H2.7a2.7,2.7,0,0,0-2.7,2.7v12.581a2.7,2.7,0,0,0,2.7,2.7H15.277a2.7,2.7,0,0,0,2.7-2.7V93.9a.9.9,0,0,0-.9-.9Zm0,0" transform="translate(0 -81.721)" fill="#988149"/>
    <path id="Path_358" data-name="Path 358" d="M182.576,75.372a.455.455,0,0,0-.123.229l-.635,3.178a.449.449,0,0,0,.441.537.428.428,0,0,0,.088-.009l3.177-.635a.447.447,0,0,0,.23-.123l7.11-7.11-3.177-3.176Zm0,0" transform="translate(-174.15 -64.907)" fill="#ffbbc0"/>
    <path id="Path_359" data-name="Path 359" d="M395.866,1.158a2.248,2.248,0,0,0-3.177,0L391.445,2.4l3.177,3.177,1.244-1.244a2.246,2.246,0,0,0,0-3.176Zm0,0" transform="translate(-374.957)" fill="#ffbbc0"/>
  </g>
</svg>
