<svg xmlns="http://www.w3.org/2000/svg" width="18.663" height="21.566" viewBox="0 0 18.663 21.566">
  <g id="trash" transform="translate(-34.462)">
    <path id="Path_256" data-name="Path 256" d="M52.088,4.147H47.941a4.147,4.147,0,1,0-8.295,0H35.5a1.037,1.037,0,0,0,0,2.074h.415V18.87a2.7,2.7,0,0,0,2.7,2.7H48.978a2.7,2.7,0,0,0,2.7-2.7V6.221h.415a1.037,1.037,0,1,0,0-2.074ZM43.793,2.074a2.074,2.074,0,0,1,2.074,2.074H41.72A2.074,2.074,0,0,1,43.793,2.074ZM49.6,18.87a.622.622,0,0,1-.622.622H38.609a.622.622,0,0,1-.622-.622V6.221H49.6Z" fill="#ff485a"/>
    <g id="Group_230" data-name="Group 230" transform="translate(40.476 9.746)">
      <path id="Path_257" data-name="Path 257" d="M178.268,237.606a1.037,1.037,0,0,1-1.037-1.037v-4.147a1.037,1.037,0,1,1,2.074,0v4.147A1.037,1.037,0,0,1,178.268,237.606Z" transform="translate(-177.231 -231.385)" fill="#ffbbc0"/>
      <path id="Path_258" data-name="Path 258" d="M286.576,237.606a1.037,1.037,0,0,1-1.037-1.037v-4.147a1.037,1.037,0,1,1,2.074,0v4.147A1.037,1.037,0,0,1,286.576,237.606Z" transform="translate(-280.977 -231.385)" fill="#ffbbc0"/>
    </g>
  </g>
</svg>
